<svg width="606" height="584" viewBox="0 0 606 584" fill="none" xmlns="http://www.w3.org/2000/svg">
<path d="M247.425 128.166C132.476 129.412 107.595 226.835 107.595 226.835C107.595 226.835 95.2721 285.242 89.3077 327.379L73.695 340.073C78.8423 344.318 83.3206 347.399 87.3632 349.647C85.8002 415.155 126.09 432.651 126.09 432.651C138.503 431.866 161.193 410.913 189.022 378.742C191.636 380.389 194.338 382.136 197.145 384.008C246.431 416.902 267.379 374.603 315.057 419.954C361.348 463.989 419.227 416.66 463.098 467.474C506.395 517.63 592.732 499.204 606.016 488.256V0C315.057 0 294.875 127.654 247.425 128.166Z" fill="url(#paint0_linear)"/>
<path d="M246.542 565.978C242.152 564.2 218.975 547.725 213.896 534.305C206.426 514.552 193.817 538.607 193.817 538.607C194.323 540.302 194.201 542.817 194.061 545.617C190.292 552.814 191.26 561.77 197.458 564.467C201.925 566.41 207.254 569.622 213.839 572.154C219.32 574.263 226.693 578.595 230.796 580.459C238.386 583.907 255.297 586.479 260.344 577.873C263.029 573.287 259.778 571.341 246.542 565.978Z" fill="#FDB98D"/>
<path d="M246.724 565.943C246.627 565.903 246.525 565.915 246.448 565.983C245.583 566.783 239.823 571.684 232.245 568.111C212.256 558.689 198.821 546.708 194.306 544.913C191.983 543.844 188.794 553.243 190.272 557.406C191.359 560.467 192.712 563.357 195.254 564.677C199.525 566.891 204.248 568.216 212.621 571.676C218.047 573.918 226.69 578.598 230.793 580.461C238.383 583.909 255.293 586.481 260.341 577.875C263.017 573.306 259.826 571.255 246.724 565.943Z" fill="#001C22"/>
<path d="M273.114 543.218C268.724 541.44 245.547 524.965 240.468 511.545C232.997 491.792 220.388 515.847 220.388 515.847C220.895 517.542 220.773 520.057 220.633 522.857C216.864 530.054 217.832 539.01 224.029 541.707C228.496 543.65 233.826 546.862 240.411 549.394C245.891 551.503 253.265 555.835 257.367 557.699C264.957 561.147 281.868 563.719 286.916 555.113C289.603 550.527 286.352 548.581 273.114 543.218Z" fill="#FDB98D"/>
<path d="M273.298 543.184C273.201 543.144 273.098 543.156 273.021 543.224C272.156 544.023 266.397 548.925 258.818 545.352C238.829 535.929 225.395 523.949 220.879 522.154C218.556 521.084 215.368 530.484 216.845 534.646C217.933 537.707 219.285 540.598 221.827 541.918C226.098 544.131 230.821 545.457 239.194 548.917C244.62 551.158 253.264 555.838 257.366 557.702C264.956 561.15 281.867 563.722 286.915 555.116C289.591 550.547 286.396 548.496 273.298 543.184Z" fill="#001C22"/>
<path d="M124.172 324.953C130.102 384.936 205.125 387.34 209.139 307.562C209.948 291.516 225.956 251.584 176.282 235.043C154.127 227.666 124.172 324.953 124.172 324.953Z" fill="#005264"/>
<path d="M164.134 376.666C150.329 455.36 140.903 545.523 83.6053 545.614C26.3076 545.705 19.4094 470.333 12.0671 473.852C3.2245 478.091 -0.550537 457.958 0.0644073 437.206C0.109955 435.701 0.155472 434.128 0.246567 432.555C3.85081 370.646 44.2178 262.671 114.364 277.311C170.432 289.009 177.643 299.703 164.134 376.666Z" fill="url(#paint1_linear)"/>
<path d="M40.5399 463.547C40.5399 463.547 134.919 434.485 166.657 333.939C179.451 293.403 201.057 373.922 195.491 445.803C193.031 477.575 185.139 504.881 170.199 526.503C144.488 563.709 43.7228 577.297 40.5399 463.547Z" fill="#00333E"/>
<path d="M217.483 516.27C217.483 516.27 104.365 317.344 181.888 319.418C238.576 320.934 243.855 509.817 243.855 509.817C244.569 515.553 219.277 519.046 217.483 516.27Z" fill="#00333E"/>
<path d="M12.0726 473.853C12.0726 473.853 90.2158 445.707 121.954 345.161C121.954 345.161 162.039 345.94 162.104 434.569C162.11 442.672 157.6 505.022 125.097 542.129C94.0791 577.546 5.59297 565.202 12.0726 473.853Z" fill="#004C5C"/>
<path d="M188 489.308C187.052 490.91 179.975 492.472 174.454 493.806C180.342 492.773 187.844 492.275 186.767 493.826C185.936 495.024 181.802 496.099 177.839 497.194C179.844 497.001 183.73 497.41 183.001 498.366C181.543 500.284 173.065 504.204 160.53 503.567C149.37 503.001 122.936 489.746 120.203 487.504L124.633 467.476C124.633 467.476 130.625 471.129 134.235 470.992C138.748 470.821 143.163 470.471 145.43 470.392C151.465 470.181 154.281 472.301 161.076 470.946C168.564 469.456 172.339 470.619 170.975 472.306C168.706 475.106 156.003 474.981 155.394 479.072C155.559 480.42 161.552 484.053 165.671 485.04C171.283 486.386 185.002 482.395 184.194 485.197C183.696 486.93 177.185 488.631 173.367 489.342C178.987 488.531 189.668 486.489 188 489.308Z" fill="#FDB98D"/>
<path d="M190.497 540.288C190.497 540.288 62.5326 343.018 144.422 326.338C215.092 311.943 217.404 533.406 217.404 533.406C218.751 541.375 194.301 543.412 190.497 540.288Z" fill="#004C5C"/>
<path d="M123.634 492.888C86.9194 478.598 54.8969 470.649 28.3405 443.283C18.5954 433.24 9.94345 417.252 8.11571 396.626C7.99329 395.553 7.91929 394.458 7.84811 393.363C4.92429 345.439 33.3027 289.416 101.362 286.528L106.506 337.456C117.644 359.274 84.5507 383.041 95.0531 395.681C115.961 420.862 116.474 463.861 132.186 470.02C136.636 471.764 129.191 495.05 123.634 492.888Z" fill="url(#paint2_linear)"/>
<path d="M140.832 280.138L104.063 301.578C94.7736 311.077 113.025 339.649 124.168 329.609L138.588 314.764L140.832 280.138Z" fill="#ED715D"/>
<path d="M170.97 321.165C168.655 322.709 166.631 324.254 164.177 325.458C160.983 327.02 157.47 328.121 153.866 328.596C144.28 329.862 129.507 329.583 124.71 321.526C116.232 307.287 121.98 279.392 144.331 269.841C163.836 261.506 200.78 261.147 193.099 272.88C181.179 291.088 193.182 297.201 186.292 309.301C184.849 311.836 182.791 314.584 176.422 318.049C174.375 319.167 172.567 320.103 170.97 321.165Z" fill="#FDB98D"/>
<path d="M143.838 297.294C139.44 299.994 133.686 298.619 130.984 294.224C128.282 289.829 129.657 284.079 134.056 281.379C138.455 278.679 144.208 280.053 146.91 284.449C149.612 288.844 148.237 294.594 143.838 297.294Z" fill="#ED715D"/>
<path d="M164.177 325.457C160.983 327.019 157.464 328.072 153.865 328.595C152.419 324.524 153.951 319.858 157.783 317.506C162.181 314.806 167.935 316.177 170.637 320.575C170.759 320.775 170.864 320.968 170.973 321.164C168.658 322.709 166.631 324.254 164.177 325.457Z" fill="#ED715D"/>
<path d="M207.929 263.424C207.929 263.424 191.291 211.927 139.54 233.461C80.2687 246.252 26.8171 280.346 34.3786 315.421C34.3786 315.421 59.1813 290.847 80.4424 309.046C99.7903 325.606 123.124 328.551 123.309 304.252C123.491 280.144 137.225 273.117 152.445 271.285C163.001 270.016 163.246 288.357 178.466 291.783C199.878 296.599 207.929 263.424 207.929 263.424Z" fill="#005264"/>
<path d="M143.443 319.865C143.409 319.865 143.377 319.862 143.343 319.854C143.093 319.799 142.93 319.549 142.987 319.299C144.51 312.314 137.53 310.101 137.234 310.01C136.986 309.933 136.846 309.674 136.923 309.427C137 309.182 137.259 309.04 137.504 309.117C137.587 309.142 145.606 311.666 143.901 319.498C143.853 319.717 143.659 319.865 143.443 319.865Z" fill="#ED715D"/>
<path d="M151.554 313.431C151.32 313.431 151.084 313.405 150.845 313.348C148.855 312.896 147.246 310.645 147.107 308.108C147.093 307.852 147.289 307.63 147.548 307.615C147.816 307.587 148.026 307.798 148.041 308.056C148.174 310.489 149.695 312.128 151.053 312.435C152.132 312.685 153.097 312.13 153.774 310.893C157.222 304.614 160.764 302.762 160.912 302.685C161.139 302.568 161.424 302.659 161.538 302.887C161.655 303.115 161.564 303.396 161.336 303.516C161.302 303.533 157.885 305.342 154.594 311.34C153.848 312.699 152.767 313.431 151.554 313.431Z" fill="#ED715D"/>
<path d="M157.555 297.424C157.486 297.424 157.418 297.41 157.353 297.379C149.692 293.68 151.61 284.727 151.633 284.636C151.69 284.386 151.946 284.227 152.191 284.284C152.442 284.34 152.601 284.588 152.544 284.841C152.467 285.18 150.773 293.163 157.76 296.537C157.99 296.648 158.09 296.929 157.976 297.16C157.896 297.328 157.728 297.424 157.555 297.424Z" fill="#002869"/>
<path d="M172.18 317.037C172.123 317.037 172.063 317.025 172.006 317.003C164.086 313.848 164.775 307.566 164.783 307.503C164.815 307.247 165.042 307.057 165.304 307.099C165.56 307.131 165.743 307.364 165.711 307.617C165.683 307.845 165.128 313.256 172.353 316.132C172.592 316.229 172.709 316.499 172.615 316.741C172.541 316.926 172.365 317.037 172.18 317.037Z" fill="#002869"/>
<path d="M34.8 491.417C34.7829 491.417 34.7686 491.417 34.7515 491.414C34.3587 491.389 34.0626 491.05 34.0882 490.657C35.2754 472.381 45.0661 460.492 45.1657 460.376C45.4191 460.074 45.8689 460.034 46.1678 460.284C46.4696 460.538 46.5095 460.987 46.2589 461.286C46.1621 461.4 36.6676 472.956 35.5088 490.748C35.4832 491.127 35.1701 491.417 34.8 491.417Z" fill="#00333E"/>
<path d="M30.5776 446.24C30.4267 446.24 30.273 446.192 30.142 446.089C11.2752 431.426 7.5115 398.593 7.47449 398.263C7.43179 397.873 7.71363 397.523 8.10651 397.48C8.49939 397.455 8.84957 397.722 8.88942 398.112C8.92643 398.433 12.6275 430.678 31.016 444.968C31.3263 445.21 31.3833 445.657 31.1413 445.967C31.0018 446.146 30.7911 446.24 30.5776 446.24Z" fill="#E8E2E4"/>
<path d="M95.0528 396.392C94.8022 396.392 94.5602 396.261 94.4293 396.028C94.4065 395.985 92.0521 391.783 89.7632 388.972C86.2188 384.623 86.1447 378.748 89.5553 372.432L89.6778 372.201C89.8543 371.851 90.2842 371.706 90.6315 371.886C90.9845 372.059 91.1268 372.489 90.9503 372.839L90.808 373.106C87.6422 378.97 87.6622 384.145 90.8649 388.073C93.2364 390.984 95.5738 395.16 95.6705 395.337C95.8613 395.678 95.7388 396.113 95.3944 396.304C95.2862 396.364 95.1695 396.392 95.0528 396.392Z" fill="#E8E2E4"/>
<path d="M148.35 462.674C148.083 462.674 147.824 462.52 147.704 462.261C147.149 461.055 146.503 459.675 145.782 458.136C137.395 440.221 117.754 398.272 117.754 365.287C117.754 364.895 118.073 364.576 118.466 364.576C118.859 364.576 119.178 364.895 119.178 365.287C119.178 397.956 138.725 439.706 147.072 457.533C147.795 459.075 148.442 460.46 149 461.664C149.165 462.022 149.008 462.443 148.649 462.608C148.55 462.654 148.45 462.674 148.35 462.674Z" fill="#00333E"/>
<path d="M605.614 84.9067C592.327 94.7276 577.293 105.635 562.907 115.61C555.368 120.839 534.697 130.182 527.075 135.607C519.764 140.81 512.604 146.987 509.231 148.051C509.231 148.051 504.952 149.072 499.004 147.297C498.785 147.231 498.611 147.183 498.5 147.157C497.464 146.924 495.981 146.606 494.079 146.261C490.267 145.556 484.881 144.697 477.903 144.173C474.37 143.943 470.555 143.778 465.624 144.076C464.972 144.139 464.317 144.202 463.657 144.264L462.666 144.369L461.806 144.483C460.773 144.634 459.725 144.788 458.669 144.944C456.536 145.291 454.421 145.678 452.269 146.122C447.97 147.035 443.56 148.096 438.953 149.613C436.639 150.384 434.302 151.203 431.828 152.256C430.583 152.79 429.354 153.32 428.03 153.988L425.633 155.175C421.954 156.964 418.259 158.717 414.752 160.725C413.866 161.206 412.995 161.718 412.138 162.239L410.848 163.007L410.208 163.397L409.892 163.596L409.812 163.644C409.775 163.664 409.991 163.567 409.88 163.618L409.841 163.644L409.681 163.741L409.046 164.131L408.648 164.406C408.389 164.589 408.027 164.808 407.722 165.004C407.088 165.408 406.447 165.789 405.809 166.162C403.219 167.664 400.739 168.774 398.031 169.544C396.181 170.034 395.022 170.313 393.547 170.657C392.081 170.987 390.635 171.28 389.24 171.556C383.631 172.626 378.775 173.186 375.404 173.519C373.724 173.658 372.406 173.769 371.506 173.843C370.669 173.894 370.222 173.92 370.222 173.92L369.75 173.949C363.33 174.355 358.165 179.601 357.989 186.153C357.801 193.092 363.279 198.87 370.222 199.058C370.222 199.058 372.426 199.118 376.283 199.223C380.064 199.309 385.422 199.374 392.024 199.243C393.678 199.2 395.409 199.146 397.22 199.05C399.022 198.961 401.248 198.765 402.863 198.66C407.096 198.33 411.833 197.63 416.477 196.597C417.644 196.33 418.817 196.043 419.99 195.724L421.775 195.209L422.729 194.907L423.443 194.7C424.428 194.387 425.416 194.071 426.413 193.755C427.25 193.491 428.084 193.209 428.915 192.91C427.782 193.61 426.618 194.333 425.405 195.089C422.282 197.087 418.9 199.249 415.321 201.539C411.771 203.869 408.03 206.333 404.195 208.93L402.749 209.903L402.02 210.393L401.929 210.455L401.883 210.486C401.963 210.438 401.949 210.447 401.909 210.469C401.009 211.03 400.101 211.596 399.19 212.165C397.374 213.272 395.899 214.139 394.347 214.967C393.57 215.38 392.739 215.784 391.842 216.199L390.458 216.834L389.73 217.161L389.547 217.243L389.456 217.283L389.411 217.303C388.964 217.471 389.969 217.098 389.844 217.144L389.414 217.314C387.128 218.228 384.83 219.146 382.535 220.065C377.963 221.957 373.371 223.798 368.896 225.73C364.406 227.622 360.016 229.568 355.783 231.491C351.546 233.408 347.475 235.326 343.632 237.195C339.788 239.064 336.164 240.856 332.856 242.615C329.545 244.367 326.493 245.92 323.837 247.44C321.164 248.913 318.843 250.222 316.953 251.357C313.152 253.573 311.031 254.982 311.031 254.982C308.09 256.948 306.285 260.433 306.656 264.199C307.191 269.645 312.042 273.628 317.491 273.093C317.491 273.093 319.481 272.896 322.946 272.376C321.186 273.244 319.43 274.108 317.679 274.996C313.542 277.081 309.414 279.184 305.32 281.374C300.495 283.958 297.998 289.756 299.885 295.249C301.884 301.062 308.332 304.04 314.271 302.444C317.81 301.494 321.323 300.484 324.833 299.46C320.127 301.702 317.52 307.082 319.128 312.348C320.819 317.89 326.812 320.934 332.452 319.577L356.967 313.682C356.252 315.261 355.908 317.03 356.09 318.88C356.648 324.507 361.664 328.615 367.296 328.058C367.296 328.058 370.208 327.77 375.219 327.002C377.735 326.652 437.798 313.648 440.471 312.954C447.423 311.039 465.49 304.902 471.318 302.743C484.752 297.764 512.072 286.347 520.823 280.777C532.527 273.326 547.474 263.201 559.596 243.186C562.819 237.866 567.232 233.366 572.849 230.686L605.611 215.055L605.614 84.9067Z" fill="#FDB98D"/>
<path d="M325.323 272.383C324.947 272.383 324.591 272.159 324.443 271.786C324.25 271.3 324.483 270.748 324.973 270.554L398.988 240.995C399.472 240.799 400.027 241.038 400.22 241.524C400.414 242.011 400.181 242.563 399.691 242.756L325.673 272.315C325.559 272.361 325.44 272.383 325.323 272.383Z" fill="#ED715D"/>
<path d="M325.978 299.846C325.597 299.846 325.235 299.612 325.09 299.234C324.905 298.745 325.15 298.196 325.64 298.011L401.881 269.063C402.371 268.878 402.92 269.123 403.105 269.612C403.29 270.102 403.045 270.651 402.556 270.836L326.317 299.783C326.203 299.829 326.092 299.846 325.978 299.846Z" fill="#ED715D"/>
<path d="M360.133 312.704C359.737 312.704 359.37 312.457 359.236 312.064C359.065 311.569 359.33 311.029 359.825 310.858L420.48 290.019C420.975 289.848 421.513 290.113 421.684 290.608C421.855 291.103 421.59 291.643 421.095 291.814L360.44 312.656C360.338 312.69 360.235 312.704 360.133 312.704Z" fill="#ED715D"/>
<path d="M466.896 199.83C451.807 199.83 436.183 191.867 435.381 191.452C434.916 191.21 434.731 190.638 434.973 190.174C435.215 189.708 435.791 189.531 436.252 189.768C436.485 189.89 459.958 201.85 476.468 196.57C476.966 196.411 477.501 196.684 477.661 197.184C477.82 197.682 477.544 198.217 477.046 198.376C473.817 199.406 470.37 199.83 466.896 199.83Z" fill="#ED715D"/>
<defs>
<linearGradient id="paint0_linear" x1="180.724" y1="347.655" x2="605.814" y2="93.8419" gradientUnits="userSpaceOnUse">
<stop stop-color="#D2F4C2"/>
<stop offset="1" stop-color="#CFFFB2" stop-opacity="0"/>
</linearGradient>
<linearGradient id="paint1_linear" x1="133" y1="328.35" x2="-93.3451" y2="523.969" gradientUnits="userSpaceOnUse">
<stop stop-color="#94CE78"/>
<stop offset="1" stop-color="#51C69C"/>
</linearGradient>
<linearGradient id="paint2_linear" x1="106.146" y1="326.647" x2="-66.2583" y2="470.748" gradientUnits="userSpaceOnUse">
<stop stop-color="#94CE78"/>
<stop offset="1" stop-color="#51C69C"/>
</linearGradient>
</defs>
</svg>
