<svg width="751" height="674" viewBox="0 0 751 674" fill="none" xmlns="http://www.w3.org/2000/svg">
<ellipse cx="249.5" cy="588.5" rx="229.5" ry="71.5" fill="#EEF8E8"/>
<path d="M498 588.5C498 599.879 491.272 610.869 478.764 621.003C466.263 631.131 448.114 640.296 425.599 648.012C380.578 663.44 318.318 673 249.5 673C180.682 673 118.422 663.44 73.401 648.012C50.8857 640.296 32.7366 631.131 20.2365 621.003C7.72792 610.869 1 599.879 1 588.5C1 577.121 7.72792 566.131 20.2365 555.997C32.7366 545.869 50.8857 536.704 73.401 528.988C118.422 513.56 180.682 504 249.5 504C318.318 504 380.578 513.56 425.599 528.988C448.114 536.704 466.263 545.869 478.764 555.997C491.272 566.131 498 577.121 498 588.5Z" stroke="#F5F9F3" stroke-width="2"/>
<path d="M363.849 138.529C239.606 139.876 212.713 245.176 212.713 245.176C212.713 245.176 199.394 308.306 192.947 353.85L176.072 367.57C181.635 372.158 186.476 375.488 190.845 377.918C189.156 448.723 232.704 467.634 232.704 467.634C246.12 466.785 270.645 444.138 300.724 409.366C303.549 411.146 306.469 413.034 309.503 415.057C362.775 450.611 385.416 404.892 436.949 453.91C486.984 501.505 549.542 450.349 596.961 505.272C643.758 559.484 737.076 539.567 751.434 527.735V0H442.328H442.18C420.08 25.3534 415.135 137.975 363.849 138.529Z" fill="url(#paint0_linear)"/>
<path d="M362.895 611.741C358.15 609.819 333.099 592.012 327.609 577.507C319.535 556.157 305.906 582.156 305.906 582.156C306.454 583.989 306.322 586.707 306.171 589.733C302.097 597.513 303.143 607.193 309.842 610.108C314.67 612.208 320.43 615.68 327.548 618.417C333.471 620.695 341.441 625.379 345.875 627.393C354.079 631.12 372.357 633.899 377.813 624.598C380.715 619.641 377.201 617.537 362.895 611.741Z" fill="#FDB98D"/>
<path d="M363.092 611.704C362.987 611.661 362.876 611.673 362.793 611.747C361.858 612.611 355.633 617.909 347.441 614.047C325.837 603.862 311.316 590.914 306.435 588.973C303.924 587.817 300.478 597.977 302.075 602.476C303.25 605.784 304.712 608.909 307.46 610.335C312.076 612.728 317.181 614.161 326.231 617.9C332.096 620.323 341.438 625.381 345.872 627.395C354.076 631.122 372.354 633.902 377.81 624.6C380.702 619.662 377.253 617.445 363.092 611.704Z" fill="#001C22"/>
<path d="M391.614 587.141C386.869 585.219 361.818 567.412 356.328 552.907C348.254 531.557 334.625 557.556 334.625 557.556C335.173 559.389 335.04 562.107 334.889 565.133C330.815 572.913 331.862 582.593 338.561 585.508C343.389 587.608 349.149 591.08 356.266 593.817C362.19 596.095 370.16 600.778 374.594 602.793C382.798 606.519 401.076 609.299 406.532 599.997C409.436 595.041 405.922 592.937 391.614 587.141Z" fill="#FDB98D"/>
<path d="M391.814 587.104C391.709 587.061 391.599 587.073 391.515 587.147C390.58 588.011 384.355 593.309 376.164 589.447C354.559 579.262 340.038 566.314 335.157 564.373C332.647 563.217 329.2 573.377 330.797 577.876C331.973 581.184 333.434 584.308 336.182 585.735C340.798 588.128 345.903 589.561 354.953 593.3C360.818 595.723 370.16 600.781 374.594 602.795C382.798 606.522 401.076 609.302 406.532 600C409.424 595.062 405.972 592.845 391.814 587.104Z" fill="#001C22"/>
<path d="M230.63 351.227C237.04 416.06 318.129 418.659 322.467 332.43C323.341 315.087 340.644 271.926 286.954 254.048C263.008 246.074 230.63 351.227 230.63 351.227Z" fill="#005264"/>
<path d="M273.824 407.121C258.903 492.179 248.714 589.632 186.784 589.73C124.853 589.828 117.397 508.362 109.461 512.166C99.9035 516.748 95.8232 494.986 96.4879 472.557C96.5371 470.93 96.5863 469.23 96.6848 467.529C100.58 400.614 144.211 283.909 220.029 299.733C280.63 312.377 288.425 323.936 273.824 407.121Z" fill="url(#paint1_linear)"/>
<path d="M140.236 501.028C140.236 501.028 242.246 469.617 276.55 360.941C290.379 317.128 313.731 404.157 307.716 481.85C305.057 516.191 296.527 545.705 280.378 569.075C252.589 609.29 143.676 623.976 140.236 501.028Z" fill="#00333E"/>
<path d="M331.486 558.014C331.486 558.014 209.222 343.004 293.012 345.246C354.285 346.885 359.99 551.04 359.99 551.04C360.762 557.24 333.425 561.016 331.486 558.014Z" fill="#00333E"/>
<path d="M109.467 512.166C109.467 512.166 193.928 481.745 228.233 373.068C228.233 373.068 271.559 373.911 271.63 469.706C271.636 478.464 266.761 545.856 231.63 585.963C198.104 624.244 102.463 610.901 109.467 512.166Z" fill="#004C5C"/>
<path d="M299.619 528.873C298.594 530.604 290.945 532.292 284.978 533.734C291.342 532.618 299.45 532.08 298.287 533.756C297.388 535.05 292.92 536.213 288.637 537.396C290.803 537.187 295.003 537.63 294.216 538.663C292.64 540.736 283.476 544.973 269.928 544.285C257.865 543.673 229.294 529.346 226.34 526.923L231.128 505.275C231.128 505.275 237.605 509.223 241.507 509.076C246.385 508.891 251.157 508.513 253.607 508.427C260.13 508.199 263.173 510.49 270.519 509.026C278.611 507.415 282.692 508.673 281.218 510.496C278.765 513.522 265.035 513.387 264.377 517.809C264.555 519.266 271.032 523.193 275.485 524.26C281.55 525.715 296.379 521.4 295.505 524.429C294.966 526.302 287.929 528.141 283.803 528.909C289.877 528.033 301.422 525.825 299.619 528.873Z" fill="#FDB98D"/>
<path d="M302.318 583.973C302.318 583.973 164.007 370.753 252.518 352.724C328.902 337.165 331.4 576.535 331.4 576.535C332.856 585.148 306.429 587.35 302.318 583.973Z" fill="#004C5C"/>
<path d="M230.048 532.74C190.365 517.295 155.754 508.703 127.05 479.125C116.517 468.27 107.166 450.989 105.19 428.695C105.058 427.535 104.978 426.352 104.901 425.168C101.741 373.369 132.414 312.816 205.976 309.695L211.536 364.741C223.574 388.323 187.805 414.012 199.157 427.674C221.755 454.891 222.309 501.366 239.292 508.024C244.102 509.909 236.055 535.077 230.048 532.74Z" fill="url(#paint2_linear)"/>
<path d="M248.637 302.789L208.896 325.962C198.855 336.23 218.582 367.112 230.626 356.26L246.212 340.215L248.637 302.789Z" fill="#ED715D"/>
<path d="M281.212 347.134C278.71 348.804 276.522 350.473 273.87 351.774C270.417 353.462 266.62 354.652 262.725 355.166C252.364 356.534 236.397 356.233 231.212 347.524C222.048 332.134 228.261 301.984 252.419 291.661C273.501 282.651 313.433 282.264 305.131 294.945C292.247 314.625 305.22 321.233 297.773 334.311C296.213 337.051 293.988 340.021 287.105 343.767C284.892 344.975 282.938 345.987 281.212 347.134Z" fill="#FDB98D"/>
<path d="M251.886 321.332C247.132 324.25 240.913 322.764 237.993 318.014C235.073 313.263 236.559 307.048 241.313 304.13C246.068 301.212 252.286 302.697 255.207 307.448C258.127 312.199 256.641 318.413 251.886 321.332Z" fill="#ED715D"/>
<path d="M273.87 351.774C270.417 353.462 266.614 354.6 262.724 355.165C261.161 350.765 262.817 345.722 266.958 343.179C271.713 340.261 277.932 341.743 280.852 346.497C280.984 346.712 281.098 346.921 281.215 347.134C278.713 348.803 276.522 350.473 273.87 351.774Z" fill="#ED715D"/>
<path d="M321.159 284.723C321.159 284.723 303.177 229.063 247.24 252.338C183.177 266.163 125.403 303.014 133.576 340.925C133.576 340.925 160.384 314.363 183.365 334.034C204.277 351.934 229.497 355.116 229.697 328.853C229.894 302.795 244.738 295.2 261.189 293.22C272.599 291.848 272.864 311.673 289.314 315.375C312.457 320.581 321.159 284.723 321.159 284.723Z" fill="#005264"/>
<path d="M251.459 345.729C251.422 345.729 251.388 345.726 251.351 345.717C251.081 345.658 250.905 345.387 250.967 345.117C252.613 337.568 245.068 335.175 244.748 335.077C244.48 334.994 244.329 334.714 244.412 334.447C244.496 334.182 244.776 334.028 245.04 334.111C245.129 334.139 253.798 336.867 251.954 345.332C251.902 345.569 251.693 345.729 251.459 345.729Z" fill="#ED715D"/>
<path d="M260.226 338.773C259.973 338.773 259.718 338.745 259.46 338.684C257.309 338.195 255.57 335.762 255.419 333.019C255.404 332.743 255.616 332.503 255.896 332.487C256.186 332.457 256.413 332.684 256.429 332.964C256.573 335.593 258.216 337.364 259.684 337.696C260.85 337.967 261.894 337.367 262.626 336.03C266.352 329.243 270.18 327.241 270.34 327.158C270.587 327.032 270.894 327.131 271.017 327.377C271.144 327.623 271.045 327.927 270.799 328.056C270.762 328.075 267.069 330.031 263.512 336.513C262.706 337.982 261.537 338.773 260.226 338.773Z" fill="#ED715D"/>
<path d="M266.712 321.473C266.638 321.473 266.564 321.457 266.494 321.424C258.213 317.426 260.287 307.749 260.312 307.651C260.373 307.38 260.65 307.208 260.915 307.269C261.186 307.331 261.358 307.598 261.296 307.872C261.213 308.238 259.382 316.866 266.934 320.513C267.183 320.633 267.291 320.938 267.168 321.187C267.081 321.368 266.9 321.473 266.712 321.473Z" fill="#002869"/>
<path d="M282.52 342.669C282.458 342.669 282.393 342.657 282.332 342.632C273.771 339.222 274.516 332.432 274.525 332.365C274.559 332.088 274.805 331.882 275.088 331.928C275.365 331.962 275.562 332.214 275.528 332.488C275.497 332.734 274.897 338.582 282.707 341.691C282.966 341.796 283.092 342.088 282.99 342.349C282.91 342.549 282.72 342.669 282.52 342.669Z" fill="#002869"/>
<path d="M134.032 531.151C134.013 531.151 133.998 531.151 133.979 531.148C133.555 531.12 133.235 530.754 133.263 530.33C134.546 510.576 145.128 497.726 145.236 497.6C145.51 497.274 145.996 497.231 146.319 497.501C146.645 497.775 146.688 498.261 146.417 498.584C146.313 498.707 136.05 511.197 134.798 530.429C134.77 530.838 134.432 531.151 134.032 531.151Z" fill="#00333E"/>
<path d="M129.468 482.32C129.305 482.32 129.139 482.268 128.997 482.157C108.605 466.309 104.537 430.82 104.497 430.464C104.451 430.042 104.756 429.664 105.18 429.618C105.605 429.59 105.983 429.879 106.026 430.301C106.066 430.648 110.067 465.5 129.942 480.946C130.277 481.207 130.339 481.69 130.077 482.025C129.927 482.219 129.699 482.32 129.468 482.32Z" fill="#E8E2E4"/>
<path d="M199.156 428.443C198.886 428.443 198.624 428.302 198.483 428.05C198.458 428.004 195.913 423.462 193.439 420.424C189.608 415.722 189.528 409.372 193.215 402.546L193.347 402.297C193.538 401.918 194.002 401.762 194.378 401.955C194.759 402.143 194.913 402.607 194.722 402.985L194.568 403.275C191.147 409.612 191.168 415.205 194.63 419.452C197.193 422.598 199.72 427.112 199.824 427.303C200.03 427.672 199.898 428.142 199.526 428.348C199.409 428.413 199.283 428.443 199.156 428.443Z" fill="#E8E2E4"/>
<path d="M256.764 500.084C256.474 500.084 256.194 499.918 256.065 499.638C255.465 498.335 254.767 496.843 253.988 495.18C244.923 475.816 223.694 430.475 223.694 394.824C223.694 394.4 224.038 394.055 224.463 394.055C224.887 394.055 225.232 394.4 225.232 394.824C225.232 430.134 246.36 475.26 255.382 494.528C256.164 496.194 256.862 497.692 257.465 498.993C257.644 499.38 257.474 499.835 257.087 500.014C256.979 500.063 256.871 500.084 256.764 500.084Z" fill="#00333E"/>
<path d="M751 91.7705C736.639 102.385 720.389 114.175 704.84 124.956C696.691 130.608 674.348 140.706 666.111 146.57C658.209 152.194 650.47 158.87 646.823 160.02C646.823 160.02 642.198 161.124 635.77 159.205C635.533 159.135 635.345 159.082 635.225 159.055C634.105 158.802 632.502 158.458 630.447 158.086C626.326 157.323 620.504 156.395 612.962 155.829C609.143 155.58 605.02 155.401 599.69 155.724C598.986 155.792 598.278 155.86 597.564 155.927L596.493 156.041L595.564 156.164C594.447 156.327 593.315 156.493 592.173 156.662C589.868 157.037 587.582 157.456 585.256 157.935C580.609 158.922 575.843 160.069 570.864 161.708C568.362 162.542 565.836 163.427 563.162 164.565C561.817 165.143 560.488 165.715 559.057 166.438L556.466 167.72C552.49 169.654 548.496 171.548 544.705 173.719C543.748 174.239 542.806 174.792 541.88 175.355L540.486 176.185L539.794 176.607L539.452 176.822L539.366 176.874C539.326 176.896 539.56 176.791 539.44 176.847L539.397 176.874L539.225 176.979L538.538 177.4L538.108 177.698C537.828 177.895 537.437 178.132 537.107 178.344C536.421 178.781 535.729 179.193 535.04 179.596C532.239 181.219 529.559 182.418 526.633 183.252C524.633 183.781 523.38 184.082 521.786 184.454C520.202 184.811 518.638 185.127 517.131 185.426C511.069 186.582 505.819 187.188 502.176 187.548C500.36 187.698 498.935 187.818 497.963 187.898C497.058 187.953 496.575 187.981 496.575 187.981L496.064 188.012C489.126 188.452 483.544 194.122 483.353 201.204C483.15 208.704 489.07 214.949 496.575 215.152C496.575 215.152 498.957 215.216 503.127 215.33C507.213 215.422 513.004 215.493 520.14 215.352C521.928 215.306 523.799 215.247 525.756 215.143C527.704 215.047 530.11 214.835 531.855 214.721C536.43 214.365 541.551 213.608 546.57 212.492C547.831 212.203 549.099 211.892 550.367 211.548L552.296 210.991L553.327 210.665L554.099 210.441C555.164 210.103 556.232 209.761 557.309 209.42C558.214 209.134 559.115 208.83 560.014 208.507C558.789 209.263 557.531 210.044 556.22 210.862C552.844 213.021 549.188 215.358 545.32 217.833C541.483 220.352 537.44 223.015 533.295 225.822L531.732 226.874L530.944 227.403L530.845 227.47L530.796 227.504C530.882 227.452 530.867 227.461 530.824 227.486C529.852 228.091 528.87 228.703 527.885 229.318C525.922 230.514 524.328 231.452 522.651 232.347C521.811 232.793 520.912 233.23 519.943 233.679L518.448 234.364L517.66 234.718L517.463 234.807L517.364 234.85L517.315 234.872C516.832 235.053 517.918 234.65 517.783 234.7L517.318 234.884C514.847 235.871 512.364 236.864 509.884 237.858C504.942 239.902 499.979 241.892 495.141 243.98C490.289 246.025 485.544 248.128 480.968 250.207C476.389 252.279 471.989 254.352 467.835 256.372C463.681 258.392 459.763 260.33 456.188 262.23C452.609 264.124 449.31 265.803 446.439 267.445C443.55 269.038 441.042 270.453 438.999 271.68C434.891 274.075 432.598 275.597 432.598 275.597C429.42 277.722 427.469 281.489 427.869 285.56C428.447 291.446 433.691 295.751 439.58 295.173C439.58 295.173 441.731 294.96 445.476 294.398C443.574 295.335 441.676 296.27 439.783 297.23C435.312 299.484 430.85 301.756 426.426 304.124C421.21 306.916 418.511 313.183 420.551 319.121C422.711 325.403 429.681 328.622 436.1 326.897C439.925 325.87 443.722 324.779 447.516 323.672C442.43 326.095 439.611 331.91 441.35 337.601C443.178 343.591 449.655 346.882 455.751 345.415L482.248 339.044C481.476 340.75 481.103 342.663 481.3 344.662C481.903 350.744 487.325 355.184 493.412 354.582C493.412 354.582 496.56 354.271 501.976 353.441C504.696 353.062 569.614 339.007 572.504 338.256C580.018 336.187 599.546 329.554 605.845 327.22C620.366 321.839 649.894 309.499 659.353 303.478C672.003 295.425 688.158 284.481 701.261 262.848C704.744 257.098 709.514 252.233 715.585 249.337L750.997 232.443L751 91.7705Z" fill="#FDB98D"/>
<path d="M448.045 294.407C447.639 294.407 447.254 294.164 447.094 293.761C446.885 293.235 447.138 292.639 447.667 292.43L527.666 260.481C528.19 260.268 528.79 260.527 528.999 261.052C529.208 261.578 528.956 262.175 528.427 262.384L448.424 294.333C448.301 294.382 448.171 294.407 448.045 294.407Z" fill="#ED715D"/>
<path d="M448.754 324.09C448.341 324.09 447.951 323.838 447.794 323.429C447.594 322.9 447.858 322.307 448.388 322.107L530.794 290.819C531.323 290.619 531.917 290.883 532.117 291.412C532.317 291.941 532.052 292.534 531.523 292.734L449.12 324.022C448.997 324.072 448.877 324.09 448.754 324.09Z" fill="#ED715D"/>
<path d="M485.67 337.989C485.242 337.989 484.845 337.722 484.701 337.297C484.516 336.762 484.802 336.178 485.338 335.994L550.896 313.469C551.432 313.285 552.013 313.571 552.198 314.106C552.383 314.641 552.096 315.225 551.561 315.409L486.002 337.937C485.892 337.974 485.781 337.989 485.67 337.989Z" fill="#ED715D"/>
<path d="M601.066 215.988C584.757 215.988 567.87 207.381 567.002 206.932C566.5 206.671 566.3 206.053 566.562 205.552C566.823 205.047 567.445 204.857 567.943 205.112C568.196 205.244 593.567 218.171 611.411 212.464C611.95 212.292 612.528 212.587 612.701 213.128C612.873 213.667 612.574 214.245 612.036 214.417C608.546 215.53 604.82 215.988 601.066 215.988Z" fill="#ED715D"/>
<defs>
<linearGradient id="paint0_linear" x1="291.755" y1="375.765" x2="751.216" y2="101.43" gradientUnits="userSpaceOnUse">
<stop stop-color="#D2F4C2"/>
<stop offset="1" stop-color="#CFFFB2" stop-opacity="0"/>
</linearGradient>
<linearGradient id="paint1_linear" x1="240.172" y1="354.899" x2="-4.47439" y2="566.335" gradientUnits="userSpaceOnUse">
<stop stop-color="#94CE78"/>
<stop offset="1" stop-color="#51C69C"/>
</linearGradient>
<linearGradient id="paint2_linear" x1="211.147" y1="353.058" x2="24.8024" y2="508.81" gradientUnits="userSpaceOnUse">
<stop stop-color="#94CE78"/>
<stop offset="1" stop-color="#51C69C"/>
</linearGradient>
</defs>
</svg>
