<svg width="44" height="34" viewBox="0 0 44 34" fill="none" xmlns="http://www.w3.org/2000/svg">
<path d="M7.97177 33.8124V31.561C7.98467 31.3716 7.95774 31.1817 7.89277 31.0037C7.82779 30.8258 7.72626 30.664 7.59494 30.529C7.46362 30.3941 7.30552 30.2892 7.13119 30.2213C6.95685 30.1533 6.77028 30.1239 6.58389 30.1351C6.33993 30.1188 6.09614 30.1694 5.87798 30.2816C5.65982 30.3938 5.4753 30.5635 5.34366 30.773C5.22367 30.5698 5.05199 30.4033 4.84671 30.291C4.64142 30.1788 4.41015 30.1249 4.17726 30.1351C3.97425 30.1246 3.77209 30.1683 3.5908 30.2618C3.40952 30.3552 3.2554 30.4952 3.14374 30.6679V30.2251H2.37598V33.8124H3.15112V31.8387C3.13463 31.716 3.145 31.5911 3.1815 31.473C3.21799 31.3549 3.27971 31.2464 3.36223 31.1553C3.44475 31.0643 3.54604 30.9929 3.65885 30.9462C3.77167 30.8996 3.89323 30.8789 4.01485 30.8855C4.52423 30.8855 4.78261 31.2233 4.78261 31.8312V33.8275H5.55775V31.8387C5.54194 31.7161 5.55279 31.5915 5.58953 31.4737C5.62627 31.3559 5.68801 31.2477 5.77039 31.1568C5.85277 31.0659 5.95378 30.9945 6.06628 30.9476C6.17879 30.9007 6.30004 30.8795 6.42148 30.8855C6.94563 30.8855 7.19662 31.2233 7.19662 31.8312V33.8275L7.97177 33.8124ZM19.4402 30.2251H18.1778V29.1369H17.4027V30.2251H16.7013V30.9381H17.4174V32.5891C17.4174 33.4222 17.7349 33.9175 18.6429 33.9175C18.9821 33.9187 19.3148 33.8224 19.6026 33.6398L19.3811 32.9719C19.1752 33.0967 18.9416 33.1665 18.702 33.1745C18.3328 33.1745 18.1926 32.9344 18.1926 32.5741V30.9381H19.4476L19.4402 30.2251ZM25.9883 30.1351C25.8011 30.1295 25.6159 30.1753 25.4522 30.2678C25.2885 30.3602 25.1523 30.4959 25.0581 30.6604V30.2251H24.2977V33.8124H25.0655V31.8011C25.0655 31.2083 25.3165 30.878 25.8037 30.878C25.9679 30.8758 26.131 30.9064 26.2836 30.9681L26.5198 30.2176C26.3445 30.1538 26.1597 30.1208 25.9735 30.12L25.9883 30.1351ZM16.0886 30.5103C15.654 30.2476 15.1544 30.1174 14.6491 30.1351C13.7558 30.1351 13.1726 30.5703 13.1726 31.2833C13.1726 31.8687 13.6008 32.2289 14.3907 32.3415L14.7598 32.394C15.1806 32.4541 15.3799 32.5666 15.3799 32.7693C15.3799 33.0469 15.0994 33.2045 14.5752 33.2045C14.1536 33.217 13.7402 33.0848 13.4015 32.8293L13.0323 33.4372C13.4796 33.7547 14.0152 33.9178 14.5605 33.9025C15.5792 33.9025 16.1698 33.4147 16.1698 32.7317C16.1698 32.0488 15.7047 31.7711 14.937 31.6585L14.5679 31.606C14.2357 31.561 13.9699 31.4934 13.9699 31.2533C13.9699 31.0131 14.2209 30.833 14.6417 30.833C15.0306 30.8376 15.4119 30.9435 15.749 31.1407L16.0886 30.5103ZM36.652 30.1351C36.4648 30.1295 36.2796 30.1753 36.1159 30.2678C35.9522 30.3602 35.8161 30.4959 35.7219 30.6604V30.2251H34.9615V33.8124H35.7292V31.8011C35.7292 31.2083 35.9802 30.878 36.4675 30.878C36.6317 30.8758 36.7947 30.9064 36.9473 30.9681L37.1836 30.2176C37.0082 30.1538 36.8235 30.1208 36.6373 30.12L36.652 30.1351ZM26.7597 32.0113C26.7506 32.2634 26.7933 32.5146 26.8852 32.749C26.9771 32.9833 27.1161 33.1956 27.2933 33.3722C27.4704 33.5488 27.682 33.6858 27.9142 33.7746C28.1465 33.8633 28.3945 33.9018 28.6422 33.8875C29.1032 33.9113 29.5562 33.7587 29.912 33.4597L29.5429 32.8293C29.2775 33.0351 28.9538 33.1482 28.6201 33.152C28.3363 33.1287 28.0715 32.9976 27.8785 32.7848C27.6855 32.5721 27.5783 32.2932 27.5783 32.0038C27.5783 31.7143 27.6855 31.4355 27.8785 31.2227C28.0715 31.01 28.3363 30.8789 28.6201 30.8555C28.9538 30.8593 29.2775 30.9725 29.5429 31.1782L29.912 30.5478C29.5562 30.2488 29.1032 30.0962 28.6422 30.12C28.3945 30.1058 28.1465 30.1442 27.9142 30.233C27.682 30.3217 27.4704 30.4588 27.2933 30.6354C27.1161 30.812 26.9771 31.0242 26.8852 31.2586C26.7933 31.4929 26.7506 31.7442 26.7597 31.9963V32.0113ZM33.9501 32.0113V30.2251H33.1824V30.6604C33.052 30.4898 32.8836 30.3533 32.691 30.2619C32.4985 30.1706 32.2873 30.1271 32.075 30.1351C31.5855 30.1351 31.1161 30.3327 30.77 30.6846C30.4239 31.0364 30.2294 31.5137 30.2294 32.0113C30.2294 32.5089 30.4239 32.9861 30.77 33.338C31.1161 33.6898 31.5855 33.8875 32.075 33.8875C32.2873 33.8955 32.4985 33.852 32.691 33.7606C32.8836 33.6693 33.052 33.5327 33.1824 33.3621V33.7974H33.9501V32.0113ZM31.0932 32.0113C31.1054 31.8001 31.1781 31.5972 31.3024 31.4275C31.4266 31.2578 31.597 31.1288 31.7924 31.0563C31.9879 30.9838 32.2 30.971 32.4025 31.0195C32.605 31.0679 32.7892 31.1756 32.9323 31.3291C33.0755 31.4826 33.1713 31.6754 33.208 31.8836C33.2448 32.0918 33.2208 32.3064 33.1391 32.5009C33.0574 32.6954 32.9215 32.8614 32.7482 32.9785C32.5749 33.0955 32.3717 33.1584 32.1636 33.1595C32.0174 33.1614 31.8725 33.1325 31.7379 33.0747C31.6032 33.0168 31.4818 32.9313 31.3813 32.8235C31.2807 32.7156 31.2032 32.5878 31.1537 32.448C31.1041 32.3082 31.0835 32.1595 31.0932 32.0113ZM21.8284 30.1351C21.3389 30.142 20.8722 30.3464 20.5309 30.7032C20.1896 31.0599 20.0018 31.5399 20.0086 32.0375C20.0155 32.5351 20.2165 33.0096 20.5674 33.3565C20.9184 33.7035 21.3906 33.8945 21.88 33.8875C22.4111 33.9152 22.9333 33.7413 23.3454 33.3997L22.9763 32.8218C22.6848 33.0594 22.3237 33.1915 21.9502 33.197C21.6964 33.2192 21.4441 33.1399 21.247 32.9759C21.0498 32.8119 20.9234 32.5763 20.8945 32.319H23.5152C23.5152 32.2214 23.5152 32.1238 23.5152 32.0188C23.5152 30.893 22.8287 30.1426 21.8394 30.1426L21.8284 30.1351ZM21.8284 30.833C21.9432 30.8305 22.0575 30.8511 22.1646 30.8935C22.2716 30.9359 22.3694 30.9993 22.4524 31.0802C22.5354 31.161 22.6018 31.2577 22.648 31.3646C22.6942 31.4716 22.7192 31.5868 22.7216 31.7036H20.876C20.8894 31.4627 20.995 31.2367 21.1702 31.074C21.3455 30.9113 21.5764 30.8248 21.8136 30.833H21.8284ZM41.063 32.0188V28.7842H40.3247V30.6604C40.1944 30.4898 40.0259 30.3533 39.8334 30.2619C39.6409 30.1706 39.4297 30.1271 39.2174 30.1351C38.7279 30.1351 38.2585 30.3327 37.9124 30.6846C37.5663 31.0364 37.3718 31.5137 37.3718 32.0113C37.3718 32.5089 37.5663 32.9861 37.9124 33.338C38.2585 33.6898 38.7279 33.8875 39.2174 33.8875C39.4297 33.8955 39.6409 33.852 39.8334 33.7606C40.0259 33.6693 40.1944 33.5327 40.3247 33.3621V33.7974H41.063V32.0188ZM42.3438 33.2909C42.3918 33.2903 42.4394 33.2992 42.4841 33.3171C42.5265 33.3347 42.5653 33.3602 42.5985 33.3922C42.6309 33.4245 42.6572 33.4627 42.676 33.5047C42.6947 33.5486 42.7043 33.5958 42.7043 33.6436C42.7043 33.6913 42.6947 33.7386 42.676 33.7824C42.6572 33.8245 42.6309 33.8626 42.5985 33.895C42.5653 33.927 42.5265 33.9525 42.4841 33.97C42.4399 33.9899 42.3921 34.0001 42.3438 34.0001C42.2738 33.9995 42.2054 33.9788 42.1466 33.9402C42.0878 33.9017 42.041 33.847 42.0116 33.7824C41.9931 33.7385 41.9836 33.6913 41.9836 33.6436C41.9836 33.5959 41.9931 33.5486 42.0116 33.5047C42.0304 33.4627 42.0567 33.4245 42.0891 33.3922C42.1223 33.3602 42.1611 33.3347 42.2035 33.3171C42.2516 33.2977 42.3032 33.2887 42.3549 33.2909H42.3438ZM42.3438 33.925C42.3806 33.9252 42.4171 33.9176 42.4508 33.9025C42.4826 33.8881 42.5114 33.8677 42.5357 33.8425C42.5819 33.7912 42.6075 33.7243 42.6075 33.6548C42.6075 33.5854 42.5819 33.5184 42.5357 33.4672C42.5115 33.4419 42.4826 33.4215 42.4508 33.4072C42.4171 33.3922 42.3806 33.3845 42.3438 33.3847C42.307 33.3849 42.2706 33.3925 42.2367 33.4072C42.2036 33.421 42.1735 33.4414 42.1482 33.4672C42.102 33.5184 42.0764 33.5854 42.0764 33.6548C42.0764 33.7243 42.102 33.7912 42.1482 33.8425C42.1735 33.8682 42.2036 33.8886 42.2367 33.9025C42.274 33.9188 42.3143 33.9265 42.3549 33.925H42.3438ZM42.3659 33.4785C42.4004 33.4768 42.4344 33.4874 42.4619 33.5085C42.4732 33.518 42.4821 33.5301 42.4879 33.5438C42.4937 33.5575 42.4962 33.5724 42.4951 33.5873C42.4957 33.5998 42.4936 33.6122 42.4892 33.6238C42.4847 33.6355 42.478 33.646 42.4693 33.6548C42.4479 33.6746 42.4206 33.6865 42.3918 33.6886L42.4988 33.8124H42.4139L42.3143 33.6886H42.281V33.8124H42.2109V33.4822L42.3659 33.4785ZM42.2847 33.5423V33.6323H42.3659C42.3804 33.6367 42.3958 33.6367 42.4102 33.6323C42.4128 33.6271 42.4142 33.6213 42.4142 33.6154C42.4142 33.6096 42.4128 33.6038 42.4102 33.5986C42.4128 33.5933 42.4142 33.5875 42.4142 33.5817C42.4142 33.5758 42.4128 33.57 42.4102 33.5648C42.3958 33.5604 42.3804 33.5604 42.3659 33.5648L42.2847 33.5423ZM38.2245 32.0188C38.2367 31.8076 38.3094 31.6047 38.4337 31.435C38.5579 31.2654 38.7283 31.1363 38.9237 31.0638C39.1192 30.9913 39.3313 30.9785 39.5338 31.027C39.7363 31.0755 39.9205 31.1831 40.0636 31.3366C40.2068 31.4901 40.3026 31.6829 40.3393 31.8911C40.3761 32.0993 40.3521 32.3139 40.2704 32.5084C40.1887 32.7029 40.0528 32.8689 39.8795 32.986C39.7062 33.103 39.503 33.1659 39.2949 33.167C39.1488 33.1689 39.0038 33.14 38.8692 33.0822C38.7345 33.0243 38.6131 32.9388 38.5126 32.831C38.412 32.7231 38.3345 32.5953 38.285 32.4555C38.2354 32.3157 38.2148 32.167 38.2245 32.0188ZM12.3015 32.0188V30.2251H11.5337V30.6604C11.4033 30.4898 11.2349 30.3533 11.0424 30.2619C10.8499 30.1706 10.6387 30.1271 10.4264 30.1351C9.93691 30.1351 9.46748 30.3327 9.12136 30.6846C8.77525 31.0364 8.58081 31.5137 8.58081 32.0113C8.58081 32.5089 8.77525 32.9861 9.12136 33.338C9.46748 33.6898 9.93691 33.8875 10.4264 33.8875C10.6387 33.8955 10.8499 33.852 11.0424 33.7606C11.2349 33.6693 11.4033 33.5327 11.5337 33.3621V33.7974H12.3015V32.0188ZM9.44454 32.0188C9.45678 31.8076 9.5295 31.6047 9.65375 31.435C9.77799 31.2654 9.94834 31.1363 10.1438 31.0638C10.3393 30.9913 10.5513 30.9785 10.7539 31.027C10.9564 31.0755 11.1406 31.1831 11.2837 31.3366C11.4268 31.4901 11.5227 31.6829 11.5594 31.8911C11.5962 32.0993 11.5722 32.3139 11.4905 32.5084C11.4088 32.7029 11.2729 32.8689 11.0996 32.986C10.9263 33.103 10.723 33.1659 10.515 33.167C10.3682 33.17 10.2224 33.1418 10.0869 33.0845C9.95142 33.0271 9.82911 32.9417 9.72777 32.8338C9.62643 32.7258 9.54827 32.5976 9.49824 32.4573C9.44821 32.317 9.42741 32.1677 9.43715 32.0188H9.44454Z" fill="#231F20"/>
<path d="M27.4611 2.88867H15.834V24.1312H27.4611V2.88867Z" fill="#FF5F00"/>
<path d="M16.5721 13.5136C16.57 11.4675 17.0258 9.44771 17.9051 7.60721C18.7845 5.76671 20.0642 4.15374 21.6475 2.89044C19.6871 1.32425 17.3329 0.350334 14.8539 0.0799936C12.3748 -0.190347 9.87099 0.253797 7.6285 1.36166C5.38602 2.46953 3.49536 4.19642 2.17263 6.34498C0.84989 8.49353 0.148438 10.9771 0.148438 13.5117C0.148437 16.0464 0.84989 18.5299 2.17263 20.6784C3.49536 22.827 5.38602 24.5539 7.6285 25.6618C9.87099 26.7696 12.3748 27.2138 14.8539 26.9434C17.3329 26.6731 19.6871 25.6992 21.6475 24.133C20.0647 22.8701 18.7853 21.2577 17.906 19.4179C17.0267 17.5781 16.5705 15.5591 16.5721 13.5136Z" fill="#EB001B"/>
<path d="M43.1484 13.5122C43.1484 16.0471 42.4468 18.5307 41.1238 20.6794C39.8008 22.828 37.9099 24.5549 35.6671 25.6626C33.4243 26.7703 30.9202 27.2141 28.4411 26.9434C25.9619 26.6727 23.6076 25.6983 21.6475 24.1316C23.2296 22.8676 24.5087 21.2548 25.3882 19.4149C26.2677 17.575 26.7248 15.556 26.7248 13.5103C26.7248 11.4647 26.2677 9.44573 25.3882 7.60582C24.5087 5.76591 23.2296 4.1531 21.6475 2.88907C23.6076 1.32239 25.9619 0.348003 28.4411 0.0772746C30.9202 -0.193454 33.4243 0.250404 35.6671 1.35811C37.9099 2.46582 39.8008 4.19269 41.1238 6.34131C42.4468 8.48994 43.1484 10.9736 43.1484 13.5085V13.5122Z" fill="#F79E1B"/>
<path d="M41.879 21.8798V21.4446H42.0525V21.3545H41.6133V21.4446H41.8015V21.8798H41.879ZM42.7317 21.8798V21.3545H42.5988L42.4438 21.7297L42.2888 21.3545H42.1706V21.8798H42.2666V21.4858L42.4106 21.8273H42.5102L42.6542 21.4858V21.8836L42.7317 21.8798Z" fill="#F79E1B"/>
</svg>
