<svg width="16" height="16" viewBox="0 0 16 16" fill="none" xmlns="http://www.w3.org/2000/svg">
<path fill-rule="evenodd" clip-rule="evenodd" d="M0 4.00039V12.0004C0 12.884 0.716345 13.6004 1.6 13.6004H14.4C15.2837 13.6004 16 12.884 16 12.0004V4.00039C16 3.11674 15.2837 2.40039 14.4 2.40039H1.6C0.716344 2.40039 0 3.11674 0 4.00039ZM15.2 4.01391V4.00039C15.2 3.55856 14.8418 3.20039 14.4 3.20039H1.6C1.15817 3.20039 0.8 3.55856 0.8 4.00039V4.01391L7.38261 7.96348C7.76262 8.19149 8.23738 8.19149 8.6174 7.96348L15.2 4.01391ZM0.8 4.94687V12.0004C0.8 12.4422 1.15817 12.8004 1.6 12.8004H14.4C14.8418 12.8004 15.2 12.4422 15.2 12.0004V4.94687L9.02899 8.64947C8.39563 9.02949 7.60437 9.02949 6.97101 8.64947L0.8 4.94687Z" fill="#005264"/>
</svg>
