<svg width="81" height="36" viewBox="0 0 81 36" fill="none" xmlns="http://www.w3.org/2000/svg">
<path d="M75.5755 22.1454H76.8005V24.0282H77.3986L78.5948 22.1454H79.9547L78.3924 24.4917V24.5106L80.1481 27.0694H78.7297L77.4373 25.0704H76.8005V27.0694H75.5755V22.1454ZM73.3179 23.9994C73.308 23.3424 72.8835 22.9563 72.3339 22.9563C71.707 22.9563 71.2627 23.3721 71.1467 23.9994H73.3179ZM72.3627 22.0302C73.7712 22.0302 74.5429 23.0625 74.5429 24.3657C74.5429 24.5205 74.524 24.6843 74.5042 24.8391H71.1179C71.1953 25.6986 71.8518 26.1423 72.5939 26.1423C73.0957 26.1423 73.6075 25.92 74.0024 25.6014L74.4854 26.4807C73.9835 26.9245 73.2118 27.1855 72.5075 27.1855C70.8769 27.1855 69.8542 26.0073 69.8542 24.6078C69.8542 23.0922 70.8868 22.0302 72.3627 22.0302ZM64.2373 26.0361C64.8453 25.9497 65.2699 25.4376 65.2699 23.6907V22.1454H68.8586V27.0694H67.6336V23.1399H66.4373V23.6907C66.4373 25.8336 65.868 27.0694 64.2373 27.118V26.0361ZM62.4331 23.9994C62.4232 23.3424 61.9987 22.9563 61.4482 22.9563C60.8213 22.9563 60.3779 23.3721 60.2619 23.9994H62.4331ZM61.477 22.0302C62.8864 22.0302 63.6581 23.0625 63.6581 24.3657C63.6581 24.5205 63.6383 24.6843 63.6194 24.8391H60.2331C60.3105 25.6986 60.9661 26.1423 61.7091 26.1423C62.2109 26.1423 62.7218 25.92 63.1176 25.6014L63.5996 26.4807C63.0978 26.9245 62.327 27.1855 61.6218 27.1855C59.9912 27.1855 58.9694 26.0073 58.9694 24.6078C58.9694 23.0922 60.0011 22.0302 61.477 22.0302ZM51.3936 22.1454H52.561V26.0262H54.0954V22.1454H55.2629V26.0262H56.7964V22.1454H57.9639V27.0694H51.3936V22.1454ZM47.7096 26.1423C48.5109 26.1423 49.1765 25.5249 49.1765 24.6078C49.1765 23.6997 48.5109 23.0724 47.7096 23.0724C46.9091 23.0724 46.2525 23.6997 46.2525 24.6078C46.2525 25.5249 46.9091 26.1423 47.7096 26.1423ZM47.6997 22.0302C49.2053 22.0302 50.4114 23.1012 50.4114 24.6078C50.4114 26.1234 49.2053 27.1855 47.7096 27.1855C46.2138 27.1855 45.0086 26.1234 45.0086 24.6078C45.0086 23.1012 46.2138 22.0302 47.6997 22.0302ZM39.7002 20.2148H40.945V23.0049H41.8327L43.4436 20.2148H44.7945L42.8554 23.4783V23.4972L44.9096 27.0694H43.5021L41.8327 24.0768H40.945V27.0694H39.7002V20.2148Z" fill="#2A303B"/>
<path d="M16.6994 31.7183C7.9471 31.7183 0.851562 24.6172 0.851562 15.8583C0.851562 7.10022 7.9471 0 16.6994 0C25.4517 0 32.5481 7.10022 32.5481 15.8583C32.5481 18.8346 31.7287 21.6193 30.304 23.9989C30.2573 24.0763 30.1403 24.0493 30.1278 23.9602C29.5845 20.0622 27.2046 17.9157 23.7419 17.2893C23.4414 17.2344 23.3848 17.0499 23.7823 17.0148C24.8391 16.9239 26.3439 16.9392 27.1102 17.0769C27.1561 16.6773 27.1758 16.2705 27.1758 15.8583C27.1758 10.0685 22.4854 5.37579 16.6994 5.37579C10.9134 5.37579 6.22381 10.0685 6.22381 15.8583C6.22381 21.6481 10.9134 26.3416 16.6994 26.3416C16.8649 26.3416 17.0286 26.3443 17.1914 26.3362C17.0169 25.3183 16.9629 24.2833 16.9953 23.5012C17.0205 22.8622 17.15 22.774 17.4387 23.2717C18.8886 25.7719 20.9689 28.049 25.0127 28.9409C28.319 29.6699 31.6352 30.5321 35.2194 35.061C35.5378 35.4633 35.0521 35.8665 34.686 35.5416C31.0389 32.3078 27.7434 31.2656 24.706 31.2656C21.3251 31.2656 19.0217 31.7183 16.6994 31.7183ZM24.7438 25.0501C24.4254 25.0501 24.1601 25.1608 23.9964 25.3624C23.5782 25.879 23.7661 26.788 24.4074 27.3487C24.6871 27.5936 25.0901 27.7394 25.4858 27.7394C25.8888 27.7394 26.2252 27.5882 26.432 27.3145C26.8053 26.8132 26.5912 26.1049 25.8861 25.5082C25.5371 25.213 25.1315 25.0501 24.7438 25.0501ZM28.2588 22.4545C27.9547 22.3402 27.7137 22.4311 27.5986 22.6417C27.4241 22.9603 27.5527 23.5894 27.9044 24.1384C28.2605 24.6937 28.5619 24.9763 28.8029 24.9763C29.0233 24.9763 29.2427 24.6883 29.1393 23.9935C29.0772 23.5777 28.8461 22.6777 28.2588 22.4545ZM46.732 14.2157L45.4566 12.6812C45.3235 12.5201 45.4377 12.2753 45.6473 12.2753H48.3159C48.4427 11.8973 48.5146 11.4932 48.5146 11.0729C48.5146 9.14955 47.0837 7.49172 45.1202 7.49172C43.1568 7.49172 41.7267 9.14955 41.7267 11.0729C41.7267 12.9962 43.1568 14.6306 45.1202 14.6306C45.7156 14.6306 46.2607 14.4785 46.732 14.2157ZM52.5045 16.8105C52.643 16.9644 52.5297 17.211 52.3201 17.211H49.4078C49.2899 17.211 49.1775 17.1579 49.1011 17.067L48.6082 16.473C47.6026 17.1255 46.4055 17.5062 45.1202 17.5062C41.5756 17.5062 38.6911 14.6198 38.6911 11.0729C38.6911 7.52592 41.5756 4.63958 45.1202 4.63958C48.6657 4.63958 51.5493 7.52592 51.5493 11.0729C51.5493 12.3518 51.1733 13.5434 50.5275 14.546L52.5045 16.8105ZM79.4062 4.93568H77.0299C76.8554 4.93568 76.7133 5.07698 76.7133 5.25249V16.8933C76.7133 17.0679 76.8554 17.2101 77.0299 17.2101H79.4062C79.5807 17.2101 79.7228 17.0679 79.7228 16.8933V5.25249C79.7228 5.07698 79.5807 4.93568 79.4062 4.93568ZM75.4074 4.93568H72.7478C72.6093 4.93568 72.486 5.02568 72.4456 5.15798L70.3418 12.0377L68.0285 5.14988C67.9862 5.02208 67.8648 4.93568 67.729 4.93568H65.8735C65.7368 4.93568 65.6162 5.02208 65.5731 5.14988L63.2607 12.0377L61.1569 5.15798C61.1164 5.02568 60.9932 4.93568 60.8538 4.93568H58.1951C58.0935 4.93568 57.9981 4.98428 57.9388 5.06618C57.8794 5.14808 57.8632 5.25339 57.8956 5.34879L61.8009 16.9968C61.8441 17.1246 61.9646 17.211 62.1004 17.211H64.2113C64.3472 17.211 64.4677 17.1246 64.5109 16.9968L66.8008 10.1918L69.0907 16.9968C69.1339 17.1246 69.2553 17.211 69.3911 17.211H71.5012C71.637 17.211 71.7584 17.1246 71.8016 16.9968L75.7069 5.34879C75.7392 5.25339 75.7231 5.14808 75.6637 5.06618C75.6043 4.98428 75.509 4.93568 75.4074 4.93568ZM56.8883 5.25249V16.8933C56.8883 17.0679 56.747 17.2101 56.5726 17.2101H54.1954C54.0209 17.2101 53.8797 17.0679 53.8797 16.8933V5.25249C53.8797 5.07698 54.0209 4.93568 54.1954 4.93568H56.5726C56.747 4.93568 56.8883 5.07698 56.8883 5.25249Z" fill="#F57D14"/>
</svg>
