<svg width="25" height="128" viewBox="0 0 25 128" fill="none" xmlns="http://www.w3.org/2000/svg">
<rect x="0.25" y="0.25" width="24.5" height="127.5" rx="12.25" fill="#EAFEF5" stroke="#B4EBD2" stroke-width="0.5"/>
<path d="M13.1875 55.1455L13.1875 55.9561L16 55.9561L16 57.6699L8.89062 57.6699L8.89062 55.9561L11.6396 55.9561L11.6396 55.2969L8.89062 53.9297L8.89062 51.8545L12.1719 53.8076L16 51.6104L16 53.6367L13.1875 55.1455ZM13.5879 46.4717L16 46.4717L16 48.1855L8.89062 48.1855L8.89062 45.3486C8.89062 44.805 8.99154 44.3249 9.19336 43.9082C9.39193 43.4883 9.67676 43.1644 10.0479 42.9365C10.4157 42.7054 10.834 42.5898 11.3027 42.5898C11.9961 42.5898 12.5511 42.8389 12.9678 43.3369C13.3812 43.8317 13.5879 44.512 13.5879 45.3779L13.5879 46.4717ZM12.2646 46.4717L12.2646 45.3486C12.2646 45.0166 12.1816 44.7643 12.0156 44.5918C11.8496 44.416 11.6152 44.3281 11.3125 44.3281C10.9805 44.3281 10.7152 44.4176 10.5166 44.5967C10.318 44.7757 10.2171 45.0199 10.2139 45.3291L10.2139 46.4717L12.2646 46.4717ZM11.9766 35.9131L11.9814 35.9131L8.89062 34.7363L8.89062 32.9297L14.5303 35.3223C15.0999 35.5794 15.502 35.8691 15.7363 36.1914C15.9674 36.5104 16.0895 36.8848 16.1025 37.3145L16.1025 37.6611L16.0928 37.9248L14.7646 37.9541C14.7777 37.915 14.7842 37.8011 14.7842 37.6123C14.7842 37.3519 14.7402 37.1566 14.6523 37.0264C14.5612 36.8929 14.387 36.7855 14.1299 36.7041L13.8955 36.6211L8.89062 39.1895L8.89062 37.3682L11.9766 35.9131ZM10.2139 23.6748L10.2139 25.8086L16 25.8086L16 27.5225L10.2139 27.5225L10.2139 29.6172L8.89062 29.6172L8.89062 23.6748L10.2139 23.6748ZM8.89062 15.7773L8.89062 14.0635L16 14.0635L16 15.7773L11.5176 15.7773L16 18.3311L16 20.0449L8.89062 20.0449L8.89062 18.3311L13.3779 18.3311L8.89062 15.7773Z" fill="#22A36C"/>
<path d="M12.6464 116.354C12.8417 116.549 13.1583 116.549 13.3536 116.354L16.5355 113.172C16.7308 112.976 16.7308 112.66 16.5355 112.464C16.3403 112.269 16.0237 112.269 15.8284 112.464L13 115.293L10.1716 112.464C9.97631 112.269 9.65973 112.269 9.46447 112.464C9.26921 112.66 9.26921 112.976 9.46447 113.172L12.6464 116.354ZM12.5 73L12.5 116L13.5 116L13.5 73L12.5 73Z" fill="#22A36C"/>
</svg>
