<svg width="59" height="19" viewBox="0 0 59 19" fill="none" xmlns="http://www.w3.org/2000/svg">
<g clip-path="url(#clip0)">
<path d="M25.2814 18.7255H20.583L23.5217 0.333008H28.2199L25.2814 18.7255Z" fill="#00579F"/>
<path d="M42.3137 0.783042C41.3869 0.410896 39.9171 0 38.0996 0C33.4597 0 30.1924 2.50438 30.1724 6.08489C30.1338 8.72658 32.5117 10.1938 34.2901 11.0747C36.1079 11.9747 36.7258 12.5622 36.7258 13.3645C36.7073 14.5967 35.2569 15.1646 33.9042 15.1646C32.0284 15.1646 31.0233 14.8718 29.4959 14.1863L28.8772 13.8924L28.2197 18.0211C29.3217 18.5293 31.3519 18.9802 33.4597 19C38.3896 19 41.5992 16.5344 41.6372 12.7188C41.6559 10.625 40.4003 9.02071 37.6934 7.70974C36.0501 6.86819 35.0437 6.30074 35.0437 5.43968C35.063 4.6569 35.8949 3.85513 37.7499 3.85513C39.2773 3.81586 40.3996 4.18749 41.2497 4.55938L41.6747 4.75468L42.3137 0.783042Z" fill="#00579F"/>
<path d="M48.5583 12.2097C48.9452 11.1531 50.4341 7.06362 50.4341 7.06362C50.4146 7.10289 50.8202 5.98749 51.0523 5.30276L51.3806 6.88756C51.3806 6.88756 52.2703 11.2901 52.4635 12.2097C51.7293 12.2097 49.4863 12.2097 48.5583 12.2097ZM54.3579 0.333008H50.7236C49.6029 0.333008 48.7515 0.665365 48.2679 1.85904L41.2891 18.7252H46.219C46.219 18.7252 47.0306 16.4552 47.205 15.9663C47.7459 15.9663 52.5416 15.9663 53.2374 15.9663C53.3723 16.612 53.798 18.7252 53.798 18.7252H58.1483L54.3579 0.333008Z" fill="#00579F"/>
<path d="M16.6585 0.333008L12.0573 12.8749L11.5545 10.3313C10.7038 7.39624 8.03585 4.20739 5.05859 2.6218L9.27321 18.706H14.2416L21.6267 0.333008H16.6585Z" fill="#00579F"/>
<path d="M7.78505 0.333008H0.225772L0.148438 0.704634C6.04515 2.23093 9.95042 5.91 11.5549 10.3321L9.91163 1.87907C9.64108 0.704374 8.80967 0.371757 7.78505 0.333008Z" fill="#FAA61A"/>
</g>
<defs>
<clipPath id="clip0">
<rect x="0.148438" width="58" height="19" fill="white"/>
</clipPath>
</defs>
</svg>
