<svg width="56" height="56" viewBox="0 0 56 56" fill="none" xmlns="http://www.w3.org/2000/svg">
<path d="M12.0879 29.1666C11.768 29.4151 11.6506 29.8629 11.8063 30.2368C11.9469 30.5745 12.2848 30.8011 12.6509 30.8011C13.099 30.8011 13.4869 30.4624 13.5547 30.0214C13.6778 29.2187 12.7213 28.6746 12.0879 29.1666Z" fill="#3AFFAD"/>
<path d="M19.9396 29.2162C19.3398 29.7703 19.7479 30.8012 20.5608 30.8012C21.0087 30.8012 21.3969 30.4632 21.4646 30.0216C21.5929 29.1842 20.5571 28.6459 19.9396 29.2162Z" fill="#3AFFAD"/>
<path d="M19.3199 33.04C18.9631 32.6829 18.3842 32.683 18.0274 33.04C17.6476 33.4198 17.1426 33.629 16.6054 33.629C16.0682 33.629 15.5633 33.4199 15.1835 33.04C14.8265 32.683 14.2477 32.6829 13.8909 33.04C13.5338 33.397 13.5338 33.9757 13.8908 34.3326C14.6158 35.0578 15.58 35.4571 16.6054 35.4571C17.6309 35.4571 18.595 35.0578 19.3201 34.3326C19.6771 33.9758 19.6771 33.397 19.3199 33.04Z" fill="#3AFFAD"/>
<path d="M49.2338 12.4497C48.1963 8.67838 46.528 5.71354 44.2751 3.63749C43.904 3.29548 43.3257 3.31899 42.9835 3.69021C42.6413 4.06143 42.665 4.63981 43.0364 4.98193C47.7086 9.28738 48.6894 17.3152 48.6894 23.2916C48.6894 29.1569 47.279 33.3299 44.4972 35.6947C43.0945 36.8873 41.5909 37.3887 40.4546 37.5937C42.0344 35.1229 42.8218 32.2276 42.6954 29.2593C42.6102 27.2394 42.4462 25.5394 42.1942 24.0619C41.7472 21.4448 40.9996 19.4227 39.9087 17.88C38.6369 16.0813 36.8555 14.9067 34.6141 14.3892C29.0116 13.0962 25.5052 8.54636 24.477 7.04015C25.2311 3.9993 27.9809 1.82832 31.1504 1.82832H34.6065C34.9104 1.82832 35.2129 1.84527 35.5062 1.87863C35.5218 1.88093 35.5375 1.88289 35.5535 1.88432L35.5734 1.88629C35.5867 1.88749 35.6001 1.88858 35.6133 1.88924C37.6264 2.05855 39.4303 2.5911 40.9758 3.47255C41.4144 3.72248 41.9726 3.5699 42.2226 3.13141C42.4728 2.69293 42.3199 2.13457 41.8814 1.88443C40.1013 0.869205 38.0414 0.257688 35.7585 0.0667189C35.7466 0.0654064 35.7354 0.0643126 35.725 0.0634376C35.3594 0.0213282 34.9833 0 34.6065 0H31.1504C26.9958 0 23.4102 2.9481 22.6105 7.01237C22.6083 7.02178 22.6063 7.03119 22.6044 7.04048C22.604 7.04234 22.6035 7.04409 22.6032 7.04595C22.4976 7.5867 22.444 8.14528 22.444 8.70616V17.6973C22.444 18.5962 22.5525 19.4701 22.7557 20.3075C21.0005 19.1145 18.883 18.4167 16.6053 18.4167C14.4071 18.4167 12.2861 19.0648 10.4715 20.2906C10.0531 20.5733 9.94308 21.1415 10.2256 21.5598C10.5081 21.9781 11.0762 22.088 11.4947 21.8055C12.7364 20.9666 14.1509 20.4535 15.6321 20.2968C15.4608 21.6505 14.9176 22.7815 14.0101 23.6676C12.3008 25.3369 9.66538 25.8425 8.11816 25.9949C8.48905 25.0662 9.01055 24.197 9.67205 23.4278C10.0013 23.0451 9.95796 22.4681 9.57525 22.1387C9.19255 21.8095 8.61549 21.8528 8.28616 22.2355C6.57684 24.2225 5.63545 26.7619 5.63545 29.3863C5.63545 33.9551 8.44344 37.8799 12.424 39.5272C11.57 39.9624 10.7799 40.5319 10.0831 41.2292C8.34063 42.97 7.38108 45.286 7.38108 47.7508V49.1924C7.15347 49.2975 6.63612 49.6667 6.63612 49.6667C5.68609 50.4186 5.28107 51.6158 5.57923 52.791C5.87651 53.9628 6.80019 54.8196 7.98899 55.0269L8.03941 55.0356C11.7441 55.6788 15.2012 55.9998 18.4039 55.9998C25.9036 55.9998 32.0076 54.2394 36.6237 50.7326C42.8297 46.0181 44.2587 39.6888 44.545 37.9248C44.9257 37.6824 45.3063 37.4058 45.6809 37.0872C48.8899 34.359 50.517 29.7175 50.517 23.2911C50.5175 19.1938 50.0855 15.5462 49.2338 12.4497ZM40.8688 29.3368C40.8948 29.9488 40.876 30.5569 40.8145 31.1577C40.104 31.6591 38.7336 31.9057 36.897 31.8525C35.9278 31.8247 35.0249 31.7188 34.4252 31.6322V28.7272C36.7236 28.5381 38.889 27.6385 40.639 26.1621C40.7436 27.1195 40.8196 28.1706 40.8688 29.3368ZM24.2722 9.77027C25.5444 11.2691 27.5297 13.2161 30.18 14.6415V19.8032C30.18 20.3079 30.5892 20.7172 31.0941 20.7172H33.3297C33.8347 20.7172 34.2437 20.3079 34.2437 19.8032C34.2437 19.2984 33.8346 18.8891 33.3297 18.8891H32.0082V15.4868C32.7041 15.7595 33.4346 15.9933 34.2028 16.1706C37.5488 16.9433 39.4454 19.3481 40.3154 23.9445C38.5656 25.8508 36.1094 26.9365 33.511 26.9365C28.4168 26.9365 24.2722 22.792 24.2722 17.6977V9.77027ZM27.2749 26.8355C28.8152 27.89 30.6343 28.5656 32.597 28.7269V30.0199C28.9737 32.9913 28.0841 35.819 27.2236 38.5562C26.6723 40.3097 26.1456 41.983 24.8577 43.639C23.9735 41.8719 22.5387 40.4276 20.7792 39.5307C24.7636 37.8853 27.5751 33.9585 27.5751 29.3868C27.5751 28.5086 27.4708 27.6545 27.2749 26.8355ZM25.0929 25.9976C23.5501 25.8478 20.9229 25.3454 19.2061 23.6733C18.2954 22.7864 17.7503 21.6539 17.5787 20.2976C20.9983 20.6611 23.8589 22.9185 25.0929 25.9976ZM7.46387 29.3866C7.46387 28.8759 7.50839 28.3695 7.59206 27.8715C9.18478 27.7893 12.8624 27.3378 15.2804 24.9828C15.8192 24.458 16.2603 23.8728 16.6055 23.231C16.9506 23.8728 17.3916 24.458 17.9305 24.9828C20.3488 27.3381 24.0267 27.7893 25.6191 27.8715C25.7016 28.3646 25.7469 28.8704 25.7469 29.3866C25.7469 34.4273 21.6461 38.5281 16.6055 38.5281C11.5648 38.5281 7.46387 34.4273 7.46387 29.3866ZM16.6057 40.3563C18.3365 40.3564 19.9293 40.9558 21.1906 41.9557C19.9765 43.1619 18.3479 43.8413 16.6062 43.8413C14.862 43.8413 13.2314 43.1609 12.0169 41.9527C13.3175 40.919 14.9175 40.3563 16.6057 40.3563ZM12.169 53.7891C10.9294 53.6445 9.65882 53.4615 8.35299 53.2348L8.3041 53.2262C7.82711 53.1431 7.47109 52.8125 7.35176 52.3417C7.23145 51.8675 7.38819 51.4035 7.771 51.1004L7.86922 51.0228C8.22983 50.7372 8.70649 50.6525 9.14519 50.796C10.5345 51.2513 11.5963 51.4393 12.3066 51.514L12.169 53.7891ZM9.71438 49.0592C9.54802 49.0047 9.37925 48.9656 9.20961 48.9393V47.7515C9.20961 46.1033 9.74632 44.5392 10.7345 43.2554C12.2891 44.7999 14.3752 45.6696 16.6063 45.6696C18.8351 45.6696 20.9192 44.8009 22.4733 43.2581C23.3166 44.3567 23.8577 45.6974 23.9745 47.1566C18.8894 49.0785 13.5816 49.6888 13.2025 49.7304C13.0735 49.7349 11.8465 49.7577 9.71438 49.0592ZM35.4887 49.2999C30.3393 53.1962 23.1225 54.7602 13.9892 53.9744L14.1416 51.4569C15.5778 51.2639 18.8233 50.747 22.3702 49.6413C28.7888 47.6399 32.8677 44.7827 34.4934 41.149C34.6996 40.6882 34.4932 40.1476 34.0325 39.9413C33.5719 39.7355 33.031 39.9414 32.8248 40.4023C31.626 43.0819 28.8406 45.031 25.733 46.4316C25.6932 46.1548 25.6402 45.8825 25.5763 45.6141C27.6108 43.4189 28.3005 41.2275 28.9679 39.1043C29.674 36.8579 30.3478 34.7165 32.6002 32.4747C32.6297 32.8829 32.9284 33.2255 33.3351 33.3054C33.6806 33.3733 35.4048 33.6917 37.3169 33.6917C38.352 33.6917 39.4417 33.5979 40.3977 33.3209C39.9064 35.0374 39.0483 36.6427 37.859 38.0295C37.6381 38.2871 37.5782 38.6458 37.7032 38.9612C37.828 39.2766 38.1175 39.4968 38.4547 39.5333C38.4907 39.5373 38.6858 39.5565 39.0102 39.5565C39.6776 39.5565 40.9647 39.4725 42.4457 38.9481C41.8049 41.3438 40.0533 45.8457 35.4887 49.2999Z" fill="#3AFFAD"/>
<path d="M28.4141 15.337L26.8946 15.1988C26.3935 15.1535 25.9472 15.5237 25.9017 16.0263C25.8558 16.5291 26.2265 16.9738 26.7292 17.0194L28.2486 17.1575C28.2766 17.16 28.3047 17.1613 28.3325 17.1613C28.7999 17.1613 29.1985 16.8044 29.2417 16.33C29.2873 15.8273 28.9169 15.3827 28.4141 15.337Z" fill="#3AFFAD"/>
<path d="M35.1464 22.7522C34.7895 22.3951 34.2107 22.3952 33.8538 22.7522C33.474 23.1319 32.969 23.3412 32.4318 23.3412C31.8946 23.3412 31.3898 23.132 31.0099 22.7522C30.6529 22.3952 30.0741 22.3951 29.7173 22.7522C29.3602 23.1092 29.3602 23.6879 29.7172 24.0448C30.4421 24.7698 31.4063 25.1693 32.4318 25.1693C33.4573 25.1693 34.4214 24.7699 35.1465 24.0448C35.5035 23.6878 35.5035 23.1091 35.1464 22.7522Z" fill="#3AFFAD"/>
</svg>
