<svg width="16" height="19" viewBox="0 0 16 19" fill="none" xmlns="http://www.w3.org/2000/svg">
<path fill-rule="evenodd" clip-rule="evenodd" d="M12.416 8.27735L8.12284 14.7171L3.7 11.4L4.3 10.6L7.87716 13.2829L11.584 7.72265L12.416 8.27735Z" fill="white"/>
<path fill-rule="evenodd" clip-rule="evenodd" d="M1.5 4V17C1.5 17.2761 1.72386 17.5 2 17.5H14C14.2761 17.5 14.5 17.2761 14.5 17V4H15.5V17C15.5 17.8284 14.8284 18.5 14 18.5H2C1.17157 18.5 0.5 17.8284 0.5 17V4H1.5Z" fill="white"/>
<path fill-rule="evenodd" clip-rule="evenodd" d="M5.55001 2.5C5.78164 1.35888 6.79052 0.5 8 0.5C9.20948 0.5 10.2184 1.35888 10.45 2.5H11C11.8284 2.5 12.5 3.17157 12.5 4V5.5H3.5V4C3.5 3.17157 4.17157 2.5 5 2.5H5.55001ZM6 3V3.5H5C4.72386 3.5 4.5 3.72386 4.5 4V4.5H11.5V4C11.5 3.72386 11.2761 3.5 11 3.5H10V3H9.5C9.5 2.17157 8.82843 1.5 8 1.5C7.17157 1.5 6.5 2.17157 6.5 3H6Z" fill="white"/>
</svg>
