<svg width="20" height="18" viewBox="0 0 20 18" fill="none" xmlns="http://www.w3.org/2000/svg">
<path d="M19.5035 8.40063L19.5037 8.40077C19.6629 8.55976 19.7505 8.77194 19.75 9.00053L19.75 9.00178C19.7506 9.22898 19.6631 9.44113 19.5037 9.60072C19.5037 9.60075 19.5037 9.60077 19.5036 9.60079L12.281 16.8234C12.1218 16.9826 11.9107 17.0702 11.6838 17.0702C11.4557 17.0702 11.245 16.9835 11.0864 16.8249L11.0862 16.8246L10.4307 16.1711C10.4306 16.171 10.4305 16.1709 10.4304 16.1708C10.2711 16.0114 10.1844 15.8036 10.1844 15.5776C10.1844 15.3523 10.2704 15.1481 10.4305 14.9878C10.4306 14.9877 10.4306 14.9876 10.4307 14.9875L14.6916 10.7414L15.1202 10.3143H14.5152H1.08048C0.627562 10.3143 0.25 9.91902 0.25 9.44043V8.51312C0.25 8.04876 0.613668 7.68687 1.08048 7.68687H14.4673H15.07L14.6443 7.26029L10.4307 3.0374L10.4304 3.03713C10.2732 2.88006 10.1842 2.66029 10.1842 2.43089C10.1842 2.20356 10.2717 1.99237 10.4304 1.83376L10.4305 1.83367L11.0862 1.17783C11.0862 1.17782 11.0862 1.1778 11.0863 1.17779C11.0863 1.17777 11.0863 1.17776 11.0863 1.17774C11.2453 1.01894 11.4562 0.931641 11.6836 0.931641C11.9109 0.931641 12.1219 1.01886 12.2808 1.17776L19.5035 8.40063Z" fill="#D7FDED" stroke="#139E64" stroke-width="0.5"/>
</svg>
