<svg width="93" height="93" viewBox="0 0 93 93" fill="none" xmlns="http://www.w3.org/2000/svg">
<circle cx="46.5" cy="46.5" r="46.5" fill="#21A26C"/>
<path d="M32 47.9813V59.9813C32 61.0853 32.898 61.9813 34 61.9813H44V47.9813H32Z" fill="white"/>
<path d="M60 39.9802H53.672C54.126 39.6702 54.516 39.3622 54.788 39.0862C56.402 37.4642 56.402 34.8242 54.788 33.2022C53.22 31.6222 50.488 31.6262 48.922 33.2022C48.054 34.0722 45.754 37.6142 46.072 39.9802H45.928C46.244 37.6142 43.944 34.0722 43.078 33.2022C41.51 31.6262 38.778 31.6262 37.212 33.2022C35.6 34.8242 35.6 37.4642 37.21 39.0862C37.484 39.3622 37.874 39.6702 38.328 39.9802H32C30.898 39.9802 30 40.8782 30 41.9802V44.9802C30 45.5322 30.448 45.9802 31 45.9802H44V41.9802H48V45.9802H61C61.552 45.9802 62 45.5322 62 44.9802V41.9802C62 40.8782 61.104 39.9802 60 39.9802ZM43.882 39.9142C43.882 39.9142 43.798 39.9802 43.512 39.9802C42.13 39.9802 39.492 38.5442 38.63 37.6762C37.792 36.8322 37.792 35.4562 38.63 34.6122C39.036 34.2042 39.574 33.9802 40.146 33.9802C40.716 33.9802 41.254 34.2042 41.66 34.6122C43.008 35.9682 44.348 39.4322 43.882 39.9142ZM48.486 39.9802C48.202 39.9802 48.118 39.9162 48.118 39.9142C47.652 39.4322 48.992 35.9682 50.34 34.6122C51.146 33.7982 52.556 33.7942 53.37 34.6122C54.21 35.4562 54.21 36.8322 53.37 37.6762C52.508 38.5442 49.87 39.9802 48.486 39.9802Z" fill="white"/>
<path d="M48 47.9813V61.9813H58C59.104 61.9813 60 61.0853 60 59.9813V47.9813H48Z" fill="white"/>
</svg>
