<svg width="20" height="20" viewBox="0 0 20 20" fill="none" xmlns="http://www.w3.org/2000/svg">
<path d="M3.125 10.625H15.5934L10.8191 15.1725C10.5691 15.4106 10.5594 15.8063 10.7975 16.0563C11.0353 16.3059 11.4309 16.3159 11.6812 16.0778L17.1337 10.8841C17.3697 10.6478 17.5 10.3341 17.5 10C17.5 9.66625 17.3697 9.35219 17.1228 9.10563L11.6809 3.9225C11.56 3.80719 11.405 3.75 11.25 3.75C11.085 3.75 10.92 3.815 10.7972 3.94406C10.5591 4.19406 10.5688 4.58938 10.8188 4.8275L15.6131 9.375H3.125C2.78 9.375 2.5 9.655 2.5 10C2.5 10.345 2.78 10.625 3.125 10.625Z" fill="#389A71"/>
</svg>
