<svg width="20" height="20" viewBox="0 0 20 20" fill="none" xmlns="http://www.w3.org/2000/svg">
<path d="M19.5035 9.40063L19.5037 9.40077C19.6629 9.55976 19.7505 9.77194 19.75 10.0005L19.75 10.0018C19.7506 10.229 19.6631 10.4411 19.5037 10.6007C19.5037 10.6007 19.5037 10.6008 19.5036 10.6008L12.281 17.8234C12.1218 17.9826 11.9107 18.0702 11.6838 18.0702C11.4557 18.0702 11.245 17.9835 11.0864 17.8249L11.0862 17.8246L10.4307 17.1711C10.4306 17.171 10.4305 17.1709 10.4304 17.1708C10.2711 17.0114 10.1844 16.8036 10.1844 16.5776C10.1844 16.3523 10.2704 16.1481 10.4305 15.9878C10.4306 15.9877 10.4306 15.9876 10.4307 15.9875L14.6916 11.7414L15.1202 11.3143H14.5152H1.08048C0.627562 11.3143 0.25 10.919 0.25 10.4404V9.51312C0.25 9.04876 0.613668 8.68687 1.08048 8.68687H14.4673H15.07L14.6443 8.26029L10.4307 4.0374L10.4304 4.03713C10.2732 3.88006 10.1842 3.66029 10.1842 3.43089C10.1842 3.20356 10.2717 2.99237 10.4304 2.83376L10.4305 2.83367L11.0862 2.17783C11.0862 2.17782 11.0862 2.1778 11.0863 2.17779C11.0863 2.17777 11.0863 2.17776 11.0863 2.17774C11.2453 2.01894 11.4562 1.93164 11.6836 1.93164C11.9109 1.93164 12.1219 2.01886 12.2808 2.17776L19.5035 9.40063Z" stroke="#CDD8D1" stroke-width="0.5"/>
</svg>
