<svg width="16" height="12" viewBox="0 0 16 12" fill="none" xmlns="http://www.w3.org/2000/svg">
<path fill-rule="evenodd" clip-rule="evenodd" d="M0 2.00002V10C0 10.8837 0.716345 11.6 1.6 11.6H14.4C15.2837 11.6 16 10.8837 16 10V2.00002C16 1.11637 15.2837 0.400024 14.4 0.400024H1.6C0.716344 0.400024 0 1.11637 0 2.00002ZM15.2 2.01355V2.00002C15.2 1.5582 14.8418 1.20002 14.4 1.20002H1.6C1.15817 1.20002 0.8 1.5582 0.8 2.00002V2.01355L7.38261 5.96311C7.76262 6.19112 8.23738 6.19112 8.6174 5.96311L15.2 2.01355ZM0.8 2.9465V10C0.8 10.4419 1.15817 10.8 1.6 10.8H14.4C14.8418 10.8 15.2 10.4419 15.2 10V2.9465L9.02899 6.64911C8.39563 7.02913 7.60437 7.02913 6.97101 6.64911L0.8 2.9465Z" fill="#005264"/>
</svg>
