<svg width="20" height="20" viewBox="0 0 20 20" fill="none" xmlns="http://www.w3.org/2000/svg">
<path d="M10 1.5C5.30558 1.5 1.5 5.30558 1.5 10C1.5 14.6944 5.30558 18.5 10 18.5V19.5C4.75329 19.5 0.5 15.2467 0.5 10C0.5 4.75329 4.75329 0.5 10 0.5C15.2467 0.5 19.5 4.75329 19.5 10H18.5C18.5 5.30558 14.6944 1.5 10 1.5Z" fill="white"/>
<path d="M12.5 13.2071L9.64645 10.3536L10.3536 9.64645L13.2071 12.5H18V13.5H14.2071L16.2071 15.5H20V16.5H17.2071L18.8536 18.1465L18.1465 18.8536L16.5 17.2071V20H15.5V16.2071L13.5 14.2071V18H12.5V13.2071Z" fill="white"/>
<path d="M5.5 10C5.5 7.51472 7.51472 5.5 10 5.5C12.4853 5.5 14.5 7.51472 14.5 10H15.5C15.5 6.96243 13.0376 4.5 10 4.5C6.96243 4.5 4.5 6.96243 4.5 10C4.5 13.0376 6.96243 15.5 10 15.5V14.5C7.51472 14.5 5.5 12.4853 5.5 10Z" fill="white"/>
</svg>
