<svg width="56" height="56" viewBox="0 0 56 56" fill="none" xmlns="http://www.w3.org/2000/svg">
<g clip-path="url(#clip0)">
<path d="M24.1155 17.8383V16.2241C24.1155 15.7712 23.748 15.4038 23.2952 15.4038C22.8419 15.4038 22.4749 15.7712 22.4749 16.2241V17.8383C22.4749 18.2911 22.8419 18.6586 23.2952 18.6586C23.748 18.6586 24.1155 18.2911 24.1155 17.8383Z" fill="#3AFFAD"/>
<path d="M32.6052 15.4038C32.1523 15.4038 31.7849 15.7712 31.7849 16.2241V17.8383C31.7849 18.2911 32.1523 18.6586 32.6052 18.6586C33.0581 18.6586 33.4255 18.2911 33.4255 17.8383V16.2241C33.4255 15.7712 33.0585 15.4038 32.6052 15.4038Z" fill="#3AFFAD"/>
<path d="M28.0466 20.847H29.3019C29.7548 20.847 30.1222 20.4796 30.1222 20.0267C30.1222 19.5734 29.7548 19.2064 29.3019 19.2064H28.3201V16.7253C28.3201 16.2725 27.9526 15.905 27.4998 15.905C27.0464 15.905 26.6794 16.2725 26.6794 16.7253V19.4798C26.6794 20.2335 27.2925 20.847 28.0466 20.847Z" fill="#3AFFAD"/>
<path d="M32.5394 23.538C32.5394 22.7215 31.8746 22.0571 31.0577 22.0571H24.8426C24.0257 22.0571 23.3613 22.7215 23.3613 23.538C23.3613 26.0668 25.4198 28.1245 27.95 28.1245C30.4805 28.1245 32.5394 26.0668 32.5394 23.538ZM25.0062 23.6978H30.8945C30.8108 25.2482 29.5222 26.4838 27.95 26.4838C26.3781 26.4838 25.0895 25.2482 25.0062 23.6978Z" fill="#3AFFAD"/>
<path d="M24.6158 14.7998C24.776 14.9592 24.9854 15.0387 25.1947 15.0387C25.4054 15.0387 25.6156 14.9584 25.7758 14.7969C26.0958 14.476 26.0945 13.9565 25.7732 13.6369C24.3727 12.2428 22.0933 12.2428 20.6928 13.6369C20.3715 13.9569 20.3702 14.476 20.6903 14.7969C21.0098 15.1181 21.5294 15.1194 21.8502 14.7998C22.6124 14.0406 23.8536 14.0406 24.6158 14.7998Z" fill="#3AFFAD"/>
<path d="M31.2846 14.7998C32.0473 14.0406 33.288 14.0406 34.0502 14.7998C34.2104 14.9592 34.4198 15.0387 34.6291 15.0387C34.8398 15.0387 35.0504 14.9584 35.2106 14.7969C35.5302 14.476 35.5289 13.9565 35.2076 13.6369C33.8071 12.2428 31.5277 12.2428 30.1272 13.6369C29.8059 13.9565 29.8051 14.476 30.1247 14.7969C30.4442 15.1181 30.9638 15.1194 31.2846 14.7998Z" fill="#3AFFAD"/>
<path d="M53.9864 42.2944H42.7507V39.1562C42.7507 38.7029 42.3832 38.3359 41.9304 38.3359C41.4771 38.3359 41.11 38.7029 41.11 39.1562V42.2944H30.9963L29.9585 35.1342L30.9689 34.0878L32.2545 34.9244C32.4639 35.0607 32.6942 35.1324 32.9202 35.1324C33.5247 35.1324 33.9806 34.6407 33.9806 33.9879V32.9514H40.2897C40.7422 32.9514 41.11 33.3196 41.11 33.7717V35.3281C41.11 35.7814 41.4775 36.1484 41.9304 36.1484C42.3832 36.1484 42.7507 35.7814 42.7507 35.3281V33.7721C42.7507 32.4152 41.6467 31.3112 40.2897 31.3112H33.9806V30.0034C36.2023 28.69 37.7856 26.4111 38.1492 23.7485H38.5162C40.1761 23.7485 41.527 22.3984 41.527 20.7394V18.1131C41.527 17.1415 41.0635 16.2764 40.3461 15.7261V7.19952C40.3461 4.63647 38.2607 2.55109 35.6977 2.55109H32.9509C32.3378 1.05615 30.8677 0 29.1544 0H19.6559C17.3945 0 15.5543 1.83972 15.5543 4.10156V15.7261C14.837 16.2764 14.3734 17.1415 14.3734 18.1131V20.7394C14.3734 22.3984 15.7239 23.7485 17.3838 23.7485H17.7512C18.1148 26.4111 19.6982 28.6904 21.9199 30.0034V31.3112H15.6107C14.2538 31.3112 13.1498 32.4152 13.1498 33.7721V42.2948H11.748V41.3758C11.748 40.3205 10.8896 39.4617 9.83392 39.4617H8.49323V29.5526C8.49323 29.1002 8.86108 28.7323 9.31354 28.7323H12.5222C12.8712 29.8218 13.8962 30.613 15.1036 30.613C16.5977 30.613 17.8132 29.4014 17.8132 27.912C17.8132 26.4226 16.5977 25.2109 15.1036 25.2109C13.8962 25.2109 12.8712 26.0022 12.5222 27.0917H9.31354C7.95618 27.0917 6.8526 28.1957 6.8526 29.5526V39.4617H5.76312C4.70782 39.4617 3.84906 40.3205 3.84906 41.3758V42.2948H1.91406C1.15997 42.2948 0.546875 42.9079 0.546875 43.662V46.2836C0.546875 47.0377 1.15997 47.6508 1.91406 47.6508H4.19855V54.6328C4.19855 55.3869 4.81165 56 5.56573 56H50.3347C51.0888 56 51.7019 55.3869 51.7019 54.6328V47.6508H53.9864C54.7405 47.6508 55.3536 47.0372 55.3536 46.2836V43.6616C55.3536 42.9079 54.7405 42.2944 53.9864 42.2944ZM15.1036 26.8516C15.6932 26.8516 16.1725 27.3271 16.1725 27.912C16.1725 28.4965 15.6932 28.9724 15.1036 28.9724C14.514 28.9724 14.0346 28.4965 14.0346 27.912C14.0346 27.3271 14.514 26.8516 15.1036 26.8516ZM32.34 33.0223L29.5398 31.2001H29.6022C30.5592 31.2001 31.4791 31.0416 32.34 30.7527V33.0223ZM27.95 34.853L26.3316 33.1761L27.9205 32.1422C27.9338 32.14 27.9662 32.14 27.9799 32.1422L29.5684 33.1761L27.95 34.853ZM29.3386 42.2944H26.5649L27.3873 36.6295C27.5394 36.7731 27.7402 36.8542 27.95 36.8542C28.1619 36.8542 28.3649 36.7718 28.517 36.6257L29.3386 42.2944ZM23.5605 33.0223V30.7527C24.4214 31.0416 25.3412 31.2001 26.2983 31.2001H26.3602L23.5605 33.0223ZM39.8864 18.1131V20.7394C39.8864 21.4939 39.2716 22.1078 38.5162 22.1078H38.2313V16.7451H38.5162C39.2716 16.7451 39.8864 17.3586 39.8864 18.1131ZM17.6696 22.1078H17.3842C16.6288 22.1078 16.014 21.4939 16.014 20.7394V18.1131C16.014 17.3586 16.6288 16.7446 17.3842 16.7446H17.6696V22.1078ZM17.6696 10.7034V15.104H17.3842C17.3206 15.104 17.2578 15.1066 17.1954 15.1108V4.10156C17.1954 2.74463 18.299 1.64062 19.6563 1.64062H29.1548C30.5118 1.64062 31.6158 2.74463 31.6158 4.10156V4.8125C31.6158 5.26581 31.9828 5.63281 32.4361 5.63281C32.889 5.63281 33.2564 5.26581 33.2564 4.8125V4.19171H35.6977C37.3563 4.19171 38.7055 5.54095 38.7055 7.19952V15.1108C38.6431 15.107 38.5799 15.104 38.5162 15.104H38.2313V10.7034C38.2313 9.92877 37.5998 9.29816 36.8235 9.29816H33.2564V8.64062C33.2564 8.18732 32.889 7.82031 32.4361 7.82031C31.9828 7.82031 31.6158 8.18732 31.6158 8.64062V9.29858H19.077C18.3007 9.29858 17.6696 9.92877 17.6696 10.7034ZM19.3102 22.5774V10.9392H36.5902V22.5774C36.5902 26.4273 33.4555 29.5594 29.6022 29.5594H26.2983C22.4449 29.5594 19.3102 26.4273 19.3102 22.5774ZM14.7904 33.7721C14.7904 33.3196 15.1583 32.9518 15.6107 32.9518H21.9199V33.9883C21.9199 34.6407 22.3757 35.1329 22.9803 35.1329C23.2063 35.1329 23.4366 35.0607 23.6459 34.9244L24.9315 34.0878L25.9462 35.1389L24.9067 42.2948H14.7904V33.7721ZM5.48969 41.3758C5.48969 41.2275 5.6153 41.1024 5.76312 41.1024H9.83392C9.98218 41.1024 10.1074 41.2275 10.1074 41.3758V42.2944H5.48969V41.3758ZM53.713 46.0101H17.2317C16.7784 46.0101 16.4114 46.3771 16.4114 46.8304C16.4114 47.2833 16.7784 47.6508 17.2317 47.6508H50.0613V54.3594H5.83917V47.6508H13.2942C13.7471 47.6508 14.1145 47.2833 14.1145 46.8304C14.1145 46.3771 13.7471 46.0101 13.2942 46.0101H2.1875V43.935H53.713V46.0101Z" fill="#3AFFAD"/>
<path d="M46.7761 24.8456C46.9368 25.0075 47.1478 25.0887 47.3589 25.0887C47.5674 25.0887 47.7763 25.0093 47.9365 24.8507C49.5964 23.2054 50.5107 21.0136 50.5107 18.6796C50.5107 16.3456 49.5964 14.1538 47.9365 12.508C47.6148 12.1889 47.0953 12.1914 46.7766 12.5132C46.4574 12.8349 46.4595 13.354 46.7817 13.6731C48.1284 15.0083 48.8705 16.7865 48.8705 18.6796C48.8705 20.5727 48.1284 22.3505 46.7817 23.6856C46.4595 24.0048 46.4574 24.5239 46.7761 24.8456Z" fill="#3AFFAD"/>
<path d="M43.5884 22.5193C43.749 22.6812 43.9601 22.762 44.1711 22.762C44.3801 22.762 44.5886 22.6829 44.7488 22.5244C45.7827 21.4995 46.3522 20.134 46.3522 18.6801C46.3527 17.2261 45.7831 15.8607 44.7492 14.8353C44.4275 14.5165 43.908 14.5187 43.5892 14.8404C43.2701 15.1621 43.2722 15.6812 43.5939 16.0004C44.3147 16.7152 44.712 17.6671 44.712 18.6801C44.712 19.6935 44.3147 20.6445 43.5939 21.3593C43.2718 21.678 43.2697 22.1972 43.5884 22.5193Z" fill="#3AFFAD"/>
<path d="M8.54144 25.0891C8.7525 25.0891 8.96356 25.0079 9.1242 24.846C9.44293 24.5242 9.44079 24.0051 9.11908 23.686C7.77197 22.3508 7.03027 20.5731 7.03027 18.6799C7.03027 16.7868 7.77197 15.009 9.11908 13.6735C9.44079 13.3547 9.44293 12.8352 9.1242 12.5135C8.80505 12.1918 8.28552 12.1896 7.9638 12.5084C6.30395 14.1541 5.38965 16.3459 5.38965 18.6804C5.38965 21.0144 6.30395 23.2058 7.9638 24.8515C8.12402 25.0096 8.33294 25.0891 8.54144 25.0891Z" fill="#3AFFAD"/>
<path d="M11.7292 22.7614C11.9402 22.7614 12.1513 22.6802 12.312 22.5187C12.6307 22.1966 12.6285 21.6775 12.3068 21.3583C11.5856 20.644 11.1887 19.6925 11.1887 18.6795C11.1887 17.6661 11.5856 16.7146 12.3064 15.9998C12.6281 15.6806 12.6303 15.1615 12.3115 14.8398C11.9924 14.5177 11.4728 14.516 11.1516 14.8347C10.1176 15.8601 9.5481 17.2251 9.5481 18.6795C9.5481 20.1334 10.1176 21.4985 11.1516 22.5234C11.3118 22.6824 11.5203 22.7614 11.7292 22.7614Z" fill="#3AFFAD"/>
</g>
<defs>
<clipPath id="clip0">
<rect width="56" height="56" fill="white"/>
</clipPath>
</defs>
</svg>
