<svg width="16" height="16" viewBox="0 0 16 16" fill="none" xmlns="http://www.w3.org/2000/svg">
<path fill-rule="evenodd" clip-rule="evenodd" d="M4.16903 2.04334C2.6909 2.3027 1.1999 3.73423 1.1999 6.4333C1.1999 7.40689 1.6064 8.41866 2.25894 9.4093C2.90934 10.3967 3.78381 11.3322 4.67022 12.1449C5.55504 12.9561 6.44161 13.6358 7.10786 14.1131C7.44062 14.3516 7.71755 14.5388 7.91067 14.6661C7.94278 14.6873 7.97257 14.7068 7.9999 14.7246C8.02724 14.7068 8.05703 14.6873 8.08914 14.6661C8.28225 14.5388 8.55918 14.3516 8.89195 14.1131C9.55819 13.6358 10.4448 12.9561 11.3296 12.1449C12.216 11.3322 13.0905 10.3967 13.7409 9.4093C14.3934 8.41866 14.7999 7.40689 14.7999 6.4333C14.7999 3.73423 13.3089 2.3027 11.8308 2.04334C11.0823 1.91202 10.3194 2.07325 9.69988 2.53033C9.08265 2.98573 8.58023 3.7558 8.39466 4.89085H7.60514C7.41958 3.7558 6.91715 2.98573 6.29992 2.53033C5.6804 2.07325 4.91746 1.91202 4.16903 2.04334ZM7.9999 15.1992C7.79006 15.5397 7.78996 15.5397 7.78983 15.5396L7.78944 15.5393L7.78816 15.5386L7.78367 15.5358L7.76703 15.5254C7.75259 15.5164 7.73154 15.5031 7.70432 15.4858C7.64988 15.4512 7.57072 15.4002 7.47039 15.3341C7.26975 15.2018 6.98418 15.0087 6.64195 14.7635C5.95819 14.2736 5.04476 13.5736 4.12958 12.7345C3.21599 11.8969 2.29046 10.9115 1.59086 9.84938C0.893403 8.79055 0.399902 7.62429 0.399902 6.4333C0.399897 3.41127 2.10889 1.5926 4.03077 1.25538C4.98234 1.08841 5.9694 1.2923 6.77488 1.88658C7.27917 2.25865 7.70154 2.77554 7.9999 3.43058C8.29826 2.77555 8.72063 2.25865 9.22492 1.88659C10.0304 1.2923 11.0175 1.08841 11.969 1.25538C13.8909 1.5926 15.5999 3.41127 15.5999 6.4333C15.5999 7.62429 15.1064 8.79055 14.4089 9.84938C13.7093 10.9115 12.7838 11.8969 11.8702 12.7345C10.955 13.5736 10.0416 14.2736 9.35786 14.7635C9.01562 15.0087 8.73005 15.2018 8.52942 15.3341C8.42908 15.4002 8.34993 15.4512 8.29549 15.4858C8.26826 15.5031 8.24721 15.5164 8.23278 15.5254L8.21614 15.5358L8.21164 15.5386L8.21036 15.5393L8.20997 15.5396C8.20985 15.5397 8.20974 15.5397 7.9999 15.1992ZM7.9999 15.1992L8.20974 15.5397L7.9999 15.669L7.79006 15.5397L7.9999 15.1992Z" fill="#A9A9A9"/>
</svg>
