<svg width="24" height="14" viewBox="0 0 24 14" fill="none" xmlns="http://www.w3.org/2000/svg">
<path d="M19.915 8.028C19.527 7.538 19.638 7.32 19.915 6.882C19.92 6.877 23.123 2.451 23.453 0.95L23.455 0.949C23.619 0.402 23.455 0 22.662 0H20.038C19.37 0 19.062 0.345 18.897 0.731C18.897 0.731 17.561 3.929 15.671 6.002C15.061 6.601 14.779 6.793 14.446 6.793C14.282 6.793 14.027 6.601 14.027 6.054V0.949C14.027 0.293 13.84 0 13.287 0H9.16099C8.74199 0 8.49299 0.306 8.49299 0.591C8.49299 1.213 9.43799 1.356 9.53599 3.106V6.903C9.53599 7.735 9.38499 7.888 9.04999 7.888C8.15799 7.888 5.99299 4.677 4.70999 1.002C4.45099 0.289 4.19799 0.000999928 3.52499 0.000999928H0.899992C0.150992 0.000999928 -7.62939e-06 0.346 -7.62939e-06 0.732C-7.62939e-06 1.414 0.891992 4.805 4.14799 9.285C6.31799 12.343 9.37399 14 12.154 14C13.825 14 14.029 13.632 14.029 12.999C14.029 10.077 13.878 9.801 14.715 9.801C15.103 9.801 15.771 9.993 17.331 11.468C19.114 13.217 19.407 14 20.405 14H23.029C23.777 14 24.156 13.632 23.938 12.906C23.439 11.379 20.067 8.238 19.915 8.028Z" fill="#C2D0C9"/>
</svg>
