<svg width="73" height="73" viewBox="0 0 73 73" fill="none" xmlns="http://www.w3.org/2000/svg">
<circle cx="36.5" cy="36.5" r="36.5" fill="#85CFA3"/>
<path d="M53 29.375H44.1718C46.0861 27.8269 47.3125 25.4604 47.3125 22.8125V21.875H44.5C41.6442 21.875 39.0131 23.3087 37.4588 25.663C37.3094 25.6384 37.1562 25.625 37 25.625C36.8438 25.625 36.6906 25.6384 36.5412 25.663C34.9869 23.3087 32.3558 21.875 29.5 21.875H26.6875V22.8125C26.6875 25.4604 27.9139 27.8269 29.8282 29.375H21V37H22.9375V50.125H51.0625V37H53V29.375ZM34.1875 31.25H39.8125V42.0456L37 40.6393L34.1875 42.0456V31.25ZM44.5 23.75H45.3708C44.9585 26.6198 42.6823 28.8957 39.8125 29.308V28.4375C39.8125 27.7238 39.5448 27.0718 39.1052 26.5754C40.3237 24.8162 42.3283 23.75 44.5 23.75ZM37.9375 28.4375V29.375H36.0625V28.4375C36.0625 27.9206 36.4831 27.5 37 27.5C37.5169 27.5 37.9375 27.9206 37.9375 28.4375ZM28.6293 23.75H29.5C31.6717 23.75 33.6763 24.8162 34.8948 26.5754C34.4552 27.0718 34.1875 27.7238 34.1875 28.4375V29.308C31.3177 28.8957 29.0416 26.6198 28.6293 23.75ZM22.875 31.25H32.3125V35.125H22.875V31.25ZM49.1875 48.25H24.8125V37H32.3125V45.0794L37 42.7357L41.6875 45.0794V37H49.1875V48.25ZM51.125 35.125H41.6875V31.25H51.125V35.125Z" fill="white"/>
</svg>
