<svg width="48" height="48" viewBox="0 0 48 48" fill="none" xmlns="http://www.w3.org/2000/svg">
<g clip-path="url(#clip0)">
<path d="M42.6073 27.0612C43.0873 26.4108 43.5889 25.7388 44.0393 25.03C45.3027 23.0683 45.9827 20.788 46.0001 18.4548C46.0473 16.1621 45.7652 13.8745 45.1625 11.662C44.3543 8.91179 42.6763 6.49776 40.3801 4.78197C35.8641 1.24277 31.6425 -0.224434 26.7089 0.0275662C24.106 0.207343 21.5196 0.576858 18.9705 1.13317C15.3601 1.85957 12.7401 3.12837 10.9553 5.01157C9.54114 6.51822 8.44903 8.29739 7.7457 10.2404C7.44834 11.0952 7.20598 11.9682 7.0201 12.854L6.9553 13.1332C6.78672 13.7565 6.5593 14.3624 6.2761 14.9428C6.1105 15.3132 5.9457 15.6828 5.8025 16.0628C5.61703 16.4853 5.54294 16.9483 5.5873 17.4076C5.74987 18.1223 6.16417 18.7547 6.7545 19.1892C7.1473 19.5492 7.4049 19.8012 7.4073 20.0316C7.37631 20.151 7.32921 20.2656 7.2673 20.3724C6.30923 22.3919 5.13518 24.3017 3.7657 26.0684C3.1913 26.77 2.5889 27.5884 2.7113 28.4204C2.8857 29.0512 3.30237 29.5875 3.8705 29.9124C4.13503 30.0949 4.4141 30.2555 4.7049 30.3924C5.0497 30.5684 5.6281 30.8628 5.6649 31.074C5.7166 31.3434 5.68622 31.622 5.5777 31.874C5.4585 32.1236 5.3377 32.3404 5.2297 32.5276C4.9161 33.0812 4.4449 33.9164 5.1849 34.5396C5.3577 34.6924 5.6529 34.9244 5.9233 35.1308C5.72347 35.4827 5.63374 35.8865 5.6657 36.29C5.70933 36.6029 5.87972 36.8841 6.1369 37.0676C6.3161 37.1948 6.5073 37.3076 6.6969 37.4132C7.1673 37.682 7.3505 37.8068 7.4169 38.0532C7.45952 38.3788 7.43003 38.7098 7.3305 39.0228C7.2841 39.2332 7.2393 39.4428 7.2113 39.6524C7.13063 40.38 7.22244 41.1164 7.4793 41.802C7.89297 43.3224 9.42524 44.2522 10.9649 43.9172C13.2492 43.3664 15.5021 42.6926 17.7137 41.8988C19.5121 42.9604 20.6489 46.1748 20.9449 47.3804C21.0326 47.7382 21.3533 47.9899 21.7217 47.99L41.8017 47.9348C42.055 47.934 42.2929 47.8133 42.4432 47.6094C42.5935 47.4055 42.6383 47.1425 42.5641 46.9004C42.3661 46.3543 42.0916 45.839 41.7489 45.37C41.5598 45.0986 41.3888 44.815 41.2369 44.5212C40.8768 43.7831 40.5745 43.0181 40.3329 42.2332C39.876 40.6879 39.5606 39.1043 39.3905 37.502C39.107 35.1097 39.4683 32.6852 40.4369 30.4796C41.0292 29.2619 41.7573 28.1152 42.6073 27.0612ZM37.8009 37.7012C37.9809 39.3995 38.3153 41.0779 38.8001 42.7156C39.0654 43.5778 39.3971 44.4181 39.7921 45.2292C39.9743 45.587 40.1807 45.9321 40.4097 46.262C40.4281 46.2908 40.4473 46.3196 40.4665 46.3484L22.3265 46.4004C21.7941 44.5021 20.8288 42.7531 19.5065 41.2908L20.0985 41.0836C20.6977 40.8732 21.1497 40.7148 21.3785 40.6436C24.8081 39.5668 26.5233 38.0084 26.4769 36.0108C26.4669 35.5761 26.1116 35.2291 25.6769 35.2292H25.6561C25.2145 35.2397 24.865 35.606 24.8753 36.0476C24.8945 36.8716 24.2201 38.0732 20.8961 39.1164C20.6561 39.1908 20.1905 39.3564 19.5697 39.5724C18.9969 39.7732 18.2897 40.0204 17.5185 40.2844H17.5137C15.2615 41.0996 12.967 41.7926 10.6401 42.3604C9.89139 42.5018 9.1639 42.0292 8.9889 41.2876C8.81619 40.8382 8.75019 40.3548 8.7961 39.8756C8.8177 39.7092 8.8553 39.5436 8.8921 39.378C9.05624 38.8228 9.08206 38.2358 8.9673 37.6684C8.73765 36.9338 8.1989 36.3361 7.4921 36.0316C7.4353 35.9996 7.3777 35.9668 7.3209 35.9332C7.40656 35.7582 7.50918 35.5921 7.6273 35.4372C7.76039 35.2672 7.81914 35.0507 7.79022 34.8368C7.76129 34.6228 7.64714 34.4297 7.4737 34.3012C7.2817 34.1588 6.8241 33.8212 6.4961 33.554C6.5361 33.4796 6.5825 33.394 6.6241 33.3236C6.7473 33.1068 6.8881 32.8564 7.0241 32.5692C7.28027 32.0101 7.3555 31.385 7.2393 30.7812C7.0529 29.7996 6.1193 29.3212 5.4305 28.9724C5.19862 28.8624 4.97626 28.7335 4.7657 28.5868C4.59942 28.4714 4.44192 28.3438 4.2945 28.2052C4.2945 28.0852 4.4217 27.7924 5.0377 27.0412C6.46738 25.1984 7.69295 23.2059 8.6929 21.0988C8.88542 20.7689 8.99317 20.3965 9.0065 20.0148C8.92433 19.2097 8.4967 18.4799 7.8345 18.0148C7.5145 17.7188 7.2057 17.4388 7.1713 17.194C7.17431 17.0004 7.21792 16.8096 7.2993 16.634C7.4305 16.286 7.5833 15.946 7.7361 15.6052C8.06236 14.9319 8.32251 14.2286 8.5129 13.5052L8.5785 13.2236C8.74944 12.4032 8.97256 11.5947 9.2465 10.8028C9.87414 9.06026 10.8509 7.46421 12.1169 6.11237C13.6665 4.48037 16.0121 3.36037 19.2857 2.70117C21.7579 2.16104 24.2661 1.80143 26.7905 1.62517C31.3169 1.39797 35.2001 2.75637 39.3913 6.04277C41.4269 7.54324 42.913 9.67105 43.6209 12.0988C44.1822 14.1616 44.4446 16.2942 44.4001 18.4316C44.386 20.4693 43.7925 22.4609 42.6889 24.174C42.2721 24.8324 41.7905 25.4804 41.3289 26.1068C40.4048 27.2608 39.6152 28.5164 38.9753 29.8492C37.8908 32.3161 37.4854 35.0281 37.8009 37.7044V37.7012Z" fill="#139E64"/>
<path d="M41.3368 23.3147C42.2799 21.851 42.7874 20.1494 42.8 18.4083C42.8421 16.4263 42.5997 14.4485 42.08 12.5355C41.4618 10.4367 40.1717 8.59891 38.408 7.30427C34.504 4.24106 31.0256 3.01306 26.8704 3.22426C24.4248 3.39647 21.995 3.74565 19.6 4.26906C16.7008 4.85306 14.5736 5.84266 13.28 7.21227C12.1634 8.4054 11.3021 9.81388 10.7488 11.3515C10.5032 12.0171 10.1168 13.6763 10.068 13.8859C9.88795 14.7803 9.44155 17.8483 11.2568 19.7731C12.408 20.9931 14.1672 21.4451 16.484 21.1179L17.56 20.9643C19.5468 20.5992 21.5622 20.4117 23.5824 20.4043C23.5888 20.4043 23.5944 20.4083 23.6016 20.4083C23.6088 20.4083 23.6112 20.4083 23.6168 20.4083C25.0686 20.4217 26.4576 21.0029 27.4864 22.0275C29.5536 24.0491 31.8448 26.2899 35.4272 26.2899C36.3419 26.2823 37.2515 26.1512 38.1312 25.9003C39.4434 25.3942 40.5644 24.4901 41.3368 23.3147ZM24.4 18.8795V18.3995C24.4 17.9576 24.0418 17.5995 23.6 17.5995C23.1581 17.5995 22.8 17.9576 22.8 18.3995V18.7995C22.2944 18.8067 21.76 18.8403 21.2 18.8899V17.5995C21.2 15.8322 22.6326 14.3995 24.4 14.3995H29.2C30.9673 14.3995 32.4 15.8322 32.4 17.5995V23.9235C31.8349 23.6209 31.2992 23.2663 30.8 22.8643V18.3995C30.8 17.9576 30.4418 17.5995 30 17.5995C29.5581 17.5995 29.2 17.9576 29.2 18.3995V21.4547C29.004 21.2683 28.8056 21.0779 28.604 20.8803C27.4777 19.745 25.9912 19.0376 24.4 18.8795ZM24.4 10.3995C24.4 9.07398 25.4745 7.99947 26.8 7.99947C28.1254 7.99947 29.2 9.07398 29.2 10.3995C29.2 11.725 28.1254 12.7995 26.8 12.7995C25.4745 12.7995 24.4 11.725 24.4 10.3995ZM37.7048 24.3539C36.5043 24.7243 35.2294 24.7832 34 24.5251V17.5995C33.997 15.2322 32.2686 13.2205 29.9288 12.8611C30.4889 12.1625 30.796 11.2949 30.8 10.3995C30.8 8.19033 29.0091 6.39946 26.8 6.39946C24.5908 6.39946 22.8 8.19033 22.8 10.3995C22.8039 11.2949 23.111 12.1625 23.6712 12.8611C21.3313 13.2205 19.6029 15.2322 19.6 17.5995V19.0691C18.88 19.1611 18.1392 19.2643 17.3312 19.3803L16.2584 19.5331C14.4832 19.7859 13.1928 19.4955 12.4184 18.6755C11.3952 17.5899 11.3432 15.6531 11.6304 14.2243C11.7416 13.7443 12.0696 12.3899 12.248 11.9043C12.7269 10.5701 13.4724 9.34739 14.4392 8.31067C15.5048 7.18747 17.3488 6.35546 19.92 5.83946C22.2366 5.33199 24.5866 4.99138 26.952 4.82026C30.712 4.62986 33.792 5.71626 37.4216 8.56427C38.9157 9.65278 40.0117 11.2012 40.5416 12.9723C41.0188 14.736 41.2405 16.5591 41.2 18.3859C41.1908 19.8315 40.7698 21.2445 39.9864 22.4595C39.4253 23.2986 38.6327 23.9567 37.7048 24.3539Z" fill="#139E64"/>
</g>
<defs>
<clipPath id="clip0">
<rect width="48" height="48" fill="white"/>
</clipPath>
</defs>
</svg>
