<svg width="20" height="20" viewBox="0 0 20 20" fill="none" xmlns="http://www.w3.org/2000/svg">
<path d="M16.0741 20C15.2419 20 14.2369 19.7915 13.1317 19.3744C10.7086 18.4609 8.07231 16.6554 5.70845 14.2915C3.34391 11.927 1.53839 9.29 0.624191 6.86694C-0.206592 4.66385 -0.20861 2.85564 0.619482 2.02822C0.73855 1.90915 0.859635 1.78134 0.984757 1.64949C1.7402 0.855034 2.59385 -0.0389826 3.72533 0.00137926C4.50499 0.0336688 5.26043 0.518012 6.03403 1.48064C8.31986 4.32347 7.28929 5.33655 6.09659 6.51108L5.88604 6.71962C5.69096 6.9147 5.32232 7.81814 8.75173 11.2476C9.8711 12.3669 10.8257 13.1863 11.5885 13.682C12.0688 13.9942 12.9278 14.4664 13.2803 14.1139L13.4922 13.9C14.6654 12.71 15.6785 11.6828 18.5193 13.9666C19.4819 14.7402 19.9656 15.495 19.9979 16.276C20.0443 17.4068 19.1436 18.2625 18.3484 19.0172C18.2173 19.1423 18.0895 19.2634 17.9704 19.3818C17.5594 19.7935 16.9021 20 16.0741 20ZM3.64461 0.672732C2.84073 0.672732 2.11489 1.43692 1.47246 2.11298C1.34331 2.24887 1.21818 2.38071 1.09508 2.50382C0.478215 3.12001 0.540776 4.73919 1.25384 6.63015C2.13507 8.96576 3.88611 11.518 6.18472 13.8166C8.48265 16.1139 11.0335 17.8649 13.3698 18.7454C15.2608 19.4599 16.8799 19.5204 17.4955 18.9049C17.6186 18.7818 17.7504 18.6567 17.8863 18.5282C18.5772 17.8716 19.3609 17.1276 19.3266 16.3022C19.303 15.7351 18.89 15.125 18.0989 14.4893C15.7317 12.5856 15.0697 13.2576 13.9719 14.3709L13.7566 14.5882C13.2319 15.1136 12.3796 14.9972 11.2226 14.2451C10.42 13.7231 9.42847 12.8741 8.27681 11.7218C5.43062 8.87629 4.52046 7.13467 5.41111 6.242L5.6257 6.0301C6.74171 4.93226 7.41508 4.26965 5.51067 1.90108C4.87363 1.11066 4.26416 0.697622 3.69708 0.673405C3.67959 0.672732 3.6621 0.672732 3.64461 0.672732Z" fill="#005264"/>
</svg>
