<svg width="16" height="17" viewBox="0 0 16 17" fill="none" xmlns="http://www.w3.org/2000/svg">
<g clip-path="url(#clip0)">
<path d="M11.3746 5.87505C11.9269 5.87505 12.3745 5.42733 12.3745 4.87503C12.3745 4.32273 11.9269 3.875 11.3746 3.875C10.8224 3.875 10.3748 4.32273 10.3748 4.87503C10.3748 5.42733 10.8224 5.87505 11.3746 5.87505Z" fill="#25A46E"/>
<path d="M15.8274 5.68391C15.4936 4.8341 14.8816 3.60795 13.8613 2.59245C12.8446 1.58045 11.6314 0.985956 10.7927 0.665395C9.87199 0.31349 8.82572 0.535302 8.12728 1.23046L5.67298 3.67326C4.94545 4.39735 4.73576 5.51153 5.15117 6.44575C5.27998 6.7355 5.42007 7.0189 5.56976 7.29271L0.183062 12.6794C0.0658435 12.7966 0 12.9556 0 13.1213V15.8713C0 16.2165 0.279811 16.4963 0.624998 16.4963H3.37499C3.72017 16.4963 3.99998 16.2165 3.99998 15.8713V14.7463L5.12498 14.7463C5.47017 14.7463 5.74998 14.4665 5.74998 14.1213V12.9963H6.87497C7.22016 12.9963 7.49997 12.7165 7.49997 12.3714C7.49997 12.0262 7.22016 11.7464 6.87497 11.7464H5.12498C4.77979 11.7464 4.49998 12.0262 4.49998 12.3714V13.4963L3.37499 13.4963C3.0298 13.4963 2.74999 13.7762 2.74999 14.1213V15.2463H1.25V13.3802L6.79232 7.83793C6.99594 7.63431 7.0341 7.31796 6.88475 7.07178C6.66816 6.71478 6.46919 6.33328 6.29341 5.93787C6.08719 5.47409 6.19226 4.92007 6.55485 4.55916L9.00912 2.11639C9.35953 1.76767 9.88446 1.65645 10.3466 1.83302C11.0722 2.11039 12.1181 2.62095 12.9795 3.47838C13.8463 4.34101 14.3739 5.40235 14.6639 6.14078C14.8449 6.60165 14.7349 7.12525 14.3838 7.47474L11.8998 9.94705C11.5381 10.307 10.9982 10.4123 10.5243 10.2152C10.1335 10.0526 9.75496 9.85948 9.39934 9.6412C9.10518 9.46064 8.72031 9.55277 8.53975 9.84695C8.35919 10.1411 8.45128 10.526 8.74547 10.7066C9.15646 10.9588 9.59346 11.1818 10.0443 11.3693C10.9862 11.7611 12.0607 11.5505 12.7816 10.833L15.2655 8.36074C15.9701 7.65952 16.1906 6.60881 15.8274 5.68391Z" fill="#25A46E"/>
</g>
<defs>
<clipPath id="clip0">
<rect y="0.5" width="16" height="16" fill="white"/>
</clipPath>
</defs>
</svg>
