<svg width="48" height="48" viewBox="0 0 48 48" fill="none" xmlns="http://www.w3.org/2000/svg">
<g clip-path="url(#clip0)">
<path d="M0.8 48.0007H24.8C25.2418 48.0007 25.6 47.6426 25.6 47.2007V40.0007C25.596 36.4678 22.733 33.6047 19.2 33.6007H17.1048C15.9986 32.6278 15.6208 31.066 16.16 29.6951C18.3167 28.745 20.0156 26.9881 20.8928 24.8007C22.4391 24.7553 23.7315 23.6102 23.9628 22.0806C24.1941 20.551 23.2981 19.075 21.8344 18.5743C22.3792 16.5815 23.2008 11.8695 19.612 9.71673C17.724 8.58553 14.848 8.70953 11.8048 8.83673C8.1056 8.99673 4.2752 9.16153 3.116 6.84153C2.95697 6.52257 2.60613 6.34728 2.25559 6.41164C1.90505 6.476 1.63936 6.76449 1.604 7.11913C1.5744 7.41513 1.0312 13.2927 4.004 16.2391V18.5007C2.45616 18.8946 1.43577 20.3695 1.61295 21.9569C1.79012 23.5442 3.1106 24.7578 4.7072 24.8007C5.58423 26.988 7.28321 28.7447 9.44 29.6943C9.97931 31.0655 9.60151 32.6276 8.4952 33.6007H6.4C2.86702 33.6047 0.0039679 36.4678 0 40.0007V47.2007C0 47.4129 0.0842855 47.6164 0.234315 47.7664C0.384344 47.9164 0.587827 48.0007 0.8 48.0007ZM6.0072 23.7015C5.89899 23.3743 5.59342 23.1532 5.2488 23.1527C5.18983 23.1527 5.13104 23.1594 5.0736 23.1727C4.98365 23.1918 4.89194 23.2011 4.8 23.2007C3.91634 23.2007 3.2 22.4844 3.2 21.6007C3.2 20.7171 3.91634 20.0007 4.8 20.0007C5.24183 20.0007 5.6 19.6426 5.6 19.2007V17.3463C5.77872 17.4264 5.96135 17.4974 6.1472 17.5591C6.41872 17.6494 6.7178 17.588 6.93178 17.3981C7.14576 17.2081 7.24212 16.9184 7.18458 16.6381C7.12704 16.3578 6.92432 16.1294 6.6528 16.0391C6.18052 15.8818 5.74314 15.6346 5.3648 15.3111C5.34025 15.2858 5.31347 15.2628 5.2848 15.2423C3.68 13.7983 3.2544 11.1207 3.1704 9.27353C5.268 10.7207 8.6104 10.5767 11.8736 10.4367C14.5488 10.3223 17.3136 10.2023 18.788 11.0863C22.1656 13.1135 20.072 18.8623 20.0504 18.9207C19.9586 19.1664 19.9931 19.4414 20.1426 19.6569C20.2921 19.8723 20.5378 20.0008 20.8 20.0007C21.6837 20.0007 22.4 20.7171 22.4 21.6007C22.4 22.4844 21.6837 23.2007 20.8 23.2007C20.7081 23.2011 20.6163 23.1918 20.5264 23.1727C20.1256 23.0832 19.7221 23.3118 19.5928 23.7015C18.6664 26.6892 15.9275 28.7453 12.8 28.8007C9.67249 28.7453 6.93358 26.6892 6.0072 23.7015ZM11.1832 30.2375C12.2504 30.4551 13.3504 30.4551 14.4176 30.2375C14.1162 31.9024 14.7029 33.6042 15.9664 34.7295C15.8066 36.3586 14.4368 37.6005 12.8 37.6005C11.1632 37.6005 9.79341 36.3586 9.6336 34.7295C10.8959 33.6047 11.4828 31.9047 11.1832 30.2407V30.2375ZM1.6 40.0007C1.60265 37.3509 3.75013 35.2034 6.4 35.2007H8.0664C8.45492 37.5122 10.4561 39.2051 12.8 39.2051C15.1439 39.2051 17.1451 37.5122 17.5336 35.2007H19.2C21.8499 35.2034 23.9974 37.3509 24 40.0007V46.4007H21.6V41.6007C21.6 41.1589 21.2418 40.8007 20.8 40.8007C20.3582 40.8007 20 41.1589 20 41.6007V46.4007H5.6V41.6007C5.6 41.1589 5.24183 40.8007 4.8 40.8007C4.35817 40.8007 4 41.1589 4 41.6007V46.4007H1.6V40.0007Z" fill="#139E64"/>
<path d="M35.9999 1.59043e-06C31.3639 -0.00237871 27.1417 2.66726 25.156 6.85643C23.1703 11.0456 23.7767 16.004 26.7135 19.5912L25.3735 24.2728C25.1944 24.9018 25.416 25.5764 25.9333 25.9766C26.4506 26.3767 27.1593 26.4218 27.7231 26.0904L32.3031 23.4184C36.8099 24.8751 41.752 23.5445 44.9182 20.0219C48.0845 16.4994 48.8826 11.4439 46.9554 7.11732C45.0282 2.79071 40.7363 0.00247142 35.9999 1.59043e-06ZM35.9999 22.4C34.8018 22.401 33.6125 22.1948 32.4847 21.7904C32.2624 21.7111 32.0165 21.7339 31.8127 21.8528L26.9127 24.7088L28.3687 19.62C28.444 19.3577 28.3803 19.0751 28.1999 18.8704C24.9654 15.1932 24.7362 9.75705 27.6497 5.82059C30.5632 1.88413 35.8291 0.515097 40.2909 2.53412C44.7527 4.55315 47.2001 9.41255 46.1661 14.1995C45.1322 18.9865 40.8973 22.4025 35.9999 22.4Z" fill="#139E64"/>
<path d="M29.5992 9.59961C28.2737 9.59961 27.1992 10.6741 27.1992 11.9996C27.1992 13.3251 28.2737 14.3996 29.5992 14.3996C30.9247 14.3996 31.9992 13.3251 31.9992 11.9996C31.9992 10.6741 30.9247 9.59961 29.5992 9.59961ZM29.5992 12.7996C29.1574 12.7996 28.7992 12.4414 28.7992 11.9996C28.7992 11.5578 29.1574 11.1996 29.5992 11.1996C30.041 11.1996 30.3992 11.5578 30.3992 11.9996C30.3992 12.4414 30.041 12.7996 29.5992 12.7996Z" fill="#139E64"/>
<path d="M35.9996 9.59961C34.6741 9.59961 33.5996 10.6741 33.5996 11.9996C33.5996 13.3251 34.6741 14.3996 35.9996 14.3996C37.3251 14.3996 38.3996 13.3251 38.3996 11.9996C38.3996 10.6741 37.3251 9.59961 35.9996 9.59961ZM35.9996 12.7996C35.5578 12.7996 35.1996 12.4414 35.1996 11.9996C35.1996 11.5578 35.5578 11.1996 35.9996 11.1996C36.4414 11.1996 36.7996 11.5578 36.7996 11.9996C36.7996 12.4414 36.4414 12.7996 35.9996 12.7996Z" fill="#139E64"/>
<path d="M40 11.9996C40 13.3251 41.0745 14.3996 42.4 14.3996C43.7255 14.3996 44.8 13.3251 44.8 11.9996C44.8 10.6741 43.7255 9.59961 42.4 9.59961C41.0745 9.59961 40 10.6741 40 11.9996ZM43.2 11.9996C43.2 12.4414 42.8418 12.7996 42.4 12.7996C41.9582 12.7996 41.6 12.4414 41.6 11.9996C41.6 11.5578 41.9582 11.1996 42.4 11.1996C42.8418 11.1996 43.2 11.5578 43.2 11.9996Z" fill="#139E64"/>
</g>
<defs>
<clipPath id="clip0">
<rect width="48" height="48" fill="white"/>
</clipPath>
</defs>
</svg>
