<svg width="33" height="27" viewBox="0 0 33 27" fill="none" xmlns="http://www.w3.org/2000/svg">
<path d="M23.4194 14.0876V18.7449H24.4839V11.4264C24.4839 10.8384 24.9604 10.3618 25.5484 10.3618H26.6129C27.2008 10.3618 27.6774 10.8384 27.6774 11.4264V18.7449H28.2097C28.7976 18.7449 29.2742 19.2215 29.2742 19.8094C29.2742 20.3974 28.7976 20.8739 28.2097 20.8739C27.5982 20.8739 16.217 20.8739 15.4355 20.8739C14.8475 20.8739 14.371 20.3974 14.371 19.8094C14.371 19.2215 14.8475 18.7449 15.4355 18.7449H15.9677V16.7489C15.9677 16.1611 16.4443 15.6844 17.0323 15.6844H18.0968C18.6847 15.6844 19.1613 16.1611 19.1613 16.7489V18.7449H20.2258V14.0876C20.2258 13.4997 20.7024 13.0231 21.2903 13.0231H22.3548C22.9428 13.0231 23.4194 13.4998 23.4194 14.0876ZM18.0968 5.43845C18.0968 4.8505 17.6202 4.37393 17.0323 4.37393H12.2419C11.654 4.37393 11.1774 4.8505 11.1774 5.43845C11.1774 6.02639 11.654 6.50297 12.2419 6.50297H17.0323C17.6202 6.50297 18.0968 6.02639 18.0968 5.43845ZM14.371 10.4284H21.0242C21.6121 10.4284 22.0887 9.9518 22.0887 9.36385C22.0887 8.77591 21.6121 8.29934 21.0242 8.29934H14.371C13.783 8.29934 13.3065 8.77591 13.3065 9.36385C13.3065 9.9518 13.783 10.4284 14.371 10.4284ZM33 3.84167V21.4062C33 23.1671 31.5674 24.5997 29.8065 24.5997H15.324V25.2866C15.324 25.8745 14.8475 26.3511 14.2595 26.3511C13.6716 26.3511 13.195 25.8745 13.195 25.2866V23.0543C13.195 22.7074 12.9904 22.3919 12.6736 22.2506L10.3297 21.204C9.1406 23.239 6.18264 23.2372 4.99444 21.204L2.65051 22.2506C2.33369 22.3919 2.12903 22.7074 2.12903 23.0543V25.2866C2.12903 25.8746 1.65246 26.3511 1.06452 26.3511C0.476571 26.3511 0 25.8746 0 25.2866V23.0543C0 21.8685 0.699653 20.79 1.7824 20.3065L4.36452 19.1535C4.63244 19.0339 4.75939 19.0611 5.6947 19.0611C6.18464 19.0611 6.61131 19.3955 6.72841 19.8713C6.96706 20.8417 8.35672 20.8422 8.59577 19.8712C8.7128 19.3955 9.13947 19.0611 9.62941 19.0611C10.5683 19.0611 10.6927 19.0345 10.9595 19.1535L13.5416 20.3065C14.4433 20.7091 15.0789 21.5245 15.2664 22.4708H29.8065C30.3934 22.4708 30.871 21.9933 30.871 21.4063V3.84174C30.871 3.25473 30.3934 2.77723 29.8065 2.77723H8.11694C7.52999 2.77723 7.05242 3.25473 7.05242 3.84174V7.97499C10.0148 7.59529 12.5966 9.91254 12.5966 12.8496C12.5966 15.5604 10.3913 17.7657 7.68042 17.7657C4.96969 17.7657 2.76428 15.5604 2.76428 12.8496C2.76428 11.1599 3.62135 9.66684 4.92332 8.78156V3.84174C4.92332 2.08083 6.35596 0.648193 8.11687 0.648193H29.8064C31.5674 0.648127 33 2.08077 33 3.84167ZM7.68042 10.0624C6.14359 10.0624 4.89331 11.3127 4.89331 12.8495C4.89331 14.3864 6.14359 15.6366 7.68042 15.6366C9.21725 15.6366 10.4676 14.3864 10.4676 12.8495C10.4676 11.3127 9.21725 10.0624 7.68042 10.0624Z" fill="#29A571"/>
</svg>
