<svg width="16" height="16" viewBox="0 0 16 16" fill="none" xmlns="http://www.w3.org/2000/svg">
<path fill-rule="evenodd" clip-rule="evenodd" d="M4.22443 7.9998L3.75074 9.89456L6.11918 7.9998H8.7998C9.24164 7.9998 9.5998 7.64166 9.5998 7.1998V2.3998C9.5998 1.95795 9.24164 1.5998 8.7998 1.5998H2.3998C1.95797 1.5998 1.5998 1.95795 1.5998 2.3998V7.1998C1.5998 7.64166 1.95797 7.9998 2.3998 7.9998H4.22443ZM2.3998 11.9998L3.1998 8.7998H2.3998C2.3916 8.7998 2.38341 8.79974 2.37523 8.79962C1.50291 8.78649 0.799805 8.07529 0.799805 7.1998V2.3998C0.799805 1.51611 1.51615 0.799805 2.3998 0.799805H8.7998C9.68346 0.799805 10.3998 1.51611 10.3998 2.3998V7.1998C10.3998 8.0835 9.68346 8.7998 8.7998 8.7998H6.3998L2.3998 11.9998Z" fill="#A9A9A9"/>
<path fill-rule="evenodd" clip-rule="evenodd" d="M5.5998 9.43981V11.1998C5.5998 12.0835 6.31615 12.7998 7.1998 12.7998H9.5998L13.5998 15.9998L12.7998 12.7998H13.5998L13.6244 12.7996C14.4967 12.7865 15.1998 12.0753 15.1998 11.1998V6.3998C15.1998 5.51611 14.4835 4.7998 13.5998 4.7998H10.3998V5.5998H13.5998C14.0416 5.5998 14.3998 5.95795 14.3998 6.3998V11.1998C14.3998 11.6417 14.0416 11.9998 13.5998 11.9998H11.7752L12.2489 13.8946L9.88043 11.9998H7.1998C6.75796 11.9998 6.3998 11.6417 6.3998 11.1998V8.7998L5.5998 9.43981Z" fill="#A9A9A9"/>
</svg>
