<svg width="56" height="54" viewBox="0 0 56 54" fill="none" xmlns="http://www.w3.org/2000/svg">
<path d="M50.6441 12.3458H41.9736V9.86098C41.9736 9.4034 41.6027 9.03255 41.1452 9.03255H40.4274V7.87257C40.4274 4.00513 37.2807 0.858887 33.4133 0.858887H22.3681C18.5006 0.858887 15.3544 4.00513 15.3544 7.87257V9.03255H14.6362C14.1786 9.03255 13.8078 9.4034 13.8078 9.86098V12.3463H10.6461C10.1886 12.3463 9.81771 12.7171 9.81771 13.1743C9.81771 13.6319 10.1886 14.0027 10.6461 14.0027H50.6441C52.6236 14.0027 54.2339 15.6134 54.2339 17.5929V24.8826C54.2339 26.5945 53.0145 28.0758 51.3435 28.4039L31.3488 32.1086H24.4321L4.44636 28.4052C2.76685 28.0758 1.54749 26.5945 1.54749 24.8826V17.5924C1.54749 15.613 3.15778 14.0027 5.13722 14.0027H6.80092C7.2585 14.0027 7.62935 13.6319 7.62935 13.1743C7.62935 12.7167 7.2585 12.3458 6.80092 12.3458H5.13722C2.24433 12.3458 -0.109375 14.6996 -0.109375 17.5924V24.8826C-0.109375 26.6197 0.750246 28.1937 2.09949 29.1559V48.0778C2.09949 50.9707 4.4532 53.3244 7.34608 53.3244H39.875C40.3325 53.3244 40.7034 52.9535 40.7034 52.496C40.7034 52.0384 40.3325 51.6675 39.875 51.6675H7.34608C5.36665 51.6675 3.75636 50.0572 3.75636 48.0778V29.9424C3.88111 29.9766 4.00758 30.0074 4.13618 30.0326L23.5276 33.6257V42.3253C23.5276 42.6876 23.763 43.0077 24.1091 43.1157L27.6437 44.2206C27.7241 44.2454 27.8074 44.2582 27.8907 44.2582C27.974 44.2582 28.0573 44.2454 28.1376 44.2206L31.6722 43.1157C32.0183 43.0077 32.2537 42.6876 32.2537 42.3253V33.6257L51.6537 30.0313C51.7793 30.0065 51.9028 29.9762 52.025 29.9433V48.0778C52.025 50.0577 50.4147 51.6675 48.4353 51.6675H43.7501C43.2925 51.6675 42.9217 52.0384 42.9217 52.496C42.9217 52.9535 43.2925 53.3244 43.7501 53.3244H48.4353C51.3282 53.3244 53.6814 50.9707 53.6814 48.0778V29.1572C55.0298 28.1959 55.8907 26.6206 55.8907 24.8826V17.5924C55.8907 14.6996 53.537 12.3458 50.6441 12.3458ZM17.0108 7.87257C17.0108 4.91859 19.4141 2.51575 22.3681 2.51575H33.4133C36.3673 2.51575 38.7705 4.91859 38.7705 7.87257V9.03255H36.8928V7.87257C36.8928 5.95423 35.3316 4.3935 33.4133 4.3935H31.577C31.1194 4.3935 30.7485 4.76435 30.7485 5.22151C30.7485 5.67909 31.1194 6.04994 31.577 6.04994H33.4133C34.4182 6.04994 35.2359 6.86769 35.2359 7.87257V9.03255H34.5177C34.0601 9.03255 33.6893 9.4034 33.6893 9.86098V12.3463H22.0917V9.86098C22.0917 9.4034 21.7208 9.03255 21.2632 9.03255H20.5455V7.87257C20.5455 6.86769 21.3632 6.04994 22.3681 6.04994H27.7249C28.1825 6.04994 28.5533 5.67909 28.5533 5.22151C28.5533 4.76435 28.1825 4.3935 27.7249 4.3935H22.3681C20.4497 4.3935 18.8886 5.95423 18.8886 7.87257V9.03255H17.0108V7.87257ZM15.4646 12.3458V10.689H20.4352V12.3458H15.4646ZM35.3461 12.3458V10.689H40.3167V12.3458H35.3461ZM25.1845 33.765H30.5969V36.9681H25.1845V33.765ZM30.5969 41.7161L27.8907 42.562L25.1845 41.7161V38.625H30.5969V41.7161Z" fill="#3AFFAD"/>
</svg>
