<svg width="33" height="33" viewBox="0 0 33 33" fill="none" xmlns="http://www.w3.org/2000/svg">
<g clip-path="url(#clip0)">
<path d="M16.4361 7.25188C11.2553 7.25188 6.98815 11.494 6.98822 16.6995C6.98822 20.1824 8.8953 23.3721 11.965 25.0238C12.3014 25.2048 12.5104 25.5608 12.5104 25.9528V29.6067C12.5104 31.3676 13.943 32.8003 15.7039 32.8003H17.1677C18.9286 32.8003 20.3612 31.3676 20.3612 29.6067V25.9529C20.3612 25.5621 20.5792 25.2012 20.93 25.0111C23.9853 23.3561 25.8834 20.1712 25.8834 16.6995C25.8834 11.4775 21.6568 7.25188 16.4361 7.25188ZM17.1677 30.6712H15.7039C15.117 30.6712 14.6394 30.1937 14.6394 29.6067V27.012H18.2322V29.6067C18.2322 30.1937 17.7546 30.6712 17.1677 30.6712ZM19.916 23.1392C19.2055 23.5241 18.6793 24.1503 18.4176 24.8829H14.4563C14.1977 24.1503 13.677 23.5273 12.9738 23.149C10.595 21.8691 9.11725 19.3978 9.11725 16.6995C9.11725 12.6762 12.4356 9.35251 16.492 9.38105C20.4965 9.41112 23.7543 12.6941 23.7543 16.6994C23.7543 19.389 22.2835 21.8566 19.916 23.1392ZM4.65726 16.6971C4.65726 17.285 4.18062 17.7617 3.59274 17.7617H1.06452C0.476637 17.7617 0 17.285 0 16.6971C0 16.1093 0.476637 15.6326 1.06452 15.6326H3.59274C4.18062 15.6326 4.65726 16.1093 4.65726 16.6971ZM8.12425 25.072C8.54001 25.4876 8.54001 26.1617 8.12425 26.5774L6.33653 28.3651C6.12869 28.573 5.85624 28.6769 5.58385 28.6769C4.64408 28.6769 4.15853 27.5322 4.83117 26.8597L6.6189 25.072C7.03452 24.6562 7.70856 24.6562 8.12425 25.072ZM15.4378 3.7922V1.26398C15.4378 0.6761 15.9145 0.199463 16.5023 0.199463C17.0902 0.199463 17.5668 0.6761 17.5668 1.26398V3.7922C17.5668 4.38008 17.0902 4.85672 16.5023 4.85672C15.9145 4.85672 15.4378 4.38008 15.4378 3.7922ZM4.83437 6.536C4.41861 6.1203 4.41861 5.44626 4.83437 5.03057C5.25006 4.61481 5.9241 4.61481 6.33979 5.03057L8.12751 6.81829C8.80029 7.491 8.3144 8.63549 7.37484 8.63549C7.10239 8.63549 6.83 8.53156 6.62216 8.32365L4.83437 6.536ZM24.8757 6.82155L26.6635 5.03383C27.0792 4.61807 27.7532 4.61807 28.1689 5.03383C28.5847 5.44952 28.5847 6.12356 28.1689 6.53926L26.3812 8.32698C26.1733 8.53489 25.9009 8.63881 25.6285 8.63881C24.6887 8.63881 24.2031 7.49413 24.8757 6.82155ZM33 16.7018C33 17.2897 32.5234 17.7663 31.9355 17.7663H29.4073C28.8194 17.7663 28.3427 17.2897 28.3427 16.7018C28.3427 16.1139 28.8194 15.6373 29.4073 15.6373H31.9355C32.5234 15.6373 33 16.1138 33 16.7018ZM28.1656 26.8629C28.5814 27.2786 28.5814 27.9527 28.1656 28.3684C27.75 28.784 27.0759 28.7841 26.6602 28.3684L24.8725 26.5806C24.4567 26.1649 24.4567 25.4909 24.8725 25.0752C25.2882 24.6595 25.9622 24.6595 26.3779 25.0752L28.1656 26.8629Z" fill="#29A571"/>
<path d="M16.8087 14.1859C17.793 13.9372 18.0079 12.9364 17.6721 12.1347C17.3363 11.333 16.5904 11.0895 15.5928 11.283C13.3468 11.7181 11.4015 13.6598 11.232 15.6828C11.1369 16.8153 11.6023 17.82 12.7166 17.82C13.3552 17.82 14.1803 17.5428 14.2019 16.8153C14.1803 15.6013 15.2919 14.1859 16.8087 14.1859Z" fill="#29A571"/>
</g>
<defs>
<clipPath id="clip0">
<rect width="33" height="33" fill="white"/>
</clipPath>
</defs>
</svg>
