<svg width="16" height="16" viewBox="0 0 16 16" fill="none" xmlns="http://www.w3.org/2000/svg">
<path fill-rule="evenodd" clip-rule="evenodd" d="M4.22467 8.00078L3.75098 9.89554L6.11942 8.00078H8.80005C9.24189 8.00078 9.60005 7.64263 9.60005 7.20078V2.40078C9.60005 1.95893 9.24189 1.60078 8.80005 1.60078H2.40005C1.95821 1.60078 1.60005 1.95893 1.60005 2.40078V7.20078C1.60005 7.64263 1.95821 8.00078 2.40005 8.00078H4.22467ZM2.40005 12.0008L3.20005 8.80078H2.40005C2.39184 8.80078 2.38365 8.80072 2.37547 8.8006C1.50315 8.78746 0.800049 8.07627 0.800049 7.20078V2.40078C0.800049 1.51709 1.51639 0.800781 2.40005 0.800781H8.80005C9.6837 0.800781 10.4 1.51709 10.4 2.40078V7.20078C10.4 8.08447 9.6837 8.80078 8.80005 8.80078H6.40005L2.40005 12.0008Z" fill="#A9A9A9"/>
<path fill-rule="evenodd" clip-rule="evenodd" d="M5.60005 9.44078V11.2008C5.60005 12.0845 6.31639 12.8008 7.20005 12.8008H9.60005L13.6 16.0008L12.8 12.8008H13.6L13.6246 12.8006C14.4969 12.7875 15.2 12.0763 15.2 11.2008V6.40078C15.2 5.51709 14.4837 4.80078 13.6 4.80078H10.4V5.60078H13.6C14.0419 5.60078 14.4 5.95893 14.4 6.40078V11.2008C14.4 11.6426 14.0419 12.0008 13.6 12.0008H11.7754L12.2491 13.8955L9.88067 12.0008H7.20005C6.75821 12.0008 6.40005 11.6426 6.40005 11.2008V8.80078L5.60005 9.44078Z" fill="#A9A9A9"/>
</svg>
