<svg width="20" height="20" viewBox="0 0 20 20" fill="none" xmlns="http://www.w3.org/2000/svg">
<g clip-path="url(#clip0)">
<path d="M7.30548 17.1189L7.30446 17.1199C7.20823 17.2167 7.07557 17.2719 6.93641 17.2719C6.79726 17.2719 6.66459 17.2167 6.56836 17.1199L6.56735 17.1189L0.801659 11.3523L0.80163 11.3522C0.397976 10.9486 0.398452 10.2945 0.801299 9.89245L0.801676 9.89207L1.52353 9.17003C1.52356 9.17 1.52359 9.16997 1.52363 9.16993C1.92733 8.76646 2.58047 8.76657 2.98388 9.16997C2.98388 9.16997 2.98389 9.16998 2.98389 9.16998L6.58354 12.7698L6.93641 13.1227L7.28928 12.7698L17.016 3.0429C17.016 3.04288 17.0161 3.04286 17.0161 3.04284C17.4199 2.63917 18.0738 2.63966 18.4761 3.04257L18.4763 3.0428L19.1983 3.76493L19.1983 3.76498C19.602 4.1686 19.6016 4.8225 19.1986 5.22483L19.1983 5.22511L7.30548 17.1189Z" fill="#B7FCCA" stroke="#00D73C" stroke-width="0.998053"/>
</g>
<defs>
<clipPath id="clip0">
<rect width="20" height="20" fill="white"/>
</clipPath>
</defs>
</svg>
