<svg width="14" height="16" viewBox="0 0 14 16" fill="none" xmlns="http://www.w3.org/2000/svg">
<path d="M11.5 5.875H10.3738V3.30531C10.3738 1.48275 8.85981 0 6.99884 0C5.13788 0 3.62384 1.48275 3.62384 3.30531V5.875H2.5C1.46613 5.875 0.625 6.71613 0.625 7.75V14.125C0.625 15.1589 1.46613 16 2.5 16H11.5C12.5339 16 13.375 15.1589 13.375 14.125V7.75C13.375 6.71613 12.5339 5.875 11.5 5.875ZM4.87384 3.30531C4.87384 2.172 5.82713 1.25 6.99884 1.25C8.17056 1.25 9.12384 2.172 9.12384 3.30531V5.875H4.87384V3.30531ZM12.125 14.125C12.125 14.4696 11.8446 14.75 11.5 14.75H2.5C2.15538 14.75 1.875 14.4696 1.875 14.125V7.75C1.875 7.40538 2.15538 7.125 2.5 7.125H11.5C11.8446 7.125 12.125 7.40538 12.125 7.75V14.125Z" fill="#BED4CB"/>
</svg>
