<svg width="48" height="48" viewBox="0 0 48 48" fill="none" xmlns="http://www.w3.org/2000/svg">
<g clip-path="url(#clip0)">
<path d="M1.57694 29.9129C1.84035 30.0955 2.11835 30.256 2.40814 30.3929C2.75374 30.5697 3.33374 30.8657 3.37374 31.0729C3.42472 31.3463 3.3921 31.6287 3.28014 31.8833C3.16094 32.1393 3.03534 32.3593 2.92814 32.5497C2.63454 33.0665 2.14494 33.9329 2.88414 34.5377C3.05694 34.6977 3.35534 34.9289 3.62814 35.1377C3.42767 35.4878 3.33682 35.8899 3.36734 36.2921C3.40997 36.6088 3.58167 36.8937 3.84174 37.0793C4.01934 37.2041 4.20894 37.3129 4.39614 37.4193C4.86894 37.6889 5.05374 37.8137 5.11614 38.0649C5.16072 38.3869 5.1334 38.7148 5.03614 39.0249C4.98974 39.2393 4.94334 39.4537 4.91694 39.6649C4.83741 40.3939 4.92721 41.1315 5.17934 41.8201C5.53887 43.0911 6.68831 43.9766 8.00894 44.0001C8.22941 43.9994 8.44923 43.9761 8.66494 43.9305C10.9503 43.3887 13.2024 42.7147 15.4097 41.9121C17.2121 42.9697 18.3505 46.1857 18.6473 47.3929C18.736 47.7498 19.0564 48.0003 19.4241 48.0001L39.5041 47.9441C39.7586 47.9436 39.9977 47.8221 40.148 47.6168C40.2984 47.4115 40.3421 47.1469 40.2657 46.9041C40.0674 46.3622 39.7943 45.8506 39.4545 45.3841C39.2629 45.1083 39.09 44.8199 38.9369 44.5209C38.5757 43.787 38.2736 43.0254 38.0337 42.2433C37.5771 40.6973 37.2606 39.1133 37.0881 37.5105C36.8138 35.1655 37.1586 32.7896 38.0881 30.6193C40.9493 28.0278 42.6438 24.3913 42.7878 20.5336C42.9317 16.6759 41.513 12.9233 38.8529 10.1257L40.1129 8.80011H43.6001C43.8123 8.80007 44.0157 8.71575 44.1657 8.56571L47.3657 5.36571C47.5945 5.13692 47.6629 4.79289 47.5391 4.49399C47.4153 4.1951 47.1237 4.00018 46.8001 4.00011H43.6001V0.800115C43.6001 0.476598 43.4052 0.184968 43.1063 0.0611727C42.8074 -0.0626224 42.4633 0.00578873 42.2345 0.234515L39.0345 3.43452C38.8845 3.58451 38.8002 3.78796 38.8001 4.00011V7.85931L37.6977 9.02251C32.0884 4.25006 23.7829 4.47646 18.4419 9.54739C13.1009 14.6183 12.4443 22.901 16.9195 28.7501C21.3948 34.5993 29.5609 36.1315 35.8521 32.3025C35.4076 34.0681 35.2889 35.8999 35.5017 37.7081C35.686 39.4056 36.0228 41.0831 36.5081 42.7201C36.7713 43.5803 37.1033 44.418 37.5009 45.2249C37.6833 45.5855 37.8905 45.933 38.1209 46.2649L38.1745 46.3449L20.0289 46.4001C19.4975 44.5025 18.5337 42.7538 17.2129 41.2913L17.9329 41.0385C18.4681 40.8521 18.8713 40.7113 19.0777 40.6449C22.5057 39.5609 24.2193 38.0001 24.1729 36.0049C24.1711 35.7928 24.0838 35.5904 23.9309 35.4434C23.7779 35.2965 23.5721 35.2174 23.3601 35.2241C22.9186 35.2346 22.5691 35.6009 22.5793 36.0425C22.5985 36.8657 21.9241 38.0665 18.5977 39.1185C18.3809 39.1881 17.9641 39.3337 17.4113 39.5265C16.8161 39.7345 16.0601 39.9993 15.2249 40.2825H15.2201C12.9687 41.1076 10.6716 41.802 8.34014 42.3625C7.59437 42.505 6.86867 42.0349 6.69374 41.2961C6.52337 40.8406 6.45907 40.3522 6.50574 39.8681C6.52734 39.7009 6.56494 39.5337 6.60174 39.3665C6.76445 38.8136 6.78808 38.2291 6.67054 37.6649C6.43839 36.9304 5.89817 36.3333 5.19054 36.0289C5.13454 35.9977 5.07934 35.9657 5.02414 35.9337C5.11081 35.7593 5.21423 35.5937 5.33294 35.4393C5.46706 35.2692 5.52643 35.0519 5.49748 34.8372C5.46853 34.6225 5.35373 34.4287 5.17934 34.3001C4.98734 34.1593 4.53454 33.8201 4.20254 33.5529C4.24094 33.4833 4.28254 33.4065 4.32334 33.3377C4.44894 33.1169 4.59294 32.8577 4.73214 32.5649C4.9857 32.0043 5.06028 31.3791 4.94574 30.7745C4.75374 29.7985 3.81854 29.3201 3.13614 28.9713C2.90623 28.8619 2.68575 28.7338 2.47694 28.5881C2.3055 28.4733 2.14484 28.3432 1.99694 28.1993C1.99694 28.0785 2.12654 27.7849 2.73614 27.0425C4.16903 25.1982 5.39755 23.2039 6.40014 21.0945C6.58833 20.764 6.69424 20.393 6.70894 20.0129C6.62722 19.2085 6.20088 18.479 5.54014 18.0129C5.22014 17.7161 4.91134 17.4361 4.87614 17.1769C4.88246 16.9878 4.92454 16.8016 5.00014 16.6281C5.13054 16.2857 5.28174 15.9497 5.43214 15.6137C5.76059 14.9368 6.02287 14.2298 6.21534 13.5025L6.29534 13.1617C6.46525 12.3619 6.68406 11.5732 6.95054 10.8001C7.58171 9.05978 8.55805 7.46493 9.82094 6.11131C11.3513 4.49212 13.7601 3.34651 16.9921 2.70411C19.4641 2.16146 21.9724 1.79997 24.4969 1.62251C27.2753 1.45996 30.05 1.9986 32.5657 3.18891C32.9645 3.36771 33.433 3.19338 33.6179 2.79737C33.8028 2.40136 33.6357 1.93026 33.2425 1.73931C30.4897 0.437308 27.4538 -0.152204 24.4137 0.0249151C21.8109 0.205579 19.2248 0.576706 16.6761 1.13531C13.0689 1.85531 10.4465 3.12011 8.65854 5.01131C7.24654 6.52175 6.15477 8.30228 5.44894 10.2457C5.16046 11.0818 4.92375 11.9349 4.74014 12.8001L4.66014 13.1377C4.48965 13.7661 4.25981 14.3768 3.97374 14.9617C3.81374 15.3257 3.64894 15.6897 3.50414 16.0689C3.32193 16.4892 3.2498 16.949 3.29454 17.4049C3.45544 18.1221 3.86957 18.7572 4.46094 19.1937C4.85134 19.5521 5.10814 19.8049 5.11134 20.0249C5.08244 20.1464 5.03666 20.2633 4.97534 20.3721C4.01709 22.3905 2.84276 24.299 1.47294 26.0641C0.893735 26.7689 0.287335 27.5913 0.414535 28.4145C0.585273 29.0497 1.00413 29.5896 1.57694 29.9129ZM44.8689 5.60011L43.2689 7.20011H41.6281L43.1481 5.60011H44.8689ZM40.4001 4.33132L42.0001 2.73131V4.48011L40.4001 6.17052V4.33132ZM15.6001 20.0001C15.596 15.0304 18.4711 10.5083 22.9731 8.40355C27.475 6.29878 32.7886 6.9925 36.5993 10.1825L35.4985 11.3441C30.7707 7.39161 23.7617 7.8942 19.6462 12.4808C15.5307 17.0675 15.7877 24.0898 20.2276 28.3633C24.6674 32.6367 31.6944 32.6255 36.1206 28.3379C40.5468 24.0503 40.7815 17.0272 36.6513 12.4537L37.7529 11.2905C41.6614 15.4869 42.2995 21.7716 39.3143 26.6679C36.3291 31.5643 30.4501 33.8756 24.9296 32.3234C19.4091 30.7712 15.5962 25.7347 15.6001 20.0001ZM31.6001 20.0001C31.6001 21.7674 30.1674 23.2001 28.4001 23.2001C26.6328 23.2001 25.2001 21.7674 25.2001 20.0001C25.2001 18.2328 26.6328 16.8001 28.4001 16.8001C28.94 16.8037 29.4699 16.9455 29.9393 17.2121L27.8193 19.4521C27.5154 19.7729 27.529 20.2793 27.8497 20.5833C28.1705 20.8873 28.677 20.8737 28.9809 20.5529L31.1049 18.3129C31.4257 18.8174 31.5973 19.4023 31.6001 20.0001ZM31.0729 16.0153C28.984 14.597 26.1565 15.0172 24.5703 16.9817C22.9841 18.9462 23.169 21.7987 24.9956 23.542C26.8221 25.2852 29.6802 25.3369 31.5686 23.6607C33.4569 21.9846 33.7447 19.1406 32.2305 17.1201L33.3457 15.9433C35.531 18.5782 35.2899 22.4584 32.7952 24.8024C30.3005 27.1465 26.4129 27.1458 23.919 24.8009C21.4251 22.4559 21.1854 18.5757 23.3716 15.9415C25.5579 13.3074 29.4159 12.8282 32.1801 14.8473L31.0729 16.0153ZM33.2857 13.6793C29.9063 11.0684 25.0732 11.5659 22.2966 14.8106C19.52 18.0552 19.7754 22.9072 22.8772 25.8425C25.979 28.7778 30.8376 28.7653 33.9243 25.8141C37.011 22.8628 37.2414 18.0097 34.4481 14.7793L35.5497 13.6161C38.9461 17.4476 38.7177 23.2757 35.0319 26.8296C31.346 30.3836 25.5135 30.3996 21.8083 26.8658C18.103 23.3321 17.8426 17.5055 21.218 13.6554C24.5934 9.80529 30.404 9.30104 34.3921 12.5121L33.2857 13.6793Z" fill="#CDD8D1"/>
<path d="M9.33403 14.2359L9.41403 13.8895C9.55424 13.2209 9.73294 12.5608 9.94923 11.9127C10.4315 10.5774 11.1781 9.35296 12.1444 8.31274C13.1814 7.33496 14.4508 6.63803 15.8324 6.28794C16.1058 6.20448 16.3139 5.98151 16.3783 5.70303C16.4427 5.42455 16.3537 5.13286 16.1447 4.93783C15.9358 4.74281 15.6386 4.67408 15.3652 4.75753C13.7171 5.1863 12.2073 6.03242 10.9812 7.21434C9.86679 8.41198 9.00559 9.82229 8.44923 11.3607C8.20943 12.0706 8.01175 12.794 7.85723 13.5271L7.77723 13.8735C7.70329 14.1551 7.78813 14.4546 7.99874 14.6555C8.20936 14.8565 8.51251 14.9272 8.79028 14.8401C9.06806 14.753 9.27661 14.522 9.33483 14.2367L9.33403 14.2359Z" fill="#CDD8D1"/>
<path d="M7.5998 17.6C8.04163 17.6 8.3998 17.2418 8.3998 16.8C8.3998 16.3582 8.04163 16 7.5998 16C7.15798 16 6.7998 16.3582 6.7998 16.8C6.7998 17.2418 7.15798 17.6 7.5998 17.6Z" fill="#CDD8D1"/>
</g>
<defs>
<clipPath id="clip0">
<rect width="48" height="48" fill="white"/>
</clipPath>
</defs>
</svg>
