<svg width="41" height="41" viewBox="0 0 41 41" fill="none" xmlns="http://www.w3.org/2000/svg">
<g clip-path="url(#clip0)">
<path d="M34.2221 7.38672H6.78906V26.8013H34.2221V7.38672ZM25.7269 17.6311L16.502 23.0326C15.6993 23.5024 14.6868 22.9212 14.6868 21.9913V11.1892C14.6868 10.2608 15.6978 9.67739 16.502 10.1482L25.7269 15.5497C26.5211 16.0139 26.5236 17.165 25.7269 17.6311Z" fill="#005264"/>
<path d="M2.40234 30.4188V39.7942C2.40234 40.4601 2.94225 41 3.60821 41H37.4034C38.0693 41 38.6092 40.4601 38.6092 39.7942V30.4188C38.6092 29.7528 38.0693 29.2129 37.4034 29.2129H3.60821C2.94225 29.2129 2.40234 29.7528 2.40234 30.4188H2.40234ZM15.208 38.6333C15.208 39.2996 14.6677 39.8392 14.0021 39.8392C13.3364 39.8392 12.7962 39.2996 12.7962 38.6333V34.7245L11.891 35.7311C11.4146 36.2629 10.5788 36.2663 10.0974 35.7311L9.19241 34.7245V38.6333C9.19241 39.2996 8.65282 39.8392 7.98623 39.8392C7.32058 39.8392 6.78036 39.2996 6.78036 38.6333V31.5789C6.78036 30.4769 8.14732 29.952 8.88367 30.7735L10.9948 33.1217L13.105 30.7735C13.8441 29.9508 15.208 30.4788 15.208 31.5789V38.6333ZM21.0099 37.1475H19.4946V38.6333C19.4946 39.2996 18.9551 39.8392 18.2888 39.8392C17.6231 39.8392 17.0826 39.2996 17.0826 38.6333V31.5789C17.0826 30.9133 17.6231 30.3731 18.2888 30.3731H21.0099C22.8773 30.3731 24.3976 31.8924 24.3976 33.7608C24.3976 35.6282 22.8773 37.1475 21.0099 37.1475ZM33.0253 37.1475H32.625V38.5899C32.625 39.2555 32.0847 39.7957 31.4191 39.7957C30.7534 39.7957 30.2132 39.2555 30.2132 38.5899V37.1475H26.9019C26.1217 37.1475 25.5415 36.4124 25.7323 35.6498L26.7974 31.3747C26.9582 30.7284 27.6126 30.3352 28.2588 30.496C28.9051 30.6568 29.2983 31.3112 29.1375 31.9574C28.9514 32.7044 29.0893 32.1508 28.4453 34.7358H30.2132C30.2132 33.5759 30.2132 32.7126 30.2132 31.6221C30.2132 30.9568 30.7534 30.4163 31.4191 30.4163C32.0847 30.4163 32.625 30.9568 32.625 31.6221V34.7358H33.0253C33.691 34.7358 34.2312 35.2754 34.2312 35.9416C34.2312 36.6073 33.691 37.1475 33.0253 37.1475Z" fill="#005264"/>
<path d="M17.0986 19.8881L22.7316 16.5905L17.0986 13.292V19.8881Z" fill="#005264"/>
<path d="M9.72818 0H7.99493C7.32896 0 6.78906 0.539902 6.78906 1.20586V4.97454H11.5618L9.72818 0Z" fill="#005264"/>
<path d="M23.267 4.97454L21.4324 0H17.7441L19.5784 4.97454H23.267Z" fill="#005264"/>
<path d="M34.2223 4.97454V1.20586C34.2223 0.539902 33.6824 0 33.0164 0H29.4492L31.2832 4.97454H34.2223Z" fill="#005264"/>
<path d="M28.7132 4.97454L26.8795 0H24.0029L25.8375 4.97454H28.7132Z" fill="#005264"/>
<path d="M17.009 4.97454L15.1744 0H12.2988L14.1325 4.97454H17.009Z" fill="#005264"/>
<path d="M21.0103 32.7852H19.4951V34.7361H21.0103C21.5481 34.7361 21.9863 34.2988 21.9863 33.7611C21.9863 33.2231 21.5481 32.7852 21.0103 32.7852Z" fill="#005264"/>
</g>
<defs>
<clipPath id="clip0">
<rect width="41" height="41" fill="white"/>
</clipPath>
</defs>
</svg>
