<svg width="189" height="74" viewBox="0 0 189 74" fill="none" xmlns="http://www.w3.org/2000/svg">
<path d="M51.7328 30.0141C52.2105 30.8552 52.3182 34.3844 51.9582 37.7656C51.4822 40.251 50.2766 42.5367 48.4964 44.3288V44.3146C48.5246 42.4285 48.7364 40.5496 49.1286 38.7048C49.6033 36.2526 49.9346 33.7746 50.121 31.2835C50.5477 30.6844 51.2834 29.9899 51.7328 30.0141Z" fill="white"/>
<path d="M25.2554 74C22.0077 74 20.841 72.4118 18.5119 68.8186C16.9093 66.1796 14.9886 63.7492 12.7934 61.5822C7.67759 56.7085 7.8601 52.6686 8.09115 47.5545L8.09119 47.5535C8.13939 46.4948 8.18759 45.4189 8.18759 44.3146C8.15873 42.2574 7.92988 40.208 7.50431 38.1954L7.50328 38.1897C6.81734 34.3925 5.96366 29.6667 6.512 17.8454C7.27767 1.1159 26.1239 0.0376241 26.9244 0.000174627C27.7249 0.0376241 46.5711 1.1159 47.3368 17.8454C47.8851 29.6667 47.0315 34.3925 46.3455 38.1897L46.3445 38.1954C45.9189 40.208 45.6901 42.2574 45.6612 44.3146C45.6612 45.4189 45.7094 46.4948 45.7576 47.5535L45.7577 47.5545C45.9887 52.6686 46.1712 56.7085 41.0555 61.5822C38.8602 63.7492 36.9395 66.1796 35.3369 68.8186C33.0078 72.4118 31.8411 74 28.5934 74H25.2554Z" fill="white"/>
<path d="M1.41525 27.771C0.597313 28.8382 0.249346 33.433 0.669247 37.8637C1.32143 41.1335 3.16972 44.1878 5.9765 46.6339L5.9772 46.6154C6.02363 44.1545 5.77132 41.6918 5.22387 39.2624C4.5722 36.0359 4.15479 32.7846 3.97378 29.5252C3.30934 28.7178 2.14709 27.7671 1.41525 27.771Z" fill="white"/>
<path d="M61.4912 31.8333V32.8333H62.4912H65.6298C68.0032 32.8333 69.8607 34.6925 69.8607 37.0845C69.8607 39.4765 68.0032 41.3356 65.6298 41.3356H62.4912H61.4912V42.3356V50.7375C61.4912 52.4994 60.0522 53.9384 58.3065 53.9384H51.3555V51.7877C51.3555 48.0884 48.4005 45.1165 44.7061 45.1165C41.0116 45.1165 38.0567 48.0884 38.0567 51.7877V53.9384H31.1056C29.36 53.9384 27.9209 52.4994 27.9209 50.7375V43.7557H30.0595C33.7539 43.7557 36.7089 40.7838 36.7089 37.0845C36.7089 33.3851 33.7539 30.4132 30.0595 30.4132H27.9209V23.4314C27.9209 21.6695 29.36 20.2305 31.1056 20.2305H39.4751H40.4751V19.2305V16.0798C40.4751 13.6878 42.3327 11.8286 44.7061 11.8286C47.0795 11.8286 48.937 13.6878 48.937 16.0798V19.2305V20.2305H49.937H58.3065C60.0522 20.2305 61.4912 21.6695 61.4912 23.4314V31.8333Z" fill="white" stroke="#254951" stroke-width="2"/>
<path d="M93.9603 30.3512C93.644 29.8371 93.2675 29.2853 92.8307 28.6956C92.4089 28.0908 91.942 27.4935 91.4299 26.9038C90.9329 26.299 90.4132 25.7244 89.871 25.1801C89.3288 24.6207 88.7865 24.1293 88.2443 23.7059V30.3512H84.7198V14.6338H88.2443V20.576C89.1631 19.6083 90.0819 18.6028 91.0006 17.5595C91.9345 16.5011 92.8005 15.5259 93.5988 14.6338H97.7785C96.7091 15.9039 95.6322 17.1286 94.5477 18.308C93.4783 19.4874 92.3487 20.6743 91.1588 21.8688C92.4089 22.9121 93.6139 24.1519 94.7737 25.5884C95.9485 27.0248 97.0706 28.6124 98.14 30.3512H93.9603Z" fill="white"/>
<path d="M110.149 24.3636C110.149 25.3011 110.014 26.1629 109.743 26.9492C109.472 27.7203 109.08 28.3856 108.568 28.945C108.056 29.4894 107.438 29.9127 106.715 30.2151C106.007 30.5175 105.209 30.6688 104.32 30.6688C103.447 30.6688 102.649 30.5175 101.926 30.2151C101.218 29.9127 100.608 29.4894 100.096 28.945C99.5834 28.3856 99.1843 27.7203 98.8981 26.9492C98.6119 26.1629 98.4688 25.3011 98.4688 24.3636C98.4688 23.4262 98.6119 22.5719 98.8981 21.8008C99.1993 21.0296 99.606 20.3719 100.118 19.8276C100.645 19.2832 101.263 18.8599 101.971 18.5575C102.694 18.2551 103.477 18.1039 104.32 18.1039C105.179 18.1039 105.962 18.2551 106.67 18.5575C107.393 18.8599 108.011 19.2832 108.523 19.8276C109.035 20.3719 109.434 21.0296 109.72 21.8008C110.006 22.5719 110.149 23.4262 110.149 24.3636ZM106.715 24.3636C106.715 23.3203 106.504 22.5038 106.083 21.9142C105.676 21.3094 105.089 21.0069 104.32 21.0069C103.552 21.0069 102.957 21.3094 102.536 21.9142C102.114 22.5038 101.903 23.3203 101.903 24.3636C101.903 25.4069 102.114 26.2385 102.536 26.8585C102.957 27.4633 103.552 27.7657 104.32 27.7657C105.089 27.7657 105.676 27.4633 106.083 26.8585C106.504 26.2385 106.715 25.4069 106.715 24.3636Z" fill="white"/>
<path d="M120.371 24.477C120.371 23.4337 120.137 22.6021 119.67 21.9822C119.204 21.3472 118.511 21.0296 117.592 21.0296C117.291 21.0296 117.012 21.0447 116.756 21.075C116.5 21.0901 116.289 21.1128 116.123 21.143V27.244C116.334 27.3801 116.605 27.4935 116.937 27.5842C117.283 27.675 117.63 27.7203 117.976 27.7203C119.573 27.7203 120.371 26.6392 120.371 24.477ZM123.805 24.3863C123.805 25.3086 123.692 26.1478 123.466 26.9038C123.24 27.6598 122.909 28.31 122.472 28.8543C122.035 29.3987 121.493 29.822 120.845 30.1244C120.198 30.4268 119.452 30.578 118.609 30.578C118.142 30.578 117.705 30.5327 117.298 30.4419C116.892 30.3512 116.5 30.2227 116.123 30.0564V34.5471H112.757V18.8296C113.058 18.7389 113.405 18.6558 113.796 18.5802C114.188 18.4894 114.595 18.4138 115.016 18.3534C115.453 18.2929 115.89 18.2475 116.327 18.2173C116.779 18.1719 117.208 18.1492 117.615 18.1492C118.594 18.1492 119.467 18.3004 120.235 18.6028C121.003 18.8901 121.651 19.3059 122.178 19.8503C122.705 20.3795 123.105 21.0296 123.376 21.8008C123.662 22.5719 123.805 23.4337 123.805 24.3863Z" fill="white"/>
<path d="M136.627 30.3512H133.26V25.6337H129.759V30.3512H126.392V18.4214H129.759V22.8667H133.26V18.4214H136.627V30.3512Z" fill="white"/>
<path d="M139.22 24.477C139.22 23.4186 139.378 22.4963 139.694 21.71C140.026 20.9087 140.455 20.2434 140.982 19.7142C141.509 19.185 142.112 18.7843 142.79 18.5121C143.482 18.24 144.19 18.1039 144.913 18.1039C146.6 18.1039 147.933 18.6255 148.912 19.6688C149.891 20.697 150.381 22.2166 150.381 24.2275C150.381 24.4241 150.373 24.6434 150.358 24.8853C150.343 25.1121 150.328 25.3162 150.313 25.4976H142.677C142.752 26.1932 143.076 26.7451 143.648 27.1533C144.22 27.5616 144.989 27.7657 145.953 27.7657C146.57 27.7657 147.173 27.7128 147.76 27.6069C148.362 27.486 148.852 27.3423 149.228 27.176L149.68 29.9203C149.5 30.011 149.259 30.1017 148.957 30.1925C148.656 30.2832 148.317 30.3588 147.941 30.4193C147.579 30.4949 147.188 30.5553 146.766 30.6007C146.344 30.6461 145.922 30.6688 145.501 30.6688C144.431 30.6688 143.497 30.51 142.699 30.1925C141.916 29.8749 141.261 29.444 140.734 28.8997C140.221 28.3402 139.837 27.6825 139.581 26.9265C139.34 26.1705 139.22 25.354 139.22 24.477ZM147.127 23.1843C147.112 22.897 147.06 22.6172 146.969 22.3451C146.894 22.0729 146.766 21.831 146.585 21.6193C146.419 21.4076 146.201 21.2338 145.93 21.0977C145.674 20.9616 145.35 20.8935 144.958 20.8935C144.582 20.8935 144.258 20.9616 143.987 21.0977C143.716 21.2186 143.49 21.385 143.309 21.5966C143.128 21.8083 142.985 22.0578 142.88 22.3451C142.79 22.6172 142.722 22.897 142.677 23.1843H147.127Z" fill="white"/>
<path d="M156.345 27.8564C156.556 27.8866 156.834 27.9169 157.181 27.9471C157.542 27.9622 157.874 27.9698 158.175 27.9698C158.928 27.9698 159.515 27.8791 159.937 27.6976C160.359 27.5011 160.57 27.1533 160.57 26.6543C160.57 26.1705 160.374 25.8378 159.982 25.6564C159.606 25.4598 159.049 25.3616 158.31 25.3616H156.345V27.8564ZM158.243 23.0935C158.8 23.0935 159.252 23.0255 159.598 22.8894C159.945 22.7382 160.118 22.4207 160.118 21.9368C160.118 21.4832 159.922 21.1733 159.53 21.0069C159.139 20.8406 158.627 20.7575 157.994 20.7575C157.783 20.7575 157.505 20.7726 157.158 20.8028C156.827 20.8179 156.556 20.8406 156.345 20.8709V23.0935H158.243ZM158.13 30.578C157.708 30.578 157.256 30.5629 156.774 30.5327C156.292 30.5024 155.818 30.4571 155.351 30.3966C154.884 30.3512 154.44 30.2983 154.018 30.2378C153.611 30.1622 153.265 30.0942 152.979 30.0337V18.6028C153.265 18.5424 153.611 18.4894 154.018 18.4441C154.44 18.3836 154.884 18.3307 155.351 18.2853C155.818 18.24 156.292 18.2097 156.774 18.1946C157.256 18.1644 157.708 18.1492 158.13 18.1492C159.109 18.1492 159.93 18.2475 160.592 18.4441C161.27 18.6406 161.812 18.8977 162.219 19.2152C162.641 19.5327 162.942 19.8881 163.123 20.2812C163.303 20.6743 163.394 21.0674 163.394 21.4606C163.394 21.9898 163.266 22.4736 163.01 22.9121C162.754 23.3506 162.43 23.6681 162.038 23.8647C162.249 23.9554 162.46 24.0839 162.671 24.2502C162.897 24.4166 163.1 24.6207 163.281 24.8626C163.462 25.0894 163.605 25.3691 163.71 25.7018C163.831 26.0193 163.891 26.3897 163.891 26.8131C163.891 27.2969 163.793 27.7657 163.597 28.2193C163.416 28.6729 163.1 29.0736 162.648 29.4213C162.196 29.7691 161.602 30.0488 160.863 30.2605C160.125 30.4722 159.214 30.578 158.13 30.578Z" fill="white"/>
<path d="M171.022 27.9925C171.354 27.9925 171.67 27.9849 171.971 27.9698C172.273 27.9547 172.514 27.932 172.694 27.9018V25.3389C172.559 25.3086 172.355 25.2784 172.084 25.2482C171.813 25.2179 171.565 25.2028 171.339 25.2028C171.022 25.2028 170.721 25.2255 170.435 25.2708C170.164 25.3011 169.923 25.3691 169.712 25.475C169.501 25.5808 169.336 25.7244 169.215 25.9059C169.095 26.0873 169.034 26.3141 169.034 26.5863C169.034 27.1155 169.208 27.4859 169.554 27.6976C169.915 27.8942 170.405 27.9925 171.022 27.9925ZM170.751 18.1039C171.745 18.1039 172.574 18.2173 173.237 18.4441C173.899 18.6709 174.426 18.996 174.818 19.4193C175.225 19.8427 175.511 20.3568 175.677 20.9616C175.842 21.5664 175.925 22.2392 175.925 22.9801V30.011C175.443 30.1169 174.773 30.2378 173.914 30.3739C173.056 30.5251 172.017 30.6007 170.797 30.6007C170.028 30.6007 169.328 30.5327 168.695 30.3966C168.078 30.2605 167.543 30.0413 167.091 29.7389C166.639 29.4213 166.293 29.0131 166.052 28.5141C165.811 28.0152 165.691 27.4028 165.691 26.677C165.691 25.9815 165.826 25.3918 166.097 24.908C166.383 24.4241 166.76 24.0385 167.227 23.7513C167.694 23.464 168.229 23.2599 168.831 23.1389C169.433 23.0028 170.059 22.9348 170.706 22.9348C171.143 22.9348 171.527 22.9575 171.858 23.0028C172.205 23.0331 172.483 23.0784 172.694 23.1389V22.8214C172.694 22.2468 172.521 21.7856 172.175 21.4379C171.828 21.0901 171.226 20.9162 170.367 20.9162C169.795 20.9162 169.23 20.9616 168.673 21.0523C168.116 21.1279 167.634 21.2413 167.227 21.3925L166.798 18.6709C166.993 18.6104 167.234 18.5499 167.521 18.4894C167.822 18.4138 168.146 18.3534 168.492 18.308C168.839 18.2475 169.2 18.2022 169.577 18.1719C169.968 18.1266 170.36 18.1039 170.751 18.1039Z" fill="white"/>
<path d="M183.894 26.11C183.412 26.8207 182.983 27.5389 182.607 28.2646C182.23 28.9753 181.869 29.6708 181.522 30.3512H178.065C178.502 29.3684 178.947 28.4688 179.398 27.6523C179.85 26.8358 180.287 26.1327 180.709 25.543C180.076 25.2104 179.572 24.787 179.195 24.2729C178.819 23.7437 178.63 23.086 178.63 22.2997C178.63 20.9691 179.105 19.9485 180.054 19.2379C181.018 18.5272 182.343 18.1719 184.03 18.1719C184.407 18.1719 184.821 18.187 185.273 18.2173C185.74 18.2475 186.199 18.2929 186.651 18.3534C187.103 18.4138 187.532 18.4819 187.939 18.5575C188.36 18.618 188.714 18.686 189 18.7616V30.3512H185.634V26.11H183.894ZM185.634 20.8482C185.483 20.8331 185.25 20.8179 184.934 20.8028C184.617 20.7726 184.346 20.7575 184.12 20.7575C183.292 20.7575 182.727 20.9011 182.426 21.1884C182.125 21.4606 181.974 21.8159 181.974 22.2544C181.974 22.5265 182.034 22.7609 182.155 22.9575C182.275 23.1389 182.433 23.2901 182.629 23.4111C182.825 23.5169 183.043 23.5925 183.284 23.6379C183.525 23.6832 183.766 23.7059 184.007 23.7059H185.634V20.8482Z" fill="white"/>
<path d="M96.3326 39.8156V42.8321H91.6107V55.533H88.0862V42.8321H83.3643V39.8156H96.3326Z" fill="white"/>
<path d="M96.7479 49.6588C96.7479 48.6004 96.906 47.6781 97.2223 46.8918C97.5537 46.0905 97.983 45.4252 98.5101 44.896C99.0373 44.3668 99.6398 43.9661 100.318 43.6939C101.01 43.4217 101.718 43.2857 102.441 43.2857C104.128 43.2857 105.461 43.8073 106.44 44.8506C107.419 45.8788 107.909 47.3983 107.909 49.4093C107.909 49.6059 107.901 49.8251 107.886 50.0671C107.871 50.2939 107.856 50.498 107.841 50.6794H100.205C100.28 51.375 100.604 51.9268 101.176 52.3351C101.748 52.7433 102.517 52.9475 103.481 52.9475C104.098 52.9475 104.701 52.8945 105.288 52.7887C105.89 52.6677 106.38 52.5241 106.757 52.3578L107.208 55.1021C107.028 55.1928 106.787 55.2835 106.485 55.3743C106.184 55.465 105.845 55.5406 105.469 55.6011C105.107 55.6767 104.716 55.7371 104.294 55.7825C103.872 55.8279 103.45 55.8505 103.029 55.8505C101.959 55.8505 101.025 55.6918 100.227 55.3743C99.444 55.0567 98.7888 54.6258 98.2616 54.0815C97.7495 53.522 97.3654 52.8643 97.1094 52.1083C96.8684 51.3523 96.7479 50.5358 96.7479 49.6588ZM104.655 48.366C104.64 48.0788 104.588 47.799 104.497 47.5269C104.422 47.2547 104.294 47.0128 104.113 46.8011C103.947 46.5894 103.729 46.4155 103.458 46.2795C103.202 46.1434 102.878 46.0753 102.486 46.0753C102.11 46.0753 101.786 46.1434 101.515 46.2795C101.244 46.4004 101.018 46.5667 100.837 46.7784C100.656 46.9901 100.513 47.2396 100.408 47.5269C100.318 47.799 100.25 48.0788 100.205 48.366H104.655Z" fill="white"/>
<path d="M118.12 49.6588C118.12 48.6155 117.887 47.7839 117.42 47.164C116.953 46.5289 116.26 46.2114 115.341 46.2114C115.04 46.2114 114.762 46.2265 114.506 46.2568C114.249 46.2719 114.039 46.2946 113.873 46.3248V52.4258C114.084 52.5619 114.355 52.6753 114.686 52.766C115.033 52.8567 115.379 52.9021 115.726 52.9021C117.322 52.9021 118.12 51.821 118.12 49.6588ZM121.555 49.5681C121.555 50.4904 121.442 51.3296 121.216 52.0856C120.99 52.8416 120.658 53.4918 120.222 54.0361C119.785 54.5804 119.243 55.0038 118.595 55.3062C117.947 55.6086 117.202 55.7598 116.358 55.7598C115.891 55.7598 115.454 55.7145 115.048 55.6237C114.641 55.533 114.249 55.4045 113.873 55.2382V59.7289H110.507V44.0114C110.808 43.9207 111.154 43.8375 111.546 43.7619C111.937 43.6712 112.344 43.5956 112.766 43.5351C113.203 43.4747 113.639 43.4293 114.076 43.3991C114.528 43.3537 114.957 43.331 115.364 43.331C116.343 43.331 117.217 43.4822 117.985 43.7846C118.753 44.0719 119.401 44.4877 119.928 45.032C120.455 45.5612 120.854 46.2114 121.125 46.9825C121.411 47.7537 121.555 48.6155 121.555 49.5681Z" fill="white"/>
<path d="M128.683 53.1743C129.014 53.1743 129.331 53.1667 129.632 53.1516C129.933 53.1365 130.174 53.1138 130.355 53.0835V50.5207C130.219 50.4904 130.016 50.4602 129.745 50.43C129.474 50.3997 129.225 50.3846 128.999 50.3846C128.683 50.3846 128.382 50.4073 128.096 50.4526C127.824 50.4829 127.583 50.5509 127.373 50.6567C127.162 50.7626 126.996 50.9062 126.875 51.0877C126.755 51.2691 126.695 51.4959 126.695 51.7681C126.695 52.2973 126.868 52.6677 127.214 52.8794C127.576 53.076 128.065 53.1743 128.683 53.1743ZM128.412 43.2857C129.406 43.2857 130.234 43.3991 130.897 43.6259C131.56 43.8527 132.087 44.1777 132.479 44.6011C132.885 45.0245 133.171 45.5386 133.337 46.1434C133.503 46.7482 133.586 47.421 133.586 48.1619V55.1928C133.104 55.2986 132.433 55.4196 131.575 55.5557C130.716 55.7069 129.677 55.7825 128.457 55.7825C127.689 55.7825 126.988 55.7145 126.356 55.5784C125.738 55.4423 125.204 55.2231 124.752 54.9206C124.3 54.6031 123.953 54.1949 123.712 53.6959C123.471 53.1969 123.351 52.5846 123.351 51.8588C123.351 51.1633 123.487 50.5736 123.758 50.0897C124.044 49.6059 124.42 49.2203 124.887 48.9331C125.354 48.6458 125.889 48.4416 126.491 48.3207C127.094 48.1846 127.719 48.1166 128.367 48.1166C128.803 48.1166 129.187 48.1392 129.519 48.1846C129.865 48.2148 130.144 48.2602 130.355 48.3207V48.0032C130.355 47.4286 130.182 46.9674 129.835 46.6197C129.489 46.2719 128.886 46.098 128.028 46.098C127.455 46.098 126.891 46.1434 126.333 46.2341C125.776 46.3097 125.294 46.4231 124.887 46.5743L124.458 43.8527C124.654 43.7922 124.895 43.7317 125.181 43.6712C125.482 43.5956 125.806 43.5351 126.153 43.4898C126.499 43.4293 126.86 43.3839 127.237 43.3537C127.629 43.3083 128.02 43.2857 128.412 43.2857Z" fill="white"/>
<path d="M146.864 43.6032V55.533H143.498V46.4155H139.996V55.533H136.63V43.6032H146.864Z" fill="white"/>
<path d="M160.844 43.6032V55.533H157.455C157.455 54.777 157.463 54.0286 157.478 53.2877C157.493 52.5317 157.508 51.8361 157.523 51.2011C157.538 50.566 157.553 50.0141 157.568 49.5454C157.598 49.0616 157.613 48.7062 157.613 48.4794C157.176 49.0994 156.74 49.7269 156.303 50.3619C155.866 50.997 155.444 51.6244 155.038 52.2444C154.646 52.8492 154.27 53.4313 153.908 53.9908C153.562 54.5502 153.253 55.0643 152.982 55.533H150.022V43.6032H153.388C153.388 44.3592 153.381 45.085 153.366 45.7805C153.366 46.4609 153.358 47.0808 153.343 47.6403C153.328 48.1997 153.313 48.6911 153.298 49.1145C153.283 49.5227 153.275 49.8403 153.275 50.0671C154.179 48.7365 155.008 47.542 155.761 46.4836C156.529 45.4252 157.274 44.465 157.997 43.6032H160.844Z" fill="white"/>
<path d="M168.935 51.2918C168.453 52.0024 168.024 52.7207 167.648 53.4464C167.271 54.1571 166.91 54.8526 166.563 55.533H163.107C163.543 54.5502 163.988 53.6505 164.439 52.8341C164.891 52.0176 165.328 51.3145 165.75 50.7248C165.117 50.3922 164.613 49.9688 164.236 49.4547C163.86 48.9255 163.671 48.2678 163.671 47.4815C163.671 46.1509 164.146 45.1303 165.095 44.4197C166.059 43.709 167.384 43.3537 169.071 43.3537C169.448 43.3537 169.862 43.3688 170.314 43.3991C170.781 43.4293 171.24 43.4747 171.692 43.5351C172.144 43.5956 172.573 43.6637 172.98 43.7393C173.401 43.7997 173.755 43.8678 174.041 43.9434V55.533H170.675V51.2918H168.935ZM170.675 46.03C170.525 46.0149 170.291 45.9997 169.975 45.9846C169.658 45.9544 169.387 45.9393 169.161 45.9393C168.333 45.9393 167.768 46.0829 167.467 46.3702C167.166 46.6423 167.015 46.9977 167.015 47.4362C167.015 47.7083 167.075 47.9427 167.196 48.1392C167.316 48.3207 167.474 48.4719 167.67 48.5928C167.866 48.6987 168.084 48.7743 168.325 48.8196C168.566 48.865 168.807 48.8877 169.048 48.8877H170.675V46.03Z" fill="white"/>
</svg>
