<svg width="159" height="62" viewBox="0 0 159 62" fill="none" xmlns="http://www.w3.org/2000/svg">
<path d="M43.5216 25.147C43.9235 25.8516 44.0141 28.8085 43.7112 31.6415C43.3108 33.7238 42.2966 35.6389 40.7989 37.1404V37.1285C40.8227 35.5482 41.0008 33.974 41.3308 32.4284C41.7301 30.3738 42.0089 28.2976 42.1656 26.2105C42.5246 25.7085 43.1435 25.1267 43.5216 25.147Z" fill="#C2D0C9"/>
<path d="M21.247 62C18.5148 62 17.5333 60.6694 15.5739 57.6588C14.2257 55.4478 12.6098 53.4115 10.763 51.5959C6.45929 47.5125 6.61283 44.1277 6.80721 39.843L6.80724 39.8422C6.84779 38.9551 6.88834 38.0537 6.88834 37.1285C6.86406 35.4049 6.67153 33.6877 6.31352 32.0015L6.31265 31.9968C5.73559 28.8153 5.01741 24.8559 5.47871 14.9515C6.12285 0.934942 21.9776 0.0315229 22.6511 0.000146309C23.3245 0.0315229 39.1793 0.934942 39.8234 14.9515C40.2847 24.8559 39.5665 28.8153 38.9895 31.9968L38.9886 32.0015C38.6306 33.6877 38.4381 35.4049 38.4138 37.1285C38.4138 38.0537 38.4543 38.9551 38.4949 39.8422L38.4949 39.843C38.6893 44.1277 38.8428 47.5125 34.5391 51.5959C32.6923 53.4115 31.0765 55.4478 29.7282 57.6588C27.7688 60.6694 26.7873 62 24.0551 62H21.247Z" fill="#C2D0C9"/>
<path d="M1.19033 23.2679C0.502227 24.1621 0.209493 28.0118 0.562742 31.724C1.1114 34.4635 2.66631 37.0226 5.02758 39.072L5.02816 39.0565C5.06723 36.9946 4.85497 34.9313 4.39441 32.8958C3.84618 30.1926 3.49503 27.4685 3.34275 24.7377C2.78377 24.0612 1.80601 23.2647 1.19033 23.2679Z" fill="#C2D0C9"/>
<path d="M51.5721 26.6712V27.6712H52.5721H55.2124C57.1247 27.6712 58.6131 29.1595 58.6131 31.0708C58.6131 32.9821 57.1247 34.4705 55.2124 34.4705H52.5721H51.5721V35.4705V42.5099C51.5721 43.8932 50.4358 45.0296 49.0516 45.0296H43.3626V43.3898C43.3626 40.1975 40.8024 37.6382 37.6099 37.6382C34.4175 37.6382 31.8573 40.1975 31.8573 43.3898V45.0296H26.1683C24.7841 45.0296 23.6478 43.8932 23.6478 42.5099V36.8224H25.2882C28.4806 36.8224 31.0409 34.2631 31.0409 31.0708C31.0409 27.8786 28.4806 25.3192 25.2882 25.3192H23.6478V19.6318C23.6478 18.2485 24.7841 17.1121 26.1683 17.1121H33.2093H34.2093V16.1121V13.4723C34.2093 11.561 35.6977 10.0727 37.6099 10.0727C39.5222 10.0727 41.0106 11.561 41.0106 13.4723V16.1121V17.1121H42.0106H49.0516C50.4358 17.1121 51.5721 18.2485 51.5721 19.6318V26.6712Z" fill="#C2D0C9" stroke="#F0F6F3" stroke-width="2"/>
<path d="M79.0456 25.4297C78.7795 24.999 78.4627 24.5366 78.0953 24.0425C77.7405 23.5358 77.3477 23.0354 76.9169 22.5413C76.4987 22.0346 76.0616 21.5532 75.6054 21.0972C75.1492 20.6284 74.6931 20.2167 74.2369 19.862V25.4297H71.2719V12.261H74.2369V17.2397C75.0099 16.4289 75.7828 15.5865 76.5557 14.7124C77.3413 13.8256 78.0699 13.0085 78.7415 12.261H82.2577C81.3581 13.3252 80.4521 14.3513 79.5398 15.3394C78.6401 16.3276 77.6898 17.322 76.6888 18.3228C77.7405 19.1969 78.7542 20.2357 79.7299 21.4392C80.7182 22.6427 81.6622 23.9729 82.5619 25.4297H79.0456Z" fill="#C2D0C9"/>
<path d="M92.665 20.4131C92.665 21.1985 92.5509 21.9206 92.3228 22.5794C92.0948 23.2254 91.7653 23.7828 91.3345 24.2516C90.9037 24.7076 90.3842 25.0623 89.7759 25.3157C89.1804 25.5691 88.5088 25.6957 87.7612 25.6957C87.0263 25.6957 86.3547 25.5691 85.7465 25.3157C85.151 25.0623 84.6378 24.7076 84.207 24.2516C83.7762 23.7828 83.4404 23.2254 83.1996 22.5794C82.9589 21.9206 82.8385 21.1985 82.8385 20.4131C82.8385 19.6276 82.9589 18.9119 83.1996 18.2658C83.453 17.6197 83.7952 17.0687 84.226 16.6126C84.6695 16.1565 85.189 15.8018 85.7845 15.5485C86.3927 15.2951 87.0516 15.1684 87.7612 15.1684C88.4835 15.1684 89.1424 15.2951 89.7379 15.5485C90.3461 15.8018 90.8657 16.1565 91.2965 16.6126C91.7273 17.0687 92.0631 17.6197 92.3038 18.2658C92.5446 18.9119 92.665 19.6276 92.665 20.4131ZM89.7759 20.4131C89.7759 19.539 89.5985 18.8549 89.2437 18.3608C88.9016 17.8541 88.4075 17.6007 87.7612 17.6007C87.115 17.6007 86.6145 17.8541 86.2597 18.3608C85.9049 18.8549 85.7275 19.539 85.7275 20.4131C85.7275 21.2872 85.9049 21.9839 86.2597 22.5033C86.6145 23.0101 87.115 23.2634 87.7612 23.2634C88.4075 23.2634 88.9016 23.0101 89.2437 22.5033C89.5985 21.9839 89.7759 21.2872 89.7759 20.4131Z" fill="#C2D0C9"/>
<path d="M101.264 20.5081C101.264 19.634 101.068 18.9372 100.675 18.4178C100.282 17.8858 99.6991 17.6197 98.9262 17.6197C98.6728 17.6197 98.4383 17.6324 98.2229 17.6577C98.0075 17.6704 97.8301 17.6894 97.6907 17.7147V22.8264C97.8681 22.9404 98.0962 23.0354 98.375 23.1114C98.6664 23.1874 98.9579 23.2254 99.2493 23.2254C100.592 23.2254 101.264 22.3197 101.264 20.5081ZM104.153 20.4321C104.153 21.2048 104.058 21.9079 103.868 22.5413C103.678 23.1748 103.399 23.7195 103.032 24.1756C102.664 24.6316 102.208 24.9863 101.663 25.2397C101.118 25.4931 100.491 25.6197 99.7815 25.6197C99.3887 25.6197 99.0212 25.5817 98.6791 25.5057C98.337 25.4297 98.0075 25.322 97.6907 25.1827V28.9452H94.8587V15.7765C95.1122 15.7005 95.4036 15.6308 95.7331 15.5675C96.0625 15.4915 96.4046 15.4281 96.7594 15.3774C97.1269 15.3268 97.4943 15.2888 97.8618 15.2634C98.2419 15.2254 98.6031 15.2064 98.9452 15.2064C99.7688 15.2064 100.504 15.3331 101.15 15.5865C101.796 15.8272 102.341 16.1755 102.785 16.6316C103.228 17.075 103.564 17.6197 103.792 18.2658C104.033 18.9119 104.153 19.634 104.153 20.4321Z" fill="#C2D0C9"/>
<path d="M114.94 25.4297H112.108V21.4772H109.162V25.4297H106.33V15.4344H109.162V19.1589H112.108V15.4344H114.94V25.4297Z" fill="#C2D0C9"/>
<path d="M117.121 20.5081C117.121 19.6213 117.254 18.8485 117.52 18.1898C117.799 17.5184 118.16 16.961 118.604 16.5176C119.047 16.0742 119.554 15.7385 120.124 15.5105C120.707 15.2824 121.303 15.1684 121.911 15.1684C123.33 15.1684 124.451 15.6055 125.275 16.4796C126.099 17.341 126.51 18.6142 126.51 20.2991C126.51 20.4638 126.504 20.6474 126.491 20.8501C126.479 21.0402 126.466 21.2112 126.453 21.3632H120.029C120.092 21.9459 120.365 22.4083 120.846 22.7504C121.328 23.0924 121.974 23.2634 122.785 23.2634C123.305 23.2634 123.811 23.2191 124.306 23.1304C124.812 23.0291 125.224 22.9087 125.541 22.7694L125.921 25.0687C125.769 25.1447 125.566 25.2207 125.313 25.2967C125.06 25.3727 124.774 25.436 124.458 25.4867C124.154 25.5501 123.824 25.6007 123.469 25.6387C123.115 25.6767 122.76 25.6957 122.405 25.6957C121.505 25.6957 120.72 25.5627 120.048 25.2967C119.389 25.0307 118.838 24.6696 118.395 24.2136C117.964 23.7448 117.641 23.1938 117.425 22.5603C117.222 21.9269 117.121 21.2428 117.121 20.5081ZM123.773 19.425C123.761 19.1843 123.716 18.9499 123.64 18.7219C123.577 18.4938 123.469 18.2911 123.317 18.1138C123.178 17.9364 122.994 17.7907 122.766 17.6767C122.551 17.5627 122.278 17.5057 121.949 17.5057C121.632 17.5057 121.36 17.5627 121.132 17.6767C120.903 17.7781 120.713 17.9174 120.561 18.0948C120.409 18.2721 120.289 18.4812 120.2 18.7219C120.124 18.9499 120.067 19.1843 120.029 19.425H123.773Z" fill="#C2D0C9"/>
<path d="M131.528 23.3394C131.705 23.3648 131.94 23.3901 132.231 23.4155C132.535 23.4281 132.814 23.4345 133.067 23.4345C133.701 23.4345 134.195 23.3584 134.55 23.2064C134.905 23.0417 135.082 22.7504 135.082 22.3323C135.082 21.9269 134.917 21.6482 134.588 21.4962C134.271 21.3315 133.802 21.2492 133.181 21.2492H131.528V23.3394ZM133.124 19.3489C133.593 19.3489 133.973 19.2919 134.265 19.1779C134.556 19.0512 134.702 18.7852 134.702 18.3798C134.702 17.9998 134.537 17.7401 134.208 17.6007C133.878 17.4614 133.448 17.3917 132.915 17.3917C132.738 17.3917 132.504 17.4044 132.212 17.4297C131.933 17.4424 131.705 17.4614 131.528 17.4867V19.3489H133.124ZM133.029 25.6197C132.675 25.6197 132.294 25.6071 131.889 25.5817C131.484 25.5564 131.084 25.5184 130.692 25.4677C130.299 25.4297 129.925 25.3854 129.57 25.3347C129.228 25.2714 128.937 25.2144 128.696 25.1637V15.5865C128.937 15.5358 129.228 15.4915 129.57 15.4535C129.925 15.4028 130.299 15.3584 130.692 15.3204C131.084 15.2824 131.484 15.2571 131.889 15.2444C132.294 15.2191 132.675 15.2064 133.029 15.2064C133.853 15.2064 134.544 15.2888 135.101 15.4535C135.671 15.6181 136.127 15.8335 136.47 16.0995C136.824 16.3656 137.078 16.6633 137.23 16.9926C137.382 17.322 137.458 17.6514 137.458 17.9808C137.458 18.4242 137.35 18.8295 137.135 19.1969C136.919 19.5643 136.647 19.8303 136.318 19.995C136.495 20.071 136.672 20.1787 136.85 20.3181C137.04 20.4574 137.211 20.6284 137.363 20.8311C137.515 21.0212 137.635 21.2555 137.724 21.5342C137.825 21.8003 137.876 22.1106 137.876 22.4653C137.876 22.8707 137.794 23.2634 137.629 23.6435C137.477 24.0235 137.211 24.3592 136.831 24.6506C136.451 24.942 135.95 25.1763 135.329 25.3537C134.708 25.5311 133.942 25.6197 133.029 25.6197Z" fill="#C2D0C9"/>
<path d="M143.876 23.4535C144.154 23.4535 144.421 23.4471 144.674 23.4345C144.927 23.4218 145.13 23.4028 145.282 23.3775V21.2302C145.168 21.2048 144.997 21.1795 144.769 21.1542C144.541 21.1288 144.332 21.1162 144.142 21.1162C143.876 21.1162 143.622 21.1352 143.382 21.1732C143.153 21.1985 142.951 21.2555 142.773 21.3442C142.596 21.4329 142.457 21.5532 142.355 21.7052C142.254 21.8573 142.203 22.0473 142.203 22.2753C142.203 22.7187 142.349 23.0291 142.64 23.2064C142.944 23.3711 143.356 23.4535 143.876 23.4535ZM143.648 15.1684C144.484 15.1684 145.181 15.2634 145.738 15.4535C146.296 15.6435 146.739 15.9158 147.069 16.2706C147.411 16.6253 147.652 17.056 147.791 17.5627C147.93 18.0694 148 18.6332 148 19.2539V25.1447C147.595 25.2334 147.031 25.3347 146.309 25.4487C145.586 25.5754 144.712 25.6387 143.686 25.6387C143.039 25.6387 142.45 25.5817 141.918 25.4677C141.398 25.3537 140.949 25.17 140.569 24.9166C140.188 24.6506 139.897 24.3086 139.694 23.8905C139.491 23.4725 139.39 22.9594 139.39 22.3513C139.39 21.7686 139.504 21.2745 139.732 20.8691C139.973 20.4638 140.29 20.1407 140.683 19.9C141.075 19.6593 141.525 19.4883 142.032 19.3869C142.539 19.2729 143.065 19.2159 143.61 19.2159C143.977 19.2159 144.3 19.2349 144.579 19.2729C144.87 19.2983 145.105 19.3363 145.282 19.3869V19.1209C145.282 18.6395 145.136 18.2531 144.845 17.9618C144.554 17.6704 144.047 17.5247 143.325 17.5247C142.843 17.5247 142.368 17.5627 141.899 17.6387C141.43 17.7021 141.025 17.7971 140.683 17.9238L140.321 15.6435C140.486 15.5928 140.689 15.5421 140.93 15.4915C141.183 15.4281 141.456 15.3774 141.747 15.3394C142.038 15.2888 142.342 15.2508 142.659 15.2254C142.989 15.1874 143.318 15.1684 143.648 15.1684Z" fill="#C2D0C9"/>
<path d="M154.704 21.8763C154.299 22.4717 153.938 23.0734 153.621 23.6815C153.304 24.2769 153 24.8596 152.709 25.4297H149.801C150.168 24.6063 150.542 23.8525 150.922 23.1684C151.302 22.4843 151.67 21.8953 152.025 21.4012C151.492 21.1225 151.068 20.7678 150.751 20.3371C150.434 19.8937 150.276 19.3426 150.276 18.6839C150.276 17.5691 150.675 16.7139 151.473 16.1185C152.284 15.5231 153.399 15.2254 154.818 15.2254C155.135 15.2254 155.484 15.2381 155.864 15.2634C156.257 15.2888 156.643 15.3268 157.023 15.3774C157.403 15.4281 157.765 15.4851 158.107 15.5485C158.461 15.5991 158.759 15.6561 159 15.7195V25.4297H156.168V21.8763H154.704ZM156.168 17.4677C156.041 17.455 155.845 17.4424 155.579 17.4297C155.313 17.4044 155.085 17.3917 154.895 17.3917C154.198 17.3917 153.722 17.512 153.469 17.7527C153.216 17.9808 153.089 18.2785 153.089 18.6459C153.089 18.8739 153.14 19.0702 153.241 19.2349C153.342 19.3869 153.475 19.5136 153.64 19.615C153.805 19.7037 153.989 19.767 154.191 19.805C154.394 19.843 154.597 19.862 154.799 19.862H156.168V17.4677Z" fill="#C2D0C9"/>
<path d="M81.0413 33.3593V35.8866H77.0689V46.528H74.1039V35.8866H70.1315V33.3593H81.0413Z" fill="#C2D0C9"/>
<path d="M81.3907 41.6063C81.3907 40.7196 81.5238 39.9468 81.7899 39.2881C82.0686 38.6166 82.4297 38.0592 82.8732 37.6158C83.3167 37.1725 83.8236 36.8367 84.3938 36.6087C84.9766 36.3807 85.5722 36.2667 86.1804 36.2667C87.5996 36.2667 88.721 36.7037 89.5446 37.5778C90.3682 38.4393 90.78 39.7124 90.78 41.3973C90.78 41.562 90.7737 41.7457 90.761 41.9484C90.7483 42.1384 90.7357 42.3094 90.723 42.4615H84.2987C84.3621 43.0442 84.6345 43.5066 85.116 43.8486C85.5975 44.1907 86.2438 44.3617 87.0547 44.3617C87.5742 44.3617 88.0811 44.3174 88.5752 44.2287C89.0821 44.1273 89.4939 44.007 89.8107 43.8676L90.1908 46.1669C90.0388 46.2429 89.836 46.3189 89.5826 46.395C89.3292 46.471 89.0441 46.5343 88.7273 46.585C88.4232 46.6483 88.0937 46.699 87.739 46.737C87.3842 46.775 87.0294 46.794 86.6746 46.794C85.7749 46.794 84.9893 46.661 84.3177 46.395C83.6588 46.1289 83.1077 45.7679 82.6642 45.3118C82.2333 44.8431 81.9102 44.292 81.6948 43.6586C81.4921 43.0252 81.3907 42.3411 81.3907 41.6063ZM88.0431 40.5232C88.0304 40.2825 87.986 40.0481 87.91 39.8201C87.8467 39.5921 87.739 39.3894 87.5869 39.212C87.4475 39.0347 87.2638 38.889 87.0357 38.775C86.8203 38.661 86.5479 38.604 86.2184 38.604C85.9016 38.604 85.6292 38.661 85.4011 38.775C85.173 38.8763 84.983 39.0157 84.8309 39.193C84.6789 39.3704 84.5585 39.5794 84.4698 39.8201C84.3938 40.0481 84.3368 40.2825 84.2987 40.5232H88.0431Z" fill="#C2D0C9"/>
<path d="M99.3708 41.6063C99.3708 40.7322 99.1744 40.0355 98.7815 39.5161C98.3887 38.984 97.8059 38.718 97.0329 38.718C96.7795 38.718 96.5451 38.7306 96.3297 38.756C96.1143 38.7687 95.9369 38.7877 95.7975 38.813V43.9246C95.9749 44.0387 96.203 44.1337 96.4817 44.2097C96.7732 44.2857 97.0646 44.3237 97.356 44.3237C98.6992 44.3237 99.3708 43.4179 99.3708 41.6063ZM102.26 41.5303C102.26 42.3031 102.165 43.0062 101.975 43.6396C101.785 44.273 101.506 44.8178 101.138 45.2738C100.771 45.7299 100.315 46.0846 99.7699 46.3379C99.225 46.5913 98.5978 46.718 97.8882 46.718C97.4954 46.718 97.128 46.68 96.7858 46.604C96.4437 46.528 96.1143 46.4203 95.7975 46.2809V50.0434H92.9655V36.8747C93.2189 36.7987 93.5104 36.7291 93.8398 36.6657C94.1693 36.5897 94.5114 36.5264 94.8662 36.4757C95.2336 36.425 95.6011 36.387 95.9686 36.3617C96.3487 36.3237 96.7098 36.3047 97.0519 36.3047C97.8756 36.3047 98.6105 36.4314 99.2567 36.6847C99.9029 36.9254 100.448 37.2738 100.891 37.7299C101.335 38.1732 101.671 38.718 101.899 39.3641C102.139 40.0101 102.26 40.7322 102.26 41.5303Z" fill="#C2D0C9"/>
<path d="M108.257 44.5517C108.535 44.5517 108.802 44.5454 109.055 44.5327C109.308 44.52 109.511 44.501 109.663 44.4757V42.3284C109.549 42.3031 109.378 42.2778 109.15 42.2524C108.922 42.2271 108.713 42.2144 108.523 42.2144C108.257 42.2144 108.003 42.2334 107.763 42.2714C107.534 42.2968 107.332 42.3538 107.154 42.4424C106.977 42.5311 106.838 42.6515 106.736 42.8035C106.635 42.9555 106.584 43.1455 106.584 43.3736C106.584 43.817 106.73 44.1273 107.021 44.3047C107.325 44.4694 107.737 44.5517 108.257 44.5517ZM108.029 36.2667C108.865 36.2667 109.562 36.3617 110.119 36.5517C110.677 36.7417 111.12 37.0141 111.45 37.3688C111.792 37.7235 112.033 38.1542 112.172 38.661C112.311 39.1677 112.381 39.7314 112.381 40.3522V46.2429C111.976 46.3316 111.412 46.433 110.69 46.547C109.967 46.6737 109.093 46.737 108.067 46.737C107.42 46.737 106.831 46.68 106.299 46.566C105.779 46.452 105.33 46.2683 104.95 46.0149C104.569 45.7489 104.278 45.4068 104.075 44.9888C103.872 44.5707 103.771 44.0577 103.771 43.4496C103.771 42.8668 103.885 42.3728 104.113 41.9674C104.354 41.562 104.671 41.239 105.064 40.9983C105.456 40.7576 105.906 40.5865 106.413 40.4852C106.92 40.3712 107.446 40.3142 107.991 40.3142C108.358 40.3142 108.681 40.3332 108.96 40.3712C109.251 40.3965 109.486 40.4345 109.663 40.4852V40.2192C109.663 39.7378 109.517 39.3514 109.226 39.06C108.935 38.7687 108.428 38.623 107.705 38.623C107.224 38.623 106.749 38.661 106.28 38.737C105.811 38.8003 105.406 38.8953 105.064 39.022L104.702 36.7417C104.867 36.6911 105.07 36.6404 105.311 36.5897C105.564 36.5264 105.837 36.4757 106.128 36.4377C106.419 36.387 106.723 36.349 107.04 36.3237C107.37 36.2857 107.699 36.2667 108.029 36.2667Z" fill="#C2D0C9"/>
<path d="M123.552 36.5327V46.528H120.72V38.889H117.774V46.528H114.942V36.5327H123.552Z" fill="#C2D0C9"/>
<path d="M135.313 36.5327V46.528H132.462C132.462 45.8946 132.468 45.2675 132.481 44.6467C132.494 44.0133 132.506 43.4306 132.519 42.8985C132.532 42.3664 132.544 41.9041 132.557 41.5113C132.582 41.1059 132.595 40.8082 132.595 40.6182C132.227 41.1376 131.86 41.6634 131.493 42.1954C131.125 42.7275 130.77 43.2532 130.428 43.7726C130.099 44.2794 129.782 44.7671 129.478 45.2358C129.186 45.7045 128.927 46.1353 128.699 46.528H126.209V36.5327H129.041C129.041 37.1661 129.034 37.7742 129.022 38.3569C129.022 38.927 129.015 39.4464 129.003 39.9151C128.99 40.3839 128.977 40.7956 128.965 41.1503C128.952 41.4923 128.946 41.7584 128.946 41.9484C129.706 40.8336 130.403 39.8328 131.036 38.946C131.683 38.0592 132.31 37.2548 132.918 36.5327H135.313Z" fill="#C2D0C9"/>
<path d="M142.12 42.9745C141.714 43.5699 141.353 44.1717 141.037 44.7797C140.72 45.3752 140.416 45.9579 140.124 46.528H137.216C137.584 45.7045 137.957 44.9508 138.338 44.2667C138.718 43.5826 139.085 42.9935 139.44 42.4995C138.908 42.2208 138.483 41.866 138.167 41.4353C137.85 40.9919 137.691 40.4409 137.691 39.7821C137.691 38.6673 138.091 37.8122 138.889 37.2168C139.7 36.6214 140.815 36.3237 142.234 36.3237C142.551 36.3237 142.899 36.3363 143.279 36.3617C143.672 36.387 144.059 36.425 144.439 36.4757C144.819 36.5264 145.18 36.5834 145.522 36.6467C145.877 36.6974 146.175 36.7544 146.415 36.8177V46.528H143.583V42.9745H142.12ZM143.583 38.566C143.457 38.5533 143.26 38.5406 142.994 38.528C142.728 38.5026 142.5 38.49 142.31 38.49C141.613 38.49 141.138 38.6103 140.885 38.851C140.631 39.079 140.504 39.3767 140.504 39.7441C140.504 39.9721 140.555 40.1685 140.656 40.3332C140.758 40.4852 140.891 40.6119 141.056 40.7132C141.22 40.8019 141.404 40.8653 141.607 40.9033C141.81 40.9413 142.012 40.9603 142.215 40.9603H143.583V38.566Z" fill="#C2D0C9"/>
</svg>
