<svg width="400" height="263" viewBox="0 0 400 263" fill="none" xmlns="http://www.w3.org/2000/svg">
<path d="M304.672 202.972C310.846 203.483 387.839 209.788 387.684 215.345C387.632 217.22 378.813 218.45 378.798 221.64C378.782 225.293 390.339 225.799 391.153 229.454C392.707 236.435 355.575 257.339 311.175 262.228C288.489 264.725 281.161 261.143 224.479 251.809C188.252 245.844 142.548 238.319 91.1825 232.926C57.0999 229.348 23.1871 226.985 23.125 222.507C23.0608 217.915 58.6389 216.058 58.8874 209.483C59.2085 200.987 0.148438 195.302 0.365936 187.995C0.502625 183.429 23.7629 178.723 62.1372 176.925C157.318 172.467 187.498 193.298 304.672 202.972Z" fill="#E7F0EC"/>
<path d="M363.845 224.027C376.277 226.846 380.72 227.35 380.751 228.584C380.798 230.399 371.277 232.102 360.378 234.01C340.369 237.513 337.673 236.287 332.2 239.87C322.861 245.986 325.639 252.887 317.461 257.017C310.05 260.761 305.34 256.316 286.034 253.545C267.337 250.861 255.939 252.757 255.473 250.073C254.851 246.49 274.754 240.772 274.112 238.351C273.449 235.846 251.941 241.299 250.054 236.615C249.074 234.186 253.714 229.891 256.991 227.717C267.279 220.884 276.096 227.953 293.186 228.586C318.253 229.511 328.706 215.981 348.673 220.339C351.428 220.938 354.669 221.946 363.845 224.027Z" fill="#DEE8E3"/>
<path d="M104.403 219.469C109.06 220.878 115.762 223.659 115.458 225.329C115.106 227.252 106.015 224.692 89.8818 226.847C83.5396 227.696 76.9426 229.16 68.8585 226.414C66.1306 225.487 63.904 224.73 63.8729 223.593C63.7756 220.036 85.1386 213.639 104.403 219.469Z" fill="#DEE8E3"/>
<path d="M138.43 196.677C138.299 197.557 130.756 197.698 115.673 197.98C88.2843 198.492 67.9093 196.972 61.4863 196.462C44.8002 195.132 11.8692 192.508 11.8526 188.866C11.8402 186.051 31.4903 183.861 35.26 183.44C88.4314 177.51 139.014 192.778 138.43 196.677Z" fill="#DEE8E3"/>
<path d="M271.076 193.117C266.96 183.924 273.439 170.075 280.367 162.311C288.455 153.247 293.911 156.113 299.655 148.572C310.347 134.534 295.825 118.838 305.485 103.825C313.385 91.552 326.088 97.3826 334.218 83.3922C340.084 73.2971 336.289 65.4068 344.286 58.3048C344.97 57.697 352.437 51.2546 360.413 53.4428C368.464 55.6519 372.323 65.3612 373.222 71.87C374.883 83.9024 366.675 86.8021 363.417 101.79C358.982 122.196 371.573 128.904 365.206 143.253C359.949 155.103 350.15 153.264 344.58 166.518C339.409 178.826 345.979 184.885 341.708 192.831C331.882 211.113 279.47 211.868 271.076 193.117Z" fill="url(#paint0_linear)"/>
<path opacity="0.7" d="M276.678 207.429C285.522 207.429 293.983 205.589 301.834 201.959C309.338 198.489 317.097 194.903 321.229 187.143C324.367 181.252 323.509 176.592 322.426 170.691C321.384 165.02 320.088 157.963 322.354 147.655C323.648 141.77 325.257 134.446 331.159 128.016C334.589 124.278 337.683 122.853 340.413 121.594C343.23 120.296 345.664 119.174 347.331 115.787C350.017 110.323 349.201 105.316 348.255 99.5187C347.677 95.9781 347.08 92.3192 347.167 88.0692C347.412 76.1197 354.396 63.9919 367.928 52.0217C367.977 51.9761 367.983 51.8993 367.938 51.8496C367.892 51.7977 367.816 51.7936 367.766 51.8392C354.183 63.8571 347.169 76.0451 346.923 88.065C346.836 92.3358 347.434 96.0071 348.014 99.5582C348.953 105.314 349.765 110.286 347.111 115.679C345.483 118.989 343.201 120.041 340.311 121.372C337.561 122.64 334.441 124.077 330.978 127.85C325.032 134.328 323.414 141.689 322.115 147.603C319.839 157.959 321.14 165.043 322.188 170.736C323.265 176.59 324.114 181.215 321.016 187.029C316.921 194.716 309.201 198.286 301.734 201.737C293.917 205.353 285.487 207.184 276.68 207.184C276.608 207.184 276.535 207.184 276.463 207.184C276.394 207.184 276.34 207.238 276.34 207.306C276.34 207.375 276.394 207.429 276.463 207.429C276.531 207.429 276.606 207.429 276.678 207.429Z" fill="white"/>
<path opacity="0.7" d="M328.484 131.29C328.496 131.29 328.508 131.288 328.521 131.284C328.585 131.263 328.62 131.194 328.6 131.13C323.289 114.356 323.529 101.853 324.664 94.3173C325.894 86.1553 328.413 81.9032 328.44 81.8597C328.475 81.8016 328.457 81.7269 328.399 81.6917C328.341 81.6564 328.266 81.6751 328.231 81.7331C328.206 81.7746 325.667 86.0578 324.426 94.2634C323.283 101.826 323.038 114.375 328.368 131.203C328.384 131.257 328.432 131.29 328.484 131.29Z" fill="white"/>
<path opacity="0.7" d="M321.033 156.26C321.039 156.26 321.045 156.26 321.052 156.258C330.343 154.847 338.541 151.859 345.416 147.376C350.917 143.79 355.586 139.243 359.298 133.863C365.615 124.703 366.97 116.184 366.982 116.099C366.992 116.033 366.947 115.971 366.88 115.96C366.812 115.95 366.752 115.996 366.742 116.062C366.729 116.147 365.379 124.618 359.09 133.732C355.399 139.084 350.752 143.605 345.277 147.173C338.434 151.635 330.271 154.609 321.016 156.015C320.95 156.026 320.905 156.088 320.913 156.154C320.921 156.216 320.973 156.26 321.033 156.26Z" fill="white"/>
<path opacity="0.7" d="M310.052 198.304C310.081 198.304 310.112 198.293 310.135 198.27C310.185 198.225 310.187 198.146 310.141 198.098C304.074 191.589 299.495 184.674 296.533 177.549C294.163 171.851 292.817 166.004 292.529 160.174C292.038 150.249 294.826 143.729 294.855 143.665C294.882 143.603 294.853 143.53 294.791 143.503C294.729 143.476 294.656 143.505 294.629 143.566C294.6 143.63 291.79 150.203 292.283 160.184C292.573 166.044 293.925 171.918 296.305 177.642C299.279 184.796 303.873 191.735 309.961 198.266C309.988 198.291 310.021 198.304 310.052 198.304Z" fill="white"/>
<path opacity="0.7" d="M347.488 86.1698C347.5 86.1698 347.511 86.1677 347.523 86.1656C354.375 84.108 360.245 80.8411 364.969 76.4584C368.749 72.9509 371.811 68.7237 374.064 63.8929C377.902 55.6729 378.072 48.4546 378.074 48.3821C378.076 48.3136 378.022 48.2576 377.954 48.2576C377.882 48.2493 377.83 48.3095 377.83 48.3779C377.828 48.4484 377.658 55.6231 373.838 63.7975C371.597 68.5951 368.555 72.7953 364.797 76.2821C360.1 80.6379 354.265 83.8861 347.453 85.9312C347.388 85.9499 347.351 86.0183 347.37 86.0847C347.386 86.1345 347.434 86.1698 347.488 86.1698Z" fill="white"/>
<path d="M321.585 195.138C318.571 188.403 323.316 178.258 328.391 172.571C334.317 165.929 338.312 168.031 342.519 162.507C350.353 152.223 339.713 140.726 346.79 129.728C352.577 120.737 361.881 125.01 367.838 114.759C372.136 107.364 369.356 101.584 375.214 96.3815C375.715 95.9377 381.185 91.2168 387.028 92.8201C392.925 94.438 395.753 101.55 396.411 106.319C397.629 115.134 391.614 117.256 389.228 128.237C385.978 143.186 395.202 148.1 390.539 158.61C386.687 167.29 379.51 165.942 375.429 175.651C371.641 184.668 376.455 189.106 373.325 194.927C366.127 208.32 327.734 208.874 321.585 195.138Z" fill="url(#paint1_linear)"/>
<path opacity="0.7" d="M325.688 205.653C332.171 205.653 338.374 204.304 344.13 201.643C349.632 199.1 355.319 196.47 358.354 190.776C360.657 186.452 360.029 183.031 359.234 178.703C358.472 174.552 357.521 169.385 359.18 161.841C360.127 157.533 361.305 152.174 365.622 147.469C368.13 144.738 370.394 143.694 372.391 142.773C374.46 141.819 376.247 140.996 377.474 138.503C379.448 134.491 378.847 130.818 378.153 126.566C377.73 123.973 377.293 121.293 377.358 118.184C377.536 109.439 382.65 100.563 392.555 91.802C392.604 91.7564 392.61 91.6796 392.565 91.6298C392.519 91.578 392.443 91.5738 392.393 91.6195C382.434 100.429 377.296 109.366 377.113 118.182C377.049 121.314 377.488 124.004 377.913 126.607C378.6 130.818 379.193 134.456 377.254 138.397C376.067 140.811 374.4 141.579 372.289 142.551C370.272 143.481 367.983 144.536 365.442 147.303C361.08 152.055 359.893 157.452 358.94 161.787C357.271 169.381 358.225 174.573 358.992 178.746C359.779 183.029 360.4 186.41 358.136 190.66C355.141 196.281 349.491 198.895 344.027 201.421C338.258 204.089 332.038 205.433 325.528 205.408C325.46 205.408 325.406 205.462 325.406 205.53C325.406 205.599 325.46 205.653 325.528 205.653C325.582 205.653 325.634 205.653 325.688 205.653Z" fill="white"/>
<path opacity="0.7" d="M363.64 149.878C363.652 149.878 363.665 149.876 363.677 149.872C363.741 149.852 363.776 149.783 363.756 149.719C359.868 137.44 360.042 128.286 360.875 122.771C361.776 116.797 363.617 113.684 363.636 113.653C363.671 113.595 363.652 113.52 363.594 113.485C363.536 113.449 363.462 113.468 363.426 113.526C363.408 113.557 361.544 116.7 360.634 122.717C359.798 128.261 359.617 137.458 363.522 149.791C363.54 149.845 363.588 149.878 363.64 149.878Z" fill="white"/>
<path opacity="0.7" d="M358.18 168.17C358.187 168.17 358.193 168.17 358.199 168.168C365.011 167.133 371.02 164.942 376.06 161.657C380.092 159.027 383.516 155.694 386.238 151.748C390.869 145.032 391.863 138.785 391.872 138.722C391.882 138.656 391.836 138.594 391.77 138.583C391.704 138.573 391.642 138.619 391.631 138.687C391.621 138.749 390.633 144.951 386.031 151.62C383.328 155.536 379.927 158.844 375.921 161.456C370.912 164.72 364.937 166.898 358.164 167.927C358.098 167.938 358.052 168 358.06 168.066C358.069 168.126 358.12 168.17 358.18 168.17Z" fill="white"/>
<path opacity="0.7" d="M350.138 198.969C350.167 198.969 350.198 198.959 350.221 198.936C350.271 198.891 350.273 198.812 350.227 198.764C340.175 187.978 337.667 177.721 337.333 171.015C336.971 163.75 339.013 158.971 339.034 158.923C339.061 158.861 339.032 158.788 338.97 158.761C338.908 158.734 338.835 158.763 338.808 158.823C338.787 158.871 336.727 163.691 337.087 171.011C337.42 177.761 339.939 188.084 350.047 198.928C350.074 198.957 350.105 198.969 350.138 198.969Z" fill="white"/>
<path opacity="0.7" d="M377.562 116.827C377.574 116.827 377.585 116.825 377.597 116.823C388.977 113.407 394.461 106.056 397.061 100.491C399.876 94.4629 400 89.1675 400 89.1157C400.002 89.0472 399.948 88.9912 399.88 88.9912H399.878C399.811 88.9912 399.756 89.0451 399.756 89.1115C399.756 89.1634 399.629 94.4132 396.833 100.397C394.256 105.913 388.813 113.201 377.527 116.59C377.463 116.609 377.425 116.678 377.444 116.744C377.46 116.792 377.508 116.827 377.562 116.827Z" fill="white"/>
<path d="M267.535 203.957C257.943 198.568 254.096 185.499 254.846 175.545C256.004 160.183 267.605 158.951 270.764 142.652C274.121 125.32 262.232 120.365 266.118 104.006C269.679 89.0217 280.134 91.1539 286.729 73.7597C293.361 56.268 285.314 47.8862 294.37 34.0907C296.095 31.4606 303.192 20.6478 313.519 21.017C322.158 21.3261 329.124 29.3201 331.628 36.4988C334.461 44.6173 330.404 48.2886 329.267 61.9741C327.715 80.6709 334.64 81.6313 331.997 94.1573C328.463 110.896 315.516 113.049 315.555 126.764C315.582 135.988 321.943 136.703 324.49 147.784C328.13 163.618 319.59 181.51 307.897 192.101C306.363 193.495 284.034 213.227 267.535 203.957Z" fill="url(#paint2_linear)"/>
<path opacity="0.7" d="M272.916 209.938C272.945 209.938 272.972 209.927 272.995 209.909C285.781 198.943 292.759 187.225 293.73 175.081C294.192 169.315 293.107 165.735 291.85 161.592C290.601 157.475 289.186 152.806 288.772 144.767C288.635 142.112 288.314 135.893 289.316 128.15C290.501 119.001 293.159 110.619 297.212 103.233C300.731 96.8215 303.983 93.621 306.597 91.049C309.617 88.0767 312.001 85.7308 313.476 80.0662C315.191 73.4744 313.834 68.8282 312.264 63.4456C310.953 58.9571 309.468 53.8691 309.609 46.738C309.818 36.2239 312.674 25.4837 318.101 14.814C318.132 14.7539 318.107 14.6792 318.047 14.6502C317.987 14.6191 317.912 14.6439 317.883 14.7041C312.44 25.4069 309.573 36.1845 309.364 46.7359C309.221 53.9043 310.713 59.011 312.028 63.5162C313.59 68.8614 314.936 73.4785 313.237 80.006C311.781 85.6063 309.416 87.9315 306.423 90.8769C303.799 93.4592 300.532 96.6743 296.995 103.117C292.927 110.528 290.261 118.941 289.072 128.121C288.065 135.885 288.386 142.12 288.525 144.781C288.942 152.85 290.362 157.533 291.614 161.665C292.862 165.784 293.942 169.344 293.484 175.064C292.517 187.14 285.57 198.804 272.833 209.726C272.782 209.77 272.775 209.847 272.821 209.898C272.848 209.923 272.883 209.938 272.916 209.938Z" fill="white"/>
<path opacity="0.7" d="M314.042 70.8231C314.083 70.8231 314.122 70.8024 314.145 70.7651C314.18 70.707 314.162 70.6323 314.106 70.597C302.859 63.6547 296.861 51.7654 293.807 43.0144C290.498 33.527 289.845 25.5849 289.839 25.5061C289.833 25.4376 289.775 25.3879 289.706 25.3941C289.638 25.4003 289.588 25.4584 289.595 25.5268C289.601 25.6057 290.257 33.5809 293.578 43.0973C296.643 51.8857 302.67 63.8269 313.977 70.8086C313.998 70.819 314.021 70.8231 314.042 70.8231Z" fill="white"/>
<path opacity="0.7" d="M298.601 105.995C304.676 105.995 310.244 104.556 315.192 101.701C319.759 99.0672 323.805 95.2279 327.22 90.2913C333.03 81.8928 335.018 73.1024 335.039 73.0153C335.054 72.9489 335.012 72.8846 334.946 72.8701C334.88 72.8556 334.815 72.897 334.801 72.9634C334.782 73.0505 332.8 81.7995 327.015 90.1585C323.62 95.064 319.602 98.8764 315.068 101.492C309.403 104.761 302.91 106.159 295.772 105.649C295.706 105.644 295.646 105.694 295.642 105.763C295.637 105.831 295.687 105.889 295.756 105.893C296.712 105.96 297.663 105.995 298.601 105.995Z" fill="white"/>
<path opacity="0.7" d="M289.52 123.734C289.564 123.734 289.603 123.711 289.626 123.672C289.659 123.614 289.638 123.539 289.58 123.504C283.837 120.231 279.369 116.01 276.299 110.959C273.843 106.919 272.273 102.341 271.629 97.3526C270.531 88.8505 272.54 82.0118 272.559 81.9434C272.577 81.8791 272.542 81.8107 272.476 81.7899C272.412 81.7692 272.343 81.8065 272.322 81.8729C272.302 81.9413 270.28 88.8214 271.382 97.3734C272.03 102.399 273.613 107.01 276.086 111.082C279.178 116.17 283.677 120.422 289.458 123.716C289.479 123.728 289.499 123.734 289.52 123.734Z" fill="white"/>
<path opacity="0.7" d="M293.636 170.415C293.641 170.415 293.643 170.415 293.647 170.415C300.273 169.89 306.261 167.776 311.441 164.132C315.586 161.22 319.225 157.326 322.259 152.564C327.423 144.46 329.063 136.531 329.08 136.452C329.092 136.385 329.051 136.321 328.985 136.307C328.918 136.292 328.854 136.336 328.84 136.402C328.823 136.481 327.191 144.371 322.048 152.438C319.03 157.171 315.414 161.039 311.296 163.933C306.151 167.548 300.206 169.645 293.626 170.168C293.56 170.174 293.508 170.232 293.514 170.301C293.52 170.367 293.574 170.415 293.636 170.415Z" fill="white"/>
<path opacity="0.7" d="M285.42 196.502C285.474 196.502 285.524 196.464 285.538 196.41C285.555 196.344 285.515 196.278 285.451 196.261C279.799 194.801 274.958 191.785 271.06 187.296C267.939 183.702 265.414 179.159 263.552 173.797C260.379 164.657 260.24 156.188 260.24 156.103C260.24 156.034 260.184 155.974 260.116 155.982C260.047 155.982 259.993 156.038 259.995 156.107C259.997 156.192 260.136 164.696 263.32 173.872C265.192 179.267 267.734 183.837 270.874 187.456C274.805 191.984 279.687 195.027 285.389 196.5C285.399 196.5 285.41 196.502 285.42 196.502Z" fill="white"/>
<path d="M100.496 163.051L28.2069 161.002C20.1974 160.635 13.8199 166.839 13.8199 174.822V174.909C13.8199 182.893 19.2901 188.966 27.2997 189.686L97.5383 195.292L100.496 163.051Z" fill="url(#paint3_linear)"/>
<path d="M222.734 186.312L99.515 193.762C92.2034 194.204 86.2257 189.012 86.2257 182.161V177.513C86.2257 170.662 92.2034 164.858 99.515 164.551L222.734 159.389V186.312Z" fill="white"/>
<path d="M223.863 187.679L100.494 195.26C90.958 195.845 83.1162 189.046 83.1162 180.096V179.998C83.1162 171.048 90.9601 163.444 100.494 163.054L223.863 157.999C224.644 157.968 225.277 158.582 225.277 159.374C225.277 160.167 224.644 160.835 223.863 160.868L100.494 166.167C92.818 166.497 86.5152 172.624 86.5152 179.824V179.921C86.5152 187.121 92.8159 192.603 100.494 192.147L223.863 184.81C224.644 184.765 225.277 185.368 225.277 186.161C225.277 186.951 224.646 187.631 223.863 187.679Z" fill="url(#paint4_linear)"/>
<path d="M102.023 114.85L28.2098 116.434C20.2003 116.598 13.8229 126.482 13.8229 138.468V138.601C13.8229 150.59 20.2003 160.633 28.2098 161L98.4443 162.961L102.023 114.85Z" fill="url(#paint5_linear)"/>
<path d="M222.733 155.888L106.094 160.495C95.183 160.926 86.2248 152.941 86.2248 142.655V135.675C86.2248 125.389 95.183 116.945 106.094 116.818L222.733 115.462V155.888Z" fill="white"/>
<path d="M223.862 157.996L100.493 163.051C90.957 163.441 83.1152 152.829 83.1152 139.389V139.241C83.1152 125.803 90.9591 114.787 100.493 114.689L223.862 113.426C224.643 113.418 225.276 114.376 225.276 115.564C225.276 116.753 224.643 117.726 223.862 117.736L100.493 119.366C92.817 119.468 86.5142 128.346 86.5142 139.156V139.304C86.5142 150.114 92.815 158.668 100.493 158.378L223.862 153.69C224.643 153.661 225.276 154.601 225.276 155.789C225.276 156.974 224.645 157.963 223.862 157.996Z" fill="url(#paint6_linear)"/>
<path opacity="0.5" d="M79.6172 156.323L64.6896 155.468C61.0815 145.17 61.3549 135.239 64.6896 123.154L79.6172 123.2C76.6242 135.537 77.0799 146.445 79.6172 156.323Z" fill="white"/>
<path d="M135.168 26.8219L284.993 18.4857C288.444 18.3239 291.551 21.9455 291.551 24.9862V210.523C291.551 214.74 287.071 215.588 283.62 215.25L135.168 200.671C132.457 200.405 130.268 198.018 130.268 195.34V31.9037C130.268 29.2238 132.457 26.9505 135.168 26.8219Z" fill="#ECF5E5"/>
<path d="M132.705 25.3494L282.826 18.2473C286.277 18.0835 289.088 20.4356 289.088 23.4992V210.486C289.088 213.55 286.277 215.756 282.826 215.414L132.705 200.555C129.994 200.287 127.805 197.881 127.805 195.182V30.4685C127.805 27.77 129.994 25.478 132.705 25.3494Z" fill="#FAFFF7"/>
<path opacity="0.74" d="M282.826 212.88C284.688 213.06 286.206 211.864 286.206 210.212V23.624C286.206 21.9729 284.688 20.6973 282.826 20.7823L132.705 27.6023C131.238 27.6687 130.049 28.9111 130.049 30.3713V195.396C130.049 196.857 131.24 198.161 132.705 198.302L282.826 212.88Z" fill="#ECF5E5"/>
<path d="M142.381 193.876L270.78 205.774V33.6279L142.381 38.2783V193.876Z" fill="white"/>
<path opacity="0.3" d="M193.738 39.1245L245.054 39.7426L243.902 28.6124C243.815 27.1667 242.728 25.9803 241.296 25.7687L232.605 24.4848C231.582 24.3334 230.702 23.6841 230.255 22.7487L229.312 20.7803L206.582 22.1306L193.738 39.1245Z" fill="#778967"/>
<path d="M166.334 31.9033C166.578 30.6443 167.626 29.7606 168.948 29.7026L177.148 29.35C180.87 29.1902 183.598 26.2822 183.461 22.5984L183.144 14.0631C183.086 12.4847 184.258 11.2194 185.868 11.1281L188.562 10.9726C190.617 10.8544 191.984 9.11203 191.696 7.10005C191.193 3.58014 193.699 0.543521 197.334 0.304988C200.996 0.0643817 204.416 2.75669 204.961 6.32016C205.041 6.84908 205.228 7.37385 205.53 7.84054C206.377 9.14521 207.86 9.86496 209.312 9.78199L212.092 9.62228C213.776 9.52479 215.375 10.6615 215.802 12.2607L218.113 20.9246C219.112 24.6706 222.881 27.3795 226.885 27.2052L235.88 26.8174C237.353 26.7531 238.799 27.5786 239.478 28.875L244.899 39.219C245.342 40.0653 244.795 40.9821 243.828 41.0111L165.824 43.5022C164.971 43.5292 164.246 42.7099 164.403 41.8968L166.334 31.9033ZM198.44 7.6912C199.515 7.6269 200.261 6.72877 200.104 5.68545C199.948 4.64213 198.948 3.84979 197.875 3.91616C196.802 3.98254 196.06 4.88066 196.218 5.92191C196.373 6.96316 197.367 7.7555 198.44 7.6912Z" fill="#97AC85"/>
<path d="M165.872 32.1347C166.116 30.8757 167.164 29.9921 168.486 29.934L176.686 29.5814C180.408 29.4217 183.136 26.5137 182.999 22.8299L182.682 14.2946C182.624 12.7161 183.796 11.4509 185.406 11.3596L188.101 11.204C190.155 11.0858 191.522 9.34347 191.234 7.3315C190.731 3.81159 193.237 0.774966 196.872 0.536434C200.534 0.295827 203.954 2.98813 204.499 6.5516C204.58 7.08052 204.766 7.6053 205.068 8.07199C205.916 9.37666 207.396 10.0964 208.85 10.0134L211.63 9.85373C213.314 9.75624 214.913 10.8929 215.34 12.4921L217.651 21.156C218.65 24.902 222.419 27.6109 226.423 27.4367L235.419 27.0488C236.891 26.9845 238.337 27.81 239.016 29.1064L244.437 39.4504C244.88 40.2967 244.333 41.2135 243.366 41.2425L165.362 43.7336C164.509 43.7606 163.784 42.9413 163.941 42.1282L165.872 32.1347ZM197.978 7.92472C199.053 7.86042 199.799 6.9623 199.642 5.91898C199.486 4.87565 198.486 4.08331 197.413 4.14969C196.34 4.21606 195.599 5.11419 195.756 6.15543C195.913 7.19668 196.908 7.98902 197.978 7.92472Z" fill="#D8E9CA"/>
<path d="M206.044 188.885L261.442 193.544V190.777L206.044 186.234V188.885Z" fill="#F0F8E9"/>
<path d="M206.043 193.651L261.441 198.517V195.75L206.043 191V193.651Z" fill="#F0F8E9"/>
<path d="M150.111 184.177L200.644 188.427V185.787L150.111 181.643V184.177Z" fill="#F0F8E9"/>
<path d="M150.113 188.734L200.646 193.173V190.532L150.113 186.199V188.734Z" fill="#F0F8E9"/>
<path opacity="0.5" d="M179.221 36.887C186.178 32.7552 191.518 35.6861 195.855 31.0253C200.497 26.0369 197.367 19.4721 202.171 16.3732C205.246 14.3903 207.989 16.1388 211.566 15.6016C212.875 15.4046 214.273 14.9047 215.725 13.9277L217.651 21.1522C218.65 24.8982 222.419 27.6071 226.423 27.4328L235.419 27.0449C236.891 26.9806 238.337 27.8062 239.016 29.1026L244.437 39.4466C244.88 40.2928 244.333 41.2096 243.366 41.2387L172.477 43.5037C174.262 40.7782 176.479 38.5153 179.221 36.887Z" fill="#F0F8E9"/>
<path d="M156.661 175.108L163.925 141.363C165.194 133.888 162.686 126.126 157.21 120.53C154.204 117.456 152.317 113.521 151.897 109.354C151.24 102.858 151.319 92.2813 155.662 79.3466C161.493 61.9814 179.581 50.8637 198.999 53.0333C208.89 54.1389 220.613 56.8146 233.173 62.4481C240.51 65.7399 245.59 72.2715 246.398 79.8237C246.775 83.3415 247.473 87.2389 248.743 90.7132C250.346 95.0939 251.042 98.0994 251.33 100.049C251.591 101.818 250.833 103.569 249.346 104.704C247.817 105.867 247.438 107.871 248.443 109.476L259.688 127.472V128.047C259.688 129.824 258.161 131.239 256.204 131.284L249.424 131.44L249.679 137.714C249.729 138.926 248.855 139.969 247.571 140.23L246.038 140.544L247.436 141.626C248.577 142.508 248.878 143.989 248.14 145.103L246.164 148.09C245.271 149.438 245.4 151.193 246.487 152.524C248.291 154.733 248.66 157.604 247.442 159.969L246.891 161.041C244.344 165.992 238.327 168.452 232.376 167C225.696 165.37 217.237 162.955 211.491 160.051C209.867 159.23 207.999 160.238 207.999 161.918V179.022L156.661 175.108Z" fill="url(#paint7_linear)"/>
<path d="M220.707 98.9296C226.007 97.7909 227.606 99.9024 231.904 98.3073C237.084 96.3825 240.949 91.197 241.598 86.0074C242.519 78.6315 236.72 73.1556 232.741 69.4013C223.619 60.7914 212.527 58.8063 209.296 58.2712C204.905 57.5432 186.156 55.0417 171.286 67.4267C160.969 76.0201 158.451 86.8744 157.751 90.1101C156.732 94.8206 153.552 109.525 161.856 115.289C166.777 118.705 174.683 118.296 179.708 115.403C183.412 113.271 182.645 111.74 186.295 109.63C193.577 105.424 198.669 110.734 207.281 107.448C214.166 104.822 213.53 100.473 220.707 98.9296Z" fill="#B4EFA8"/>
<path d="M131.948 194.237C136.358 194.237 141.244 193.563 146.238 191.652C162.284 185.511 174.368 168.311 173.746 152.498C173.498 146.176 171.112 141.436 169.007 137.252C166.493 132.258 164.322 127.946 166.572 122.457C166.698 122.148 166.901 121.684 167.156 121.097C168.827 117.265 172.303 109.29 171.714 106.042C171.36 104.082 170.219 103.119 170.171 103.08L170.153 103.066C169.68 102.734 169.142 102.562 168.62 102.396C168.347 102.308 168.09 102.225 167.839 102.122C165.702 101.234 164.335 98.5459 164.66 95.8722C164.929 93.6466 166.17 91.4168 168.349 89.2472C168.937 88.6602 169.589 88.0919 170.362 87.8928C168.668 89.1746 167.516 90.6701 166.994 92.2859C166.246 94.5987 166.98 97.795 169.467 98.9275C170.41 99.3569 171.499 99.4066 172.574 99.0769C171.924 99.639 171.333 100.27 170.863 101.018C170.739 101.215 170.662 101.421 170.635 101.628C170.501 102.651 171.511 102.96 171.843 103.061C173.338 103.518 174.939 103.673 176.507 103.526C176.92 103.879 177.421 104.117 177.97 104.196C179.654 104.434 181.141 103.18 182.156 100.659C182.903 98.8072 183.361 97.1001 183.533 95.5134C183.674 95.4035 183.813 95.2914 183.949 95.1794C184.971 95.6482 186.056 95.9013 187.121 95.9095C187.284 97.1416 187.589 98.355 188.032 99.5249C188.142 99.8111 188.386 100.014 188.691 100.066C188.997 100.12 189.302 100.01 189.505 99.7738C189.73 99.5083 190.07 99.4004 190.408 99.4792C190.745 99.5601 190.998 99.809 191.081 100.147C191.746 102.846 193.08 104.304 195.041 104.48C195.555 104.526 196.108 104.468 196.731 104.302C200.317 103.346 203.363 100.27 204.627 96.3825C207.166 97.6394 210.132 97.9049 212.659 96.9861C216.046 95.754 218.409 92.4539 218.473 89.0502C220.02 90.5291 222.67 90.5996 224.436 89.6061C226.951 88.1956 227.951 85.3519 228.324 83.7817C228.798 81.7801 228.769 79.9922 228.235 78.4635C226.897 74.6304 222.578 72.8113 219.447 71.7763C216.677 70.8616 214.585 70.7869 213.094 71.5585C212.974 71.0711 212.628 70.5629 212.262 70.2891C205.064 64.9231 194.884 64.137 186.928 68.331C186.271 68.6774 185.662 69.0425 185.103 69.4241C184.683 69.2126 184.233 69.0446 183.755 68.9305C181.785 68.4617 179.768 68.9409 177.754 70.3534C175.72 71.7804 174.217 73.7945 173.313 75.2319C170.853 79.148 170.12 82.4107 171.07 85.2088C171.273 85.8061 171.549 86.362 171.876 86.8826C171.69 86.9905 171.509 87.1004 171.333 87.2145C170.977 87.173 170.625 87.1896 170.287 87.2664C169.333 87.4842 168.581 88.1334 167.907 88.8013C165.629 91.0725 164.326 93.4247 164.04 95.7934C163.63 99.1806 165.521 101.829 167.599 102.692C167.872 102.806 168.156 102.895 168.429 102.983C168.922 103.14 169.388 103.287 169.782 103.559C169.875 103.642 170.805 104.501 171.103 106.146C171.659 109.207 168.104 117.359 166.588 120.839C166.331 121.43 166.126 121.897 165.998 122.212C163.641 127.964 165.871 132.395 168.454 137.524C170.532 141.65 172.885 146.325 173.127 152.512C173.417 159.886 170.855 167.895 165.917 175.063C160.861 182.401 153.794 188.083 146.016 191.061C134.32 195.539 123.201 193.117 117.615 191.273L117.42 191.864C120.703 192.957 125.871 194.237 131.948 194.237ZM204.066 96.0879C202.887 99.8277 199.985 102.79 196.568 103.702C196.015 103.85 195.534 103.901 195.093 103.862C193.423 103.711 192.276 102.412 191.681 99.9999C191.543 99.4398 191.11 99.0105 190.548 98.8756C189.987 98.7429 189.405 98.9317 189.03 99.3693C188.945 99.4668 188.838 99.4606 188.794 99.4523C188.753 99.4461 188.653 99.417 188.61 99.3009C188.189 98.1974 187.899 97.0483 187.74 95.8847C188.032 95.8598 188.32 95.8183 188.606 95.754C189.534 95.5507 190.358 95.1649 191.091 94.6609C191.882 94.8413 192.657 95.084 193.407 95.3889L193.775 95.5383L193.831 95.1442C193.985 94.0552 193.954 92.9434 193.755 91.8607C193.765 91.8462 193.775 91.8317 193.784 91.8172C194.055 91.8794 194.326 91.9292 194.598 91.9665C195.424 92.4187 196.34 92.8273 197.336 93.1944C198.916 93.7731 200.375 94.1423 201.727 94.3C201.851 94.4244 201.98 94.5468 202.11 94.6671C202.709 95.2168 203.367 95.6918 204.066 96.0879ZM180.722 102.076C180.074 103.03 179.198 103.744 178.053 103.582C177.839 103.551 177.636 103.491 177.444 103.402C177.835 103.333 178.222 103.246 178.603 103.138C179.475 102.893 180.194 102.528 180.722 102.076ZM175.973 102.943C174.639 103.014 173.289 102.856 172.019 102.468C171.323 102.257 171.207 102.012 171.246 101.711C171.261 101.593 171.309 101.473 171.385 101.352C171.996 100.384 172.814 99.6265 173.734 98.9441C173.835 99.3237 173.945 99.6991 174.063 100.07L174.163 100.377L174.467 100.267C174.83 100.135 175.186 100.002 175.534 99.8671C175.41 100.35 175.366 100.848 175.408 101.361C175.453 101.945 175.656 102.491 175.973 102.943ZM180.422 97.5814C180.563 97.9111 180.693 98.243 180.811 98.579C181.021 99.166 181.199 99.7904 181.089 100.369C180.832 101.726 179.148 102.34 178.436 102.539C177.876 102.696 177.301 102.808 176.721 102.879C176.331 102.468 176.074 101.916 176.025 101.309C175.975 100.705 176.058 100.126 176.273 99.5705C177.796 98.9482 179.175 98.2887 180.422 97.5814ZM182.835 96.0381C182.649 97.2764 182.284 98.5936 181.746 100.002C181.746 99.4419 181.584 98.8922 181.398 98.3716C181.265 98.0003 181.12 97.6311 180.963 97.2681C181.625 96.872 182.249 96.4634 182.835 96.0381ZM175.811 99.0872C175.405 99.2511 174.987 99.4129 174.558 99.5705C174.457 99.2345 174.362 98.8964 174.275 98.5541C174.712 98.2513 175.165 97.9568 175.625 97.6602C176.76 96.9238 177.934 96.1647 178.914 95.2002C178.972 95.1442 179.028 95.0861 179.084 95.028C179.21 95.2292 179.333 95.4325 179.451 95.6378C179.32 95.7084 179.19 95.783 179.061 95.8577C177.46 96.789 176.364 97.8842 175.811 99.0872ZM180.167 97.0109C179.119 97.6083 177.974 98.1725 176.725 98.7076C177.282 97.8697 178.169 97.0981 179.376 96.3928C179.5 96.3202 179.627 96.2497 179.753 96.1792C179.898 96.4551 180.037 96.7309 180.167 97.0109ZM173.498 97.9796C173.26 98.1269 173.009 98.2534 172.748 98.3592C171.704 98.7761 170.629 98.7782 169.722 98.3654C168.028 97.5938 166.729 95.1255 167.582 92.4809C168.253 90.4067 169.939 88.8822 171.474 87.87C172.05 87.9778 172.642 88.262 173.204 88.6996C172.723 91.7674 172.825 94.9492 173.498 97.9796ZM173.759 89.1954C173.792 89.2286 173.825 89.2638 173.858 89.297C175.594 91.1389 176.201 93.7586 175.366 95.8183C175.095 96.4903 174.631 97.1001 174.049 97.5834C173.469 94.8413 173.371 91.9748 173.759 89.1954ZM178.734 94.4929C178.651 94.5821 178.564 94.6713 178.477 94.7563C177.564 95.6565 176.447 96.3866 175.36 97.0918C175.598 96.7662 175.795 96.4177 175.942 96.0527C176.559 94.5302 176.47 92.736 175.778 91.1119C176.186 91.4977 176.592 91.8939 176.969 92.2942C177.611 92.9746 178.204 93.713 178.734 94.4929ZM217.674 86.9511L217.808 88.1562C218.187 91.5475 215.83 95.1711 212.444 96.4011C210.041 97.2744 207.212 97.0047 204.803 95.7789C204.942 95.2686 205.051 94.748 205.132 94.217C205.623 94.1257 206.095 93.9951 206.555 93.8291C208.699 93.0534 210.491 91.4334 211.735 89.1456C212.485 87.7704 213.005 86.2002 213.262 84.5741C213.724 85.0947 214.225 85.5821 214.801 85.9866C215.6 86.5508 216.642 86.9469 217.674 86.9511ZM182.937 95.1877C182.249 95.7146 181.505 96.2165 180.704 96.6957C180.577 96.426 180.443 96.1585 180.302 95.895C181.153 95.476 182.044 95.138 182.957 94.8787C182.955 94.9824 182.947 95.084 182.937 95.1877ZM204.488 94.3186C204.422 94.7086 204.341 95.0944 204.242 95.474C203.707 95.1587 203.198 94.7957 202.723 94.3829C203.334 94.4078 203.921 94.3871 204.488 94.3186ZM182.526 94.3581C181.659 94.6194 180.814 94.9492 180.002 95.3495C179.846 95.0778 179.683 94.8102 179.513 94.5468C179.989 93.9764 180.399 93.3479 180.739 92.6821C180.965 92.9559 181.201 93.2152 181.449 93.4578C181.789 93.7897 182.149 94.0905 182.526 94.3581ZM186.982 94.2647C186.992 94.607 187.015 94.9471 187.046 95.2873C186.184 95.2707 185.308 95.0799 184.471 94.7314C184.567 94.6484 184.66 94.5634 184.751 94.4784C185.488 94.3581 186.234 94.2875 186.982 94.2647ZM190.203 94.4867C189.672 94.7833 189.097 95.0114 188.473 95.1504C188.208 95.2085 187.941 95.2479 187.669 95.2707C187.636 94.9347 187.616 94.5966 187.603 94.2585C188.475 94.2668 189.345 94.3415 190.203 94.4867ZM193.237 92.5867C193.32 93.2774 193.33 93.9764 193.264 94.6692C192.761 94.4804 192.247 94.3186 191.727 94.1817C192.29 93.7067 192.792 93.1633 193.237 92.5867ZM184.463 93.8997C184.177 93.9494 183.891 94.0075 183.608 94.0739C183.604 93.1218 183.488 92.2154 183.26 91.3484C182.98 90.2906 182.5 89.3136 181.876 88.4715C181.936 87.4033 181.828 86.3309 181.543 85.3063C181.132 83.8439 180.142 82.2116 178.562 81.8465C178.769 80.7161 179.192 79.5711 179.956 78.5589C180.134 78.3224 180.333 78.1026 180.55 77.8972C180.764 79.4612 181.536 80.9256 183.042 81.8776C183.896 82.4169 184.869 82.6596 185.811 82.6056C186.286 84.5969 187.063 86.3641 188.092 87.8223C187.75 88.681 187.487 89.5687 187.303 90.4731C186.886 91.1513 186.41 91.8047 185.878 92.427C185.439 92.9372 184.968 93.4267 184.463 93.8997ZM180.319 92.1366C180.004 92.8045 179.612 93.435 179.152 94.0075C178.628 93.2504 178.048 92.5328 177.421 91.8669C176.849 91.2613 176.224 90.6763 175.619 90.1122C175.028 89.5625 174.432 89.0045 173.879 88.4176C173.989 87.7808 174.125 87.1523 174.287 86.53C174.295 86.4948 174.306 86.4616 174.314 86.4263C175.047 86.1753 175.733 86.055 176.398 86.055C176.4 86.055 176.402 86.055 176.404 86.055C176.955 86.055 177.483 86.1422 177.986 86.2998C178.007 86.4242 178.03 86.5446 178.053 86.6586C178.473 88.7847 179.248 90.6473 180.319 92.1366ZM193.096 91.73C192.506 92.5784 191.797 93.3749 190.957 93.9971C189.855 93.7648 188.726 93.6445 187.595 93.6362C187.601 92.6489 187.7 91.6657 187.891 90.7012C188.264 90.0831 188.591 89.4484 188.869 88.8013C189.38 89.382 189.94 89.8944 190.542 90.3362C191.325 90.9087 192.185 91.338 193.075 91.6222C193.08 91.6595 193.088 91.6948 193.096 91.73ZM181.775 89.4505C182.174 90.1122 182.475 90.8132 182.657 91.506C182.86 92.2756 182.968 93.0783 182.984 93.9204C182.599 93.6549 182.23 93.3521 181.886 93.014C181.586 92.7194 181.302 92.4 181.035 92.0557C181.389 91.2239 181.64 90.3445 181.775 89.4505ZM204.579 93.6798C203.776 93.7897 202.922 93.8001 202.015 93.7088C201.201 92.8605 200.517 91.8794 199.981 90.805C200.138 90.695 200.292 90.5789 200.441 90.4544C202.212 88.9631 202.943 86.8246 203.218 84.9453C204.451 87.8658 204.917 90.8941 204.579 93.6798ZM186.973 93.6445C186.485 93.659 185.994 93.6922 185.507 93.7482C185.799 93.4496 186.079 93.1447 186.348 92.8314C186.603 92.5348 186.845 92.2299 187.073 91.9209C187.011 92.4913 186.978 93.0679 186.973 93.6445ZM199.453 91.1347C199.898 92.0163 200.439 92.8377 201.064 93.5802C199.971 93.3936 198.8 93.072 197.551 92.6136C197.1 92.4477 196.628 92.259 196.147 92.0432C197.326 91.9893 198.465 91.6865 199.453 91.1347ZM212.732 83.9477C212.164 88.9403 209.165 92.2278 206.342 93.2484C205.977 93.379 205.602 93.4869 205.215 93.5678C205.532 90.6473 205.008 87.4862 203.68 84.4517C203.585 84.2339 203.467 84.0099 203.334 83.7859C203.368 83.2341 203.368 82.728 203.351 82.2966C203.256 79.7225 202.578 77.7458 201.336 76.4017C201.566 76.213 201.806 76.0325 202.056 75.8562C202.442 75.9454 202.825 76.0533 203.204 76.1798C206.207 77.1816 209.078 79.3264 211.508 82.3796C211.696 82.616 211.882 82.8587 212.067 83.0993C212.286 83.3814 212.506 83.6656 212.732 83.9477ZM181.24 88.6727C181.166 89.6247 180.95 90.5685 180.606 91.4604C179.701 90.1059 179.043 88.4445 178.668 86.5611C179.681 87.032 180.555 87.787 181.24 88.6727ZM199.186 90.5726C197.916 91.2965 196.362 91.562 194.807 91.3754C194.623 91.2737 194.438 91.1659 194.256 91.0559C194.925 89.8944 195.401 88.7266 195.72 87.7994C195.944 87.1481 196.153 86.4782 196.354 85.8186C196.903 86.4077 197.52 86.9304 198.193 87.368C198.399 88.4839 198.734 89.5625 199.186 90.5726ZM192.877 90.8796C192.879 90.8858 192.881 90.8941 192.883 90.9004C192.191 90.639 191.522 90.2843 190.907 89.8342C190.258 89.3613 189.664 88.7971 189.13 88.1521C189.279 87.7538 189.411 87.3493 189.523 86.947C189.55 86.9324 189.579 86.92 189.606 86.9075C189.608 86.9075 189.61 86.9055 189.612 86.9055C190.219 88.3968 191.323 89.7347 192.877 90.8796ZM195.876 85.2606C195.642 86.0364 195.399 86.8308 195.136 87.5962C194.83 88.486 194.372 89.6102 193.734 90.722C193.624 90.6494 193.515 90.5726 193.407 90.4959C192.993 89.2265 192.336 88.0359 191.47 87.0216C191.215 86.7229 190.743 86.165 190.01 86.1836C189.942 85.97 189.886 85.7522 189.84 85.5323C190.033 84.3895 190.074 83.2487 189.958 82.1431C190.447 80.2722 191.605 78.5091 193.262 77.3351C193.645 77.0634 194.053 76.8228 194.482 76.6112C193.753 77.8246 193.593 79.4363 193.852 80.8675C194.136 82.4667 194.853 83.9871 195.876 85.2606ZM202.703 83.9477C202.556 85.8953 201.955 88.3657 200.041 89.9774C199.935 90.0665 199.826 90.1516 199.714 90.2325C199.372 89.4546 199.105 88.6353 198.914 87.7891C198.956 87.8098 198.997 87.8326 199.039 87.8534L199.32 87.2996C199.13 87.2021 198.943 87.0984 198.761 86.9884C198.591 85.9451 198.539 84.8686 198.612 83.7817C198.649 83.2196 198.891 82.7135 199.275 82.3899C199.625 82.0954 200.033 82 200.488 82.1058C201.319 82.2966 202.152 83.0993 202.703 83.9477ZM190.256 86.8349C190.511 86.9117 190.739 87.1191 190.998 87.424C191.592 88.1209 192.081 88.905 192.452 89.743C191.532 88.934 190.754 87.9737 190.256 86.8349ZM215.524 71.656C216.568 71.656 217.806 71.8945 219.25 72.3716C222.257 73.3651 226.398 75.0991 227.647 78.673C228.14 80.0876 228.165 81.7573 227.717 83.6407C227.367 85.1113 226.437 87.7704 224.13 89.0668C222.342 90.0707 219.542 89.8633 218.382 87.9612L217.767 86.9511C218.43 86.9386 219.084 86.7623 219.662 86.36C220.404 85.8435 220.874 85.0428 221.238 84.3252C222.139 82.5497 223.43 79.1127 221.955 76.0553C220.971 74.0143 218.821 72.4815 216.203 71.9547C215.631 71.8406 215.058 71.7742 214.49 71.7452C214.811 71.685 215.155 71.656 215.524 71.656ZM173.603 86.7022C173.512 87.0776 173.429 87.4551 173.355 87.8347C173.15 87.5962 172.955 87.3535 172.773 87.1025C173.059 86.9511 173.334 86.8183 173.603 86.7022ZM178.469 82.4625C179.759 82.7903 180.588 84.2028 180.944 85.4722C181.149 86.2085 181.257 86.9718 181.271 87.7393C180.486 86.8972 179.55 86.2417 178.548 85.8476C178.405 84.9039 178.32 83.7091 178.469 82.4625ZM172.224 87.4053C172.234 87.4199 172.243 87.4323 172.253 87.4468C172.232 87.4385 172.212 87.4323 172.193 87.424C172.203 87.4178 172.214 87.4116 172.224 87.4053ZM188.989 86.5446C188.759 86.7084 188.56 86.92 188.401 87.171C187.524 85.8518 186.855 84.2816 186.431 82.5248C187.04 82.4024 187.618 82.1535 188.121 81.7739C188.502 81.4877 188.823 81.1433 189.08 80.7513C189.192 81.1952 189.275 81.6474 189.328 82.1078C189.049 83.2487 188.997 84.4226 189.208 85.5406C189.148 85.8767 189.074 86.2106 188.989 86.5446ZM173.809 85.9472C173.363 86.1173 172.903 86.3288 172.421 86.586C172.108 86.0924 171.847 85.5717 171.659 85.0159C170.772 82.4065 171.485 79.3181 173.84 75.5721C178.077 68.8288 182.39 69.2541 183.61 69.5444C183.929 69.6212 184.233 69.7228 184.523 69.8473C183.102 70.9176 182.042 72.1185 181.356 73.4336C180.78 74.5391 180.461 75.8417 180.49 77.1256C180.105 77.4368 179.757 77.7914 179.461 78.1835C178.622 79.2932 178.166 80.5439 177.945 81.7718C175.961 81.7345 174.492 83.7402 173.809 85.9472ZM200.136 81.4379C199.674 81.4379 199.246 81.5976 198.875 81.9108C198.363 82.3422 198.042 83.008 197.993 83.7382C197.928 84.6778 197.955 85.6091 198.067 86.5217C197.518 86.1131 197.015 85.6423 196.568 85.1237C197.336 82.5828 198.144 79.9714 199.807 77.9325C200.128 77.5384 200.482 77.165 200.87 76.8124C202.019 78.0466 202.645 79.8947 202.734 82.3236C202.742 82.5206 202.744 82.7343 202.744 82.9624C202.152 82.2593 201.404 81.6806 200.631 81.5001C200.462 81.4566 200.298 81.4379 200.136 81.4379ZM213.788 72.3508C214.546 72.3508 215.317 72.4131 216.081 72.5665C218.508 73.054 220.495 74.4603 221.396 76.3271C222.755 79.1438 221.532 82.3713 220.685 84.0451C220.358 84.6923 219.938 85.412 219.308 85.8497C218.057 86.7188 216.28 86.2687 215.159 85.4805C214.484 85.0076 213.908 84.3957 213.372 83.7465C213.428 83.2092 213.452 82.6679 213.45 82.1265C213.426 78.5029 212.255 75.1323 210.215 72.7366C210.749 72.6329 211.319 72.5375 211.905 72.467L211.445 72.8963L212.45 72.7366C212.705 72.6951 212.902 72.5665 213.02 72.3716C213.272 72.3571 213.529 72.3508 213.788 72.3508ZM176.406 85.4307C176.404 85.4307 176.402 85.4307 176.4 85.4307C175.799 85.4307 175.19 85.5199 174.552 85.7004C175.107 84.2007 176.211 82.4231 177.854 82.392C177.713 83.5681 177.771 84.6985 177.889 85.6319C177.402 85.4992 176.905 85.4307 176.406 85.4307ZM200.416 76.3789C200.018 76.744 199.656 77.1298 199.324 77.5363C197.676 79.5566 196.845 82.0622 196.095 84.5305C195.277 83.4125 194.703 82.1161 194.459 80.7575C194.055 78.5091 194.71 76.941 195.735 76.0968C196.746 75.7608 197.831 75.5762 198.943 75.5451C199.382 75.6861 199.809 75.9102 200.205 76.2109C200.277 76.2628 200.348 76.3208 200.416 76.3789ZM209.513 72.8818C211.601 75.1779 212.804 78.5195 212.827 82.1307C212.829 82.4376 212.823 82.7405 212.806 83.0371C212.723 82.9313 212.643 82.8234 212.56 82.7177C212.371 82.4729 212.185 82.2302 211.994 81.9896C209.49 78.841 206.52 76.6278 203.401 75.5887C203.189 75.5181 202.976 75.4538 202.763 75.3937C204.478 74.3441 206.626 73.5331 209.24 72.942C209.331 72.9212 209.422 72.9005 209.513 72.8818ZM185.675 81.9875C184.89 82.0124 184.084 81.7988 183.374 81.3487C181.957 80.4526 181.263 78.9696 181.145 77.4036C181.934 76.8373 182.876 76.4598 183.848 76.3416C184.428 76.2711 184.991 76.3001 185.511 76.4225C185.186 78.3204 185.356 80.1519 185.561 81.3736C185.596 81.5831 185.633 81.7863 185.675 81.9875ZM188.827 79.9196C188.597 80.4298 188.251 80.8986 187.746 81.2782C187.315 81.6038 186.818 81.8175 186.294 81.9191C186.251 81.7075 186.211 81.4918 186.174 81.274C185.979 80.1187 185.818 78.3971 186.108 76.6154C186.456 76.7564 186.777 76.9452 187.065 77.1775C187.758 77.7396 188.324 78.5879 188.744 79.6976C188.775 79.7702 188.802 79.8449 188.827 79.9196ZM195.399 75.5534C194.498 75.8645 193.655 76.2897 192.901 76.8249C191.468 77.8391 190.383 79.2683 189.741 80.8426C189.67 80.5377 189.589 80.239 189.492 79.9424C189.929 78.812 189.971 77.3953 189.596 75.7774C189.335 74.647 188.84 73.3838 188.102 72.245C189.705 70.4758 192.276 69.3578 195.751 68.9243C201.201 68.2439 206.01 69.4947 209.003 72.3591C206.106 73.0229 203.765 73.9583 201.93 75.1925C200.967 74.9913 199.991 74.9042 199.034 74.9208C198.289 74.6988 197.514 74.6781 196.777 74.8751C196.24 75.0162 195.783 75.2505 195.399 75.5534ZM187.688 72.7449C188.324 73.7737 188.755 74.9021 188.991 75.9164C189.175 76.7087 189.341 77.8682 189.123 78.9758C188.686 78.0009 188.129 77.2335 187.458 76.6921C187.092 76.3955 186.677 76.1611 186.23 75.9931C186.483 74.8689 186.932 73.7426 187.688 72.7449ZM184.465 75.6841C184.237 75.6841 184.005 75.6986 183.771 75.7276C182.837 75.8417 181.928 76.1715 181.13 76.6693C181.168 75.6426 181.441 74.6138 181.905 73.7219C182.587 72.4151 183.672 71.2225 185.142 70.1625C186.012 70.6707 186.737 71.3905 187.321 72.2015C186.437 73.3091 185.917 74.564 185.631 75.8168C185.258 75.7276 184.869 75.6841 184.465 75.6841ZM201.23 75.6944C201.114 75.7836 201.002 75.8749 200.89 75.9662C200.789 75.879 200.687 75.794 200.58 75.7131C200.524 75.6716 200.468 75.6301 200.412 75.5907C200.685 75.6156 200.957 75.6509 201.23 75.6944ZM212.504 71.7804C211.516 71.8613 210.576 72.021 209.724 72.1994C209.697 72.1724 209.672 72.1455 209.646 72.1185C206.534 68.9761 201.441 67.5864 195.673 68.3061C192.114 68.75 189.449 69.8971 187.738 71.7203C187.176 70.9653 186.499 70.2891 185.702 69.7747C186.172 69.4656 186.675 69.1711 187.214 68.8869C194.962 64.8008 204.877 65.5661 211.887 70.7931C212.21 71.0316 212.45 71.4693 212.504 71.7804Z" fill="url(#paint8_linear)"/>
<path d="M69.1037 128.19C69.1472 127.444 68.6584 126.838 68.4057 126.568H67.2976C67.1008 126.944 66.8191 127.493 66.5022 128.17C65.8435 129.574 65.5184 130.281 65.6675 130.447C66.0818 130.91 69.0002 129.935 69.1037 128.19Z" fill="#1D1D1D"/>
<path d="M67.9716 125.213L67.431 127.059C67.4745 127.156 68.0379 127.482 68.5184 127.27L69.3262 125.478L67.9716 125.213Z" fill="url(#paint9_linear)"/>
<path d="M101.513 111.621C102.675 115.313 100.563 113.823 96.267 111.741C91.7433 109.548 81.8655 106.425 77.6505 110.64C74.5104 113.778 76.7826 118.689 71.9276 124.147C71.0721 125.107 70.2602 125.781 69.7527 126.171C68.8683 125.812 67.9839 125.453 67.0994 125.095C66.739 123.074 65.5936 115.282 70.4466 108.262C71.6189 106.566 73.8518 103.307 77.6981 101.907C88.1021 98.1238 100.443 108.215 101.513 111.621Z" fill="#285552"/>
<path d="M98.8977 84.5925C97.1392 84.0075 94.4548 83.3293 91.1553 83.3542C86.9713 83.3853 83.6594 86.061 82.5119 87.9361C79.9808 92.0741 89.7013 99.4686 86.9382 102.638C86.379 103.279 85.5815 103.312 85.5877 103.793C85.6043 105.148 91.8865 104.127 96.1968 107.942C98.8811 110.317 99.9954 113.853 101.884 113.557C102.408 113.474 102.982 113.098 104.523 112.822C105.652 112.619 105.93 112.708 106.236 112.596C107.429 112.156 107.933 108.56 106.52 102.287C105.571 98.0685 103.573 91.8252 98.8977 84.5925Z" fill="#F2F2F2"/>
<path d="M88.1325 80.5771C88.1325 80.9609 89.0998 82.8816 90.3944 83.8067C91.7013 84.7401 93.3356 84.6778 93.8223 84.794C94.9532 85.0657 95.0982 85.0574 95.1251 85.1694C95.2515 85.717 92.1839 87.6045 88.9983 87.1772C87.0493 86.9159 85.2701 85.8166 85.3736 85.2316C85.4793 84.6426 87.4262 84.9454 87.9979 83.8772C88.3956 83.1346 87.9358 82.0872 87.3952 81.2201C87.9089 80.2432 87.623 81.552 88.1325 80.5771Z" fill="url(#paint10_linear)"/>
<path d="M84.4242 83.5496C83.7448 83.199 83.256 82.2511 83.4403 81.4111C83.5998 80.6893 84.2088 80.3035 84.5733 80.0711C85.6318 79.3991 87.2701 79.1855 88.2602 79.9799C88.8463 80.4507 88.8298 82.0271 88.8401 82.303C88.8526 82.6162 88.6931 82.8029 88.5999 83.0891C88.4714 83.4853 88.2726 84.1138 87.9557 85.155C87.8024 84.9683 87.5953 84.7422 87.3343 84.5162C87.2328 84.429 86.8331 84.093 86.3712 83.8794C85.4453 83.4479 85.0684 83.8814 84.4242 83.5496Z" fill="#1D1D1D"/>
<path d="M88.6121 84.0919C88.6121 84.0919 88.4588 85.6579 86.9468 86.2719C85.5922 86.8215 83.9787 83.9654 84.5152 82.9345C84.6954 82.5902 85.2132 82.2334 85.731 82.1401C86.0355 82.0861 86.1825 82.1525 86.6796 82.055C87.1394 81.9638 87.2327 81.8621 87.4046 81.9078C87.6221 81.9638 87.8872 82.2272 88.0446 83.2124C88.173 82.837 88.4257 82.5943 88.6888 82.5922C88.7302 82.5922 88.8503 82.6088 88.9456 82.6794C89.2915 82.9262 89.19 83.5049 88.6121 84.0919Z" fill="url(#paint11_linear)"/>
<path d="M76.773 127.657L75.7208 128.006C75.7208 128.006 73.6558 130.126 73.459 131.246C73.3264 131.994 74.6313 131.553 75.5095 131.179C76.0481 130.951 76.4851 130.54 76.7544 130.022C77.1686 129.223 77.5829 128.062 76.773 127.657Z" fill="#1D1D1D"/>
<path opacity="0.3" d="M86.9361 102.636C87.3814 102.125 87.4995 101.433 87.396 100.613C87.0231 99.6591 85.7286 96.0314 87.4975 92.7085C87.7916 92.1568 89.1006 89.6947 90.9647 89.6698C92.1868 89.6532 93.3488 90.6862 94.6495 91.8394C95.9192 92.9657 96.0808 93.4905 96.4909 93.4676C97.1765 93.4262 98.0858 91.883 98.8915 84.5859C98.8935 84.5859 98.8956 84.588 98.8977 84.588C103.573 91.8207 105.571 98.0641 106.52 102.281C107.933 108.555 107.429 112.152 106.236 112.59C105.93 112.702 105.652 112.615 104.523 112.816C102.982 113.092 102.406 113.467 101.884 113.55C99.9975 113.847 98.8832 110.31 96.1968 107.935C91.8865 104.123 85.6043 105.141 85.5877 103.787C85.5815 103.31 86.3769 103.277 86.9361 102.636Z" fill="white"/>
<path d="M76.4208 126.15L75.8802 127.996C75.9237 128.094 76.4871 128.42 76.9676 128.208L77.7754 126.416L76.4208 126.15Z" fill="url(#paint12_linear)"/>
<path d="M107.1 107.506C108.046 109.444 107.255 112.009 106.017 113.598C103.376 116.985 97.3877 116.674 93.6428 115.457C89.084 113.976 88.0483 111.227 86.265 111.918C83.4936 112.991 85.5193 119.829 80.5421 125.425C79.6866 126.386 78.8747 127.06 78.3673 127.45C77.4828 127.091 76.5984 126.732 75.714 126.373C75.5338 122.438 76.0495 119.242 76.559 117.062C77.2778 113.984 77.9986 110.906 80.4613 107.853C81.4741 106.596 83.2534 104.368 86.3126 103.184C89.0032 102.142 92.1474 102.763 98.3259 104.047C105.747 105.592 106.671 106.627 107.1 107.506Z" fill="#376562"/>
<path d="M91.7827 89.3972L91.8291 89.4902L91.5745 89.6178L91.5281 89.5248L91.7827 89.3972Z" fill="#B3B3B3"/>
<path d="M98.8752 84.5699C98.8752 84.5699 104.727 86.7395 105.377 94.7707C106.027 102.802 101.187 103.526 99.1631 104.25C97.1395 104.974 93.8897 104.322 91.9385 100.197C89.9874 96.0733 88.579 87.7164 88.579 87.7164L89.6622 87.2829C89.6622 87.2829 94.538 96.7246 96.9241 96.0733C99.3081 95.422 96.4912 89.1269 96.4912 89.1269C95.3416 85.3477 96.0707 83.7505 98.8752 84.5699Z" fill="white"/>
<path d="M84.4596 85.7656C84.4596 85.7656 79.7992 89.5635 79.5838 93.687C79.3684 97.8105 80.6671 100.849 81.3174 100.633C81.9678 100.416 84.5693 92.3865 84.5693 92.3865L84.4596 85.7656Z" fill="#F2F2F2"/>
<path d="M84.028 87.9348C84.028 87.9348 84.4194 85.7548 85.3743 85.7755C86.3291 85.7963 86.1634 86.6177 85.6705 86.7836C85.1775 86.9475 84.5209 87.9348 84.5209 87.9348H84.028Z" fill="url(#paint13_linear)"/>
<path d="M84.6789 87.9346L83.8111 87.7168C83.8111 87.7168 81.5348 91.5146 80.8844 93.2508C80.234 94.9869 78.8028 101.282 81.7523 101.282C86.5224 101.284 84.6789 87.9346 84.6789 87.9346Z" fill="white"/>
<path d="M89.4707 87.3596C89.4707 87.3596 88.6484 85.5197 87.9628 85.5343C87.2773 85.5467 86.8444 86.198 87.4947 86.6336C88.1451 87.0671 88.839 87.6147 88.839 87.6147C88.839 87.6147 89.2801 87.6541 89.4707 87.3596Z" fill="url(#paint14_linear)"/>
<path d="M99.49 222.509C99.49 222.509 103.102 223.816 103.941 224.301C104.78 224.787 103.036 224.899 101.955 224.834C100.874 224.768 98.6967 224.855 98.2908 224.395C97.8827 223.934 98.6242 222.457 99.49 222.509Z" fill="#1D1D1D"/>
<path d="M99.4192 221.097L99.7465 222.567C99.8044 222.833 99.6346 223.092 99.3695 223.146L99.1313 223.194C98.9179 223.237 98.7025 223.131 98.6052 222.936L97.903 221.53L99.4192 221.097Z" fill="url(#paint15_linear)"/>
<path d="M95.5165 187.453C96.2352 189.582 97.1611 192.792 97.6831 196.787C98.2879 201.407 97.944 203.954 98.116 208.509C98.2361 211.701 98.6255 216.237 99.8496 221.748C99.1267 221.893 98.4039 222.039 97.6831 222.182C96.2187 220.251 94.2717 217.197 93.1325 213.066C92.5774 211.054 92.7825 210.848 92.0492 207.206C91.751 205.731 91.3636 204.01 89.2323 196.136C87.5256 189.83 87.1486 188.63 87.9316 187.671C89.398 185.875 93.3935 186.81 95.5165 187.453Z" fill="#285552"/>
<path d="M78.031 223.378C78.031 223.378 81.6433 224.685 82.4822 225.17C83.3211 225.656 81.5771 225.768 80.4959 225.703C79.4147 225.637 77.2378 225.724 76.8318 225.264C76.4258 224.803 77.1653 223.326 78.031 223.378Z" fill="#1D1D1D"/>
<path d="M79.2614 222.182C79.4416 222.302 78.3935 223.918 78.3935 223.918C78.3935 223.918 77.7431 224.136 77.3103 223.918V221.964C77.3103 221.964 78.611 221.748 79.2614 222.182Z" fill="url(#paint16_linear)"/>
<path d="M90.5308 187.887C90.5474 189.868 90.4293 192.934 89.663 196.57C88.6853 201.212 87.223 204.041 84.8949 209.376C83.5548 212.446 81.6264 217.03 79.4765 222.833C78.6086 222.761 77.7428 222.688 76.875 222.616C76.469 220.251 76.1811 216.783 77.0925 212.848C77.979 209.021 79.4827 206.978 80.5598 204.601C82.1319 201.133 83.3456 195.734 81.4276 187.454C81.5374 187.232 82.689 184.996 85.1124 184.633C87.2831 184.305 89.5469 185.616 90.5308 187.887Z" fill="#376562"/>
<path d="M106.354 165.531C105.537 167.084 99.8042 159.893 97.6832 158.584C95.0734 156.975 96.3825 168.785 96.3825 168.785L103.319 173.994L106.354 165.531Z" fill="white"/>
<path opacity="0.15" d="M106.354 165.531C105.537 167.084 99.8042 159.893 97.6832 158.584C95.0734 156.975 96.3825 168.785 96.3825 168.785L103.319 173.994L106.354 165.531Z" fill="url(#paint17_linear)"/>
<path d="M98.9864 162.058C98.1062 165.783 97.6815 169.042 97.4703 171.608C97.0871 176.26 96.7868 179.873 97.6878 184.414C98.5825 188.927 100.014 191.093 98.9885 192.01C97.6691 193.19 94.8149 190.045 90.3182 190.925C88.2904 191.321 88.2821 192.076 85.3327 192.879C82.9217 193.534 80.1317 194.295 78.831 193.096C77.7042 192.059 78.3132 190.122 79.9143 183.329C81.6148 176.111 81.1156 177.496 82.5158 172.043C84.5725 164.029 85.2664 162.537 86.418 160.973C86.418 160.973 88.7772 157.767 92.2693 156.416C93.7772 155.833 94.7901 155.904 95.3037 155.983C95.5916 156.026 96.6169 156.192 97.4703 156.852C98.8435 157.91 99.3862 159.951 98.9864 162.058Z" fill="white"/>
<path d="M97.0358 154.461C97.0358 154.461 95.9525 155.981 94.8692 156.197C93.786 156.415 97.6861 157.066 98.1211 158.584C98.1211 158.584 97.9761 157.572 97.6882 157.083C97.5722 156.886 97.5577 156.645 97.6489 156.436L98.1211 155.33L97.0358 154.461Z" fill="url(#paint18_linear)"/>
<path d="M99.6698 153.26C100.055 152.748 100.078 151.854 99.6346 151.29C99.2535 150.804 98.6528 150.734 98.2924 150.692C97.2506 150.572 95.9353 151.008 95.4796 151.968C95.2083 152.536 95.7945 153.719 95.8856 153.932C95.9892 154.173 96.1776 154.256 96.3516 154.436C96.594 154.687 96.9709 155.09 97.5882 155.76C97.6358 155.563 97.7083 155.318 97.8243 155.052C97.8699 154.951 98.048 154.55 98.3193 154.221C98.8641 153.557 99.3053 153.746 99.6698 153.26Z" fill="#1D1D1D"/>
<path d="M96.7092 155.194C96.7092 155.194 97.3948 156.318 98.7577 156.231C99.9776 156.152 100.158 153.41 99.377 152.827C99.116 152.632 98.5961 152.554 98.1715 152.672C97.9209 152.742 97.8359 152.846 97.4258 152.954C97.0468 153.053 96.9391 153.01 96.8252 153.107C96.6822 153.228 96.5766 153.524 96.8169 154.325C96.5849 154.089 96.3053 153.997 96.1064 154.093C96.0754 154.107 95.9904 154.165 95.9428 154.25C95.773 154.564 96.0588 154.962 96.7092 155.194Z" fill="url(#paint19_linear)"/>
<path d="M96.7726 152.942C96.8306 152.985 96.6525 153.205 96.638 153.516C96.6111 154.12 97.2221 154.846 97.8455 154.908C98.2142 154.945 98.3157 154.721 98.9247 154.657C99.3016 154.618 99.6165 154.665 99.8132 154.709C100.004 155.373 99.8236 156.032 99.3824 156.339C98.906 156.669 98.2971 156.47 98.0444 156.385C97.8745 156.329 97.3298 156.151 97.044 155.651C96.7478 155.128 97.0377 154.815 96.698 154.462C96.5261 154.284 96.3004 154.207 96.0808 153.863C96.0208 153.769 95.9814 153.686 95.9565 153.63C96.2693 153.296 96.6877 152.88 96.7726 152.942Z" fill="#1D1D1D"/>
<path d="M99.3687 154.955C99.3687 154.955 99.1056 155.092 98.65 155.067C98.6272 155.065 98.6044 155.074 98.6003 155.084C98.5899 155.127 98.882 155.32 99.1512 155.246C99.3418 155.192 99.4909 155.011 99.466 154.964C99.4536 154.945 99.4101 154.947 99.3687 154.955Z" fill="url(#paint20_linear)"/>
<path d="M129.737 149.786C132.859 150.425 136.603 151.192 139.497 154.332C142.554 157.649 143.528 162.386 144.28 166.047C144.553 167.375 144.87 168.916 144.936 170.604C145.17 176.566 142.244 183.228 137.37 187.544C130.367 193.746 120.011 194.501 112.016 190.83C110.305 190.044 100.708 185.387 98.7739 174.566C96.8104 163.583 104.447 155.815 105.253 155.023C113.884 146.54 126.023 149.024 129.737 149.786Z" fill="url(#paint21_linear)"/>
<path opacity="0.3" d="M117.096 182.033C119.673 179.243 115.837 174.628 118.598 168.573C122.161 160.76 131.972 160.946 132.67 155.751C132.854 154.382 132.43 152.434 129.82 149.802C132.925 150.436 136.628 151.218 139.497 154.332C142.554 157.648 143.528 162.386 144.28 166.047C144.553 167.374 144.87 168.915 144.936 170.604C145.17 176.565 142.244 183.227 137.37 187.544C130.367 193.746 120.011 194.501 112.016 190.829C110.64 190.199 104.174 187.063 100.684 180.239C110.992 184.478 115.321 183.953 117.096 182.033Z" fill="url(#paint22_linear)"/>
<path d="M115.03 152.587C115.231 151.332 115.612 150.059 116.685 149.289C116.77 149.229 116.882 149.37 116.799 149.436C115.73 150.287 115.477 151.764 115.341 153.047C115.2 154.375 115.159 155.75 115.245 157.08C115.471 160.562 116.584 164.014 117.743 167.283C119.98 173.588 123.154 179.753 127.543 184.837C129.007 186.533 131.797 189.786 134.34 188.898C134.647 188.79 134.78 189.277 134.475 189.385C132.182 190.194 129.8 187.946 128.334 186.463C126.02 184.127 124.1 181.354 122.42 178.539C120.546 175.395 118.972 172.064 117.69 168.633C116.36 165.069 115.123 161.29 114.823 157.478C114.699 155.875 114.773 154.178 115.03 152.587Z" fill="#FD8947"/>
<path d="M111.608 153.899C111.965 153.057 112.391 152.227 112.859 151.443C113.261 150.769 113.543 150.335 114.131 149.804C114.222 149.721 114.436 149.715 114.349 149.804C113.887 150.271 113.657 150.707 113.338 151.277C112.932 152.005 112.551 152.75 112.213 153.513C111.443 155.249 111.122 157.072 111.045 158.964C110.912 162.264 111.61 165.496 112.725 168.586C113.93 171.926 115.695 174.879 117.574 177.872C119.326 180.666 121.149 183.423 123.292 185.935C125.324 188.316 128.377 191.382 131.619 190.759C129.291 190.309 127.101 188.704 125.442 187.161C122.998 184.889 121.043 182.133 119.316 179.293C117.526 176.352 115.979 173.266 114.645 170.09C113.311 166.908 112.211 163.737 112.116 160.256C112.066 158.398 112.259 156.529 112.646 154.712C112.841 153.805 113.087 152.901 113.446 152.045C113.798 151.204 114.498 150.713 114.564 149.804C114.572 149.692 114.777 149.473 114.782 149.587C114.808 150.296 114.581 150.522 114.266 151.13C113.752 152.123 113.408 153.179 113.151 154.266C112.658 156.348 112.437 158.501 112.536 160.64C112.741 165.006 114.543 169.094 116.399 172.988C118.197 176.763 120.297 180.482 122.909 183.759C125.301 186.756 128.524 189.957 132.509 190.492C132.659 190.432 132.808 190.365 132.957 190.286C132.487 190.16 132.004 190.091 131.548 189.901C130.751 189.569 129.964 189.11 129.253 188.623C128.011 187.766 126.923 186.7 125.886 185.607C123.647 183.249 121.689 180.631 119.966 177.872C116.571 172.434 113.978 166.269 113.354 159.839C112.994 156.114 113.431 152.793 115.262 149.495C115.299 149.429 115.415 149.472 115.388 149.549C114.707 151.437 113.891 153.285 113.69 155.301C113.485 157.346 113.665 159.483 113.982 161.507C114.599 165.467 115.927 169.327 117.679 172.923C119.423 176.501 121.586 179.907 124.104 182.989C125.316 184.47 126.61 185.914 128.044 187.186C128.765 187.824 129.531 188.403 130.37 188.876C130.896 189.171 131.476 189.507 132.05 189.683C132.195 189.726 133.23 190.031 133.33 189.907C133.485 189.712 133.752 189.986 133.603 190.181L133.595 190.191C133.628 190.274 133.615 190.376 133.516 190.438C133.276 190.587 133.033 190.712 132.795 190.817C132.766 190.855 132.723 190.88 132.656 190.878C129.951 191.989 127.344 190.5 125.196 188.577C122.59 186.246 120.48 183.242 118.584 180.324C114.579 174.155 110.612 167.551 110.6 159.943C110.6 157.912 110.811 155.786 111.608 153.899Z" fill="#FD8947"/>
<path d="M107.758 187.64C111.569 186.555 114.894 184.052 117.764 181.387C120.604 178.75 123.073 175.728 125.235 172.517C127.53 169.109 129.519 165.475 131.076 161.669C131.828 159.831 132.483 157.95 133.015 156.038C133.303 155.003 133.599 153.935 133.707 152.862C133.781 152.12 133.773 151.398 134.011 150.684C134.067 150.514 134.334 150.585 134.283 150.759C133.879 152.109 133.991 153.63 133.672 155.021C133.307 156.608 132.831 158.174 132.286 159.707C131.153 162.899 129.709 165.984 128.021 168.919C124.999 174.17 121.254 179.126 116.602 183.038C114.022 185.207 111.155 187.163 107.886 188.097C107.59 188.18 107.466 187.723 107.758 187.64Z" fill="url(#paint23_linear)"/>
<path d="M109.135 188.952C109.572 188.792 109.976 188.844 110.43 188.734C110.954 188.608 111.443 188.288 111.905 188.021C112.862 187.467 113.754 186.847 114.603 186.135C116.053 184.922 117.377 183.549 118.696 182.196C121.393 179.425 123.951 176.509 126.198 173.358C128.427 170.233 130.364 166.852 131.894 163.33C133.576 159.463 134.357 154.921 134.527 150.721C134.533 150.559 134.773 150.559 134.778 150.721C135.074 163.883 126.474 175.213 117.576 184.028C116.35 185.241 115.109 186.449 113.705 187.457C112.98 187.977 112.203 188.463 111.403 188.859C110.674 189.22 110.007 189.158 109.255 189.386C108.976 189.469 108.868 189.05 109.135 188.952Z" fill="url(#paint24_linear)"/>
<path d="M110.434 189.743C114.285 188.419 117.083 185.273 119.831 182.415C122.553 179.581 125.171 176.634 127.443 173.423C129.757 170.152 131.7 166.622 133.032 162.836C134.405 158.933 134.914 154.975 135.177 150.866C135.188 150.704 135.42 150.704 135.428 150.866C135.78 157.219 133.659 163.826 130.588 169.314C127.458 174.904 123.17 179.693 118.703 184.236C116.312 186.665 113.848 189.058 110.558 190.187C110.277 190.28 110.157 189.836 110.434 189.743Z" fill="url(#paint25_linear)"/>
<path d="M111.965 190.55C113.781 189.497 115.38 188.157 116.955 186.775C118.34 185.562 119.765 184.392 121.112 183.135C123.906 180.53 126.435 177.628 128.552 174.442C130.735 171.157 132.323 167.589 133.69 163.899C134.376 162.053 135.02 160.168 135.472 158.247C135.729 157.15 135.915 156.019 135.948 154.893C135.981 153.808 135.741 152.74 135.878 151.659C135.9 151.477 136.174 151.462 136.172 151.659C136.163 153.3 136.478 154.841 136.263 156.49C136.052 158.106 135.61 159.674 135.117 161.225C134.156 164.247 133.007 167.265 131.605 170.113C128.906 175.591 124.937 180.418 120.376 184.448C117.789 186.736 115.206 189.223 112.207 190.963C111.94 191.119 111.7 190.706 111.965 190.55Z" fill="url(#paint26_linear)"/>
<path d="M98.7795 174.12C99.9725 173.006 101.445 172.311 102.949 171.716C104.863 170.959 106.818 170.331 108.817 169.845C112.818 168.872 116.938 168.186 121.037 167.788C125.267 167.377 129.587 167.412 133.819 167.808C135.853 167.999 137.926 168.25 139.88 168.866C140.868 169.177 141.833 169.555 142.823 169.86C143.736 170.14 144.517 170.573 145.397 170.94C145.515 170.99 145.47 171.181 145.344 171.138C143.612 170.534 141.899 169.92 140.147 169.36C138.1 168.707 135.952 168.418 133.819 168.223C129.861 167.862 125.818 167.811 121.858 168.151C117.792 168.499 113.715 169.186 109.736 170.094C107.787 170.54 105.882 171.102 104.007 171.799C102.363 172.411 100.691 173.073 99.347 174.226C99.3698 174.352 99.3014 174.502 99.1337 174.506L98.941 174.512C98.7463 174.516 98.6345 174.255 98.7795 174.12Z" fill="#67C890"/>
<path d="M98.6092 172.166C99.7877 171.112 101.339 170.604 102.82 170.131C104.91 169.463 107.083 169.021 109.229 168.581C113.299 167.745 117.431 167.181 121.577 166.905C129.378 166.385 138.247 166.291 145.349 170.004C145.476 170.071 145.366 170.247 145.24 170.191C137.953 167.013 129.809 166.835 121.99 167.331C117.88 167.592 113.789 168.127 109.751 168.94C107.87 169.318 105.981 169.716 104.129 170.224C103.296 170.452 102.474 170.716 101.664 171.01C101.163 171.193 100.664 171.388 100.192 171.635C99.7422 171.869 99.4418 172.178 98.9137 172.166C99.2099 172.172 99.2119 172.634 98.9137 172.626C98.7376 172.622 98.6713 172.591 98.5719 172.446C98.5201 172.365 98.5367 172.23 98.6092 172.166Z" fill="#67C890"/>
<path d="M98.0303 171.583C99.8219 169.831 102.365 169.128 104.739 168.57C107.856 167.84 111.011 167.282 114.186 166.89C121.108 166.037 128.275 165.77 135.224 166.487C138.679 166.844 142.225 167.385 145.212 169.267C145.344 169.35 145.226 169.553 145.089 169.478C141.487 167.514 137.206 167.029 133.178 166.757C129.025 166.477 124.834 166.522 120.682 166.761C116.363 167.008 112.057 167.52 107.813 168.368C104.642 169.001 100.762 169.551 98.3534 171.907C98.1442 172.112 97.819 171.791 98.0303 171.583Z" fill="#67C890"/>
<path d="M98.1472 170.461C99.2243 169.639 100.181 168.849 101.49 168.422C103.093 167.897 104.705 167.434 106.358 167.09C109.576 166.422 112.822 165.972 116.103 165.767C119.69 165.543 123.255 165.093 126.849 164.91C128.533 164.825 130.229 164.696 131.915 164.759C133.502 164.817 135.082 165.088 136.648 165.327C138.522 165.613 140.271 166.233 142.068 166.812C143.029 167.121 144.26 167.258 145.014 167.988C145.105 168.077 144.985 168.245 144.875 168.169C143.761 167.409 142 167.231 140.722 166.814C138.806 166.19 136.896 165.814 134.906 165.528C130.676 164.918 126.279 165.29 122.037 165.692C117.785 166.094 113.495 166.289 109.282 167.003C107.317 167.337 105.353 167.714 103.441 168.291C102.464 168.586 101.395 168.832 100.494 169.316C99.7235 169.728 99.071 170.33 98.3792 170.857C98.1452 171.039 97.9152 170.639 98.1472 170.461Z" fill="#67C890"/>
<path d="M121.335 149.055C123.369 150.196 124.338 152.799 125.341 154.774C126.898 157.839 128.404 160.928 129.5 164.193C131.685 170.704 133.031 177.302 133.967 184.093C134.127 185.242 134.299 186.395 134.334 187.557C134.359 188.334 134.409 189.367 133.849 189.992C133.646 190.218 133.313 189.884 133.516 189.66C134.255 188.838 133.851 186.878 133.744 185.893C133.609 184.661 133.437 183.431 133.284 182.201C132.758 177.992 131.88 173.834 130.759 169.745C129.645 165.678 128.317 161.724 126.501 157.914C125.774 156.388 125.009 154.878 124.245 153.37C123.493 151.889 122.646 150.184 121.229 149.236C121.122 149.161 121.219 148.989 121.335 149.055Z" fill="#6AC98E"/>
<path d="M122.849 148.844C123.822 149.362 124.454 150.553 124.996 151.476C125.926 153.061 126.705 154.751 127.457 156.425C128.998 159.853 129.939 163.608 131.146 167.165C132.428 170.942 133.379 174.823 134.083 178.747C134.719 182.286 135.506 186.092 134.783 189.672C134.723 189.971 134.265 189.844 134.325 189.546C135.052 185.928 134.212 182.041 133.559 178.471C132.89 174.817 132.006 171.199 130.844 167.669C129.731 164.29 128.774 160.797 127.474 157.489C126.805 155.786 126.001 154.104 125.154 152.482C124.535 151.297 123.839 149.829 122.753 149.008C122.658 148.935 122.737 148.784 122.849 148.844Z" fill="#6AC98E"/>
<path d="M124.157 148.566C126.285 151.389 128.263 154.6 129.57 157.889C130.918 161.287 132.123 164.898 133.004 168.445C133.917 172.131 134.849 175.864 135.406 179.623C135.657 181.317 135.841 183.016 136.106 184.707C136.326 186.107 136.496 187.532 136.082 188.911C135.993 189.206 135.535 189.081 135.622 188.785C136.104 187.104 135.721 185.36 135.452 183.678C135.189 182.027 135.06 180.361 134.787 178.71C134.203 175.18 133.345 171.65 132.467 168.182C131.63 164.882 130.504 161.548 129.29 158.369C128.637 156.657 127.805 155.046 126.867 153.476C125.914 151.883 124.795 150.333 124.041 148.634C124.008 148.553 124.106 148.497 124.157 148.566Z" fill="#6AC98E"/>
<path d="M125.923 148.98C126.797 150.411 128.009 151.573 128.823 153.05C129.674 154.597 130.382 156.25 131.074 157.872C132.476 161.16 133.259 164.563 134.212 167.994C135.183 171.491 136.256 174.97 136.865 178.554C137.416 181.806 137.903 185.604 136.822 188.796C136.733 189.06 136.339 188.956 136.403 188.682C138.042 181.671 135.498 174.453 133.663 167.735C132.717 164.265 131.903 160.853 130.469 157.538C129.821 156.043 129.189 154.512 128.402 153.083C127.625 151.674 126.403 150.552 125.749 149.082C125.695 148.965 125.852 148.866 125.923 148.98Z" fill="#6AC98E"/>
<path d="M105.48 155.231C106.529 156.575 107.214 158.207 108.215 159.601C109.403 161.261 110.766 162.814 112.169 164.295C114.853 167.128 117.848 169.707 121.1 171.868C124.281 173.982 127.701 175.763 131.127 177.448C132.908 178.323 134.791 179.055 136.61 179.85C137.558 180.264 138.527 180.592 139.522 180.872C140.035 181.017 141.411 181.656 141.96 181.447C142.247 181.337 142.372 181.799 142.088 181.907C141.649 182.075 141.173 181.832 140.752 181.706C139.789 181.413 138.807 181.192 137.856 180.853C135.988 180.192 134.192 179.281 132.363 178.512C128.567 176.917 124.812 174.815 121.359 172.575C117.995 170.393 114.909 167.767 112.144 164.866C110.802 163.457 109.522 161.978 108.355 160.418C107.158 158.815 106.33 157.062 105.336 155.341C105.286 155.256 105.414 155.146 105.48 155.231Z" fill="#65C891"/>
<path d="M104.847 155.411C105.785 157.002 106.429 158.738 107.407 160.313C108.457 162.003 109.712 163.555 111.038 165.034C113.625 167.921 116.564 170.466 119.855 172.519C123.209 174.61 126.777 176.444 130.311 178.207C132.219 179.159 134.176 180.115 136.196 180.806C137.055 181.1 137.937 181.316 138.805 181.577C139.717 181.853 140.622 182.266 141.589 182.264C141.879 182.264 141.879 182.714 141.589 182.714C140.8 182.716 140.085 182.459 139.344 182.218C138.385 181.907 137.407 181.665 136.446 181.358C134.512 180.737 132.641 179.839 130.816 178.949C127.028 177.103 123.209 175.129 119.634 172.895C116.32 170.825 113.327 168.257 110.731 165.336C109.474 163.922 108.294 162.42 107.287 160.815C106.231 159.128 105.526 157.297 104.683 155.503C104.636 155.399 104.785 155.308 104.847 155.411Z" fill="#65C891"/>
<path d="M104.245 156.092C104.558 156.351 104.655 156.893 104.784 157.256C105.144 158.282 105.498 159.292 106.058 160.234C107.145 162.059 108.531 163.721 109.927 165.318C112.694 168.485 115.824 171.194 119.363 173.465C122.802 175.67 126.433 177.562 130.14 179.269C132.174 180.204 134.231 181.088 136.304 181.928C137.108 182.254 137.909 182.584 138.719 182.897C139.237 183.098 140.298 183.629 140.824 183.266C141.076 183.092 141.312 183.502 141.064 183.675C140.438 184.11 139.438 183.673 138.812 183.442C137.406 182.922 136.022 182.33 134.641 181.75C131.476 180.416 128.348 178.987 125.306 177.39C119.173 174.171 113.636 170.34 109.135 165.019C108.027 163.71 106.936 162.364 106.041 160.898C105.596 160.168 105.231 159.421 104.947 158.616C104.744 158.04 104.558 156.693 104.1 156.241C104.003 156.144 104.144 156.009 104.245 156.092Z" fill="#65C891"/>
<path d="M103.86 156.729C106.201 164.147 111.609 169.967 117.926 174.308C121.317 176.637 125.018 178.247 128.699 180.045C130.548 180.95 132.392 181.862 134.27 182.704C135.3 183.165 136.336 183.605 137.423 183.912C138.204 184.131 139.206 184.582 140.014 184.382C140.31 184.31 140.437 184.768 140.14 184.841C139.128 185.09 137.897 184.557 136.934 184.262C135.368 183.783 133.873 183.055 132.394 182.362C129.136 180.831 125.83 179.326 122.636 177.668C117.125 174.812 111.965 170.811 108.164 165.87C106.11 163.199 104.341 160.125 103.62 156.8C103.585 156.64 103.81 156.576 103.86 156.729Z" fill="#65C891"/>
<path d="M81.5373 191.362C79.5261 187.991 86.8687 182.926 86.7382 173.129C86.7009 170.315 86.0795 169.562 86.5207 166.834C87.0592 163.518 89.1595 157.353 93.4574 156.849C95.7233 156.583 97.7242 157.998 98.8882 159.052C99.1492 159.96 99.1844 161.002 98.9835 162.059C98.1032 165.785 97.6786 169.043 97.4674 171.609C97.0842 176.261 96.7838 179.875 97.6848 184.415C98.5796 188.928 100.011 191.094 98.9856 192.011C97.6662 193.191 94.812 190.046 90.3153 190.926C88.2875 191.322 88.2792 192.077 85.3297 192.88C85.1164 192.938 84.901 192.996 84.6835 193.054C82.7634 192.741 81.9329 192.025 81.5373 191.362Z" fill="#F2F2F2"/>
<path d="M103.969 178.556C103.969 178.556 104.187 178.556 104.837 177.471C105.487 176.386 105.487 177.253 105.054 177.904C105.054 177.904 105.487 178.122 106.573 177.904C107.656 177.687 107.873 177.904 107.006 178.556C106.138 179.207 103.971 178.989 103.971 178.989V178.556H103.969Z" fill="url(#paint27_linear)"/>
<path d="M103.969 178.121C104.114 178.554 104.259 178.99 104.402 179.424C102.76 180.421 99.7503 181.84 96.3824 181.16C89.6632 179.803 86.3575 171.071 87.2792 165.097C87.3538 164.608 88.232 159.271 90.964 158.802C92.0783 158.611 93.2983 159.264 93.9984 160.105C95.1728 161.515 94.6943 163.222 94.6487 165.531C94.6322 166.408 94.5763 173.031 98.1161 176.165C98.9176 176.876 100.649 178.071 103.969 178.121Z" fill="white"/>
<path d="M264.732 235.76C258.321 235.76 253.124 233.636 253.124 231.016C253.124 228.396 258.321 226.272 264.732 226.272C271.142 226.272 276.339 228.396 276.339 231.016C276.339 233.636 271.142 235.76 264.732 235.76Z" fill="#B7C0CE"/>
<path d="M253.124 230.46C253.124 232.932 258.321 234.938 264.732 234.938C271.142 234.938 276.339 232.932 276.339 230.46C276.339 227.987 271.142 223.938 264.732 223.938C258.321 223.941 253.124 227.987 253.124 230.46Z" fill="white"/>
<path opacity="0.3" d="M253.124 230.46C253.124 227.987 258.321 223.938 264.732 223.938C267.692 223.938 270.392 224.801 272.443 225.975C272.586 226.276 272.654 226.577 272.625 226.861C272.493 228.253 270.227 229.107 268.924 229.389C265.647 230.101 264.048 228.139 261.347 228.213C259.678 228.259 257.362 229.099 254.618 232.658C253.669 232.009 253.124 231.258 253.124 230.46Z" fill="url(#paint28_linear)"/>
<path d="M264.096 226.187C264.56 226.303 264.993 226.299 265.399 226.196C265.768 226.102 266.022 225.76 266.022 225.378V212.271H263.442V225.364C263.442 225.754 263.715 226.092 264.096 226.187Z" fill="white"/>
<path opacity="0.65" d="M264.096 226.187C264.56 226.303 264.993 226.299 265.399 226.196C265.768 226.102 266.022 225.76 266.022 225.378V212.271H263.442V225.364C263.442 225.754 263.715 226.092 264.096 226.187Z" fill="url(#paint29_linear)"/>
<path d="M278.37 206.752L274.426 204.255C274.262 203.321 272.403 193.566 264.857 190.503C261.787 189.256 258.486 189.406 256.673 189.487C253.055 189.648 250.474 189.764 249.233 191.492C247.641 193.712 250.312 195.724 249.759 202.071C249.534 204.659 248.96 205.808 249.675 207.524C250.53 209.577 252.516 210.716 254.061 211.357C255.907 212.431 259.122 213.96 263.368 214.333C270.518 214.962 275.857 211.89 277.693 210.714C278.509 210.457 279.122 209.776 279.296 208.936C279.474 208.088 279.103 207.217 278.37 206.752Z" fill="url(#paint30_linear)"/>
<path d="M255.881 190.009C253.204 190.088 251.541 190.057 250.622 191.254C249.656 192.508 250.632 193.579 250.812 198.051C250.978 202.126 250.259 203.738 251.574 205.997C251.574 205.997 252.243 207.144 253.298 208.007C257.026 211.054 266.647 211.016 270.696 204.655C273.927 199.579 272.579 192.1 268.784 189.623C266.927 188.414 266.5 189.694 255.881 190.009Z" fill="url(#paint31_linear)"/>
<path d="M278.659 204.51L274.715 202.012C274.715 202.012 264.154 198.536 254.379 203.437C253.286 203.987 252.604 205.119 252.604 206.345C252.604 207.285 253.168 208.133 254.035 208.496C255.74 209.662 259.069 211.587 263.656 212.091C270.951 212.891 276.378 209.546 277.981 208.471C278.797 208.214 279.41 207.534 279.584 206.694C279.761 205.845 279.392 204.974 278.659 204.51Z" fill="url(#paint32_linear)"/>
<path d="M272.17 176.583C273.036 176.021 272.246 174.384 272.201 170.87C272.143 166.564 273.286 165.762 272.369 164.073C271.248 162.007 268.425 161.153 266.553 161.113C266.14 161.105 266.043 160.879 262.588 161.775C256.362 163.391 254.802 161.659 252.014 163.389C249.32 165.058 250.5 166.89 247.884 168.848C243.644 172.024 239.185 168.591 236.155 171.248C233.288 173.76 233.222 180.163 236.238 183.656C239.655 187.615 245.819 186.427 249.949 185.641C250.819 185.475 255.208 184.552 259.78 181.173C262.309 179.304 264.044 177.309 265.148 175.838C265.407 175.546 265.811 175.191 266.345 175.135C266.985 175.066 267.501 175.459 267.75 175.631C269.053 176.535 271.319 177.134 272.17 176.583Z" fill="#1D1D1D"/>
<path d="M268.69 174.222C269.805 173.205 273.777 175.163 276.412 177.762C279.506 180.816 279.268 183.29 281.967 187.084C283.309 188.969 282.98 195.949 279.37 193.586C276.861 191.946 275.571 189.772 273.092 185.493C270.604 181.199 267.298 175.493 268.69 174.222Z" fill="white"/>
<path d="M293.787 232.295L290.684 230.428H289.284C289.284 230.428 288.808 232.205 288.862 232.295C289.485 233.317 292.389 234.097 294.201 234.161C294.502 234.172 294.922 234.174 295.03 233.956C295.216 233.585 294.394 232.809 293.787 232.295Z" fill="url(#paint33_linear)"/>
<path d="M290.63 228.391C290.431 229.546 290.683 230.15 290.955 230.486C291.145 230.724 291.315 230.79 292.452 231.774C292.827 232.099 293.02 232.274 292.976 232.365C292.927 232.469 292.595 232.413 291.879 232.24C290.319 231.865 289.536 231.67 289.343 231.292C289.169 230.952 289.323 230.799 289.312 229.872C289.306 229.262 289.182 228.77 289.084 228.461C289.6 228.438 290.114 228.416 290.63 228.391Z" fill="url(#paint34_linear)"/>
<path d="M292.871 219.233C292.871 219.233 294.273 220.907 294.045 222.742C293.817 224.578 291.363 221.894 291.021 220.988C290.679 220.081 290.28 218.789 290.28 218.789C290.28 218.789 291.999 217.717 292.871 219.233Z" fill="url(#paint35_linear)"/>
<path d="M292.338 216.612C292.338 216.612 291.957 218.564 292.684 219.593C293.044 220.105 293.533 220.541 293.388 220.958C293.293 221.238 292.928 221.439 292.619 221.406C292.029 221.346 291.7 220.437 291.47 219.796C291.128 218.85 290.938 216.828 290.938 216.828L292.338 216.612Z" fill="url(#paint36_linear)"/>
<path d="M291.221 218.257C291.652 218.1 292.083 217.942 292.514 217.786C293.187 216.249 294.007 213.723 293.731 210.651C293.027 202.755 285.734 198.571 284.924 198.123C282.938 199.121 280.925 200.529 280.852 202.305C280.761 204.534 283.793 205.713 286.644 208.971C288.354 210.927 290.183 213.841 291.221 218.257Z" fill="#376562"/>
<path d="M290.758 229.295C292.183 223.724 291.818 219.177 291.408 216.559C290.787 212.602 289.523 204.55 284.157 201.546C282.984 200.891 281.309 200.304 279.266 198.481C277.562 196.958 276.476 195.357 275.822 194.231C268.643 192.121 262.021 192.976 259.098 196.832C258.761 197.278 257.916 198.244 257.752 199.669C257.383 202.884 260.538 206.755 264.078 207.564C268.577 208.59 271.186 203.965 275.171 205.504C276.286 205.935 277.232 207.002 279.121 209.136C281.526 211.851 282.879 214.355 283.39 215.356C284.913 218.341 286.068 220.544 286.236 223.398C286.276 224.064 286.298 225.408 287.077 226.856C287.674 227.968 288.483 228.71 289.086 229.168C289.643 229.21 290.201 229.251 290.758 229.295Z" fill="#285552"/>
<path opacity="0.3" d="M257.752 199.665C257.915 198.24 258.76 197.274 259.098 196.828C262.021 192.972 268.642 192.117 275.821 194.227C276.476 195.355 277.559 196.956 279.266 198.477C281.308 200.3 282.984 200.887 284.156 201.543C287.435 203.376 289.179 207.091 290.186 210.609C288.694 208.294 287.418 207.678 286.43 207.668C285.016 207.651 284.384 208.862 282.696 208.696C280.892 208.52 280.48 207.025 279.015 206.855C278.578 206.803 278.04 206.871 277.391 207.215C276.528 206.309 275.883 205.774 275.173 205.5C271.188 203.961 268.578 208.586 264.079 207.56C260.537 206.753 257.383 202.88 257.752 199.665Z" fill="#163A38"/>
<path d="M287.037 204.037C286.225 203.994 284.974 203.969 283.464 204.118C276.302 204.828 274.326 208.374 268.406 209.242C267.006 209.447 260.77 210.357 258.069 206.748C256.13 204.158 256.424 199.692 258.543 197.935C259.44 197.193 260.328 197.213 266.078 197.265C268.243 197.284 270.407 197.292 272.572 197.319C281.735 197.435 283.487 196.8 285.155 198.319C285.933 199.026 287.071 200.546 287.037 204.037Z" fill="#376562"/>
<path d="M267.695 174.595C267.695 174.595 257.003 171.471 255.892 179.312C254.83 186.824 260.275 190.274 257.798 197.884C257.51 198.765 278.152 194.725 278.152 194.725C275.398 191.282 274.758 188.442 274.691 186.467C274.619 184.302 275.242 183.319 274.691 180.759C274.691 180.759 274.076 177.903 271.858 175.451C271.539 175.101 271.16 174.734 267.695 174.595Z" fill="#F2F2F2"/>
<path d="M260.852 196.254C260.951 196.227 270.941 193.566 276.842 193.234L276.829 193.026C270.908 193.358 260.899 196.026 260.798 196.053L260.852 196.254Z" fill="#F4F7FA"/>
<path d="M265.37 169.898C265.467 170.357 265.966 172.817 264.962 173.449C264.744 173.586 264.326 173.665 263.489 173.823C262.94 173.927 262.48 173.989 262.157 174.028C262.205 174.441 262.344 175.111 262.818 175.723C264.15 177.434 266.822 176.992 267.203 176.922C268.547 176.677 269.869 176.26 270.188 176.007C270.674 175.619 271.055 175.331 271.281 175.034C270.761 174.783 269.711 174.119 269.007 173.902C268.481 173.74 267.986 173.624 267.536 173.541C267.462 173.066 267.389 172.591 267.315 172.116C266.666 171.375 266.018 170.637 265.37 169.898Z" fill="url(#paint37_linear)"/>
<path d="M265.324 171.124C265.324 171.124 265.507 172.927 267.255 173.244C268.821 173.528 269.999 169.739 269.198 168.758C268.93 168.43 268.27 168.119 267.698 168.135C267.296 168.148 265.935 168.666 265.747 170.027C265.475 169.741 265.138 169.66 264.972 169.778C264.761 169.93 264.875 170.371 264.9 170.471C264.989 170.819 265.215 171.033 265.324 171.124Z" fill="url(#paint38_linear)"/>
<path d="M265.297 195.058C265.51 194.494 265.723 193.932 265.937 193.368C263.581 192.721 260.325 191.766 256.987 190.572C256.463 190.385 255.841 190.153 255.638 189.601C255.067 188.056 258.697 186.452 260.108 183.078C261.413 179.956 260.694 175.623 259.18 175.111C256.028 174.045 244.849 187.979 248.842 193.853C251.1 197.174 258.057 197.703 265.297 195.058Z" fill="white"/>
<path d="M268.044 196.666L271.451 183.541C271.534 183.219 271.786 182.968 272.107 182.883L284.376 179.714C285.057 179.537 285.672 180.166 285.486 180.844L281.666 194.733C281.575 195.065 281.304 195.318 280.966 195.388L269.112 197.794C268.448 197.927 267.874 197.321 268.044 196.666Z" fill="#0F2423"/>
<path d="M265.937 193.367C267.416 192.581 269.185 193.386 269.299 193.44C269.624 193.593 270.096 193.867 270.575 194.354C270.629 194.429 271.271 195.317 271.037 195.603C270.85 195.831 270.125 195.643 269.253 195.099C268.889 195.047 268.344 195.002 267.694 195.062C266.497 195.172 265.95 195.551 265.515 195.224C265.196 194.985 265.088 194.479 265.202 194.104C265.322 193.701 265.687 193.5 265.937 193.367Z" fill="url(#paint39_linear)"/>
<path opacity="0.65" d="M377.065 209.701L375.709 228.79C375.618 229.541 374.98 230.105 374.226 230.105C373.399 230.105 372.73 229.435 372.73 228.607V211.862L377.065 209.701Z" fill="url(#paint40_linear)"/>
<path opacity="0.65" d="M316.898 234.229L315.446 254.093C315.347 254.896 314.668 255.499 313.858 255.499C312.973 255.499 312.259 254.782 312.259 253.898V236.541L316.898 234.229Z" fill="url(#paint41_linear)"/>
<path opacity="0.65" d="M269.214 228.584L267.762 248.449C267.662 249.251 266.983 249.855 266.173 249.855C265.289 249.855 264.574 249.137 264.574 248.254V230.899L269.214 228.584Z" fill="url(#paint42_linear)"/>
<path d="M390.918 179.436L379.971 210.464C379.364 212.186 378.039 213.557 376.342 214.221L310.513 240.015C309.666 240.347 308.751 240.461 307.85 240.349L297.088 239.001L367.169 192.869L375.549 175.622L389.155 176.713C390.493 176.821 391.365 178.169 390.918 179.436Z" fill="#BBC9D9"/>
<path d="M267.049 225.154L329.868 204.9L349.972 203.408L372.797 208.683L314.321 230.783C311.253 231.943 309.224 234.884 309.224 238.168C309.224 239.416 308.126 240.379 306.889 240.217L263.279 234.461C262.289 234.33 261.558 233.474 261.583 232.474C261.667 229.116 263.859 226.181 267.049 225.154Z" fill="url(#paint43_linear)"/>
<path d="M389.635 176.709L389.703 176.765C385.971 176.477 382.522 178.775 381.346 182.334L372.729 208.399L329.38 204.927L339.877 179.173C341.376 175.496 345.051 173.189 349.009 173.438L389.635 176.709Z" fill="url(#paint44_linear)"/>
<path opacity="0.3" d="M356.476 179.747C360.599 178.862 366.188 179.627 369.481 183.437C373.16 187.696 372.768 194.362 370.349 198.413C368.928 200.79 359.512 207.311 359.512 207.311C359.512 207.311 344.825 213.801 343.039 214.473C331.935 218.661 329.317 214.305 321.366 217.946C313.725 221.445 314.006 226.444 304.46 229.883C301.212 231.053 296.43 232.185 295.79 230.967C295.22 229.885 298.116 227.292 300.558 225.108C303.256 222.691 306.065 220.177 310.962 217.512C320.827 212.138 325.123 215.591 330.902 211.001C333.576 208.877 333.064 207.892 337.403 200.583C344.162 189.199 348.795 181.396 356.476 179.747Z" fill="#D8DEE8"/>
<path d="M301.943 223.323C301.943 223.323 300.852 222.668 299.543 223.541C298.234 224.414 293.87 227.911 296.488 228.129C299.106 228.349 302.815 225.072 301.943 223.323Z" fill="#1D1D1D"/>
<path d="M303.251 225.728C303.251 225.728 303.689 227.257 302.597 228.132C301.505 229.006 298.117 230.968 297.578 230.536C296.487 229.663 298.233 227.477 299.324 226.821C300.414 226.164 302.379 223.98 303.251 225.728Z" fill="#1D1D1D"/>
<path d="M333.8 199.068C333.452 199.188 333.054 199.476 332.708 200.161C330.691 200.051 327.746 199.968 324.198 200.161C318.309 200.48 315.366 200.64 312.197 201.909C310.939 202.413 302.468 205.805 300.413 214.147C299.369 218.38 300.436 222.039 301.068 223.761C301.505 223.761 301.94 223.761 302.377 223.761C304.595 215.898 308.39 212.708 310.668 211.305C314.069 209.215 318.437 208.862 327.033 208.246C336.551 207.564 339.854 208.223 340.563 206.497C341.602 203.965 336.267 198.211 333.8 199.068Z" fill="#285552"/>
<path d="M344.492 208.027C343.875 209.091 342.794 210.613 341 211.741C334.529 215.811 327.659 209.13 320.051 212.615C318.218 213.455 316.211 215.506 312.195 219.607C308.204 223.685 305.329 227.541 302.812 226.819C302.305 226.674 301.94 226.377 301.721 226.163C302.854 222.042 305.312 215.658 310.886 209.993C312.912 207.933 315.956 204.905 320.923 203.001C328.454 200.114 335.3 201.769 337.943 202.563C340.128 204.386 342.311 206.205 344.492 208.027Z" fill="#376562"/>
<path d="M344.055 175.468C342.28 175.555 339.675 175.934 337.073 177.434C333.278 179.622 333.247 182.031 330.091 183.115C326.812 184.242 322.97 182.972 320.49 180.931C318.521 179.309 317.611 177.368 317.218 176.343C316.563 176.488 315.909 176.633 315.254 176.781C315.329 178.805 315.797 183.449 319.181 186.832C325.828 193.476 340.12 191.669 343.84 184.428C345.445 181.296 344.774 177.739 344.055 175.468Z" fill="#F2F2F2"/>
<path d="M317.073 177.04C317.073 177.04 315.274 178.869 312.972 178.822C312.579 178.813 312.378 178.338 312.647 178.05C313.289 177.366 314.393 176.333 315.578 175.878C315.909 175.752 316.054 175.36 315.901 175.041C315.646 174.512 315.385 173.808 315.624 173.526C315.624 173.526 316.011 173.311 316.562 174.595C316.784 175.107 317.877 176.086 317.073 177.04Z" fill="url(#paint45_linear)"/>
<path d="M365.221 182.025C363.847 180.571 359.976 176.858 353.655 175.471C347.012 174.01 341.718 176.006 339.908 176.782C339.425 177.98 338.735 179.866 338.162 182.245C336.95 187.265 337.482 189.384 336.416 192.514C335.749 194.47 334.336 197.179 330.96 199.944C333.12 201.081 335.856 202.811 338.597 205.408C340.444 207.158 341.873 208.903 342.961 210.433C345.827 209.815 349.786 208.521 353.653 205.625C364.357 197.615 365.127 184.265 365.221 182.025Z" fill="white"/>
<path d="M350.604 184.864C350.604 184.864 349.512 180.711 348.64 180.276C347.768 179.838 348.203 184.209 348.857 184.864C349.512 185.519 350.604 185.957 350.604 184.864Z" fill="url(#paint46_linear)"/>
<path opacity="0.3" d="M339.036 202.565C341.089 201.76 342.358 199.79 342.963 198.85C345.614 194.735 343.86 192.14 345.801 190.547C348.28 188.512 351.808 191.018 357.802 190.329C360.354 190.037 362.553 189.221 364.359 188.288C363.181 193.457 360.378 200.594 353.655 205.624C349.788 208.518 345.828 209.814 342.963 210.432C341.876 208.901 340.447 207.157 338.599 205.406C337.561 204.423 336.526 203.567 335.521 202.818C336.772 203.05 337.969 202.982 339.036 202.565Z" fill="#D5D5D5"/>
<path d="M359.768 185.74C359.099 183.805 359.372 181.942 360.423 181.152C362.057 179.92 364.882 181.799 365.224 182.025C369.114 184.611 370.276 190.768 368.933 195.574C368.496 197.138 367.78 199.701 365.441 201.255C361.699 203.742 356.268 201.997 353.221 199.506C349.283 196.285 347.769 190.535 349.294 184.867C349.584 184.867 349.876 184.867 350.166 184.867C351.4 186.877 356.326 194.721 358.677 193.825C359.17 193.636 360.491 192.703 359.768 185.74Z" fill="white"/>
<path d="M351.614 169.398C351.626 170.811 351.469 171.929 351.32 172.696C351.177 173.433 351.119 173.657 350.953 173.877C350.419 174.586 349.211 174.972 348.256 174.997C347.91 175.007 347.165 174.98 347.003 175.341C347.003 175.341 346.997 175.356 346.991 175.37C346.858 175.766 348.577 177.121 350.06 177.762C353.217 179.122 357.171 178.04 357.262 177.106C357.341 176.293 354.445 176.026 353.919 174.063C353.654 173.076 354.108 172.101 354.487 171.473C353.979 170.529 352.117 170.342 351.614 169.398Z" fill="url(#paint47_linear)"/>
<path d="M349.515 168.832C349.658 168.403 350.022 168.374 350.155 167.855C350.31 167.252 349.898 166.964 350.041 166.605C350.298 165.968 351.951 166.011 352.968 166.179C354.096 166.366 355.345 166.574 355.99 167.638C356.613 168.671 356.491 170.214 355.822 170.637C355.455 170.867 355.155 170.62 354.567 170.788C353.815 171.004 353.343 171.682 353.055 172.253C353.011 172.02 352.939 171.732 352.821 171.417C352.591 170.811 352.504 170.498 352.294 170.423C351.884 170.274 351.58 171.07 350.975 171.073C350.171 171.075 349.231 169.685 349.515 168.832Z" fill="#1D1D1D"/>
<path d="M354.108 171.648C354.108 171.648 353.249 172.915 351.67 172.733C350.258 172.571 350.206 169.376 351.146 168.746C351.459 168.536 352.068 168.472 352.555 168.634C352.841 168.729 352.934 168.856 353.404 169.003C353.839 169.14 353.965 169.096 354.094 169.215C354.253 169.364 354.357 169.712 354.034 170.629C354.317 170.368 354.647 170.279 354.872 170.399C354.908 170.418 355.003 170.49 355.053 170.592C355.233 170.967 354.877 171.415 354.108 171.648Z" fill="url(#paint48_linear)"/>
<path opacity="0.74" d="M315.257 136.341C326.291 136.341 335.234 143.294 335.234 151.868C335.234 156.021 333.136 159.794 329.721 162.579L333.047 169.984L324.035 165.819C321.384 166.829 318.405 167.396 315.255 167.396C304.221 167.396 295.278 160.443 295.278 151.868C295.278 143.291 304.223 136.341 315.257 136.341Z" fill="white"/>
<path d="M304.61 145.72C306.851 142.882 310.376 141.984 313.837 141.945C317.545 141.903 321.71 142.777 323.398 146.489C325.032 150.082 323.694 154.041 320.355 156.06C316.992 158.094 312.532 157.422 309.713 154.743C307.089 152.249 307.294 148.242 310.26 146.083C311.548 145.145 313.282 144.718 314.804 145.311C316.389 145.931 317.572 147.653 317.551 149.364C317.53 151.015 316.256 152.484 314.56 152.509C313.102 152.531 312.257 151.474 312.984 150.142C313.089 149.947 313.355 150.119 313.274 150.312C312.812 151.397 313.458 152.092 314.56 152.071C315.54 152.052 316.404 151.44 316.828 150.573C317.601 148.991 316.664 146.935 315.246 146.052C312.458 144.313 309.03 146.908 308.417 149.729C307.638 153.311 311.331 156.022 314.444 156.613C317.826 157.256 321.785 155.595 323.152 152.289C324.498 149.03 323.065 145.077 319.921 143.494C317.234 142.142 313.539 142.061 310.635 142.662C307.973 143.214 305.461 144.741 304.166 147.195C302.847 149.694 303.207 152.612 304.67 154.962C308.108 160.496 316.998 161.994 322.427 158.654C322.474 158.625 322.518 158.7 322.47 158.731C316.706 162.467 307.122 160.71 303.891 154.407C302.441 151.586 302.621 148.238 304.61 145.72Z" fill="url(#paint49_linear)"/>
<path d="M79.9102 75.5663L71.2316 64.9775L68.075 67.5059L59.3964 57.5498L52.7683 63.7143L68.075 74.301L71.7038 71.4573L79.9102 75.5663Z" fill="url(#paint50_linear)"/>
<path d="M87.0626 74.9135L91.6152 62.3252L87.713 61.4561L90.7474 45.3936H80.5609L81.2113 65.1461L86.8472 65.5796L87.0626 74.9135Z" fill="url(#paint51_linear)"/>
<path d="M91.6148 74.9129L101.151 68.6178L98.5494 62.7582L110.687 49.5186L114.805 60.153L104.618 66.4482L107.002 74.2616L91.6148 74.9129Z" fill="url(#paint52_linear)"/>
<defs>
<linearGradient id="paint0_linear" x1="279.4" y1="126.931" x2="367.931" y2="142.438" gradientUnits="userSpaceOnUse">
<stop offset="0.00359712" stop-color="#4CAB61"/>
<stop offset="1" stop-color="#7ECA9C"/>
</linearGradient>
<linearGradient id="paint1_linear" x1="327.684" y1="146.653" x2="392.536" y2="158.013" gradientUnits="userSpaceOnUse">
<stop offset="0.00359712" stop-color="#4CAB61"/>
<stop offset="1" stop-color="#7ECA9C"/>
</linearGradient>
<linearGradient id="paint2_linear" x1="261.975" y1="110.105" x2="329.708" y2="117.501" gradientUnits="userSpaceOnUse">
<stop offset="0.00359712" stop-color="#4CAB61"/>
<stop offset="1" stop-color="#7ECA9C"/>
</linearGradient>
<linearGradient id="paint3_linear" x1="44.4203" y1="209.189" x2="63.8447" y2="165.07" gradientUnits="userSpaceOnUse">
<stop stop-color="#DAE3E8"/>
<stop offset="0.9964" stop-color="#B8C6DB"/>
</linearGradient>
<linearGradient id="paint4_linear" x1="133.305" y1="210.403" x2="148.705" y2="157.634" gradientUnits="userSpaceOnUse">
<stop stop-color="#DAE3E8"/>
<stop offset="0.9964" stop-color="#B8C6DB"/>
</linearGradient>
<linearGradient id="paint5_linear" x1="44.9614" y1="182.449" x2="77.7202" y2="128.46" gradientUnits="userSpaceOnUse">
<stop stop-color="#DAE3E8"/>
<stop offset="0.9964" stop-color="#B8C6DB"/>
</linearGradient>
<linearGradient id="paint6_linear" x1="133.304" y1="183.167" x2="159.022" y2="116.949" gradientUnits="userSpaceOnUse">
<stop stop-color="#DAE3E8"/>
<stop offset="0.9964" stop-color="#B8C6DB"/>
</linearGradient>
<linearGradient id="paint7_linear" x1="236.165" y1="77.2932" x2="130.413" y2="201.412" gradientUnits="userSpaceOnUse">
<stop stop-color="#94CE78"/>
<stop offset="1" stop-color="#51C69C"/>
</linearGradient>
<linearGradient id="paint8_linear" x1="191.379" y1="159.396" x2="143.517" y2="96.3334" gradientUnits="userSpaceOnUse">
<stop stop-color="#444B8C"/>
<stop offset="0.9964" stop-color="#26264F"/>
</linearGradient>
<linearGradient id="paint9_linear" x1="67.1753" y1="127.673" x2="69.8363" y2="124.12" gradientUnits="userSpaceOnUse">
<stop stop-color="#FFC444"/>
<stop offset="0.9964" stop-color="#F36F56"/>
</linearGradient>
<linearGradient id="paint10_linear" x1="92.6669" y1="90.2152" x2="86.5987" y2="77.8251" gradientUnits="userSpaceOnUse">
<stop stop-color="#FFC444"/>
<stop offset="0.9964" stop-color="#F36F56"/>
</linearGradient>
<linearGradient id="paint11_linear" x1="86.4279" y1="82.6121" x2="91.7202" y2="95.2138" gradientUnits="userSpaceOnUse">
<stop stop-color="#FFC444"/>
<stop offset="0.9964" stop-color="#F36F56"/>
</linearGradient>
<linearGradient id="paint12_linear" x1="75.6254" y1="128.611" x2="78.2864" y2="125.058" gradientUnits="userSpaceOnUse">
<stop stop-color="#FFC444"/>
<stop offset="0.9964" stop-color="#F36F56"/>
</linearGradient>
<linearGradient id="paint13_linear" x1="85.2361" y1="86.0896" x2="84.4483" y2="90.3759" gradientUnits="userSpaceOnUse">
<stop stop-color="#FFC444"/>
<stop offset="0.9964" stop-color="#F36F56"/>
</linearGradient>
<linearGradient id="paint14_linear" x1="88.4749" y1="85.9042" x2="87.8491" y2="89.309" gradientUnits="userSpaceOnUse">
<stop stop-color="#FFC444"/>
<stop offset="0.9964" stop-color="#F36F56"/>
</linearGradient>
<linearGradient id="paint15_linear" x1="98.5028" y1="225.492" x2="100.133" y2="208.671" gradientUnits="userSpaceOnUse">
<stop stop-color="#FFC444"/>
<stop offset="0.9964" stop-color="#F36F56"/>
</linearGradient>
<linearGradient id="paint16_linear" x1="78.1437" y1="223.687" x2="79.7738" y2="206.866" gradientUnits="userSpaceOnUse">
<stop stop-color="#FFC444"/>
<stop offset="0.9964" stop-color="#F36F56"/>
</linearGradient>
<linearGradient id="paint17_linear" x1="106.354" y1="166.215" x2="96.0557" y2="166.215" gradientUnits="userSpaceOnUse">
<stop stop-color="#AA80F9"/>
<stop offset="0.9964" stop-color="#6165D7"/>
</linearGradient>
<linearGradient id="paint18_linear" x1="96.5616" y1="157.385" x2="96.1269" y2="153.207" gradientUnits="userSpaceOnUse">
<stop stop-color="#FFC444"/>
<stop offset="0.9964" stop-color="#F36F56"/>
</linearGradient>
<linearGradient id="paint19_linear" x1="97.8178" y1="153.283" x2="98.4198" y2="164.714" gradientUnits="userSpaceOnUse">
<stop stop-color="#FFC444"/>
<stop offset="0.9964" stop-color="#F36F56"/>
</linearGradient>
<linearGradient id="paint20_linear" x1="99.0821" y1="154.582" x2="98.9263" y2="156.016" gradientUnits="userSpaceOnUse">
<stop stop-color="#FFC444"/>
<stop offset="1" stop-color="#F36F56"/>
</linearGradient>
<linearGradient id="paint21_linear" x1="121.079" y1="149.971" x2="123.496" y2="232.302" gradientUnits="userSpaceOnUse">
<stop stop-color="#446E8C"/>
<stop offset="0.9964" stop-color="#263E4F"/>
</linearGradient>
<linearGradient id="paint22_linear" x1="122.062" y1="149.942" x2="124.479" y2="232.273" gradientUnits="userSpaceOnUse">
<stop stop-color="#44728C"/>
<stop offset="0.9964" stop-color="#26364F"/>
</linearGradient>
<linearGradient id="paint23_linear" x1="123.479" y1="151.886" x2="124.617" y2="190.63" gradientUnits="userSpaceOnUse">
<stop stop-color="#FFC444"/>
<stop offset="0.9964" stop-color="#F36F56"/>
</linearGradient>
<linearGradient id="paint24_linear" x1="123.479" y1="151.886" x2="124.617" y2="190.63" gradientUnits="userSpaceOnUse">
<stop stop-color="#FFC444"/>
<stop offset="0.9964" stop-color="#F36F56"/>
</linearGradient>
<linearGradient id="paint25_linear" x1="123.479" y1="151.886" x2="124.617" y2="190.63" gradientUnits="userSpaceOnUse">
<stop stop-color="#FFC444"/>
<stop offset="0.9964" stop-color="#F36F56"/>
</linearGradient>
<linearGradient id="paint26_linear" x1="123.479" y1="151.886" x2="124.617" y2="190.63" gradientUnits="userSpaceOnUse">
<stop stop-color="#FFC444"/>
<stop offset="0.9964" stop-color="#F36F56"/>
</linearGradient>
<linearGradient id="paint27_linear" x1="103.586" y1="180.432" x2="109.935" y2="173.821" gradientUnits="userSpaceOnUse">
<stop stop-color="#FFC444"/>
<stop offset="0.9964" stop-color="#F36F56"/>
</linearGradient>
<linearGradient id="paint28_linear" x1="272.632" y1="228.299" x2="253.124" y2="228.299" gradientUnits="userSpaceOnUse">
<stop stop-color="#80DCF9"/>
<stop offset="0.9964" stop-color="#61ADD7"/>
</linearGradient>
<linearGradient id="paint29_linear" x1="266.023" y1="219.271" x2="263.442" y2="219.271" gradientUnits="userSpaceOnUse">
<stop stop-color="#80CDF9"/>
<stop offset="0.9964" stop-color="#619ED7"/>
</linearGradient>
<linearGradient id="paint30_linear" x1="251.917" y1="216.522" x2="256.658" y2="210.353" gradientUnits="userSpaceOnUse">
<stop stop-color="#192D44"/>
<stop offset="1" stop-color="#395E89"/>
</linearGradient>
<linearGradient id="paint31_linear" x1="262.707" y1="202.728" x2="256.611" y2="186.592" gradientUnits="userSpaceOnUse">
<stop stop-color="#192A44"/>
<stop offset="1" stop-color="#395989"/>
</linearGradient>
<linearGradient id="paint32_linear" x1="266.108" y1="205.607" x2="266.201" y2="213.506" gradientUnits="userSpaceOnUse">
<stop stop-color="#192D44"/>
<stop offset="1" stop-color="#395989"/>
</linearGradient>
<linearGradient id="paint33_linear" x1="295.058" y1="232.297" x2="288.858" y2="232.297" gradientUnits="userSpaceOnUse">
<stop stop-color="#311944"/>
<stop offset="1" stop-color="#6B3976"/>
</linearGradient>
<linearGradient id="paint34_linear" x1="292.133" y1="234.743" x2="282.86" y2="206.962" gradientUnits="userSpaceOnUse">
<stop stop-color="#FFC444"/>
<stop offset="0.9964" stop-color="#F36F56"/>
</linearGradient>
<linearGradient id="paint35_linear" x1="294.07" y1="220.896" x2="290.279" y2="220.896" gradientUnits="userSpaceOnUse">
<stop stop-color="#311944"/>
<stop offset="1" stop-color="#6B3976"/>
</linearGradient>
<linearGradient id="paint36_linear" x1="296.269" y1="231.321" x2="290.062" y2="212.726" gradientUnits="userSpaceOnUse">
<stop stop-color="#FFC444"/>
<stop offset="0.9964" stop-color="#F36F56"/>
</linearGradient>
<linearGradient id="paint37_linear" x1="265.545" y1="179.866" x2="268.251" y2="167.602" gradientUnits="userSpaceOnUse">
<stop stop-color="#FFC444"/>
<stop offset="0.9964" stop-color="#F36F56"/>
</linearGradient>
<linearGradient id="paint38_linear" x1="267.374" y1="168.937" x2="264.273" y2="184.89" gradientUnits="userSpaceOnUse">
<stop stop-color="#FFC444"/>
<stop offset="0.9964" stop-color="#F36F56"/>
</linearGradient>
<linearGradient id="paint39_linear" x1="269.566" y1="193.404" x2="263.612" y2="199.007" gradientUnits="userSpaceOnUse">
<stop stop-color="#FFC444"/>
<stop offset="0.9964" stop-color="#F36F56"/>
</linearGradient>
<linearGradient id="paint40_linear" x1="377.067" y1="219.9" x2="372.731" y2="219.9" gradientUnits="userSpaceOnUse">
<stop stop-color="#80CDF9"/>
<stop offset="0.9964" stop-color="#619ED7"/>
</linearGradient>
<linearGradient id="paint41_linear" x1="316.9" y1="244.861" x2="312.26" y2="244.861" gradientUnits="userSpaceOnUse">
<stop stop-color="#80CDF9"/>
<stop offset="0.9964" stop-color="#619ED7"/>
</linearGradient>
<linearGradient id="paint42_linear" x1="269.216" y1="239.217" x2="264.575" y2="239.217" gradientUnits="userSpaceOnUse">
<stop stop-color="#80CDF9"/>
<stop offset="0.9964" stop-color="#619ED7"/>
</linearGradient>
<linearGradient id="paint43_linear" x1="372.799" y1="221.82" x2="261.585" y2="221.82" gradientUnits="userSpaceOnUse">
<stop stop-color="#D8DEE8"/>
<stop offset="0.9964" stop-color="white"/>
</linearGradient>
<linearGradient id="paint44_linear" x1="389.704" y1="190.91" x2="329.381" y2="190.91" gradientUnits="userSpaceOnUse">
<stop stop-color="#D8DEE8"/>
<stop offset="0.9964" stop-color="white"/>
</linearGradient>
<linearGradient id="paint45_linear" x1="314.721" y1="180.71" x2="316.763" y2="149.826" gradientUnits="userSpaceOnUse">
<stop stop-color="#FFC444"/>
<stop offset="0.9964" stop-color="#F36F56"/>
</linearGradient>
<linearGradient id="paint46_linear" x1="349.384" y1="183.002" x2="351.426" y2="152.118" gradientUnits="userSpaceOnUse">
<stop stop-color="#FFC444"/>
<stop offset="0.9964" stop-color="#F36F56"/>
</linearGradient>
<linearGradient id="paint47_linear" x1="349.751" y1="181.213" x2="356.182" y2="167.841" gradientUnits="userSpaceOnUse">
<stop stop-color="#FFC444"/>
<stop offset="0.9964" stop-color="#F36F56"/>
</linearGradient>
<linearGradient id="paint48_linear" x1="352.931" y1="169.364" x2="351.577" y2="182.601" gradientUnits="userSpaceOnUse">
<stop stop-color="#FFC444"/>
<stop offset="0.9964" stop-color="#F36F56"/>
</linearGradient>
<linearGradient id="paint49_linear" x1="324.093" y1="151.311" x2="302.939" y2="151.311" gradientUnits="userSpaceOnUse">
<stop stop-color="#444B8C"/>
<stop offset="0.9964" stop-color="#26264F"/>
</linearGradient>
<linearGradient id="paint50_linear" x1="62.3505" y1="82.8641" x2="75.5684" y2="64.9631" gradientUnits="userSpaceOnUse">
<stop stop-color="#DAE3E8"/>
<stop offset="0.9964" stop-color="#B8C6DB"/>
</linearGradient>
<linearGradient id="paint51_linear" x1="84.4636" y1="86.871" x2="98.1678" y2="82.2576" gradientUnits="userSpaceOnUse">
<stop stop-color="#DAE3E8"/>
<stop offset="0.9964" stop-color="#B8C6DB"/>
</linearGradient>
<linearGradient id="paint52_linear" x1="99.8018" y1="85.1993" x2="118.923" y2="69.5025" gradientUnits="userSpaceOnUse">
<stop stop-color="#DAE3E8"/>
<stop offset="0.9964" stop-color="#B8C6DB"/>
</linearGradient>
</defs>
</svg>
