<svg width="491" height="475" viewBox="0 0 491 475" fill="none" xmlns="http://www.w3.org/2000/svg">
<path d="M15.4254 94.3132C19.2256 87.9311 23.635 81.404 30.3942 78.3C37.1245 75.196 46.7266 77.1686 49.3664 84.1019C52.4415 92.1956 44.9571 100.115 42.3752 108.383C39.3872 117.927 43.1004 128.632 39.9674 138.118C35.5869 151.346 11.6831 164.661 2.66109 148.735C-5.80971 133.737 7.99892 106.758 15.4254 94.3132Z" fill="#EDF7EE"/>
<path d="M125.337 42.2942C145.664 28.6293 167.896 17.8254 191.621 12.049C235.104 1.43839 273.352 9.8895 307.668 37.5336C339.392 63.0943 356.97 102.988 392.729 124.046C406.222 131.995 421.437 136.998 434.721 145.281C456.281 158.737 471.571 180.224 481.241 203.444C494.049 234.219 496.099 273.458 472.509 298.196C459.002 312.333 439.68 319.181 422.212 328.222C387.491 346.217 382.385 378.175 363.194 408.709C341.723 442.821 302.272 462.972 262.452 471.418C241.066 475.939 217.469 477.222 198.953 466.356C173.084 451.134 165.316 415.481 137.429 403.168C127.5 398.787 116.221 399.36 106.034 394.958C92.1095 388.966 78.4093 380.193 67.4691 369.964C51.1938 354.723 40.1147 332.353 44.4003 310.39C48.1703 291.106 62.7769 275.274 68.7352 256.452C84.2585 207.348 43.8185 158.996 64.1799 108.005C72.8457 86.2787 90.0507 69.0555 108.426 54.5821C113.899 50.3124 119.529 46.1985 125.337 42.2942Z" fill="#EDF7EE"/>
<path d="M419.712 357.236C424.055 353.436 428.885 349.637 434.612 348.958C440.338 348.253 446.96 351.998 447.286 357.779C447.638 364.509 440.202 368.58 436.321 374.062C431.844 380.413 432.033 389.233 427.447 395.502C421.042 404.241 400.199 408.42 397.295 394.444C394.581 381.362 411.245 364.672 419.712 357.236Z" fill="#EDF7EE"/>
<path d="M362.264 134.873H306.708C273.005 134.873 259 148.862 259 182.581V374.494C259 408.213 273.005 422.202 306.708 422.202H362.264C395.967 422.202 409.972 408.213 409.972 374.494V182.581C409.972 148.862 395.967 134.873 362.264 134.873Z" fill="white"/>
<path d="M306.704 413.002C278.374 413.002 268.201 403.236 268.201 374.499V182.577C268.201 153.789 278.42 144.074 306.704 144.074H361.648C389.978 144.074 400.151 153.84 400.151 182.577V374.499C400.151 402.829 390.385 413.002 361.648 413.002H306.704Z" fill="#EEFFF8"/>
<path d="M355.069 269.226C355.52 270.017 355.622 273.335 355.282 276.515C354.832 278.853 353.694 281.002 352.013 282.687V282.674C352.039 280.9 352.239 279.133 352.61 277.398C353.058 275.092 353.371 272.762 353.547 270.419C353.95 269.856 354.644 269.203 355.069 269.226Z" fill="#5DB892"/>
<path d="M330.067 310.59C327 310.59 325.899 309.097 323.7 305.718C322.186 303.236 320.373 300.95 318.3 298.913C313.469 294.329 313.641 290.53 313.86 285.721L313.86 285.72C313.905 284.724 313.951 283.712 313.951 282.674C313.923 280.739 313.707 278.812 313.305 276.919L313.304 276.914C312.657 273.343 311.851 268.899 312.368 257.782C313.091 242.049 330.887 241.035 331.643 241C332.399 241.035 350.195 242.049 350.918 257.782C351.436 268.899 350.63 273.343 349.982 276.914L349.981 276.919C349.579 278.812 349.363 280.739 349.336 282.674C349.336 283.712 349.381 284.724 349.427 285.72L349.427 285.721C349.645 290.53 349.817 294.329 344.987 298.913C342.914 300.95 341.1 303.236 339.587 305.718C337.387 309.097 336.286 310.59 333.219 310.59H330.067Z" fill="#5DB892"/>
<path d="M307.555 267.117C306.783 268.121 306.454 272.442 306.851 276.608C307.467 279.683 309.212 282.556 311.862 284.856L311.863 284.838C311.907 282.524 311.668 280.208 311.151 277.924C310.536 274.889 310.142 271.832 309.971 268.767C309.344 268.007 308.246 267.113 307.555 267.117Z" fill="#5DB892"/>
<path d="M368.19 270.936H365.226V263.034C365.226 260.862 363.448 259.084 361.275 259.084H353.372V256.121C353.372 253.355 351.199 251.183 348.433 251.183C345.667 251.183 343.493 253.355 343.493 256.121V259.084H335.59C333.417 259.084 331.639 260.862 331.639 263.034V270.541H334.602C337.566 270.541 339.937 272.911 339.937 275.874C339.937 278.837 337.566 281.207 334.602 281.207H331.639V288.713C331.639 290.886 333.417 292.664 335.59 292.664H343.098V289.701C343.098 286.738 345.469 284.368 348.433 284.368C351.396 284.368 353.767 286.738 353.767 289.701V292.664H361.275C363.448 292.664 365.226 290.886 365.226 288.713V280.812H368.19C370.956 280.812 373.129 278.639 373.129 275.874C373.129 273.108 370.956 270.936 368.19 270.936Z" fill="#005264"/>
<path d="M348.779 137.58H319.568C316.128 137.58 316.128 141.366 319.568 141.366H348.779C352.219 141.366 352.224 137.58 348.779 137.58Z" fill="#F1F2F1"/>
<path d="M353.384 399.918H314.973C311.533 399.918 311.533 403.704 314.973 403.704H353.384C356.819 403.704 356.824 399.918 353.384 399.918Z" fill="#D2F2E5"/>
<path d="M290.922 153.666H287.121C283.681 153.666 283.681 157.452 287.121 157.452H290.922C294.363 157.447 294.363 153.666 290.922 153.666Z" fill="#D2F2E5"/>
<path d="M303.059 153.666H299.258C295.818 153.666 295.818 157.452 299.258 157.452H303.059C306.499 157.447 306.504 153.666 303.059 153.666Z" fill="#D2F2E5"/>
<path d="M308.937 137.58C306.428 137.58 306.428 141.366 308.937 141.366C311.446 141.366 311.446 137.58 308.937 137.58Z" fill="#F1F2F1"/>
<path d="M361.821 153.666C359.312 153.666 359.312 157.452 361.821 157.452C364.33 157.447 364.33 153.666 361.821 153.666Z" fill="#D2F2E5"/>
<path d="M367.913 153.666C365.404 153.666 365.404 157.452 367.913 157.452C370.422 157.447 370.422 153.666 367.913 153.666Z" fill="#D2F2E5"/>
<path d="M374.004 153.666C371.495 153.666 371.495 157.452 374.004 157.452C376.513 157.447 376.518 153.666 374.004 153.666Z" fill="#D2F2E5"/>
<path d="M380.095 153.666C377.587 153.666 377.587 157.452 380.095 157.452C382.604 157.447 382.609 153.666 380.095 153.666Z" fill="#D2F2E5"/>
<path d="M188.381 65.0316C221.437 27.3997 297.351 -15.0738 336.566 116.086" stroke="#F4EDDB" stroke-width="3" stroke-linecap="round"/>
<path d="M286 24C286 37.2545 275.254 48 262 48C251.888 48 243.236 41.7479 239.706 32.8941C239.476 32.3213 239.267 31.7405 239.081 31.1435C238.843 30.3731 238.641 29.5865 238.48 28.7798C238.165 27.2349 238 25.6376 238 24C238 23.4756 238.016 22.9593 238.048 22.447C238.827 10.2575 248.709 0.540503 260.971 0.0242007C261.31 0.00403263 261.653 0 261.996 0C263.771 0 265.505 0.193619 267.167 0.560678C267.55 0.641351 267.925 0.734121 268.301 0.834961C278.502 3.60605 286 12.9237 286 24Z" fill="#FFD363"/>
<path d="M263.741 30.8447H258.834V34.873H256.036V30.8447H253.004V28.5303H256.036V26.5234H253.004V24.2236H256.036V13.5449H263.902C266.188 13.5449 267.999 14.126 269.337 15.2881C270.675 16.4502 271.344 18.0225 271.344 20.0049C271.344 22.085 270.699 23.6914 269.41 24.8242C268.131 25.9473 266.31 26.5137 263.946 26.5234H258.834V28.5303H263.741V30.8447ZM258.834 24.2236H263.902C265.416 24.2236 266.568 23.8672 267.359 23.1543C268.15 22.4414 268.546 21.4014 268.546 20.0342C268.546 18.7939 268.136 17.793 267.315 17.0312C266.495 16.2598 265.387 15.8691 263.99 15.8594H258.834V24.2236Z" fill="#FFF4BF"/>
<path d="M92.0096 351.036C92.0096 351.036 91.2142 353.062 90.3916 357.256C90.3236 357.596 90.2625 357.95 90.1945 358.324C89.9837 359.473 89.773 360.785 89.5758 362.246C89.3787 363.592 69.977 364.966 67.856 363.511C65.7485 362.056 68.1959 361.369 68.1959 361.369C70.9491 361.288 76.911 359.541 78.9164 358.229C84.5724 354.537 84.6676 349.969 84.6676 349.969C88.5629 344.558 92.0096 351.036 92.0096 351.036Z" fill="#F5A784"/>
<path d="M183.382 363.429C181.227 364.918 161.404 363.51 161.207 362.117C161.01 360.642 160.738 359.316 160.575 358.133C160.561 358.018 160.541 357.922 160.527 357.827C159.752 352.062 159.603 349.744 159.603 349.744C159.603 349.744 163.845 344.041 167.828 349.568C167.828 349.568 167.346 355.72 172.091 358.024C172.288 358.12 172.499 358.222 172.757 358.33C175.299 359.445 180.486 361.165 183.056 361.247C183.056 361.24 185.537 361.94 183.382 363.429Z" fill="#F5A784"/>
<path d="M174.885 219.031C174.137 270.119 169.168 351.703 169.168 351.703C167.999 352.267 166.85 352.661 165.769 352.933C161.833 353.919 158.787 353.239 158.787 353.239C158.787 353.239 145.13 204.143 143.872 197.243C143.179 193.423 141.52 193.062 140.181 193.518C139.032 193.892 138.203 194.864 137.815 196.013C134.627 205.598 119.644 267.087 117.863 273.613C115.986 280.513 93.3692 352.736 93.3692 352.736C91.7648 353.144 90.31 353.273 89.0116 353.225C84.654 353.049 82.1455 350.86 82.1455 350.86C82.1455 350.86 92.1727 284.694 94.6812 269.643C97.1761 254.612 113.777 173.559 113.777 173.559H173.138C173.621 178.501 174.273 185.238 174.987 206.794C175.096 210.608 174.946 214.721 174.885 219.031Z" fill="white"/>
<path d="M90.3916 357.256C90.3236 357.596 90.2625 357.949 90.1945 358.323C89.9837 359.472 89.773 360.784 89.5758 362.246C89.3787 363.592 69.977 364.965 67.856 363.51C65.7485 362.055 68.1959 361.369 68.1959 361.369C70.9491 361.287 76.911 359.54 78.9164 358.228C81.5337 358.616 85.7893 358.874 90.3916 357.256Z" fill="#505351"/>
<path d="M183.383 363.43C181.228 364.919 161.404 363.511 161.207 362.118C161.01 360.643 160.738 359.317 160.575 358.134C160.561 358.019 160.541 357.923 160.527 357.828C163.104 358.345 167.557 358.943 172.757 358.331C175.3 359.446 180.487 361.166 183.056 361.248C183.056 361.241 185.538 361.941 183.383 363.43Z" fill="#505351"/>
<path d="M80.5954 146.298C80.5954 146.298 69.9835 136.427 86.0678 118.623C101.194 101.879 113.281 89.9688 113.281 89.9688L106.965 131.566L80.5954 146.298Z" fill="#F5A784"/>
<path d="M160.534 41.9743C160.793 41.7432 161.058 41.5257 161.35 41.3558C161.962 40.9955 162.642 40.8595 163.267 40.5536C163.6 40.3904 163.396 39.9486 163.097 39.9146C161.921 39.7854 160.847 40.5536 160.065 41.4781C160.092 40.7099 160.052 39.9282 159.997 39.228C159.922 38.3578 159.929 37.3041 159.052 36.8826C158.977 36.8486 158.869 36.9098 158.903 36.9982C159.399 38.3646 159.317 39.7378 159.27 41.1179C153.967 35.8765 141.629 36.9506 137.278 41.852C133.879 45.6794 133.988 54.1158 133.988 54.1158C134.491 57.712 163.845 59.092 163.845 59.092C163.845 59.092 164.205 56.9845 164.613 49.9689C164.899 44.9995 161.962 42.7289 160.534 41.9743Z" fill="#112545"/>
<path d="M136.693 54.7619C136.693 54.7619 134.273 51.8523 131.846 54.7619C129.426 57.6715 133.546 63.2323 136.693 63.4838C136.693 63.4838 137.06 56.0195 136.693 54.7619Z" fill="#E0855C"/>
<path d="M181.84 88.4931C180.276 92.2253 174.457 106.569 172.581 118.208C171.581 124.401 167.754 145.699 167.754 145.699C145.81 151.736 121.683 145.699 121.683 145.699C121.683 145.699 108.434 90.1043 118.631 83.5577C123.662 80.3218 139.943 80.383 139.943 80.383L140.983 69.2477C151.595 71.4163 159.161 64.8086 159.161 64.8086C158.794 66.7053 158.563 69.4313 158.414 72.0961C158.148 76.5421 158.114 80.8249 158.114 80.8249C169.984 81.0152 178.774 85.434 181.364 87.0179C181.86 87.3374 182.064 87.9561 181.84 88.4931Z" fill="#F5A784"/>
<path d="M159.161 64.8164C156.34 77.6172 143.465 76.7402 140.439 75.0475L140.977 69.2555C151.588 71.4173 159.161 64.8164 159.161 64.8164Z" fill="#E0855C"/>
<path d="M137.251 46.3601C135.64 48.0325 135.511 51.7918 135.375 55.9454C134.967 68.5219 138.733 72.4512 145.157 73.1446C151.581 73.838 158.305 71.3635 159.685 59.7048C160.378 53.872 161.112 48.4879 158.991 45.9658C155.83 42.2064 142.186 41.2208 137.251 46.3601Z" fill="#F5A784"/>
<path d="M158.787 58.0178C158.787 58.0178 160.752 52.8104 163.858 55.5704C166.958 58.3304 162.675 66.2027 157.93 65.618C157.93 65.6112 157.278 59.7989 158.787 58.0178Z" fill="#F5A784"/>
<path d="M177.658 85.4881C180.126 85.794 182.288 87.2897 183.661 89.3631C187.91 95.7737 196.863 143.19 196.877 152.721C196.911 169.608 188.937 199.669 188.937 199.669C188.937 199.669 181.907 201.178 179.256 195.386C179.256 195.386 181.438 158.636 180.711 152.123C179.99 145.61 173.695 119.805 170.813 108.948C168.297 99.4514 168.903 84.414 177.658 85.4881Z" fill="#F5A784"/>
<path d="M162.411 57.936C161.724 58.0583 161.024 58.7041 160.528 59.1664C160.011 59.6491 159.399 60.2541 159.141 60.9271C159.059 61.1378 159.352 61.267 159.495 61.131C159.896 60.7572 160.222 60.3084 160.596 59.9074C160.861 60.1997 161.133 60.492 161.507 60.628C161.792 60.73 162.003 60.3765 161.881 60.1454C161.718 59.8462 161.418 59.6287 161.126 59.4247C161.622 59.044 162.214 58.7449 162.622 58.303C162.778 58.1331 162.622 57.902 162.411 57.936Z" fill="#E0855C"/>
<path d="M145.831 60.7711C145.28 60.6895 144.015 61.0158 143.757 60.4244C143.54 59.9281 144.43 57.005 144.553 56.5019C145.001 54.6936 145.477 53.47 145.817 51.3014C145.831 51.2062 145.667 51.1518 145.627 51.247C144.349 54.1294 143.88 57.6916 143.105 60.744C143.064 60.9139 143.186 61.0907 143.363 61.0839C144.172 61.0703 144.954 61.2402 145.763 61.247C146.035 61.2606 146.116 60.8119 145.831 60.7711Z" fill="#E0855C"/>
<path d="M142.084 49.7984C141.302 49.4041 139.847 49.2954 139.283 50.1044C139.181 50.2539 139.317 50.4715 139.494 50.4647C139.881 50.4443 140.221 50.2539 140.609 50.2267C141.03 50.1927 141.431 50.2879 141.826 50.417C142.186 50.5258 142.424 49.9751 142.084 49.7984Z" fill="#112545"/>
<path d="M153.539 50.7512C153.097 49.6431 151.166 49.5411 150.344 50.2278C150.154 50.3841 150.276 50.6832 150.48 50.7444C150.963 50.894 151.472 50.7104 151.969 50.758C152.404 50.7988 152.757 50.9892 153.158 51.132C153.369 51.1999 153.627 50.962 153.539 50.7512Z" fill="#112545"/>
<path d="M198.318 155.631C197.489 156.359 196.653 156.977 195.824 157.48C195.334 157.773 194.865 158.031 194.382 158.255C186.802 161.804 180.113 156.828 180.113 156.828L172.581 118.208C172.581 118.208 172.628 135.264 172.649 135.883C172.717 139.622 173.315 154.591 173.363 155.305C173.669 161.219 174.11 167.419 174.709 173.605C174.756 174.156 174.824 174.707 174.872 175.257C174.885 175.454 174.777 175.645 174.532 175.822C173.546 176.597 170.514 177.331 166.272 177.909C165.64 178.004 164.974 178.106 164.28 178.187C160.276 178.67 155.45 179.064 150.365 179.302C149.508 179.35 148.645 179.384 147.788 179.397C144.26 179.527 140.664 179.574 137.149 179.54C136.503 179.54 135.851 179.527 135.219 179.506C132.69 179.459 130.229 179.343 127.897 179.18C127.394 179.146 126.911 179.098 126.408 179.064C126.082 179.051 125.776 179.017 125.45 178.983C125.062 178.949 124.675 178.901 124.28 178.867C116.293 178.024 110.773 176.359 111.323 173.537C111.86 170.771 114.484 155.754 114.546 155.264C115.341 150.227 115.919 145.856 116.34 142.083C116.401 141.484 116.469 140.913 116.517 140.349C116.925 136.454 120.202 122.633 113.533 123.259C110.514 123.537 107.849 125.686 105.844 127.752C105.552 128.045 105.259 128.337 104.987 128.629C101.507 132.212 98.3321 135.414 97.5503 136.114C97.5027 136.162 97.4347 136.209 97.3531 136.243C96.9792 136.406 96.347 136.44 95.5584 136.338C90.5686 135.774 78.7263 130.607 79.2294 125.856C79.2294 125.856 79.9908 124.041 82.0642 120.737C82.2749 120.383 82.5197 120.009 82.778 119.622C84.3687 117.174 86.5849 114.047 89.6169 110.37C89.8752 110.043 90.1539 109.724 90.4258 109.384C91.3028 108.33 92.2545 107.249 93.2743 106.114C93.553 105.788 93.8385 105.468 94.1308 105.142C94.8922 104.299 95.6876 103.442 96.5102 102.552C96.7073 102.355 96.8976 102.164 97.0948 101.967C99.2362 99.7169 101.629 97.3376 104.287 94.8223C104.532 94.598 104.79 94.3532 105.049 94.1085C107.156 92.1506 109.44 90.1044 111.887 88.0038C112.214 87.7251 112.533 87.4532 112.86 87.1609C114.885 85.4613 117.02 83.6938 119.277 81.8991C120.106 81.2329 121.126 80.7502 122.255 80.3899C122.771 80.2267 123.322 80.084 123.893 79.9684C128.767 78.9827 134.532 79.8393 134.532 79.8393C134.532 79.8393 134.335 83.1296 135.776 86.481C136 86.9977 136.259 87.5347 136.585 88.0378C138.318 90.9201 141.507 93.4627 147.374 93.5782C147.924 93.5918 148.522 93.5919 149.141 93.5443C149.318 93.5443 149.495 93.5306 149.692 93.5103C153.546 93.2043 156.184 92.103 157.999 90.6618C158.244 90.4851 158.482 90.2743 158.692 90.0772C160.779 88.0717 161.527 85.5769 161.738 83.6462C161.833 82.6741 161.819 81.8447 161.772 81.2805C161.738 80.7978 161.69 80.5191 161.69 80.5191C161.69 80.5191 182.458 80.5667 187.285 92.3886C188.679 95.8216 190.473 102.348 192.255 109.962C192.479 110.947 192.71 111.953 192.934 112.973C193.94 117.494 194.913 122.253 195.769 126.937C195.98 128.051 196.177 129.153 196.367 130.274C196.775 132.524 197.129 134.727 197.455 136.848C197.632 137.983 197.795 139.051 197.938 140.118C198.135 141.525 198.291 142.885 198.441 144.17C198.57 145.223 198.665 146.23 198.747 147.168C199.161 151.79 199.1 154.951 198.318 155.631Z" fill="#2C72BA"/>
<path d="M142.343 53.4496C142.315 53.3545 142.22 53.2729 142.118 53.2797C141.554 53.3137 141.255 53.8711 140.711 54.0411C139.902 54.2858 139.311 53.8983 138.624 53.5448C138.468 53.4633 138.209 53.606 138.291 53.8032C138.651 54.6665 139.712 55.0813 140.602 54.9657C141.289 54.8705 142.587 54.3266 142.343 53.4496Z" fill="#112545"/>
<path d="M153.151 53.4978C152.56 53.7901 152.118 54.2116 151.452 54.3612C150.602 54.5515 150.038 54.2116 149.399 53.6882C149.222 53.5386 148.841 53.6746 148.957 53.9465C149.732 55.8296 152.574 55.2653 153.587 53.9329C153.79 53.6542 153.403 53.3686 153.151 53.4978Z" fill="#112545"/>
<path d="M147.984 64.3528C147.087 64.4956 146.346 65.0258 145.401 65.0938C144.429 65.1618 143.661 64.8083 142.75 64.5771C142.587 64.5363 142.478 64.7335 142.587 64.8559C143.776 66.0931 147.243 66.2903 148.195 64.6384C148.284 64.4752 148.141 64.3256 147.984 64.3528Z" fill="#E0855C"/>
<path d="M144.872 61.9053C144.872 61.9053 140.929 61.7761 139.957 63.4824C139.957 63.4824 145.477 65.6103 150.827 63.1833C150.82 63.1833 149.549 61.545 144.872 61.9053Z" fill="#112545"/>
<path d="M132.01 117.984L136.333 117.528C138.149 117.338 139.461 115.713 139.27 113.905L137.863 100.465C137.673 98.6498 136.048 97.3378 134.24 97.5281L129.916 97.9835C128.101 98.1739 126.789 99.7987 126.979 101.607L128.386 115.047C128.57 116.855 130.195 118.174 132.01 117.984Z" fill="#112545"/>
<path d="M123.518 128.078C123.518 128.078 126.088 126.372 129.501 124.591C132.92 122.824 140.446 118.983 141.996 116.617C141.996 116.617 142.172 116.107 142.274 115.291C142.288 115.176 142.302 115.053 142.302 114.924C142.342 114.19 142.288 113.272 141.955 112.28C141.935 112.205 141.907 112.123 141.873 112.042C141.622 111.342 141.234 110.594 140.636 109.894C140.588 109.832 140.534 109.778 140.48 109.717C140.017 109.18 139.446 108.643 138.739 108.133C138.739 108.133 131.166 112.219 128.291 112.592C128.291 112.592 132.172 108.969 131.765 107.358L130.949 106.562C130.949 106.562 126.326 109.982 124.13 111.321C118.78 114.571 117.536 121.042 117.536 121.042C117.536 121.042 119.011 127.943 123.518 128.078Z" fill="#F5A784"/>
<path d="M140.629 109.9C140.575 109.839 140.527 109.785 140.473 109.724C137.237 111.824 133.743 113.333 130.214 114.999C130.146 115.033 130.18 115.148 130.255 115.135C134.103 114.258 137.509 112.253 140.629 109.9Z" fill="#E0855C"/>
<path d="M141.948 112.288C141.928 112.213 141.901 112.131 141.867 112.05C138.617 114.15 135.137 115.66 131.608 117.332C131.54 117.366 131.574 117.481 131.642 117.454C135.47 116.598 138.848 114.619 141.948 112.288Z" fill="#E0855C"/>
<path d="M142.274 115.299C142.288 115.183 142.301 115.061 142.301 114.932C139.215 116.876 135.904 118.304 132.58 119.887C132.505 119.908 132.539 120.03 132.614 120.01C136.19 119.296 139.351 117.427 142.274 115.299Z" fill="#E0855C"/>
<path d="M117.795 120.017C117.795 120.017 96.0543 128.915 84.0285 132.926C84.0285 132.926 72.4309 143.524 84.0285 148.514C95.626 153.497 123.512 128.086 123.512 128.086L117.795 120.017Z" fill="#F5A784"/>
<path d="M189.27 196.455C189.27 196.455 188.855 199.507 188.732 203.361C188.624 207.209 188.44 215.659 186.985 218.079C186.985 218.079 186.605 218.46 185.911 218.902C185.816 218.963 185.707 219.031 185.592 219.085C184.946 219.439 184.103 219.792 183.063 219.922C182.988 219.935 182.9 219.942 182.818 219.956C182.077 220.037 181.234 220.01 180.344 219.772C180.269 219.752 180.194 219.731 180.119 219.711C179.433 219.527 178.705 219.249 177.93 218.834C177.93 218.834 178.318 210.234 177.407 207.481C177.407 207.481 175.83 212.552 174.205 212.885L173.131 212.498C173.131 212.498 174.205 206.849 174.45 204.286C175.048 198.059 180.337 194.123 180.337 194.123C180.337 194.123 187.189 192.45 189.27 196.455Z" fill="#F5A784"/>
<path d="M180.344 219.765C180.27 219.745 180.195 219.725 180.12 219.704C180.603 215.877 180.44 212.07 180.412 208.168C180.412 208.093 180.528 208.073 180.555 208.147C181.425 211.995 181.099 215.931 180.344 219.765Z" fill="#E0855C"/>
<path d="M183.064 219.914C182.989 219.928 182.901 219.935 182.819 219.948C183.302 216.107 183.139 212.314 183.118 208.412C183.118 208.337 183.234 208.317 183.248 208.392C184.125 212.212 183.812 216.114 183.064 219.914Z" fill="#E0855C"/>
<path d="M185.912 218.902C185.817 218.963 185.708 219.031 185.593 219.086C186.001 215.462 185.851 211.859 185.831 208.175C185.817 208.1 185.939 208.08 185.96 208.154C186.871 211.683 186.558 215.34 185.912 218.902Z" fill="#E0855C"/>
</svg>
