<svg width="512" height="512" viewBox="0 0 512 512" fill="none" xmlns="http://www.w3.org/2000/svg">
<path d="M26.4254 113.313C30.2256 106.931 34.635 100.404 41.3942 97.3C48.1245 94.196 57.7266 96.1686 60.3664 103.102C63.4415 111.196 55.9571 119.115 53.3752 127.383C50.3872 136.927 54.1004 147.632 50.9674 157.118C46.5869 170.346 22.6831 183.661 13.6611 167.735C5.19029 152.737 18.9989 125.758 26.4254 113.313Z" fill="#EDF7EE"/>
<path d="M136.337 61.2942C156.664 47.6293 178.896 36.8254 202.621 31.049C246.104 20.4384 284.352 28.8895 318.668 56.5336C350.392 82.0943 367.97 121.988 403.729 143.046C417.222 150.995 432.437 155.998 445.721 164.281C467.281 177.737 482.571 199.224 492.241 222.444C505.049 253.219 507.099 292.458 483.509 317.196C470.002 331.333 450.68 338.181 433.212 347.222C398.491 365.217 393.385 397.175 374.194 427.709C352.723 461.821 313.272 481.972 273.452 490.418C252.066 494.939 228.469 496.222 209.953 485.356C184.084 470.134 176.316 434.481 148.429 422.168C138.5 417.787 127.221 418.36 117.034 413.958C103.109 407.966 89.4093 399.193 78.4691 388.964C62.1938 373.723 51.1147 351.353 55.4003 329.39C59.1703 310.106 73.7769 294.274 79.7352 275.452C95.2585 226.348 54.8185 177.996 75.1799 127.005C83.8457 105.279 101.051 88.0555 119.426 73.5821C124.899 69.3124 130.529 65.1985 136.337 61.2942Z" fill="#EDF7EE"/>
<path d="M430.712 376.236C435.055 372.436 439.885 368.637 445.612 367.958C451.338 367.253 457.96 370.998 458.286 376.779C458.638 383.509 451.202 387.58 447.321 393.062C442.844 399.413 443.033 408.233 438.447 414.502C432.042 423.241 411.199 427.42 408.295 413.444C405.581 400.362 422.245 383.672 430.712 376.236Z" fill="#EDF7EE"/>
<path d="M373.264 153.873H317.708C284.005 153.873 270 167.862 270 201.581V393.494C270 427.213 284.005 441.202 317.708 441.202H373.264C406.967 441.202 420.972 427.213 420.972 393.494V201.581C420.972 167.862 406.967 153.873 373.264 153.873Z" fill="white"/>
<path d="M317.704 432.002C289.374 432.002 279.201 422.236 279.201 393.499V201.577C279.201 172.789 289.42 163.074 317.704 163.074H372.648C400.978 163.074 411.151 172.84 411.151 201.577V393.499C411.151 421.829 401.385 432.002 372.648 432.002H317.704Z" fill="#EEFFF8"/>
<path d="M366.069 288.226C366.52 289.017 366.622 292.335 366.282 295.515C365.832 297.853 364.694 300.002 363.013 301.687V301.674C363.039 299.9 363.239 298.133 363.61 296.398C364.058 294.092 364.371 291.762 364.547 289.419C364.95 288.856 365.644 288.203 366.069 288.226Z" fill="#5DB892"/>
<path d="M341.067 329.59C338 329.59 336.899 328.097 334.7 324.718C333.186 322.236 331.373 319.95 329.3 317.913C324.469 313.329 324.641 309.53 324.86 304.721L324.86 304.72C324.905 303.724 324.951 302.712 324.951 301.674C324.923 299.739 324.707 297.812 324.305 295.919L324.304 295.914C323.657 292.343 322.851 287.899 323.368 276.782C324.091 261.049 341.887 260.035 342.643 260C343.399 260.035 361.195 261.049 361.918 276.782C362.436 287.899 361.63 292.343 360.982 295.914L360.981 295.919C360.579 297.812 360.363 299.739 360.336 301.674C360.336 302.712 360.381 303.724 360.427 304.72L360.427 304.721C360.645 309.53 360.817 313.329 355.987 317.913C353.914 319.95 352.1 322.236 350.587 324.718C348.387 328.097 347.286 329.59 344.219 329.59H341.067Z" fill="#5DB892"/>
<path d="M318.555 286.117C317.783 287.121 317.454 291.442 317.851 295.608C318.467 298.683 320.212 301.556 322.862 303.856L322.863 303.838C322.907 301.524 322.668 299.208 322.151 296.924C321.536 293.889 321.142 290.832 320.971 287.767C320.344 287.007 319.246 286.113 318.555 286.117Z" fill="#5DB892"/>
<path d="M379.19 289.936H376.226V282.034C376.226 279.862 374.448 278.084 372.275 278.084H364.372V275.121C364.372 272.355 362.199 270.183 359.433 270.183C356.667 270.183 354.493 272.355 354.493 275.121V278.084H346.59C344.417 278.084 342.639 279.862 342.639 282.034V289.541H345.602C348.566 289.541 350.937 291.911 350.937 294.874C350.937 297.837 348.566 300.207 345.602 300.207H342.639V307.713C342.639 309.886 344.417 311.664 346.59 311.664H354.098V308.701C354.098 305.738 356.469 303.368 359.433 303.368C362.396 303.368 364.767 305.738 364.767 308.701V311.664H372.275C374.448 311.664 376.226 309.886 376.226 307.713V299.812H379.19C381.956 299.812 384.129 297.639 384.129 294.874C384.129 292.108 381.956 289.936 379.19 289.936Z" fill="#005264"/>
<path d="M359.779 156.58H330.568C327.128 156.58 327.128 160.366 330.568 160.366H359.779C363.219 160.366 363.224 156.58 359.779 156.58Z" fill="#F1F2F1"/>
<path d="M364.384 418.918H325.973C322.533 418.918 322.533 422.704 325.973 422.704H364.384C367.819 422.704 367.824 418.918 364.384 418.918Z" fill="#D2F2E5"/>
<path d="M301.922 172.666H298.121C294.681 172.666 294.681 176.452 298.121 176.452H301.922C305.363 176.447 305.363 172.666 301.922 172.666Z" fill="#D2F2E5"/>
<path d="M314.059 172.666H310.258C306.818 172.666 306.818 176.452 310.258 176.452H314.059C317.499 176.447 317.504 172.666 314.059 172.666Z" fill="#D2F2E5"/>
<path d="M319.937 156.58C317.428 156.58 317.428 160.366 319.937 160.366C322.446 160.366 322.446 156.58 319.937 156.58Z" fill="#F1F2F1"/>
<path d="M372.821 172.666C370.312 172.666 370.312 176.452 372.821 176.452C375.33 176.447 375.33 172.666 372.821 172.666Z" fill="#D2F2E5"/>
<path d="M378.913 172.666C376.404 172.666 376.404 176.452 378.913 176.452C381.422 176.447 381.422 172.666 378.913 172.666Z" fill="#D2F2E5"/>
<path d="M385.004 172.666C382.495 172.666 382.495 176.452 385.004 176.452C387.513 176.447 387.518 172.666 385.004 172.666Z" fill="#D2F2E5"/>
<path d="M391.095 172.666C388.587 172.666 388.587 176.452 391.095 176.452C393.604 176.447 393.609 172.666 391.095 172.666Z" fill="#D2F2E5"/>
<path d="M199.381 84.0316C232.437 46.3997 308.351 3.92616 347.566 135.086" stroke="#F4EDDB" stroke-width="3" stroke-linecap="round"/>
<path d="M297 43C297 56.2545 286.254 67 273 67C262.888 67 254.236 60.7479 250.706 51.8941C250.476 51.3213 250.267 50.7405 250.081 50.1435C249.843 49.3731 249.641 48.5865 249.48 47.7798C249.165 46.2349 249 44.6376 249 43C249 42.4756 249.016 41.9593 249.048 41.447C249.827 29.2575 259.709 19.5405 271.971 19.0242C272.31 19.004 272.653 19 272.996 19C274.771 19 276.505 19.1936 278.167 19.5607C278.55 19.6414 278.925 19.7341 279.301 19.835C289.502 22.6061 297 31.9237 297 43Z" fill="#FFD363"/>
<path d="M274.741 49.8447H269.834V53.873H267.036V49.8447H264.004V47.5303H267.036V45.5234H264.004V43.2236H267.036V32.5449H274.902C277.188 32.5449 278.999 33.126 280.337 34.2881C281.675 35.4502 282.344 37.0225 282.344 39.0049C282.344 41.085 281.699 42.6914 280.41 43.8242C279.131 44.9473 277.31 45.5137 274.946 45.5234H269.834V47.5303H274.741V49.8447ZM269.834 43.2236H274.902C276.416 43.2236 277.568 42.8672 278.359 42.1543C279.15 41.4414 279.546 40.4014 279.546 39.0342C279.546 37.7939 279.136 36.793 278.315 36.0312C277.495 35.2598 276.387 34.8691 274.99 34.8594H269.834V43.2236Z" fill="#FFF4BF"/>
<path d="M103.01 370.036C103.01 370.036 102.214 372.062 101.392 376.256C101.324 376.596 101.262 376.95 101.194 377.324C100.984 378.473 100.773 379.785 100.576 381.246C100.379 382.592 80.977 383.966 78.856 382.511C76.7485 381.056 79.1959 380.369 79.1959 380.369C81.9491 380.288 87.911 378.541 89.9164 377.229C95.5724 373.537 95.6676 368.969 95.6676 368.969C99.5629 363.558 103.01 370.036 103.01 370.036Z" fill="#F5A784"/>
<path d="M194.382 382.429C192.227 383.918 172.404 382.51 172.207 381.117C172.01 379.642 171.738 378.316 171.575 377.133C171.561 377.018 171.541 376.922 171.527 376.827C170.752 371.062 170.603 368.744 170.603 368.744C170.603 368.744 174.845 363.041 178.828 368.568C178.828 368.568 178.346 374.72 183.091 377.024C183.288 377.12 183.499 377.222 183.757 377.33C186.299 378.445 191.486 380.165 194.056 380.247C194.056 380.24 196.537 380.94 194.382 382.429Z" fill="#F5A784"/>
<path d="M185.885 238.031C185.137 289.119 180.168 370.703 180.168 370.703C178.999 371.267 177.85 371.661 176.769 371.933C172.833 372.919 169.787 372.239 169.787 372.239C169.787 372.239 156.13 223.143 154.872 216.243C154.179 212.423 152.52 212.062 151.181 212.518C150.032 212.892 149.203 213.864 148.815 215.013C145.627 224.598 130.644 286.087 128.863 292.613C126.986 299.513 104.369 371.736 104.369 371.736C102.765 372.144 101.31 372.273 100.012 372.225C95.654 372.049 93.1455 369.86 93.1455 369.86C93.1455 369.86 103.173 303.694 105.681 288.643C108.176 273.612 124.777 192.559 124.777 192.559H184.138C184.621 197.501 185.273 204.238 185.987 225.794C186.096 229.608 185.946 233.721 185.885 238.031Z" fill="white"/>
<path d="M101.392 376.256C101.324 376.596 101.262 376.949 101.194 377.323C100.984 378.472 100.773 379.784 100.576 381.246C100.379 382.592 80.977 383.965 78.856 382.51C76.7485 381.055 79.1959 380.369 79.1959 380.369C81.9491 380.287 87.911 378.54 89.9164 377.228C92.5337 377.616 96.7893 377.874 101.392 376.256Z" fill="#505351"/>
<path d="M194.383 382.43C192.228 383.919 172.404 382.511 172.207 381.118C172.01 379.643 171.738 378.317 171.575 377.134C171.561 377.019 171.541 376.923 171.527 376.828C174.104 377.345 178.557 377.943 183.757 377.331C186.3 378.446 191.487 380.166 194.056 380.248C194.056 380.241 196.538 380.941 194.383 382.43Z" fill="#505351"/>
<path d="M91.5954 165.298C91.5954 165.298 80.9835 155.427 97.0678 137.623C112.194 120.879 124.281 108.969 124.281 108.969L117.965 150.566L91.5954 165.298Z" fill="#F5A784"/>
<path d="M171.534 60.9743C171.793 60.7432 172.058 60.5257 172.35 60.3558C172.962 59.9955 173.642 59.8595 174.267 59.5536C174.6 59.3904 174.396 58.9486 174.097 58.9146C172.921 58.7854 171.847 59.5536 171.065 60.4781C171.092 59.7099 171.052 58.9282 170.997 58.228C170.922 57.3578 170.929 56.3041 170.052 55.8826C169.977 55.8486 169.869 55.9098 169.903 55.9982C170.399 57.3646 170.317 58.7378 170.27 60.1179C164.967 54.8765 152.629 55.9506 148.278 60.852C144.879 64.6794 144.988 73.1158 144.988 73.1158C145.491 76.712 174.845 78.092 174.845 78.092C174.845 78.092 175.205 75.9845 175.613 68.9689C175.899 63.9995 172.962 61.7289 171.534 60.9743Z" fill="#112545"/>
<path d="M147.693 73.7619C147.693 73.7619 145.273 70.8523 142.846 73.7619C140.426 76.6715 144.546 82.2323 147.693 82.4838C147.693 82.4838 148.06 75.0195 147.693 73.7619Z" fill="#E0855C"/>
<path d="M192.84 107.493C191.276 111.225 185.457 125.569 183.581 137.208C182.581 143.401 178.754 164.699 178.754 164.699C156.81 170.736 132.683 164.699 132.683 164.699C132.683 164.699 119.434 109.104 129.631 102.558C134.662 99.3218 150.943 99.383 150.943 99.383L151.983 88.2477C162.595 90.4163 170.161 83.8086 170.161 83.8086C169.794 85.7053 169.563 88.4313 169.414 91.0961C169.148 95.5421 169.114 99.8249 169.114 99.8249C180.984 100.015 189.774 104.434 192.364 106.018C192.86 106.337 193.064 106.956 192.84 107.493Z" fill="#F5A784"/>
<path d="M170.161 83.8164C167.34 96.6172 154.465 95.7402 151.439 94.0475L151.977 88.2555C162.588 90.4173 170.161 83.8164 170.161 83.8164Z" fill="#E0855C"/>
<path d="M148.251 65.3601C146.64 67.0325 146.511 70.7918 146.375 74.9454C145.967 87.5219 149.733 91.4512 156.157 92.1446C162.581 92.838 169.305 90.3635 170.685 78.7048C171.378 72.872 172.112 67.4879 169.991 64.9658C166.83 61.2064 153.186 60.2208 148.251 65.3601Z" fill="#F5A784"/>
<path d="M169.787 77.0178C169.787 77.0178 171.752 71.8104 174.858 74.5704C177.958 77.3304 173.675 85.2027 168.93 84.618C168.93 84.6112 168.278 78.7989 169.787 77.0178Z" fill="#F5A784"/>
<path d="M188.658 104.488C191.126 104.794 193.288 106.29 194.661 108.363C198.91 114.774 207.863 162.19 207.877 171.721C207.911 188.608 199.937 218.669 199.937 218.669C199.937 218.669 192.907 220.178 190.256 214.386C190.256 214.386 192.438 177.636 191.711 171.123C190.99 164.61 184.695 138.805 181.813 127.948C179.297 118.451 179.903 103.414 188.658 104.488Z" fill="#F5A784"/>
<path d="M173.411 76.936C172.724 77.0583 172.024 77.7041 171.528 78.1664C171.011 78.6491 170.399 79.2541 170.141 79.9271C170.059 80.1378 170.352 80.267 170.495 80.131C170.896 79.7572 171.222 79.3084 171.596 78.9074C171.861 79.1997 172.133 79.492 172.507 79.628C172.792 79.73 173.003 79.3765 172.881 79.1454C172.718 78.8462 172.418 78.6287 172.126 78.4247C172.622 78.044 173.214 77.7449 173.622 77.303C173.778 77.1331 173.622 76.902 173.411 76.936Z" fill="#E0855C"/>
<path d="M156.831 79.7711C156.28 79.6895 155.015 80.0158 154.757 79.4244C154.54 78.9281 155.43 76.005 155.553 75.5019C156.001 73.6936 156.477 72.47 156.817 70.3014C156.831 70.2062 156.667 70.1518 156.627 70.247C155.349 73.1294 154.88 76.6916 154.105 79.744C154.064 79.9139 154.186 80.0907 154.363 80.0839C155.172 80.0703 155.954 80.2402 156.763 80.247C157.035 80.2606 157.116 79.8119 156.831 79.7711Z" fill="#E0855C"/>
<path d="M153.084 68.7984C152.302 68.4041 150.847 68.2954 150.283 69.1044C150.181 69.2539 150.317 69.4715 150.494 69.4647C150.881 69.4443 151.221 69.2539 151.609 69.2267C152.03 69.1927 152.431 69.2879 152.826 69.417C153.186 69.5258 153.424 68.9751 153.084 68.7984Z" fill="#112545"/>
<path d="M164.539 69.7512C164.097 68.6431 162.166 68.5411 161.344 69.2278C161.154 69.3841 161.276 69.6832 161.48 69.7444C161.963 69.894 162.472 69.7104 162.969 69.758C163.404 69.7988 163.757 69.9892 164.158 70.132C164.369 70.1999 164.627 69.962 164.539 69.7512Z" fill="#112545"/>
<path d="M209.318 174.631C208.489 175.359 207.653 175.977 206.824 176.48C206.334 176.773 205.865 177.031 205.382 177.255C197.802 180.804 191.113 175.828 191.113 175.828L183.581 137.208C183.581 137.208 183.628 154.264 183.649 154.883C183.717 158.622 184.315 173.591 184.363 174.305C184.669 180.219 185.11 186.419 185.709 192.605C185.756 193.156 185.824 193.707 185.872 194.257C185.885 194.454 185.777 194.645 185.532 194.822C184.546 195.597 181.514 196.331 177.272 196.909C176.64 197.004 175.974 197.106 175.28 197.187C171.276 197.67 166.45 198.064 161.365 198.302C160.508 198.35 159.645 198.384 158.788 198.397C155.26 198.527 151.664 198.574 148.149 198.54C147.503 198.54 146.851 198.527 146.219 198.506C143.69 198.459 141.229 198.343 138.897 198.18C138.394 198.146 137.911 198.098 137.408 198.064C137.082 198.051 136.776 198.017 136.45 197.983C136.062 197.949 135.675 197.901 135.28 197.867C127.293 197.024 121.773 195.359 122.323 192.537C122.86 189.771 125.484 174.754 125.546 174.264C126.341 169.227 126.919 164.856 127.34 161.083C127.401 160.484 127.469 159.913 127.517 159.349C127.925 155.454 131.202 141.633 124.533 142.259C121.514 142.537 118.849 144.686 116.844 146.752C116.552 147.045 116.259 147.337 115.987 147.629C112.507 151.212 109.332 154.414 108.55 155.114C108.503 155.162 108.435 155.209 108.353 155.243C107.979 155.406 107.347 155.44 106.558 155.338C101.569 154.774 89.7263 149.607 90.2294 144.856C90.2294 144.856 90.9908 143.041 93.0642 139.737C93.2749 139.383 93.5197 139.009 93.778 138.622C95.3687 136.174 97.5849 133.047 100.617 129.37C100.875 129.043 101.154 128.724 101.426 128.384C102.303 127.33 103.255 126.249 104.274 125.114C104.553 124.788 104.839 124.468 105.131 124.142C105.892 123.299 106.688 122.442 107.51 121.552C107.707 121.355 107.898 121.164 108.095 120.967C110.236 118.717 112.629 116.338 115.287 113.822C115.532 113.598 115.79 113.353 116.049 113.108C118.156 111.151 120.44 109.104 122.887 107.004C123.214 106.725 123.533 106.453 123.86 106.161C125.885 104.461 128.02 102.694 130.277 100.899C131.106 100.233 132.126 99.7502 133.255 99.3899C133.771 99.2267 134.322 99.084 134.893 98.9684C139.767 97.9827 145.532 98.8393 145.532 98.8393C145.532 98.8393 145.335 102.13 146.776 105.481C147 105.998 147.259 106.535 147.585 107.038C149.318 109.92 152.507 112.463 158.374 112.578C158.924 112.592 159.522 112.592 160.141 112.544C160.318 112.544 160.495 112.531 160.692 112.51C164.546 112.204 167.184 111.103 168.999 109.662C169.244 109.485 169.482 109.274 169.692 109.077C171.779 107.072 172.527 104.577 172.738 102.646C172.833 101.674 172.819 100.845 172.772 100.28C172.738 99.7978 172.69 99.5191 172.69 99.5191C172.69 99.5191 193.458 99.5667 198.285 111.389C199.679 114.822 201.473 121.348 203.255 128.962C203.479 129.947 203.71 130.953 203.934 131.973C204.94 136.494 205.913 141.253 206.769 145.937C206.98 147.051 207.177 148.153 207.367 149.274C207.775 151.524 208.129 153.727 208.455 155.848C208.632 156.983 208.795 158.051 208.938 159.118C209.135 160.525 209.291 161.885 209.441 163.17C209.57 164.223 209.665 165.23 209.747 166.168C210.161 170.79 210.1 173.951 209.318 174.631Z" fill="#2C72BA"/>
<path d="M153.343 72.4496C153.315 72.3545 153.22 72.2729 153.118 72.2797C152.554 72.3137 152.255 72.8711 151.711 73.0411C150.902 73.2858 150.311 72.8983 149.624 72.5448C149.468 72.4633 149.209 72.606 149.291 72.8032C149.651 73.6665 150.712 74.0813 151.602 73.9657C152.289 73.8705 153.587 73.3266 153.343 72.4496Z" fill="#112545"/>
<path d="M164.151 72.4978C163.56 72.7901 163.118 73.2116 162.452 73.3612C161.602 73.5515 161.038 73.2116 160.399 72.6882C160.222 72.5386 159.841 72.6746 159.957 72.9465C160.732 74.8296 163.574 74.2653 164.587 72.9329C164.79 72.6542 164.403 72.3686 164.151 72.4978Z" fill="#112545"/>
<path d="M158.984 83.3528C158.087 83.4956 157.346 84.0258 156.401 84.0938C155.429 84.1618 154.661 83.8083 153.75 83.5771C153.587 83.5363 153.478 83.7335 153.587 83.8559C154.776 85.0931 158.243 85.2903 159.195 83.6384C159.284 83.4752 159.141 83.3256 158.984 83.3528Z" fill="#E0855C"/>
<path d="M155.872 80.9053C155.872 80.9053 151.929 80.7761 150.957 82.4824C150.957 82.4824 156.477 84.6103 161.827 82.1833C161.82 82.1833 160.549 80.545 155.872 80.9053Z" fill="#112545"/>
<path d="M143.01 136.984L147.333 136.528C149.149 136.338 150.461 134.713 150.27 132.905L148.863 119.465C148.673 117.65 147.048 116.338 145.24 116.528L140.916 116.984C139.101 117.174 137.789 118.799 137.979 120.607L139.386 134.047C139.57 135.855 141.195 137.174 143.01 136.984Z" fill="#112545"/>
<path d="M134.518 147.078C134.518 147.078 137.088 145.372 140.501 143.591C143.92 141.824 151.446 137.983 152.996 135.617C152.996 135.617 153.172 135.107 153.274 134.291C153.288 134.176 153.302 134.053 153.302 133.924C153.342 133.19 153.288 132.272 152.955 131.28C152.935 131.205 152.907 131.123 152.873 131.042C152.622 130.342 152.234 129.594 151.636 128.894C151.588 128.832 151.534 128.778 151.48 128.717C151.017 128.18 150.446 127.643 149.739 127.133C149.739 127.133 142.166 131.219 139.291 131.592C139.291 131.592 143.172 127.969 142.765 126.358L141.949 125.562C141.949 125.562 137.326 128.982 135.13 130.321C129.78 133.571 128.536 140.042 128.536 140.042C128.536 140.042 130.011 146.943 134.518 147.078Z" fill="#F5A784"/>
<path d="M151.629 128.9C151.575 128.839 151.527 128.785 151.473 128.724C148.237 130.824 144.743 132.333 141.214 133.999C141.146 134.033 141.18 134.148 141.255 134.135C145.103 133.258 148.509 131.253 151.629 128.9Z" fill="#E0855C"/>
<path d="M152.948 131.288C152.928 131.213 152.901 131.131 152.867 131.05C149.617 133.15 146.137 134.66 142.608 136.332C142.54 136.366 142.574 136.481 142.642 136.454C146.47 135.598 149.848 133.619 152.948 131.288Z" fill="#E0855C"/>
<path d="M153.274 134.299C153.288 134.183 153.301 134.061 153.301 133.932C150.215 135.876 146.904 137.304 143.58 138.887C143.505 138.908 143.539 139.03 143.614 139.01C147.19 138.296 150.351 136.427 153.274 134.299Z" fill="#E0855C"/>
<path d="M128.795 139.017C128.795 139.017 107.054 147.915 95.0285 151.926C95.0285 151.926 83.4309 162.524 95.0285 167.514C106.626 172.497 134.512 147.086 134.512 147.086L128.795 139.017Z" fill="#F5A784"/>
<path d="M200.27 215.455C200.27 215.455 199.855 218.507 199.732 222.361C199.624 226.209 199.44 234.659 197.985 237.079C197.985 237.079 197.605 237.46 196.911 237.902C196.816 237.963 196.707 238.031 196.592 238.085C195.946 238.439 195.103 238.792 194.063 238.922C193.988 238.935 193.9 238.942 193.818 238.956C193.077 239.037 192.234 239.01 191.344 238.772C191.269 238.752 191.194 238.731 191.119 238.711C190.433 238.527 189.705 238.249 188.93 237.834C188.93 237.834 189.318 229.234 188.407 226.481C188.407 226.481 186.83 231.552 185.205 231.885L184.131 231.498C184.131 231.498 185.205 225.849 185.45 223.286C186.048 217.059 191.337 213.123 191.337 213.123C191.337 213.123 198.189 211.45 200.27 215.455Z" fill="#F5A784"/>
<path d="M191.344 238.765C191.27 238.745 191.195 238.725 191.12 238.704C191.603 234.877 191.44 231.07 191.412 227.168C191.412 227.093 191.528 227.073 191.555 227.147C192.425 230.995 192.099 234.931 191.344 238.765Z" fill="#E0855C"/>
<path d="M194.064 238.914C193.989 238.928 193.901 238.935 193.819 238.948C194.302 235.107 194.139 231.314 194.118 227.412C194.118 227.337 194.234 227.317 194.248 227.392C195.125 231.212 194.812 235.114 194.064 238.914Z" fill="#E0855C"/>
<path d="M196.912 237.902C196.817 237.963 196.708 238.031 196.593 238.086C197.001 234.462 196.851 230.859 196.831 227.175C196.817 227.1 196.939 227.08 196.96 227.154C197.871 230.683 197.558 234.34 196.912 237.902Z" fill="#E0855C"/>
</svg>
