<svg width="512" height="512" viewBox="0 0 512 512" fill="none" xmlns="http://www.w3.org/2000/svg">
<path d="M306.467 49.4546C282.505 44.3779 257.847 42.6663 233.682 46.1765C189.385 52.5876 157.068 74.722 135.572 113.189C115.7 148.754 114.308 192.327 89.0115 225.224C79.4674 237.64 67.2253 247.967 58.0003 260.615C43.0313 281.154 36.8812 306.799 36.5911 331.95C36.214 365.282 48.9783 402.443 80.1056 416.571C97.9175 424.636 118.398 423.765 137.98 425.622C176.911 429.335 193.591 457.068 222.804 478.216C255.469 501.83 299.592 505.775 339.683 498.726C361.208 494.926 383.575 487.296 396.687 470.297C414.992 446.509 408.871 410.537 430.135 388.693C437.707 380.918 448.382 377.234 456.186 369.343C466.861 358.581 476.289 345.323 482.614 331.747C492.013 311.527 493.927 286.637 481.743 267.868C471.039 251.39 451.573 242.165 439.012 226.935C406.26 187.192 425.697 127.229 387.752 87.5442C371.594 70.6316 349.198 61.0874 326.745 54.5313C320.073 52.6166 313.314 50.9051 306.467 49.4546Z" fill="#FFF5EB"/>
<path d="M327.643 111.736C293.673 92.3578 253.205 86.933 215.434 97.0864C203.859 100.19 191.85 104.948 180.855 112.171C158.982 126.531 147.465 149.304 141.576 166.564C138.037 176.921 136.151 187.77 135.919 198.707C135.687 209.005 133.946 226.295 125.505 236.274C112.943 251.098 96.4081 263.079 97.5394 268.214C98.5838 272.914 102.761 281.471 119.703 284.836C123.097 285.504 125.563 288.463 125.766 291.915C125.998 295.947 125.418 301.111 121.791 304.998C121.791 304.998 118.078 311.264 126.636 315.268C126.636 315.268 119.79 318.401 123.793 324.115C127.796 329.83 130.059 330.672 128.086 346.366C126.085 362.06 121.53 382.309 135.803 388.865C150.076 395.421 179.462 398.003 207.138 391.998C234.813 385.993 238.816 401.687 241.659 413.958C244.502 426.229 251.348 463.594 251.348 463.594C251.348 463.594 277.892 485.264 339.218 462.462C381.717 445.056 391.145 419.673 391.145 419.673C391.145 419.673 370.026 383.44 365.762 372.3C361.469 361.161 352.07 337.199 362.049 310.394C372.028 283.589 384.009 264.733 387.432 221.392C390.072 188.031 378.12 140.514 327.643 111.736Z" fill="#F9A124"/>
<path d="M72.4757 208.892C66.9639 212.431 60.6688 215.216 54.1417 214.868C52.5751 214.781 50.9796 214.491 49.7032 213.62C48.0206 212.46 47.1794 210.429 46.8022 208.428C45.3808 200.74 50.0513 193.285 55.302 187.512C60.5528 181.739 66.7897 176.459 69.6327 169.178C72.2725 162.418 71.6345 154.818 73.056 147.711C74.5064 140.574 79.467 133.032 86.7194 132.916C102.152 132.684 104.125 157.226 101.717 167.756C97.8882 184.379 86.8065 199.725 72.4757 208.892Z" fill="#FFF5EB"/>
<path d="M445.482 401.081C449.282 394.699 453.692 388.171 460.451 385.067C467.181 381.963 476.783 383.936 479.423 390.869C482.498 398.963 475.014 406.883 472.432 415.15C469.444 424.694 473.157 435.399 470.024 444.885C465.644 458.114 441.74 471.429 432.718 455.503C424.247 440.505 438.056 413.526 445.482 401.081Z" fill="#FFF5EB"/>
<path d="M355.002 37.6456C352.884 35.7019 350.418 34.6286 347.894 33.3521C343.891 31.2925 342.498 27.7243 339.539 24.5913C335.971 20.791 330.895 18.0931 325.557 18.8184C320.19 19.5146 315.432 23.576 315.055 29.1458C314.504 37.0944 321.815 42.8963 325.267 49.4815C320.19 50.2067 315.113 46.8997 310.356 45.5652C306.875 44.5789 303.219 43.9987 299.593 44.4629C294.197 45.1011 288.889 47.944 286.829 53.2237C282.739 63.8122 295.706 72.6312 303.103 63.4061C303.8 62.5068 302.552 61.2594 301.856 62.1587C297.069 68.1927 287.206 65.2627 287.699 57.053C288.134 49.7136 295.532 46.2325 302.059 46.2035C310.472 46.1744 318.623 53.2817 326.833 51.048C327.442 50.8739 327.616 50.2358 327.384 49.7426C324.367 43.0414 317.376 37.9067 317.144 30.1901C316.767 18.4412 331.388 19.1955 337.683 25.3165C341.28 28.8267 342.411 32.7139 347.082 34.9767C353.899 38.2548 359.121 43.0704 360.049 50.99C360.919 58.5905 356.945 65.8429 350.447 69.7302C346.038 72.341 342.179 73.1533 338.814 77.2437C334.318 82.7265 327.587 85.4824 320.944 81.5371C312.996 76.8376 314.707 66.3361 315.81 58.7066C315.926 57.9233 314.765 57.5462 314.591 58.3585C312.386 68.5408 312.357 82.6685 325.354 84.7862C329.995 85.5404 334.753 84.177 338.089 80.8119C339.249 79.6515 340.033 78.1429 341.164 76.9535C343.253 74.7198 345.515 73.8205 348.213 72.6311C350.824 71.4708 353.232 70.1653 355.321 68.1927C364.023 59.7799 363.878 45.7973 355.002 37.6456Z" fill="#F9A124"/>
<path d="M342.44 52.9348C344.905 48.4963 343.774 42.9556 339.887 39.1263C339.568 35.7322 338.349 32.309 336.521 29.4081C333.359 24.4184 328.022 19.2547 322.046 16.5568C315.374 10.2907 304.466 8.55018 297.446 15.3964C290.773 21.9236 292.688 30.8005 296.227 38.4881C295.734 38.8072 295.27 39.1553 294.806 39.5324C291.673 39.9385 287.263 40.7798 285.784 43.5357C284.304 46.3787 286.074 48.6415 289.091 50.4691C289.497 58.9109 300.608 65.9311 308.063 66.8304C308.266 66.8594 308.44 66.8304 308.614 66.8595C308.933 66.9175 309.282 66.9174 309.63 66.9174C316.766 67.2366 321.959 63.9294 325.353 58.7367C325.759 58.8237 326.165 58.9109 326.571 58.9979C326.745 62.6531 327.471 66.1922 329.008 69.2963C332.025 75.3593 341.105 79.4206 345.805 72.7484C350.069 66.7434 346.559 58.2726 342.44 52.9348ZM339.916 42.2883C340.67 43.3907 341.279 44.6671 341.569 46.1466C341.946 48.0322 341.656 49.7148 340.931 51.1943C340.032 50.208 339.103 49.3086 338.088 48.4963C339.161 46.5817 339.742 44.4641 339.916 42.2883ZM337.885 40.8088C337.856 43.2746 337.276 45.3633 336.29 47.1329C334.549 45.8855 332.692 44.8121 330.749 43.8838C331.329 41.6211 332.025 39.4454 332.808 37.3277C334.665 37.9949 336.405 38.8942 337.827 40.0545C337.827 40.2866 337.885 40.5477 337.885 40.8088ZM335.187 48.8155C333.621 50.7301 331.503 52.1516 329.124 53.196C329.327 50.7882 329.733 48.3803 330.255 46.0016C331.996 46.8138 333.65 47.7421 335.187 48.8155ZM327.819 23.026C332.199 26.7102 336.231 31.5548 337.479 37.2117C335.274 35.7612 332.692 34.7168 329.936 34.0206C329.298 29.4371 327.964 25.1146 325.933 21.5465C326.571 22.0396 327.209 22.5328 327.819 23.026ZM328.022 33.5855C321.379 32.309 313.952 32.7151 308.295 33.7305C306.816 33.9916 305.191 34.3977 303.567 34.9489C302.203 29.8722 302.203 24.1283 305.742 20.241C309.949 15.6285 315.838 16.2667 321.03 18.6745C324.802 22.5618 327.122 27.8706 328.022 33.5855ZM305.278 51.5134C303.625 49.1346 302.986 45.6824 301.188 43.3326C300.782 42.6364 300.376 41.9692 299.969 41.2439C301.159 41.2149 302.377 41.186 303.538 41.186C305.858 45.7985 309.369 49.8888 313.343 52.9348C314.416 53.7471 315.606 54.5593 316.882 55.2846C313.517 55.2266 310.181 54.7625 306.903 54.0082C306.468 53.167 305.887 52.3546 305.278 51.5134ZM299.418 39.1263C300.289 38.6331 301.217 38.1979 302.116 37.7918C302.261 38.1979 302.406 38.5751 302.58 38.9812C301.536 39.0102 300.463 39.0683 299.418 39.1263ZM295.85 22.0687C298.548 13.6559 308.295 11.4221 315.635 14.7582C314.648 14.6422 313.662 14.6132 312.676 14.6712C304.727 15.2224 300.521 22.3587 300.637 29.7562C300.666 31.7868 300.985 33.7885 301.507 35.7612C300.318 36.2543 299.128 36.8055 297.997 37.4437C295.647 32.5991 294.168 27.3484 295.85 22.0687ZM291.847 42.4044C290.744 43.7678 289.932 45.3343 289.468 47.0459C288.221 45.2183 288.743 43.3617 291.847 42.4044ZM295.908 41.5921C296.488 41.5051 297.069 41.4471 297.649 41.389C298.49 42.9556 299.331 44.464 300.173 45.8565C300.231 45.9725 300.318 46.0306 300.405 46.1176C300.869 47.5101 301.246 48.9315 301.942 50.324C302.464 51.3973 303.219 52.2967 303.857 53.283C301.362 52.5868 298.896 51.7744 296.459 50.8751C294.951 50.324 292.833 49.8309 291.441 48.9316C291.818 46.0886 293.616 43.5938 295.908 41.5921ZM292.572 54.3563C292.079 53.486 291.76 52.6157 291.586 51.8035C296.43 53.9792 302.638 55.2266 304.64 55.7487C304.727 55.7777 304.814 55.7778 304.872 55.8068C305.104 57.3733 304.785 58.9399 304.872 60.6224C304.93 61.8118 305.104 63.0302 305.51 64.0746C304.002 63.6394 302.493 63.0301 301.014 62.1889C297.968 60.4193 294.342 57.4604 292.572 54.3563ZM322.539 58.4177C318.942 62.8851 314.126 64.9158 309.137 64.6257C308.005 62.8271 307.86 60.3323 307.657 58.4177C307.599 57.8375 307.831 57.2282 307.773 56.648C307.773 56.561 307.744 56.503 307.715 56.416C311.979 57.2863 316.679 57.8085 321.234 57.4313C321.756 57.6344 322.278 57.8374 322.8 58.0115C322.713 58.1565 322.655 58.3016 322.539 58.4177ZM325.034 54.5013C323.815 54.7914 322.568 54.9945 321.32 55.1105C320.943 54.9365 320.537 54.7624 320.16 54.5884C314.242 51.7454 309.253 46.9589 306.119 41.215C313.169 41.36 321.117 42.3173 328.08 45.0442C327.558 48.4383 326.513 51.6584 325.034 54.5013ZM328.341 42.8105C323.844 41.0409 319.029 39.9966 314.242 39.5034C311.196 39.1843 308.092 39.0102 304.988 38.9812C304.727 38.343 304.466 37.7048 304.205 37.0376C308.817 35.5001 313.836 35.094 318.623 35.239C321.437 35.3261 324.918 35.5001 328.341 36.1383C328.544 38.343 328.544 40.5767 328.341 42.8105ZM328.95 57.1412C328.95 56.7061 328.979 56.242 328.979 55.8068C331.068 55.0236 333.04 53.9502 334.781 52.4707C335.622 51.7745 336.347 50.9912 336.957 50.1789C337.972 51.0202 338.929 51.9195 339.8 52.9059C337.769 55.3717 334.433 56.9092 331.242 57.1412C330.517 57.1992 329.733 57.1992 328.95 57.1412ZM339.277 74.0538C333.65 74.837 330.43 68.3099 329.559 63.8715C329.269 62.392 329.124 60.8545 329.037 59.346C332.721 59.6071 336.347 58.8238 339.422 56.445C340.119 55.8938 340.699 55.3136 341.221 54.7044C342.643 56.6771 343.832 58.8818 344.644 61.4636C346.211 66.4533 345.718 73.1835 339.277 74.0538Z" fill="#3FB182"/>
<path d="M49.0653 318.401C42.4221 318.14 37.8677 325.74 34.2995 330.991C33.1101 331.194 31.9207 331.455 30.7603 331.746C28.9037 332.181 26.989 332.819 25.0744 332.935C22.8116 333.08 20.3749 331.281 18.4312 331.513C14.1958 332.036 14.863 336.677 15.3852 340.129C16.0814 344.713 17.735 348.252 21.5353 350.196C21.0131 351.704 20.6069 353.271 20.4909 354.866C19.9977 361.712 23.711 368.501 27.3952 374.012C28.9037 376.275 30.5572 378.799 33.4291 379.408C34.9376 379.727 36.4171 379.408 37.8966 379.002C36.9683 381.671 36.4171 384.456 36.4171 387.328C36.4461 392.55 38.3898 398.526 43.0603 401.485C46.4545 403.631 51.357 403.602 53.9099 400.121C57.246 395.567 53.8229 388.459 51.7632 384.166C49.7325 379.988 47.3538 377.465 43.9016 376.246C43.7276 375.985 43.4374 375.782 43.0313 375.753C42.7412 375.753 42.4801 375.753 42.219 375.753C42.074 375.724 41.929 375.695 41.7839 375.666C43.3794 372.62 45.4391 369.777 47.6149 367.137C47.7599 369.458 48.2241 371.75 49.0944 373.954C50.6899 377.987 53.997 382.889 58.9287 382.222C62.5549 381.729 67.7184 377.233 68.5887 373.693C69.9232 368.443 64.5565 364.41 60.8723 361.712C58.9576 360.291 56.8979 359.102 54.8092 357.999C54.9252 357.738 55.0413 357.477 55.1574 357.187C56.2887 353.851 55.3024 350.08 53.8809 346.627C53.91 346.569 53.939 346.482 53.968 346.424C56.5498 339.201 63.3671 318.952 49.0653 318.401ZM37.1134 332.529C44.1917 332.616 48.3401 338.708 50.893 344.539C51.2701 345.38 51.5891 346.163 51.9082 346.947C50.8059 349.731 49.7036 352.516 48.9783 355.243C47.6149 354.692 46.2224 354.199 44.83 353.735C39.5212 351.994 30.8763 351.588 24.6973 348.861C26.699 344.51 30.006 340.477 33.1971 336.271C34.0674 335.111 34.9377 333.863 35.8079 332.645C36.2141 332.616 36.6783 332.529 37.1134 332.529ZM50.2837 357.97C50.7478 358.173 51.27 358.434 51.8212 358.724C51.4731 359.392 51.038 360.059 50.5158 360.726C50.2547 361.074 49.9646 361.393 49.6745 361.741C49.8486 360.465 50.0226 359.218 50.2837 357.97ZM17.706 341.754C17.1548 339.81 16.3135 336.445 18.0831 334.908C20.1138 333.138 18.3152 334.472 20.6649 334.501C22.8116 334.501 24.6102 334.966 26.844 334.588C28.8166 334.269 30.7893 333.631 32.762 333.138C29.4259 337.605 25.0454 342.392 22.4925 347.73C20.2008 346.308 18.4602 344.423 17.706 341.754ZM51.125 387.038C51.7922 388.749 52.4305 390.606 52.8076 392.434C54.2001 399.396 43.9306 401.281 40.7106 395.567C38.0707 390.896 38.2738 385.036 39.8403 380.075C40.0434 379.408 40.3624 378.799 40.5945 378.19C41.4068 377.987 42.2191 377.871 43.0603 377.871C43.5245 377.871 43.8146 377.639 43.9596 377.32C47.7309 379.118 49.7325 383.354 51.125 387.038ZM42.5091 370.038C41.3198 371.721 40.2464 373.519 39.3471 375.376C39.086 375.376 38.8539 375.318 38.5928 375.318C35.0247 375.26 32.2977 375.811 29.4258 373.084C28.9616 372.649 28.5556 372.156 28.1204 371.663C26.4669 369.052 25.0454 365.774 24.1461 363.424C22.3765 358.84 22.5506 354.837 23.798 351.124C31.9787 353.648 40.3915 354.112 48.4562 357.245C47.934 359.537 47.6149 361.857 47.5278 364.207C45.7873 366.093 43.9886 367.92 42.5091 370.038ZM61.5394 378.857C52.1403 383.47 49.5875 371.112 49.4714 364.932C50.9799 363.308 52.6335 361.625 53.8519 359.769C61.7715 364.207 73.2883 373.113 61.5394 378.857ZM52.6625 356.868C52.0243 356.578 51.4151 356.317 50.7769 356.027C51.3571 353.851 52.0243 351.733 52.7786 349.615C53.4458 352.052 53.5618 354.402 52.6625 356.868ZM56.2017 329.251C56.5208 334.385 54.8383 339.433 52.8946 344.365C52.4305 343.378 51.9663 342.45 51.5312 341.58C48.9203 336.358 44.6849 331.426 38.5348 330.759C38.0707 330.701 37.6065 330.701 37.1424 330.73C38.4768 328.845 39.8983 327.017 41.4358 325.392C45.2071 321.476 50.2257 318.024 54.3451 323.536C55.5345 325.102 56.0856 327.307 56.2017 329.251Z" fill="#3FB182"/>
<path d="M47.5282 311.064C44.6853 309.903 41.3492 310.077 38.6223 311.412C33.8647 313.762 33.5166 319.593 29.1362 322.319C29.0201 322.377 28.962 322.464 28.904 322.551C28.5269 322.319 27.9177 322.407 27.7727 322.987C25.8871 330.558 26.7283 338.333 30.6446 345.179C32.6173 348.631 34.3289 350.604 32.8494 355.042C31.9211 357.885 28.5849 361.221 26.9024 363.629C25.2778 365.95 22.899 368.271 23.6243 371.288C24.1754 373.666 27.1054 376.074 28.6429 377.815C31.718 381.296 34.6479 385.647 38.4482 388.345C40.0147 389.448 41.7263 389.97 43.4669 390.724C45.4395 391.565 47.3541 393.103 49.4138 393.712C51.4445 394.35 53.4751 394.176 55.3607 393.219C61.0176 390.376 60.5825 384.255 58.4648 379.265C56.6662 375.03 55.5929 372.39 57.4205 368.213C58.0877 366.704 58.7549 365.254 59.2481 363.687C60.3215 360.061 60.8145 355.709 60.0603 351.967C58.9869 346.717 55.4478 346.6 50.7773 347.21C47.4122 347.645 43.873 348.573 42.9737 343.177C42.5676 340.77 44.3081 336.592 45.3235 334.532C47.4702 330.181 52.5759 330.123 54.4035 326.12C56.8983 320.695 52.6339 313.123 47.5282 311.064ZM52.895 324.582C51.5896 327.454 46.5129 328.934 44.6273 331.777C42.8867 334.387 41.5522 338.13 41.1461 341.263C40.5659 345.643 42.3065 349.269 47.0061 349.559C49.2688 349.704 52.2858 348.167 54.4905 348.776C62.4391 351.039 57.1014 363.89 55.3318 368.068C54.3165 370.504 53.5042 372.477 54.1424 375.175C54.4615 376.451 55.3028 377.583 55.854 378.743C57.1304 380.629 57.9426 382.746 58.2617 385.067C57.2174 387.185 56.144 389.303 55.0997 391.391C52.1987 393.973 40.6529 388.026 38.1871 385.85C34.5609 382.659 31.4569 378.511 28.3239 374.885C19.8821 365.196 38.1291 359.626 35.8953 350.314C35.0541 346.746 31.6019 343.554 30.2965 340.015C28.4109 334.794 28.2078 329.311 29.1651 323.886C29.4552 324.118 29.8324 324.176 30.2385 323.915C33.3716 321.855 33.7777 319.273 35.8374 316.285C38.1581 312.92 41.7263 311.122 45.7586 312.195C49.994 313.385 55.0417 319.825 52.895 324.582Z" fill="#F9A124"/>
<path d="M466.542 317.185C465.672 316.808 464.802 316.46 463.902 316.169C472.286 307.205 484.122 299.895 482.149 286.29C480.728 276.6 468.109 270.218 461.436 279.182C459.696 281.532 459.116 283.476 456.824 285.506C452.269 289.481 446.961 286.899 443.451 282.692C439.592 278.138 437.242 272.162 435.56 266.505C433.442 259.311 432.543 249.969 440.811 246.575C449.397 243.036 456.969 251.246 454.996 259.688C454.59 261.37 457.172 262.096 457.578 260.413C461.64 243.181 436.227 235.842 431.731 253.074C429.236 262.647 434.893 275.846 440.579 283.447C444.64 288.871 452.937 293.368 458.971 287.943C463.351 284.027 464.018 275.846 471.996 277.819C482.758 280.459 480.119 293.977 475.361 300.678C471.503 306.103 465.904 310.396 461.32 315.328C456.128 313.878 450.616 313.297 445.307 313.588C442.754 313.704 436.749 315.618 434.603 314.719C433.558 313.559 432.514 312.398 431.47 311.238C428.337 309.584 427.466 307.263 428.859 304.246C429.584 301.665 431.179 299.228 432.572 296.965C433.471 295.486 431.15 294.151 430.251 295.602C427.147 300.649 423.811 306.828 426.886 312.688C430.396 319.389 438.026 316.837 444.089 316.343C448.846 315.937 454.271 316.256 459.406 317.475C456.94 320.492 454.909 323.799 453.923 327.773C452.066 335.2 454.764 343.642 462.51 346.281C469.936 348.834 477.943 344.454 479.916 336.824C482.265 327.628 474.172 320.463 466.542 317.185ZM469.269 344.193C460.595 346.02 455.257 337.985 456.244 330.297C456.853 325.656 459.087 321.797 462.046 318.258C466.803 319.767 471.213 322.116 474.346 325.714C479.538 331.631 477.827 342.394 469.269 344.193Z" fill="#F9A124"/>
<path d="M487.546 277.499C487.72 271.059 486.85 264.271 483.398 259.571C475.246 248.548 461.554 255.191 452.096 263.894C450.269 263.749 448.412 263.981 446.614 264.648C441.769 266.447 439.332 270.885 438.491 275.701C433.269 278.224 428.483 281.503 424.973 285.709C414.268 298.444 424.712 315.995 438.404 314.051C439.913 321.13 442.581 327.86 446.324 333.604C451.139 340.972 459.117 342.104 467.297 340.798C477.335 339.203 485.748 336.099 490.505 326.67C498.019 311.644 501.297 289.799 487.546 277.499ZM446.382 308.452C446.005 308.162 445.511 308.075 444.989 308.452C443.597 309.439 442.146 310.164 440.609 310.628C440.115 307.466 439.825 304.42 439.738 301.751C439.593 297.98 439.883 294.18 440.551 290.467C443.307 296.53 448.151 301.403 453.982 304.101C451.69 305.9 449.138 307.35 446.382 308.452ZM454.736 301.751C448.296 298.647 443.568 292.381 441.711 285.535C442.726 281.996 444.177 278.602 446.005 275.411C450.965 273.554 456.245 272.335 461.496 272.045C465.818 278.108 465.122 287.421 462.134 293.861C460.654 297.081 458.566 299.895 456.071 302.302C455.607 302.099 455.171 301.954 454.736 301.751ZM452.822 266.534C454.214 266.766 455.723 267.288 457.318 268.216C458.043 268.622 458.682 269.115 459.262 269.638C457.724 269.812 456.216 270.015 454.736 270.334C452.59 270.769 450.356 271.349 448.151 272.016C449.515 270.073 451.11 268.245 452.822 266.534ZM464.513 271.958C468.371 271.987 472.142 272.539 475.71 273.728C479.191 274.888 482.121 276.571 484.587 278.631C484.442 286.811 483.166 294.992 475.913 300.011C470.924 303.463 464.542 304.565 458.682 303.144C466.659 294.789 470.634 282.547 464.513 271.958ZM475.739 257.715C483.514 259.919 484.558 268.071 484.616 275.208C478.147 270.798 470.431 269.086 462.685 269.377C460.654 267.027 457.956 265.286 455.026 264.445C460.625 259.687 468.429 255.655 475.739 257.715ZM449.37 266.592C447.165 268.912 445.308 271.291 443.974 273.409C443.336 273.641 442.668 273.873 442.03 274.134C443.365 270.392 445.888 267.375 449.37 266.592ZM423.899 303.144C420.273 294.528 426.307 286.782 433.124 282.054C434.72 280.951 436.402 279.936 438.143 278.979C438.114 279.878 438.143 280.777 438.23 281.648C438.346 282.953 438.607 284.258 438.897 285.506C436.692 293.687 436.402 302.622 437.853 311.208C432.138 311.905 426.452 309.236 423.899 303.144ZM486.531 328.266C481.599 335.75 471.33 338.245 462.801 338.622C449.631 339.232 443.568 325.945 441.102 313.413C442.494 312.949 443.916 312.282 445.337 311.411C445.569 311.498 445.83 311.527 446.15 311.411C449.892 310.077 453.489 307.901 456.593 305.145C461.554 306.799 467.036 306.886 472.461 304.797C480.468 301.693 485.37 295.021 486.676 286.637C486.937 284.984 487.14 283.156 487.314 281.271C493.783 288.61 495.495 299.285 493.435 309.758C492.217 316.053 490.099 322.841 486.531 328.266Z" fill="#3FB182"/>
<path d="M327.354 327.336C326.89 326.843 326.6 326.176 326.716 325.828C326.832 325.48 326.571 324.87 326.136 324.464C325.7 324.058 325.236 323.072 325.091 322.288C326.397 322.869 327.267 322.898 329.675 322.288C329.443 321.157 329.472 320.403 329.675 319.881C329.878 319.359 329.791 318.691 329.501 318.43C328.688 317.647 328.282 317.589 328.05 318.227C327.934 318.546 327.354 319.039 326.774 319.3C325.758 319.765 325.7 319.765 325.787 318.865C326.107 315.21 325.207 315.181 323.989 318.836C322.625 323.159 322.944 325.596 324.859 325.857C326.136 326.06 326.222 326.205 326.048 327.568C325.816 329.251 326.571 330.237 327.412 329.425C328.253 328.613 328.253 328.264 327.354 327.336Z" fill="#F2950E"/>
<path d="M329.618 380.076C329.444 380.801 330.343 382.542 330.865 382.397C331.068 382.368 331.097 381.643 330.894 380.83C330.546 379.409 329.908 378.974 329.618 380.076Z" fill="#F2950E"/>
<path d="M333.793 387.792C332.749 387.095 332.11 388.72 332.894 390.083C333.532 391.157 333.677 391.099 334.199 389.561C334.547 388.459 334.518 388.256 333.793 387.792Z" fill="#F2950E"/>
<path d="M355.261 421.182C355.638 421.907 356.827 422.487 357.35 422.197C357.698 422.023 357.553 421.733 356.624 420.718C355.812 419.789 354.739 420.166 355.261 421.182Z" fill="#F2950E"/>
<path d="M345.803 400.528C345.049 400.354 344.527 401.602 345.223 401.921C345.571 402.095 346.006 402.008 346.181 401.776C346.558 401.254 346.384 400.644 345.803 400.528Z" fill="#F2950E"/>
<path d="M320.218 346.135C320.102 346.918 320.218 347.585 320.45 347.643C320.683 347.672 320.915 347.237 321.002 346.628C321.089 346.048 321.002 345.381 320.799 345.149C320.596 344.946 320.363 345.352 320.218 346.135Z" fill="#F2950E"/>
<path d="M361.325 212.429C361.702 212.197 361.702 212.081 361.325 211.24C360.89 210.311 359.788 210.195 359.672 211.065C359.556 211.762 360.774 212.777 361.325 212.429Z" fill="#F2950E"/>
<path d="M331.938 138.225C334.433 143.272 336.116 146.696 337.943 150.38C339.684 153.803 341.685 157.255 343.977 162.477C345.428 165.871 347.952 171.354 349.257 176.865C350.736 182.406 351.52 188.295 352.013 191.631C352.39 193.691 352.738 197.317 352.854 199.638C353.028 203.815 353.115 204.889 353.637 204.947C353.899 204.976 354.45 201.756 354.508 198.042C354.566 196.911 354.566 195.054 354.566 193.865C354.624 192.444 354.276 191.341 353.811 190.645C353.202 189.804 353.173 189.427 353.521 188.759C353.899 187.976 353.521 185.887 352.796 185.191C352.593 184.988 352.535 184.524 352.651 184.147C352.767 183.77 352.622 182.58 352.216 181.565C351.781 180.579 351.404 178.577 351.143 177.272C350.795 174.835 350.765 174.806 351.781 174.458C352.361 174.255 353.057 173.964 353.376 173.79C353.783 173.529 354.073 173.732 354.392 174.661C354.769 175.705 354.74 175.937 354.073 176.314C353.26 176.749 353.231 177.446 353.986 177.939C354.218 178.113 354.363 178.809 354.276 179.476C354.189 180.463 354.334 180.811 355.001 181.275C355.668 181.797 355.726 182.029 355.378 182.609C354.914 183.393 355.349 183.77 356.509 183.683C357.351 183.596 358.569 184.408 358.656 185.162C358.743 185.771 358.047 185.974 357.09 185.684C356.248 185.423 355.407 185.916 355.465 186.555C355.494 186.932 355.871 187.077 356.683 187.048C357.728 186.99 357.873 187.106 358.105 188.411C358.366 190.355 360.455 191.515 360.339 189.601C360.31 188.991 360.542 188.266 360.89 187.976C361.325 187.628 361.383 187.193 361.151 186.584C360.832 185.829 360.919 185.684 361.644 185.568C362.746 185.394 362.688 184.93 361.499 184.524C360.687 184.234 360.629 184.089 360.977 183.393C361.441 182.377 362.224 182.377 362.776 183.509C363.008 184.002 363.559 184.553 364.052 184.727C364.516 184.901 365.067 185.481 365.241 185.974C366.257 188.933 366.402 189.282 367.591 189.282C368.809 189.282 368.809 189.978 367.591 190.065C367.185 190.094 366.605 190.645 366.199 191.254C365.618 192.183 365.299 192.357 364.458 192.241C363.704 192.125 363.269 192.299 362.833 192.85C361.992 193.894 360.745 193.662 360.455 192.473C360.223 191.428 358.714 191.022 358.772 191.95C358.163 192.241 358.076 191.95 358.192 191.66C357.67 191.254 357.67 191.834 357.815 192.908C358.076 194.735 359.671 196.099 361.006 195.751C361.789 195.519 362.543 196.36 362.514 197.462C362.514 199.87 362.572 200.334 363.124 200.74C363.646 201.117 363.878 201.059 364.632 200.276C365.85 199 366.402 199.087 367.214 200.885C367.968 202.481 368.055 206.542 367.388 207.122C366.547 207.906 366.46 208.95 367.156 209.646C367.823 210.285 367.823 210.633 367.301 212.808C366.315 216.26 366.721 217.218 368.693 216.086C369.535 215.593 369.622 215.593 369.883 216.289C370.057 216.667 370.434 217.044 370.782 217.102C371.246 217.189 371.304 217.508 370.84 218.639C370.492 219.539 370.405 220.322 370.637 220.67C370.927 221.134 370.84 221.366 370.289 221.627C369.738 221.888 369.651 222.149 369.854 222.817C370.057 223.426 369.941 223.89 369.477 224.441C368.664 225.399 367.098 225.166 367.33 224.151C367.417 223.774 367.33 223.31 367.156 223.136C366.924 222.933 366.605 223.687 366.286 225.137C365.966 226.646 365.937 227.168 366.286 226.617C366.692 225.95 367.069 225.834 368.316 226.095C369.999 226.414 370.057 226.472 368.983 227.98C368.49 228.677 368.316 229.228 368.49 229.605C368.635 229.895 368.345 231.81 367.736 233.811C367.011 236.393 366.779 237.583 367.069 237.902C367.417 238.279 367.301 238.482 366.518 238.888C365.589 239.381 365.56 239.439 366.025 240.716C366.402 241.789 366.286 242.427 365.531 244.11C364.922 245.444 364.69 246.401 364.864 246.866C365.067 247.388 364.98 247.649 364.545 247.823C364.226 247.968 363.878 248.548 363.82 249.099C363.646 250.289 362.253 251.913 361.615 251.681C361.383 251.594 361.383 251.159 361.615 250.724C362.137 249.767 361.934 246.779 361.354 246.604C360.89 246.43 360.165 247.417 359.555 249.041C355.755 258.44 355.088 260.065 355.958 260.558C356.857 261.08 356.451 262.908 355.233 263.836C354.711 264.242 354.189 265.2 353.811 266.505C352.912 269.551 350.765 274.135 350.533 273.612C350.475 273.467 350.388 272.858 350.359 272.307C350.33 271.64 350.011 271.205 349.489 271.06C349.054 270.944 348.126 270.595 347.458 270.276C346.182 269.667 345.573 270.073 346.037 271.263C346.182 271.611 345.979 272.539 345.602 273.351C344.702 275.353 345.167 276.281 347.052 276.136C348.387 276.02 349.663 276.31 349.489 276.658C349.489 276.658 349.402 277.123 349.373 277.5C349.344 278.051 349.083 278.08 348.184 277.674C346.53 276.919 342.875 278.109 343.049 279.327C343.194 280.401 341.598 285.216 340.96 285.651C340.641 285.883 340.322 285.68 339.858 284.955C339.046 283.679 338.262 283.302 337.508 283.853C337.015 284.201 336.841 284.143 336.435 283.447C335.855 282.402 336.696 281.445 337.769 281.938C338.175 282.141 338.872 282.025 339.307 281.735C340.264 281.039 340.235 280.111 339.249 280.343C338.088 280.633 337.392 279.53 338.146 278.544C338.524 278.051 338.697 277.239 338.581 276.716C338.32 275.556 338.93 274.135 340.206 272.829C341.076 271.959 341.105 271.727 340.409 270.218C339.8 268.855 339.8 268.449 340.409 267.723C341.424 266.534 341.743 265.548 341.627 264.01C341.569 263.198 341.918 261.748 342.614 260.152C343.252 258.731 343.6 257.454 343.455 257.251C343.194 256.961 343.948 254.814 345.225 251.826C345.457 251.275 345.573 250.579 345.486 250.318C345.399 250.028 346.008 247.475 346.791 244.632C348.677 237.496 348.3 236.77 346.24 243.268C345.283 246.227 344.035 249.767 343.513 251.13C342.933 252.9 341.308 257.773 339.713 262.589C338.059 267.491 336.377 272.481 335.913 274.164C335.477 275.672 334.462 278.747 333.65 280.981C330.836 288.755 330.111 291.685 329.792 296.675C329.705 298.039 330.314 298.271 331.387 297.284C332.402 296.385 332.983 296.501 332.809 297.574C332.751 298.01 332.721 298.938 332.75 299.634C332.779 300.417 332.489 301.346 331.996 302.071C331.039 303.463 330.053 303.579 330.401 302.245C330.662 301.259 329.966 299.808 329.356 300.04C328.399 300.417 326.252 306.596 326.63 307.96C326.746 308.366 326.542 309.7 326.194 311.064C325.701 313.036 325.73 313.559 326.339 313.849C328.37 314.806 328.689 315.067 329.124 316.053C329.385 316.634 330.024 317.272 330.575 317.504C331.097 317.707 331.474 318.084 331.387 318.316C331.3 318.548 331.271 319.041 331.358 319.419C331.416 319.796 331.184 321.333 330.865 322.871C330.517 324.379 330.459 326.149 330.633 326.671C331.126 328.005 330.836 328.789 329.879 328.441C328.921 328.121 328.718 328.586 328.747 331.603C328.776 333.14 328.631 333.894 328.312 333.952C327.761 334.01 327.21 335.809 327.703 335.925C328.805 336.244 329.124 337.666 328.37 338.826C327.703 339.812 327.645 340.189 328.051 341.06C328.399 341.814 328.341 342.626 327.906 344.164C326.775 347.819 327.993 353.563 329.705 354.056C327.993 355.419 327.79 357.015 329.037 359.626C329.879 361.395 329.908 361.482 329.269 363.194C328.747 364.586 328.747 365.109 329.211 365.718C329.531 366.153 329.733 367.052 329.646 367.777C329.588 368.503 329.733 369.228 330.024 369.402C330.285 369.576 330.575 370.156 330.662 370.707C330.778 371.723 332.286 374.044 333.128 374.508C333.36 374.653 333.331 375.465 333.099 376.364C332.692 377.902 332.693 378.018 333.766 379.207C334.375 379.875 335.1 381.238 335.39 382.253C335.681 383.298 336.116 384.487 336.348 384.98C336.609 385.56 336.493 386.083 335.971 386.547C334.984 387.446 335.1 387.765 336.696 388.519C337.827 389.013 338.059 389.39 338.407 390.956C338.814 392.9 340.583 395.134 341.395 394.844C340.612 396.642 342.092 398.064 343.281 397.425C343.948 397.048 344.209 397.222 344.848 398.354C345.399 399.34 345.776 399.601 346.211 399.369C347.69 398.499 348.561 401.052 348.474 405.113C348.474 405.577 348.677 406.186 348.938 406.476C349.547 407.115 350.446 406.795 350.417 405.983C351.578 406.157 351.549 406.476 350.969 407.202C349.866 408.594 350.853 410.016 352.419 409.29C353.202 408.942 353.695 408.971 354.015 409.406C354.334 409.841 354.218 410.161 353.695 410.393C353.289 410.596 352.796 411.35 352.651 412.075C352.506 412.8 352.216 413.352 352.013 413.265C351.81 413.178 351.723 413.903 351.781 414.86C351.955 417.384 354.131 418.863 354.421 416.775C354.624 415.527 354.624 415.527 355.871 416.02C356.538 416.282 357.293 416.427 357.496 416.311C358.221 417.268 358.685 417.674 359.12 417.761C359.584 419.008 357.989 419.008 357.38 418.312C357.06 417.935 356.596 417.732 356.393 417.848C355.813 418.138 356.19 418.718 357.148 418.95C357.583 419.066 358.25 419.734 358.627 420.43C359.236 421.532 359.526 421.677 360.861 421.445C362.572 421.155 362.949 421.503 362.63 423.07C362.456 423.882 362.572 424.172 363.095 424.317C364.081 424.607 364.313 425.188 363.472 425.304C362.282 425.478 362.224 426.232 363.385 426.638C364.226 426.928 364.893 427.74 366.46 430.235C369.738 435.225 369.941 435.892 368.519 436.82C367.678 437.343 367.446 437.749 367.678 438.155C366.779 439.518 368.635 440.766 371.304 441.288C372.436 441.52 373.277 441.723 373.799 441.926C387.347 430.061 391.118 419.879 391.118 419.879C391.118 419.879 385.519 410.277 379.514 399.427C379.079 399.137 378.905 398.731 378.934 398.354C373.451 388.432 367.765 377.728 365.763 372.506C361.47 361.366 352.071 337.404 362.05 310.6C372.03 283.795 384.011 264.939 387.434 221.598C390.074 188.15 378.121 140.661 327.674 111.884C325.295 110.55 322.916 109.273 320.479 108.055C321.843 113.799 322.597 116.351 324.367 121.022C326.02 125.199 330.169 134.541 331.938 138.225ZM365.734 193.72C365.589 193.546 365.763 193.198 366.112 192.966C366.75 193.691 366.082 194.155 365.734 193.72ZM332.693 312.108C332.519 312.572 332.112 312.833 331.764 312.688C331.126 312.427 331.126 312.34 331.822 311.528C332.112 311.238 332.489 311.064 332.664 311.122C332.896 311.238 332.896 311.644 332.693 312.108ZM334.027 308.743C333.041 309.149 332.518 308.83 332.083 307.554C331.619 306.132 331.242 305.987 330.633 307.002C329.908 308.192 329.182 307.931 328.95 306.422C328.776 305.262 328.863 305.059 329.646 304.537C330.227 304.16 330.575 304.159 330.633 304.508C330.72 305.262 331.387 305.465 331.648 304.827C332.228 303.434 333.737 303.55 334.404 305.001C335.187 306.654 335.013 308.337 334.027 308.743ZM335.158 303.434C334.085 303.376 333.998 302.796 334.81 300.649C335.652 298.387 336.145 298.096 336.754 299.518C337.334 300.852 336.261 303.492 335.158 303.434ZM336.696 296.008C335.623 296.298 335.506 295.863 336.377 294.76C337.16 293.745 337.711 293.774 337.653 294.847C337.595 295.776 337.624 295.747 336.696 296.008ZM339.8 290.699C338.552 293.455 337.537 294.238 337.334 292.614C337.305 292.353 336.986 292.121 336.609 292.092C336.232 292.062 335.797 291.714 335.594 291.337C335.39 290.931 334.781 290.525 334.201 290.409C333.215 290.235 333.186 290.148 334.027 288.871C335.593 286.464 337.363 285.913 336.783 287.972C335.942 290.931 336.261 291.685 337.595 289.858C338.117 289.104 338.291 288.465 338.088 287.885C337.624 286.406 339.249 285.738 340.293 286.957C341.076 287.798 341.047 287.972 339.8 290.699ZM357.641 315.299C356.48 314.806 356.132 313.675 356.771 312.601C357.351 311.673 358.598 311.789 359.12 312.833C359.758 314.023 358.714 315.763 357.641 315.299ZM381.661 218.059C382.328 215.448 382.415 215.332 382.531 216.957C382.589 217.769 382.647 218.813 382.676 219.278C382.734 220.38 382.067 221.888 381.603 221.801C381.052 221.685 381.11 220.119 381.661 218.059ZM380.471 250.84C381.98 251.072 382.009 251.971 380.645 254.698C379.833 256.265 379.398 257.396 379.543 257.744C379.572 258.585 379.224 259.108 378.905 259.659C378.238 260.819 377.454 260.703 377.222 259.427C376.961 257.802 379.601 250.724 380.471 250.84ZM376.729 250.956C377.019 250.898 377.396 251.275 377.541 251.768C377.947 253.074 377.744 253.422 377.019 252.609C376.207 251.71 376.091 251.072 376.729 250.956ZM376.062 254.321C376.845 254.321 376.874 254.988 376.178 256.178C375.917 256.642 375.511 256.874 375.279 256.7C374.669 256.178 375.308 254.321 376.062 254.321ZM370.956 246.517C369.535 243.907 369.564 243.849 370.869 244.458C372.088 245.038 372.117 246.111 370.956 246.517ZM368.722 209.965C369.361 209.327 369.622 207.093 369.1 207.035C368.897 207.006 368.867 205.846 369.042 204.454C369.216 203.061 369.506 201.901 369.506 201.901C370.115 201.93 370.579 203.467 370.347 205.208C370.202 206.397 370.318 207.355 370.608 207.616C371.101 208.051 371.043 208.979 370.405 211.01C370.057 212.17 369.68 212.199 368.867 211.184C368.432 210.691 368.403 210.284 368.722 209.965ZM362.601 179.737C362.747 179.592 363.124 179.476 363.501 179.505C364.255 179.563 364.661 181.014 363.907 180.956C363.211 180.898 362.311 180.086 362.601 179.737ZM358.743 173.877C359.642 173.413 359.787 174.429 358.888 175.125C358.482 175.444 358.018 175.676 357.844 175.618C357.409 175.444 358.047 174.255 358.743 173.877ZM360.368 181.072C359.468 180.695 359.352 179.534 360.107 178.693C360.716 177.997 360.774 177.997 361.238 178.925C362.079 180.724 361.702 181.623 360.368 181.072ZM361.151 174.574C361.528 174.574 361.934 174.951 362.021 175.415C362.195 176.198 362.079 176.285 360.484 176.633C358.685 177.04 357.322 176.285 359.004 175.792C359.41 175.676 359.932 175.357 360.107 175.096C360.31 174.777 360.774 174.574 361.151 174.574ZM358.221 169.207C359.41 168.743 359.787 168.946 359.41 169.845C359.178 170.396 358.975 170.512 358.308 170.396C357.148 170.222 357.119 169.671 358.221 169.207ZM350.94 169.004C351.259 168.569 351.433 168.511 351.752 168.772C352.361 169.294 352.245 169.671 351.346 170.077C350.708 170.396 350.446 169.729 350.94 169.004ZM345.283 143.388C345.457 142.75 345.921 141.909 346.327 141.532C346.907 141.039 347.226 141.039 347.632 141.532C348.967 143.156 348.039 144.81 346.066 144.636C344.993 144.578 344.993 144.578 345.283 143.388Z" fill="#F2950E"/>
<path d="M326.455 331.022C325.758 330.79 324.801 332.734 325.236 333.633C325.381 333.981 325.758 334.155 326.078 334.039C326.861 333.72 327.18 331.254 326.455 331.022Z" fill="#F2950E"/>
<path d="M323.961 355.418C324.28 356.752 324.657 357.13 324.657 357.13C324.454 355.824 324.193 355.418 323.961 355.418Z" fill="#F2950E"/>
<path d="M365.037 440.387C365.617 442.243 366.052 442.359 366.169 441.547C366.256 440.996 366.052 440.793 365.037 440.387Z" fill="#F2950E"/>
<path d="M324.628 345.323C324.367 345.468 324.077 345.99 324.019 346.483C325.469 345.526 325.44 344.917 324.628 345.323Z" fill="#F2950E"/>
<path d="M367.677 221.594C368.228 221.275 368.141 220.81 367.503 220.665C367.155 220.607 366.836 220.781 366.778 221.1C366.662 221.652 367.097 221.913 367.677 221.594Z" fill="#F2950E"/>
<path d="M351.113 255.886C351.2 256.669 351.258 257.075 351.142 257.366C350.823 258.091 351.548 258.294 352.07 257.598C352.65 256.843 351.896 255.567 351.113 255.886Z" fill="#F2950E"/>
<path d="M359.179 236.129C358.686 235.549 358.396 235.839 358.309 236.1C358.773 236.825 359.063 236.535 359.179 236.129Z" fill="#F2950E"/>
<path d="M367.387 444.361C367.01 444.623 366.807 445 367.358 445.493C367.358 445.493 367.823 445.319 368.49 444.507C368.258 444.158 367.794 444.1 367.387 444.361Z" fill="#F2950E"/>
<path d="M363.095 240.163C363.356 240.25 364.429 237.378 365.242 234.419C366.112 231.46 366.692 228.386 366.489 228.066C365.851 227.08 365.416 227.747 364.516 231.199C362.921 236.769 362.283 239.902 363.095 240.163Z" fill="#F2950E"/>
<path d="M361.178 207.758C360.569 207.729 360.569 208.512 361.672 208.367C361.643 208.048 361.381 207.758 361.178 207.758Z" fill="#F2950E"/>
<path d="M351.926 224.325C352.1 223.136 352.564 220.873 352.825 219.335C353.406 216.289 353.028 214.404 352.303 216.086C352.071 216.579 351.839 217.508 351.781 218.146C351.723 218.784 351.433 220.844 351.085 222.787C350.795 224.702 350.388 226.675 350.417 227.139C351.288 226.849 351.723 225.514 351.926 224.325Z" fill="#F2950E"/>
<path d="M352.912 213.444C353.231 213.357 353.492 212.139 353.144 209.267C352.622 210.021 352.418 213.589 352.912 213.444Z" fill="#F2950E"/>
<path d="M351.926 262.53C352.767 263.313 353.202 263.313 353.289 263.11C352.564 262.356 352.129 262.385 351.926 262.53Z" fill="#F2950E"/>
<path d="M349.373 235.085C349.489 234.737 349.43 234.273 349.256 234.099C349.082 233.925 348.792 234.157 348.647 234.621C348.502 235.085 348.531 235.52 348.763 235.607C348.966 235.694 349.256 235.462 349.373 235.085Z" fill="#F2950E"/>
<path d="M194.199 106.256C194.344 106.314 194.373 106.546 194.286 106.72C194.112 107.126 193.416 106.981 193.503 106.575C193.561 106.256 193.88 106.082 194.199 106.256ZM187.556 114.407C187.353 115.016 188.252 115.074 188.833 114.494C189.297 114.03 189.239 113.943 188.397 113.943C187.788 113.914 187.701 113.972 187.556 114.407ZM217.697 97.4077C218.77 97.3787 218.944 97.1756 218.538 97.0015C218.277 96.8855 218.103 96.9725 217.697 97.4077ZM220.279 96.8855C220.337 97.1176 220.482 97.2626 220.859 97.0885C220.859 97.0885 220.888 96.8274 220.598 96.3633C220.337 96.4213 220.221 96.6244 220.279 96.8855ZM184.539 117.743C184.887 117.685 185.496 116.902 185.38 116.699C185.322 116.612 185.003 116.728 184.655 116.989C184.046 117.453 183.988 117.83 184.539 117.743ZM198.609 102.832C198.174 103.007 197.767 103.181 197.332 103.384C197.971 103.732 198.58 103.384 198.609 102.832ZM147.581 193.429C147.842 193.807 147.987 193.574 148.016 193.371C147.813 192.907 147.668 193.139 147.581 193.429ZM148.509 216.028C148.944 215.332 149.641 211.995 149.351 212.141C149.176 212.199 148.915 213.272 148.509 216.028ZM143.752 200.102C144.042 200.827 144.303 200.276 144.854 197.607C145.753 193.255 145.985 190.964 145.579 190.848C145.318 190.76 143.578 199.608 143.752 200.102ZM151.207 178.402C151.149 177.88 151.091 177.619 151.12 177.416C151.236 176.894 150.859 176.865 150.656 177.358C150.395 177.938 150.801 178.721 151.207 178.402ZM110.507 269.754C107.403 271.32 104.357 272.481 99.8892 273.757C98.5548 271.726 97.8876 269.783 97.5394 268.274C96.4081 263.139 112.943 251.158 125.505 236.335C131.742 228.966 134.323 217.594 135.31 207.992C135.368 207.818 135.397 207.731 135.484 207.528C135.919 206.136 136.035 205.033 135.774 204.975C135.716 204.946 135.658 205.004 135.571 205.091C135.745 202.799 135.832 200.682 135.89 198.767C136.122 187.831 138.037 176.981 141.547 166.624C147.436 149.364 158.953 126.591 180.826 112.232C185.903 108.895 191.211 106.11 196.549 103.79C197.013 103.703 197.187 104.167 196.81 104.544C196.636 104.718 196.288 104.863 196.027 104.892C193.648 105.095 192.198 105.907 192.749 106.604C192.894 106.807 192.749 107.039 192.227 107.445C191.617 107.909 191.53 108.083 191.763 108.373C192.169 108.924 191.472 109.824 190.428 109.65C190.66 110.056 189.5 111.158 188.543 111.709C187.759 112.145 187.585 112.319 187.469 112.957C187.295 113.885 187.15 113.972 186.541 113.653C186.222 113.479 185.931 113.508 185.67 113.769C185.467 113.972 184.887 114.407 184.423 114.726C183.93 115.046 183.408 115.684 183.205 116.119C182.857 116.873 182.828 116.902 182.015 117.076C181.551 117.163 181.145 117.366 181.145 117.511C181.087 118.004 180.42 119.223 180.014 119.513C179.782 119.687 179.607 119.948 179.607 120.122C179.607 120.267 179.346 120.557 179.056 120.731C178.737 120.905 178.447 121.254 178.36 121.515C178.244 121.892 178.07 122.008 177.374 122.24C176.532 122.501 176.474 122.53 176.097 123.429C175.546 124.706 174.937 125.141 173.864 125.083C174.299 125.866 172.964 128.332 171.456 129.521C170.818 130.014 170.586 130.363 170.527 130.798C170.469 131.291 170.353 131.436 169.831 131.697C169.193 132.016 168.99 132.741 169.396 133.147C169.57 133.322 168.903 133.989 168.642 133.902C168.497 133.844 168.236 134.163 167.888 134.888C167.191 136.28 167.075 136.542 166.669 136.193C166.292 135.845 166.002 136.164 165.973 136.948C165.973 137.267 165.596 138.108 165.132 138.833C164.668 139.559 164.29 140.313 164.232 140.516C164.203 140.719 164.087 140.98 164 141.067C163.913 141.183 164.029 141.415 164.261 141.589C164.494 141.763 164.697 142.198 164.726 142.518C164.784 143.069 164.9 143.243 165.77 143.968C166.031 144.2 165.973 144.461 165.451 145.418C165.103 146.057 164.842 146.782 164.842 146.985C164.842 147.71 163.101 150.901 162.608 151.075C162.289 151.191 162.057 150.35 162.289 149.828C162.608 149.132 162.115 149.132 161.477 149.828C161.157 150.205 160.896 150.698 160.867 151.162C160.809 151.54 160.722 152.062 160.664 152.294C160.49 152.903 160.78 152.961 161.361 152.497C161.999 152.004 162.289 152.149 162.115 152.874C161.621 155.601 161.012 157.109 159.475 161.519C159.069 162.824 158.488 164.565 158.314 165.522C158.082 166.508 157.299 169.584 156.603 172.862C155.965 176.227 155.297 179.65 155.065 180.897C154.862 181.913 154.369 184.61 153.934 186.844C153.006 191.979 152.832 191.428 153.615 185.916C153.934 183.769 154.166 181.884 154.108 181.71C154.05 181.535 154.079 181.042 154.195 180.636C154.746 178.431 155.007 176.894 154.891 176.749C154.804 176.633 154.949 175.763 155.239 174.776C155.529 173.674 155.675 172.688 155.617 172.194C155.5 171.266 155.646 170.599 156.139 169.758C156.429 169.264 156.4 169.003 156.081 168.22C155.733 167.379 155.733 167.234 156.168 166.654C156.806 165.783 157.067 164.884 156.951 164.217C156.893 163.898 157.009 163.433 157.183 163.143C157.56 162.534 157.212 161.925 156.632 162.157C156.139 162.36 156.139 161.809 156.632 161.345C156.835 161.142 157.183 161.055 157.415 161.142C157.966 161.374 158.372 160.794 158.111 160.242C157.908 159.836 157.85 159.807 157.589 160.039C157.183 160.358 156.806 160.184 156.429 159.488C156.226 159.082 156.052 158.995 155.878 159.111C155.501 159.343 154.688 162.331 154.717 162.94C154.775 163.637 152.948 164.623 152.077 164.304C151.613 164.13 151.468 164.159 151.468 164.507C151.468 164.739 151.41 165.029 151.41 165.029C151.323 165.261 151.99 165.319 152.658 165.145C153.615 164.913 153.876 165.435 153.412 166.741C153.238 167.263 153.122 167.872 153.209 168.075C153.47 168.771 153.18 169.09 152.512 168.829C152.164 168.684 151.7 168.568 151.468 168.539C151.207 168.51 151.033 168.249 151.004 167.843C150.975 167.495 150.917 167.118 150.888 167.031C150.743 166.712 149.786 169.845 149.38 171.904C149.235 172.804 149.002 173.5 148.741 173.819C148.161 174.573 147.987 175.821 148.48 176.053C148.944 176.314 148.683 177.358 147.088 184.349C146.798 185.539 146.479 186.351 146.246 186.264C145.956 186.177 145.782 184.117 145.985 183.421C146.101 183.102 146.072 182.812 145.956 182.783C145.637 182.696 144.999 183.972 144.941 184.814C144.912 185.22 144.767 185.655 144.622 185.8C144.419 185.974 144.39 186.177 144.506 186.496C144.622 186.786 144.506 187.511 144.245 188.498C143.897 189.774 143.868 190.209 144.071 190.964C144.303 191.834 144.303 191.892 143.839 192.327C143.462 192.675 143.404 192.849 143.578 193.081C143.723 193.284 143.636 194.155 143.23 196.127C142.91 197.636 142.707 199.057 142.765 199.289C142.852 199.55 142.736 199.986 142.446 200.508C141.837 201.668 141.866 201.697 142.707 201.9C143.316 202.045 143.52 201.958 143.752 201.436C143.955 201.001 143.926 201.378 143.665 202.567C143.433 203.699 143.229 204.25 143.113 204.105C143.026 203.989 142.997 203.641 143.084 203.322C143.258 202.538 142.475 202.393 142.011 203.148C141.75 203.583 141.663 203.931 141.721 204.395C141.779 204.888 141.721 205.091 141.402 205.294C141.112 205.497 141.054 205.671 141.141 206.02C141.228 206.31 141.112 206.89 140.88 207.557C140.561 208.398 140.532 208.659 140.764 208.717C140.938 208.775 141.083 209.066 141.112 209.356C141.17 209.878 141.199 209.878 141.692 209.53C142.823 208.717 142.91 209.472 141.982 212.199C141.402 213.881 141.344 214.171 141.576 214.722C141.808 215.332 141.576 216.202 140.996 216.753C140.619 217.159 139.777 220.408 139.69 221.83C139.603 223.425 139.835 223.628 140.735 222.787C141.286 222.265 141.431 222.236 141.547 222.671C141.663 223.106 141.663 223.541 140.851 225.601C140.474 226.529 140.532 227.458 140.967 227.458C141.692 227.458 141.895 229.111 141.257 230.881C140.851 231.925 140.561 232.447 140.561 231.896C140.735 231.693 140.822 231.403 140.445 231.461C140.038 232.302 139.661 231.461 139.98 230.475C140.357 229.343 139.864 228.821 139.139 229.459C138.733 229.807 138.501 229.807 138.211 229.517C137.921 229.169 137.689 229.227 137.108 229.807C136.702 230.184 136.238 230.417 136.064 230.33C135.542 230.04 135.281 230.533 135.745 230.939C136.209 231.316 136.209 231.635 135.281 234.275C135.107 234.739 135.02 235.377 135.107 235.696C135.194 236.015 135.107 236.683 134.962 237.147C134.585 238.278 134.788 238.626 135.513 237.988C136.006 237.553 136.064 237.408 135.919 236.857C135.716 236.044 135.919 235.667 136.383 235.957C136.702 236.161 136.789 236.074 137.079 235.319C137.311 234.71 137.573 234.391 137.863 234.246C138.124 234.13 138.53 233.608 138.791 233.057C139.603 231.345 139.922 233.027 139.11 234.913C138.501 236.189 138.472 236.335 138.878 236.712C139.168 236.973 139.226 237.292 139.023 237.64C138.675 238.278 138.124 238.336 137.979 237.727C137.805 237.06 137.457 236.973 137.166 237.524C136.818 238.191 136.731 239.41 137.05 239.758C137.486 240.222 137.34 240.744 136.731 241.208C136.267 241.556 136.122 241.759 136.006 242.543C135.861 243.268 135.658 243.703 134.991 244.457C134.527 245.008 134.062 245.618 134.004 245.879C133.801 246.691 133.279 247.242 132.815 247.097C132.438 246.981 132.264 247.126 131.597 248.141C131.016 249.041 130.871 249.331 131.103 249.418C131.277 249.476 131.597 249.708 131.8 249.911C132.177 250.288 132.235 250.317 134.004 248.083C135.02 246.836 136.325 244.892 136.905 243.732C137.514 242.601 138.211 241.44 138.501 241.15C138.791 240.86 139.052 240.396 139.11 240.106C139.313 239.061 140.328 236.944 140.967 236.335C141.46 235.841 141.605 235.435 141.779 234.391C141.924 233.55 142.359 232.36 142.997 230.997C143.52 229.836 144.245 228.009 144.651 226.935C146.014 223.338 147.088 220.292 147.204 220.35C147.465 220.437 147.233 221.54 145.985 225.688C145.202 228.038 143.926 231.78 142.939 234.014C141.576 237.553 138.211 243.993 133.946 249.563C129.74 255.249 124.663 260.093 121.617 262.53C116.976 266.127 113.669 268.129 110.507 269.754ZM162.376 144.577C162.463 144.635 162.666 144.577 162.869 144.432C163.333 144.084 163.362 144.026 163.072 143.823C162.927 143.707 162.695 143.823 162.521 144.055C162.347 144.287 162.289 144.519 162.376 144.577ZM160.722 147.855C160.896 148.726 161.651 148.842 162.086 148.116C162.289 147.768 162.608 147.942 162.579 148.348C162.55 148.523 162.753 148.552 163.072 148.378C163.536 148.145 163.594 148.029 163.652 147.391C163.71 146.55 163.391 146.347 162.869 146.956C162.434 147.478 162.26 147.362 162.202 146.55C162.144 145.825 161.941 145.593 161.389 145.738C160.838 145.941 160.519 146.898 160.722 147.855ZM158.953 150.901C159.127 151.714 159.388 151.569 160.055 150.321C160.664 149.132 160.693 148.813 160.171 148.726C159.591 148.639 158.779 150.118 158.953 150.901ZM158.75 153.628C159.272 153.019 159.243 152.758 158.692 152.903C158.198 153.048 158.227 153.019 158.111 153.57C158.024 154.15 158.285 154.179 158.75 153.628ZM156.342 158.125C156.835 158.792 157.705 158.386 157.502 157.544C157.444 157.196 157.531 156.819 157.85 156.413C158.634 155.369 158.721 155.804 158.169 157.457C157.792 158.647 158.721 158.27 159.62 156.935C160.113 156.21 160.113 156.181 159.62 156.094C159.33 156.036 159.04 155.804 158.953 155.572C158.866 155.34 158.662 155.137 158.488 155.137C158.314 155.137 158.14 154.992 158.14 154.847C158.14 153.918 157.56 154.353 156.777 155.949C155.994 157.516 155.994 157.661 156.342 158.125ZM141.576 188.614C142.243 188.904 142.272 188.875 141.489 187.192C140.909 187.598 140.938 188.324 141.576 188.614ZM139.284 217.71C138.849 219.045 138.646 220.292 138.936 220.408C138.936 220.408 139.371 219.567 139.777 218.465C140.126 217.391 140.358 216.463 140.241 216.405C140.009 216.318 140.532 214.606 140.938 214.142C141.141 213.91 141.199 213.591 141.083 213.156C140.822 212.315 140.648 212.315 140.3 213.185C139.661 214.693 139.458 215.419 139.632 215.796C139.719 216.057 139.574 216.811 139.284 217.71ZM138.646 182.464C139.023 182.377 139.284 181.042 138.936 180.781C138.82 180.694 138.617 180.897 138.501 181.216C138.211 182.116 138.269 182.551 138.646 182.464ZM138.008 184.349C138.095 184.669 138.298 184.872 138.443 184.814C138.762 184.669 138.675 184.233 138.24 183.711C137.834 183.247 137.747 183.508 138.008 184.349ZM137.834 228.27C138.066 228.154 138.269 227.922 138.269 227.748C138.24 227.313 137.805 227.487 137.834 228.27ZM132.96 241.063C132.554 241.933 132.554 241.991 133.134 241.788C133.859 241.527 134.527 240.57 134.469 239.845C134.353 238.829 133.743 239.323 132.96 241.063ZM132.641 239.555C132.728 239.758 132.902 239.874 133.047 239.816C133.337 239.7 133.54 238.684 133.337 238.336C133.105 237.988 132.438 239.178 132.641 239.555ZM130.349 244.138C130.436 244.341 130.668 244.428 130.9 244.37C131.104 244.283 131.423 244.341 131.597 244.486C132.293 245.037 132.467 243.761 131.8 243.123C131.191 242.543 131.103 242.572 130.668 243.152C130.407 243.5 130.262 243.935 130.349 244.138ZM130.407 245.908C130.784 246.082 131.713 245.589 131.742 245.211C131.742 245.066 131.51 244.979 131.22 244.979C130.552 244.979 129.943 245.676 130.407 245.908ZM127.477 253.537C127.274 253.914 127.303 254.001 127.68 253.943C128.26 253.856 128.812 253.276 128.551 253.015C128.174 252.638 127.883 252.812 127.477 253.537ZM127.303 249.128C127.738 249.534 128.144 249.157 128.115 248.374C128.115 247.909 127.999 247.851 127.593 248.054C126.955 248.345 126.839 248.693 127.303 249.128ZM106.996 264.213C106.561 264.503 106.503 264.677 106.677 265.025C106.822 265.257 107.258 265.518 107.664 265.576C108.389 265.692 108.418 265.663 108.737 264.967C109.317 263.691 108.389 263.313 106.996 264.213ZM176.474 126.417C176.794 125.866 176.793 125.634 176.793 125.634C176.416 126.098 176.387 126.33 176.474 126.417ZM144.999 212.634C144.767 212.808 144.738 212.895 144.825 213.649C144.883 214.461 145.405 214.664 145.608 213.91C145.782 213.33 145.318 212.373 144.999 212.634ZM150.569 174.08C150.134 173.674 149.902 173.732 149.873 173.848C150.25 174.254 150.453 174.196 150.569 174.08ZM144.129 216.086C144.071 216.376 144.129 216.637 144.245 216.666C144.564 216.753 144.709 216.086 144.129 216.086ZM142.823 205.12C142.504 205.381 142.504 205.729 142.823 205.846C142.997 205.904 143.172 205.758 143.23 205.497C143.346 205.033 143.113 204.859 142.823 205.12ZM205.658 100.773C206.064 100.57 206.441 100.135 206.441 99.8154C206.093 99.9315 205.716 100.077 205.368 100.193C205.02 100.599 205.136 101.005 205.658 100.773ZM173.225 129.811C173.37 129.84 173.632 129.724 173.806 129.55C172.935 129.492 172.761 129.724 173.225 129.811ZM150.134 206.774C149.524 209.472 149.467 211.212 150.047 209.704C150.221 209.269 150.424 208.427 150.54 207.847C150.656 207.267 151.004 205.41 151.323 203.699C151.613 202.016 151.903 200.276 151.903 199.898C151.468 200.189 151.178 201.349 151.004 202.393C150.801 203.438 150.453 205.381 150.134 206.774ZM200.843 102.513C200.785 102.629 201.191 102.658 201.742 102.6C203.163 102.484 204.179 101.382 203.018 101.208C202.902 101.179 202.815 101.179 202.728 101.15C201.858 101.469 200.988 101.846 200.117 102.194C200.61 102.281 200.901 102.426 200.843 102.513ZM175.024 130.392C174.821 130.566 174.705 130.856 174.705 131.001C174.734 131.146 174.937 131.059 175.198 130.827C175.459 130.595 175.575 130.305 175.517 130.218C175.459 130.13 175.227 130.217 175.024 130.392ZM169.773 134.163C169.338 134.105 168.613 135.178 168.903 135.439C169.164 135.7 170.034 135.004 170.063 134.54C170.063 134.337 169.918 134.192 169.773 134.163ZM152.571 193.255C152.513 193.545 152.542 193.894 152.629 194.01C152.716 194.126 152.861 193.923 152.948 193.516C153.035 193.139 153.006 192.791 152.89 192.762C152.774 192.733 152.629 192.936 152.571 193.255ZM168.381 137.093C168.787 136.339 168.671 135.729 168.12 135.932C167.568 136.164 167.51 136.339 167.743 136.948C167.859 137.267 167.859 137.644 167.743 137.789C167.626 137.934 167.626 138.282 167.772 138.543C167.888 138.804 167.946 139.356 167.888 139.762C167.366 139.269 166.959 139.094 165.712 139.036C165.596 139.646 165.451 140.023 165.277 140.255C165.074 140.487 165.016 140.835 165.103 141.009C165.364 141.502 165.538 141.589 165.77 141.299C165.886 141.154 166.263 141.009 166.582 140.951C167.162 140.864 167.162 140.893 166.988 141.299C166.234 143.04 166.669 143.185 167.859 141.589C169.222 139.762 169.483 138.601 168.642 138.108C168.062 137.818 168.033 137.731 168.381 137.093Z" fill="#FFC778"/>
<path d="M261.907 314.744C320.802 314.744 368.546 267 368.546 208.105C368.546 149.21 320.802 101.466 261.907 101.466C203.012 101.466 155.268 149.21 155.268 208.105C155.268 267 203.012 314.744 261.907 314.744Z" fill="white"/>
<path d="M347.401 245.76C341.57 258.96 332.78 270.535 321.872 279.673V185.508C321.872 183.448 320.19 181.765 318.13 181.765C316.07 181.765 314.388 183.448 314.388 185.508V266.763H294.981C292.921 266.763 291.238 268.446 291.238 270.506C291.238 272.565 292.921 274.248 294.981 274.248H314.388V285.33C299.419 295.512 281.346 301.488 261.91 301.488C257.732 301.488 253.642 301.227 249.58 300.676V273.117H275.37V249.126H301.624V166.042H268.872C266.812 166.042 265.13 167.725 265.13 169.784C265.13 171.844 266.812 173.527 268.872 173.527H294.139V241.612H267.885V265.603H242.096V299.341C227.098 296.092 213.405 289.246 202.034 279.702H202.382V273.117H227.156C229.216 273.117 230.898 271.434 230.898 269.374C230.898 267.315 229.216 265.632 227.156 265.632H202.382V225.338H227.156C229.216 225.338 230.898 223.655 230.898 221.595C230.898 219.536 229.216 217.853 227.156 217.853H202.382V172.946H233.48V137.439H217.931C215.871 137.439 214.189 139.121 214.189 141.181C214.189 143.241 215.871 144.923 217.931 144.923H225.967V165.433H194.868V191.396L163.422 191.367C162.523 196.792 162.059 202.362 162.059 208.048C162.059 263.195 206.762 307.899 261.91 307.899C284.044 307.899 304.467 300.705 321.002 288.521L321.872 287.882C335.449 277.7 346.327 264.065 353.29 248.342C354.247 246.196 352.68 243.788 350.36 243.788C349.054 243.817 347.923 244.6 347.401 245.76ZM194.897 273.145C178.565 256.291 168.499 233.373 168.499 208.106C168.499 205.031 168.644 201.956 168.963 198.968H194.926V273.145H194.897ZM265.304 108.284C225.589 106.979 190.865 128.823 173.662 161.372C172.531 163.518 174.069 166.129 176.505 166.129C177.695 166.129 178.768 165.462 179.348 164.418C195.042 134.857 226.141 114.666 261.91 114.666C273.223 114.666 284.102 116.697 294.139 120.381V138.106H246.534V189.569H223.066C221.006 189.569 219.323 191.251 219.323 193.311C219.323 195.371 221.006 197.053 223.066 197.053H246.534V239.726H223.066C221.006 239.726 219.323 241.409 219.323 243.469C219.323 245.528 221.006 247.211 223.066 247.211H254.019V197.024H271.773V199.307C271.773 201.367 273.455 203.049 275.515 203.049C277.604 203.049 279.257 201.367 279.257 199.307V189.569H253.99V145.59H301.595V123.514C306.033 125.603 310.327 128.069 314.33 130.824V161.459C314.33 163.518 316.012 165.201 318.072 165.201C320.161 165.201 321.814 163.518 321.814 161.459V136.51C335.739 148.172 346.24 163.837 351.462 181.707L337.16 181.736C335.101 181.736 333.418 183.419 333.418 185.478C333.418 187.538 335.101 189.221 337.16 189.221H353.348C354.624 195.313 355.262 201.637 355.262 208.106C355.262 212.254 355.001 216.316 354.45 220.319H336.667C334.666 220.319 333.041 221.944 333.041 223.945C333.041 225.918 334.637 227.571 336.609 227.571C336.667 227.571 359.759 227.542 359.759 227.542C361.151 220.551 361.819 213.299 361.644 205.843C360.571 153.278 317.84 110.054 265.304 108.284Z" fill="#3FB182"/>
<path d="M293.615 270.219C293.325 269.29 291.933 268.42 292.049 269.232C292.107 269.639 292.397 270.19 292.716 270.451C293.383 271.031 293.818 270.886 293.615 270.219Z" fill="#3B9E75"/>
<path d="M321.813 187.338C321.871 187.338 321.871 185.511 321.871 185.511C321.871 184.234 321.175 183.132 320.188 182.465C320.392 186.642 320.595 187.425 321.813 187.338Z" fill="#3B9E75"/>
<path d="M300.55 184.463C299.186 180.75 298.403 180.75 299.07 184.289C299.447 185.856 299.447 187.915 299.621 188.612C299.708 189.076 299.853 189.946 299.999 191.049C300.115 192.151 300.55 193.398 300.608 194.733C300.724 196.067 300.985 197.344 301.101 198.475C301.159 199.577 301.275 200.477 301.362 200.912C301.449 201.318 301.536 201.927 301.623 202.565C301.623 203.233 301.623 203.929 301.565 204.538C301.507 205.582 301.507 206.453 301.565 207.207C301.536 207.874 301.565 208.425 301.652 208.976V187.161C301.333 186.755 300.927 185.682 300.55 184.463Z" fill="#3B9E75"/>
<path d="M314.85 187.597C314.995 187.307 314.763 187.104 314.356 186.988V188.033C314.56 187.917 314.763 187.801 314.85 187.597Z" fill="#3B9E75"/>
<path d="M314.531 198.302C314.27 199.666 315.402 200.072 318.012 199.52C319.811 199.114 321.784 198.94 321.726 199.201C321.726 199.201 321.783 199.317 321.842 199.462V196.939C321.754 197.026 321.697 197.055 321.61 197.026C321.465 196.939 321 196.62 320.623 196.3C320.188 195.923 319.492 195.778 318.709 195.865C318.041 195.952 316.562 196.039 315.431 196.068C314.995 196.068 314.618 196.126 314.328 196.155V197.287C314.56 197.548 314.618 197.925 314.531 198.302Z" fill="#3B9E75"/>
<path d="M319.579 190.006C318.187 189.89 317.606 190.093 317.403 190.267C318.999 190.354 319.579 190.151 319.579 190.006Z" fill="#3B9E75"/>
<path d="M291.324 166.306C291.062 167.118 292.31 168.887 292.861 168.336C293.209 168.017 292.919 167.292 291.324 166.306Z" fill="#3B9E75"/>
<path d="M242.153 303.637C240.499 303.666 240.267 304.101 241.167 305.406C241.718 306.247 245.025 306.334 244.909 305.522C244.677 304.304 243.633 303.608 242.153 303.637Z" fill="#3B9E75"/>
<path d="M300.142 236.537C300.287 236.363 300.229 236.015 299.968 235.754C299.706 235.522 299.358 235.522 299.155 235.754C298.952 235.986 299.01 236.334 299.3 236.508C299.59 236.711 299.968 236.711 300.142 236.537Z" fill="#3B9E75"/>
<path d="M350.328 243.817C349.052 243.817 347.92 244.571 347.398 245.76C341.567 258.96 332.777 270.535 321.87 279.673V200.07C321.637 200.128 321.173 200.157 320.419 200.128C318.417 200.128 315.43 200.941 314.356 201.608V202.652C314.791 203.552 314.762 205.437 314.356 206.075V207.381C315.284 207.729 315.4 208.048 314.849 209.527C314.704 209.934 314.53 210.224 314.356 210.514V215.271C315.139 215.939 315.052 216.925 314.356 217.331V220.029V266.763H294.949C294.775 266.763 294.659 266.821 294.484 266.85C294.601 267.053 294.746 267.257 294.92 267.489C295.674 268.359 295.674 268.678 295.065 269.316C294.543 269.867 294.485 270.303 294.949 270.854C296.399 272.594 295.094 273.494 292.135 272.913C292.831 273.726 293.817 274.248 294.949 274.248H314.356V285.33C300.17 294.99 283.142 300.792 264.837 301.372C265.62 302.039 266.229 303.461 265.852 304.36C265.678 304.795 265.678 305.462 265.852 305.868C266.722 307.783 265.388 306.942 264.373 304.882C263.705 303.606 263.009 302.59 262.748 302.619C262.342 302.706 261.733 302.213 261.211 301.43C259.499 301.43 257.816 301.372 256.134 301.256C255.931 301.517 255.641 301.546 255.293 301.198C253.9 301.111 252.537 300.937 251.173 300.792C248.852 301.227 248.765 301.314 249.085 302.648C249.346 303.722 249.23 304.418 248.562 305.346C247.953 306.216 247.837 306.681 248.214 306.855C250.071 307.145 251.841 307.348 253.639 307.493C253.61 307.203 253.494 306.826 253.349 306.303C252.827 304.36 252.827 304.36 254.654 304.041C257.149 303.547 257.903 304.099 258.629 307.029C258.716 307.319 258.774 307.551 258.861 307.783C259.847 307.812 260.804 307.87 261.791 307.87C283.925 307.87 304.348 300.676 320.883 288.492L321.754 287.853C335.33 277.671 346.209 264.036 353.171 248.313C354.215 246.254 352.678 243.817 350.328 243.817Z" fill="#3B9E75"/>
<path d="M296.254 175.877C297.24 175.094 297.124 174.252 296.747 173.614C296.428 172.976 295.848 171.728 295.47 170.858C294.745 169.089 293.411 168.653 293.324 169.988C293.266 170.394 293.44 170.945 293.643 171.264C293.817 171.583 294.484 172.657 294.948 173.672C295.442 174.716 296.051 175.674 296.254 175.877Z" fill="#3B9E75"/>
<path d="M298.343 180.115C298.662 179.999 298.894 179.738 298.865 179.506C298.836 179.302 298.546 179.186 298.198 179.244C297.85 179.302 297.618 179.564 297.676 179.854C297.734 180.144 298.024 180.26 298.343 180.115Z" fill="#3B9E75"/>
<path d="M316.88 163.49C316.126 163.519 315.778 163.722 315.72 164.273C316.358 164.796 317.141 165.173 318.012 165.173C317.576 164.186 317.112 163.49 316.88 163.49Z" fill="#3B9E75"/>
<path d="M314.387 158.501V159.342C314.474 159.255 314.561 159.168 314.648 159.081C315.025 158.53 314.88 158.327 314.387 158.501Z" fill="#3B9E75"/>
<path d="M361.73 205.845C361.498 194.764 359.38 184.117 355.754 174.196C355.638 173.993 355.522 173.674 355.377 173.122C341.481 136.396 306.409 109.678 265.302 108.315C253.234 107.909 241.63 109.678 230.839 113.218C231.361 113.624 231.883 114.03 232.376 114.407C234.03 115.741 235.481 116.786 237.134 118.062C245.025 115.886 253.321 114.697 261.908 114.697C273.222 114.697 284.1 116.728 294.138 120.412V138.137H291.208C291.15 138.224 291.121 138.311 291.034 138.398C290.338 139.123 289.119 139.5 289.264 138.949C289.293 138.775 289.496 138.456 289.757 138.137H286.537C286.392 138.369 286.247 138.601 286.044 138.891C284.536 141.183 282.998 142.169 284.333 139.906C284.652 139.384 284.971 138.601 285.058 138.166H284.246C284.275 138.456 284.217 138.891 284.013 139.5C283.752 140.226 283.404 140.922 283.23 141.038C282.766 141.386 282.911 139.703 283.404 138.63C283.491 138.427 283.578 138.282 283.665 138.166H260.516C260.545 138.195 260.603 138.224 260.632 138.253C262.807 140.225 265.07 141.85 268.087 144.577C268.464 144.896 268.9 145.273 269.364 145.65H278.038C278.27 145.186 278.473 144.751 278.589 144.49C278.85 143.823 279.14 143.707 279.778 144.055C280.474 144.432 280.532 144.664 280.068 145.65H290.744C290.686 145.592 290.657 145.476 290.541 145.447C289.96 145.244 289.961 145.07 290.628 144.2C291.672 142.865 291.411 142.633 290.048 143.649C289.119 144.345 289.003 144.316 289.061 143.446C289.148 142.14 289.844 141.357 290.86 141.56C291.295 141.647 292.078 141.386 292.629 141.009C293.181 140.603 293.964 140.429 294.341 140.603C296.633 141.56 297.01 141.531 298.199 140.313C299.447 139.036 299.766 139.5 298.547 140.835C298.17 141.27 297.764 142.314 297.648 143.127C297.474 144.345 297.213 144.78 296.284 145.592C296.226 145.65 301.564 145.65 301.564 145.65V123.574C306.003 125.663 310.296 128.129 314.299 130.884V154.179C314.706 154.266 315.373 154.092 315.808 153.831C316.417 153.454 316.62 153.628 316.736 154.643C316.852 155.426 317.2 155.949 317.665 155.949C318.245 155.978 318.274 156.181 317.781 156.79C317.259 157.428 317.287 157.66 317.926 157.834C318.506 158.008 318.651 158.357 318.419 159.053C317.984 160.271 315.895 161.49 315.634 160.706C315.518 160.416 315.141 160.242 314.822 160.329C314.416 160.416 314.503 161.054 314.88 162.128C315.286 163.23 315.576 163.491 315.663 162.94C315.779 162.244 316.185 161.867 317.868 160.967C320.159 159.72 320.188 159.749 319.753 161.461C319.55 162.244 319.666 162.679 320.101 162.737C320.304 162.766 320.624 163.201 320.914 163.839C321.407 163.201 321.755 162.418 321.755 161.548V136.599C324.221 138.659 326.542 140.893 328.775 143.214C328.514 142.227 328.717 142.314 329.559 143.039C330.11 143.504 330.806 144.142 331.125 144.403C331.676 144.867 331.879 145.737 331.763 146.376C340.698 156.471 347.515 168.539 351.403 181.825L337.101 181.854C335.041 181.854 333.359 183.537 333.359 185.596C333.359 187.656 335.041 189.339 337.101 189.339H353.288C354.565 195.431 355.203 201.755 355.203 208.224C355.203 212.372 354.942 216.434 354.391 220.437H336.608C334.606 220.437 332.982 222.062 332.982 224.063C332.982 226.036 334.577 227.689 336.55 227.689C336.55 227.689 341.83 227.689 347.341 227.689C347.08 227.254 347.022 226.819 347.283 226.355C347.835 225.514 349.691 225.63 350.765 226.616C351.142 226.935 351.287 227.312 351.316 227.66C355.87 227.66 359.7 227.66 359.7 227.66C361.237 220.553 361.904 213.301 361.73 205.845ZM275.775 143.533C275.311 144.519 274.933 144.2 275.108 143.01C275.224 142.285 275.34 142.024 275.688 141.908C276.355 141.647 276.384 142.198 275.775 143.533ZM287.669 142.343C286.653 143.097 286.102 142.372 286.508 140.835C286.827 139.616 286.885 139.558 287.64 139.79C289.148 140.254 289.148 141.27 287.669 142.343ZM298.402 145.099C298.199 145.128 298.228 144.722 298.46 144.2C299.476 143.997 298.953 145.041 298.402 145.099ZM352.244 174.544C352.099 175.82 350.997 176.168 349.865 175.385C349.14 174.863 348.589 172.919 348.357 171.005C348.038 169.148 347.98 167.321 348.618 167.059C350.736 166.189 351.403 166.827 351.403 169.728C351.316 171.44 351.461 172.542 351.867 172.716C352.389 173.296 352.302 173.935 352.244 174.544Z" fill="#3B9E75"/>
<path d="M187.817 147.012C187.237 147.303 185.845 146.519 185.613 145.736C185.526 145.446 185.264 145.098 185.032 144.924C184.916 144.837 184.829 144.779 184.742 144.721C180.507 149.855 176.794 155.425 173.632 161.372C172.5 163.519 174.038 166.13 176.474 166.13C177.664 166.13 178.737 165.463 179.318 164.418C182.364 158.674 186.019 153.279 190.167 148.318C188.397 146.867 188.252 146.78 187.817 147.012Z" fill="#4BC291"/>
<path d="M192.082 144.578C192.72 144.81 193.039 144.636 194.025 143.852C195.186 142.895 195.186 142.837 194.519 142.17C193.996 141.648 193.822 141.212 193.793 140.516C193.764 139.878 193.677 139.588 193.416 139.588C193.213 139.588 192.662 139.443 192.14 139.211C191.386 138.892 191.124 138.979 190.66 139.588C190.109 140.313 190.138 140.371 191.066 141.27C192.024 142.199 192.024 142.199 191.241 142.837C190.225 143.794 189.616 143.678 188.166 142.315C187.904 142.054 187.643 141.851 187.411 141.677C186.57 142.605 185.729 143.504 184.945 144.491C185.235 144.578 185.671 144.781 186.135 145.071C186.947 145.564 187.701 145.912 187.788 145.825C188.107 145.535 189.384 146.086 190.312 146.927C190.515 147.13 190.747 147.275 190.95 147.45C191.385 146.956 191.821 146.434 192.256 145.941C191.473 145.042 191.298 144.317 192.082 144.578Z" fill="#4BC291"/>
<path d="M197.477 138.631C196.926 138.283 195.301 139.124 195.62 139.531C196.142 140.169 196.926 140.314 197.622 139.879C198.376 139.415 198.376 139.182 197.477 138.631Z" fill="#4BC291"/>
<path d="M196.84 137.468C197.246 137.236 197.217 136.539 196.782 136.162C196.289 135.756 196.057 135.872 195.941 136.568C195.854 137.149 196.405 137.7 196.84 137.468Z" fill="#4BC291"/>
<path d="M194.896 201.001C195.244 201.001 195.505 200.653 195.563 199.985C195.679 198.506 194.78 197.81 192.865 197.897C191.588 197.955 191.472 197.926 191.327 197.462C191.153 196.91 190.225 196.62 189.587 196.969C188.949 197.317 189.036 197.433 190.109 197.665C190.66 197.781 191.095 197.984 191.066 198.1C191.037 198.216 191.443 198.39 191.966 198.477C192.43 198.564 193.01 198.767 193.387 198.999H194.896V201.001Z" fill="#4BC291"/>
<path d="M200.058 250.372C199.739 250.633 199.768 250.662 200.32 250.865C200.929 251.068 201.944 250.662 201.886 250.285C201.828 249.937 200.494 250.024 200.058 250.372Z" fill="#4BC291"/>
<path d="M195.041 239.64C195.679 239.698 195.853 239.465 195.853 239.32C195.186 239.175 195.012 239.407 195.041 239.64Z" fill="#4BC291"/>
<path d="M201.191 252.202C201.771 251.97 201.597 251.651 200.61 252.173C200.697 252.26 200.959 252.289 201.191 252.202Z" fill="#4BC291"/>
<path d="M194.896 205.44V206.513C195.012 206.89 196.172 207.209 196.636 206.977C197.39 206.629 197.187 204.221 196.404 203.844C196.172 203.728 195.911 203.264 195.795 202.8C195.65 202.133 195.447 201.959 194.896 201.93V204.802C195.244 205.063 195.244 205.208 194.896 205.44Z" fill="#4BC291"/>
<path d="M193.792 191.891C194.024 191.978 194.227 191.862 194.285 191.63C194.314 191.572 194.285 191.514 194.256 191.456H193.502C193.444 191.63 193.56 191.833 193.792 191.891Z" fill="#4BC291"/>
<path d="M200.031 214.229C199.479 210.922 199.044 209.848 197.478 208.166C197.043 207.702 196.404 207.76 195.766 208.34C195.447 208.63 195.128 208.775 194.867 208.804V211.328C195.157 211.328 195.505 211.27 195.795 211.212C196.782 211.009 196.81 211.038 196.549 211.676C196.201 212.546 195.389 213.127 194.867 213.069V214.548C195.041 214.49 195.244 214.461 195.36 214.345C195.679 214.084 195.824 214.055 196.491 214.171C197.449 214.345 197.072 214.896 195.882 215.07C195.534 215.128 195.128 215.273 194.838 215.447V216.173C194.954 216.144 195.041 216.115 195.186 216.056C196.114 215.592 197.188 215.766 196.926 216.318C196.81 216.608 196.955 216.927 197.275 217.072C197.971 217.391 198.029 218.029 197.42 218.899C197.014 219.48 197.072 219.567 198.29 219.857C199.392 220.118 199.566 220.263 199.305 220.698C198.899 221.452 199.015 221.916 199.77 222.381C200.176 222.642 200.408 223.28 200.466 224.092C200.495 224.817 200.698 225.398 200.901 225.427C201.249 225.456 201.452 226.471 201.539 228.067C201.539 228.357 201.713 228.647 201.916 228.734C202.003 228.763 202.177 229.082 202.38 229.575V225.369H202.845C202.177 222.468 201.075 218.116 200.756 217.101C200.495 216.492 200.205 215.186 200.031 214.229Z" fill="#4BC291"/>
<path d="M190.139 196.359C190.864 196.388 191.386 195.692 190.835 195.431C190.632 195.344 190.226 195.286 189.936 195.344C189.239 195.489 189.384 196.33 190.139 196.359Z" fill="#4BC291"/>
<path d="M189.963 191.717C190.195 191.688 190.369 191.572 190.456 191.456H190.224C189.18 191.659 189.238 191.833 189.963 191.717Z" fill="#4BC291"/>
<path d="M223.093 293.045C215.463 289.564 208.385 285.097 202.032 279.759H202.38V273.174H219.844C219.496 272.216 219.09 271.172 218.626 269.983C218.19 268.851 217.494 267.314 216.74 265.689H211.025H205.223C204.991 265.921 204.875 265.892 204.614 265.689H203.337C203.221 265.921 202.873 266.153 202.554 266.298C201.887 266.589 201.452 265.979 202.119 265.66C202.206 265.631 202.264 265.602 202.351 265.602V263.688C202.148 263.688 201.945 263.688 201.742 263.746C201.307 263.862 200.814 263.804 200.611 263.63C199.45 262.585 199.218 262.527 198.203 263.049C197.129 263.572 197.042 263.252 198.116 262.672C198.464 262.498 198.957 261.947 199.218 261.483C199.624 260.787 199.885 260.554 200.64 260.264C201.307 259.974 201.684 259.713 202.003 259.278C202.119 259.133 202.235 259.017 202.351 258.901V257.45C202.003 257.45 201.713 257.334 201.655 257.073C201.336 256.029 201.191 255.884 200.64 255.942C200.117 256 199.914 256.145 199.363 256.783C198.493 257.857 197.971 258.031 196.926 257.624C195.969 257.276 195.157 255.594 195.621 255.072C196.259 254.375 196.114 253.911 195.302 253.911C195.128 253.911 194.983 253.911 194.867 253.882V273.203C185.352 263.397 177.983 251.504 173.458 238.304C173.458 238.536 173.342 238.768 173.081 238.884C172.384 239.174 172.094 238.942 172.239 238.188C172.297 237.898 172.558 237.666 172.848 237.637C173.08 237.637 173.225 237.724 173.341 237.84C170.208 228.499 168.468 218.52 168.468 208.163C168.468 205.088 168.613 202.013 168.932 199.025H187.614C187.469 198.677 187.266 198.387 187.063 198.3C186.251 197.865 186.396 197.575 187.382 197.604C188.398 197.633 188.456 197.459 187.788 196.414C187.469 195.892 187.44 195.631 187.759 195.602C188.282 195.544 188.514 194.935 188.021 194.906C186.86 194.848 186.338 194.355 186.947 193.949C187.469 193.6 187.469 193.484 186.976 193.194C186.541 192.933 186.483 192.672 186.802 192.15C186.918 191.947 186.976 191.744 187.005 191.541L163.449 191.512C162.55 196.937 162.086 202.506 162.086 208.192C162.086 249.502 187.15 284.923 222.919 300.124C222.977 299.485 223.006 298.847 223.064 298.151C223.122 296.758 223.122 294.931 223.093 293.045ZM213.085 267.082C213.665 266.647 213.839 266.995 213.375 267.662C213.085 268.068 212.94 268.184 212.679 268.126C212.185 268.01 212.301 267.691 213.085 267.082ZM207.225 270.273C206.21 271.027 205.89 271.056 206.238 270.331C206.471 269.867 206.616 269.722 207.196 269.547C208.182 269.199 208.182 269.547 207.225 270.273ZM206.819 267.546C206.035 268.213 205.919 267.633 206.674 266.85C207.022 266.472 207.428 266.153 207.573 266.124C207.95 266.037 207.428 267.024 206.819 267.546ZM205.31 266.647C206.848 265.631 208.066 265.486 206.616 266.502C206.267 266.763 205.832 267.14 205.658 267.401C205.484 267.662 205.078 267.981 204.759 268.126C204.44 268.271 204.092 268.213 203.976 268.01C203.831 267.633 203.947 267.517 205.31 266.647ZM199.305 260.061C199.45 260.09 199.334 260.322 199.073 260.584C198.406 260.526 198.957 260.032 199.305 260.061ZM164.407 209.062C163.391 208.656 163.739 207.612 164.9 207.554C166.147 207.496 166.901 207.931 166.669 208.569C166.495 209.121 165.277 209.411 164.407 209.062ZM170.528 241.872C169.077 242.365 168.7 242.017 168.903 240.422C169.019 239.494 168.932 238.884 168.671 238.797C168.323 238.478 168.41 238.13 168.468 237.782C168.613 237.057 169.338 236.825 170.064 237.231C170.934 237.782 171.369 241.582 170.528 241.872ZM173.806 240.393C173.574 240.538 173.11 240.509 172.761 240.393C171.891 240.045 171.949 239.813 172.906 239.842C173.98 239.9 174.328 240.103 173.806 240.393ZM179.521 256.783C179.259 256.435 178.94 256.029 178.795 255.826C178.447 255.362 178.621 254.463 179.086 254.317C179.608 254.143 180.014 254.84 180.043 255.971C180.072 257.363 180.014 257.451 179.521 256.783Z" fill="#4BC291"/>
<path d="M94.901 413.291C90.4915 409.897 82.1948 410.565 80.9474 416.947C80.8603 417.353 81.0634 417.701 81.3245 417.933C77.4082 426.462 90.4915 439.284 96.9026 429.711C100.326 424.634 99.9776 417.179 94.901 413.291ZM94.6688 427.245C92.029 431.916 86.3721 428.899 84.5155 425.243C82.7749 421.82 84.0224 418.339 85.879 415.322C87.8517 414.162 90.0273 413.843 92.5222 415.409C96.4675 417.904 96.8155 423.416 94.6688 427.245Z" fill="#F9D198"/>
<path d="M62.8734 420.921C61.1618 421.328 59.7983 422.691 59.1601 424.287C59.044 424.577 59.015 424.867 58.957 425.157C58.899 425.215 58.841 425.244 58.812 425.302C57.5066 428.464 58.812 432.496 62.2351 433.686C66.0354 434.991 69.1104 432.206 69.3715 428.464C69.6036 424.954 67.1378 419.906 62.8734 420.921ZM62.2061 431.249C61.8579 431.046 61.5969 430.756 61.3068 430.495C61.6549 428.638 61.5099 425.766 63.0184 424.519C65.4552 422.517 66.8476 426.694 66.7606 428.464C66.6736 430.959 64.5268 432.496 62.2061 431.249Z" fill="#F9D198"/>
<path d="M389.58 65.2934C383.372 58.3601 373.798 65.0613 370.143 71.0663C370.027 71.2403 369.998 71.4144 369.969 71.5885C367.735 75.0406 366.807 79.5081 367.329 83.5114C368.432 92.0692 377.541 94.7381 383.894 89.1973C389.289 84.4397 395.382 71.7625 389.58 65.2934ZM382.443 85.6291C380.558 87.6598 377.309 89.4294 374.437 88.4431C370.607 87.1376 370.317 82.5541 370.694 79.276C371.101 75.7659 372.435 72.5168 374.785 70.0799C379.078 66.6278 384.793 62.8275 388.013 69.6158C390.102 73.9962 385.402 82.4671 382.443 85.6291Z" fill="#F9D198"/>
<path d="M376.09 39.0976C373.828 39.4167 372.551 41.0992 372.174 43.0719C372 43.1299 371.826 43.2169 371.739 43.42C370.26 46.7561 370.463 52.0649 374.669 53.3704C378.759 54.6178 381.805 50.7014 382.211 47.0752C382.618 43.391 380.558 38.4884 376.09 39.0976ZM374.872 50.5854C373.741 49.9181 373.306 48.7868 373.19 47.5394C373.451 47.5394 373.712 47.4524 373.828 47.1913C374.379 45.9149 374.669 44.3773 375.365 43.1589C376.003 42.0566 377.28 41.7374 378.324 42.6077C379.369 43.507 379.572 45.2476 379.485 46.524C379.34 48.7288 377.512 52.1519 374.872 50.5854Z" fill="#F9D198"/>
<path d="M401.329 37.097C399.182 35.1533 395.12 36.2267 394.221 38.9536C394.105 39.3308 394.221 39.6789 394.424 39.9399C393.641 41.4194 393.554 43.247 394.453 44.6975C395.991 47.1923 399.356 46.7862 401.009 44.6395C402.518 42.6958 403.359 38.9246 401.329 37.097ZM399.182 42.7828C398.341 44.2333 396.542 44.3494 396.136 42.5508C395.933 41.6515 396.194 40.8102 396.484 39.9689C397.354 39.4757 398.254 38.7505 399.153 39.0116C400.458 39.4177 399.675 41.9125 399.182 42.7828Z" fill="#F9D198"/>
<path d="M453.836 356.464C447.396 355.419 443.334 360.438 443.015 366.124C440.81 370.156 440.927 376.161 444.379 378.859C450.384 383.559 458.825 378.134 461.465 372.187C464.308 365.834 461.059 357.624 453.836 356.464ZM457.955 371.404C456.215 374.798 450.877 379.062 446.903 376.567C442.928 374.073 445.22 367.226 447.193 364.122C447.338 363.919 447.338 363.687 447.28 363.484C448.527 361.424 450.239 359.887 453.082 360.177C458.419 360.757 460.16 367.139 457.955 371.404Z" fill="#F9D198"/>
<path d="M480.235 356.142C478.06 355.127 474.23 356.374 473.998 358.956C472.49 361.074 471.765 364.352 473.882 365.947C476.464 367.92 480.845 366.643 482.469 364.004C484.094 361.393 483.136 357.476 480.235 356.142ZM480.322 362.814C479.539 364.149 476.841 365.309 475.42 364.265C474.404 363.539 474.55 362.06 475.014 360.668C475.246 360.668 475.507 360.609 475.71 360.435C476.696 359.536 477.595 358.463 479.133 358.782C480.874 359.13 481.106 361.509 480.322 362.814Z" fill="#F9D198"/>
<circle cx="274" cy="305" r="12" fill="#FFCF8A"/>
<circle cx="274" cy="305" r="7" fill="#F2950E"/>
<path d="M160 259.5L172.145 263.447C176.022 264.707 180.352 261.807 181.822 258.005C188.349 241.125 211.382 214.3 234.038 210.07C237.295 209.461 240 212.186 240 215.5V259C240 262.314 237.314 265 234 265H217.5C214.186 265 211.5 267.686 211.5 271V285C211.5 288.314 214.186 291 217.5 291H231.5C234.814 291 237.5 293.686 237.5 297V310C237.5 313.314 234.814 316 231.5 316H217.5C214.186 316 211.5 318.686 211.5 322V334C211.5 337.314 214.186 340 217.5 340H254.5C257.814 340 260.5 337.314 260.5 334V322.485C260.5 320.894 261.132 319.368 262.257 318.243L268 312.5" stroke="#FFCF8A" stroke-width="6"/>
</svg>
