<svg width="482" height="491" viewBox="0 0 482 491" fill="none" xmlns="http://www.w3.org/2000/svg">
<path d="M291.467 38.4546C267.505 33.3779 242.847 31.6663 218.682 35.1765C174.385 41.5876 142.068 63.722 120.572 102.189C100.7 137.754 99.3079 181.327 74.0115 214.224C64.4674 226.64 52.2253 236.967 43.0003 249.615C28.0313 270.154 21.8812 295.799 21.5911 320.95C21.214 354.282 33.9783 391.443 65.1056 405.571C82.9175 413.636 103.398 412.765 122.98 414.622C161.911 418.335 178.591 446.068 207.804 467.216C240.469 490.83 284.592 494.775 324.683 487.726C346.208 483.926 368.575 476.296 381.687 459.297C399.992 435.509 393.871 399.537 415.135 377.693C422.707 369.918 433.382 366.234 441.186 358.343C451.861 347.581 461.289 334.323 467.614 320.747C477.013 300.527 478.927 275.637 466.743 256.868C456.039 240.39 436.573 231.165 424.012 215.935C391.26 176.192 410.697 116.229 372.752 76.5442C356.594 59.6316 334.198 50.0874 311.745 43.5313C305.073 41.6166 298.314 39.9051 291.467 38.4546Z" fill="#FFF5EB"/>
<path d="M312.643 100.736C278.673 81.3578 238.205 75.933 200.434 86.0864C188.859 89.1904 176.85 93.948 165.855 101.171C143.982 115.531 132.465 138.304 126.576 155.564C123.037 165.921 121.151 176.77 120.919 187.707C120.687 198.005 118.946 215.295 110.505 225.274C97.9434 240.098 81.4081 252.079 82.5394 257.214C83.5838 261.914 87.761 270.471 104.703 273.836C108.097 274.504 110.563 277.463 110.766 280.915C110.998 284.947 110.418 290.111 106.791 293.998C106.791 293.998 103.078 300.264 111.636 304.268C111.636 304.268 104.79 307.401 108.793 313.115C112.796 318.83 115.059 319.672 113.086 335.366C111.085 351.06 106.53 371.309 120.803 377.865C135.076 384.421 164.462 387.003 192.138 380.998C219.813 374.993 223.816 390.687 226.659 402.958C229.502 415.229 236.348 452.594 236.348 452.594C236.348 452.594 262.892 474.264 324.218 451.462C366.717 434.056 376.145 408.673 376.145 408.673C376.145 408.673 355.026 372.44 350.762 361.3C346.469 350.161 337.07 326.199 347.049 299.394C357.028 272.589 369.009 253.733 372.432 210.392C375.072 177.031 363.12 129.514 312.643 100.736Z" fill="#F9A124"/>
<path d="M57.4757 197.892C51.9639 201.431 45.6688 204.216 39.1417 203.868C37.5751 203.781 35.9796 203.491 34.7032 202.62C33.0206 201.46 32.1794 199.429 31.8022 197.428C30.3808 189.74 35.0513 182.285 40.302 176.512C45.5528 170.739 51.7897 165.459 54.6327 158.178C57.2725 151.418 56.6345 143.818 58.056 136.711C59.5064 129.574 64.467 122.032 71.7194 121.916C87.1525 121.684 89.1252 146.226 86.7174 156.756C82.8882 173.379 71.8065 188.725 57.4757 197.892Z" fill="#FFF5EB"/>
<path d="M430.482 390.081C434.282 383.699 438.692 377.171 445.451 374.067C452.181 370.963 461.783 372.936 464.423 379.869C467.498 387.963 460.014 395.883 457.432 404.15C454.444 413.694 458.157 424.399 455.024 433.885C450.644 447.114 426.74 460.429 417.718 444.503C409.247 429.505 423.056 402.526 430.482 390.081Z" fill="#FFF5EB"/>
<path d="M340.002 26.6456C337.884 24.7019 335.418 23.6286 332.894 22.3521C328.891 20.2925 327.498 16.7243 324.539 13.5913C320.971 9.79102 315.895 7.09311 310.557 7.81835C305.19 8.51458 300.432 12.576 300.055 18.1458C299.504 26.0944 306.815 31.8963 310.267 38.4815C305.19 39.2067 300.113 35.8997 295.356 34.5652C291.875 33.5789 288.219 32.9987 284.593 33.4629C279.197 34.1011 273.889 36.944 271.829 42.2237C267.739 52.8122 280.706 61.6312 288.103 52.4061C288.8 51.5068 287.552 50.2594 286.856 51.1587C282.069 57.1927 272.206 54.2627 272.699 46.053C273.134 38.7136 280.532 35.2325 287.059 35.2035C295.472 35.1744 303.623 42.2817 311.833 40.048C312.442 39.8739 312.616 39.2358 312.384 38.7426C309.367 32.0414 302.376 26.9067 302.144 19.1901C301.767 7.44122 316.388 8.19549 322.683 14.3165C326.28 17.8267 327.411 21.7139 332.082 23.9767C338.899 27.2548 344.121 32.0704 345.049 39.99C345.919 47.5905 341.945 54.8429 335.447 58.7302C331.038 61.341 327.179 62.1533 323.814 66.2437C319.318 71.7265 312.587 74.4824 305.944 70.5371C297.996 65.8376 299.707 55.3361 300.81 47.7066C300.926 46.9233 299.765 46.5462 299.591 47.3585C297.386 57.5408 297.357 71.6685 310.354 73.7862C314.995 74.5404 319.753 73.177 323.089 69.8119C324.249 68.6515 325.033 67.1429 326.164 65.9535C328.253 63.7198 330.515 62.8205 333.213 61.6311C335.824 60.4708 338.232 59.1653 340.321 57.1927C349.023 48.7799 348.878 34.7973 340.002 26.6456Z" fill="#F9A124"/>
<path d="M327.44 41.9348C329.905 37.4963 328.774 31.9556 324.887 28.1263C324.568 24.7322 323.349 21.309 321.521 18.4081C318.359 13.4184 313.022 8.2547 307.046 5.55681C300.374 -0.709265 289.466 -2.44982 282.446 4.39644C275.773 10.9236 277.688 19.8005 281.227 27.4881C280.734 27.8072 280.27 28.1553 279.806 28.5324C276.673 28.9385 272.263 29.7798 270.784 32.5357C269.304 35.3787 271.074 37.6415 274.091 39.4691C274.497 47.9109 285.608 54.9311 293.063 55.8304C293.266 55.8594 293.44 55.8304 293.614 55.8595C293.933 55.9175 294.282 55.9174 294.63 55.9174C301.766 56.2366 306.959 52.9294 310.353 47.7367C310.759 47.8237 311.165 47.9109 311.571 47.9979C311.745 51.6531 312.471 55.1922 314.008 58.2963C317.025 64.3593 326.105 68.4206 330.805 61.7484C335.069 55.7434 331.559 47.2726 327.44 41.9348ZM324.916 31.2883C325.67 32.3907 326.279 33.6671 326.569 35.1466C326.946 37.0322 326.656 38.7148 325.931 40.1943C325.032 39.208 324.103 38.3086 323.088 37.4963C324.161 35.5817 324.742 33.4641 324.916 31.2883ZM322.885 29.8088C322.856 32.2746 322.276 34.3633 321.29 36.1329C319.549 34.8855 317.692 33.8121 315.749 32.8838C316.329 30.6211 317.025 28.4454 317.808 26.3277C319.665 26.9949 321.405 27.8942 322.827 29.0545C322.827 29.2866 322.885 29.5477 322.885 29.8088ZM320.187 37.8155C318.621 39.7301 316.503 41.1516 314.124 42.196C314.327 39.7882 314.733 37.3803 315.255 35.0016C316.996 35.8138 318.65 36.7421 320.187 37.8155ZM312.819 12.026C317.199 15.7102 321.231 20.5548 322.479 26.2117C320.274 24.7612 317.692 23.7168 314.936 23.0206C314.298 18.4371 312.964 14.1146 310.933 10.5465C311.571 11.0396 312.209 11.5328 312.819 12.026ZM313.022 22.5855C306.379 21.309 298.952 21.7151 293.295 22.7305C291.816 22.9916 290.191 23.3977 288.567 23.9489C287.203 18.8722 287.203 13.1283 290.742 9.24103C294.949 4.62851 300.838 5.26674 306.03 7.67454C309.802 11.5618 312.122 16.8706 313.022 22.5855ZM290.278 40.5134C288.625 38.1346 287.986 34.6824 286.188 32.3326C285.782 31.6364 285.376 30.9692 284.969 30.2439C286.159 30.2149 287.377 30.186 288.538 30.186C290.858 34.7985 294.369 38.8888 298.343 41.9348C299.416 42.7471 300.606 43.5593 301.882 44.2846C298.517 44.2266 295.181 43.7625 291.903 43.0082C291.468 42.167 290.887 41.3546 290.278 40.5134ZM284.418 28.1263C285.289 27.6331 286.217 27.1979 287.116 26.7918C287.261 27.1979 287.406 27.5751 287.58 27.9812C286.536 28.0102 285.463 28.0683 284.418 28.1263ZM280.85 11.0687C283.548 2.65587 293.295 0.422123 300.635 3.75823C299.648 3.64219 298.662 3.61318 297.676 3.6712C289.727 4.22238 285.521 11.3587 285.637 18.7562C285.666 20.7868 285.985 22.7885 286.507 24.7612C285.318 25.2543 284.128 25.8055 282.997 26.4437C280.647 21.5991 279.168 16.3484 280.85 11.0687ZM276.847 31.4044C275.744 32.7678 274.932 34.3343 274.468 36.0459C273.221 34.2183 273.743 32.3617 276.847 31.4044ZM280.908 30.5921C281.488 30.5051 282.069 30.4471 282.649 30.389C283.49 31.9556 284.331 33.464 285.173 34.8565C285.231 34.9725 285.318 35.0306 285.405 35.1176C285.869 36.5101 286.246 37.9315 286.942 39.324C287.464 40.3973 288.219 41.2967 288.857 42.283C286.362 41.5868 283.896 40.7744 281.459 39.8751C279.951 39.324 277.833 38.8309 276.441 37.9316C276.818 35.0886 278.616 32.5938 280.908 30.5921ZM277.572 43.3563C277.079 42.486 276.76 41.6157 276.586 40.8035C281.43 42.9792 287.638 44.2266 289.64 44.7487C289.727 44.7777 289.814 44.7778 289.872 44.8068C290.104 46.3733 289.785 47.9399 289.872 49.6224C289.93 50.8118 290.104 52.0302 290.51 53.0746C289.002 52.6394 287.493 52.0301 286.014 51.1889C282.968 49.4193 279.342 46.4604 277.572 43.3563ZM307.539 47.4177C303.942 51.8851 299.126 53.9158 294.137 53.6257C293.005 51.8271 292.86 49.3323 292.657 47.4177C292.599 46.8375 292.831 46.2282 292.773 45.648C292.773 45.561 292.744 45.503 292.715 45.416C296.979 46.2863 301.679 46.8085 306.234 46.4313C306.756 46.6344 307.278 46.8374 307.8 47.0115C307.713 47.1565 307.655 47.3016 307.539 47.4177ZM310.034 43.5013C308.815 43.7914 307.568 43.9945 306.32 44.1105C305.943 43.9365 305.537 43.7624 305.16 43.5884C299.242 40.7454 294.253 35.9589 291.119 30.215C298.169 30.36 306.117 31.3173 313.08 34.0442C312.558 37.4383 311.513 40.6584 310.034 43.5013ZM313.341 31.8105C308.844 30.0409 304.029 28.9966 299.242 28.5034C296.196 28.1843 293.092 28.0102 289.988 27.9812C289.727 27.343 289.466 26.7048 289.205 26.0376C293.817 24.5001 298.836 24.094 303.623 24.239C306.437 24.3261 309.918 24.5001 313.341 25.1383C313.544 27.343 313.544 29.5767 313.341 31.8105ZM313.95 46.1412C313.95 45.7061 313.979 45.242 313.979 44.8068C316.068 44.0236 318.04 42.9502 319.781 41.4707C320.622 40.7745 321.347 39.9912 321.957 39.1789C322.972 40.0202 323.929 40.9195 324.8 41.9059C322.769 44.3717 319.433 45.9092 316.242 46.1412C315.517 46.1992 314.733 46.1992 313.95 46.1412ZM324.277 63.0538C318.65 63.837 315.43 57.3099 314.559 52.8715C314.269 51.392 314.124 49.8545 314.037 48.346C317.721 48.6071 321.347 47.8238 324.422 45.445C325.119 44.8938 325.699 44.3136 326.221 43.7044C327.643 45.6771 328.832 47.8818 329.644 50.4636C331.211 55.4533 330.718 62.1835 324.277 63.0538Z" fill="#3FB182"/>
<path d="M34.0653 307.401C27.4221 307.14 22.8677 314.74 19.2995 319.991C18.1101 320.194 16.9207 320.455 15.7603 320.746C13.9037 321.181 11.989 321.819 10.0744 321.935C7.81161 322.08 5.37487 320.281 3.43123 320.513C-0.804174 321.036 -0.137007 325.677 0.385166 329.129C1.0814 333.713 2.73502 337.252 6.53527 339.196C6.0131 340.704 5.60692 342.271 5.49088 343.866C4.99772 350.712 8.71096 357.501 12.3952 363.012C13.9037 365.275 15.5572 367.799 18.4291 368.408C19.9376 368.727 21.4171 368.408 22.8966 368.002C21.9683 370.671 21.4171 373.456 21.4171 376.328C21.4461 381.55 23.3898 387.526 28.0603 390.485C31.4545 392.631 36.357 392.602 38.9099 389.121C42.246 384.567 38.8229 377.459 36.7632 373.166C34.7325 368.988 32.3538 366.465 28.9016 365.246C28.7276 364.985 28.4374 364.782 28.0313 364.753C27.7412 364.753 27.4801 364.753 27.219 364.753C27.074 364.724 26.929 364.695 26.7839 364.666C28.3794 361.62 30.4391 358.777 32.6149 356.137C32.7599 358.458 33.2241 360.75 34.0944 362.954C35.6899 366.987 38.997 371.889 43.9287 371.222C47.5549 370.729 52.7184 366.233 53.5887 362.693C54.9232 357.443 49.5565 353.41 45.8723 350.712C43.9576 349.291 41.8979 348.102 39.8092 346.999C39.9252 346.738 40.0413 346.477 40.1574 346.187C41.2887 342.851 40.3024 339.08 38.8809 335.627C38.91 335.569 38.939 335.482 38.968 335.424C41.5498 328.201 48.3671 307.952 34.0653 307.401ZM22.1134 321.529C29.1917 321.616 33.3401 327.708 35.893 333.539C36.2701 334.38 36.5891 335.163 36.9082 335.947C35.8059 338.731 34.7036 341.516 33.9783 344.243C32.6149 343.692 31.2224 343.199 29.83 342.735C24.5212 340.994 15.8763 340.588 9.69731 337.861C11.699 333.51 15.006 329.477 18.1971 325.271C19.0674 324.111 19.9377 322.863 20.8079 321.645C21.2141 321.616 21.6783 321.529 22.1134 321.529ZM35.2837 346.97C35.7478 347.173 36.27 347.434 36.8212 347.724C36.4731 348.392 36.038 349.059 35.5158 349.726C35.2547 350.074 34.9646 350.393 34.6745 350.741C34.8486 349.465 35.0226 348.218 35.2837 346.97ZM2.70599 330.754C2.1548 328.81 1.31354 325.445 3.08312 323.908C5.1138 322.138 3.31516 323.472 5.66493 323.501C7.81164 323.501 9.61025 323.966 11.844 323.588C13.8166 323.269 15.7893 322.631 17.762 322.138C14.4259 326.605 10.0454 331.392 7.49255 336.73C5.20079 335.308 3.46023 333.423 2.70599 330.754ZM36.125 376.038C36.7922 377.749 37.4305 379.606 37.8076 381.434C39.2001 388.396 28.9306 390.281 25.7106 384.567C23.0707 379.896 23.2738 374.036 24.8403 369.075C25.0434 368.408 25.3624 367.799 25.5945 367.19C26.4068 366.987 27.2191 366.871 28.0603 366.871C28.5245 366.871 28.8146 366.639 28.9596 366.32C32.7309 368.118 34.7325 372.354 36.125 376.038ZM27.5091 359.038C26.3198 360.721 25.2464 362.519 24.3471 364.376C24.086 364.376 23.8539 364.318 23.5928 364.318C20.0247 364.26 17.2977 364.811 14.4258 362.084C13.9616 361.649 13.5556 361.156 13.1204 360.663C11.4669 358.052 10.0454 354.774 9.14612 352.424C7.37653 347.84 7.5506 343.837 8.79802 340.124C16.9787 342.648 25.3915 343.112 33.4562 346.245C32.934 348.537 32.6149 350.857 32.5278 353.207C30.7873 355.093 28.9886 356.92 27.5091 359.038ZM46.5394 367.857C37.1403 372.47 34.5875 360.112 34.4714 353.932C35.9799 352.308 37.6335 350.625 38.8519 348.769C46.7715 353.207 58.2883 362.113 46.5394 367.857ZM37.6625 345.868C37.0243 345.578 36.4151 345.317 35.7769 345.027C36.3571 342.851 37.0243 340.733 37.7786 338.615C38.4458 341.052 38.5618 343.402 37.6625 345.868ZM41.2017 318.251C41.5208 323.385 39.8383 328.433 37.8946 333.365C37.4305 332.378 36.9663 331.45 36.5312 330.58C33.9203 325.358 29.6849 320.426 23.5348 319.759C23.0707 319.701 22.6065 319.701 22.1424 319.73C23.4768 317.845 24.8983 316.017 26.4358 314.392C30.2071 310.476 35.2257 307.024 39.3451 312.536C40.5345 314.102 41.0856 316.307 41.2017 318.251Z" fill="#3FB182"/>
<path d="M32.5282 300.064C29.6853 298.903 26.3492 299.077 23.6223 300.412C18.8647 302.762 18.5166 308.593 14.1362 311.319C14.0201 311.377 13.962 311.464 13.904 311.551C13.5269 311.319 12.9177 311.407 12.7727 311.987C10.8871 319.558 11.7283 327.333 15.6446 334.179C17.6173 337.631 19.3289 339.604 17.8494 344.042C16.9211 346.885 13.5849 350.221 11.9024 352.629C10.2778 354.95 7.89902 357.271 8.62426 360.288C9.17544 362.666 12.1054 365.074 13.6429 366.815C16.718 370.296 19.6479 374.647 23.4482 377.345C25.0147 378.448 26.7263 378.97 28.4669 379.724C30.4395 380.565 32.3541 382.103 34.4138 382.712C36.4445 383.35 38.4751 383.176 40.3607 382.219C46.0176 379.376 45.5825 373.255 43.4648 368.265C41.6662 364.03 40.5929 361.39 42.4205 357.213C43.0877 355.704 43.7549 354.254 44.2481 352.687C45.3215 349.061 45.8145 344.709 45.0603 340.967C43.9869 335.717 40.4478 335.6 35.7773 336.21C32.4122 336.645 28.873 337.573 27.9737 332.177C27.5676 329.77 29.3081 325.592 30.3235 323.532C32.4702 319.181 37.5759 319.123 39.4035 315.12C41.8983 309.695 37.6339 302.123 32.5282 300.064ZM37.895 313.582C36.5896 316.454 31.5129 317.934 29.6273 320.777C27.8867 323.387 26.5522 327.13 26.1461 330.263C25.5659 334.643 27.3065 338.269 32.0061 338.559C34.2688 338.704 37.2858 337.167 39.4905 337.776C47.4391 340.039 42.1014 352.89 40.3318 357.068C39.3165 359.504 38.5042 361.477 39.1424 364.175C39.4615 365.451 40.3028 366.583 40.854 367.743C42.1304 369.629 42.9426 371.746 43.2617 374.067C42.2174 376.185 41.144 378.303 40.0997 380.391C37.1987 382.973 25.6529 377.026 23.1871 374.85C19.5609 371.659 16.4569 367.511 13.3239 363.885C4.8821 354.196 23.1291 348.626 20.8953 339.314C20.0541 335.746 16.6019 332.554 15.2965 329.015C13.4109 323.794 13.2078 318.311 14.1651 312.886C14.4552 313.118 14.8324 313.176 15.2385 312.915C18.3716 310.855 18.7777 308.273 20.8374 305.285C23.1581 301.92 26.7263 300.122 30.7586 301.195C34.994 302.385 40.0417 308.825 37.895 313.582Z" fill="#F9A124"/>
<path d="M451.542 306.185C450.672 305.808 449.802 305.46 448.902 305.169C457.286 296.205 469.122 288.895 467.149 275.29C465.728 265.6 453.109 259.218 446.436 268.182C444.696 270.532 444.116 272.476 441.824 274.506C437.269 278.481 431.961 275.899 428.451 271.692C424.592 267.138 422.242 261.162 420.56 255.505C418.442 248.311 417.543 238.969 425.811 235.575C434.397 232.036 441.969 240.246 439.996 248.688C439.59 250.37 442.172 251.096 442.578 249.413C446.64 232.181 421.227 224.842 416.731 242.074C414.236 251.647 419.893 264.846 425.579 272.447C429.64 277.871 437.937 282.368 443.971 276.943C448.351 273.027 449.018 264.846 456.996 266.819C467.758 269.459 465.119 282.977 460.361 289.678C456.503 295.103 450.904 299.396 446.32 304.328C441.128 302.878 435.616 302.297 430.307 302.588C427.754 302.704 421.749 304.618 419.603 303.719C418.558 302.559 417.514 301.398 416.47 300.238C413.337 298.584 412.466 296.263 413.859 293.246C414.584 290.665 416.179 288.228 417.572 285.965C418.471 284.486 416.15 283.151 415.251 284.602C412.147 289.649 408.811 295.828 411.886 301.688C415.396 308.389 423.026 305.837 429.089 305.343C433.846 304.937 439.271 305.256 444.406 306.475C441.94 309.492 439.909 312.799 438.923 316.773C437.066 324.2 439.764 332.642 447.51 335.281C454.936 337.834 462.943 333.454 464.916 325.824C467.265 316.628 459.172 309.463 451.542 306.185ZM454.269 333.193C445.595 335.02 440.257 326.985 441.244 319.297C441.853 314.656 444.087 310.797 447.046 307.258C451.803 308.767 456.213 311.116 459.346 314.714C464.538 320.631 462.827 331.394 454.269 333.193Z" fill="#F9A124"/>
<path d="M472.546 266.499C472.72 260.059 471.85 253.271 468.398 248.571C460.246 237.548 446.554 244.191 437.096 252.894C435.269 252.749 433.412 252.981 431.614 253.648C426.769 255.447 424.332 259.885 423.491 264.701C418.269 267.224 413.483 270.503 409.973 274.709C399.268 287.444 409.712 304.995 423.404 303.051C424.913 310.13 427.581 316.86 431.324 322.604C436.139 329.972 444.117 331.104 452.297 329.798C462.335 328.203 470.748 325.099 475.505 315.67C483.019 300.644 486.297 278.799 472.546 266.499ZM431.382 297.452C431.005 297.162 430.511 297.075 429.989 297.452C428.597 298.439 427.146 299.164 425.609 299.628C425.115 296.466 424.825 293.42 424.738 290.751C424.593 286.98 424.883 283.18 425.551 279.467C428.307 285.53 433.151 290.403 438.982 293.101C436.69 294.9 434.138 296.35 431.382 297.452ZM439.736 290.751C433.296 287.647 428.568 281.381 426.711 274.535C427.726 270.996 429.177 267.602 431.005 264.411C435.965 262.554 441.245 261.335 446.496 261.045C450.818 267.108 450.122 276.421 447.134 282.861C445.654 286.081 443.566 288.895 441.071 291.302C440.607 291.099 440.171 290.954 439.736 290.751ZM437.822 255.534C439.214 255.766 440.723 256.288 442.318 257.216C443.043 257.622 443.682 258.115 444.262 258.638C442.724 258.812 441.216 259.015 439.736 259.334C437.59 259.769 435.356 260.349 433.151 261.016C434.515 259.073 436.11 257.245 437.822 255.534ZM449.513 260.958C453.371 260.987 457.142 261.539 460.71 262.728C464.191 263.888 467.121 265.571 469.587 267.631C469.442 275.811 468.166 283.992 460.913 289.011C455.924 292.463 449.542 293.565 443.682 292.144C451.659 283.789 455.634 271.547 449.513 260.958ZM460.739 246.715C468.514 248.919 469.558 257.071 469.616 264.208C463.147 259.798 455.431 258.086 447.685 258.377C445.654 256.027 442.956 254.286 440.026 253.445C445.625 248.687 453.429 244.655 460.739 246.715ZM434.37 255.592C432.165 257.912 430.308 260.291 428.974 262.409C428.336 262.641 427.668 262.873 427.03 263.134C428.365 259.392 430.888 256.375 434.37 255.592ZM408.899 292.144C405.273 283.528 411.307 275.782 418.124 271.054C419.72 269.951 421.402 268.936 423.143 267.979C423.114 268.878 423.143 269.777 423.23 270.648C423.346 271.953 423.607 273.258 423.897 274.506C421.692 282.687 421.402 291.622 422.853 300.208C417.138 300.905 411.452 298.236 408.899 292.144ZM471.531 317.266C466.599 324.75 456.33 327.245 447.801 327.622C434.631 328.232 428.568 314.945 426.102 302.413C427.494 301.949 428.916 301.282 430.337 300.411C430.569 300.498 430.83 300.527 431.15 300.411C434.892 299.077 438.489 296.901 441.593 294.145C446.554 295.799 452.036 295.886 457.461 293.797C465.468 290.693 470.37 284.021 471.676 275.637C471.937 273.984 472.14 272.156 472.314 270.271C478.783 277.61 480.495 288.285 478.435 298.758C477.217 305.053 475.099 311.841 471.531 317.266Z" fill="#3FB182"/>
<path d="M312.354 316.336C311.89 315.843 311.6 315.176 311.716 314.828C311.832 314.48 311.571 313.87 311.136 313.464C310.7 313.058 310.236 312.072 310.091 311.288C311.397 311.869 312.267 311.898 314.675 311.288C314.443 310.157 314.472 309.403 314.675 308.881C314.878 308.359 314.791 307.691 314.501 307.43C313.688 306.647 313.282 306.589 313.05 307.227C312.934 307.546 312.354 308.039 311.774 308.3C310.758 308.765 310.7 308.765 310.787 307.865C311.107 304.21 310.207 304.181 308.989 307.836C307.625 312.159 307.944 314.596 309.859 314.857C311.136 315.06 311.222 315.205 311.048 316.568C310.816 318.251 311.571 319.237 312.412 318.425C313.253 317.613 313.253 317.264 312.354 316.336Z" fill="#F2950E"/>
<path d="M314.618 369.076C314.444 369.801 315.343 371.542 315.865 371.397C316.068 371.368 316.097 370.643 315.894 369.83C315.546 368.409 314.908 367.974 314.618 369.076Z" fill="#F2950E"/>
<path d="M318.793 376.792C317.749 376.095 317.11 377.72 317.894 379.083C318.532 380.157 318.677 380.099 319.199 378.561C319.547 377.459 319.518 377.256 318.793 376.792Z" fill="#F2950E"/>
<path d="M340.261 410.182C340.638 410.907 341.827 411.487 342.35 411.197C342.698 411.023 342.553 410.733 341.624 409.718C340.812 408.789 339.739 409.166 340.261 410.182Z" fill="#F2950E"/>
<path d="M330.803 389.528C330.049 389.354 329.527 390.602 330.223 390.921C330.571 391.095 331.006 391.008 331.181 390.776C331.558 390.254 331.384 389.644 330.803 389.528Z" fill="#F2950E"/>
<path d="M305.218 335.135C305.102 335.918 305.218 336.585 305.45 336.643C305.683 336.672 305.915 336.237 306.002 335.628C306.089 335.048 306.002 334.381 305.799 334.149C305.596 333.946 305.363 334.352 305.218 335.135Z" fill="#F2950E"/>
<path d="M346.325 201.429C346.702 201.197 346.702 201.081 346.325 200.24C345.89 199.311 344.788 199.195 344.672 200.065C344.556 200.762 345.774 201.777 346.325 201.429Z" fill="#F2950E"/>
<path d="M316.938 127.225C319.433 132.272 321.116 135.696 322.943 139.38C324.684 142.803 326.685 146.255 328.977 151.477C330.428 154.871 332.952 160.354 334.257 165.865C335.736 171.406 336.52 177.295 337.013 180.631C337.39 182.691 337.738 186.317 337.854 188.638C338.028 192.815 338.115 193.889 338.637 193.947C338.899 193.976 339.45 190.756 339.508 187.042C339.566 185.911 339.566 184.054 339.566 182.865C339.624 181.444 339.276 180.341 338.811 179.645C338.202 178.804 338.173 178.427 338.521 177.759C338.899 176.976 338.521 174.887 337.796 174.191C337.593 173.988 337.535 173.524 337.651 173.147C337.767 172.77 337.622 171.58 337.216 170.565C336.781 169.579 336.404 167.577 336.143 166.272C335.795 163.835 335.765 163.806 336.781 163.458C337.361 163.255 338.057 162.964 338.376 162.79C338.783 162.529 339.073 162.732 339.392 163.661C339.769 164.705 339.74 164.937 339.073 165.314C338.26 165.749 338.231 166.446 338.986 166.939C339.218 167.113 339.363 167.809 339.276 168.476C339.189 169.463 339.334 169.811 340.001 170.275C340.668 170.797 340.726 171.029 340.378 171.609C339.914 172.393 340.349 172.77 341.509 172.683C342.351 172.596 343.569 173.408 343.656 174.162C343.743 174.771 343.047 174.974 342.09 174.684C341.248 174.423 340.407 174.916 340.465 175.555C340.494 175.932 340.871 176.077 341.683 176.048C342.728 175.99 342.873 176.106 343.105 177.411C343.366 179.355 345.455 180.515 345.339 178.601C345.31 177.991 345.542 177.266 345.89 176.976C346.325 176.628 346.383 176.193 346.151 175.584C345.832 174.829 345.919 174.684 346.644 174.568C347.746 174.394 347.688 173.93 346.499 173.524C345.687 173.234 345.629 173.089 345.977 172.393C346.441 171.377 347.224 171.377 347.776 172.509C348.008 173.002 348.559 173.553 349.052 173.727C349.516 173.901 350.067 174.481 350.241 174.974C351.257 177.933 351.402 178.282 352.591 178.282C353.809 178.282 353.809 178.978 352.591 179.065C352.185 179.094 351.605 179.645 351.199 180.254C350.618 181.183 350.299 181.357 349.458 181.241C348.704 181.125 348.269 181.299 347.833 181.85C346.992 182.894 345.745 182.662 345.455 181.473C345.223 180.428 343.714 180.022 343.772 180.95C343.163 181.241 343.076 180.95 343.192 180.66C342.67 180.254 342.67 180.834 342.815 181.908C343.076 183.735 344.671 185.099 346.006 184.751C346.789 184.519 347.543 185.36 347.514 186.462C347.514 188.87 347.572 189.334 348.124 189.74C348.646 190.117 348.878 190.059 349.632 189.276C350.85 188 351.402 188.087 352.214 189.885C352.968 191.481 353.055 195.542 352.388 196.122C351.547 196.906 351.46 197.95 352.156 198.646C352.823 199.285 352.823 199.633 352.301 201.808C351.315 205.26 351.721 206.218 353.693 205.086C354.535 204.593 354.622 204.593 354.883 205.289C355.057 205.667 355.434 206.044 355.782 206.102C356.246 206.189 356.304 206.508 355.84 207.639C355.492 208.539 355.405 209.322 355.637 209.67C355.927 210.134 355.84 210.366 355.289 210.627C354.738 210.888 354.651 211.149 354.854 211.817C355.057 212.426 354.941 212.89 354.477 213.441C353.664 214.399 352.098 214.166 352.33 213.151C352.417 212.774 352.33 212.31 352.156 212.136C351.924 211.933 351.605 212.687 351.286 214.137C350.966 215.646 350.937 216.168 351.286 215.617C351.692 214.95 352.069 214.834 353.316 215.095C354.999 215.414 355.057 215.472 353.983 216.98C353.49 217.677 353.316 218.228 353.49 218.605C353.635 218.895 353.345 220.81 352.736 222.811C352.011 225.393 351.779 226.583 352.069 226.902C352.417 227.279 352.301 227.482 351.518 227.888C350.589 228.381 350.56 228.439 351.025 229.716C351.402 230.789 351.286 231.427 350.531 233.11C349.922 234.444 349.69 235.401 349.864 235.866C350.067 236.388 349.98 236.649 349.545 236.823C349.226 236.968 348.878 237.548 348.82 238.099C348.646 239.289 347.253 240.913 346.615 240.681C346.383 240.594 346.383 240.159 346.615 239.724C347.137 238.767 346.934 235.779 346.354 235.604C345.89 235.43 345.165 236.417 344.555 238.041C340.755 247.44 340.088 249.065 340.958 249.558C341.857 250.08 341.451 251.908 340.233 252.836C339.711 253.242 339.189 254.2 338.811 255.505C337.912 258.551 335.765 263.135 335.533 262.612C335.475 262.467 335.388 261.858 335.359 261.307C335.33 260.64 335.011 260.205 334.489 260.06C334.054 259.944 333.126 259.595 332.458 259.276C331.182 258.667 330.573 259.073 331.037 260.263C331.182 260.611 330.979 261.539 330.602 262.351C329.702 264.353 330.167 265.281 332.052 265.136C333.387 265.02 334.663 265.31 334.489 265.658C334.489 265.658 334.402 266.123 334.373 266.5C334.344 267.051 334.083 267.08 333.184 266.674C331.53 265.919 327.875 267.109 328.049 268.327C328.194 269.401 326.598 274.216 325.96 274.651C325.641 274.883 325.322 274.68 324.858 273.955C324.046 272.679 323.262 272.302 322.508 272.853C322.015 273.201 321.841 273.143 321.435 272.447C320.855 271.402 321.696 270.445 322.769 270.938C323.175 271.141 323.872 271.025 324.307 270.735C325.264 270.039 325.235 269.111 324.249 269.343C323.088 269.633 322.392 268.53 323.146 267.544C323.524 267.051 323.697 266.239 323.581 265.716C323.32 264.556 323.93 263.135 325.206 261.829C326.076 260.959 326.105 260.727 325.409 259.218C324.8 257.855 324.8 257.449 325.409 256.723C326.424 255.534 326.743 254.548 326.627 253.01C326.569 252.198 326.918 250.748 327.614 249.152C328.252 247.731 328.6 246.454 328.455 246.251C328.194 245.961 328.948 243.814 330.225 240.826C330.457 240.275 330.573 239.579 330.486 239.318C330.399 239.028 331.008 236.475 331.791 233.632C333.677 226.496 333.3 225.77 331.24 232.268C330.283 235.227 329.035 238.767 328.513 240.13C327.933 241.9 326.308 246.773 324.713 251.589C323.059 256.491 321.377 261.481 320.913 263.164C320.477 264.672 319.462 267.747 318.65 269.981C315.836 277.755 315.111 280.685 314.792 285.675C314.705 287.039 315.314 287.271 316.387 286.284C317.402 285.385 317.983 285.501 317.809 286.574C317.751 287.01 317.721 287.938 317.75 288.634C317.779 289.417 317.489 290.346 316.996 291.071C316.039 292.463 315.053 292.579 315.401 291.245C315.662 290.259 314.966 288.808 314.356 289.04C313.399 289.417 311.252 295.596 311.63 296.96C311.746 297.366 311.542 298.7 311.194 300.064C310.701 302.036 310.73 302.559 311.339 302.849C313.37 303.806 313.689 304.067 314.124 305.053C314.385 305.634 315.024 306.272 315.575 306.504C316.097 306.707 316.474 307.084 316.387 307.316C316.3 307.548 316.271 308.041 316.358 308.419C316.416 308.796 316.184 310.333 315.865 311.871C315.517 313.379 315.459 315.149 315.633 315.671C316.126 317.005 315.836 317.789 314.879 317.441C313.921 317.121 313.718 317.586 313.747 320.603C313.776 322.14 313.631 322.894 313.312 322.952C312.761 323.01 312.21 324.809 312.703 324.925C313.805 325.244 314.124 326.666 313.37 327.826C312.703 328.812 312.645 329.189 313.051 330.06C313.399 330.814 313.341 331.626 312.906 333.164C311.775 336.819 312.993 342.563 314.705 343.056C312.993 344.419 312.79 346.015 314.037 348.626C314.879 350.395 314.908 350.482 314.269 352.194C313.747 353.586 313.747 354.109 314.211 354.718C314.531 355.153 314.733 356.052 314.646 356.777C314.588 357.503 314.733 358.228 315.024 358.402C315.285 358.576 315.575 359.156 315.662 359.707C315.778 360.723 317.286 363.044 318.128 363.508C318.36 363.653 318.331 364.465 318.099 365.364C317.692 366.902 317.693 367.018 318.766 368.207C319.375 368.875 320.1 370.238 320.39 371.253C320.681 372.298 321.116 373.487 321.348 373.98C321.609 374.56 321.493 375.083 320.971 375.547C319.984 376.446 320.1 376.765 321.696 377.519C322.827 378.013 323.059 378.39 323.407 379.956C323.814 381.9 325.583 384.134 326.395 383.844C325.612 385.642 327.092 387.064 328.281 386.425C328.948 386.048 329.209 386.222 329.848 387.354C330.399 388.34 330.776 388.601 331.211 388.369C332.69 387.499 333.561 390.052 333.474 394.113C333.474 394.577 333.677 395.186 333.938 395.476C334.547 396.115 335.446 395.795 335.417 394.983C336.578 395.157 336.549 395.476 335.969 396.202C334.866 397.594 335.853 399.016 337.419 398.29C338.202 397.942 338.695 397.971 339.015 398.406C339.334 398.841 339.218 399.161 338.695 399.393C338.289 399.596 337.796 400.35 337.651 401.075C337.506 401.8 337.216 402.352 337.013 402.265C336.81 402.178 336.723 402.903 336.781 403.86C336.955 406.384 339.131 407.863 339.421 405.775C339.624 404.527 339.624 404.527 340.871 405.02C341.538 405.282 342.293 405.427 342.496 405.311C343.221 406.268 343.685 406.674 344.12 406.761C344.584 408.008 342.989 408.008 342.38 407.312C342.06 406.935 341.596 406.732 341.393 406.848C340.813 407.138 341.19 407.718 342.148 407.95C342.583 408.066 343.25 408.734 343.627 409.43C344.236 410.532 344.526 410.677 345.861 410.445C347.572 410.155 347.949 410.503 347.63 412.07C347.456 412.882 347.572 413.172 348.095 413.317C349.081 413.607 349.313 414.188 348.472 414.304C347.282 414.478 347.224 415.232 348.385 415.638C349.226 415.928 349.893 416.74 351.46 419.235C354.738 424.225 354.941 424.892 353.519 425.82C352.678 426.343 352.446 426.749 352.678 427.155C351.779 428.518 353.635 429.766 356.304 430.288C357.436 430.52 358.277 430.723 358.799 430.926C372.347 419.061 376.118 408.879 376.118 408.879C376.118 408.879 370.519 399.277 364.514 388.427C364.079 388.137 363.905 387.731 363.934 387.354C358.451 377.432 352.765 366.728 350.763 361.506C346.47 350.366 337.071 326.404 347.05 299.6C357.03 272.795 369.011 253.939 372.434 210.598C375.074 177.15 363.121 129.661 312.674 100.884C310.295 99.5495 307.916 98.2731 305.479 97.0547C306.843 102.799 307.597 105.351 309.367 110.022C311.02 114.199 315.169 123.541 316.938 127.225ZM350.734 182.72C350.589 182.546 350.763 182.198 351.112 181.966C351.75 182.691 351.082 183.155 350.734 182.72ZM317.693 301.108C317.519 301.572 317.112 301.833 316.764 301.688C316.126 301.427 316.126 301.34 316.822 300.528C317.112 300.238 317.489 300.064 317.664 300.122C317.896 300.238 317.896 300.644 317.693 301.108ZM319.027 297.743C318.041 298.149 317.518 297.83 317.083 296.554C316.619 295.132 316.242 294.987 315.633 296.002C314.908 297.192 314.182 296.931 313.95 295.422C313.776 294.262 313.863 294.059 314.646 293.537C315.227 293.16 315.575 293.159 315.633 293.508C315.72 294.262 316.387 294.465 316.648 293.827C317.228 292.434 318.737 292.55 319.404 294.001C320.187 295.654 320.013 297.337 319.027 297.743ZM320.158 292.434C319.085 292.376 318.998 291.796 319.81 289.649C320.652 287.387 321.145 287.096 321.754 288.518C322.334 289.852 321.261 292.492 320.158 292.434ZM321.696 285.008C320.623 285.298 320.506 284.863 321.377 283.76C322.16 282.745 322.711 282.774 322.653 283.847C322.595 284.776 322.624 284.747 321.696 285.008ZM324.8 279.699C323.552 282.455 322.537 283.238 322.334 281.614C322.305 281.353 321.986 281.121 321.609 281.092C321.232 281.062 320.797 280.714 320.594 280.337C320.39 279.931 319.781 279.525 319.201 279.409C318.215 279.235 318.186 279.148 319.027 277.871C320.593 275.464 322.363 274.913 321.783 276.972C320.942 279.931 321.261 280.685 322.595 278.858C323.117 278.104 323.291 277.465 323.088 276.885C322.624 275.406 324.249 274.738 325.293 275.957C326.076 276.798 326.047 276.972 324.8 279.699ZM342.641 304.299C341.48 303.806 341.132 302.675 341.771 301.601C342.351 300.673 343.598 300.789 344.12 301.833C344.758 303.023 343.714 304.763 342.641 304.299ZM366.661 207.059C367.328 204.448 367.415 204.332 367.531 205.957C367.589 206.769 367.647 207.813 367.676 208.278C367.734 209.38 367.067 210.888 366.603 210.801C366.052 210.685 366.11 209.119 366.661 207.059ZM365.471 239.84C366.98 240.072 367.009 240.971 365.645 243.698C364.833 245.265 364.398 246.396 364.543 246.744C364.572 247.585 364.224 248.108 363.905 248.659C363.238 249.819 362.454 249.703 362.222 248.427C361.961 246.802 364.601 239.724 365.471 239.84ZM361.729 239.956C362.019 239.898 362.396 240.275 362.541 240.768C362.947 242.074 362.744 242.422 362.019 241.609C361.207 240.71 361.091 240.072 361.729 239.956ZM361.062 243.321C361.845 243.321 361.874 243.988 361.178 245.178C360.917 245.642 360.511 245.874 360.279 245.7C359.669 245.178 360.308 243.321 361.062 243.321ZM355.956 235.517C354.535 232.907 354.564 232.849 355.869 233.458C357.088 234.038 357.117 235.111 355.956 235.517ZM353.722 198.965C354.361 198.327 354.622 196.093 354.1 196.035C353.897 196.006 353.867 194.846 354.042 193.454C354.216 192.061 354.506 190.901 354.506 190.901C355.115 190.93 355.579 192.467 355.347 194.208C355.202 195.397 355.318 196.355 355.608 196.616C356.101 197.051 356.043 197.979 355.405 200.01C355.057 201.17 354.68 201.199 353.867 200.184C353.432 199.691 353.403 199.284 353.722 198.965ZM347.601 168.737C347.747 168.592 348.124 168.476 348.501 168.505C349.255 168.563 349.661 170.014 348.907 169.956C348.211 169.898 347.311 169.086 347.601 168.737ZM343.743 162.877C344.642 162.413 344.787 163.429 343.888 164.125C343.482 164.444 343.018 164.676 342.844 164.618C342.409 164.444 343.047 163.255 343.743 162.877ZM345.368 170.072C344.468 169.695 344.352 168.534 345.107 167.693C345.716 166.997 345.774 166.997 346.238 167.925C347.079 169.724 346.702 170.623 345.368 170.072ZM346.151 163.574C346.528 163.574 346.934 163.951 347.021 164.415C347.195 165.198 347.079 165.285 345.484 165.633C343.685 166.04 342.322 165.285 344.004 164.792C344.41 164.676 344.932 164.357 345.107 164.096C345.31 163.777 345.774 163.574 346.151 163.574ZM343.221 158.207C344.41 157.743 344.787 157.946 344.41 158.845C344.178 159.396 343.975 159.512 343.308 159.396C342.148 159.222 342.119 158.671 343.221 158.207ZM335.94 158.004C336.259 157.569 336.433 157.511 336.752 157.772C337.361 158.294 337.245 158.671 336.346 159.077C335.708 159.396 335.446 158.729 335.94 158.004ZM330.283 132.388C330.457 131.75 330.921 130.909 331.327 130.532C331.907 130.039 332.226 130.039 332.632 130.532C333.967 132.156 333.039 133.81 331.066 133.636C329.993 133.578 329.993 133.578 330.283 132.388Z" fill="#F2950E"/>
<path d="M311.455 320.022C310.758 319.79 309.801 321.734 310.236 322.633C310.381 322.981 310.758 323.155 311.078 323.039C311.861 322.72 312.18 320.254 311.455 320.022Z" fill="#F2950E"/>
<path d="M308.961 344.418C309.28 345.752 309.657 346.13 309.657 346.13C309.454 344.824 309.193 344.418 308.961 344.418Z" fill="#F2950E"/>
<path d="M350.037 429.387C350.617 431.243 351.052 431.359 351.169 430.547C351.256 429.996 351.052 429.793 350.037 429.387Z" fill="#F2950E"/>
<path d="M309.628 334.323C309.367 334.468 309.077 334.99 309.019 335.483C310.469 334.526 310.44 333.917 309.628 334.323Z" fill="#F2950E"/>
<path d="M352.677 210.594C353.228 210.275 353.141 209.81 352.503 209.665C352.155 209.607 351.836 209.781 351.778 210.1C351.662 210.652 352.097 210.913 352.677 210.594Z" fill="#F2950E"/>
<path d="M336.113 244.886C336.2 245.669 336.258 246.075 336.142 246.366C335.823 247.091 336.548 247.294 337.07 246.598C337.65 245.843 336.896 244.567 336.113 244.886Z" fill="#F2950E"/>
<path d="M344.179 225.129C343.686 224.549 343.396 224.839 343.309 225.1C343.773 225.825 344.063 225.535 344.179 225.129Z" fill="#F2950E"/>
<path d="M352.387 433.361C352.01 433.623 351.807 434 352.358 434.493C352.358 434.493 352.823 434.319 353.49 433.507C353.258 433.158 352.794 433.1 352.387 433.361Z" fill="#F2950E"/>
<path d="M348.095 229.163C348.356 229.25 349.429 226.378 350.242 223.419C351.112 220.46 351.692 217.386 351.489 217.066C350.851 216.08 350.416 216.747 349.516 220.199C347.921 225.769 347.283 228.902 348.095 229.163Z" fill="#F2950E"/>
<path d="M346.178 196.758C345.569 196.729 345.569 197.512 346.672 197.367C346.643 197.048 346.381 196.758 346.178 196.758Z" fill="#F2950E"/>
<path d="M336.926 213.325C337.1 212.136 337.564 209.873 337.825 208.335C338.406 205.289 338.028 203.404 337.303 205.086C337.071 205.579 336.839 206.508 336.781 207.146C336.723 207.784 336.433 209.844 336.085 211.787C335.795 213.702 335.388 215.675 335.417 216.139C336.288 215.849 336.723 214.514 336.926 213.325Z" fill="#F2950E"/>
<path d="M337.912 202.444C338.231 202.357 338.492 201.139 338.144 198.267C337.622 199.021 337.418 202.589 337.912 202.444Z" fill="#F2950E"/>
<path d="M336.926 251.53C337.767 252.313 338.202 252.313 338.289 252.11C337.564 251.356 337.129 251.385 336.926 251.53Z" fill="#F2950E"/>
<path d="M334.373 224.085C334.489 223.737 334.43 223.273 334.256 223.099C334.082 222.925 333.792 223.157 333.647 223.621C333.502 224.085 333.531 224.52 333.763 224.607C333.966 224.694 334.256 224.462 334.373 224.085Z" fill="#F2950E"/>
<path d="M179.199 95.2556C179.344 95.3136 179.373 95.5457 179.286 95.7197C179.112 96.1259 178.416 95.9808 178.503 95.5747C178.561 95.2556 178.88 95.0815 179.199 95.2556ZM172.556 103.407C172.353 104.016 173.252 104.074 173.833 103.494C174.297 103.03 174.239 102.943 173.397 102.943C172.788 102.914 172.701 102.972 172.556 103.407ZM202.697 86.4077C203.77 86.3787 203.944 86.1756 203.538 86.0015C203.277 85.8855 203.103 85.9725 202.697 86.4077ZM205.279 85.8855C205.337 86.1176 205.482 86.2626 205.859 86.0885C205.859 86.0885 205.888 85.8274 205.598 85.3633C205.337 85.4213 205.221 85.6244 205.279 85.8855ZM169.539 106.743C169.887 106.685 170.496 105.902 170.38 105.699C170.322 105.612 170.003 105.728 169.655 105.989C169.046 106.453 168.988 106.83 169.539 106.743ZM183.609 91.8324C183.174 92.0065 182.767 92.1806 182.332 92.3836C182.971 92.7318 183.58 92.3836 183.609 91.8324ZM132.581 182.429C132.842 182.807 132.987 182.574 133.016 182.371C132.813 181.907 132.668 182.139 132.581 182.429ZM133.509 205.028C133.944 204.332 134.641 200.995 134.351 201.141C134.176 201.199 133.915 202.272 133.509 205.028ZM128.752 189.102C129.042 189.827 129.303 189.276 129.854 186.607C130.753 182.255 130.985 179.964 130.579 179.848C130.318 179.76 128.578 188.608 128.752 189.102ZM136.207 167.402C136.149 166.88 136.091 166.619 136.12 166.416C136.236 165.894 135.859 165.865 135.656 166.358C135.395 166.938 135.801 167.721 136.207 167.402ZM95.5066 258.754C92.4026 260.32 89.3567 261.481 84.8892 262.757C83.5548 260.726 82.8876 258.783 82.5394 257.274C81.4081 252.139 97.9434 240.158 110.505 225.335C116.742 217.966 119.323 206.594 120.31 196.992C120.368 196.818 120.397 196.731 120.484 196.528C120.919 195.136 121.035 194.033 120.774 193.975C120.716 193.946 120.658 194.004 120.571 194.091C120.745 191.799 120.832 189.682 120.89 187.767C121.122 176.831 123.037 165.981 126.547 155.624C132.436 138.364 143.953 115.591 165.826 101.232C170.903 97.8954 176.211 95.1105 181.549 92.7897C182.013 92.7027 182.187 93.1669 181.81 93.544C181.636 93.7181 181.288 93.8631 181.027 93.8921C178.648 94.0952 177.198 94.9074 177.749 95.6037C177.894 95.8067 177.749 96.0388 177.227 96.445C176.617 96.9091 176.53 97.0832 176.763 97.3733C177.169 97.9245 176.472 98.8238 175.428 98.6497C175.66 99.0559 174.5 100.158 173.543 100.709C172.759 101.145 172.585 101.319 172.469 101.957C172.295 102.885 172.15 102.972 171.541 102.653C171.222 102.479 170.931 102.508 170.67 102.769C170.467 102.972 169.887 103.407 169.423 103.726C168.93 104.046 168.408 104.684 168.205 105.119C167.857 105.873 167.828 105.902 167.015 106.076C166.551 106.163 166.145 106.366 166.145 106.511C166.087 107.004 165.42 108.223 165.014 108.513C164.782 108.687 164.607 108.948 164.607 109.122C164.607 109.267 164.346 109.557 164.056 109.731C163.737 109.905 163.447 110.254 163.36 110.515C163.244 110.892 163.07 111.008 162.374 111.24C161.532 111.501 161.474 111.53 161.097 112.429C160.546 113.706 159.937 114.141 158.864 114.083C159.299 114.866 157.964 117.332 156.456 118.521C155.818 119.014 155.586 119.363 155.527 119.798C155.469 120.291 155.353 120.436 154.831 120.697C154.193 121.016 153.99 121.741 154.396 122.147C154.57 122.322 153.903 122.989 153.642 122.902C153.497 122.844 153.236 123.163 152.888 123.888C152.191 125.28 152.075 125.542 151.669 125.193C151.292 124.845 151.002 125.164 150.973 125.948C150.973 126.267 150.596 127.108 150.132 127.833C149.668 128.559 149.29 129.313 149.232 129.516C149.203 129.719 149.087 129.98 149 130.067C148.913 130.183 149.029 130.415 149.261 130.589C149.494 130.763 149.697 131.198 149.726 131.518C149.784 132.069 149.9 132.243 150.77 132.968C151.031 133.2 150.973 133.461 150.451 134.418C150.103 135.057 149.842 135.782 149.842 135.985C149.842 136.71 148.101 139.901 147.608 140.075C147.289 140.191 147.057 139.35 147.289 138.828C147.608 138.132 147.115 138.132 146.477 138.828C146.157 139.205 145.896 139.698 145.867 140.162C145.809 140.54 145.722 141.062 145.664 141.294C145.49 141.903 145.78 141.961 146.361 141.497C146.999 141.004 147.289 141.149 147.115 141.874C146.621 144.601 146.012 146.109 144.475 150.519C144.069 151.824 143.488 153.565 143.314 154.522C143.082 155.508 142.299 158.584 141.603 161.862C140.965 165.227 140.297 168.65 140.065 169.897C139.862 170.913 139.369 173.61 138.934 175.844C138.006 180.979 137.832 180.428 138.615 174.916C138.934 172.769 139.166 170.884 139.108 170.71C139.05 170.535 139.079 170.042 139.195 169.636C139.746 167.431 140.007 165.894 139.891 165.749C139.804 165.633 139.949 164.763 140.239 163.776C140.529 162.674 140.675 161.688 140.617 161.194C140.5 160.266 140.646 159.599 141.139 158.758C141.429 158.264 141.4 158.003 141.081 157.22C140.733 156.379 140.733 156.234 141.168 155.654C141.806 154.783 142.067 153.884 141.951 153.217C141.893 152.898 142.009 152.433 142.183 152.143C142.56 151.534 142.212 150.925 141.632 151.157C141.139 151.36 141.139 150.809 141.632 150.345C141.835 150.142 142.183 150.055 142.415 150.142C142.966 150.374 143.372 149.794 143.111 149.242C142.908 148.836 142.85 148.807 142.589 149.039C142.183 149.358 141.806 149.184 141.429 148.488C141.226 148.082 141.052 147.995 140.878 148.111C140.501 148.343 139.688 151.331 139.717 151.94C139.775 152.637 137.948 153.623 137.077 153.304C136.613 153.13 136.468 153.159 136.468 153.507C136.468 153.739 136.41 154.029 136.41 154.029C136.323 154.261 136.99 154.319 137.658 154.145C138.615 153.913 138.876 154.435 138.412 155.741C138.238 156.263 138.122 156.872 138.209 157.075C138.47 157.771 138.18 158.09 137.512 157.829C137.164 157.684 136.7 157.568 136.468 157.539C136.207 157.51 136.033 157.249 136.004 156.843C135.975 156.495 135.917 156.118 135.888 156.031C135.743 155.712 134.786 158.845 134.38 160.904C134.235 161.804 134.002 162.5 133.741 162.819C133.161 163.573 132.987 164.821 133.48 165.053C133.944 165.314 133.683 166.358 132.088 173.349C131.798 174.539 131.479 175.351 131.246 175.264C130.956 175.177 130.782 173.117 130.985 172.421C131.101 172.102 131.072 171.812 130.956 171.783C130.637 171.696 129.999 172.972 129.941 173.814C129.912 174.22 129.767 174.655 129.622 174.8C129.419 174.974 129.39 175.177 129.506 175.496C129.622 175.786 129.506 176.511 129.245 177.498C128.897 178.774 128.868 179.209 129.071 179.964C129.303 180.834 129.303 180.892 128.839 181.327C128.462 181.675 128.404 181.849 128.578 182.081C128.723 182.284 128.636 183.155 128.23 185.127C127.91 186.636 127.707 188.057 127.765 188.289C127.852 188.55 127.736 188.986 127.446 189.508C126.837 190.668 126.866 190.697 127.707 190.9C128.316 191.045 128.52 190.958 128.752 190.436C128.955 190.001 128.926 190.378 128.665 191.567C128.433 192.699 128.229 193.25 128.113 193.105C128.026 192.989 127.997 192.641 128.084 192.322C128.258 191.538 127.475 191.393 127.011 192.148C126.75 192.583 126.663 192.931 126.721 193.395C126.779 193.888 126.721 194.091 126.402 194.294C126.112 194.497 126.054 194.671 126.141 195.02C126.228 195.31 126.112 195.89 125.88 196.557C125.561 197.398 125.532 197.659 125.764 197.717C125.938 197.775 126.083 198.066 126.112 198.356C126.17 198.878 126.199 198.878 126.692 198.53C127.823 197.717 127.91 198.472 126.982 201.199C126.402 202.881 126.344 203.171 126.576 203.722C126.808 204.332 126.576 205.202 125.996 205.753C125.619 206.159 124.777 209.408 124.69 210.83C124.603 212.425 124.835 212.628 125.735 211.787C126.286 211.265 126.431 211.236 126.547 211.671C126.663 212.106 126.663 212.541 125.851 214.601C125.474 215.529 125.532 216.458 125.967 216.458C126.692 216.458 126.895 218.111 126.257 219.881C125.851 220.925 125.561 221.447 125.561 220.896C125.735 220.693 125.822 220.403 125.445 220.461C125.038 221.302 124.661 220.461 124.98 219.475C125.357 218.343 124.864 217.821 124.139 218.459C123.733 218.807 123.501 218.807 123.211 218.517C122.921 218.169 122.689 218.227 122.108 218.807C121.702 219.184 121.238 219.417 121.064 219.33C120.542 219.04 120.281 219.533 120.745 219.939C121.209 220.316 121.209 220.635 120.281 223.275C120.107 223.739 120.02 224.377 120.107 224.696C120.194 225.015 120.107 225.683 119.962 226.147C119.585 227.278 119.788 227.626 120.513 226.988C121.006 226.553 121.064 226.408 120.919 225.857C120.716 225.044 120.919 224.667 121.383 224.957C121.702 225.161 121.789 225.074 122.079 224.319C122.311 223.71 122.573 223.391 122.863 223.246C123.124 223.13 123.53 222.608 123.791 222.057C124.603 220.345 124.922 222.027 124.11 223.913C123.501 225.189 123.472 225.335 123.878 225.712C124.168 225.973 124.226 226.292 124.023 226.64C123.675 227.278 123.124 227.336 122.979 226.727C122.805 226.06 122.457 225.973 122.166 226.524C121.818 227.191 121.731 228.41 122.05 228.758C122.486 229.222 122.34 229.744 121.731 230.208C121.267 230.556 121.122 230.759 121.006 231.543C120.861 232.268 120.658 232.703 119.991 233.457C119.527 234.008 119.062 234.618 119.004 234.879C118.801 235.691 118.279 236.242 117.815 236.097C117.438 235.981 117.264 236.126 116.597 237.141C116.016 238.041 115.871 238.331 116.103 238.418C116.277 238.476 116.597 238.708 116.8 238.911C117.177 239.288 117.235 239.317 119.004 237.083C120.02 235.836 121.325 233.892 121.905 232.732C122.514 231.601 123.211 230.44 123.501 230.15C123.791 229.86 124.052 229.396 124.11 229.106C124.313 228.061 125.328 225.944 125.967 225.335C126.46 224.841 126.605 224.435 126.779 223.391C126.924 222.55 127.359 221.36 127.997 219.997C128.52 218.836 129.245 217.009 129.651 215.935C131.014 212.338 132.088 209.292 132.204 209.35C132.465 209.437 132.233 210.54 130.985 214.688C130.202 217.038 128.926 220.78 127.939 223.014C126.576 226.553 123.211 232.993 118.946 238.563C114.74 244.249 109.663 249.093 106.617 251.53C101.976 255.127 98.6687 257.129 95.5066 258.754ZM147.376 133.577C147.463 133.635 147.666 133.577 147.869 133.432C148.333 133.084 148.362 133.026 148.072 132.823C147.927 132.707 147.695 132.823 147.521 133.055C147.347 133.287 147.289 133.519 147.376 133.577ZM145.722 136.855C145.896 137.726 146.651 137.842 147.086 137.116C147.289 136.768 147.608 136.942 147.579 137.348C147.55 137.523 147.753 137.552 148.072 137.378C148.536 137.145 148.594 137.029 148.652 136.391C148.71 135.55 148.391 135.347 147.869 135.956C147.434 136.478 147.26 136.362 147.202 135.55C147.144 134.825 146.941 134.593 146.389 134.738C145.838 134.941 145.519 135.898 145.722 136.855ZM143.953 139.901C144.127 140.714 144.388 140.569 145.055 139.321C145.664 138.132 145.693 137.813 145.171 137.726C144.591 137.639 143.779 139.118 143.953 139.901ZM143.75 142.628C144.272 142.019 144.243 141.758 143.692 141.903C143.198 142.048 143.227 142.019 143.111 142.57C143.024 143.15 143.285 143.179 143.75 142.628ZM141.342 147.125C141.835 147.792 142.705 147.386 142.502 146.544C142.444 146.196 142.531 145.819 142.85 145.413C143.634 144.369 143.721 144.804 143.169 146.457C142.792 147.647 143.721 147.27 144.62 145.935C145.113 145.21 145.113 145.181 144.62 145.094C144.33 145.036 144.04 144.804 143.953 144.572C143.866 144.34 143.662 144.137 143.488 144.137C143.314 144.137 143.14 143.992 143.14 143.847C143.14 142.918 142.56 143.353 141.777 144.949C140.994 146.516 140.994 146.661 141.342 147.125ZM126.576 177.614C127.243 177.904 127.272 177.875 126.489 176.192C125.909 176.598 125.938 177.324 126.576 177.614ZM124.284 206.71C123.849 208.045 123.646 209.292 123.936 209.408C123.936 209.408 124.371 208.567 124.777 207.465C125.126 206.391 125.358 205.463 125.241 205.405C125.009 205.318 125.532 203.606 125.938 203.142C126.141 202.91 126.199 202.591 126.083 202.156C125.822 201.315 125.648 201.315 125.3 202.185C124.661 203.693 124.458 204.419 124.632 204.796C124.719 205.057 124.574 205.811 124.284 206.71ZM123.646 171.464C124.023 171.377 124.284 170.042 123.936 169.781C123.82 169.694 123.617 169.897 123.501 170.216C123.211 171.116 123.269 171.551 123.646 171.464ZM123.008 173.349C123.095 173.669 123.298 173.872 123.443 173.814C123.762 173.669 123.675 173.233 123.24 172.711C122.834 172.247 122.747 172.508 123.008 173.349ZM122.834 217.27C123.066 217.154 123.269 216.922 123.269 216.748C123.24 216.313 122.805 216.487 122.834 217.27ZM117.96 230.063C117.554 230.933 117.554 230.991 118.134 230.788C118.859 230.527 119.527 229.57 119.469 228.845C119.353 227.829 118.743 228.323 117.96 230.063ZM117.641 228.555C117.728 228.758 117.902 228.874 118.047 228.816C118.337 228.7 118.54 227.684 118.337 227.336C118.105 226.988 117.438 228.178 117.641 228.555ZM115.349 233.138C115.436 233.341 115.668 233.428 115.9 233.37C116.104 233.283 116.423 233.341 116.597 233.486C117.293 234.037 117.467 232.761 116.8 232.123C116.191 231.543 116.103 231.572 115.668 232.152C115.407 232.5 115.262 232.935 115.349 233.138ZM115.407 234.908C115.784 235.082 116.713 234.589 116.742 234.211C116.742 234.066 116.51 233.979 116.22 233.979C115.552 233.979 114.943 234.676 115.407 234.908ZM112.477 242.537C112.274 242.914 112.303 243.001 112.68 242.943C113.26 242.856 113.812 242.276 113.551 242.015C113.174 241.638 112.883 241.812 112.477 242.537ZM112.303 238.128C112.738 238.534 113.144 238.157 113.115 237.374C113.115 236.909 112.999 236.851 112.593 237.054C111.955 237.345 111.839 237.693 112.303 238.128ZM91.9964 253.213C91.5613 253.503 91.5033 253.677 91.6774 254.025C91.8224 254.257 92.2576 254.518 92.6638 254.576C93.389 254.692 93.418 254.663 93.7371 253.967C94.3173 252.691 93.3889 252.313 91.9964 253.213ZM161.474 115.417C161.794 114.866 161.793 114.634 161.793 114.634C161.416 115.098 161.387 115.33 161.474 115.417ZM129.999 201.634C129.767 201.808 129.738 201.895 129.825 202.649C129.883 203.461 130.405 203.664 130.608 202.91C130.782 202.33 130.318 201.373 129.999 201.634ZM135.569 163.08C135.134 162.674 134.902 162.732 134.873 162.848C135.25 163.254 135.453 163.196 135.569 163.08ZM129.129 205.086C129.071 205.376 129.129 205.637 129.245 205.666C129.564 205.753 129.709 205.086 129.129 205.086ZM127.823 194.12C127.504 194.381 127.504 194.729 127.823 194.846C127.997 194.904 128.172 194.758 128.23 194.497C128.346 194.033 128.113 193.859 127.823 194.12ZM190.658 89.7728C191.064 89.5697 191.441 89.1345 191.441 88.8154C191.093 88.9315 190.716 89.0765 190.368 89.1926C190.02 89.5987 190.136 90.0049 190.658 89.7728ZM158.225 118.811C158.37 118.84 158.632 118.724 158.806 118.55C157.935 118.492 157.761 118.724 158.225 118.811ZM135.134 195.774C134.524 198.472 134.467 200.212 135.047 198.704C135.221 198.269 135.424 197.427 135.54 196.847C135.656 196.267 136.004 194.41 136.323 192.699C136.613 191.016 136.903 189.276 136.903 188.898C136.468 189.189 136.178 190.349 136.004 191.393C135.801 192.438 135.453 194.381 135.134 195.774ZM185.843 91.5134C185.785 91.6294 186.191 91.6584 186.742 91.6004C188.163 91.4844 189.179 90.382 188.018 90.2079C187.902 90.1789 187.815 90.1789 187.728 90.1499C186.858 90.469 185.988 90.8461 185.117 91.1942C185.61 91.2813 185.901 91.4264 185.843 91.5134ZM160.024 119.392C159.821 119.566 159.705 119.856 159.705 120.001C159.734 120.146 159.937 120.059 160.198 119.827C160.459 119.595 160.575 119.305 160.517 119.218C160.459 119.13 160.227 119.217 160.024 119.392ZM154.773 123.163C154.338 123.105 153.613 124.178 153.903 124.439C154.164 124.7 155.034 124.004 155.063 123.54C155.063 123.337 154.918 123.192 154.773 123.163ZM137.571 182.255C137.513 182.545 137.542 182.894 137.629 183.01C137.716 183.126 137.861 182.923 137.948 182.516C138.035 182.139 138.006 181.791 137.89 181.762C137.774 181.733 137.629 181.936 137.571 182.255ZM153.381 126.093C153.787 125.339 153.671 124.729 153.12 124.932C152.568 125.164 152.51 125.339 152.743 125.948C152.859 126.267 152.859 126.644 152.743 126.789C152.626 126.934 152.626 127.282 152.772 127.543C152.888 127.804 152.946 128.356 152.888 128.762C152.366 128.269 151.959 128.094 150.712 128.036C150.596 128.646 150.451 129.023 150.277 129.255C150.074 129.487 150.016 129.835 150.103 130.009C150.364 130.502 150.538 130.589 150.77 130.299C150.886 130.154 151.263 130.009 151.582 129.951C152.162 129.864 152.162 129.893 151.988 130.299C151.234 132.04 151.669 132.185 152.859 130.589C154.222 128.762 154.483 127.601 153.642 127.108C153.062 126.818 153.033 126.731 153.381 126.093Z" fill="#FFC778"/>
<path d="M246.907 303.744C305.802 303.744 353.546 256 353.546 197.105C353.546 138.21 305.802 90.4658 246.907 90.4658C188.012 90.4658 140.268 138.21 140.268 197.105C140.268 256 188.012 303.744 246.907 303.744Z" fill="white"/>
<path d="M332.401 234.76C326.57 247.96 317.78 259.535 306.872 268.673V174.508C306.872 172.448 305.19 170.765 303.13 170.765C301.07 170.765 299.388 172.448 299.388 174.508V255.763H279.981C277.921 255.763 276.238 257.446 276.238 259.506C276.238 261.565 277.921 263.248 279.981 263.248H299.388V274.33C284.419 284.512 266.346 290.488 246.91 290.488C242.732 290.488 238.642 290.227 234.58 289.676V262.117H260.37V238.126H286.624V155.042H253.872C251.812 155.042 250.13 156.725 250.13 158.784C250.13 160.844 251.812 162.527 253.872 162.527H279.139V230.612H252.885V254.603H227.096V288.341C212.098 285.092 198.405 278.246 187.034 268.702H187.382V262.117H212.156C214.216 262.117 215.898 260.434 215.898 258.374C215.898 256.315 214.216 254.632 212.156 254.632H187.382V214.338H212.156C214.216 214.338 215.898 212.655 215.898 210.595C215.898 208.536 214.216 206.853 212.156 206.853H187.382V161.946H218.48V126.439H202.931C200.871 126.439 199.189 128.121 199.189 130.181C199.189 132.241 200.871 133.923 202.931 133.923H210.967V154.433H179.868V180.396L148.422 180.367C147.523 185.792 147.059 191.362 147.059 197.048C147.059 252.195 191.762 296.899 246.91 296.899C269.044 296.899 289.467 289.705 306.002 277.521L306.872 276.882C320.449 266.7 331.327 253.065 338.29 237.342C339.247 235.196 337.68 232.788 335.36 232.788C334.054 232.817 332.923 233.6 332.401 234.76ZM179.897 262.145C163.565 245.291 153.499 222.373 153.499 197.106C153.499 194.031 153.644 190.956 153.963 187.968H179.926V262.145H179.897ZM250.304 97.284C210.589 95.9786 175.865 117.823 158.662 150.372C157.531 152.518 159.069 155.129 161.505 155.129C162.695 155.129 163.768 154.462 164.348 153.418C180.042 123.857 211.141 103.666 246.91 103.666C258.223 103.666 269.102 105.697 279.139 109.381V127.106H231.534V178.569H208.066C206.006 178.569 204.323 180.251 204.323 182.311C204.323 184.371 206.006 186.053 208.066 186.053H231.534V228.726H208.066C206.006 228.726 204.323 230.409 204.323 232.469C204.323 234.528 206.006 236.211 208.066 236.211H239.019V186.024H256.773V188.307C256.773 190.367 258.455 192.049 260.515 192.049C262.604 192.049 264.257 190.367 264.257 188.307V178.569H238.99V134.59H286.595V112.514C291.033 114.603 295.327 117.069 299.33 119.824V150.459C299.33 152.518 301.012 154.201 303.072 154.201C305.161 154.201 306.814 152.518 306.814 150.459V125.51C320.739 137.172 331.24 152.837 336.462 170.707L322.16 170.736C320.101 170.736 318.418 172.419 318.418 174.478C318.418 176.538 320.101 178.221 322.16 178.221H338.348C339.624 184.313 340.262 190.637 340.262 197.106C340.262 201.254 340.001 205.316 339.45 209.319H321.667C319.666 209.319 318.041 210.944 318.041 212.945C318.041 214.918 319.637 216.571 321.609 216.571C321.667 216.571 344.759 216.542 344.759 216.542C346.151 209.551 346.819 202.299 346.644 194.843C345.571 142.278 302.84 99.0536 250.304 97.284Z" fill="#3FB182"/>
<path d="M278.615 259.219C278.325 258.29 276.933 257.42 277.049 258.232C277.107 258.639 277.397 259.19 277.716 259.451C278.383 260.031 278.818 259.886 278.615 259.219Z" fill="#3B9E75"/>
<path d="M306.813 176.338C306.871 176.338 306.871 174.511 306.871 174.511C306.871 173.234 306.175 172.132 305.188 171.465C305.392 175.642 305.595 176.425 306.813 176.338Z" fill="#3B9E75"/>
<path d="M285.55 173.463C284.186 169.75 283.403 169.75 284.07 173.289C284.447 174.856 284.447 176.915 284.621 177.612C284.708 178.076 284.853 178.946 284.999 180.049C285.115 181.151 285.55 182.398 285.608 183.733C285.724 185.067 285.985 186.344 286.101 187.475C286.159 188.577 286.275 189.477 286.362 189.912C286.449 190.318 286.536 190.927 286.623 191.565C286.623 192.233 286.623 192.929 286.565 193.538C286.507 194.582 286.507 195.453 286.565 196.207C286.536 196.874 286.565 197.425 286.652 197.976V176.161C286.333 175.755 285.927 174.682 285.55 173.463Z" fill="#3B9E75"/>
<path d="M299.85 176.597C299.995 176.307 299.763 176.104 299.356 175.988V177.033C299.56 176.917 299.763 176.801 299.85 176.597Z" fill="#3B9E75"/>
<path d="M299.531 187.302C299.27 188.666 300.402 189.072 303.012 188.52C304.811 188.114 306.784 187.94 306.726 188.201C306.726 188.201 306.783 188.317 306.842 188.462V185.939C306.754 186.026 306.697 186.055 306.61 186.026C306.465 185.939 306 185.62 305.623 185.3C305.188 184.923 304.492 184.778 303.709 184.865C303.041 184.952 301.562 185.039 300.431 185.068C299.995 185.068 299.618 185.126 299.328 185.155V186.287C299.56 186.548 299.618 186.925 299.531 187.302Z" fill="#3B9E75"/>
<path d="M304.579 179.006C303.187 178.89 302.606 179.093 302.403 179.267C303.999 179.354 304.579 179.151 304.579 179.006Z" fill="#3B9E75"/>
<path d="M276.324 155.306C276.062 156.118 277.31 157.887 277.861 157.336C278.209 157.017 277.919 156.292 276.324 155.306Z" fill="#3B9E75"/>
<path d="M227.153 292.637C225.499 292.666 225.267 293.101 226.167 294.406C226.718 295.247 230.025 295.334 229.909 294.522C229.677 293.304 228.633 292.608 227.153 292.637Z" fill="#3B9E75"/>
<path d="M285.142 225.537C285.287 225.363 285.229 225.015 284.968 224.754C284.706 224.522 284.358 224.522 284.155 224.754C283.952 224.986 284.01 225.334 284.3 225.508C284.59 225.711 284.968 225.711 285.142 225.537Z" fill="#3B9E75"/>
<path d="M335.328 232.817C334.052 232.817 332.92 233.571 332.398 234.76C326.567 247.96 317.777 259.535 306.87 268.673V189.07C306.637 189.128 306.173 189.157 305.419 189.128C303.417 189.128 300.43 189.941 299.356 190.608V191.652C299.791 192.552 299.762 194.437 299.356 195.075V196.381C300.284 196.729 300.4 197.048 299.849 198.527C299.704 198.934 299.53 199.224 299.356 199.514V204.271C300.139 204.939 300.052 205.925 299.356 206.331V209.029V255.763H279.949C279.775 255.763 279.659 255.821 279.484 255.85C279.601 256.053 279.746 256.257 279.92 256.489C280.674 257.359 280.674 257.678 280.065 258.316C279.543 258.867 279.485 259.303 279.949 259.854C281.399 261.594 280.094 262.494 277.135 261.913C277.831 262.726 278.817 263.248 279.949 263.248H299.356V274.33C285.17 283.99 268.142 289.792 249.837 290.372C250.62 291.039 251.229 292.461 250.852 293.36C250.678 293.795 250.678 294.462 250.852 294.868C251.722 296.783 250.388 295.942 249.373 293.882C248.705 292.606 248.009 291.59 247.748 291.619C247.342 291.706 246.733 291.213 246.211 290.43C244.499 290.43 242.816 290.372 241.134 290.256C240.931 290.517 240.641 290.546 240.293 290.198C238.9 290.111 237.537 289.937 236.173 289.792C233.852 290.227 233.765 290.314 234.085 291.648C234.346 292.722 234.23 293.418 233.562 294.346C232.953 295.216 232.837 295.681 233.214 295.855C235.071 296.145 236.841 296.348 238.639 296.493C238.61 296.203 238.494 295.826 238.349 295.303C237.827 293.36 237.827 293.36 239.654 293.041C242.149 292.547 242.903 293.099 243.629 296.029C243.716 296.319 243.774 296.551 243.861 296.783C244.847 296.812 245.804 296.87 246.791 296.87C268.925 296.87 289.348 289.676 305.883 277.492L306.754 276.853C320.33 266.671 331.209 253.036 338.171 237.313C339.215 235.254 337.678 232.817 335.328 232.817Z" fill="#3B9E75"/>
<path d="M281.254 164.877C282.24 164.094 282.124 163.252 281.747 162.614C281.428 161.976 280.848 160.728 280.47 159.858C279.745 158.089 278.411 157.653 278.324 158.988C278.266 159.394 278.44 159.945 278.643 160.264C278.817 160.583 279.484 161.657 279.948 162.672C280.442 163.716 281.051 164.674 281.254 164.877Z" fill="#3B9E75"/>
<path d="M283.343 169.115C283.662 168.999 283.894 168.738 283.865 168.506C283.836 168.302 283.546 168.186 283.198 168.244C282.85 168.302 282.618 168.564 282.676 168.854C282.734 169.144 283.024 169.26 283.343 169.115Z" fill="#3B9E75"/>
<path d="M301.88 152.49C301.126 152.519 300.778 152.722 300.72 153.273C301.358 153.796 302.141 154.173 303.012 154.173C302.576 153.186 302.112 152.49 301.88 152.49Z" fill="#3B9E75"/>
<path d="M299.387 147.501V148.342C299.474 148.255 299.561 148.168 299.648 148.081C300.025 147.53 299.88 147.327 299.387 147.501Z" fill="#3B9E75"/>
<path d="M346.73 194.845C346.498 183.764 344.38 173.117 340.754 163.196C340.638 162.993 340.522 162.674 340.377 162.122C326.481 125.396 291.409 98.6785 250.302 97.315C238.234 96.9089 226.63 98.6784 215.839 102.218C216.361 102.624 216.883 103.03 217.376 103.407C219.03 104.741 220.481 105.786 222.134 107.062C230.025 104.886 238.321 103.697 246.908 103.697C258.222 103.697 269.1 105.728 279.138 109.412V127.137H276.208C276.15 127.224 276.121 127.311 276.034 127.398C275.338 128.123 274.119 128.5 274.264 127.949C274.293 127.775 274.496 127.456 274.757 127.137H271.537C271.392 127.369 271.247 127.601 271.044 127.891C269.536 130.183 267.998 131.169 269.333 128.906C269.652 128.384 269.971 127.601 270.058 127.166H269.246C269.275 127.456 269.217 127.891 269.013 128.5C268.752 129.226 268.404 129.922 268.23 130.038C267.766 130.386 267.911 128.703 268.404 127.63C268.491 127.427 268.578 127.282 268.665 127.166H245.516C245.545 127.195 245.603 127.224 245.632 127.253C247.807 129.225 250.07 130.85 253.087 133.577C253.464 133.896 253.9 134.273 254.364 134.65H263.038C263.27 134.186 263.473 133.751 263.589 133.49C263.85 132.823 264.14 132.707 264.778 133.055C265.474 133.432 265.532 133.664 265.068 134.65H275.744C275.686 134.592 275.657 134.476 275.541 134.447C274.96 134.244 274.961 134.07 275.628 133.2C276.672 131.865 276.411 131.633 275.048 132.649C274.119 133.345 274.003 133.316 274.061 132.446C274.148 131.14 274.844 130.357 275.86 130.56C276.295 130.647 277.078 130.386 277.629 130.009C278.181 129.603 278.964 129.429 279.341 129.603C281.633 130.56 282.01 130.531 283.199 129.313C284.447 128.036 284.766 128.5 283.547 129.835C283.17 130.27 282.764 131.314 282.648 132.127C282.474 133.345 282.213 133.78 281.284 134.592C281.226 134.65 286.564 134.65 286.564 134.65V112.574C291.003 114.663 295.296 117.129 299.299 119.884V143.179C299.706 143.266 300.373 143.092 300.808 142.831C301.417 142.454 301.62 142.628 301.736 143.643C301.852 144.426 302.2 144.949 302.665 144.949C303.245 144.978 303.274 145.181 302.781 145.79C302.259 146.428 302.287 146.66 302.926 146.834C303.506 147.008 303.651 147.357 303.419 148.053C302.984 149.271 300.895 150.49 300.634 149.706C300.518 149.416 300.141 149.242 299.822 149.329C299.416 149.416 299.503 150.054 299.88 151.128C300.286 152.23 300.576 152.491 300.663 151.94C300.779 151.244 301.185 150.867 302.868 149.967C305.159 148.72 305.188 148.749 304.753 150.461C304.55 151.244 304.666 151.679 305.101 151.737C305.304 151.766 305.624 152.201 305.914 152.839C306.407 152.201 306.755 151.418 306.755 150.548V125.599C309.221 127.659 311.542 129.893 313.775 132.214C313.514 131.227 313.717 131.314 314.559 132.039C315.11 132.504 315.806 133.142 316.125 133.403C316.676 133.867 316.879 134.737 316.763 135.376C325.698 145.471 332.515 157.539 336.403 170.825L322.101 170.854C320.041 170.854 318.359 172.537 318.359 174.596C318.359 176.656 320.041 178.339 322.101 178.339H338.288C339.565 184.431 340.203 190.755 340.203 197.224C340.203 201.372 339.942 205.434 339.391 209.437H321.608C319.606 209.437 317.982 211.062 317.982 213.063C317.982 215.036 319.577 216.689 321.55 216.689C321.55 216.689 326.83 216.689 332.341 216.689C332.08 216.254 332.022 215.819 332.283 215.355C332.835 214.514 334.691 214.63 335.765 215.616C336.142 215.935 336.287 216.312 336.316 216.66C340.87 216.66 344.7 216.66 344.7 216.66C346.237 209.553 346.904 202.301 346.73 194.845ZM260.775 132.533C260.311 133.519 259.933 133.2 260.108 132.01C260.224 131.285 260.34 131.024 260.688 130.908C261.355 130.647 261.384 131.198 260.775 132.533ZM272.669 131.343C271.653 132.097 271.102 131.372 271.508 129.835C271.827 128.616 271.885 128.558 272.64 128.79C274.148 129.254 274.148 130.27 272.669 131.343ZM283.402 134.099C283.199 134.128 283.228 133.722 283.46 133.2C284.476 132.997 283.953 134.041 283.402 134.099ZM337.244 163.544C337.099 164.82 335.997 165.168 334.865 164.385C334.14 163.863 333.589 161.919 333.357 160.005C333.038 158.148 332.98 156.321 333.618 156.059C335.736 155.189 336.403 155.827 336.403 158.728C336.316 160.44 336.461 161.542 336.867 161.716C337.389 162.296 337.302 162.935 337.244 163.544Z" fill="#3B9E75"/>
<path d="M172.817 136.012C172.237 136.303 170.845 135.519 170.613 134.736C170.526 134.446 170.264 134.098 170.032 133.924C169.916 133.837 169.829 133.779 169.742 133.721C165.507 138.855 161.794 144.425 158.632 150.372C157.5 152.519 159.038 155.13 161.474 155.13C162.664 155.13 163.737 154.463 164.318 153.418C167.364 147.674 171.019 142.279 175.167 137.318C173.397 135.867 173.252 135.78 172.817 136.012Z" fill="#4BC291"/>
<path d="M177.082 133.578C177.72 133.81 178.039 133.636 179.025 132.852C180.186 131.895 180.186 131.837 179.519 131.17C178.996 130.648 178.822 130.212 178.793 129.516C178.764 128.878 178.677 128.588 178.416 128.588C178.213 128.588 177.662 128.443 177.14 128.211C176.386 127.892 176.124 127.979 175.66 128.588C175.109 129.313 175.138 129.371 176.066 130.27C177.024 131.199 177.024 131.199 176.241 131.837C175.225 132.794 174.616 132.678 173.166 131.315C172.904 131.054 172.643 130.851 172.411 130.677C171.57 131.605 170.729 132.504 169.945 133.491C170.235 133.578 170.671 133.781 171.135 134.071C171.947 134.564 172.701 134.912 172.788 134.825C173.107 134.535 174.384 135.086 175.312 135.927C175.515 136.13 175.747 136.275 175.95 136.45C176.385 135.956 176.821 135.434 177.256 134.941C176.473 134.042 176.298 133.317 177.082 133.578Z" fill="#4BC291"/>
<path d="M182.477 127.631C181.926 127.283 180.301 128.124 180.62 128.531C181.142 129.169 181.926 129.314 182.622 128.879C183.376 128.415 183.376 128.182 182.477 127.631Z" fill="#4BC291"/>
<path d="M181.84 126.468C182.246 126.236 182.217 125.539 181.782 125.162C181.289 124.756 181.057 124.872 180.941 125.568C180.854 126.149 181.405 126.7 181.84 126.468Z" fill="#4BC291"/>
<path d="M179.896 190.001C180.244 190.001 180.505 189.653 180.563 188.985C180.679 187.506 179.78 186.81 177.865 186.897C176.588 186.955 176.472 186.926 176.327 186.462C176.153 185.91 175.225 185.62 174.587 185.969C173.949 186.317 174.036 186.433 175.109 186.665C175.66 186.781 176.095 186.984 176.066 187.1C176.037 187.216 176.443 187.39 176.966 187.477C177.43 187.564 178.01 187.767 178.387 187.999H179.896V190.001Z" fill="#4BC291"/>
<path d="M185.058 239.372C184.739 239.633 184.768 239.662 185.32 239.865C185.929 240.068 186.944 239.662 186.886 239.285C186.828 238.937 185.494 239.024 185.058 239.372Z" fill="#4BC291"/>
<path d="M180.041 228.64C180.679 228.698 180.853 228.465 180.853 228.32C180.186 228.175 180.012 228.407 180.041 228.64Z" fill="#4BC291"/>
<path d="M186.191 241.202C186.771 240.97 186.597 240.651 185.61 241.173C185.697 241.26 185.959 241.289 186.191 241.202Z" fill="#4BC291"/>
<path d="M179.896 194.44V195.513C180.012 195.89 181.172 196.209 181.636 195.977C182.39 195.629 182.187 193.221 181.404 192.844C181.172 192.728 180.911 192.264 180.795 191.8C180.65 191.133 180.447 190.959 179.896 190.93V193.802C180.244 194.063 180.244 194.208 179.896 194.44Z" fill="#4BC291"/>
<path d="M178.792 180.891C179.024 180.978 179.227 180.862 179.285 180.63C179.314 180.572 179.285 180.514 179.256 180.456H178.502C178.444 180.63 178.56 180.833 178.792 180.891Z" fill="#4BC291"/>
<path d="M185.031 203.229C184.479 199.922 184.044 198.848 182.478 197.166C182.043 196.702 181.404 196.76 180.766 197.34C180.447 197.63 180.128 197.775 179.867 197.804V200.328C180.157 200.328 180.505 200.27 180.795 200.212C181.782 200.009 181.81 200.038 181.549 200.676C181.201 201.546 180.389 202.127 179.867 202.069V203.548C180.041 203.49 180.244 203.461 180.36 203.345C180.679 203.084 180.824 203.055 181.491 203.171C182.449 203.345 182.072 203.896 180.882 204.07C180.534 204.128 180.128 204.273 179.838 204.447V205.173C179.954 205.144 180.041 205.115 180.186 205.056C181.114 204.592 182.188 204.766 181.926 205.318C181.81 205.608 181.955 205.927 182.275 206.072C182.971 206.391 183.029 207.029 182.42 207.899C182.014 208.48 182.072 208.567 183.29 208.857C184.392 209.118 184.566 209.263 184.305 209.698C183.899 210.452 184.015 210.916 184.77 211.381C185.176 211.642 185.408 212.28 185.466 213.092C185.495 213.817 185.698 214.398 185.901 214.427C186.249 214.456 186.452 215.471 186.539 217.067C186.539 217.357 186.713 217.647 186.916 217.734C187.003 217.763 187.177 218.082 187.38 218.575V214.369H187.845C187.177 211.468 186.075 207.116 185.756 206.101C185.495 205.492 185.205 204.186 185.031 203.229Z" fill="#4BC291"/>
<path d="M175.139 185.359C175.864 185.388 176.386 184.692 175.835 184.431C175.632 184.344 175.226 184.286 174.936 184.344C174.239 184.489 174.384 185.33 175.139 185.359Z" fill="#4BC291"/>
<path d="M174.963 180.717C175.195 180.688 175.369 180.572 175.456 180.456H175.224C174.18 180.659 174.238 180.833 174.963 180.717Z" fill="#4BC291"/>
<path d="M208.093 282.045C200.463 278.564 193.385 274.097 187.032 268.759H187.38V262.174H204.844C204.496 261.216 204.09 260.172 203.626 258.983C203.19 257.851 202.494 256.314 201.74 254.689H196.025H190.223C189.991 254.921 189.875 254.892 189.614 254.689H188.337C188.221 254.921 187.873 255.153 187.554 255.298C186.887 255.589 186.452 254.979 187.119 254.66C187.206 254.631 187.264 254.602 187.351 254.602V252.688C187.148 252.688 186.945 252.688 186.742 252.746C186.307 252.862 185.814 252.804 185.611 252.63C184.45 251.585 184.218 251.527 183.203 252.049C182.129 252.572 182.042 252.252 183.116 251.672C183.464 251.498 183.957 250.947 184.218 250.483C184.624 249.787 184.885 249.554 185.64 249.264C186.307 248.974 186.684 248.713 187.003 248.278C187.119 248.133 187.235 248.017 187.351 247.901V246.45C187.003 246.45 186.713 246.334 186.655 246.073C186.336 245.029 186.191 244.884 185.64 244.942C185.117 245 184.914 245.145 184.363 245.783C183.493 246.857 182.971 247.031 181.926 246.624C180.969 246.276 180.157 244.594 180.621 244.072C181.259 243.375 181.114 242.911 180.302 242.911C180.128 242.911 179.983 242.911 179.867 242.882V262.203C170.352 252.397 162.983 240.504 158.458 227.304C158.458 227.536 158.342 227.768 158.081 227.884C157.384 228.174 157.094 227.942 157.239 227.188C157.297 226.898 157.558 226.666 157.848 226.637C158.08 226.637 158.225 226.724 158.341 226.84C155.208 217.499 153.468 207.52 153.468 197.163C153.468 194.088 153.613 191.013 153.932 188.025H172.614C172.469 187.677 172.266 187.387 172.063 187.3C171.251 186.865 171.396 186.575 172.382 186.604C173.398 186.633 173.456 186.459 172.788 185.414C172.469 184.892 172.44 184.631 172.759 184.602C173.282 184.544 173.514 183.935 173.021 183.906C171.86 183.848 171.338 183.355 171.947 182.949C172.469 182.6 172.469 182.484 171.976 182.194C171.541 181.933 171.483 181.672 171.802 181.15C171.918 180.947 171.976 180.744 172.005 180.541L148.449 180.512C147.55 185.937 147.086 191.506 147.086 197.192C147.086 238.502 172.15 273.923 207.919 289.124C207.977 288.485 208.006 287.847 208.064 287.151C208.122 285.758 208.122 283.931 208.093 282.045ZM198.085 256.082C198.665 255.647 198.839 255.995 198.375 256.662C198.085 257.068 197.94 257.184 197.679 257.126C197.185 257.01 197.301 256.691 198.085 256.082ZM192.225 259.273C191.21 260.027 190.89 260.056 191.238 259.331C191.471 258.867 191.616 258.722 192.196 258.547C193.182 258.199 193.182 258.547 192.225 259.273ZM191.819 256.546C191.035 257.213 190.919 256.633 191.674 255.85C192.022 255.472 192.428 255.153 192.573 255.124C192.95 255.037 192.428 256.024 191.819 256.546ZM190.31 255.647C191.848 254.631 193.066 254.486 191.616 255.502C191.267 255.763 190.832 256.14 190.658 256.401C190.484 256.662 190.078 256.981 189.759 257.126C189.44 257.271 189.092 257.213 188.976 257.01C188.831 256.633 188.947 256.517 190.31 255.647ZM184.305 249.061C184.45 249.09 184.334 249.322 184.073 249.584C183.406 249.526 183.957 249.032 184.305 249.061ZM149.407 198.062C148.391 197.656 148.739 196.612 149.9 196.554C151.147 196.496 151.901 196.931 151.669 197.569C151.495 198.121 150.277 198.411 149.407 198.062ZM155.528 230.872C154.077 231.365 153.7 231.017 153.903 229.422C154.019 228.494 153.932 227.884 153.671 227.797C153.323 227.478 153.41 227.13 153.468 226.782C153.613 226.057 154.338 225.825 155.064 226.231C155.934 226.782 156.369 230.582 155.528 230.872ZM158.806 229.393C158.574 229.538 158.11 229.509 157.761 229.393C156.891 229.045 156.949 228.813 157.906 228.842C158.98 228.9 159.328 229.103 158.806 229.393ZM164.521 245.783C164.259 245.435 163.94 245.029 163.795 244.826C163.447 244.362 163.621 243.463 164.086 243.317C164.608 243.143 165.014 243.84 165.043 244.971C165.072 246.363 165.014 246.451 164.521 245.783Z" fill="#4BC291"/>
<path d="M79.901 402.291C75.4915 398.897 67.1948 399.565 65.9474 405.947C65.8603 406.353 66.0634 406.701 66.3245 406.933C62.4082 415.462 75.4915 428.284 81.9026 418.711C85.3258 413.634 84.9776 406.179 79.901 402.291ZM79.6688 416.245C77.029 420.916 71.3721 417.899 69.5155 414.243C67.7749 410.82 69.0224 407.339 70.879 404.322C72.8517 403.162 75.0273 402.843 77.5222 404.409C81.4675 406.904 81.8155 412.416 79.6688 416.245Z" fill="#F9D198"/>
<path d="M47.8734 409.921C46.1618 410.328 44.7983 411.691 44.1601 413.287C44.044 413.577 44.015 413.867 43.957 414.157C43.899 414.215 43.841 414.244 43.812 414.302C42.5066 417.464 43.812 421.496 47.2351 422.686C51.0354 423.991 54.1104 421.206 54.3715 417.464C54.6036 413.954 52.1378 408.906 47.8734 409.921ZM47.2061 420.249C46.8579 420.046 46.5969 419.756 46.3068 419.495C46.6549 417.638 46.5099 414.766 48.0184 413.519C50.4552 411.517 51.8476 415.694 51.7606 417.464C51.6736 419.959 49.5268 421.496 47.2061 420.249Z" fill="#F9D198"/>
<path d="M374.58 54.2934C368.372 47.3601 358.798 54.0613 355.143 60.0663C355.027 60.2403 354.998 60.4144 354.969 60.5885C352.735 64.0406 351.807 68.5081 352.329 72.5114C353.432 81.0692 362.541 83.7381 368.894 78.1973C374.289 73.4397 380.382 60.7625 374.58 54.2934ZM367.443 74.6291C365.558 76.6598 362.309 78.4294 359.437 77.4431C355.607 76.1376 355.317 71.5541 355.694 68.276C356.101 64.7659 357.435 61.5168 359.785 59.0799C364.078 55.6278 369.793 51.8275 373.013 58.6158C375.102 62.9962 370.402 71.4671 367.443 74.6291Z" fill="#F9D198"/>
<path d="M361.09 28.0976C358.828 28.4167 357.551 30.0992 357.174 32.0719C357 32.1299 356.826 32.2169 356.739 32.42C355.26 35.7561 355.463 41.0649 359.669 42.3704C363.759 43.6178 366.805 39.7014 367.211 36.0752C367.618 32.391 365.558 27.4884 361.09 28.0976ZM359.872 39.5854C358.741 38.9181 358.306 37.7868 358.19 36.5394C358.451 36.5394 358.712 36.4524 358.828 36.1913C359.379 34.9149 359.669 33.3773 360.365 32.1589C361.003 31.0566 362.28 30.7374 363.324 31.6077C364.369 32.507 364.572 34.2476 364.485 35.524C364.34 37.7288 362.512 41.1519 359.872 39.5854Z" fill="#F9D198"/>
<path d="M386.329 26.097C384.182 24.1533 380.12 25.2267 379.221 27.9536C379.105 28.3308 379.221 28.6789 379.424 28.9399C378.641 30.4194 378.554 32.247 379.453 33.6975C380.991 36.1923 384.356 35.7862 386.009 33.6395C387.518 31.6958 388.359 27.9246 386.329 26.097ZM384.182 31.7828C383.341 33.2333 381.542 33.3494 381.136 31.5508C380.933 30.6515 381.194 29.8102 381.484 28.9689C382.354 28.4757 383.254 27.7505 384.153 28.0116C385.458 28.4177 384.675 30.9125 384.182 31.7828Z" fill="#F9D198"/>
<path d="M438.836 345.464C432.396 344.419 428.334 349.438 428.015 355.124C425.81 359.156 425.927 365.161 429.379 367.859C435.384 372.559 443.825 367.134 446.465 361.187C449.308 354.834 446.059 346.624 438.836 345.464ZM442.955 360.404C441.215 363.798 435.877 368.062 431.903 365.567C427.928 363.073 430.22 356.226 432.193 353.122C432.338 352.919 432.338 352.687 432.28 352.484C433.527 350.424 435.239 348.887 438.082 349.177C443.419 349.757 445.16 356.139 442.955 360.404Z" fill="#F9D198"/>
<path d="M465.235 345.142C463.06 344.127 459.23 345.374 458.998 347.956C457.49 350.074 456.765 353.352 458.882 354.947C461.464 356.92 465.845 355.643 467.469 353.004C469.094 350.393 468.136 346.476 465.235 345.142ZM465.322 351.814C464.539 353.149 461.841 354.309 460.42 353.265C459.404 352.539 459.55 351.06 460.014 349.668C460.246 349.668 460.507 349.609 460.71 349.435C461.696 348.536 462.595 347.463 464.133 347.782C465.874 348.13 466.106 350.509 465.322 351.814Z" fill="#F9D198"/>
</svg>
