<svg width="16" height="16" viewBox="0 0 16 16" fill="none" xmlns="http://www.w3.org/2000/svg">
<path d="M7.52447 1.46352C7.67415 1.00287 8.32585 1.00287 8.47553 1.46353L9.68386 5.18237C9.75079 5.38838 9.94277 5.52786 10.1594 5.52786H14.0696C14.554 5.52786 14.7554 6.14767 14.3635 6.43237L11.2001 8.73075C11.0248 8.85807 10.9515 9.08375 11.0184 9.28976L12.2268 13.0086C12.3764 13.4693 11.8492 13.8523 11.4573 13.5676L8.29389 11.2693C8.11865 11.1419 7.88135 11.1419 7.70611 11.2693L4.54267 13.5676C4.15081 13.8523 3.62357 13.4693 3.77325 13.0086L4.98157 9.28976C5.04851 9.08375 4.97518 8.85807 4.79994 8.73075L1.6365 6.43237C1.24464 6.14767 1.44603 5.52786 1.93039 5.52786H5.84062C6.05723 5.52786 6.24921 5.38838 6.31614 5.18237L7.52447 1.46352Z" fill="#FFFAE7" stroke="#E4CB6F"/>
<path d="M4.54272 13.5676L7.82448 11.1833C7.92917 11.1072 8.07093 11.1072 8.17562 11.1833C8.37307 11.3267 8.64989 11.1857 8.64989 10.9416V2.07919C8.64989 2.02672 8.64163 1.97458 8.62542 1.92468L8.47558 1.46353C8.32591 1.00287 7.6742 1.00287 7.52453 1.46352L6.3162 5.18237C6.24926 5.38838 6.05728 5.52786 5.84067 5.52786H1.93044C1.44608 5.52786 1.24469 6.14767 1.63655 6.43237L4.79999 8.73075C4.97523 8.85807 5.04856 9.08375 4.98163 9.28976L3.7733 13.0086C3.62362 13.4693 4.15086 13.8523 4.54272 13.5676Z" fill="#FFDB59" stroke="#E4CB6F"/>
</svg>
