<svg width="18" height="18" viewBox="0 0 18 18" fill="none" xmlns="http://www.w3.org/2000/svg">
<path d="M8.52447 1.46353C8.67415 1.00287 9.32585 1.00287 9.47553 1.46353L11.1329 6.56434C11.1998 6.77035 11.3918 6.90983 11.6084 6.90983H16.9717C17.4561 6.90983 17.6575 7.52964 17.2656 7.81434L12.9266 10.9668C12.7514 11.0941 12.678 11.3198 12.745 11.5258L14.4023 16.6266C14.552 17.0873 14.0248 17.4704 13.6329 17.1857L9.29389 14.0332C9.11865 13.9059 8.88135 13.9059 8.70611 14.0332L4.3671 17.1857C3.97524 17.4704 3.448 17.0873 3.59768 16.6266L5.25503 11.5258C5.32197 11.3198 5.24864 11.0941 5.07339 10.9668L0.734384 7.81434C0.342527 7.52964 0.543915 6.90983 1.02828 6.90983H6.39159C6.6082 6.90983 6.80018 6.77035 6.86712 6.56434L8.52447 1.46353Z" fill="#FFDB59" stroke="#DEBA39"/>
</svg>
