<svg width="110" height="73" viewBox="0 0 110 73" fill="none" xmlns="http://www.w3.org/2000/svg">
<path d="M54.6466 72.9994C24.4661 72.9994 0 70.2911 0 66.9503C0 63.6118 24.4661 60.9023 54.6466 60.9023C84.8249 60.9023 109.291 63.6118 109.291 66.9503C109.291 70.2911 84.8249 72.9994 54.6466 72.9994Z" fill="#E7F3E0"/>
<path d="M20.0234 68.4771H89.2023V25.8516H20.0234V68.4771Z" fill="#FAB80A"/>
<path d="M89.2023 25.9541C89.2023 25.9541 65.259 0 54.6129 0C43.9667 0 20.0234 25.9541 20.0234 25.9541H89.2023Z" fill="#FAB80A"/>
<path d="M86.8295 50.1947C86.8295 51.0418 86.1364 51.735 85.2892 51.735H23.9358C23.0886 51.735 22.3955 51.0418 22.3955 50.1947V12.0794C22.3955 11.2322 23.0886 10.5391 23.9358 10.5391H85.2892C86.1364 10.5391 86.8295 11.2322 86.8295 12.0794V50.1947Z" fill="white"/>
<path d="M49.7914 29.1422C49.7914 30.0218 50.0056 30.7727 50.4346 31.3931C50.863 32.0134 51.4382 32.3239 52.1602 32.3239C53.2998 32.3239 54.2558 31.7258 55.029 30.5296C55.8016 29.3341 56.1878 28.076 56.1878 26.7559C56.1878 25.8425 55.9568 25.0892 55.4941 24.4972C55.0314 23.9045 54.4051 23.6085 53.6157 23.6085C52.5555 23.6085 51.653 24.1897 50.9081 25.3516C50.1638 26.5134 49.7914 27.7769 49.7914 29.1422ZM55.1385 32.1373C54.0783 33.3557 52.9448 33.9652 51.7372 33.9652C50.5188 33.9652 49.5489 33.4689 48.8269 32.4761C48.1049 31.4833 47.7438 30.3269 47.7438 29.0068C47.7438 27.8112 48.0495 26.6265 48.6602 25.4533C49.2709 24.28 50.0266 23.4027 50.9261 22.8215C51.8257 22.2409 52.6824 21.9503 53.4971 21.9503C54.8996 21.9503 56.0146 22.629 56.8407 23.9864L57.1981 22.2716H59.1662L57.5669 29.6819C57.3509 30.6855 57.2432 31.2607 57.2432 31.4075C57.2432 31.8828 57.4977 32.1205 58.0061 32.1205C58.2889 32.1205 58.6872 31.9737 59.2023 31.6813C59.7161 31.3882 60.2251 30.9628 60.7281 30.4051C61.2311 29.8479 61.6156 29.1999 61.8815 28.4617C62.1469 27.7234 62.2799 26.9093 62.2799 26.0194C62.2799 23.8564 61.5019 22.1548 59.9447 20.9154C58.3882 19.6765 56.5374 19.0568 54.3942 19.0568C53.1078 19.0568 51.9177 19.274 50.8239 19.7078C49.7294 20.1422 48.7679 20.7631 47.9382 21.5694C47.1091 22.3763 46.4406 23.3973 45.9328 24.6326C45.4256 25.8678 45.1717 27.1789 45.1717 28.567C45.1717 30.4394 45.5495 32.002 46.3052 33.2541C47.0609 34.5068 48.1861 35.4544 49.6813 36.097C51.1758 36.7402 52.8431 37.0621 54.6818 37.0621C58.3142 37.0621 60.9092 35.9508 62.4658 33.7282H64.4628C63.831 35.0928 62.6691 36.2607 60.9766 37.2312C59.2847 38.2011 57.1975 38.686 54.7155 38.686C52.5158 38.686 50.5922 38.328 48.9454 37.612C47.298 36.8954 45.9839 35.7865 45.0026 34.2865C44.0206 32.7865 43.5303 30.9418 43.5303 28.7529C43.5303 27.1849 43.8203 25.6675 44.4015 24.2006C44.9827 22.7343 45.7439 21.493 46.6861 20.478C47.6277 19.4629 48.7505 18.7012 50.0537 18.1934C51.3563 17.6855 52.8317 17.4316 54.4791 17.4316C57.4682 17.4316 59.7895 18.2914 61.4423 20.0098C63.0945 21.7288 63.9212 23.7433 63.9212 26.0537C63.9212 28.1049 63.2299 29.9364 61.8485 31.5477C60.4664 33.1596 58.9405 33.9652 57.2709 33.9652C55.8942 33.9652 55.1836 33.3557 55.1385 32.1373Z" fill="#3B393D"/>
<path d="M60.6089 51.7367H48.6162C50.3213 50.0778 51.3659 48.5116 51.3659 47.1639C51.3659 46.9966 51.3496 46.8257 51.3183 46.6524C51.3177 46.6518 51.3177 46.6506 51.3177 46.65C51.3177 46.6494 51.3171 46.6482 51.3171 46.647C51.3165 46.6446 51.3165 46.6428 51.3159 46.6404C50.1709 40.4341 29.499 30.2663 22.3955 26.9408V26.0918C24.6909 27.1622 28.6428 29.0569 32.8954 31.327C33.254 31.5184 33.6145 31.7127 33.9761 31.9089C34.5543 32.2223 35.1361 32.5424 35.7173 32.8673C38.0188 34.1531 40.0705 35.3721 41.881 36.5298C42.7041 37.0556 43.4796 37.5695 44.2022 38.0701C46.6306 39.7512 48.491 41.2885 49.7991 42.691C50.2955 43.2235 50.7142 43.7367 51.0518 44.2313C51.4314 44.7878 51.7112 45.3203 51.8911 45.8293C52.938 45.5044 53.8339 45.3456 54.6125 45.3456C55.3911 45.3456 56.2864 45.5044 57.3339 45.8293C57.5132 45.3203 57.793 44.7878 58.1727 44.2313C58.5102 43.7367 58.929 43.2235 59.426 42.691C60.734 41.2885 62.5944 39.7512 65.0228 38.0701C65.7448 37.5695 66.5204 37.0556 67.3435 36.5298C69.1546 35.3721 71.2057 34.1531 73.5077 32.8673C74.0889 32.5424 74.6702 32.2223 75.2484 31.9089C75.6106 31.7121 75.971 31.5184 76.3296 31.327C80.5817 29.0569 84.5341 27.1622 86.8295 26.0918V26.9402C79.5408 30.3529 57.9549 40.9738 57.8598 47.1224C57.8598 47.123 57.8598 47.123 57.8598 47.123C57.8598 47.1284 57.8592 47.1332 57.8592 47.1386C57.8592 47.1386 57.8592 47.1392 57.8592 47.1398C57.8592 47.1446 57.8592 47.1494 57.8592 47.1548C57.8592 47.1554 57.8592 47.1554 57.8592 47.1561C57.8592 47.1585 57.8592 47.1615 57.8592 47.1633C57.8592 48.5116 58.9025 50.0772 60.6089 51.7367Z" fill="#ECEAEA"/>
<path d="M20.0234 68.4771C20.0234 68.4771 51.3662 54.5518 51.3662 47.1643C51.3662 39.7763 20.0234 25.8516 20.0234 25.8516V68.4771Z" fill="#FBC81F"/>
<path d="M89.2012 68.4771C89.2012 68.4771 57.8584 54.5518 57.8584 47.1637C57.8584 39.7763 89.2012 25.8516 89.2012 25.8516V68.4771Z" fill="#FBC81F"/>
<path d="M20.0234 68.4783V68.4776C20.0674 68.4584 40.98 59.1636 48.6159 51.7383H48.6165C40.9722 59.1714 20.0234 68.4783 20.0234 68.4783Z" fill="#E4A911"/>
<path d="M48.6158 51.7381H48.6152C50.321 50.0792 51.3655 48.513 51.3655 47.1653C51.3655 46.998 51.3493 46.8277 51.318 46.6539C51.3493 46.8271 51.3655 46.998 51.3655 47.1653C51.3655 48.513 50.321 50.0792 48.6158 51.7381ZM51.3174 46.6514C51.3174 46.6508 51.3168 46.6496 51.3168 46.6484C51.3168 46.6496 51.3174 46.6508 51.3174 46.6514Z" fill="#D7D5D3"/>
<path d="M20.0234 68.4759V67.4668C21.6979 66.0541 27.3519 61.3387 33.6804 56.6757C41.2977 51.0638 47.152 47.5175 51.164 46.0801C51.2314 46.2702 51.2826 46.4567 51.3163 46.6402C51.3169 46.6426 51.3169 46.6445 51.3175 46.6469C51.3175 46.6481 51.3181 46.6493 51.3181 46.6499C51.3181 46.6505 51.3181 46.6517 51.3187 46.6523C51.35 46.8262 51.3662 46.9964 51.3662 47.1637C51.3662 48.5115 50.3217 50.0776 48.6159 51.7365C40.98 59.1618 20.0674 68.4566 20.0234 68.4759Z" fill="#E4B51C"/>
<path d="M57.8584 47.1577C57.8584 47.1571 57.8584 47.1571 57.8584 47.1565C57.8584 47.1571 57.8584 47.1571 57.8584 47.1577ZM57.8584 47.141C57.8584 47.1404 57.8584 47.1398 57.8584 47.1398C57.8584 47.1398 57.8584 47.1404 57.8584 47.141ZM57.859 47.1237C57.859 47.1237 57.859 47.1237 57.859 47.123V47.1237Z" fill="#D7D5D3"/>
<path d="M89.2012 68.4751C89.2012 68.4751 68.2536 59.1677 60.6081 51.7351C58.9017 50.0757 57.8584 48.5101 57.8584 47.1618C57.8584 47.1599 57.8584 47.1569 57.8584 47.1545C57.8584 47.1539 57.8584 47.1539 57.8584 47.1533C57.8584 47.1479 57.8584 47.1431 57.8584 47.1383C57.8584 47.1377 57.8584 47.1371 57.8584 47.1371C57.8584 47.1317 57.859 47.1269 57.859 47.1214V47.1208C57.8638 46.7863 57.933 46.4379 58.06 46.0781C62.0726 47.5161 67.9269 51.0625 75.5442 56.6743C81.8727 61.3374 87.5267 66.0527 89.2012 67.4655V68.4751Z" fill="#E4B51C"/>
<path d="M89.2023 68.4761C89.2023 68.4761 63.0948 46.1152 54.6129 46.1152C46.131 46.1152 20.0234 68.4761 20.0234 68.4761H89.2023Z" fill="#FAB80A"/>
</svg>
