<svg width="22" height="14" viewBox="0 0 22 14" fill="none" xmlns="http://www.w3.org/2000/svg">
<path d="M18.2554 7.94298C17.8998 7.49382 18.0015 7.29398 18.2554 6.89248C18.26 6.8879 21.1961 2.83073 21.4986 1.45482L21.5004 1.4539C21.6508 0.952484 21.5004 0.583984 20.7735 0.583984H18.3682C17.7558 0.583984 17.4735 0.900234 17.3223 1.25407C17.3223 1.25407 16.0976 4.18557 14.3651 6.08582C13.8059 6.6349 13.5474 6.8109 13.2422 6.8109C13.0918 6.8109 12.8581 6.6349 12.8581 6.13348V1.4539C12.8581 0.852568 12.6867 0.583984 12.1798 0.583984H8.39758C8.0135 0.583984 7.78525 0.864484 7.78525 1.12573C7.78525 1.6959 8.6515 1.82698 8.74133 3.43115V6.91173C8.74133 7.6744 8.60292 7.81465 8.29583 7.81465C7.47817 7.81465 5.49358 4.87123 4.3175 1.50248C4.08008 0.848901 3.84817 0.584901 3.23125 0.584901H0.825C0.138417 0.584901 0 0.901151 0 1.25498C0 1.88015 0.817666 4.98857 3.80233 9.09523C5.7915 11.8984 8.59283 13.4173 11.1412 13.4173C12.6729 13.4173 12.8599 13.08 12.8599 12.4997C12.8599 9.82123 12.7215 9.56823 13.4888 9.56823C13.8444 9.56823 14.4568 9.74424 15.8868 11.0963C17.5212 12.6996 17.7898 13.4173 18.7046 13.4173H21.1099C21.7956 13.4173 22.143 13.08 21.9432 12.4145C21.4858 11.0147 18.3948 8.13548 18.2554 7.94298Z" fill="#4B729F"/>
</svg>
