<svg width="307" height="513" viewBox="0 0 307 513" fill="none" xmlns="http://www.w3.org/2000/svg">
<path d="M525.923 310.625C524.366 282.474 507.718 257.356 502.494 229.653C496.663 198.705 505.344 165.461 491.624 136.518C473.34 97.9183 448.803 129.078 431.97 55.6512C424.635 23.674 391.655 -1.91843 357.356 0.113135C314.087 2.64599 326.83 21.6688 235.542 13.2523C166.099 6.84103 178.5 41.0873 158.817 60.6906C151.984 67.4976 143.62 70.4526 135.758 75.7822C89.1638 107.311 132.935 153.958 85.4964 191.95C73.782 201.343 59.007 206.937 47.873 216.936C24.7607 237.727 31.9635 268.464 24.3913 295.507C13.0726 335.848 -10.9103 372.522 5.6588 420.804C21.3308 466.475 72.3573 459.483 120.059 453.125C196.124 442.993 210.82 482.2 279.128 496.368C322.556 505.391 324.35 492.278 343.953 473.757C367.91 451.146 401.101 449.51 432.418 423.073C439.199 417.348 443.763 410.013 450.333 404.209C470.649 386.321 529.432 374.263 525.923 310.625ZM221.769 418.509C218.841 420.277 215.49 419.907 212.377 418.931C212.456 420.224 212.482 421.517 212.456 422.81C212.403 424.815 212.614 427.005 211.638 428.799C211.321 429.379 210.741 429.485 210.213 429.3C208.498 430.092 206.414 430.065 204.541 430.144C202.826 430.197 201.137 430.118 199.422 429.986C199.792 431.78 199.66 433.996 199.528 435.025C199.185 438.508 197.311 441.938 193.75 442.967C186.494 445.025 184.199 435.474 186.494 429.88C184.568 429.854 182.616 429.696 180.69 429.643C178.632 429.564 176.442 429.643 174.41 429.195C173.328 429.617 171.851 428.72 172.089 427.163C172.405 425.131 172.827 423.153 173.012 421.068C173.012 420.963 173.038 420.831 173.038 420.699C167.973 422.044 161.693 421.385 161.06 415.026C160.796 412.362 161.957 409.591 164.411 408.272C166.574 407.085 170.4 407.111 172.854 408.219C172.722 405.924 172.933 403.602 172.959 401.307C172.985 399.011 172.801 396.637 173.355 394.315C173.487 393.787 173.909 393.286 174.648 393.26C178.79 393.101 183.565 392.864 187.602 393.946C187.655 393.946 187.681 393.998 187.734 394.051C188.658 394.078 189.555 394.79 189.185 395.924C188.526 397.956 188.051 400.41 188.816 402.494C189.607 404.71 192.008 405.449 194.04 404.473C197.813 402.626 197.18 398.616 197.074 395.159C196.942 394.843 196.942 394.473 197.074 394.157V393.787C197.1 393.26 197.839 392.837 198.261 393.365C201.955 393.075 206.124 393.233 209.844 393.814C210.055 393.497 210.503 393.392 210.794 393.682C212.192 395.133 212.034 397.191 212.139 399.117C212.218 401.201 212.218 403.312 212.192 405.423C214.487 404.526 217.601 404.552 219.553 405.027C222.508 405.766 224.83 408.193 225.226 411.253C225.621 414.077 224.223 417.032 221.769 418.509Z" fill="#DEF3E9"/>
<path d="M283.402 284.162L281.107 284.848C276.358 286.404 250.871 294.161 238.444 285.402C233.88 282.183 231.584 276.985 231.584 269.941C231.584 262.791 233.959 257.435 238.629 253.952C243.695 250.232 250.871 249.019 257.915 249.019C268.179 249.019 278.231 251.551 281.107 252.343L283.402 252.844V187.465H335.141C333.426 193.823 327.675 218.334 337.305 231.315C341.236 236.618 347.225 239.283 355.14 239.283C362.976 239.283 368.807 236.644 372.474 231.447C381.603 218.519 374.559 193.876 372.448 187.438H405.243C400.072 216.936 390.415 233.848 382.078 256.142C371.894 283.502 381.498 307.96 385.851 319.279C388.911 327.22 400.415 347.747 407.011 359.33H283.376V284.162H283.402Z" fill="#DF8056"/>
<path d="M411.814 373.108C411.814 373.108 402.21 398.991 358.861 416.774C321.792 430.546 297.202 428.409 283.298 424.372V367.146H408.357C410.442 370.786 411.814 373.108 411.814 373.108Z" fill="#A2B8C8"/>
<path d="M182.274 185.179H136.788C138.186 183.649 139.585 182.119 140.904 180.536C149.505 170.378 151.273 152.701 151.536 142.226C151.774 131.066 153.7 120.011 157.288 109.431C163.304 91.8329 175.044 68.615 197.339 53.9456C208.552 46.5845 220.82 41.7035 232.64 38.5374C248.524 34.2632 264.908 32.7066 281.108 33.7355V92.9674L283.746 92.044C289.102 90.3026 313.877 82.9679 326.092 91.5954C330.657 94.8143 332.952 100.012 332.952 107.056C332.952 114.206 330.578 119.562 325.908 123.045C313.454 132.253 288.284 126 283.429 124.654L281.134 123.837V185.206H219.739C221.929 178.557 229.448 153.993 220.609 141.171C217.074 136 211.296 133.388 203.486 133.388C195.571 133.388 189.476 136.105 185.413 141.461C175.546 154.389 180.717 178.9 182.274 185.179Z" fill="#B4EFA8"/>
<path d="M288.943 83.7494V27.9475C297.096 27.024 332.952 36.3111 352.608 47.5243C404.083 76.8632 416.272 125.33 413.555 159.418C412.974 166.621 412.183 173.191 411.18 179.206H374.876L375.588 181.502C377.145 186.251 384.902 211.738 376.142 224.165C372.923 228.729 367.726 231.024 360.681 231.024C353.558 231.024 348.175 228.65 344.693 223.98C335.485 211.527 341.738 186.356 343.083 181.502L343.716 179.206H288.943V121.056C289.841 121.294 291.16 120.713 292.716 121.056C297.386 122.112 304.563 124.328 312.029 124.328C319.522 124.328 327.2 123.009 332.794 118.893C338.097 114.962 340.788 108.972 340.788 101.057C340.788 93.2212 338.149 87.3904 332.925 83.723C321.844 75.9134 302.188 81.111 292.716 83.7494C291.16 84.1979 289.867 83.4592 288.943 83.7494Z" fill="#4EA66C"/>
<path d="M292.742 83.7541V27.9521C314.957 29.6671 336.75 36.3158 356.406 47.529C407.881 76.8679 420.071 125.335 417.353 159.423C416.773 166.626 415.981 173.196 414.979 179.211H378.674L379.387 181.506C380.943 186.256 388.7 211.742 379.941 224.169C376.722 228.734 371.524 231.029 364.48 231.029C357.356 231.029 351.974 228.654 348.491 223.985C339.283 211.531 345.536 186.361 346.882 181.506L347.515 179.211H292.742V121.061C296.357 122.064 305.908 124.333 315.828 124.333C323.321 124.333 330.999 123.013 336.592 118.897C341.895 114.966 344.586 108.977 344.586 101.062C344.586 93.2259 341.948 87.3951 336.724 83.7277C323.796 74.5989 299.18 81.6434 292.742 83.7541Z" fill="url(#paint0_linear)"/>
<path d="M248.683 299.6C256.915 299.6 264.856 296.513 270.212 295.062C272.006 294.587 272.85 294.798 274.882 295.062V367.116H252.535C249.554 355.085 244.329 341.418 217.893 347.17C189.662 353.265 159.69 350.653 145.152 343.978C130.588 337.276 135.258 316.618 137.29 300.629C139.322 284.614 137 283.743 132.91 277.939C128.821 272.108 135.813 268.915 135.813 268.915C127.106 264.826 130.879 258.441 130.879 258.441C134.546 254.457 135.153 249.18 134.915 245.091C134.704 241.555 132.198 238.548 128.742 237.888C111.46 234.432 107.212 225.725 106.131 220.923C105.154 216.491 116.948 207.151 128.346 195.278H179.425L178.422 192.983C177.182 188.102 171.563 163.063 181.008 150.584C184.596 145.861 190.058 143.434 197.234 143.434C204.226 143.434 209.344 145.729 212.458 150.241C220.716 162.193 213.17 186.466 211.139 192.349L209.925 195.278H274.856V257.755C273.774 257.465 272.191 258.177 270.186 257.755C260.503 255.671 241.77 251.924 231.006 259.919C225.702 263.85 223.011 269.839 223.011 277.754C223.011 285.59 225.65 291.421 230.874 295.088C235.702 298.465 242.166 299.6 248.683 299.6Z" fill="#2F5571"/>
<path d="M143.434 506.583C143.434 510.699 114.043 510.356 79.0048 510.356C43.967 510.356 15.8682 510.699 15.8682 506.583C15.8682 503.548 44.2573 502.915 79.2951 502.915C114.333 502.915 143.434 504.868 143.434 506.583Z" fill="#E6E6E6"/>
<path d="M23.4395 391.7C23.1756 391.859 22.8854 391.991 22.5688 392.043C22.1731 392.096 21.7773 391.991 21.4079 391.832C19.7457 391.12 18.7168 389.326 18.5321 387.505C18.3474 385.711 18.875 383.891 19.561 382.202C20.4845 379.88 21.9356 377.242 24.3365 376.16C26.3417 375.263 28.769 375.738 28.9273 378.165C29.0592 380.223 27.5553 382.888 27.054 384.893C26.4736 387.4 25.8668 390.276 23.4395 391.7Z" fill="#FFA017"/>
<path d="M59.2452 271.917C59.2452 271.917 46.4489 271.627 40.2223 286.771C33.9957 301.916 28.4024 348.958 18.3237 376.846C18.3237 376.846 21.2259 384.761 32.228 379.986L56.2638 295.689L59.2452 271.917Z" fill="white"/>
<path d="M244.008 299.6C254.984 299.6 266.145 296.381 270.208 295.062V367.116H247.86C244.879 355.085 239.655 341.418 213.218 347.17C184.988 353.265 155.015 350.653 140.478 343.978C125.914 337.276 130.584 316.618 132.616 300.629C134.647 284.614 132.325 283.743 128.236 277.939C124.146 272.108 131.138 268.915 131.138 268.915C122.431 264.826 126.204 258.441 126.204 258.441C129.872 254.457 130.478 249.18 130.241 245.091C130.03 241.555 127.523 238.548 124.067 237.888C106.786 234.432 102.538 225.725 101.456 220.923C100.48 216.491 112.273 207.151 123.671 195.278H174.751L173.748 192.983C172.508 188.102 166.888 163.063 176.334 150.584C179.922 145.861 185.383 143.434 192.56 143.434C199.551 143.434 204.67 145.729 207.783 150.241C216.041 162.193 208.496 186.466 206.464 192.349L205.25 195.278H270.181V257.755C263.849 256.04 239.338 250.288 226.331 259.919C221.028 263.85 218.337 269.839 218.337 277.754C218.337 285.59 220.975 291.421 226.199 295.088C231.027 298.465 237.491 299.6 244.008 299.6Z" fill="#406784"/>
<path d="M50.1149 492.648C49.983 493.598 49.9039 494.653 50.326 495.524C50.7218 496.316 51.5133 496.843 52.2784 497.318C53.0963 497.819 54.0198 498.242 55.0223 498.558C57.3969 499.376 60.0353 499.772 62.3043 500.009C62.8584 500.062 63.4388 500.141 63.8082 500.511C64.3622 501.065 64.2567 502.041 63.7554 502.621C61.3281 505.524 56.6845 505.286 53.281 505.049C50.3524 504.838 47.4238 504.6 44.4952 504.495C42.5956 504.442 39.5614 505.524 38.2158 503.677C37.3979 502.595 37.7673 501.091 38.1367 499.772C38.3214 499.218 38.4532 498.637 38.5851 498.057C40.2473 491.487 40.5904 484.601 40.9598 477.873C41.7249 463.837 40.0363 449.537 44.2841 435.923C44.8645 434.023 45.8407 432.176 46.5003 430.303C46.9488 429.01 47.2391 427.691 47.1599 426.319C46.9752 422.704 45.9199 419.169 45.9727 415.528C45.9991 413.708 46.7642 411.782 48.3472 410.884C49.2179 410.383 50.2469 410.225 51.2495 410.119C55.339 409.671 59.9561 410.067 62.8584 412.995C65.5759 415.739 66.0772 419.908 65.9189 423.76C65.5759 431.781 62.832 439.537 60.5366 447.241C56.8956 459.484 54.2572 471.99 51.6188 484.469C51.0384 487.16 50.4579 489.904 50.1149 492.648Z" fill="#F9A124"/>
<path d="M120.905 496.184C119.665 499.746 115.259 501.171 111.987 502.147C109.19 502.991 106.341 503.809 103.57 504.785C101.803 505.392 99.3491 507.503 97.423 506.263C96.2885 505.524 96.1302 503.967 95.9983 502.622C95.9719 502.279 95.9192 501.936 95.8664 501.619C95.1276 494.627 92.9642 487.82 90.8271 481.172C86.5529 467.769 79.9041 455.025 79.0598 440.804C78.9279 438.799 79.1918 436.741 79.1126 434.736C78.8224 425.713 72.5694 414.842 76.9491 406.057C78.6113 402.732 81.962 400.173 85.6558 399.804C89.3759 399.434 93.3071 401.413 94.9429 404.764C95.7872 406.531 95.9983 408.537 96.1566 410.489C97.08 422.204 97.423 433.892 98.2409 445.606C99.1644 458.349 101.17 470.987 103.148 483.599C103.597 486.343 104.019 489.06 104.652 491.751C104.89 492.701 105.18 493.704 105.892 494.363C106.552 494.944 107.475 495.181 108.346 495.34C109.058 495.498 109.85 495.524 110.641 495.524C113.332 495.551 116.287 494.918 118.688 494.258C119.216 494.126 119.77 493.994 120.272 494.179C120.931 494.495 121.142 495.445 120.905 496.184Z" fill="#F9A124"/>
<path d="M54.1781 274.613C50.8273 279.362 50.9856 285.905 50.0622 291.63C48.6638 300.1 50.0622 325.296 49.9303 330.731C49.772 337.512 46.7115 346.219 45.234 352.841C43.2024 362.075 41.6721 371.442 40.1682 380.782C38.1367 393.235 36.1315 405.688 34.1 418.141C33.968 418.88 33.8624 419.671 34.2054 420.331C34.5484 421.017 35.2872 421.36 35.9996 421.677C48.5583 427.138 48.9541 421.782 69.1378 422.89C88.8465 423.972 104.123 428.642 107.579 422.336C109.109 419.566 100.218 352.102 99.9541 334.188C99.6903 316.959 102.672 313.318 101.458 296.142C101.141 291.498 99.9014 287.013 99.2154 282.422C97.3158 269.521 86.2345 271.051 75.9712 269.521C67.2909 268.201 59.534 266.988 54.1781 274.613Z" fill="white"/>
<path d="M63.7831 502.618C61.3558 505.52 56.7122 505.283 53.3087 505.045C50.3801 504.834 47.4514 504.597 44.5228 504.491C42.6231 504.438 39.589 505.52 38.2434 503.673C37.4255 502.592 37.7949 501.088 38.1643 499.768C38.3489 499.214 38.4809 498.634 38.6128 498.053C42.544 499.557 47.0821 499.848 51.1716 499.294C52.4644 499.109 53.7308 498.845 55.05 498.555C57.4246 499.373 60.0629 499.768 62.3319 500.006C62.886 500.059 63.4665 500.138 63.8358 500.507C64.3899 501.035 64.258 502.011 63.7831 502.618Z" fill="#014769"/>
<path d="M120.902 496.191C119.662 499.753 115.256 501.178 111.985 502.154C109.188 502.998 106.338 503.816 103.568 504.792C101.8 505.399 99.3467 507.51 97.4207 506.27C96.2861 505.531 96.1278 503.974 95.9959 502.629C95.9695 502.286 95.9168 501.943 95.864 501.626C99.848 501.336 103.832 499.858 107.156 497.853C108.344 497.141 109.478 496.323 110.613 495.505C113.304 495.532 116.259 494.898 118.66 494.239C119.187 494.107 119.741 493.975 120.243 494.16C120.929 494.503 121.14 495.452 120.902 496.191Z" fill="#014769"/>
<path d="M168.819 234.218C169.109 234.139 169.399 234.086 169.689 234.113C170.059 234.166 170.402 234.324 170.692 234.561C172.064 235.564 172.565 237.437 172.328 239.126C172.09 240.814 171.22 242.318 170.217 243.69C168.845 245.59 166.945 247.674 164.544 248.096C162.539 248.466 160.429 247.489 160.824 245.273C161.167 243.374 163.12 241.289 164.017 239.601C165.125 237.437 166.312 234.983 168.819 234.218Z" fill="#FFA017"/>
<path d="M161.534 242.425C160.558 242.716 159.582 243.454 158.421 244.853C155.914 247.887 153.302 250.789 150.374 253.427C144.358 258.81 137.34 263.216 129.689 265.854C117.684 269.97 104.809 269.522 92.329 271.052C89.1102 271.448 85.7331 272.16 83.4113 274.429C78.372 279.336 84.0181 287.436 88.8992 289.996C94.0176 292.66 100.719 292.792 106.233 291.579C118.766 288.808 131.984 282.634 142.775 275.616C154.067 268.282 163.566 258.177 169.977 246.357C170.135 246.04 170.32 245.723 170.241 245.38C170.135 244.879 169.581 244.615 169.08 244.431C165.597 243.191 163.592 241.819 161.534 242.425Z" fill="white"/>
<path d="M80.06 133.668C80.0336 135.594 79.9017 137.547 79.8225 139.473C79.7434 141.531 79.8226 143.72 79.3741 145.752C79.7962 146.86 78.8991 148.338 77.3424 148.074C75.3109 147.757 73.3321 147.361 71.2742 147.177C71.1423 147.15 71.0103 147.15 70.9048 147.124C72.224 152.19 71.5644 158.495 65.2058 159.102C62.5411 159.366 59.7708 158.205 58.4516 155.778C57.2907 153.588 57.2907 149.789 58.3988 147.335C56.1298 147.441 53.7817 147.229 51.4863 147.203C49.1909 147.177 46.8163 147.361 44.5209 146.807C43.9668 146.702 43.4655 146.28 43.4391 145.515C43.2808 141.399 43.0434 136.597 44.1251 132.586C44.1251 132.507 44.1779 132.481 44.2307 132.428C44.2571 131.505 44.9694 130.608 46.1039 130.977C48.1355 131.663 50.5892 132.111 52.6735 131.373C54.9161 130.555 55.6549 128.18 54.6523 126.122C52.8054 122.349 48.8214 123.009 45.3388 123.088C45.0222 123.247 44.6529 123.247 44.3362 123.088C44.2307 123.088 44.0987 123.115 43.9668 123.088C43.4392 123.088 43.017 122.349 43.5447 121.901C43.2545 118.207 43.4128 114.039 43.9932 110.318C43.6766 110.107 43.571 109.685 43.8613 109.395C45.3124 107.97 47.3703 108.129 49.2963 108.049C51.4071 107.944 53.4914 107.944 55.6021 107.97C54.7051 105.675 54.7315 102.588 55.2064 100.636C55.9451 97.6541 58.3724 95.3587 61.433 94.9366C64.256 94.5408 67.211 95.9392 68.6885 98.4193C70.4563 101.348 70.0869 104.699 69.1107 107.812C70.4035 107.706 71.6963 107.706 73.0155 107.733C75.0207 107.759 77.2105 107.548 79.0046 108.524C79.5587 108.841 79.6642 109.448 79.4795 109.949C80.2711 111.664 80.2447 113.775 80.3238 115.622C80.3766 117.337 80.2975 119.051 80.1655 120.74C81.9596 120.371 84.1759 120.529 85.2049 120.635C88.6876 120.977 92.1175 122.851 93.1465 126.413C95.2044 133.668 85.6534 135.964 80.06 133.668Z" fill="#DEF3E9"/>
<path d="M40.4321 379.042C40.4848 378.805 40.5112 378.541 40.564 378.304C40.6167 378.541 40.8015 378.884 41.0389 379.069C40.9334 379.122 40.7223 379.122 40.4321 379.042ZM41.9096 376.087C42.4636 375.903 42.5955 375.454 42.147 375.322C41.9623 375.27 41.7249 375.243 41.6194 375.296C41.3292 375.481 41.1445 375.349 41.0389 375.111C40.8806 376.087 40.7223 377.064 40.564 378.04C40.6695 377.934 40.7487 377.618 40.7487 377.301C40.8014 376.694 41.1181 376.351 41.9096 376.087ZM64.7316 347.751C64.1512 347.672 64.0985 347.619 64.1249 347.197C64.1512 346.696 63.7818 346.353 63.4388 346.59C63.0959 346.828 63.0959 346.933 63.5444 347.25C63.7555 347.408 63.9137 347.619 63.8873 347.725C63.8609 347.83 63.9929 348.015 64.204 348.173C64.4151 348.305 64.6789 348.622 64.7845 348.859C64.1776 348.648 63.7818 348.622 62.7528 348.806C62.9111 349.176 62.9376 349.413 62.8848 349.598C62.832 349.756 62.9112 349.994 63.0431 350.073C63.4389 350.337 63.6236 350.363 63.7027 350.152C63.7291 350.046 63.9665 349.888 64.204 349.809C64.6261 349.651 64.6525 349.677 64.6789 349.967C64.758 351.155 65.1538 351.155 65.4704 349.994C65.8661 348.622 65.6023 347.883 64.7316 347.751ZM65.9453 316.829C66.0244 316.565 65.787 316.143 65.5232 316.09C65.3385 316.038 65.3121 316.143 65.3385 316.618C65.3649 317.014 65.8397 317.199 65.9453 316.829ZM57.7135 373.027C57.6344 372.71 57.5816 372.578 57.6344 372.446C57.7399 372.156 57.3969 372.103 57.2122 372.367C56.9747 372.684 57.3705 373.159 57.7135 373.027ZM66.3938 329.388C66.3674 328.992 66.3147 328.992 65.7606 329.282C65.3649 329.493 65.3385 329.546 65.5495 329.81C65.8398 330.153 66.4202 329.863 66.3938 329.388ZM58.98 381.443C58.9272 381.602 58.9535 381.786 59.0327 381.865C59.1119 381.945 59.2438 381.865 59.323 381.654C59.4021 381.47 59.3757 381.259 59.2701 381.232C59.1646 381.206 59.0327 381.285 58.98 381.443ZM57.0276 370.494C56.6054 370.204 56.4207 370.23 56.3943 370.283C56.7373 370.573 56.922 370.547 57.0276 370.494ZM47.3447 415.505C45.0493 419.594 43.9675 421.151 41.6457 423.605C40.0099 423.209 38.1895 422.602 35.9996 421.652C35.3136 421.336 34.5748 420.993 34.2054 420.307C33.8624 419.647 33.968 418.856 34.1 418.117C35.5511 409.199 37.0021 400.281 38.4269 391.39C38.8226 390.73 39.2448 389.649 39.1129 389.385C39.0074 389.2 39.0601 389.095 39.2976 389.016C39.535 388.91 39.5878 388.804 39.535 388.461C39.4823 388.224 39.5878 387.855 39.7461 387.644C39.9308 387.406 39.9836 387.01 39.9572 386.641C39.8517 385.876 39.9571 385.559 40.4848 385.295C40.8542 385.084 40.907 384.979 40.9334 384.161C40.9598 383.633 41.0917 383.079 41.25 382.842C41.461 382.551 41.4874 382.393 41.3027 382.208C40.9861 381.918 41.0653 381.707 41.5666 381.602C41.8832 381.549 41.9096 381.496 41.6985 381.021C41.9624 380.863 41.7776 380.23 41.4083 380.098C40.9861 379.939 41.1709 379.148 41.6194 379.148C41.9888 379.174 42.6219 378.093 42.49 377.644C42.4373 377.459 42.5164 376.905 42.6483 376.457C43.8884 372.473 44.2313 371.206 44.1258 371.101C44.0467 371.048 44.0731 370.784 44.1522 370.573C44.2314 370.336 44.2313 369.94 44.1786 369.676C44.0994 369.36 44.1522 369.043 44.3105 368.753C44.4952 368.462 44.5216 368.251 44.3633 368.067C44.205 367.856 44.205 367.776 44.4161 367.671C44.6799 367.539 44.759 366.959 44.5216 366.879C44.5216 366.879 44.205 366.879 43.9675 366.932C43.5454 367.011 43.5454 367.011 43.6773 367.565C43.0705 367.486 42.3053 369.359 42.2526 370.969C42.2262 371.998 41.9624 372.842 41.4347 373.581C41.4083 373.634 41.3819 373.686 41.3291 373.739C42.3581 367.539 43.4662 361.339 44.8381 355.27C44.9965 355.323 45.1548 355.271 45.1812 355.165C45.2603 354.954 45.0492 354.716 44.8646 354.796C44.9965 354.136 45.1284 353.476 45.2603 352.817C46.7378 346.194 49.7983 337.488 49.9566 330.707C50.0886 325.272 48.6903 300.102 50.0886 291.606C50.1414 291.237 50.1941 290.867 50.2469 290.524C50.5899 290.287 50.7746 290.049 51.0648 289.469C51.3022 289.021 51.355 288.968 51.7508 289.126C52.3312 289.364 52.727 289.284 52.9644 288.915C53.2019 288.519 53.8351 288.598 53.8879 289.047C53.9407 289.627 53.2283 290.841 52.6478 291.131C52.1202 291.395 51.9355 291.606 50.9329 293.084C50.3525 293.928 49.8247 295.564 50.2205 295.379C50.1941 295.168 50.2732 295.089 50.6162 295.115C50.9856 295.142 51.0912 295.062 51.2231 294.588C51.5925 293.347 52.9644 292.714 53.5449 293.506C53.9406 294.06 53.624 294.614 52.727 295.062C52.0146 295.405 51.6716 295.854 51.0121 297.252C50.5371 298.229 50.6163 298.466 51.5661 298.809C51.9618 298.941 52.2257 299.152 52.3048 299.363C52.3576 299.548 52.6742 299.917 52.9644 300.155C53.5713 300.656 53.5449 300.867 52.9117 300.972C51.9883 301.104 52.9908 302.371 54.0725 302.45C54.2044 302.45 54.653 302.582 55.0751 302.74C55.6556 302.951 55.9458 302.978 56.368 302.872C56.6846 302.793 57.054 302.793 57.265 302.925C58.0038 303.268 58.9008 303.189 60.0881 302.687C61.0643 302.265 61.3545 302.212 61.9614 302.344C62.8584 302.529 63.1222 302.318 63.3333 301.263C63.4916 300.471 63.4916 300.471 62.8848 300.392C62.3044 300.313 62.2779 300.286 62.3307 299.627C62.3571 299.073 62.4363 298.914 62.8057 298.703C63.0431 298.571 63.307 298.387 63.3861 298.281C63.4653 298.149 63.5971 298.255 63.7554 298.624C63.9401 299.02 64.1248 299.178 64.4414 299.205C64.89 299.257 64.8899 299.284 64.6525 300.471C64.4678 301.474 64.3359 301.738 64.0193 301.896C63.5972 302.107 63.9137 302.582 64.5733 302.714C64.758 302.74 64.9691 302.898 65.0746 303.057C65.1802 303.215 65.4176 303.321 65.6551 303.347C65.8662 303.347 66.1827 303.453 66.3674 303.584C66.6576 303.796 66.6313 303.822 65.9981 304.033C65.6023 304.165 65.1538 304.218 64.9691 304.191C64.7844 304.165 64.5733 304.165 64.4942 304.244C64.415 304.297 64.0984 304.323 63.8082 304.244C63.2541 304.138 62.5945 304.323 62.5154 304.64C62.489 304.745 62.1196 304.824 61.6711 304.851C60.9587 304.877 60.5366 305.194 61.1962 305.22C61.3281 305.22 61.5128 305.352 61.5919 305.484C61.8294 305.88 62.5682 305.827 62.7528 305.405C62.8848 305.062 62.9639 305.062 63.9929 305.247C64.5997 305.352 65.0482 305.537 65.0482 305.537C65.0218 305.616 65.7343 305.853 67.0007 306.144C67.6867 306.302 67.713 306.355 67.1326 306.882C66.8951 307.12 66.5785 307.252 66.3674 307.199C65.787 307.067 65.8662 307.384 66.6841 308.334C67.3701 309.151 67.5811 309.864 66.8424 309.943C66.7896 310.101 66.5785 310.128 66.1564 310.022C65.3913 309.864 65.2594 310.048 64.7845 312.027C64.547 313.003 64.5469 313.346 64.7316 313.637C64.9955 314.006 64.758 314.191 64.3095 313.927C63.9929 313.742 63.8873 313.927 64.1512 314.244C64.2831 314.402 64.2304 314.507 63.9401 314.666C63.3861 314.956 63.4124 315.141 64.072 315.484C64.5997 315.747 64.6525 315.853 64.5469 316.275C64.4678 316.539 64.5206 316.856 64.6525 316.987C64.9163 317.278 64.89 317.489 64.5997 317.436C64.4942 317.41 64.3886 317.251 64.3886 317.093C64.3622 316.776 63.8082 316.407 63.6236 316.803C63.7555 316.935 63.8082 317.146 63.7819 317.541C63.8874 317.568 64.0985 317.779 64.2832 317.99C64.5998 318.412 64.5997 318.412 64.9955 318.148C65.6815 317.726 66.0245 318.57 65.4176 319.23C65.1802 319.494 64.9427 319.626 64.8899 319.573C64.8372 319.52 64.5997 319.573 64.3359 319.731C64.0721 319.89 63.7027 319.969 63.4916 319.916C63.2277 319.863 63.1223 319.916 63.1223 320.101C63.1223 320.285 63.2805 320.417 63.6763 320.497C64.415 320.681 64.415 321.235 63.6499 321.341C63.2541 321.394 63.1486 321.473 63.5444 321.789C63.7555 321.578 64.1776 321.71 64.2303 322C64.2567 322.132 64.1776 322.343 64.0457 322.449C62.9376 323.451 62.6737 324.349 63.4388 324.428C63.6499 324.454 63.7291 324.612 63.7027 324.982C63.6499 325.404 63.729 325.509 64.072 325.562C64.6789 325.641 64.89 326.327 64.1776 326.618C64.547 326.697 64.7053 327.647 64.4414 328.227C64.2304 328.702 64.2303 328.834 64.5733 329.177C65.0482 329.678 65.0219 329.757 64.4414 329.81C64.1248 329.836 63.9665 329.942 63.9665 330.153C63.9665 330.311 63.8873 330.707 63.8082 331.024C63.729 331.34 63.7554 331.815 63.8873 332.079C64.1248 332.554 64.0984 332.58 63.6499 332.923C63.386 333.108 63.2541 333.319 63.3333 333.398C63.5971 333.662 63.8873 334.454 63.8082 334.744C63.7554 334.902 63.8082 335.087 63.8873 335.166C63.9929 335.245 63.9665 335.456 63.8346 335.641C63.7027 335.826 63.6763 336.089 63.7819 336.221C63.9138 336.432 63.861 336.564 63.4916 336.881C63.0431 337.25 63.0431 337.277 63.2541 337.831C63.5707 338.649 63.4125 339.044 62.5418 339.282C63.2542 339.572 63.518 341.234 63.0167 342.237C62.8056 342.659 62.7792 342.896 62.9375 343.134C63.1222 343.398 63.0959 343.503 62.8057 343.794C62.4627 344.11 62.6209 344.559 63.1486 344.691C63.3597 344.743 63.1486 345.271 62.9111 345.271C62.7792 345.271 62.7265 345.508 62.7792 345.983C62.8848 346.933 62.832 347.065 62.3835 346.96C61.935 346.828 61.8294 347.065 62.1197 347.514C62.2252 347.698 62.278 348.252 62.1988 348.727C62.1196 349.229 62.1196 349.73 62.1724 349.862C62.2252 349.994 62.2516 350.152 62.2252 350.231C62.1988 350.31 62.3834 350.442 62.6473 350.495C62.9111 350.574 63.2278 350.785 63.3861 350.97C63.6499 351.287 63.8082 351.366 64.758 351.682C65.0483 351.788 65.101 351.946 65.0219 352.606C64.9691 353.054 64.9691 353.529 65.0482 353.661C65.3121 354.11 64.8108 356.299 64.415 356.458C64.1512 356.563 63.7291 356.062 63.7819 355.693C63.8346 355.218 63.4125 355.271 63.0958 355.772C62.9375 356.036 62.8584 356.379 62.9375 356.642C62.9903 356.88 63.0694 357.223 63.0694 357.355C63.0958 357.751 63.3333 357.777 63.729 357.434C64.1512 357.065 64.415 357.144 64.4942 357.619C64.7316 359.386 64.6261 360.442 63.9665 363.344C63.7818 364.188 63.5444 365.349 63.4653 365.93C63.2806 367.196 61.7766 373.581 61.3545 374.979C61.1698 375.533 60.7213 376.958 60.3519 378.198C59.5076 380.889 59.3494 380.573 60.0881 377.644C60.3783 376.483 60.563 375.454 60.5102 375.349C60.4574 375.243 60.4839 374.953 60.563 374.742C61.0115 373.528 61.2226 372.684 61.1171 372.578C61.0379 372.499 61.1434 371.998 61.3281 371.444C61.5655 370.811 61.6448 370.257 61.5656 369.94C61.4073 369.359 61.4864 368.99 61.8822 368.489C62.1197 368.199 62.0933 368.04 61.7239 367.539C61.3282 366.985 61.3282 366.906 61.6448 366.563C62.1461 366.035 62.3043 365.507 62.0932 365.085C61.9877 364.874 62.0141 364.584 62.1461 364.399C62.3835 364.004 62.0141 363.634 61.5128 363.766C61.0907 363.872 61.0115 363.529 61.3809 363.265C61.5392 363.133 61.8294 363.08 62.0405 363.159C62.5418 363.318 62.8584 362.948 62.5154 362.579C62.2779 362.315 62.1988 362.315 62.0141 362.447C61.7239 362.658 61.3281 362.552 60.8796 362.104C60.6158 361.866 60.4575 361.787 60.3256 361.866C60.0881 362.025 59.7451 363.845 59.877 364.215C60.0353 364.663 58.505 365.164 57.7135 364.927C57.2914 364.795 57.1595 364.821 57.1859 365.006C57.2123 365.138 57.1859 365.323 57.1859 365.323C57.1331 365.455 57.7399 365.534 58.3204 365.455C59.1646 365.349 59.4285 365.692 59.1647 366.457C59.0591 366.774 59.0327 367.117 59.1118 367.249C59.4021 367.671 59.1382 367.829 58.5314 367.645C58.2148 367.539 57.7663 367.433 57.5816 367.381C57.3442 367.354 57.1859 367.17 57.1067 366.932C57.054 366.721 56.9748 366.51 56.9484 366.457C56.8165 366.273 56.1569 368.014 55.9458 369.148C55.8403 369.65 55.682 370.019 55.4709 370.177C54.9696 370.547 54.8904 371.233 55.339 371.417C55.7347 371.602 55.6292 372.235 54.2045 375.824C53.967 376.457 53.6504 376.826 53.4393 376.747C53.1755 376.668 53.0172 375.533 53.2019 375.164C53.281 375.006 53.281 374.847 53.1755 374.795C52.8852 374.689 52.3048 375.296 52.2784 375.771C52.252 375.982 52.1202 376.193 51.9882 376.246C51.8036 376.298 51.7771 376.404 51.8827 376.615C51.9882 376.8 51.8827 377.169 51.6452 377.644C51.3286 378.277 51.3023 378.515 51.4869 378.937C51.698 379.438 51.698 379.465 51.2758 379.623C50.9328 379.755 50.8801 379.834 51.0384 379.992C51.1703 380.124 51.0912 380.573 50.7218 381.549C50.4579 382.314 50.2469 383.026 50.326 383.132C50.4052 383.29 50.2996 383.501 50.0622 383.739C49.5345 384.266 49.5345 384.266 50.2996 384.504C50.8537 384.662 51.012 384.662 51.2231 384.425C51.3814 384.24 51.3814 384.425 51.1703 385.005C50.9593 385.559 50.8009 385.823 50.6954 385.744C50.6162 385.665 50.5899 385.48 50.6426 385.322C50.8009 384.926 50.0886 384.741 49.6929 385.058C49.4554 385.243 49.4026 385.427 49.4553 385.665C49.5345 385.929 49.4553 386.034 49.2179 386.087C48.954 386.14 48.9013 386.219 49.0069 386.43C49.086 386.588 49.0068 386.878 48.8221 387.195C48.5583 387.591 48.5583 387.723 48.743 387.802C48.9013 387.855 49.0332 388.039 49.086 388.198C49.1651 388.488 49.1916 388.488 49.6137 388.382C50.5899 388.118 50.6954 388.514 50.0095 389.807C49.5873 390.599 49.5609 390.757 49.7983 391.073C50.0622 391.416 49.9302 391.839 49.4553 392.05C49.1123 392.208 48.6902 393.791 48.7957 394.53C48.9013 395.348 49.1388 395.48 49.8247 395.137C50.2469 394.925 50.3524 394.925 50.5371 395.163C50.7218 395.4 50.6954 395.611 50.326 396.588C50.1677 397.036 50.3524 397.511 50.7218 397.538C51.355 397.617 51.7772 398.461 51.5661 399.279C51.4342 399.78 51.3023 400.018 51.1703 399.727C51.2759 399.648 51.3022 399.49 50.9856 399.49C50.8273 399.886 50.2996 399.437 50.3788 398.962C50.4579 398.408 49.983 398.118 49.4553 398.382C49.1651 398.514 48.9805 398.514 48.6638 398.329C48.3472 398.144 48.1626 398.144 47.7668 398.408C47.503 398.566 47.1336 398.672 46.9753 398.619C46.4476 398.435 46.3421 398.672 46.8434 398.909C47.3183 399.147 47.3447 399.279 47.1864 400.624C47.16 400.862 47.2391 401.178 47.3974 401.363C47.5557 401.548 47.6613 401.864 47.6349 402.102C47.6085 402.656 47.8723 402.841 48.3208 402.55C48.6111 402.339 48.6375 402.287 48.3737 401.996C48.0043 401.574 48.057 401.39 48.5583 401.548C48.8749 401.653 48.9277 401.627 48.9804 401.258C49.0068 400.967 49.1387 400.809 49.3762 400.756C49.5609 400.704 49.7984 400.466 49.9039 400.202C50.2205 399.384 50.8537 400.281 50.5899 401.152C50.4052 401.759 50.4316 401.838 50.8538 402.049C51.1704 402.207 51.3022 402.339 51.2231 402.524C51.0912 402.814 50.669 402.814 50.3788 402.524C50.0622 402.181 49.7456 402.128 49.64 402.392C49.5081 402.709 49.7719 403.316 50.1149 403.5C50.5898 403.738 50.6427 404.002 50.2733 404.213C49.9831 404.371 49.9567 404.476 50.0886 404.872C50.2205 405.242 50.1678 405.453 49.8512 405.822C49.6401 406.086 49.5082 406.403 49.5346 406.534C49.6665 406.957 49.429 407.22 49.0333 407.168C48.6903 407.115 48.6111 407.194 48.4264 407.722C48.2681 408.197 48.2945 408.355 48.532 408.381C48.6903 408.408 49.0332 408.513 49.2707 408.619C49.7192 408.803 49.7456 408.803 50.3525 407.669C50.6954 407.036 51.0648 406.06 51.1967 405.505C51.3286 404.951 51.5661 404.397 51.698 404.265C51.8563 404.133 51.9355 403.922 51.9091 403.764C51.8036 403.263 52.1201 402.287 52.4631 401.996C52.7534 401.785 52.8061 401.601 52.727 401.099C52.6742 400.704 52.7798 400.123 53.07 399.516C53.2811 398.989 53.624 398.144 53.8351 397.643C54.4683 395.981 55.1279 394.609 55.2334 394.662C55.4709 394.741 55.3654 395.242 54.8113 397.168C54.4947 398.25 53.9934 399.965 53.6768 400.994C52.6742 404.107 49.1388 412.418 47.3447 415.505ZM62.0932 352.5C62.1724 352.527 62.3307 352.474 62.4362 352.368C62.7001 352.104 62.7001 352.078 62.3835 351.973C62.2252 351.92 62.0669 352.025 62.0141 352.184C61.9877 352.342 62.0141 352.474 62.0932 352.5ZM61.7766 354.664C62.1988 355.165 62.8584 355.165 63.0167 354.69C63.0958 354.453 63.386 354.532 63.4916 354.796C63.5444 354.901 63.7027 354.901 63.9137 354.769C64.2303 354.585 64.2567 354.505 64.072 354.11C63.861 353.582 63.518 353.503 63.2806 353.925C63.0695 354.294 62.9111 354.242 62.5945 353.767C62.3307 353.344 62.0669 353.213 61.6448 353.371C61.2754 353.503 61.3281 354.11 61.7766 354.664ZM61.1698 356.642C61.5392 357.117 61.7239 357.012 61.9349 356.194C62.1196 355.429 62.0405 355.218 61.5656 355.218C61.0643 355.218 60.8004 356.168 61.1698 356.642ZM61.4336 357.883C61.0379 357.988 61.0643 357.988 61.0906 358.305C61.1434 358.674 61.3809 358.674 61.6711 358.305C61.9877 357.909 61.8822 357.751 61.4336 357.883ZM60.5102 361.207C61.0643 361.629 61.7503 361.339 61.4336 360.811C61.3017 360.6 61.3281 360.363 61.5128 360.072C61.9613 359.386 62.1724 359.65 62.0141 360.732C61.9086 361.497 62.6473 361.26 63.175 360.336C63.4388 359.861 63.4388 359.835 62.9903 359.782C62.7264 359.756 62.4099 359.624 62.3044 359.492C62.1988 359.36 61.9614 359.228 61.8031 359.228C61.6448 359.228 61.4864 359.149 61.4336 359.07C61.2226 358.489 60.8269 358.78 60.4839 359.809C60.1145 360.837 60.1144 360.917 60.5102 361.207ZM50.4052 316.961C50.7746 317.33 51.3814 317.04 51.2231 316.565C51.0912 316.222 50.7482 316.038 50.4579 316.17C50.1941 316.301 50.1677 316.724 50.4052 316.961ZM50.2469 352.316C50.5635 352.685 51.1175 352.685 51.3022 352.342C51.5133 351.946 51.2758 351.55 50.7218 351.392C50.2205 351.26 49.8775 351.893 50.2469 352.316ZM49.1916 377.275C49.7984 377.538 49.7984 377.512 49.1124 376.51C48.6111 376.615 48.6375 377.037 49.1916 377.275ZM40.0099 418.777C39.6406 418.011 38.7963 418.011 38.4533 418.724C38.3478 418.961 38.4005 419.067 38.7435 419.199C38.9809 419.304 39.4031 419.331 39.6933 419.278C40.221 419.199 40.221 419.199 40.0099 418.777ZM47.9251 410.255C47.503 410.096 47.3447 410.202 47.3711 410.598C47.3974 410.809 47.4502 410.835 47.7141 410.809C48.1098 410.703 48.2417 410.36 47.9251 410.255ZM47.3974 404.397C47.9251 404.265 48.1625 403.79 47.8987 403.421C47.5029 402.893 47.16 403.131 47.0281 404.028C46.9753 404.476 46.9752 404.503 47.3974 404.397ZM46.3157 403.236C46.4476 403.342 46.6323 403.395 46.7115 403.368C46.8962 403.316 46.7642 402.788 46.5003 402.603C46.2101 402.419 46.0255 403.025 46.3157 403.236ZM46.2366 374.161C45.8936 373.871 45.8144 373.977 46.0255 374.452C46.1046 374.636 46.2893 374.768 46.4212 374.768C46.685 374.742 46.6323 374.504 46.2366 374.161ZM45.999 354.743C46.1573 354.796 46.3157 354.743 46.3421 354.637C46.4212 354.4 46.2101 354.189 45.999 354.268C45.7352 354.347 45.7352 354.664 45.999 354.743ZM48.2945 397.379C48.2154 397.142 47.8723 397.221 48.0042 397.617C48.1889 397.59 48.3209 397.485 48.2945 397.379ZM47.8724 393.659C47.8724 393.659 48.1625 393.263 48.4 392.736C48.6374 392.208 48.743 391.759 48.6638 391.733C48.4528 391.654 48.7694 390.836 49.1124 390.651C49.2707 390.546 49.2971 390.387 49.1651 390.15C48.9013 389.675 48.7166 389.649 48.4791 390.071C48.0306 390.783 47.9251 391.126 48.0834 391.337C48.1889 391.469 48.1362 391.839 47.9251 392.287C47.6349 392.92 47.6085 393.554 47.8724 393.659ZM46.8434 372.71C46.7378 372.631 46.5796 372.71 46.474 372.895C46.2102 373.317 46.2629 373.555 46.6059 373.555C46.9489 373.581 47.1336 372.895 46.8434 372.71ZM45.6825 353.424C46.1574 353.951 46.6059 353.872 46.8434 353.213C47.0544 352.632 46.7379 352.395 45.9727 352.527C45.2604 352.659 45.1812 352.896 45.6825 353.424ZM44.6271 364.188C44.205 363.845 44.1258 363.845 44.0203 364.135C43.9411 364.347 44.0467 364.452 44.3897 364.558C44.9173 364.742 45.0493 364.531 44.6271 364.188ZM44.1258 385.032C43.9147 384.952 43.5717 385.427 43.5454 385.823C43.5454 385.981 43.4926 386.351 43.4926 386.641C43.4399 387.221 43.4926 387.195 43.9411 386.324C44.2841 385.691 44.3633 385.111 44.1258 385.032ZM45.8672 371.734C45.7089 371.286 45.3658 371.233 45.102 371.629C44.9701 371.813 44.8646 371.998 44.891 372.315C44.9701 372.446 44.8382 372.842 44.5216 373.37C43.9939 374.293 44.0467 374.636 44.7327 374.742C45.1548 374.795 46.0782 372.315 45.8672 371.734ZM45.7353 407.906C45.5506 407.669 45.445 407.643 45.1812 407.774C44.7854 407.959 44.8382 408.144 45.3923 408.355C45.9199 408.54 46.0783 408.302 45.7353 407.906ZM45.9463 405.637C46.0782 405.743 46.3157 405.796 46.4476 405.743C46.6059 405.69 46.8698 405.717 47.0545 405.796C47.7932 406.086 47.5029 405.4 46.7378 405.083C46.0518 404.793 45.9727 404.793 45.8407 405.11C45.7616 405.294 45.788 405.532 45.9463 405.637ZM46.6059 406.534C46.9753 406.614 47.5293 406.35 47.4238 406.139C47.371 406.059 47.16 406.007 46.9225 406.033C46.3948 406.06 46.1574 406.455 46.6059 406.534ZM56.4207 390.757C56.2624 390.783 56.0777 391.285 55.9194 392.604C56.2096 392.314 56.6582 390.73 56.4207 390.757ZM65.1802 339.335C65.1274 338.965 64.9691 338.833 64.9691 338.833C64.9691 339.176 65.0747 339.308 65.1802 339.335ZM68.4254 309.574C68.2143 309.679 68.2143 309.758 68.4254 310.101C68.8211 309.547 68.742 309.415 68.4254 309.574ZM68.9267 308.65C69.1377 308.703 69.3225 308.677 69.2961 308.439C69.2961 308.439 69.085 308.36 68.6101 308.36C68.5837 308.492 68.7156 308.597 68.9267 308.65ZM66.13 341.894C66.0772 342.052 66.1036 342.237 66.2091 342.316C66.2883 342.395 66.4202 342.29 66.473 342.079C66.5257 341.867 66.4994 341.683 66.3938 341.656C66.3147 341.63 66.1827 341.736 66.13 341.894ZM64.4942 341.999C64.6261 341.973 64.7581 341.841 64.7845 341.709C64.1249 341.894 64.1248 342.079 64.4942 341.999ZM63.8082 346.115C64.1248 346.194 64.4942 345.64 64.2832 345.35C64.204 345.245 64.0457 345.165 63.9137 345.192C63.5444 345.297 63.4652 346.036 63.8082 346.115ZM65.6551 331.657C65.5495 331.631 65.4177 331.815 65.3649 332.053C65.233 332.475 65.444 332.686 65.7342 332.448C65.9453 332.29 65.8925 331.71 65.6551 331.657ZM57.5552 386.008C57.3969 386.509 57.1067 387.485 56.8693 388.145C56.4208 389.438 56.4208 390.308 56.8693 389.622C57.0012 389.411 57.1858 389.016 57.2386 388.752C57.3178 388.488 57.5816 387.564 57.8191 386.747C58.0829 385.929 58.294 385.084 58.3204 384.873C57.951 384.952 57.7135 385.506 57.5552 386.008ZM55.5237 295.748C54.4683 296.065 54.0462 296.434 53.7032 297.173C53.3074 298.097 53.281 298.308 53.5976 298.044C53.7559 297.912 54.0198 297.754 54.1781 297.674C54.3364 297.595 54.4947 297.463 54.5211 297.384C54.5475 297.305 54.9432 296.988 55.3654 296.725C57.0539 295.643 57.1067 295.247 55.5237 295.748ZM54.5475 380.784C54.7586 381.021 54.8905 380.916 54.9432 380.81C54.7322 380.52 54.6003 380.625 54.5475 380.784ZM61.6711 297.569C61.8558 297.015 61.4337 296.857 61.1962 297.384C60.9851 297.833 60.6158 297.648 60.4047 297.015C60.1936 296.382 59.7451 296.329 59.7979 296.936C59.8242 297.147 59.7451 297.331 59.6396 297.384C59.534 297.411 59.2702 297.595 59.0591 297.806C58.7953 298.07 58.6897 298.255 58.7953 298.466C58.848 298.624 58.8481 298.809 58.7689 298.862C59.5868 298.914 59.9034 298.756 59.8506 298.492C59.7451 297.595 59.7979 297.411 60.0617 297.463C60.22 297.49 60.3255 297.727 60.3519 298.044C60.3519 298.598 60.5366 298.862 60.774 298.651C60.8532 298.572 61.1434 298.571 61.3809 298.624C61.8822 298.73 61.9877 298.598 61.6975 298.281C61.592 298.176 61.5656 297.859 61.6711 297.569ZM63.5971 294.693C63.3069 294.772 63.2541 294.957 63.4124 295.353C63.5707 295.722 63.9137 295.696 63.9929 295.326C64.0984 294.957 63.861 294.614 63.5971 294.693ZM56.4999 294.799C56.7373 294.667 56.8429 294.667 57.0276 294.851C57.2914 295.115 57.6344 294.931 57.7663 294.403C57.8982 293.875 57.3705 293.743 56.6318 294.165C55.9722 294.535 55.7347 294.851 56.0513 294.931C56.1305 294.931 56.3416 294.878 56.4999 294.799ZM60.563 295.643C60.7477 295.643 60.9588 295.511 61.0643 295.326C60.1936 295.405 60.0881 295.617 60.563 295.643ZM58.5314 301.315C58.2939 301.289 57.9246 301.183 57.7135 301.052C57.3969 300.84 57.3441 300.841 57.2914 301.104C57.2386 301.342 57.1331 301.368 56.8693 301.236C56.5791 301.104 56.4999 301.131 56.4207 301.395C56.368 301.579 56.236 301.79 56.1041 301.896C55.1279 302.608 57.2386 302.898 58.4259 302.212C59.1647 301.764 59.2174 301.368 58.5314 301.315ZM64.5733 295.59C64.2831 295.722 63.8874 297.068 64.1249 297.12C64.4942 297.2 64.8108 296.83 64.9691 296.197C65.1538 295.511 65.0482 295.353 64.5733 295.59ZM52.041 392.05C52.0146 392.182 52.0937 392.34 52.1993 392.366C52.4895 392.445 52.5423 392.102 52.041 392.05ZM52.595 390.387C52.4103 390.44 52.384 390.493 52.4895 390.889C52.5951 391.311 53.07 391.469 53.2019 391.126C53.3074 390.862 52.8589 390.308 52.595 390.387ZM52.7533 379.095C52.5159 379.016 50.9592 383.448 51.1175 383.712C51.3814 384.134 51.5924 383.897 52.0937 382.578C52.8852 380.414 53.1227 379.201 52.7533 379.095ZM50.3525 386.166C50.0886 386.245 50.0886 386.43 50.3788 386.535C50.5371 386.588 50.6954 386.535 50.7218 386.43C50.8273 386.219 50.6163 386.087 50.3525 386.166ZM64.0457 323.689C63.7819 323.742 63.7027 323.953 63.861 324.085C64.0985 324.296 64.5998 324.085 64.4414 323.847C64.3359 323.742 64.1512 323.663 64.0457 323.689Z" fill="#F7F7F7"/>
<path d="M69.7438 260.97C69.9285 257.989 68.6622 255.139 67.6596 252.316C66.4459 248.834 65.6279 245.166 65.8654 241.499C66.1029 237.832 67.4221 234.138 70.0341 231.552C73.0155 228.571 77.3688 227.278 81.5903 227.304C83.8329 227.304 86.1283 227.674 88.0015 228.861C92.1174 231.447 93.0936 236.934 93.3575 241.393C93.7268 247.356 92.9353 253.319 90.6135 258.859C90.2441 259.73 89.8484 260.601 89.1624 261.287C87.2628 263.239 83.3844 260.812 82.4082 263.529C81.9596 264.822 82.8303 272.157 81.8804 273.265C79.7697 275.745 67.765 269.994 67.1846 271.313C68.1608 269.176 69.6119 263.266 69.7438 260.97Z" fill="#FFA017"/>
<path d="M71.5386 224.326C70.3249 225.117 69.164 226.173 68.135 227.518C65.4175 231.027 63.7025 235.275 63.1748 239.681C62.4361 246.145 64.3093 252.741 63.0957 259.153C62.014 264.825 57.8189 267.384 53.8086 271.025C47.7667 276.513 44.7325 285.141 46.0253 293.188C46.6057 296.776 47.9777 300.312 47.6611 303.926C47.4236 306.512 46.3419 308.939 45.8143 311.472C44.97 315.535 45.6032 319.941 47.8458 323.424C52.1728 330.178 60.4046 331.26 65.1009 324.215C67.8976 320.02 68.0031 314.559 67.0269 309.625C66.4728 306.776 65.6021 303.926 65.866 301.05C66.2881 296.46 69.5598 292.555 70.3777 288.017C71.1164 283.954 69.85 279.838 69.1112 275.775C68.2405 270.92 68.7419 266.356 72.0399 262.53C73.9659 260.287 76.8154 259.1 79.2163 257.411C86.7621 252.108 85.9178 243.243 91.6958 236.911C93.4899 234.932 93.1997 232.215 91.8541 230.051C90.8251 228.415 89.2685 227.149 87.6855 226.015C82.4879 222.215 76.4196 221.16 71.5386 224.326Z" fill="#1D1D1D"/>
<path d="M59.8254 260.342C58.9284 260.975 59.0867 262.215 60.1156 262.584C61.9625 263.27 63.994 263.006 65.8673 263.798C67.6614 264.563 68.8487 266.41 70.6692 266.885C71.5399 267.122 72.7799 266.41 72.648 265.381C72.0939 261.054 63.3081 257.835 59.8254 260.342Z" fill="#CCCCCC"/>
<path d="M85.0721 332.468C81.906 333.207 79.1885 334.737 75.8905 335.001C74.0173 335.16 72.0648 335.028 70.1916 334.975C65.1259 334.79 60.7462 333.788 56.0234 332.073C54.7306 331.598 53.5697 333.55 54.6514 334.421C59.0312 337.983 64.7301 338.378 70.1916 338.51C75.9697 338.642 81.7741 338.537 86.1538 334.342C86.9717 333.524 86.101 332.205 85.0721 332.468Z" fill="#CCCCCC"/>
<defs>
<linearGradient id="paint0_linear" x1="406.121" y1="125.536" x2="298.857" y2="142.7" gradientUnits="userSpaceOnUse">
<stop offset="0.00359712" stop-color="#4CAB61"/>
<stop offset="1" stop-color="#7ECA9C"/>
</linearGradient>
</defs>
</svg>
