<svg width="237" height="231" viewBox="0 0 237 231" fill="none" xmlns="http://www.w3.org/2000/svg">
<path d="M236.076 139.433C235.377 126.796 227.904 115.522 225.559 103.086C222.942 89.1943 226.838 74.2719 220.679 61.28C212.472 43.9534 201.458 57.9402 193.902 24.9807C190.61 10.6267 175.806 -0.86114 160.41 0.0507839C140.987 1.18773 146.707 9.72665 105.73 5.94868C74.5584 3.07079 80.1247 18.4432 71.2897 27.2427C68.2223 30.2982 64.468 31.6247 60.9388 34.017C40.0237 48.1696 59.6715 69.1083 38.3775 86.1625C33.1192 90.3786 26.487 92.8894 21.4892 97.3779C11.1146 106.71 14.3477 120.508 10.9487 132.647C5.86802 150.755 -4.8974 167.217 2.54011 188.89C9.57496 209.391 32.4796 206.252 53.8921 203.398C88.0359 198.85 94.6326 216.449 125.295 222.809C144.788 226.859 145.594 220.973 154.393 212.659C165.147 202.51 180.046 201.775 194.103 189.909C197.147 187.339 199.196 184.046 202.145 181.441C211.264 173.411 237.651 167.999 236.076 139.433ZM99.5475 187.86C98.2329 188.653 96.7288 188.487 95.3313 188.049C95.3669 188.63 95.3787 189.21 95.3669 189.79C95.3432 190.69 95.438 191.673 94.9998 192.479C94.8576 192.739 94.597 192.786 94.3602 192.704C93.5904 193.059 92.6548 193.047 91.8139 193.083C91.0441 193.106 90.2862 193.071 89.5164 193.012C89.6822 193.817 89.6229 194.812 89.5637 195.274C89.4098 196.837 88.5689 198.376 86.9701 198.838C83.7132 199.762 82.6828 195.475 83.7132 192.964C82.8486 192.952 81.9722 192.881 81.1077 192.858C80.1839 192.822 79.2009 192.858 78.289 192.656C77.8034 192.846 77.1403 192.443 77.2469 191.744C77.389 190.832 77.5784 189.944 77.6613 189.009C77.6613 188.961 77.6732 188.902 77.6732 188.843C75.3993 189.447 72.5806 189.151 72.2963 186.296C72.1779 185.1 72.699 183.857 73.8005 183.265C74.7716 182.732 76.4889 182.744 77.5903 183.241C77.5311 182.211 77.6258 181.168 77.6376 180.138C77.6495 179.108 77.5666 178.042 77.8153 177C77.8745 176.763 78.064 176.538 78.3956 176.526C80.255 176.455 82.3986 176.348 84.2106 176.834C84.2343 176.834 84.2462 176.857 84.2698 176.881C84.6844 176.893 85.087 177.213 84.9212 177.722C84.6251 178.634 84.4119 179.735 84.7554 180.671C85.1107 181.666 86.1884 181.997 87.1003 181.559C88.7939 180.73 88.5097 178.93 88.4623 177.379C88.4031 177.236 88.4031 177.071 88.4623 176.929V176.763C88.4741 176.526 88.8058 176.336 88.9953 176.573C90.6533 176.443 92.5245 176.514 94.1944 176.775C94.2892 176.632 94.4905 176.585 94.6208 176.715C95.2485 177.367 95.1774 178.29 95.2248 179.155C95.2603 180.091 95.2603 181.038 95.2484 181.986C96.2788 181.583 97.6763 181.595 98.5527 181.808C99.8791 182.139 100.921 183.229 101.099 184.603C101.277 185.87 100.649 187.197 99.5475 187.86Z" fill="#DEF3E9"/>
<path d="M235.01 228.579C235.01 230.427 221.816 230.273 206.089 230.273C190.361 230.273 177.748 230.427 177.748 228.579C177.748 227.217 190.491 226.933 206.219 226.933C221.947 226.933 235.01 227.809 235.01 228.579Z" fill="#E6E6E6"/>
<path d="M219.033 146.86C219.329 147.712 219.756 148.529 220.028 149.394C221.935 155.505 221.177 161.924 221.52 168.213C221.698 171.505 221.876 174.869 222.776 178.043C222.942 178.623 223.107 179.31 222.752 179.795C222.136 180.624 220.774 180.127 219.933 180.151C218.619 180.186 217.292 180.305 215.978 180.388C214.45 180.494 212.377 180.613 211.288 179.298C211.063 179.026 211.004 178.587 211.252 178.351C211.43 178.185 211.691 178.149 211.927 178.126C213.372 177.972 215.184 177.675 216.428 176.918C216.771 176.704 217.115 176.467 217.304 176.112C217.505 175.721 217.458 175.259 217.411 174.821C217.257 173.59 216.996 172.37 216.736 171.15C215.551 165.548 214.379 159.923 212.733 154.439C211.702 150.969 210.471 147.511 210.305 143.899C210.234 142.181 210.459 140.298 211.679 139.067C212.981 137.752 215.042 137.575 216.89 137.776C217.34 137.823 217.802 137.894 218.192 138.119C218.903 138.534 219.246 139.398 219.258 140.216C219.282 141.85 218.796 143.437 218.725 145.059C218.702 145.687 218.844 146.279 219.033 146.86Z" fill="#F9A124"/>
<path d="M205.556 147.229C205.805 148.651 206.113 150.084 206.243 151.446C206.645 155.78 206.61 160.15 206.124 164.473C205.651 168.713 204.455 172.941 204.549 177.228C204.573 178.069 205.07 179.68 204.443 180.355C203.744 181.113 202.441 180.485 201.6 180.426C200.286 180.331 198.959 180.307 197.645 180.26C196.117 180.213 194.044 180.118 193.085 178.697C192.896 178.412 192.872 177.962 193.156 177.749C193.346 177.595 193.606 177.595 193.855 177.595C195.312 177.595 197.135 177.489 198.462 176.849C200.961 175.653 199.694 169.506 199.445 167.221C199.066 163.691 198.438 160.174 198.213 156.633C197.834 150.676 197.443 144.861 197.585 138.833C197.597 138.276 197.621 137.708 197.846 137.198C198.497 135.765 200.428 135.552 202.003 135.694C203.365 135.813 204.916 136.168 205.556 137.376C206.527 139.188 205.437 141.568 205.284 143.451C205.177 144.671 205.331 145.95 205.556 147.229Z" fill="#F9A124"/>
<path d="M223.414 182.793H225.475C226.328 182.793 227.015 182.106 227.015 181.253C227.015 180.4 226.328 179.713 225.475 179.713H190.111C189.259 179.713 188.572 180.4 188.572 181.253C188.572 182.106 189.259 182.793 190.111 182.793H191.758L187.885 227.619C187.802 228.531 188.477 229.336 189.389 229.419C189.436 229.419 189.484 229.431 189.531 229.431C190.384 229.431 191.106 228.78 191.177 227.915L192.231 215.657H223.035L224.137 227.927C224.22 228.791 224.942 229.431 225.783 229.431C225.83 229.431 225.878 229.431 225.937 229.419C226.849 229.336 227.524 228.531 227.441 227.619L223.414 182.793ZM220.098 182.793C220.098 182.84 220.087 182.887 220.098 182.947L222.183 205.993H193.084L195.086 182.804H220.098V182.793ZM192.539 212.329L192.8 209.309H222.491L222.763 212.329H192.539Z" fill="#1D1D1D"/>
<path d="M196.426 142.347C196.426 142.702 196.959 162.682 198.38 170.498C198.38 170.498 203.816 171.387 206.516 170.498C206.516 170.498 208.399 154.865 205.438 142.347H196.426Z" fill="#F7F7F7"/>
<path d="M209.748 142.134C209.796 142.489 213.005 162.22 215.468 169.776C215.468 169.776 220.976 169.93 223.534 168.686C223.534 168.686 223.309 152.947 218.678 140.926L209.748 142.134Z" fill="#F7F7F7"/>
<path d="M199.055 146.279C199.043 146.255 199.043 146.196 199.055 146.054C199.043 146.054 199.067 146.125 199.055 146.279ZM198.877 146.646C198.913 146.658 198.901 146.54 198.866 146.504C198.83 146.457 198.794 146.623 198.818 146.729C198.854 146.67 198.865 146.646 198.877 146.646ZM196.532 145.687C196.532 145.58 196.521 145.486 196.521 145.379C196.532 145.391 196.568 145.426 196.615 145.45C196.675 145.474 196.722 145.474 196.722 145.438C196.722 145.355 196.817 145.391 196.84 145.474C196.852 145.521 196.876 145.509 196.888 145.45C196.923 145.32 196.923 145.261 196.876 145.213C196.793 145.13 196.757 145.13 196.746 145.201C196.734 145.249 196.698 145.261 196.651 145.249C196.592 145.225 196.532 145.272 196.521 145.355C196.461 143.567 196.426 142.43 196.426 142.347H205.438C205.592 143.01 205.735 143.697 205.865 144.42C205.853 144.467 205.853 144.55 205.853 144.621C205.865 144.692 205.865 144.799 205.853 144.87C205.841 144.976 205.841 144.976 205.794 144.763C205.77 144.645 205.746 144.491 205.746 144.432C205.746 144.372 205.735 144.301 205.723 144.278C205.711 144.254 205.699 144.147 205.699 144.053C205.687 143.863 205.652 143.662 205.616 143.65C205.616 143.65 205.581 143.52 205.569 143.378C205.545 143.141 205.498 143.022 205.521 143.235C205.521 143.283 205.521 143.342 205.51 143.378C205.474 143.472 205.51 143.721 205.557 143.756C205.592 143.792 205.592 143.816 205.616 144.159C205.616 144.361 205.616 144.526 205.616 144.526C205.616 144.526 205.604 144.763 205.616 145.213C205.628 145.45 205.616 145.462 205.545 145.296C205.51 145.225 205.498 145.13 205.486 145.059C205.474 144.858 205.45 144.905 205.379 145.225C205.32 145.497 205.261 145.604 205.225 145.367C205.213 145.367 205.202 145.296 205.19 145.142C205.178 144.882 205.154 144.846 204.953 144.799C204.846 144.775 204.811 144.787 204.799 144.87C204.775 144.976 204.752 144.905 204.752 144.739C204.763 144.621 204.74 144.597 204.716 144.704C204.704 144.763 204.692 144.751 204.669 144.657C204.621 144.479 204.609 144.503 204.598 144.751C204.586 144.941 204.586 144.965 204.538 144.953C204.515 144.941 204.479 144.976 204.467 145.024C204.444 145.13 204.42 145.13 204.42 145.036C204.42 145 204.432 144.953 204.444 144.941C204.479 144.917 204.491 144.704 204.444 144.668C204.432 144.716 204.42 144.751 204.373 144.763C204.373 144.799 204.361 144.882 204.349 144.953C204.313 145.071 204.313 145.071 204.361 145.201C204.42 145.415 204.349 145.568 204.266 145.403C204.23 145.343 204.207 145.272 204.219 145.249C204.219 145.225 204.207 145.154 204.183 145.071C204.159 145 204.136 144.882 204.136 144.811C204.136 144.728 204.124 144.692 204.112 144.692C204.088 144.704 204.088 144.763 204.088 144.893C204.1 145.154 204.041 145.178 204.005 144.941C203.982 144.811 203.982 144.787 203.958 144.929C203.982 144.988 203.982 145.13 203.958 145.166C203.946 145.178 203.923 145.166 203.911 145.13C203.78 144.822 203.686 144.787 203.698 145.047C203.698 145.118 203.686 145.154 203.65 145.166C203.603 145.178 203.603 145.201 203.603 145.32C203.615 145.533 203.555 145.64 203.508 145.415C203.508 145.545 203.425 145.651 203.366 145.604C203.319 145.557 203.295 145.58 203.283 145.711C203.247 145.9 203.236 145.9 203.212 145.711C203.2 145.616 203.188 145.569 203.165 145.58C203.153 145.592 203.105 145.592 203.07 145.58C203.034 145.569 202.987 145.616 202.963 145.675C202.928 145.782 202.916 145.782 202.868 145.651C202.845 145.58 202.821 145.545 202.809 145.58C202.797 145.687 202.726 145.829 202.691 145.817C202.679 145.817 202.655 145.841 202.655 145.876C202.655 145.912 202.632 145.924 202.608 145.888C202.584 145.865 202.561 145.865 202.549 145.912C202.537 145.971 202.513 145.959 202.478 145.853C202.43 145.722 202.418 145.722 202.371 145.841C202.3 146.007 202.253 145.971 202.205 145.711C202.205 145.971 202.051 146.173 201.933 146.066C201.886 146.019 201.862 146.03 201.838 146.101C201.814 146.184 201.803 146.184 201.767 146.101C201.72 146.007 201.684 146.101 201.696 146.279C201.696 146.362 201.637 146.326 201.637 146.244C201.637 146.196 201.613 146.196 201.566 146.255C201.483 146.362 201.459 146.35 201.459 146.196C201.459 146.042 201.435 146.019 201.4 146.149C201.388 146.196 201.329 146.255 201.282 146.267C201.234 146.279 201.187 146.315 201.139 146.386C201.139 146.386 201.128 146.457 201.128 146.54C201.128 146.623 201.116 146.753 201.104 146.812C201.08 146.919 201.08 146.978 201.08 147.321C201.08 147.428 201.068 147.452 200.997 147.475C200.95 147.487 200.903 147.523 200.903 147.558C200.867 147.677 200.642 147.677 200.606 147.558C200.583 147.487 200.618 147.309 200.654 147.298C200.701 147.286 200.678 147.144 200.618 147.073C200.583 147.037 200.547 147.037 200.524 147.084C200.5 147.12 200.476 147.167 200.452 147.179C200.417 147.215 200.417 147.298 200.464 147.404C200.512 147.511 200.512 147.606 200.476 147.665C200.31 147.878 200.204 147.925 199.908 147.937C199.825 147.937 199.695 147.961 199.647 147.973C199.517 148.008 198.854 148.056 198.7 148.032C198.641 148.02 198.486 147.996 198.356 147.985C198.072 147.937 198.096 147.866 198.404 147.842C198.522 147.831 198.629 147.807 198.641 147.783C198.652 147.759 198.676 147.736 198.7 147.748C198.83 147.795 198.925 147.795 198.925 147.748C198.925 147.712 198.984 147.712 199.043 147.724C199.114 147.748 199.173 147.724 199.197 147.677C199.244 147.582 199.292 147.57 199.351 147.665C199.387 147.712 199.398 147.7 199.434 147.534C199.47 147.357 199.481 147.345 199.529 147.428C199.6 147.546 199.647 147.558 199.683 147.463C199.694 147.416 199.73 147.404 199.754 147.428C199.801 147.475 199.825 147.321 199.789 147.167C199.766 147.037 199.789 146.99 199.837 147.084C199.848 147.132 199.872 147.227 199.872 147.286C199.872 147.463 199.92 147.534 199.943 147.392C199.955 147.298 199.955 147.274 199.943 147.215C199.908 147.132 199.908 147.002 199.943 146.824C199.955 146.717 199.955 146.67 199.943 146.634C199.92 146.563 199.73 146.599 199.695 146.67C199.659 146.765 199.552 146.291 199.552 146.019C199.552 145.865 199.541 145.829 199.493 145.888C199.481 145.888 199.493 146.078 199.517 146.267C199.552 146.528 199.529 146.646 199.446 146.623C199.41 146.611 199.375 146.634 199.363 146.67C199.327 146.8 199.304 146.729 199.304 146.516C199.304 146.398 199.304 146.255 199.292 146.184C199.292 146.101 199.292 146.03 199.316 145.995C199.339 145.959 199.351 145.912 199.351 145.9C199.363 145.841 199.173 145.77 199.055 145.794C199.008 145.805 198.96 145.782 198.937 145.722C198.889 145.592 198.818 145.628 198.806 145.782C198.806 145.924 198.735 145.936 198.344 145.794C198.273 145.77 198.226 145.699 198.226 145.628C198.226 145.533 198.333 145.379 198.368 145.415C198.392 145.426 198.404 145.415 198.404 145.367C198.404 145.261 198.321 145.13 198.285 145.154C198.261 145.166 198.238 145.142 198.226 145.095C198.214 145.036 198.202 145.036 198.19 145.095C198.179 145.142 198.143 145.142 198.084 145.107C198.013 145.059 197.989 145.071 197.954 145.166C197.918 145.284 197.906 145.284 197.883 145.154C197.859 145.059 197.847 145.047 197.835 145.107C197.823 145.166 197.776 145.178 197.669 145.142C197.586 145.118 197.515 145.118 197.504 145.154C197.492 145.19 197.468 145.178 197.432 145.118C197.361 145 197.361 145 197.361 145.261C197.361 145.462 197.373 145.509 197.397 145.557C197.421 145.592 197.397 145.604 197.338 145.592C197.279 145.58 197.243 145.545 197.255 145.509C197.255 145.474 197.279 145.45 197.29 145.462C197.338 145.474 197.326 145.237 197.279 145.13C197.255 145.071 197.231 145.071 197.207 145.107C197.184 145.154 197.172 145.142 197.16 145.059C197.148 144.976 197.136 144.976 197.125 145.024C197.113 145.059 197.077 145.071 197.042 145.036C196.994 144.988 196.982 145 196.982 145.071C196.982 145.118 196.971 145.19 196.959 145.213C196.935 145.261 196.935 145.272 196.959 145.403C197.018 145.687 196.982 145.758 196.84 145.663C196.746 145.592 196.734 145.604 196.71 145.711C196.686 145.829 196.639 145.817 196.603 145.687C196.71 145.616 196.615 145.628 196.532 145.687ZM200.962 146.528C200.962 146.563 200.974 146.611 200.985 146.634C201.021 146.705 201.021 146.694 201.021 146.587C201.021 146.528 201.009 146.492 200.985 146.48C200.974 146.48 200.962 146.504 200.962 146.528ZM200.772 146.99C200.796 147.002 200.796 147.096 200.784 147.155C200.772 147.179 200.784 147.227 200.796 147.298C200.82 147.392 200.831 147.392 200.867 147.309C200.914 147.203 200.903 147.084 200.855 147.037C200.82 147.002 200.808 146.942 200.843 146.8C200.879 146.682 200.879 146.587 200.855 146.457C200.832 146.338 200.772 146.398 200.737 146.587C200.701 146.753 200.725 146.978 200.772 146.99ZM200.618 142.975C200.666 143.022 200.689 142.904 200.689 142.714C200.689 142.537 200.618 142.466 200.583 142.62C200.559 142.75 200.571 142.939 200.618 142.975ZM200.595 146.753C200.678 146.753 200.689 146.717 200.678 146.563C200.666 146.398 200.559 146.386 200.524 146.54C200.488 146.694 200.512 146.741 200.595 146.753ZM200.358 146.646C200.322 146.694 200.334 146.777 200.381 146.836C200.429 146.907 200.441 146.859 200.417 146.729C200.393 146.599 200.393 146.599 200.358 146.646ZM200.133 146.942C200.145 146.883 200.168 146.871 200.204 146.907C200.287 147.002 200.263 147.084 200.156 147.12C200.074 147.144 200.133 147.369 200.227 147.463C200.287 147.511 200.287 147.511 200.275 147.357C200.263 147.262 200.275 147.155 200.287 147.108C200.299 147.061 200.299 146.978 200.299 146.919C200.299 146.859 200.299 146.8 200.299 146.788C200.346 146.67 200.31 146.563 200.192 146.54C200.085 146.504 200.073 146.516 200.062 146.67C200.038 146.895 200.085 147.096 200.133 146.942ZM198.297 143.034C198.285 143.081 198.273 143.152 198.285 143.188C198.297 143.283 198.321 143.235 198.333 143.081C198.356 142.939 198.344 142.916 198.297 143.034ZM198.498 143.152C198.498 143.117 198.487 143.058 198.475 143.046C198.427 142.999 198.404 143.034 198.415 143.141C198.415 143.259 198.486 143.259 198.498 143.152ZM198.238 142.643C198.25 142.785 198.522 142.868 198.569 142.75C198.605 142.655 198.605 142.537 198.558 142.489C198.534 142.466 198.51 142.442 198.487 142.477C198.475 142.513 198.439 142.501 198.368 142.454C198.25 142.371 198.226 142.406 198.238 142.643ZM198.214 144.218C198.19 144.064 198.143 144.112 198.143 144.313C198.131 144.526 198.131 144.526 198.214 144.218ZM197.089 143.413C197.172 143.472 197.219 143.449 197.219 143.354C197.219 143.283 197.16 143.212 197.125 143.235C197.113 143.247 197.065 143.271 197.042 143.295C196.982 143.33 196.982 143.342 197.089 143.413ZM196.675 147.807C196.675 147.795 196.639 147.771 196.603 147.748C196.603 147.795 196.603 147.842 196.603 147.89C196.663 147.878 196.675 147.854 196.675 147.807ZM196.805 146.563C196.793 146.575 196.781 146.611 196.781 146.646C196.781 146.741 196.817 146.729 196.805 146.563ZM205.296 145.912C205.367 146.019 205.367 145.983 205.344 145.888C205.332 145.817 205.32 145.817 205.296 145.912ZM202.051 146.563C202.063 146.599 202.075 146.634 202.087 146.646C202.051 146.433 202.039 146.445 202.051 146.563ZM202.383 146.504C202.347 146.528 202.336 146.575 202.336 146.611C202.371 146.563 202.383 146.504 202.383 146.504ZM202.087 147.155C202.087 147.191 202.099 147.227 202.122 147.227C202.146 147.238 202.158 147.215 202.158 147.179C202.158 147.144 202.146 147.108 202.122 147.108C202.099 147.096 202.087 147.12 202.087 147.155ZM203.271 146.113C203.247 146.232 203.295 146.409 203.342 146.362C203.378 146.326 203.378 146.303 203.33 146.149C203.307 146.03 203.295 146.03 203.271 146.113ZM203.022 146.338C203.046 146.398 203.093 146.338 203.093 146.267C203.093 146.232 203.07 146.196 203.046 146.196C203.011 146.173 202.999 146.255 203.022 146.338ZM203.78 145.201C203.769 145.296 203.804 145.45 203.828 145.379C203.84 145.343 203.84 145.272 203.828 145.237C203.804 145.142 203.78 145.13 203.78 145.201ZM205.45 145.995C205.45 146.066 205.462 146.125 205.486 146.101C205.486 146.101 205.486 146.03 205.474 145.865C205.45 145.876 205.45 145.924 205.45 145.995ZM204.55 145.249C204.515 145.284 204.515 145.45 204.55 145.462C204.574 145.474 204.609 145.367 204.609 145.272C204.609 145.213 204.598 145.213 204.55 145.249ZM196.888 147.866C196.923 147.937 197.089 147.937 197.077 147.866C197.077 147.819 197.018 147.795 196.888 147.866ZM197.314 145.486C197.302 145.403 197.279 145.426 197.279 145.533C197.279 145.58 197.29 145.628 197.302 145.64C197.326 145.64 197.338 145.557 197.314 145.486ZM197.575 147.807C197.515 147.807 197.421 147.795 197.35 147.783C197.207 147.759 197.125 147.831 197.207 147.925C197.231 147.949 197.279 147.973 197.302 147.973C197.326 147.973 197.433 147.973 197.515 147.985C197.598 147.996 197.693 147.985 197.717 147.973C197.693 147.831 197.622 147.807 197.575 147.807ZM196.982 146.587C196.971 146.528 196.971 146.528 196.935 146.599C196.9 146.67 196.9 146.836 196.935 146.848C196.971 146.859 197.006 146.67 196.982 146.587ZM198.084 145.628C198.084 145.545 197.61 145.426 197.586 145.509C197.551 145.64 197.586 145.675 197.729 145.722C197.954 145.794 198.084 145.758 198.084 145.628ZM197.989 146.492C198.013 146.398 198.001 146.362 197.977 146.362C197.965 146.445 197.977 146.48 197.989 146.492ZM201.518 146.623C201.507 146.705 201.495 146.777 201.483 146.765C201.471 146.765 201.459 146.824 201.447 146.907C201.436 146.99 201.424 147.096 201.4 147.144C201.4 146.93 201.388 146.8 201.341 146.469C201.305 146.551 201.293 146.575 201.27 146.563C201.246 146.551 201.234 146.599 201.234 146.646C201.222 146.8 201.222 146.859 201.246 146.871C201.246 146.871 201.282 146.942 201.293 147.013C201.317 147.144 201.317 147.155 201.293 147.179C201.187 147.298 201.199 147.428 201.317 147.44C201.459 147.463 201.518 147.321 201.507 147.025C201.495 146.836 201.495 146.812 201.542 146.788C201.589 146.765 201.613 146.611 201.578 146.516C201.542 146.445 201.53 146.457 201.518 146.623ZM201.637 146.623C201.637 146.729 201.708 146.812 201.72 146.729C201.732 146.694 201.732 146.634 201.72 146.599C201.708 146.48 201.625 146.516 201.637 146.623ZM198.025 147.902C198.025 147.937 198.036 147.973 198.06 147.973C198.084 147.985 198.096 147.961 198.096 147.925C198.096 147.89 198.084 147.854 198.06 147.854C198.048 147.854 198.025 147.878 198.025 147.902Z" fill="#E6E6E6"/>
<path d="M214.249 145.983C214.284 146.054 214.26 146.255 214.213 146.255C214.154 146.255 214.142 146.078 214.178 146.007C214.225 145.924 214.225 145.924 214.249 145.983ZM215.255 147.049C215.172 147.061 215.03 147.084 214.924 147.084C214.722 147.084 214.616 147.191 214.734 147.25C214.77 147.274 214.841 147.274 214.876 147.274C214.924 147.262 215.054 147.25 215.184 147.226C215.314 147.215 215.445 147.179 215.468 147.155C215.421 147.037 215.326 147.025 215.255 147.049ZM214.853 144.787C214.841 144.917 214.876 144.952 215.066 144.964C215.374 144.976 215.516 144.905 215.492 144.787C215.48 144.692 214.864 144.704 214.853 144.787ZM215.895 147.013C215.895 147.049 215.919 147.072 215.954 147.072C215.99 147.072 216.001 147.049 216.001 147.013C215.99 146.978 215.966 146.954 215.942 146.954C215.919 146.954 215.907 146.978 215.895 147.013ZM215.528 145.509C215.528 145.604 215.551 145.639 215.563 145.639C215.575 145.545 215.539 145.509 215.528 145.509ZM219.696 144.727C219.744 144.68 219.72 144.538 219.649 144.455C219.578 144.372 219.578 144.384 219.614 144.55C219.637 144.633 219.637 144.704 219.625 144.704C219.614 144.704 219.614 144.763 219.637 144.846C219.661 144.929 219.673 145.035 219.661 145.095C219.59 144.893 219.542 144.775 219.389 144.479C219.377 144.562 219.365 144.597 219.341 144.597C219.317 144.597 219.317 144.645 219.329 144.692C219.365 144.846 219.389 144.905 219.412 144.893C219.424 144.893 219.471 144.941 219.507 145.012C219.578 145.13 219.578 145.13 219.554 145.166C219.471 145.308 219.531 145.438 219.661 145.414C219.815 145.391 219.839 145.237 219.732 144.964C219.661 144.787 219.661 144.763 219.696 144.727ZM210.944 146.942C210.767 146.836 210.625 146.753 210.506 146.67C210.044 144.017 209.76 142.24 209.748 142.134L213.337 141.648C213.36 141.696 213.372 141.696 213.396 141.648C213.408 141.613 213.455 141.601 213.479 141.625C213.502 141.648 213.526 141.636 213.55 141.613C213.55 141.613 213.716 141.589 213.728 141.613C213.775 141.707 213.787 141.707 213.858 141.636C213.905 141.589 213.964 141.577 213.988 141.601C214.035 141.636 214.047 141.625 214.047 141.553C214.047 141.553 214.106 141.542 214.118 141.565C214.154 141.66 214.166 141.66 214.178 141.542C214.189 141.577 214.213 141.553 214.225 141.53L217.423 141.092C217.434 141.222 217.505 141.388 217.565 141.411C217.624 141.435 217.624 141.317 217.565 141.139C217.553 141.115 217.541 141.103 217.541 141.08L218.69 140.926C219.069 141.921 219.424 142.951 219.756 143.981C219.744 144.005 219.744 144.064 219.779 144.171C219.803 144.242 219.732 144.23 219.708 144.159C219.685 144.112 219.661 144.123 219.637 144.195C219.578 144.325 219.554 144.325 219.507 144.171C219.46 144.029 219.424 144.017 219.424 144.147C219.424 144.194 219.389 144.266 219.341 144.301C219.294 144.337 219.258 144.384 219.235 144.455C219.235 144.455 219.246 144.526 219.27 144.609C219.294 144.692 219.329 144.81 219.329 144.881C219.341 144.988 219.353 145.047 219.46 145.367C219.495 145.462 219.483 145.497 219.424 145.533C219.377 145.556 219.353 145.616 219.353 145.651C219.353 145.781 219.116 145.853 219.045 145.758C218.998 145.687 218.986 145.509 219.021 145.485C219.069 145.45 219.01 145.331 218.915 145.284C218.867 145.26 218.832 145.272 218.82 145.331C218.808 145.379 218.796 145.426 218.785 145.45C218.761 145.497 218.785 145.58 218.867 145.651C218.95 145.734 218.986 145.829 218.95 145.9C218.832 146.16 218.737 146.243 218.394 146.374C218.287 146.409 218.157 146.468 218.098 146.504C217.967 146.587 217.15 146.871 216.949 146.907C216.866 146.918 216.665 146.954 216.487 146.978C216.084 147.025 216.108 146.942 216.511 146.824C216.665 146.776 216.795 146.717 216.807 146.682C216.807 146.658 216.842 146.634 216.878 146.634C217.055 146.634 217.174 146.599 217.162 146.551C217.162 146.516 217.221 146.492 217.304 146.492C217.399 146.492 217.458 146.445 217.482 146.385C217.517 146.279 217.565 146.255 217.659 146.314C217.719 146.35 217.731 146.326 217.731 146.16C217.731 145.971 217.731 145.971 217.813 146.03C217.92 146.113 217.991 146.101 218.003 146.007C218.003 145.959 218.038 145.935 218.074 145.947C218.145 145.983 218.121 145.817 218.05 145.687C217.991 145.58 218.003 145.509 218.074 145.592C218.109 145.628 218.145 145.71 218.169 145.781C218.228 145.947 218.299 146.007 218.287 145.864C218.275 145.77 218.263 145.746 218.228 145.699C218.169 145.639 218.133 145.509 218.11 145.32C218.098 145.213 218.086 145.166 218.05 145.13C218.003 145.071 217.802 145.166 217.79 145.26C217.778 145.355 217.517 144.952 217.446 144.692C217.399 144.55 217.387 144.514 217.34 144.585C217.316 144.585 217.387 144.775 217.47 144.941C217.588 145.177 217.6 145.296 217.494 145.308C217.446 145.308 217.411 145.343 217.411 145.379C217.411 145.509 217.363 145.462 217.304 145.249C217.269 145.142 217.221 145 217.198 144.929C217.174 144.858 217.162 144.787 217.174 144.739C217.186 144.704 217.198 144.656 217.198 144.633C217.198 144.573 216.961 144.573 216.83 144.633C216.771 144.656 216.724 144.645 216.676 144.597C216.582 144.491 216.511 144.538 216.546 144.692C216.582 144.834 216.511 144.858 216.001 144.846C215.918 144.846 215.847 144.787 215.824 144.716C215.8 144.621 215.895 144.443 215.942 144.467C215.966 144.479 215.978 144.455 215.966 144.42C215.942 144.325 215.812 144.218 215.765 144.254C215.741 144.266 215.705 144.254 215.682 144.218C215.658 144.171 215.646 144.171 215.634 144.23C215.622 144.277 215.587 144.289 215.504 144.266C215.409 144.242 215.386 144.254 215.362 144.36C215.338 144.479 215.338 144.479 215.267 144.372C215.22 144.277 215.208 144.277 215.208 144.337C215.208 144.396 215.161 144.42 215.018 144.408C214.912 144.408 214.829 144.431 214.817 144.455C214.805 144.491 214.782 144.491 214.734 144.443C214.628 144.337 214.628 144.337 214.675 144.597C214.71 144.787 214.734 144.846 214.782 144.881C214.817 144.917 214.793 144.929 214.71 144.929C214.628 144.929 214.592 144.905 214.592 144.87C214.592 144.834 214.616 144.81 214.628 144.81C214.687 144.81 214.639 144.573 214.568 144.491C214.533 144.443 214.509 144.431 214.485 144.479C214.462 144.526 214.45 144.526 214.414 144.443C214.379 144.372 214.367 144.36 214.355 144.42C214.343 144.467 214.308 144.467 214.26 144.443C214.201 144.408 214.178 144.42 214.189 144.491C214.201 144.538 214.189 144.609 214.178 144.645C214.154 144.704 214.154 144.704 214.201 144.822C214.32 145.095 214.284 145.177 214.083 145.095C213.964 145.047 213.941 145.047 213.929 145.166C213.917 145.284 213.858 145.284 213.799 145.166C213.751 145.071 213.55 145.106 213.479 145.225C213.396 145.355 213.396 145.438 213.491 145.616C213.55 145.722 213.55 145.77 213.538 145.841C213.526 145.924 213.503 145.935 213.36 145.924C213.301 145.912 213.254 146.03 213.277 146.149C213.313 146.362 213.242 146.575 213.124 146.599C213.052 146.611 213.017 146.587 213.041 146.528C213.052 146.551 213.076 146.539 213.052 146.445C212.993 146.433 213.017 146.22 213.076 146.196C213.147 146.172 213.147 145.983 213.088 145.841C213.052 145.77 213.041 145.699 213.041 145.592C213.041 145.462 213.029 145.414 212.97 145.32C212.934 145.249 212.898 145.142 212.898 145.083C212.887 144.893 212.851 144.881 212.851 145.071C212.851 145.249 212.839 145.272 212.685 145.355C212.662 145.367 212.626 145.438 212.614 145.497C212.602 145.568 212.567 145.628 212.543 145.651C212.472 145.699 212.472 145.805 212.531 145.912C212.567 145.983 212.579 145.983 212.602 145.864C212.626 145.699 212.65 145.699 212.662 145.876C212.662 145.995 212.673 146.007 212.721 145.983C212.756 145.959 212.78 145.983 212.804 146.054C212.816 146.113 212.863 146.16 212.898 146.172C213.017 146.196 212.958 146.48 212.827 146.492C212.745 146.492 212.733 146.504 212.733 146.67C212.733 146.788 212.721 146.847 212.697 146.836C212.65 146.824 212.626 146.693 212.65 146.563C212.673 146.421 212.662 146.314 212.626 146.314C212.579 146.314 212.52 146.457 212.52 146.587C212.52 146.764 212.484 146.812 212.448 146.717C212.413 146.646 212.401 146.646 212.354 146.729C212.318 146.8 212.294 146.812 212.223 146.753C212.176 146.717 212.129 146.705 212.117 146.729C212.069 146.812 212.034 146.764 212.01 146.634C211.998 146.516 211.987 146.504 211.915 146.504C211.856 146.504 211.833 146.528 211.844 146.599C211.844 146.658 211.856 146.776 211.856 146.859C211.856 147.025 211.856 147.025 212.022 147.108C212.117 147.155 212.259 147.179 212.33 147.155C212.401 147.143 212.484 147.155 212.508 147.191C212.531 147.226 212.567 147.238 212.579 147.215C212.638 147.132 212.78 147.12 212.827 147.203C212.875 147.274 212.898 147.274 212.958 147.191C213.005 147.132 213.076 147.108 213.171 147.132C213.254 147.143 213.384 147.167 213.455 147.179C213.704 147.203 213.929 147.262 213.929 147.297C213.941 147.38 213.87 147.404 213.585 147.44C213.431 147.451 213.171 147.475 213.029 147.487C212.579 147.475 211.371 147.203 210.944 146.942ZM219.01 144.668C219.021 144.704 219.045 144.739 219.069 144.763C219.128 144.81 219.128 144.81 219.092 144.704C219.081 144.656 219.045 144.609 219.021 144.609C219.01 144.609 219.01 144.633 219.01 144.668ZM218.808 144.799C218.82 144.976 218.915 145.177 218.974 145.177C218.998 145.177 219.033 145.272 219.033 145.331C219.033 145.355 219.057 145.403 219.092 145.462C219.152 145.533 219.164 145.533 219.164 145.438C219.175 145.32 219.14 145.213 219.069 145.177C219.01 145.154 218.998 145.095 218.986 144.952C218.986 144.822 218.95 144.727 218.891 144.633C218.82 144.526 218.785 144.597 218.808 144.799ZM218.559 144.822C218.571 144.988 218.607 145.035 218.702 145.012C218.785 144.988 218.796 144.941 218.725 144.799C218.666 144.645 218.548 144.656 218.559 144.822ZM218.417 144.988C218.394 145.047 218.429 145.118 218.488 145.154C218.559 145.201 218.559 145.154 218.488 145.035C218.441 144.929 218.441 144.941 218.417 144.988ZM218.098 145.13C218.133 145.343 218.252 145.521 218.252 145.367C218.252 145.308 218.275 145.284 218.323 145.308C218.441 145.367 218.441 145.462 218.334 145.533C218.252 145.58 218.382 145.781 218.524 145.841C218.595 145.876 218.607 145.864 218.548 145.722C218.512 145.639 218.488 145.533 218.477 145.485C218.477 145.438 218.453 145.355 218.429 145.308C218.406 145.26 218.394 145.201 218.394 145.177C218.417 145.047 218.334 144.964 218.204 144.976C218.074 144.964 218.074 144.976 218.098 145.13ZM215.208 142.217C215.196 142.075 215.172 142.063 215.161 142.181C215.161 142.229 215.161 142.3 215.184 142.335C215.22 142.418 215.232 142.383 215.208 142.217ZM215.338 143.365C215.267 143.223 215.243 143.283 215.279 143.472C215.315 143.685 215.326 143.685 215.338 143.365ZM215.397 142.252C215.386 142.217 215.362 142.169 215.338 142.157C215.279 142.122 215.255 142.157 215.303 142.264C215.338 142.371 215.421 142.359 215.397 142.252ZM214.995 141.826C215.03 141.956 215.338 141.968 215.362 141.838C215.374 141.743 215.338 141.625 215.279 141.589C215.255 141.577 215.22 141.553 215.208 141.601C215.208 141.636 215.161 141.636 215.089 141.601C214.947 141.553 214.936 141.601 214.995 141.826ZM213.929 142.821C214.024 142.856 214.083 142.833 214.071 142.75C214.059 142.679 213.988 142.619 213.953 142.655C213.941 142.667 213.905 142.702 213.87 142.726C213.799 142.75 213.81 142.761 213.929 142.821ZM213.503 144.846C213.503 144.846 213.562 144.893 213.645 144.905C213.716 144.917 213.775 144.905 213.775 144.881C213.763 144.799 213.881 144.822 213.929 144.905C213.953 144.952 213.976 144.941 213.988 144.87C214.012 144.739 214 144.68 213.941 144.645C213.822 144.573 213.787 144.585 213.775 144.656C213.763 144.704 213.728 144.727 213.656 144.716C213.562 144.68 213.491 144.751 213.503 144.846ZM213.076 145.308C213.088 145.367 213.112 145.391 213.124 145.379C213.135 145.32 213.112 145.213 213.076 145.308ZM212.33 145.343C212.33 145.391 212.33 145.462 212.342 145.485C212.354 145.545 212.413 145.438 212.413 145.343C212.425 145.237 212.342 145.237 212.33 145.343ZM212.259 145.817C212.306 145.971 212.377 145.995 212.401 145.876C212.437 145.699 212.389 145.616 212.283 145.663C212.223 145.687 212.223 145.699 212.259 145.817ZM212.046 145.474C212.046 145.533 212.046 145.604 212.058 145.651C212.069 145.699 212.081 145.781 212.081 145.853C212.093 146.125 212.152 145.959 212.141 145.675C212.141 145.426 212.129 145.403 212.093 145.391C212.069 145.379 212.046 145.414 212.046 145.474ZM211.975 145.781C211.987 145.9 212.046 146.054 212.058 146.007C212.069 145.983 212.058 145.912 212.046 145.829C212.01 145.663 211.963 145.628 211.975 145.781ZM211.702 145.58C211.702 145.758 211.738 145.793 211.773 145.639C211.797 145.556 211.785 145.521 211.762 145.45C211.726 145.343 211.702 145.391 211.702 145.58ZM211.525 146.563C211.548 146.682 211.596 146.693 211.596 146.587C211.596 146.433 211.572 146.397 211.525 146.445C211.513 146.457 211.513 146.492 211.525 146.563ZM210.269 144.42C210.246 144.408 210.234 144.443 210.222 144.562C210.222 144.645 210.234 144.787 210.246 144.881C210.269 145.035 210.269 145.035 210.317 144.929C210.388 144.716 210.364 144.455 210.269 144.42ZM219.732 144.526C219.768 144.633 219.862 144.68 219.85 144.597C219.85 144.562 219.827 144.502 219.815 144.467C219.767 144.36 219.696 144.42 219.732 144.526ZM216.712 145.509C216.747 145.509 216.712 145.402 216.665 145.367C216.605 145.331 216.617 145.509 216.665 145.592C216.7 145.545 216.7 145.509 216.712 145.509ZM214.272 147.262C214.331 147.333 214.58 147.297 214.545 147.226C214.533 147.179 214.45 147.167 214.272 147.262ZM216.759 144.893C216.783 145.035 216.807 145.083 216.819 145.106C216.795 144.941 216.759 144.893 216.759 144.893ZM213.988 146.066C214 146.16 214.047 146.149 214.012 145.983C213.988 145.995 213.988 146.03 213.988 146.066ZM214.533 144.964C214.568 144.964 214.557 144.893 214.521 144.822C214.485 144.751 214.462 144.775 214.485 144.87C214.485 144.917 214.509 144.964 214.533 144.964Z" fill="#E6E6E6"/>
<path d="M127.213 127.555L126.183 127.863C124.051 128.561 112.611 132.043 107.032 128.111C104.984 126.667 103.953 124.333 103.953 121.171C103.953 117.962 105.019 115.558 107.115 113.994C109.389 112.324 112.611 111.78 115.773 111.78C120.38 111.78 124.892 112.917 126.183 113.272L127.213 113.497V84.1495H150.438C149.668 87.0037 147.086 98.0061 151.409 103.833C153.173 106.213 155.862 107.41 159.415 107.41C162.932 107.41 165.55 106.225 167.196 103.892C171.293 98.089 168.131 87.0274 167.184 84.1377H181.905C179.584 97.3784 175.249 104.97 171.507 114.977C166.935 127.259 171.246 138.237 173.2 143.318C174.574 146.883 179.738 156.097 182.698 161.296H127.201V127.555H127.213Z" fill="#DF8056"/>
<path d="M184.854 167.481C184.854 167.481 180.543 179.099 161.085 187.081C144.445 193.263 133.408 192.304 127.166 190.492V164.804H183.303C184.239 166.439 184.854 167.481 184.854 167.481Z" fill="#A2B8C8"/>
<path d="M81.8187 83.123H61.4011C62.0288 82.4361 62.6565 81.7492 63.2487 81.0387C67.1095 76.479 67.903 68.5441 68.0214 63.8424C68.128 58.8327 68.9925 53.8704 70.6032 49.1213C73.3035 41.2219 78.5737 30.7999 88.5811 24.2151C93.6145 20.9109 99.1216 18.7199 104.427 17.2987C111.557 15.3801 118.911 14.6814 126.183 15.1433V41.7312L127.368 41.3167C129.772 40.535 140.892 37.2426 146.376 41.1153C148.425 42.5602 149.455 44.8933 149.455 48.0554C149.455 51.2649 148.389 53.6691 146.293 55.2324C140.703 59.3657 129.405 56.5588 127.225 55.9548L126.195 55.5877V83.1349H98.636C99.619 80.1504 102.994 69.1244 99.0268 63.3686C97.4398 61.0474 94.8462 59.8749 91.3406 59.8749C87.7877 59.8749 85.0519 61.0947 83.2281 63.4989C78.7987 69.3021 81.12 80.3044 81.8187 83.123Z" fill="#B4EFA8"/>
<path d="M129.701 37.5934V12.5451C133.36 12.1306 149.455 16.2994 158.278 21.3327C181.384 34.5023 186.856 56.2582 185.636 71.5596C185.375 74.7928 185.02 77.7417 184.57 80.442H168.274L168.593 81.4723C169.292 83.6041 172.774 95.0446 168.842 100.623C167.397 102.672 165.064 103.702 161.902 103.702C158.704 103.702 156.288 102.636 154.725 100.54C150.592 94.9498 153.399 83.6515 154.003 81.4723L154.287 80.442H129.701V54.3396C130.103 54.4462 130.695 54.1857 131.394 54.3396C133.49 54.8133 136.712 55.8082 140.063 55.8082C143.427 55.8082 146.873 55.216 149.384 53.3685C151.764 51.6038 152.972 48.9154 152.972 45.3625C152.972 41.8451 151.788 39.2277 149.443 37.5815C144.469 34.076 135.646 36.4091 131.394 37.5934C130.695 37.7947 130.115 37.4631 129.701 37.5934Z" fill="#4EA66C"/>
<path d="M131.406 37.5962V12.5479C141.378 13.3177 151.16 16.3021 159.983 21.3355C183.089 34.5051 188.561 56.261 187.341 71.5624C187.08 74.7955 186.725 77.7445 186.275 80.4447H169.979L170.299 81.4751C170.997 83.6069 174.479 95.0474 170.547 100.625C169.102 102.674 166.769 103.705 163.607 103.705C160.41 103.705 157.994 102.639 156.43 100.543C152.297 94.9526 155.104 83.6542 155.708 81.4751L155.992 80.4447H131.406V54.3424C133.028 54.7924 137.315 55.8109 141.768 55.8109C145.132 55.8109 148.578 55.2188 151.089 53.3713C153.469 51.6066 154.677 48.9182 154.677 45.3653C154.677 41.8478 153.493 39.2305 151.148 37.5843C145.345 33.4866 134.295 36.6487 131.406 37.5962Z" fill="url(#paint0_linear)"/>
<path d="M111.628 134.485C115.323 134.485 118.888 133.099 121.292 132.448C122.098 132.235 122.477 132.33 123.389 132.448V164.792H113.357C112.019 159.391 109.674 153.256 97.8074 155.838C85.1352 158.574 71.6814 157.402 65.1558 154.405C58.6183 151.397 60.7146 142.124 61.6265 134.947C62.5385 127.758 61.4962 127.367 59.6605 124.762C57.8248 122.144 60.9633 120.711 60.9633 120.711C57.0551 118.876 58.7486 116.01 58.7486 116.01C60.3948 114.221 60.6672 111.853 60.5606 110.017C60.4659 108.43 59.3407 107.08 57.7893 106.784C50.032 105.232 48.1253 101.324 47.6397 99.1687C47.2015 97.179 52.4954 92.9865 57.6117 87.6571H80.54L80.09 86.6267C79.5334 84.4358 77.0107 73.1966 81.2506 67.5948C82.8613 65.4748 85.3128 64.3853 88.5342 64.3853C91.6726 64.3853 93.9702 65.4156 95.3677 67.4408C99.0746 72.8058 95.6875 83.7015 94.7756 86.3425L94.2307 87.6571H123.377V115.702C122.891 115.571 122.181 115.891 121.281 115.702C116.934 114.766 108.525 113.084 103.693 116.673C101.313 118.437 100.105 121.126 100.105 124.679C100.105 128.196 101.289 130.814 103.634 132.46C105.802 133.976 108.703 134.485 111.628 134.485Z" fill="#2F5571"/>
<path d="M64.3846 227.394C64.3846 229.241 51.1914 229.087 35.4636 229.087C19.7359 229.087 7.12292 229.241 7.12292 227.394C7.12292 226.032 19.8662 225.748 35.5939 225.748C51.3216 225.748 64.3846 226.624 64.3846 227.394Z" fill="#E6E6E6"/>
<path d="M178.979 55.701C178.837 55.2154 178.73 54.7061 178.801 54.2087C178.872 53.7113 179.145 53.2139 179.607 53.0007C180.388 52.6454 181.3 53.2494 181.75 53.9837C182.2 54.718 182.401 55.5944 182.923 56.2813C183.906 57.5485 184.071 59.3368 181.821 59.1118C180.27 58.9697 179.346 56.9919 178.979 55.701Z" fill="#FFA017"/>
<path d="M182.912 56.0966C183.35 56.2268 183.788 56.5585 184.309 57.1862C185.435 58.5481 186.607 59.8509 187.922 61.0352C190.622 63.4512 193.725 66.6488 197.171 67.8332C202.56 69.6807 207.262 75.4246 212.863 76.1115C214.308 76.2892 213.74 80.7659 214.782 81.7726C217.044 83.9754 213.278 85.515 211.087 86.652C208.789 87.8481 209.002 83.6675 206.527 83.1227C200.902 81.8792 195.608 75.4128 190.764 72.2625C185.695 68.9701 182.012 63.1551 179.122 57.8494C179.051 57.7072 178.968 57.5651 179.004 57.4112C179.051 57.1861 179.3 57.0677 179.525 56.9848C181.088 56.4282 181.988 55.8123 182.912 56.0966Z" fill="#E6E6E6"/>
<path d="M10.5214 175.826C10.403 175.897 10.2727 175.956 10.1306 175.98C9.95294 176.004 9.77529 175.956 9.60949 175.885C8.86337 175.565 8.40149 174.76 8.31859 173.943C8.23569 173.138 8.47253 172.32 8.78045 171.562C9.19496 170.52 9.84634 169.336 10.9241 168.85C11.8241 168.448 12.9137 168.661 12.9848 169.75C13.044 170.674 12.3689 171.87 12.1439 172.77C11.8834 173.896 11.611 175.186 10.5214 175.826Z" fill="#FFA017"/>
<path d="M26.5939 122.059C26.5939 122.059 20.8499 121.929 18.0549 128.727C15.2599 135.525 12.7492 156.641 8.2251 169.16C8.2251 169.16 9.52783 172.712 14.4664 170.569L25.2556 132.73L26.5939 122.059Z" fill="white"/>
<path d="M109.53 134.485C114.457 134.485 119.467 133.04 121.29 132.448V164.792H111.259C109.921 159.391 107.576 153.256 95.7091 155.838C83.0369 158.574 69.5831 157.402 63.0575 154.405C56.52 151.397 58.6163 142.124 59.5282 134.947C60.4402 127.758 59.3979 127.367 57.5622 124.762C55.7265 122.144 58.865 120.711 58.865 120.711C54.9568 118.876 56.6504 116.01 56.6504 116.01C58.2966 114.221 58.5689 111.853 58.4623 110.017C58.3676 108.43 57.2425 107.08 55.6911 106.784C47.9338 105.232 46.027 101.324 45.5415 99.1687C45.1033 97.179 50.3971 92.9865 55.5134 87.6571H78.4417L77.9917 86.6267C77.4351 84.4358 74.9125 73.1966 79.1524 67.5948C80.763 65.4748 83.2145 64.3853 86.4359 64.3853C89.5743 64.3853 91.8719 65.4156 93.2694 67.4408C96.9763 72.8058 93.5892 83.7015 92.6773 86.3425L92.1324 87.6571H121.279V115.702C118.436 114.932 107.434 112.35 101.595 116.673C99.2147 118.437 98.0067 121.126 98.0067 124.679C98.0067 128.196 99.191 130.814 101.536 132.46C103.703 133.976 106.605 134.485 109.53 134.485Z" fill="#406784"/>
<path d="M22.4955 221.141C22.4362 221.567 22.4007 222.041 22.5902 222.432C22.7679 222.787 23.1231 223.024 23.4666 223.237C23.8337 223.462 24.2483 223.651 24.6983 223.793C25.7642 224.161 26.9485 224.338 27.967 224.445C28.2157 224.469 28.4763 224.504 28.6421 224.67C28.8908 224.919 28.8434 225.357 28.6184 225.617C27.5288 226.92 25.4444 226.813 23.9166 226.707C22.6021 226.612 21.2875 226.506 19.9729 226.458C19.1202 226.434 17.7582 226.92 17.1542 226.091C16.7871 225.605 16.9529 224.93 17.1187 224.338C17.2016 224.09 17.2608 223.829 17.32 223.568C18.0661 220.619 18.2201 217.528 18.3859 214.508C18.7294 208.208 17.9714 201.789 19.8781 195.678C20.1387 194.825 20.5769 193.996 20.8729 193.155C21.0743 192.575 21.2046 191.983 21.169 191.367C21.0861 189.744 20.6124 188.157 20.6361 186.523C20.6479 185.706 20.9914 184.841 21.702 184.439C22.0928 184.214 22.5547 184.143 23.0047 184.095C24.8404 183.894 26.913 184.071 28.2157 185.386C29.4356 186.618 29.6606 188.489 29.5895 190.218C29.4356 193.818 28.2039 197.3 27.1735 200.759C25.5392 206.254 24.3548 211.867 23.1705 217.469C22.91 218.677 22.6494 219.909 22.4955 221.141Z" fill="#F9A124"/>
<path d="M54.2715 222.727C53.7148 224.326 51.737 224.965 50.2685 225.403C49.0131 225.782 47.734 226.149 46.4905 226.588C45.697 226.86 44.5956 227.807 43.731 227.251C43.2218 226.919 43.1507 226.22 43.0915 225.616C43.0797 225.463 43.056 225.309 43.0323 225.166C42.7007 222.028 41.7296 218.972 40.7703 215.988C38.8517 209.972 35.8672 204.251 35.4882 197.868C35.429 196.968 35.5474 196.044 35.5119 195.144C35.3816 191.094 32.5748 186.214 34.5407 182.27C35.2869 180.778 36.7909 179.629 38.449 179.464C40.1189 179.298 41.8835 180.186 42.6178 181.69C42.9968 182.484 43.0915 183.384 43.1626 184.26C43.5771 189.518 43.731 194.765 44.0982 200.023C44.5127 205.744 45.4128 211.416 46.301 217.078C46.5023 218.309 46.6918 219.529 46.9761 220.737C47.0827 221.163 47.2129 221.613 47.5327 221.91C47.8288 222.17 48.2433 222.277 48.6341 222.348C48.9539 222.419 49.3092 222.431 49.6645 222.431C50.8725 222.442 52.1989 222.158 53.2766 221.862C53.5135 221.803 53.7622 221.744 53.9872 221.827C54.2833 221.969 54.3781 222.395 54.2715 222.727Z" fill="#F9A124"/>
<path d="M24.3194 123.268C22.8153 125.4 22.8864 128.337 22.4719 130.907C21.8442 134.709 22.4719 146.019 22.4127 148.459C22.3416 151.502 20.9678 155.411 20.3046 158.383C19.3927 162.528 18.7057 166.733 18.0307 170.925C17.1187 176.515 16.2187 182.105 15.3068 187.695C15.2475 188.027 15.2001 188.382 15.3541 188.678C15.5081 188.986 15.8397 189.14 16.1595 189.282C21.7968 191.734 21.9745 189.329 31.0345 189.827C39.8813 190.312 46.7385 192.409 48.29 189.578C48.9769 188.335 44.9857 158.052 44.8673 150.01C44.7489 142.276 46.0871 140.642 45.5424 132.932C45.4002 130.848 44.8436 128.834 44.5357 126.774C43.683 120.982 38.7089 121.669 34.1019 120.982C30.2055 120.39 26.7236 119.846 24.3194 123.268Z" fill="white"/>
<path d="M28.6309 225.616C27.5413 226.919 25.4569 226.812 23.9291 226.705C22.6145 226.611 21.2999 226.504 19.9853 226.457C19.1326 226.433 17.7707 226.919 17.1667 226.089C16.7995 225.604 16.9653 224.929 17.1311 224.337C17.214 224.088 17.2733 223.827 17.3325 223.567C19.0971 224.242 21.1342 224.372 22.9698 224.124C23.5502 224.041 24.1186 223.922 24.7108 223.792C25.7767 224.159 26.961 224.337 27.9795 224.443C28.2282 224.467 28.4887 224.503 28.6546 224.668C28.9033 224.905 28.8441 225.343 28.6309 225.616Z" fill="#014769"/>
<path d="M54.2704 222.73C53.7138 224.329 51.736 224.969 50.2674 225.407C49.012 225.786 47.733 226.153 46.4894 226.591C45.6959 226.863 44.5945 227.811 43.73 227.254C43.2207 226.923 43.1497 226.224 43.0905 225.62C43.0786 225.466 43.0549 225.312 43.0312 225.17C44.8196 225.04 46.6079 224.376 48.1001 223.476C48.6331 223.157 49.1423 222.789 49.6516 222.422C50.8596 222.434 52.186 222.15 53.2638 221.854C53.5006 221.795 53.7493 221.735 53.9743 221.818C54.2822 221.972 54.377 222.399 54.2704 222.73Z" fill="#014769"/>
<path d="M75.779 105.136C75.9093 105.101 76.0396 105.077 76.1699 105.089C76.3357 105.113 76.4897 105.184 76.6199 105.29C77.2358 105.74 77.4608 106.581 77.3542 107.339C77.2476 108.097 76.8568 108.772 76.4068 109.388C75.7909 110.241 74.9382 111.176 73.8605 111.366C72.9604 111.532 72.013 111.094 72.1906 110.099C72.3446 109.246 73.221 108.31 73.6236 107.552C74.1211 106.581 74.6539 105.48 75.779 105.136Z" fill="#FFA017"/>
<path d="M72.5092 108.821C72.071 108.951 71.6327 109.283 71.1116 109.911C69.9865 111.272 68.8141 112.575 67.4995 113.76C64.7992 116.176 61.649 118.153 58.2145 119.338C52.8258 121.185 47.0463 120.984 41.4445 121.671C39.9997 121.848 38.4838 122.168 37.4416 123.187C35.1795 125.39 37.7139 129.025 39.9049 130.174C42.2025 131.37 45.2107 131.43 47.6859 130.885C53.3114 129.641 59.2448 126.87 64.0886 123.72C69.1575 120.427 73.4211 115.891 76.299 110.586C76.37 110.443 76.453 110.301 76.4174 110.147C76.3701 109.922 76.1213 109.804 75.8963 109.721C74.333 109.164 73.433 108.549 72.5092 108.821Z" fill="white"/>
<path d="M207.805 70.3162C207.722 68.9779 208.29 67.6988 208.74 66.4316C209.285 64.8683 209.652 63.2221 209.546 61.5759C209.439 59.9297 208.847 58.2717 207.674 57.111C206.336 55.7728 204.382 55.1924 202.487 55.2043C201.48 55.2043 200.45 55.3701 199.609 55.903C197.762 57.0637 197.323 59.527 197.205 61.5285C197.039 64.2051 197.394 66.8817 198.437 69.3687C198.602 69.7595 198.78 70.1504 199.088 70.4583C199.941 71.3347 201.682 70.2451 202.12 71.465C202.321 72.0453 202.534 75.5982 202.961 76.0956C203.908 77.2089 208.681 74.3547 208.953 74.9587C208.527 74.0112 207.876 71.3584 207.805 70.3162Z" fill="#FFA017"/>
<path d="M215.48 74.6647C217.233 76.5951 216.653 98.0313 217.067 100.601C217.695 104.403 223.913 141.567 223.759 141.863C223.605 142.171 192.386 145.593 190.823 142.763C190.136 141.519 193.026 93.8388 193.559 86.1289C193.701 84.0445 194.258 82.0311 194.565 79.9704C195.418 74.1791 200.392 74.866 204.999 74.1791C208.919 73.5751 212.543 71.4433 215.48 74.6647Z" fill="white"/>
<path d="M161.819 60.2265C161.76 59.7291 161.724 59.208 161.866 58.7225C162.008 58.2369 162.352 57.7868 162.837 57.6447C163.666 57.4079 164.472 58.1421 164.815 58.9475C165.147 59.741 165.218 60.641 165.632 61.399C166.414 62.7965 166.308 64.5848 164.117 64.04C162.612 63.6492 161.985 61.553 161.819 60.2265Z" fill="#FFA017"/>
<path d="M166.614 62.0027C167.052 62.1329 167.49 62.4645 168.011 63.0922C169.136 64.4542 170.309 65.7569 171.623 66.9413C174.323 69.3573 177.474 71.3351 180.908 72.5194C186.297 74.3669 190.738 75.3618 197.678 74.8525C199.123 74.7459 207.247 73.6919 208.704 73.3366C211.772 72.5905 201.409 82.2071 199.218 83.344C196.92 84.5402 193.912 84.5994 191.437 84.0546C185.811 82.8111 179.878 80.0398 175.034 76.8895C169.965 73.5971 165.702 69.0612 162.824 63.7554C162.753 63.6133 162.67 63.4712 162.705 63.3173C162.753 63.0922 163.001 62.9738 163.226 62.8909C164.79 62.3461 165.69 61.7303 166.614 62.0027Z" fill="white"/>
<path d="M35.9372 60.0015C35.9254 60.8661 35.8662 61.7425 35.8307 62.607C35.7951 63.5308 35.8307 64.5138 35.6293 65.4257C35.8188 65.9231 35.4161 66.5863 34.7174 66.4679C33.8055 66.3258 32.9173 66.1482 31.9935 66.0653C31.9343 66.0534 31.875 66.0534 31.8277 66.0416C32.4198 68.3155 32.1237 71.146 29.2695 71.4184C28.0734 71.5368 26.8298 71.0157 26.2377 69.9261C25.7166 68.9431 25.7166 67.2377 26.214 66.1363C25.1955 66.1837 24.1415 66.0889 23.1111 66.0771C22.0808 66.0652 21.0148 66.1482 19.9845 65.8995C19.7358 65.8521 19.5108 65.6626 19.4989 65.3191C19.4279 63.4716 19.3213 61.3161 19.8069 59.516C19.8069 59.4805 19.8306 59.4686 19.8542 59.4449C19.8661 59.0304 20.1858 58.6277 20.6951 58.7935C21.607 59.1015 22.7084 59.3028 23.644 58.9712C24.6507 58.604 24.9823 57.5382 24.5323 56.6144C23.7032 54.9208 21.9149 55.2169 20.3516 55.2524C20.2095 55.3235 20.0437 55.3235 19.9016 55.2524C19.8542 55.2524 19.795 55.2643 19.7358 55.2524C19.4989 55.2524 19.3094 54.9208 19.5463 54.7195C19.416 53.0615 19.4871 51.1902 19.7477 49.5203C19.6055 49.4256 19.5581 49.2361 19.6884 49.1058C20.3398 48.4663 21.2636 48.5374 22.1281 48.5018C23.0756 48.4545 24.0112 48.4545 24.9586 48.4663C24.556 47.4359 24.5678 46.0503 24.781 45.1739C25.1126 43.8356 26.2022 42.8053 27.576 42.6158C28.8432 42.4381 30.1696 43.0658 30.8328 44.1791C31.6263 45.4937 31.4605 46.9977 31.0223 48.3952C31.6027 48.3479 32.183 48.3479 32.7751 48.3597C33.6752 48.3716 34.6582 48.2768 35.4635 48.715C35.7122 48.8571 35.7596 49.1295 35.6767 49.3545C36.032 50.1243 36.0202 51.0718 36.0557 51.9008C36.0794 52.6706 36.0438 53.4404 35.9846 54.1984C36.79 54.0326 37.7848 54.1036 38.2467 54.151C39.81 54.305 41.3496 55.1458 41.8115 56.7447C42.7352 60.0015 38.448 61.0319 35.9372 60.0015Z" fill="#DEF3E9"/>
<path d="M215.894 31.4699C216.001 31.5528 216.036 31.695 215.93 31.7897C215.444 32.2634 214.757 32.2161 214.106 32.2397C213.395 32.2753 212.685 32.2753 211.974 32.2634C212.282 33.0451 212.27 34.0873 212.105 34.7386C211.856 35.7453 211.039 36.527 210.008 36.6691C209.049 36.7994 208.066 36.3256 207.557 35.4966C206.965 34.5018 207.095 33.3767 207.415 32.3226C206.976 32.3582 206.538 32.3582 206.112 32.3463C205.425 32.3345 204.691 32.4055 204.087 32.0739C203.897 31.9673 203.862 31.766 203.921 31.6002C203.66 31.0199 203.66 30.3093 203.637 29.6935C203.613 29.1131 203.637 28.5328 203.684 27.9525C203.092 28.0828 202.334 28.0354 201.99 27.9999C200.818 27.8814 199.657 27.2419 199.314 26.0458C198.615 23.5942 201.836 22.8244 203.72 23.5942C203.731 22.9429 203.779 22.2915 203.802 21.6401C203.838 20.9414 203.802 20.2071 203.956 19.5202C203.814 19.153 204.11 18.6556 204.643 18.7385C205.33 18.8451 205.993 18.9872 206.692 19.0464C206.74 19.0464 206.775 19.0464 206.822 19.0583C206.372 17.3529 206.597 15.2211 208.729 15.0198C209.641 14.925 210.577 15.3158 211.015 16.1449C211.406 16.8791 211.406 18.1582 211.027 18.9872C211.797 18.9517 212.59 19.0228 213.36 19.0346C214.142 19.0346 214.935 18.9754 215.717 19.1649C215.906 19.2004 216.072 19.3425 216.072 19.6031C216.131 20.9887 216.214 22.6112 215.847 23.9614C215.847 23.985 215.823 23.9969 215.811 24.0206C215.811 24.3285 215.563 24.6364 215.184 24.5061C214.497 24.2811 213.668 24.1153 212.957 24.3759C212.211 24.6483 211.962 25.4536 212.294 26.1405C212.922 27.4196 214.272 27.1945 215.432 27.159C215.551 27.1235 215.669 27.1235 215.776 27.159H215.906C216.084 27.1709 216.226 27.4196 216.048 27.5617C216.143 28.8171 216.084 30.2264 215.894 31.4699Z" fill="#DEF3E9"/>
<path d="M203.743 66.6675C203.708 65.5306 204.726 64.7016 204.857 63.4225C204.928 62.7711 204.525 61.9066 203.85 61.7289C203.163 61.5631 202.464 62.4395 201.872 61.6934C201.6 61.3499 201.612 60.8762 201.422 60.4854C201.067 59.763 200.167 59.5498 199.397 59.3248C198.781 59.1353 198.189 58.8747 197.68 58.4721C196.377 57.4299 195.832 55.3099 196.673 53.8295C197.372 52.5978 198.971 51.9702 200.321 52.3965C201.091 52.6334 201.73 53.1545 202.464 53.4861C203.222 53.8295 204.051 53.948 204.857 54.1375C206.55 54.5283 208.208 55.2626 209.452 56.4706C211.134 58.1168 211.667 60.6038 211.382 62.8659C211.24 64.0383 210.897 65.27 210.269 66.2767C209.772 67.0939 209.227 68.4795 208.291 68.8467C207.971 68.977 207.628 68.9888 207.296 69.0006C206.716 69.0125 206.124 69.0125 205.567 68.8585C205.011 68.7046 204.478 68.3848 204.17 67.8992C203.862 67.4373 203.755 67.0347 203.743 66.6675Z" fill="#1D1D1D"/>
<path d="M208.826 95.0571C208.873 95.0571 208.92 95.1163 208.944 95.1992C208.719 95.2584 208.695 95.0571 208.826 95.0571ZM213.184 126.69C213.29 126.88 213.373 126.927 213.373 126.927C213.302 126.726 213.231 126.678 213.184 126.69ZM212.284 122.735C212.13 122.758 212.118 123.125 212.26 123.244C212.319 123.279 212.402 123.291 212.45 123.244C212.568 123.137 212.438 122.711 212.284 122.735ZM212.9 125.103C212.852 125.139 212.829 125.234 212.84 125.316C213.065 125.08 213.03 124.985 212.9 125.103ZM212.082 125.482C212.094 125.601 212.154 125.695 212.201 125.695C212.248 125.684 212.272 125.612 212.26 125.518C212.248 125.423 212.189 125.328 212.142 125.305C212.082 125.281 212.059 125.352 212.082 125.482ZM214.925 132.292C215.02 132.493 215.055 132.482 215.197 132.209C215.304 132.008 215.304 131.972 215.174 131.889C214.984 131.759 214.818 132.043 214.925 132.292ZM217.009 134.791C217.068 134.838 217.163 134.838 217.211 134.791C217.305 134.696 217.293 134.578 217.187 134.542C217.033 134.483 216.879 134.708 217.009 134.791ZM214.51 130.516C214.463 130.634 214.617 130.942 214.723 130.918C214.771 130.906 214.783 130.788 214.759 130.646C214.7 130.397 214.581 130.326 214.51 130.516ZM218.099 138.841C218.134 138.995 218.336 139.161 218.454 139.126C218.537 139.102 218.525 139.043 218.395 138.806C218.276 138.604 218.051 138.628 218.099 138.841ZM212.331 122.415C212.426 122.213 212.39 122.154 212.154 122.083C212.035 122.048 211.928 121.953 211.917 121.894C211.905 121.835 211.81 121.752 211.692 121.728C211.573 121.704 211.407 121.586 211.313 121.467C211.609 121.444 211.763 121.384 212.154 121.077C212.011 120.911 211.952 120.78 211.94 120.674C211.929 120.567 211.857 120.473 211.775 120.449C211.561 120.39 211.478 120.413 211.49 120.544C211.502 120.603 211.431 120.733 211.348 120.84C211.206 121.005 211.194 121.005 211.123 120.852C210.851 120.224 210.685 120.307 210.792 121.005C210.922 121.823 211.171 122.166 211.55 122.048C211.798 121.977 211.834 121.988 211.905 122.225C212.023 122.51 212.248 122.604 212.331 122.415ZM207.298 96.7152C207.357 96.6796 207.369 96.3599 207.227 95.5901C207.132 95.8032 207.191 96.7744 207.298 96.7152ZM210.685 102.518C210.803 102.518 210.709 99.7825 210.614 99.6641C210.436 99.4865 210.389 99.6523 210.377 100.469C210.401 101.808 210.507 102.518 210.685 102.518ZM210.555 98.16C210.649 98.0653 210.626 97.9587 210.484 97.9587C210.413 97.9587 210.353 98.0179 210.353 98.089C210.353 98.2192 210.46 98.2548 210.555 98.16ZM210.377 108.049C210.602 108.132 210.685 108.085 210.673 108.037C210.472 107.966 210.401 108.002 210.377 108.049ZM209.773 107.09C209.785 107.267 209.927 107.232 209.963 107.054C209.998 106.853 209.749 106.652 209.631 106.794C209.714 106.948 209.761 107.019 209.773 107.09ZM207.689 102.376C207.689 102.281 207.641 102.187 207.594 102.151C207.547 102.116 207.511 102.199 207.511 102.317C207.511 102.435 207.558 102.542 207.606 102.542C207.653 102.542 207.689 102.471 207.689 102.376ZM207.535 99.5694C207.511 99.2614 207.499 98.6693 207.499 98.2548C207.487 97.4494 207.357 96.9639 207.262 97.4257C207.239 97.5679 207.227 97.8166 207.239 97.9824C207.25 98.1482 207.274 98.7048 207.298 99.2141C207.322 99.7233 207.357 100.233 207.381 100.351C207.535 100.233 207.558 99.8773 207.535 99.5694ZM209.88 74.7224C210.057 74.296 210.436 73.6328 210.839 72.9696C212.521 72.8156 214.084 73.1236 215.481 74.6632C217.234 76.5936 216.654 98.0297 217.068 100.6C217.696 104.401 223.914 141.565 223.76 141.861C223.724 141.932 222.208 142.146 219.852 142.406C220.041 142.3 220.006 142.051 219.757 141.103C219.603 140.547 219.52 140.357 219.378 140.251C219.176 140.109 219.236 139.966 219.473 140.002C219.638 140.026 219.638 139.907 219.461 139.801C219.366 139.741 219.366 139.682 219.437 139.54C219.591 139.268 219.532 139.173 219.177 139.149C218.904 139.126 218.857 139.09 218.798 138.853C218.762 138.699 218.667 138.545 218.584 138.51C218.407 138.427 218.359 138.297 218.49 138.273C218.537 138.261 218.62 138.32 218.667 138.403C218.75 138.557 219.07 138.64 219.034 138.379C218.952 138.344 218.88 138.249 218.786 138.024C218.738 138.036 218.596 137.977 218.478 137.894C218.253 137.752 218.253 137.752 218.158 137.977C217.992 138.356 217.637 137.989 217.732 137.503C217.767 137.314 217.826 137.183 217.862 137.207C217.897 137.231 217.98 137.136 218.04 137.006C218.111 136.875 218.229 136.745 218.324 136.721C218.442 136.698 218.478 136.638 218.43 136.544C218.395 136.449 218.288 136.425 218.122 136.461C217.779 136.532 217.661 136.236 217.933 135.999C218.075 135.881 218.099 135.821 217.874 135.738C217.85 135.892 217.649 135.928 217.554 135.786C217.507 135.715 217.495 135.596 217.519 135.513C217.72 134.732 217.613 134.211 217.293 134.329C217.199 134.365 217.128 134.294 217.057 134.092C216.974 133.855 216.926 133.82 216.772 133.867C216.512 133.962 216.263 133.654 216.476 133.334C216.311 133.37 216.014 132.908 215.991 132.541C215.979 132.245 215.932 132.174 215.73 132.055C215.434 131.901 215.422 131.842 215.635 131.688C215.754 131.605 215.789 131.51 215.742 131.404C215.707 131.309 215.647 131.084 215.612 130.906C215.576 130.717 215.446 130.468 215.339 130.362C215.138 130.16 215.138 130.137 215.245 129.864C215.304 129.71 215.316 129.556 215.268 129.544C215.102 129.462 214.806 129.094 214.783 128.929C214.771 128.834 214.712 128.739 214.652 128.715C214.593 128.692 214.558 128.573 214.57 128.455C214.581 128.325 214.534 128.182 214.463 128.123C214.356 128.04 214.356 127.957 214.439 127.709C214.534 127.413 214.534 127.401 214.321 127.14C214.013 126.773 214.001 126.513 214.297 126.216C213.942 126.205 213.48 125.376 213.468 124.724C213.468 124.452 213.421 124.322 213.302 124.227C213.172 124.12 213.16 124.049 213.219 123.848C213.29 123.611 213.125 123.398 212.888 123.433C212.781 123.445 212.757 123.125 212.864 123.066C212.923 123.043 212.888 122.9 212.758 122.652C212.509 122.166 212.509 122.071 212.71 122.048C212.911 122.024 212.911 121.87 212.71 121.692C212.627 121.621 212.497 121.325 212.426 121.041C212.355 120.757 212.26 120.484 212.213 120.425C212.165 120.366 212.13 120.283 212.118 120.236C212.118 120.188 212.011 120.165 211.893 120.176C211.775 120.188 211.597 120.141 211.502 120.07C211.336 119.951 211.253 119.94 210.792 119.963C210.649 119.975 210.602 119.892 210.507 119.513C210.436 119.253 210.342 119.004 210.282 118.945C210.081 118.755 209.844 117.453 209.974 117.299C210.057 117.192 210.33 117.381 210.389 117.583C210.46 117.855 210.626 117.737 210.649 117.393C210.661 117.216 210.626 117.026 210.543 116.884C210.472 116.766 210.389 116.6 210.353 116.517C210.27 116.304 210.164 116.339 210.069 116.612C209.974 116.896 209.844 116.92 209.726 116.659C209.287 115.735 209.134 115.143 208.849 113.414C208.766 112.917 208.636 112.23 208.565 111.898C208.411 111.164 207.89 107.338 207.819 106.486C207.783 106.154 207.748 105.254 207.7 104.508C207.606 102.85 207.724 103.004 207.914 104.769C207.985 105.467 208.08 106.083 208.115 106.13C208.151 106.178 208.198 106.332 208.198 106.474C208.222 107.232 208.293 107.741 208.364 107.777C208.411 107.8 208.458 108.108 208.47 108.452C208.494 108.843 208.553 109.174 208.648 109.328C208.814 109.624 208.849 109.849 208.778 110.181C208.731 110.382 208.778 110.465 209.015 110.666C209.276 110.891 209.299 110.939 209.216 111.199C209.098 111.578 209.145 111.91 209.299 112.111C209.37 112.206 209.418 112.372 209.406 112.502C209.37 112.763 209.607 112.905 209.785 112.727C209.927 112.585 210.034 112.751 209.927 112.976C209.88 113.071 209.773 113.165 209.678 113.165C209.441 113.177 209.382 113.45 209.595 113.58C209.738 113.675 209.773 113.663 209.832 113.556C209.915 113.378 210.093 113.367 210.365 113.521C210.519 113.604 210.59 113.615 210.626 113.532C210.697 113.39 210.495 112.336 210.353 112.147C210.199 111.934 210.732 111.353 211.111 111.33C211.313 111.318 211.36 111.282 211.313 111.176C211.277 111.105 211.253 111.01 211.253 111.01C211.253 110.927 210.993 110.998 210.756 111.152C210.424 111.365 210.259 111.247 210.235 110.761C210.223 110.572 210.176 110.37 210.117 110.311C209.927 110.133 209.998 109.991 210.282 109.979C210.436 109.979 210.638 109.956 210.72 109.932C210.827 109.908 210.922 109.968 210.993 110.086C211.052 110.193 211.123 110.299 211.147 110.323C211.242 110.406 211.194 109.316 211.088 108.641C211.04 108.345 211.04 108.108 211.099 107.99C211.242 107.694 211.147 107.303 210.934 107.279C210.744 107.256 210.649 106.888 210.638 104.638C210.638 104.247 210.697 103.987 210.803 103.987C210.922 103.987 211.182 104.579 211.159 104.816C211.147 104.922 211.182 105.005 211.23 105.005C211.372 105.005 211.502 104.567 211.443 104.307C211.419 104.188 211.431 104.046 211.49 103.987C211.561 103.916 211.55 103.857 211.478 103.762C211.407 103.679 211.384 103.466 211.407 103.146C211.431 102.743 211.407 102.613 211.265 102.412C211.088 102.175 211.088 102.163 211.242 101.997C211.36 101.855 211.372 101.808 211.277 101.76C211.194 101.713 211.159 101.441 211.147 100.848C211.135 100.387 211.111 99.9483 211.064 99.8891C211.017 99.8181 211.017 99.6878 211.088 99.5101C211.23 99.1312 211.23 99.1193 210.874 99.1312C210.614 99.143 210.543 99.1785 210.495 99.3562C210.46 99.4983 210.436 99.3799 210.436 99.0246C210.436 98.6811 210.472 98.5035 210.519 98.539C210.567 98.5745 210.602 98.6693 210.602 98.764C210.602 99.0127 210.922 98.9772 211.04 98.7285C211.111 98.5864 211.111 98.4798 211.052 98.3495C210.981 98.2192 210.993 98.1482 211.088 98.0653C211.182 97.9824 211.194 97.935 211.123 97.8403C211.064 97.7692 211.052 97.5915 211.088 97.3784C211.135 97.106 211.123 97.0349 211.028 97.0349C210.957 97.0349 210.863 96.9639 210.827 96.881C210.756 96.7388 210.732 96.7388 210.578 96.881C210.211 97.2007 210.105 96.9994 210.199 96.1585C210.259 95.6374 210.247 95.5545 210.093 95.4243C209.927 95.2703 209.927 95.0216 210.093 94.8202C210.211 94.6781 210.176 93.7188 210.022 93.328C209.856 92.8898 209.749 92.8543 209.501 93.174C209.347 93.3635 209.299 93.3872 209.193 93.2806C209.074 93.174 209.062 93.0556 209.086 92.4516C209.098 92.1792 208.944 91.9424 208.79 91.9897C208.506 92.0608 208.21 91.6581 208.186 91.1607C208.174 90.8646 208.198 90.6988 208.293 90.8409C208.257 90.912 208.269 90.9949 208.399 90.9357C208.411 90.687 208.695 90.8528 208.731 91.1252C208.766 91.4449 209.015 91.5278 209.205 91.291C209.299 91.1607 209.394 91.137 209.548 91.1844C209.714 91.2318 209.785 91.1962 209.915 90.9949C210.01 90.8528 210.14 90.7462 210.223 90.7462C210.472 90.758 210.484 90.6041 210.247 90.5567C210.01 90.5093 209.974 90.4383 209.868 89.6685C209.844 89.5382 209.761 89.3724 209.678 89.3013C209.595 89.2303 209.501 89.0645 209.477 88.9223C209.418 88.6026 209.276 88.5434 209.122 88.7802C209.015 88.946 209.027 88.9816 209.181 89.1C209.406 89.2658 209.394 89.3961 209.169 89.3724C209.015 89.3605 208.991 89.3961 209.027 89.6093C209.051 89.7751 209.027 89.8935 208.932 89.9646C208.861 90.0238 208.79 90.2014 208.778 90.3554C208.755 90.8646 208.364 90.4856 208.352 89.9409C208.352 89.5737 208.328 89.5264 208.115 89.4908C207.961 89.4553 207.89 89.3961 207.89 89.2895C207.902 89.1 208.091 89.0289 208.257 89.1474C208.435 89.2895 208.589 89.2658 208.589 89.1C208.601 88.8987 208.411 88.6026 208.233 88.5671C207.997 88.5197 207.937 88.3776 208.068 88.1881C208.174 88.046 208.174 87.9867 208.068 87.7854C207.973 87.5959 207.961 87.4775 208.044 87.2169C208.103 87.0274 208.115 86.8261 208.079 86.7551C207.973 86.5419 208.032 86.3524 208.222 86.3169C208.376 86.2932 208.399 86.234 208.411 85.9023C208.411 85.6181 208.387 85.5352 208.281 85.547C208.21 85.5589 208.044 85.5589 207.926 85.5352C207.7 85.4997 207.701 85.5115 207.594 86.2576C207.535 86.6721 207.487 87.288 207.511 87.6196C207.523 87.9512 207.499 88.3065 207.452 88.4131C207.404 88.5078 207.393 88.65 207.416 88.7329C207.523 88.9934 207.511 89.6093 207.416 89.8224C207.333 90.0001 207.333 90.1067 207.428 90.3791C207.511 90.5922 207.535 90.9357 207.511 91.3265C207.499 91.6581 207.464 92.1911 207.452 92.5108C207.416 93.553 207.333 94.4294 207.274 94.4294C207.168 94.4294 207.132 94.1215 207.096 92.949C207.073 92.2858 207.049 91.2318 207.025 90.6041C206.966 88.6026 207.404 83.3205 207.854 81.2835C208.447 78.074 208.766 77.1976 209.88 74.7224ZM208.411 84.0193C208.376 83.9127 208.34 83.9008 208.245 83.9601C208.079 84.0667 208.068 84.2798 208.21 84.3035C208.411 84.3272 208.47 84.2443 208.411 84.0193ZM209.856 91.3857C209.785 91.4449 209.737 91.516 209.761 91.5634C209.832 91.67 209.974 91.5752 209.856 91.3857ZM218.087 114.054C218.099 114.196 218.229 114.279 218.3 114.196C218.395 114.089 218.336 113.911 218.205 113.923C218.146 113.935 218.087 113.994 218.087 114.054ZM217.767 115.439C217.791 115.783 217.969 115.854 218.253 115.629C218.513 115.427 218.501 115.285 218.205 115.096C217.897 114.906 217.743 115.037 217.767 115.439ZM217.708 114.598C217.72 114.74 217.85 114.823 217.921 114.74C218.016 114.634 217.957 114.456 217.826 114.468C217.755 114.468 217.696 114.527 217.708 114.598ZM216.559 116.612C216.358 116.481 216.121 116.588 216.121 116.801C216.109 117.05 216.299 117.228 216.547 117.192C216.772 117.168 216.784 116.754 216.559 116.612ZM216.678 108.854C216.429 108.866 216.405 108.997 216.642 109.103C216.879 109.21 216.914 109.198 216.903 109.008C216.891 108.89 216.832 108.843 216.678 108.854ZM215.067 92.3924C215.221 92.5108 215.245 92.5108 215.256 92.4042C215.256 92.3332 215.162 92.2384 215.043 92.1674C214.771 92.0371 214.795 92.1911 215.067 92.3924ZM214.795 94.6189C214.7 94.7137 214.7 94.7966 214.783 94.9624C214.83 95.0808 214.854 95.3058 214.818 95.4479C214.783 95.6137 214.806 95.8388 214.889 96.0401C215.055 96.4428 215.043 96.6322 214.877 96.881C214.759 97.0586 214.747 97.1297 214.866 97.5797C214.937 97.8639 214.96 98.1955 214.925 98.3495C214.877 98.5508 214.901 98.6456 215.008 98.7048C215.185 98.8114 215.185 98.9417 214.996 99.0719C214.866 99.1667 214.866 99.2022 215.031 99.4035C214.937 99.5457 215.126 99.8536 215.304 99.8536C215.505 99.8536 215.564 100.327 215.363 100.41C215.209 100.469 215.126 101.168 215.245 101.381C215.304 101.476 215.351 101.784 215.375 102.068C215.517 104.461 215.576 105.23 215.647 105.266C215.683 105.29 215.73 105.42 215.73 105.562C215.742 105.704 215.801 105.917 215.884 106.059C215.979 106.213 216.014 106.403 215.991 106.581C215.967 106.782 215.991 106.888 216.085 106.959C216.192 107.042 216.204 107.09 216.133 107.173C216.038 107.291 216.121 107.623 216.239 107.623C216.239 107.623 216.37 107.563 216.464 107.492C216.618 107.362 216.618 107.362 216.464 107.09C216.737 107.007 216.713 105.87 216.464 104.982C216.31 104.425 216.287 103.916 216.37 103.407C216.476 102.791 216.204 102.175 215.979 102.53C215.955 102.578 215.849 102.613 215.766 102.613C215.553 102.613 215.541 102.353 215.742 102.151C216.026 101.867 216.109 101.606 216.014 101.275C215.967 101.097 215.943 100.908 215.967 100.837C216.014 100.706 215.801 100.446 215.612 100.363C215.635 100.315 215.742 100.28 215.825 100.28C215.92 100.28 215.991 100.221 215.908 99.8773C215.991 99.7588 215.979 99.6641 215.872 99.4509C215.801 99.297 215.754 99.1075 215.789 99.0246C215.825 98.9417 215.801 98.8469 215.754 98.8114C215.695 98.7759 215.707 98.7048 215.813 98.5982C215.896 98.5153 215.943 98.385 215.908 98.314C215.837 98.1245 215.943 97.935 216.121 97.935C216.216 97.935 216.287 97.8758 216.287 97.8166C216.287 97.7455 216.216 97.6863 216.133 97.6863C215.813 97.6863 215.706 97.2007 215.908 96.6204C215.979 96.3954 215.979 96.3243 215.86 96.2414C215.742 96.1585 215.73 96.0519 215.778 95.6374C215.931 94.3584 215.896 93.6951 215.541 93.2925C215.399 93.1385 215.256 92.9372 215.209 92.8543C215.162 92.7595 215.067 92.724 214.996 92.7477C214.83 92.8069 214.7 94.1807 214.854 94.3702C214.889 94.4649 214.877 94.5242 214.795 94.6189ZM214.783 105.266C214.925 105.479 215.079 105.444 215.114 105.171C215.138 105.041 215.15 104.922 215.091 104.769C215.031 104.721 215.031 104.472 215.067 104.117C215.138 103.513 215.055 103.347 214.759 103.407C214.581 103.442 214.605 104.982 214.783 105.266ZM214.179 104.39C214.037 104.449 214.06 104.851 214.214 104.899C214.273 104.911 214.333 104.84 214.344 104.733C214.38 104.461 214.321 104.33 214.179 104.39ZM214.226 103.999C214.427 104.093 214.439 104.011 214.262 103.797C214.191 103.714 214.096 103.667 214.048 103.703C213.942 103.774 214.013 103.88 214.226 103.999ZM213.362 97.6626C213.456 97.6626 213.539 97.3428 213.492 97.1178C213.468 97.0231 213.421 96.8099 213.397 96.6559C213.326 96.3243 213.314 96.348 213.255 96.9046C213.196 97.331 213.243 97.6508 213.362 97.6626ZM212.639 103.264C212.84 103.099 212.746 102.885 212.485 102.862C212.177 102.826 212.177 102.838 212.639 103.264ZM211.005 116.86C211.076 117.322 211.159 117.417 211.348 117.322C211.55 117.216 211.467 116.647 211.242 116.47C210.993 116.28 210.934 116.375 211.005 116.86ZM210.934 115.546C210.839 115.344 210.744 115.392 210.697 115.652C210.649 115.937 210.72 116.008 210.874 115.842C211.028 115.712 211.017 115.723 210.934 115.546ZM210.661 115.167C210.863 115.439 210.957 115.202 210.91 114.575C210.863 113.959 210.851 113.923 210.626 113.84C210.318 113.722 210.093 114.018 210.33 114.231C210.424 114.326 210.46 114.456 210.436 114.646C210.389 115.108 210.247 115.001 210.105 114.385C209.998 113.947 209.749 114.231 209.702 114.823C209.678 115.143 209.69 115.155 209.88 115.084C209.998 115.048 210.14 115.06 210.223 115.108C210.294 115.155 210.413 115.179 210.484 115.143C210.555 115.119 210.626 115.131 210.661 115.167ZM211.68 118.909C211.632 118.909 211.585 118.98 211.561 119.063C211.514 119.265 211.514 119.276 211.656 119.265C211.727 119.253 211.775 119.17 211.763 119.075C211.763 118.98 211.727 118.909 211.68 118.909ZM211.372 117.678C211.1 117.488 210.827 117.618 210.863 117.914C210.874 118.057 210.744 118.08 210.649 117.962C210.602 117.903 210.543 117.95 210.484 118.068C210.389 118.234 210.401 118.282 210.555 118.471C210.744 118.708 210.898 118.684 210.91 118.4C210.922 118.163 211.005 118.151 211.218 118.353C211.419 118.53 211.549 118.542 211.68 118.376C211.81 118.199 211.68 117.891 211.372 117.678ZM210.638 78.228C210.886 78.5951 211.253 78.4767 211.324 78.0029C211.348 77.8608 211.313 77.8016 211.147 77.7898C211.04 77.7779 210.839 77.8253 210.72 77.8964C210.507 78.0148 210.507 78.0266 210.638 78.228ZM210.484 93.5649C210.484 93.5649 210.424 93.8373 210.389 94.1689C210.365 94.5005 210.377 94.7729 210.424 94.7729C210.519 94.7729 210.519 95.294 210.401 95.4598C210.342 95.5427 210.365 95.6374 210.448 95.744C210.638 95.9572 210.709 95.9454 210.756 95.673C210.839 95.1992 210.827 94.986 210.72 94.8913C210.661 94.8321 210.626 94.6189 210.649 94.3347C210.685 93.932 210.602 93.5767 210.484 93.5649ZM209.453 85.251C209.572 85.3457 209.607 85.3457 209.702 85.2391C209.844 85.0733 209.797 84.9786 209.536 84.9549C209.299 84.9312 209.252 85.0733 209.453 85.251ZM209.205 86.4945C209.43 86.3998 209.477 86.1392 209.276 86.1629C209.11 86.1866 208.897 86.4234 208.98 86.5182C208.991 86.5419 209.098 86.53 209.205 86.4945ZM209.406 87.6433C209.37 87.3827 209.37 87.3709 209.205 87.5012C209.003 87.6551 208.956 87.9749 209.122 88.1289C209.347 88.3539 209.465 88.1525 209.406 87.6433ZM209.785 86.838C209.797 86.7195 209.749 86.5892 209.678 86.5537C209.607 86.5182 209.501 86.53 209.441 86.5774C209.382 86.6248 209.264 86.6603 209.181 86.6485C208.826 86.6129 209.039 86.9445 209.418 86.9919C209.738 87.0511 209.761 87.0393 209.785 86.838ZM209.809 87.9512C209.738 87.9157 209.655 87.9157 209.619 87.9394C209.548 87.9986 209.678 88.271 209.809 88.3302C209.963 88.4012 209.963 88.0223 209.809 87.9512ZM208.956 96.2177C209.027 96.1467 209.027 96.123 208.92 95.9217C208.814 95.6966 208.589 95.6966 208.577 95.9098C208.589 96.0875 208.861 96.3125 208.956 96.2177ZM209.655 101.914C209.524 101.82 209.489 101.902 209.489 101.974C209.619 102.092 209.655 102.009 209.655 101.914Z" fill="#F7F7F7"/>
<path d="M200.936 102.424C202.358 102.756 203.577 103.443 205.058 103.561C205.899 103.632 206.775 103.573 207.616 103.55C209.89 103.467 211.856 103.017 213.976 102.247C214.556 102.034 215.077 102.91 214.592 103.301C212.626 104.9 210.067 105.077 207.616 105.137C205.022 105.196 202.417 105.148 200.451 103.265C200.084 102.898 200.463 102.306 200.936 102.424Z" fill="#CCCCCC"/>
<path d="M18.1491 170.145C18.1728 170.038 18.1846 169.92 18.2083 169.813C18.232 169.92 18.3149 170.074 18.4215 170.157C18.3741 170.18 18.2794 170.18 18.1491 170.145ZM18.8123 168.818C19.061 168.735 19.1202 168.534 18.9189 168.475C18.836 168.451 18.7294 168.439 18.6821 168.463C18.5518 168.546 18.4689 168.487 18.4215 168.38C18.3505 168.818 18.2794 169.256 18.2083 169.695C18.2557 169.647 18.2912 169.505 18.2912 169.363C18.3149 169.091 18.457 168.937 18.8123 168.818ZM29.0567 156.099C28.7961 156.063 28.7724 156.039 28.7843 155.85C28.7961 155.625 28.6303 155.471 28.4764 155.578C28.3224 155.684 28.3224 155.732 28.5237 155.874C28.6185 155.945 28.6895 156.039 28.6777 156.087C28.6658 156.134 28.7251 156.217 28.8198 156.288C28.9146 156.347 29.033 156.49 29.0804 156.596C28.808 156.501 28.6303 156.49 28.1684 156.572C28.2395 156.738 28.2513 156.845 28.2277 156.928C28.204 156.999 28.2395 157.105 28.2987 157.141C28.4764 157.259 28.5593 157.271 28.5948 157.176C28.6066 157.129 28.7132 157.058 28.8198 157.022C29.0093 156.951 29.0211 156.963 29.033 157.094C29.0685 157.626 29.2461 157.626 29.3883 157.105C29.5659 156.49 29.4475 156.158 29.0567 156.099ZM29.6014 142.219C29.637 142.1 29.5304 141.911 29.412 141.887C29.3291 141.863 29.3172 141.911 29.3291 142.124C29.3409 142.301 29.5541 142.384 29.6014 142.219ZM25.9064 167.444C25.8708 167.302 25.8472 167.243 25.8708 167.184C25.9182 167.054 25.7643 167.03 25.6813 167.148C25.5748 167.291 25.7524 167.504 25.9064 167.444ZM29.8028 147.856C29.7909 147.678 29.7673 147.678 29.5186 147.809C29.3409 147.903 29.329 147.927 29.4238 148.045C29.5541 148.199 29.8146 148.069 29.8028 147.856ZM26.4749 171.222C26.4512 171.293 26.463 171.376 26.4985 171.412C26.5341 171.447 26.5933 171.412 26.6288 171.317C26.6644 171.234 26.6525 171.14 26.6051 171.128C26.5577 171.116 26.4985 171.151 26.4749 171.222ZM25.5985 166.308C25.409 166.177 25.3261 166.189 25.3142 166.213C25.4682 166.343 25.5511 166.331 25.5985 166.308ZM21.252 186.512C20.2217 188.348 19.7361 189.046 18.6939 190.148C17.9596 189.97 17.1424 189.698 16.1595 189.271C15.8515 189.129 15.5199 188.975 15.3541 188.667C15.2001 188.371 15.2475 188.016 15.3068 187.684C15.9581 183.681 16.6095 179.678 17.249 175.687C17.4267 175.391 17.6162 174.906 17.557 174.787C17.5096 174.704 17.5333 174.657 17.6399 174.621C17.7465 174.574 17.7701 174.527 17.7464 174.373C17.7228 174.266 17.7701 174.1 17.8412 174.006C17.9241 173.899 17.9478 173.721 17.9359 173.556C17.8886 173.212 17.9359 173.07 18.1728 172.952C18.3386 172.857 18.3623 172.809 18.3741 172.442C18.386 172.205 18.4452 171.957 18.5162 171.85C18.611 171.72 18.6228 171.649 18.5399 171.566C18.3978 171.436 18.4333 171.341 18.6584 171.293C18.8005 171.27 18.8123 171.246 18.7176 171.033C18.836 170.962 18.7531 170.678 18.5873 170.618C18.3978 170.547 18.4807 170.192 18.6821 170.192C18.8479 170.204 19.1321 169.718 19.0729 169.517C19.0492 169.434 19.0847 169.185 19.1439 168.984C19.7006 167.196 19.8545 166.627 19.8071 166.58C19.7716 166.556 19.7835 166.438 19.819 166.343C19.8545 166.236 19.8545 166.059 19.8308 165.94C19.7953 165.798 19.819 165.656 19.8901 165.526C19.973 165.396 19.9848 165.301 19.9137 165.218C19.8427 165.123 19.8427 165.088 19.9374 165.04C20.0559 164.981 20.0914 164.721 19.9848 164.685C19.9848 164.685 19.8427 164.685 19.7361 164.709C19.5466 164.744 19.5466 164.744 19.6058 164.993C19.3334 164.957 18.99 165.798 18.9663 166.521C18.9544 166.983 18.836 167.362 18.5992 167.693C18.5873 167.717 18.5755 167.741 18.5518 167.764C19.0137 164.981 19.5111 162.198 20.1269 159.474C20.198 159.498 20.269 159.474 20.2809 159.427C20.3164 159.332 20.2217 159.225 20.1388 159.261C20.198 158.965 20.2572 158.669 20.3164 158.373C20.9796 155.4 22.3534 151.492 22.4245 148.448C22.4837 146.008 21.856 134.71 22.4837 130.896C22.5074 130.731 22.5311 130.565 22.5548 130.411C22.7087 130.304 22.7916 130.198 22.9219 129.937C23.0285 129.736 23.0522 129.712 23.2298 129.783C23.4904 129.89 23.668 129.854 23.7746 129.688C23.8812 129.511 24.1654 129.546 24.1891 129.748C24.2128 130.008 23.8931 130.553 23.6325 130.683C23.3956 130.802 23.3127 130.896 22.8627 131.56C22.6022 131.939 22.3653 132.673 22.5429 132.59C22.5311 132.495 22.5666 132.46 22.7206 132.472C22.8864 132.483 22.9337 132.448 22.993 132.235C23.1588 131.678 23.7746 131.394 24.0352 131.749C24.2128 131.998 24.0707 132.247 23.668 132.448C23.3483 132.602 23.1943 132.803 22.8982 133.431C22.6851 133.869 22.7206 133.976 23.1469 134.13C23.3246 134.189 23.443 134.284 23.4785 134.378C23.5022 134.461 23.6443 134.627 23.7746 134.734C24.047 134.959 24.0352 135.053 23.7509 135.101C23.3364 135.16 23.7864 135.728 24.272 135.764C24.3312 135.764 24.5326 135.823 24.7221 135.894C24.9826 135.989 25.1129 136.001 25.3024 135.953C25.4445 135.918 25.6103 135.918 25.7051 135.977C26.0367 136.131 26.4393 136.096 26.9723 135.871C27.4105 135.681 27.5407 135.657 27.8131 135.717C28.2158 135.8 28.3342 135.705 28.429 135.231C28.5 134.876 28.5001 134.876 28.2277 134.84C27.9671 134.805 27.9552 134.793 27.9789 134.497C27.9908 134.248 28.0263 134.177 28.1921 134.082C28.2987 134.023 28.4172 133.94 28.4527 133.893C28.4882 133.834 28.5474 133.881 28.6185 134.047C28.7014 134.224 28.7843 134.295 28.9264 134.307C29.1277 134.331 29.1277 134.343 29.0211 134.876C28.9382 135.326 28.879 135.444 28.7369 135.515C28.5474 135.61 28.6895 135.823 28.9856 135.882C29.0685 135.894 29.1633 135.965 29.2106 136.036C29.258 136.107 29.3646 136.155 29.4712 136.167C29.5659 136.167 29.708 136.214 29.7909 136.273C29.9212 136.368 29.9094 136.38 29.6251 136.475C29.4475 136.534 29.2461 136.557 29.1632 136.546C29.0803 136.534 28.9856 136.534 28.9501 136.569C28.9145 136.593 28.7724 136.605 28.6421 136.569C28.3934 136.522 28.0974 136.605 28.0618 136.747C28.05 136.794 27.8842 136.83 27.6828 136.842C27.3631 136.854 27.1736 136.996 27.4697 137.008C27.5289 137.008 27.6118 137.067 27.6473 137.126C27.7539 137.304 28.0855 137.28 28.1684 137.09C28.2276 136.936 28.2632 136.936 28.7251 137.019C28.9974 137.067 29.1988 137.15 29.1988 137.15C29.1869 137.185 29.5067 137.292 30.0752 137.422C30.3831 137.493 30.3949 137.517 30.1344 137.754C30.0278 137.86 29.8857 137.919 29.7909 137.896C29.5304 137.837 29.5659 137.979 29.9331 138.405C30.241 138.772 30.3357 139.092 30.0041 139.127C29.9804 139.199 29.8857 139.21 29.6962 139.163C29.3527 139.092 29.2935 139.175 29.0804 140.063C28.9738 140.501 28.9738 140.655 29.0567 140.785C29.1751 140.951 29.0685 141.034 28.8672 140.916C28.725 140.833 28.6777 140.916 28.7961 141.058C28.8553 141.129 28.8317 141.176 28.7014 141.247C28.4527 141.378 28.4645 141.461 28.7606 141.615C28.9974 141.733 29.0211 141.78 28.9737 141.97C28.9382 142.088 28.9619 142.23 29.0211 142.29C29.1396 142.42 29.1277 142.515 28.9975 142.491C28.9501 142.479 28.9027 142.408 28.9027 142.337C28.8908 142.195 28.6422 142.029 28.5593 142.207C28.6185 142.266 28.6422 142.361 28.6303 142.538C28.6777 142.55 28.7724 142.645 28.8553 142.74C28.9975 142.929 28.9975 142.929 29.1751 142.811C29.483 142.621 29.637 143 29.3646 143.296C29.258 143.415 29.1514 143.474 29.1277 143.45C29.104 143.427 28.9975 143.45 28.879 143.521C28.7606 143.592 28.5948 143.628 28.5 143.604C28.3816 143.58 28.3342 143.604 28.3342 143.687C28.3342 143.77 28.4053 143.829 28.5829 143.865C28.9145 143.948 28.9145 144.196 28.5711 144.244C28.3934 144.267 28.3461 144.303 28.5237 144.445C28.6185 144.35 28.808 144.41 28.8316 144.54C28.8435 144.599 28.808 144.694 28.7488 144.741C28.2513 145.191 28.1329 145.594 28.4764 145.629C28.5711 145.641 28.6066 145.712 28.5948 145.878C28.5711 146.068 28.6066 146.115 28.7606 146.139C29.033 146.174 29.1277 146.482 28.808 146.612C28.9738 146.648 29.0448 147.074 28.9264 147.335C28.8317 147.548 28.8316 147.607 28.9856 147.761C29.1988 147.986 29.187 148.022 28.9264 148.045C28.7843 148.057 28.7132 148.105 28.7132 148.199C28.7132 148.27 28.6777 148.448 28.6421 148.59C28.6066 148.732 28.6185 148.945 28.6777 149.064C28.7843 149.277 28.7724 149.289 28.5711 149.443C28.4527 149.526 28.3934 149.621 28.429 149.656C28.5474 149.774 28.6777 150.13 28.6421 150.26C28.6185 150.331 28.6421 150.414 28.6777 150.45C28.725 150.485 28.7132 150.58 28.654 150.663C28.5948 150.746 28.5829 150.864 28.6303 150.923C28.6895 151.018 28.6658 151.077 28.5 151.219C28.2987 151.385 28.2987 151.397 28.3934 151.646C28.5356 152.013 28.4645 152.19 28.0737 152.297C28.3935 152.427 28.5119 153.173 28.2869 153.623C28.1921 153.813 28.1803 153.92 28.2513 154.026C28.3342 154.145 28.3224 154.192 28.1921 154.322C28.0382 154.464 28.1092 154.666 28.3461 154.725C28.4408 154.749 28.3461 154.985 28.2395 154.985C28.1803 154.985 28.1566 155.092 28.1803 155.305C28.2276 155.732 28.204 155.791 28.0026 155.743C27.8013 155.684 27.7539 155.791 27.8842 155.992C27.9316 156.075 27.9553 156.324 27.9197 156.537C27.8842 156.762 27.8842 156.987 27.9079 157.046C27.9316 157.105 27.9434 157.176 27.9316 157.212C27.9197 157.247 28.0026 157.307 28.121 157.33C28.2395 157.366 28.3816 157.461 28.4527 157.544C28.5711 157.686 28.6422 157.721 29.0685 157.863C29.1988 157.911 29.2225 157.982 29.187 158.278C29.1633 158.479 29.1632 158.692 29.1988 158.752C29.3172 158.953 29.0922 159.936 28.9145 160.007C28.7961 160.054 28.6066 159.829 28.6303 159.664C28.654 159.45 28.4645 159.474 28.3224 159.699C28.2513 159.817 28.2158 159.971 28.2513 160.09C28.275 160.196 28.3105 160.35 28.3105 160.41C28.3224 160.587 28.429 160.599 28.6066 160.445C28.7961 160.279 28.9145 160.315 28.9501 160.528C29.0567 161.322 29.0093 161.795 28.7132 163.098C28.6303 163.477 28.5237 163.998 28.4882 164.259C28.4053 164.827 27.7302 167.693 27.5407 168.321C27.4578 168.57 27.2565 169.209 27.0907 169.766C26.7117 170.974 26.6407 170.832 26.9723 169.517C27.1026 168.996 27.1854 168.534 27.1617 168.487C27.1381 168.439 27.1499 168.309 27.1855 168.214C27.3868 167.669 27.4815 167.291 27.4342 167.243C27.3986 167.208 27.446 166.983 27.5289 166.734C27.6355 166.45 27.671 166.201 27.6355 166.059C27.5644 165.798 27.6 165.632 27.7776 165.407C27.8842 165.277 27.8724 165.206 27.7066 164.981C27.5289 164.732 27.5289 164.697 27.671 164.543C27.896 164.306 27.9671 164.069 27.8723 163.88C27.825 163.785 27.8368 163.655 27.8961 163.572C28.0026 163.394 27.8368 163.228 27.6118 163.288C27.4223 163.335 27.3868 163.181 27.5526 163.062C27.6236 163.003 27.7539 162.98 27.8487 163.015C28.0737 163.086 28.2158 162.92 28.0618 162.755C27.9552 162.636 27.9197 162.636 27.8368 162.695C27.7065 162.79 27.5289 162.743 27.3276 162.541C27.2091 162.435 27.1381 162.399 27.0789 162.435C26.9723 162.506 26.8183 163.323 26.8775 163.489C26.9486 163.69 26.2617 163.915 25.9064 163.809C25.7169 163.749 25.6577 163.761 25.6695 163.844C25.6814 163.903 25.6695 163.986 25.6695 163.986C25.6458 164.045 25.9182 164.081 26.1788 164.045C26.5578 163.998 26.6762 164.152 26.5578 164.496C26.5104 164.638 26.4985 164.792 26.5341 164.851C26.6643 165.04 26.5459 165.111 26.2735 165.028C26.1314 164.981 25.9301 164.934 25.8472 164.91C25.7406 164.898 25.6695 164.815 25.634 164.709C25.6103 164.614 25.5748 164.519 25.5629 164.496C25.5037 164.413 25.2076 165.194 25.1129 165.704C25.0655 165.929 24.9945 166.094 24.8997 166.165C24.6747 166.331 24.6392 166.639 24.8405 166.722C25.0181 166.805 24.9708 167.089 24.3312 168.7C24.2247 168.984 24.0825 169.15 23.9878 169.114C23.8694 169.079 23.7983 168.57 23.8812 168.404C23.9167 168.333 23.9167 168.262 23.8693 168.238C23.7391 168.191 23.4785 168.463 23.4667 168.676C23.4548 168.771 23.3956 168.866 23.3364 168.889C23.2535 168.913 23.2417 168.96 23.289 169.055C23.3364 169.138 23.289 169.304 23.1825 169.517C23.0403 169.801 23.0285 169.908 23.1114 170.097C23.2061 170.322 23.2061 170.334 23.0166 170.405C22.8627 170.464 22.839 170.5 22.9101 170.571C22.9693 170.63 22.9337 170.832 22.7679 171.27C22.6495 171.613 22.5548 171.933 22.5903 171.98C22.6258 172.051 22.5784 172.146 22.4719 172.253C22.235 172.49 22.235 172.49 22.5784 172.596C22.8272 172.667 22.8982 172.667 22.993 172.561C23.064 172.478 23.064 172.561 22.9693 172.821C22.8745 173.07 22.8035 173.188 22.7561 173.153C22.7206 173.117 22.7087 173.034 22.7324 172.963C22.8035 172.786 22.4837 172.703 22.3061 172.845C22.1995 172.928 22.1758 173.011 22.1995 173.117C22.235 173.236 22.1995 173.283 22.0929 173.307C21.9744 173.331 21.9508 173.366 21.9981 173.461C22.0337 173.532 21.9981 173.662 21.9152 173.804C21.7968 173.982 21.7968 174.041 21.8797 174.077C21.9508 174.1 22.01 174.183 22.0337 174.254C22.0692 174.385 22.0811 174.385 22.2705 174.337C22.7087 174.219 22.7561 174.396 22.4482 174.977C22.2587 175.332 22.2468 175.403 22.3534 175.545C22.4719 175.699 22.4126 175.889 22.1995 175.983C22.0455 176.054 21.856 176.765 21.9034 177.097C21.9507 177.464 22.0574 177.523 22.3653 177.369C22.5548 177.274 22.6021 177.274 22.685 177.381C22.7679 177.487 22.7561 177.582 22.5903 178.02C22.5192 178.222 22.6021 178.435 22.7679 178.447C23.0522 178.482 23.2417 178.861 23.1469 179.228C23.0877 179.453 23.0285 179.56 22.9693 179.43C23.0167 179.394 23.0285 179.323 22.8864 179.323C22.8153 179.501 22.5784 179.299 22.614 179.086C22.6495 178.838 22.4363 178.707 22.1995 178.826C22.0692 178.885 21.9863 178.885 21.8442 178.802C21.7021 178.719 21.6192 178.719 21.4415 178.838C21.3231 178.909 21.1573 178.956 21.0862 178.932C20.8494 178.849 20.802 178.956 21.027 179.063C21.2402 179.169 21.252 179.228 21.181 179.832C21.1691 179.939 21.2046 180.081 21.2757 180.164C21.3467 180.247 21.3942 180.389 21.3823 180.496C21.3705 180.744 21.4889 180.827 21.6902 180.697C21.8205 180.602 21.8323 180.579 21.7139 180.448C21.5481 180.259 21.5718 180.176 21.7968 180.247C21.9389 180.294 21.9626 180.282 21.9863 180.117C21.9981 179.986 22.0573 179.915 22.1639 179.892C22.2468 179.868 22.3534 179.761 22.4008 179.643C22.5429 179.276 22.8272 179.678 22.7087 180.069C22.6258 180.342 22.6377 180.377 22.8272 180.472C22.9693 180.543 23.0285 180.602 22.993 180.685C22.9337 180.815 22.7442 180.815 22.614 180.685C22.4719 180.531 22.3297 180.507 22.2824 180.626C22.2231 180.768 22.3416 181.04 22.4955 181.123C22.7087 181.23 22.7324 181.348 22.5666 181.443C22.4364 181.514 22.4245 181.562 22.4837 181.739C22.5429 181.905 22.5192 182 22.3771 182.166C22.2824 182.284 22.2232 182.426 22.235 182.485C22.2942 182.675 22.1876 182.793 22.01 182.77C21.856 182.746 21.8205 182.781 21.7376 183.018C21.6665 183.231 21.6784 183.302 21.785 183.314C21.856 183.326 22.01 183.374 22.1166 183.421C22.3179 183.504 22.3298 183.504 22.6022 182.995C22.7561 182.71 22.9219 182.272 22.9811 182.023C23.0403 181.775 23.1469 181.526 23.2061 181.467C23.2772 181.408 23.3127 181.313 23.3009 181.242C23.2535 181.017 23.3956 180.579 23.5496 180.448C23.6799 180.354 23.7036 180.271 23.668 180.046C23.6443 179.868 23.6917 179.607 23.822 179.335C23.9167 179.098 24.0707 178.719 24.1654 178.494C24.4497 177.748 24.7457 177.132 24.7931 177.156C24.8997 177.191 24.8524 177.416 24.6037 178.281C24.4615 178.767 24.2365 179.536 24.0944 179.998C23.6443 181.396 22.0574 185.126 21.252 186.512ZM27.8723 158.23C27.9079 158.242 27.9789 158.219 28.0263 158.171C28.1447 158.053 28.1448 158.041 28.0026 157.994C27.9316 157.97 27.8605 158.017 27.8368 158.088C27.825 158.159 27.8368 158.219 27.8723 158.23ZM27.7302 159.202C27.9197 159.427 28.2158 159.427 28.2869 159.213C28.3224 159.107 28.4527 159.142 28.5 159.261C28.5237 159.308 28.5948 159.308 28.6895 159.249C28.8316 159.166 28.8435 159.131 28.7606 158.953C28.6658 158.716 28.5119 158.681 28.4053 158.87C28.3106 159.036 28.2395 159.012 28.0974 158.799C27.9789 158.609 27.8605 158.55 27.671 158.621C27.5052 158.681 27.5289 158.953 27.7302 159.202ZM27.4578 160.09C27.6236 160.303 27.7065 160.256 27.8013 159.889C27.8842 159.545 27.8487 159.45 27.6355 159.45C27.4105 159.45 27.292 159.877 27.4578 160.09ZM27.5763 160.646C27.3986 160.694 27.4105 160.694 27.4223 160.836C27.446 161.002 27.5526 161.002 27.6828 160.836C27.825 160.658 27.7776 160.587 27.5763 160.646ZM27.1617 162.139C27.4105 162.328 27.7184 162.198 27.5763 161.961C27.517 161.866 27.5289 161.76 27.6118 161.629C27.8131 161.322 27.9079 161.44 27.8368 161.926C27.7894 162.269 28.1211 162.162 28.3579 161.748C28.4763 161.535 28.4763 161.523 28.275 161.499C28.1566 161.487 28.0145 161.428 27.9671 161.369C27.9197 161.31 27.8131 161.25 27.7421 161.25C27.671 161.25 27.5999 161.215 27.5763 161.179C27.4815 160.919 27.3039 161.049 27.1499 161.511C26.9841 161.973 26.9841 162.008 27.1617 162.139ZM22.6258 142.278C22.7916 142.444 23.064 142.313 22.993 142.1C22.9337 141.946 22.7798 141.863 22.6495 141.922C22.5311 141.982 22.5192 142.171 22.6258 142.278ZM22.5548 158.148C22.6969 158.313 22.9456 158.313 23.0285 158.159C23.1232 157.982 23.0166 157.804 22.7679 157.733C22.5429 157.674 22.389 157.958 22.5548 158.148ZM22.0811 169.351C22.3534 169.47 22.3534 169.458 22.0455 169.008C21.8205 169.055 21.8323 169.245 22.0811 169.351ZM17.9596 187.981C17.7938 187.637 17.4148 187.637 17.2609 187.957C17.2135 188.063 17.2372 188.111 17.3911 188.17C17.4977 188.217 17.6872 188.229 17.8175 188.206C18.0544 188.17 18.0544 188.17 17.9596 187.981ZM21.5126 184.155C21.3231 184.084 21.252 184.131 21.2639 184.309C21.2757 184.404 21.2994 184.416 21.4178 184.404C21.5955 184.357 21.6547 184.203 21.5126 184.155ZM21.2757 181.526C21.5126 181.467 21.6191 181.254 21.5007 181.088C21.3231 180.851 21.1691 180.958 21.1099 181.36C21.0862 181.562 21.0862 181.573 21.2757 181.526ZM20.7902 181.005C20.8494 181.052 20.9323 181.076 20.9678 181.064C21.0507 181.04 20.9915 180.804 20.873 180.721C20.7427 180.638 20.6599 180.91 20.7902 181.005ZM20.7546 167.954C20.6007 167.823 20.5651 167.871 20.6599 168.084C20.6954 168.167 20.7783 168.226 20.8375 168.226C20.9559 168.214 20.9323 168.108 20.7546 167.954ZM20.648 159.237C20.7191 159.261 20.7901 159.237 20.802 159.19C20.8375 159.083 20.7427 158.988 20.648 159.024C20.5296 159.059 20.5296 159.202 20.648 159.237ZM21.6784 178.376C21.6429 178.269 21.4889 178.305 21.5481 178.482C21.631 178.47 21.6902 178.423 21.6784 178.376ZM21.4889 176.706C21.4889 176.706 21.6191 176.528 21.7257 176.291C21.8323 176.054 21.8797 175.853 21.8442 175.841C21.7494 175.806 21.8916 175.439 22.0455 175.356C22.1166 175.308 22.1284 175.237 22.0692 175.131C21.9508 174.918 21.8679 174.906 21.7613 175.095C21.5599 175.415 21.5126 175.569 21.5836 175.664C21.631 175.723 21.6073 175.889 21.5126 176.09C21.3823 176.374 21.3705 176.658 21.4889 176.706ZM21.027 167.302C20.9796 167.267 20.9086 167.302 20.8612 167.385C20.7428 167.575 20.7664 167.681 20.9204 167.681C21.0744 167.693 21.1573 167.385 21.027 167.302ZM20.5059 158.645C20.7191 158.882 20.9204 158.846 21.027 158.55C21.1217 158.29 20.9796 158.183 20.6362 158.242C20.3164 158.302 20.2809 158.408 20.5059 158.645ZM20.0322 163.477C19.8427 163.323 19.8071 163.323 19.7598 163.453C19.7242 163.548 19.7716 163.595 19.9256 163.643C20.1624 163.726 20.2217 163.631 20.0322 163.477ZM19.8071 172.833C19.7124 172.798 19.5584 173.011 19.5466 173.188C19.5466 173.259 19.5229 173.425 19.5229 173.556C19.4992 173.816 19.5229 173.804 19.7242 173.413C19.8782 173.129 19.9137 172.869 19.8071 172.833ZM20.5888 166.864C20.5177 166.663 20.3638 166.639 20.2453 166.817C20.1861 166.9 20.1388 166.983 20.1506 167.125C20.1861 167.184 20.1269 167.362 19.9848 167.598C19.7479 168.013 19.7716 168.167 20.0796 168.214C20.269 168.238 20.6835 167.125 20.5888 166.864ZM20.5296 183.101C20.4467 182.995 20.3993 182.983 20.2809 183.042C20.1032 183.125 20.1269 183.208 20.3756 183.302C20.6125 183.385 20.6836 183.279 20.5296 183.101ZM20.6243 182.083C20.6835 182.13 20.7901 182.154 20.8494 182.13C20.9204 182.106 21.0389 182.118 21.1218 182.154C21.4534 182.284 21.3231 181.976 20.9796 181.834C20.6717 181.704 20.6362 181.704 20.5769 181.846C20.5414 181.929 20.5533 182.035 20.6243 182.083ZM20.9204 182.485C21.0862 182.521 21.3349 182.402 21.2875 182.308C21.2639 182.272 21.1691 182.248 21.0625 182.26C20.8257 182.272 20.7191 182.45 20.9204 182.485ZM25.3261 175.403C25.255 175.415 25.1721 175.64 25.101 176.232C25.2313 176.102 25.4327 175.391 25.3261 175.403ZM29.258 152.321C29.2343 152.155 29.1632 152.096 29.1632 152.096C29.1632 152.25 29.2106 152.309 29.258 152.321ZM30.7147 138.962C30.62 139.009 30.62 139.045 30.7147 139.199C30.8923 138.95 30.8568 138.891 30.7147 138.962ZM30.9397 138.547C31.0345 138.571 31.1174 138.559 31.1055 138.452C31.1055 138.452 31.0108 138.417 30.7976 138.417C30.7858 138.476 30.845 138.523 30.9397 138.547ZM29.6843 153.47C29.6607 153.541 29.6725 153.623 29.7199 153.659C29.7554 153.695 29.8146 153.647 29.8383 153.552C29.862 153.458 29.8502 153.375 29.8028 153.363C29.7673 153.351 29.708 153.398 29.6843 153.47ZM28.9501 153.517C29.0093 153.505 29.0685 153.446 29.0804 153.387C28.7843 153.47 28.7843 153.552 28.9501 153.517ZM28.6421 155.364C28.7843 155.4 28.9501 155.151 28.8553 155.021C28.8198 154.974 28.7487 154.938 28.6895 154.95C28.5237 154.997 28.4882 155.329 28.6421 155.364ZM29.4712 148.874C29.4238 148.863 29.3646 148.945 29.3409 149.052C29.2817 149.242 29.3764 149.336 29.5067 149.23C29.6015 149.159 29.5778 148.898 29.4712 148.874ZM25.8353 173.271C25.7643 173.496 25.634 173.935 25.5274 174.231C25.3261 174.811 25.3261 175.202 25.5274 174.894C25.5866 174.799 25.6695 174.621 25.6932 174.503C25.7287 174.385 25.8472 173.97 25.9538 173.603C26.0722 173.236 26.1669 172.857 26.1788 172.762C26.013 172.798 25.9064 173.046 25.8353 173.271ZM24.9234 132.756C24.4497 132.898 24.2602 133.064 24.1062 133.395C23.9286 133.81 23.9167 133.905 24.0588 133.786C24.1299 133.727 24.2483 133.656 24.3194 133.62C24.3905 133.585 24.4615 133.526 24.4734 133.49C24.4852 133.455 24.6629 133.312 24.8523 133.194C25.6103 132.708 25.634 132.531 24.9234 132.756ZM24.4852 170.926C24.58 171.033 24.6392 170.986 24.6629 170.938C24.5681 170.808 24.5089 170.855 24.4852 170.926ZM27.6828 133.573C27.7657 133.324 27.5763 133.253 27.4697 133.49C27.3749 133.691 27.2091 133.609 27.1144 133.324C27.0197 133.04 26.8183 133.016 26.842 133.289C26.8538 133.384 26.8183 133.466 26.7709 133.49C26.7236 133.502 26.6051 133.585 26.5104 133.68C26.392 133.798 26.3446 133.881 26.3919 133.976C26.4156 134.047 26.4157 134.13 26.3801 134.153C26.7473 134.177 26.8894 134.106 26.8657 133.988C26.8183 133.585 26.842 133.502 26.9604 133.526C27.0315 133.537 27.0788 133.644 27.0907 133.786C27.0907 134.035 27.1736 134.153 27.2802 134.059C27.3157 134.023 27.446 134.023 27.5526 134.047C27.7776 134.094 27.825 134.035 27.6947 133.893C27.6473 133.845 27.6355 133.703 27.6828 133.573ZM28.5474 132.282C28.4171 132.318 28.3934 132.401 28.4645 132.578C28.5356 132.744 28.6895 132.732 28.7251 132.566C28.7724 132.401 28.6658 132.247 28.5474 132.282ZM25.3616 132.329C25.4682 132.27 25.5156 132.27 25.5985 132.353C25.7169 132.472 25.8709 132.389 25.9301 132.152C25.9893 131.915 25.7524 131.856 25.4208 132.045C25.1247 132.211 25.0181 132.353 25.1602 132.389C25.1958 132.389 25.2905 132.365 25.3616 132.329ZM27.1855 132.708C27.2684 132.708 27.3631 132.649 27.4105 132.566C27.0197 132.602 26.9723 132.697 27.1855 132.708ZM26.2735 135.255C26.1669 135.243 26.0011 135.196 25.9064 135.136C25.7643 135.042 25.7406 135.042 25.7169 135.16C25.6932 135.267 25.6458 135.278 25.5274 135.219C25.3971 135.16 25.3616 135.172 25.3261 135.29C25.3024 135.373 25.2432 135.468 25.184 135.515C24.7458 135.835 25.6932 135.965 26.2262 135.657C26.5578 135.456 26.5814 135.278 26.2735 135.255ZM28.9856 132.685C28.8553 132.744 28.6777 133.348 28.7843 133.372C28.9501 133.407 29.0922 133.241 29.1632 132.957C29.2461 132.649 29.1988 132.578 28.9856 132.685ZM23.3601 175.983C23.3483 176.043 23.3838 176.114 23.4312 176.126C23.5614 176.161 23.5851 176.007 23.3601 175.983ZM23.6088 175.237C23.5259 175.261 23.5141 175.285 23.5614 175.462C23.6088 175.652 23.822 175.723 23.8812 175.569C23.9286 175.45 23.7272 175.202 23.6088 175.237ZM23.6799 170.168C23.5733 170.133 22.8745 172.123 22.9456 172.241C23.064 172.43 23.1588 172.324 23.3838 171.732C23.7391 170.761 23.8457 170.216 23.6799 170.168ZM22.6022 173.342C22.4837 173.378 22.4837 173.461 22.614 173.508C22.685 173.532 22.7561 173.508 22.7679 173.461C22.8153 173.366 22.7206 173.307 22.6022 173.342ZM28.7488 145.298C28.6303 145.321 28.5948 145.416 28.6659 145.475C28.7724 145.57 28.9975 145.475 28.9264 145.369C28.879 145.321 28.7961 145.286 28.7488 145.298Z" fill="#F7F7F7"/>
<path d="M31.3065 117.145C31.3894 115.806 30.821 114.527 30.3709 113.26C29.8261 111.697 29.459 110.051 29.5656 108.405C29.6721 106.758 30.2643 105.1 31.4368 103.94C32.7751 102.601 34.7292 102.021 36.6241 102.033C37.6308 102.033 38.6611 102.199 39.502 102.732C41.3495 103.892 41.7877 106.356 41.9061 108.357C42.0719 111.034 41.7166 113.71 40.6744 116.197C40.5086 116.588 40.331 116.979 40.0231 117.287C39.1704 118.163 37.4294 117.074 36.9912 118.294C36.7899 118.874 37.1807 122.166 36.7544 122.664C35.8069 123.777 30.4183 121.195 30.1577 121.787C30.5959 120.828 31.2473 118.175 31.3065 117.145Z" fill="#FFA017"/>
<path d="M32.1121 100.695C31.5673 101.05 31.0462 101.524 30.5843 102.128C29.3645 103.703 28.5947 105.61 28.3578 107.588C28.0262 110.489 28.867 113.45 28.3223 116.328C27.8367 118.874 25.9536 120.023 24.1535 121.657C21.4414 124.121 20.0794 127.993 20.6597 131.605C20.9203 133.216 21.5361 134.803 21.394 136.426C21.2874 137.586 20.8019 138.676 20.565 139.813C20.186 141.637 20.4702 143.614 21.4769 145.178C23.4192 148.21 27.1143 148.695 29.2224 145.533C30.4777 143.65 30.5251 141.198 30.0869 138.984C29.8382 137.705 29.4473 136.426 29.5658 135.135C29.7553 133.074 31.2238 131.321 31.591 129.284C31.9226 127.46 31.3541 125.613 31.0225 123.789C30.6317 121.61 30.8567 119.561 32.3371 117.844C33.2017 116.837 34.4807 116.304 35.5585 115.546C38.9456 113.166 38.5666 109.186 41.1602 106.344C41.9656 105.456 41.8353 104.236 41.2313 103.265C40.7694 102.531 40.0707 101.962 39.3601 101.453C37.027 99.7474 34.3031 99.2736 32.1121 100.695Z" fill="#1D1D1D"/>
<path d="M26.8544 116.863C26.4517 117.147 26.5228 117.704 26.9847 117.87C27.8137 118.178 28.7256 118.059 29.5665 118.414C30.3718 118.758 30.9047 119.587 31.7219 119.8C32.1127 119.907 32.6694 119.587 32.6102 119.125C32.3615 117.183 28.4177 115.738 26.8544 116.863Z" fill="#CCCCCC"/>
<path d="M38.1871 149.239C36.7659 149.571 35.5461 150.257 34.0657 150.376C33.2248 150.447 32.3484 150.388 31.5075 150.364C29.2336 150.281 27.2677 149.831 25.1478 149.061C24.5674 148.848 24.0463 149.724 24.5319 150.115C26.4979 151.714 29.056 151.892 31.5075 151.951C34.1012 152.01 36.7067 151.963 38.6726 150.08C39.0398 149.713 38.6489 149.12 38.1871 149.239Z" fill="#CCCCCC"/>
<defs>
<linearGradient id="paint0_linear" x1="182.299" y1="56.3511" x2="134.15" y2="64.0555" gradientUnits="userSpaceOnUse">
<stop offset="0.00359712" stop-color="#4CAB61"/>
<stop offset="1" stop-color="#7ECA9C"/>
</linearGradient>
</defs>
</svg>
