<svg width="507" height="334" viewBox="0 0 507 334" fill="none" xmlns="http://www.w3.org/2000/svg">
<path d="M386.062 257.135C393.895 257.782 491.573 265.782 491.376 272.832C491.31 275.211 480.121 276.771 480.103 280.818C480.082 285.452 494.744 286.094 495.777 290.731C497.748 299.588 450.641 326.108 394.313 332.31C365.531 335.479 356.234 330.934 284.324 319.093C238.365 311.525 180.381 301.978 115.216 295.136C71.9768 290.597 28.953 287.599 28.8742 281.918C28.7928 276.092 73.9293 273.737 74.2446 265.395C74.6519 254.617 -0.275208 247.404 0.000701904 238.133C0.174133 232.342 29.6835 226.371 78.3675 224.089C199.12 218.434 237.408 244.862 386.062 257.135Z" fill="#EEF8E8"/>
<path d="M461.131 283.845C476.903 287.421 482.539 288.06 482.579 289.626C482.639 291.929 470.56 294.089 456.732 296.51C431.349 300.955 427.927 299.399 420.985 303.944C409.136 311.704 412.66 320.459 402.286 325.698C392.884 330.448 386.908 324.809 362.415 321.293C338.695 317.888 324.234 320.293 323.643 316.888C322.855 312.344 348.105 305.089 347.29 302.018C346.449 298.839 319.163 305.757 316.769 299.815C315.526 296.734 321.412 291.284 325.569 288.526C338.621 279.858 349.807 288.826 371.489 289.629C403.29 290.802 416.552 273.638 441.883 279.166C445.378 279.927 449.49 281.206 461.131 283.845Z" fill="#DEEBD6"/>
<path d="M131.989 278.063C137.896 279.85 146.399 283.379 146.013 285.497C145.566 287.937 134.033 284.69 113.566 287.424C105.52 288.5 97.1503 290.358 86.8943 286.874C83.4335 285.697 80.6087 284.737 80.5693 283.295C80.4458 278.782 107.548 270.666 131.989 278.063Z" fill="#DEEBD6"/>
<path d="M175.157 249.148C174.991 250.264 165.421 250.443 146.286 250.801C111.54 251.451 85.6905 249.522 77.5419 248.875C56.3729 247.188 14.5947 243.859 14.5737 239.238C14.5579 235.667 39.4872 232.889 44.2697 232.354C111.726 224.831 175.898 244.201 175.157 249.148Z" fill="#DEEBD6"/>
<path d="M343.438 244.632C338.217 232.97 346.436 215.399 355.226 205.55C365.487 194.05 372.409 197.687 379.696 188.119C393.26 170.309 374.837 150.397 387.093 131.351C397.115 115.78 413.231 123.177 423.544 105.428C430.986 92.6211 426.172 82.611 436.318 73.601C437.185 72.8299 446.658 64.6566 456.777 67.4328C466.991 70.2353 471.887 82.5531 473.027 90.8106C475.135 106.076 464.721 109.754 460.588 128.769C454.962 154.658 470.936 163.168 462.858 181.372C456.189 196.406 443.757 194.071 436.691 210.886C430.13 226.501 438.465 234.188 433.046 244.269C420.58 267.463 354.088 268.42 343.438 244.632Z" fill="url(#paint0_linear)"/>
<path opacity="0.7" d="M350.546 262.788C361.766 262.788 372.5 260.454 382.459 255.849C391.98 251.447 401.823 246.897 407.065 237.053C411.046 229.579 409.959 223.667 408.584 216.18C407.263 208.986 405.618 200.034 408.492 186.955C410.135 179.49 412.176 170.198 419.663 162.041C424.014 157.299 427.94 155.491 431.403 153.894C434.977 152.246 438.065 150.823 440.18 146.526C443.588 139.594 442.553 133.242 441.352 125.887C440.619 121.395 439.862 116.753 439.973 111.362C440.283 96.2017 449.143 80.8156 466.31 65.6295C466.373 65.5716 466.381 65.4743 466.323 65.4111C466.266 65.3453 466.168 65.3401 466.105 65.398C448.873 80.6446 439.975 96.107 439.662 111.356C439.552 116.774 440.311 121.432 441.047 125.937C442.238 133.239 443.268 139.547 439.902 146.389C437.836 150.589 434.94 151.923 431.275 153.612C427.785 155.22 423.828 157.044 419.434 161.83C411.89 170.048 409.838 179.387 408.19 186.889C405.302 200.028 406.952 209.015 408.282 216.238C409.649 223.664 410.726 229.532 406.795 236.908C401.6 246.66 391.806 251.189 382.333 255.568C372.416 260.154 361.721 262.478 350.548 262.478C350.456 262.478 350.364 262.478 350.272 262.478C350.186 262.478 350.117 262.546 350.117 262.633C350.117 262.72 350.186 262.788 350.272 262.788C350.359 262.788 350.454 262.788 350.546 262.788Z" fill="white"/>
<path opacity="0.7" d="M416.269 166.193C416.285 166.193 416.3 166.191 416.316 166.186C416.398 166.159 416.442 166.072 416.416 165.991C409.678 144.71 409.983 128.848 411.423 119.288C412.984 108.933 416.179 103.539 416.214 103.483C416.258 103.41 416.235 103.315 416.161 103.27C416.087 103.225 415.993 103.249 415.948 103.323C415.917 103.375 412.695 108.809 411.121 119.219C409.671 128.814 409.36 144.734 416.122 166.083C416.143 166.151 416.203 166.193 416.269 166.193Z" fill="white"/>
<path opacity="0.7" d="M406.816 197.872C406.824 197.872 406.832 197.872 406.84 197.87C418.628 196.08 429.028 192.289 437.75 186.602C444.729 182.052 450.652 176.284 455.361 169.458C463.376 157.838 465.094 147.03 465.11 146.922C465.123 146.838 465.065 146.759 464.981 146.746C464.894 146.733 464.818 146.791 464.805 146.875C464.789 146.983 463.076 157.73 455.098 169.292C450.416 176.081 444.519 181.818 437.574 186.344C428.892 192.004 418.536 195.778 406.795 197.562C406.711 197.575 406.653 197.654 406.664 197.738C406.674 197.817 406.74 197.872 406.816 197.872Z" fill="white"/>
<path opacity="0.7" d="M392.886 251.211C392.923 251.211 392.962 251.198 392.991 251.169C393.054 251.111 393.057 251.011 392.999 250.951C385.302 242.693 379.492 233.92 375.735 224.881C372.729 217.652 371.021 210.234 370.655 202.837C370.033 190.246 373.569 181.975 373.606 181.893C373.64 181.814 373.604 181.722 373.525 181.688C373.446 181.654 373.354 181.691 373.32 181.767C373.283 181.849 369.717 190.188 370.343 202.85C370.711 210.284 372.426 217.736 375.446 224.999C379.219 234.075 385.047 242.877 392.77 251.164C392.804 251.195 392.847 251.211 392.886 251.211Z" fill="white"/>
<path opacity="0.7" d="M440.379 108.952C440.395 108.952 440.408 108.949 440.424 108.946C449.117 106.336 456.564 102.191 462.558 96.6312C467.353 92.1814 471.237 86.8185 474.096 80.6899C478.965 70.2614 479.181 61.104 479.183 61.0119C479.186 60.925 479.117 60.854 479.031 60.854C478.939 60.8435 478.873 60.9198 478.873 61.0066C478.87 61.0961 478.655 70.1983 473.809 80.5688C470.966 86.6554 467.106 91.9841 462.339 96.4075C456.38 101.934 448.977 106.054 440.335 108.649C440.253 108.673 440.206 108.76 440.23 108.844C440.251 108.907 440.311 108.952 440.379 108.952Z" fill="white"/>
<path d="M407.519 247.197C403.695 238.653 409.715 225.782 416.153 218.567C423.671 210.141 428.74 212.806 434.077 205.799C444.015 192.752 430.516 178.166 439.495 164.214C446.837 152.807 458.641 158.227 466.198 145.223C471.651 135.842 468.125 128.508 475.556 121.908C476.192 121.345 483.132 115.356 490.544 117.39C498.025 119.443 501.612 128.466 502.448 134.515C503.993 145.699 496.362 148.391 493.335 162.322C489.212 181.287 500.913 187.521 494.998 200.854C490.111 211.867 481.006 210.157 475.829 222.474C471.023 233.913 477.13 239.545 473.159 246.928C464.028 263.92 415.32 264.622 407.519 247.197Z" fill="url(#paint1_linear)"/>
<path opacity="0.7" d="M412.725 260.536C420.949 260.536 428.82 258.826 436.122 255.449C443.101 252.223 450.317 248.887 454.167 241.663C457.089 236.177 456.292 231.837 455.283 226.346C454.316 221.08 453.11 214.525 455.215 204.955C456.416 199.489 457.911 192.689 463.387 186.721C466.569 183.256 469.442 181.932 471.975 180.764C474.6 179.553 476.868 178.508 478.423 175.345C480.927 170.256 480.165 165.596 479.285 160.201C478.749 156.912 478.195 153.512 478.276 149.568C478.502 138.474 484.99 127.214 497.556 116.098C497.619 116.04 497.627 115.943 497.569 115.88C497.511 115.814 497.414 115.809 497.351 115.867C484.717 127.042 478.197 138.381 477.966 149.565C477.884 153.539 478.442 156.952 478.98 160.254C479.853 165.596 480.604 170.211 478.145 175.211C476.639 178.274 474.524 179.248 471.846 180.482C469.287 181.661 466.383 183 463.159 186.511C457.625 192.539 456.119 199.386 454.91 204.886C452.792 214.52 454.004 221.106 454.976 226.401C455.974 231.835 456.763 236.124 453.891 241.516C450.091 248.647 442.923 251.963 435.991 255.168C428.672 258.552 420.781 260.257 412.522 260.226C412.436 260.226 412.367 260.294 412.367 260.381C412.367 260.468 412.436 260.536 412.522 260.536C412.591 260.536 412.656 260.536 412.725 260.536Z" fill="white"/>
<path opacity="0.7" d="M460.872 189.779C460.888 189.779 460.904 189.776 460.92 189.771C461.001 189.745 461.046 189.658 461.019 189.576C456.087 173.998 456.308 162.386 457.364 155.389C458.507 147.81 460.843 143.86 460.867 143.821C460.912 143.747 460.888 143.652 460.814 143.608C460.741 143.563 460.646 143.587 460.602 143.66C460.578 143.7 458.213 147.686 457.059 155.32C455.998 162.354 455.769 174.022 460.723 189.669C460.746 189.737 460.807 189.779 460.872 189.779Z" fill="white"/>
<path opacity="0.7" d="M453.946 212.983C453.954 212.983 453.962 212.983 453.97 212.981C462.612 211.668 470.235 208.889 476.629 204.721C481.745 201.384 486.088 197.155 489.541 192.15C495.417 183.63 496.678 175.704 496.689 175.625C496.702 175.541 496.644 175.462 496.56 175.448C496.476 175.435 496.397 175.493 496.384 175.58C496.371 175.659 495.117 183.527 489.279 191.987C485.849 196.955 481.535 201.152 476.453 204.465C470.099 208.607 462.518 211.37 453.925 212.676C453.841 212.689 453.783 212.768 453.794 212.852C453.804 212.928 453.87 212.983 453.946 212.983Z" fill="white"/>
<path opacity="0.7" d="M443.742 252.057C443.779 252.057 443.818 252.044 443.847 252.015C443.91 251.957 443.913 251.857 443.855 251.797C431.103 238.113 427.92 225.101 427.497 216.593C427.037 207.375 429.628 201.312 429.655 201.252C429.689 201.173 429.652 201.081 429.573 201.047C429.494 201.012 429.402 201.049 429.368 201.125C429.342 201.186 426.727 207.301 427.185 216.588C427.608 225.151 430.803 238.247 443.626 252.005C443.66 252.041 443.7 252.057 443.742 252.057Z" fill="white"/>
<path opacity="0.7" d="M478.534 147.846C478.549 147.846 478.563 147.843 478.578 147.841C493.015 143.507 499.973 134.181 503.271 127.121C506.842 119.474 507 112.755 507 112.69C507.003 112.603 506.934 112.532 506.848 112.532H506.845C506.761 112.532 506.69 112.6 506.69 112.684C506.69 112.75 506.53 119.41 502.982 127.002C499.713 133.999 492.808 143.246 478.489 147.546C478.408 147.57 478.36 147.656 478.384 147.741C478.405 147.801 478.465 147.846 478.534 147.846Z" fill="white"/>
<path d="M338.947 258.384C326.778 251.548 321.898 234.967 322.849 222.339C324.318 202.85 339.036 201.287 343.043 180.609C347.303 158.621 332.22 152.334 337.149 131.58C341.666 112.57 354.931 115.275 363.298 93.208C371.712 71.0169 361.503 60.3832 372.992 42.8814C375.181 39.5448 384.183 25.827 397.285 26.2954C408.245 26.6875 417.082 36.8291 420.259 45.9366C423.854 56.2361 418.706 60.8937 417.264 78.2561C415.295 101.976 424.08 103.194 420.727 119.086C416.244 140.321 399.818 143.053 399.868 160.452C399.902 172.154 407.972 173.062 411.204 187.119C415.821 207.208 404.987 229.907 390.153 243.343C388.206 245.111 359.879 270.144 338.947 258.384Z" fill="url(#paint2_linear)"/>
<path opacity="0.7" d="M345.773 265.971C345.81 265.971 345.844 265.958 345.873 265.934C362.094 252.022 370.947 237.157 372.179 221.749C372.765 214.434 371.388 209.892 369.793 204.637C368.209 199.414 366.414 193.49 365.888 183.291C365.715 179.923 365.308 172.033 366.579 162.21C368.082 150.603 371.454 139.969 376.596 130.599C381.061 122.465 385.186 118.404 388.503 115.141C392.334 111.371 395.358 108.394 397.229 101.208C399.405 92.8452 397.684 86.9508 395.692 80.1221C394.029 74.4277 392.145 67.9727 392.323 58.9258C392.589 45.587 396.212 31.9613 403.097 18.4251C403.136 18.3488 403.105 18.2541 403.029 18.2173C402.952 18.1778 402.858 18.2094 402.821 18.2857C395.915 31.864 392.279 45.537 392.013 58.9232C391.832 68.0175 393.724 74.4961 395.392 80.2116C397.374 86.9929 399.082 92.8505 396.927 101.132C395.08 108.237 392.079 111.186 388.282 114.923C384.953 118.199 380.809 122.278 376.32 130.451C371.16 139.853 367.778 150.527 366.269 162.173C364.992 172.023 365.4 179.933 365.576 183.309C366.104 193.546 367.906 199.487 369.494 204.729C371.078 209.955 372.447 214.471 371.866 221.728C370.639 237.049 361.826 251.845 345.668 265.703C345.602 265.758 345.594 265.855 345.652 265.921C345.686 265.953 345.731 265.971 345.773 265.971Z" fill="white"/>
<path opacity="0.7" d="M397.947 89.4824C397.999 89.4824 398.049 89.4561 398.078 89.4087C398.123 89.335 398.099 89.2403 398.028 89.1956C383.76 80.3881 376.15 65.3046 372.276 54.2025C368.077 42.1662 367.25 32.0904 367.242 31.9904C367.234 31.9036 367.16 31.8404 367.073 31.8483C366.987 31.8562 366.924 31.9299 366.932 32.0167C366.939 32.1167 367.772 42.2347 371.985 54.3078C375.874 65.4572 383.52 80.6065 397.865 89.4639C397.891 89.4771 397.92 89.4824 397.947 89.4824Z" fill="white"/>
<path opacity="0.7" d="M378.359 134.102C386.066 134.102 393.129 132.275 399.407 128.655C405.201 125.313 410.333 120.442 414.666 114.179C422.037 103.524 424.56 92.3721 424.586 92.2616C424.604 92.1774 424.552 92.0958 424.468 92.0774C424.384 92.059 424.302 92.1116 424.284 92.1958C424.26 92.3063 421.745 103.406 414.406 114.011C410.099 120.234 405.001 125.071 399.249 128.389C392.062 132.536 383.825 134.31 374.769 133.662C374.685 133.657 374.609 133.72 374.604 133.807C374.599 133.894 374.662 133.967 374.748 133.973C375.962 134.057 377.168 134.102 378.359 134.102Z" fill="white"/>
<path opacity="0.7" d="M366.837 156.608C366.893 156.608 366.942 156.579 366.971 156.529C367.013 156.456 366.987 156.361 366.914 156.316C359.627 152.164 353.959 146.809 350.065 140.401C346.948 135.275 344.956 129.467 344.139 123.139C342.746 112.352 345.295 103.677 345.319 103.59C345.342 103.508 345.298 103.421 345.214 103.395C345.132 103.369 345.046 103.416 345.019 103.5C344.993 103.587 342.428 112.316 343.826 123.165C344.649 129.541 346.656 135.391 349.794 140.556C353.717 147.011 359.424 152.406 366.758 156.584C366.785 156.6 366.811 156.608 366.837 156.608Z" fill="white"/>
<path opacity="0.7" d="M372.06 215.83C372.065 215.83 372.068 215.83 372.073 215.83C380.479 215.164 388.076 212.483 394.648 207.859C399.906 204.165 404.523 199.226 408.373 193.184C414.924 182.903 417.005 172.843 417.026 172.743C417.042 172.658 416.989 172.577 416.905 172.558C416.821 172.54 416.739 172.595 416.721 172.68C416.7 172.78 414.629 182.79 408.105 193.023C404.276 199.028 399.688 203.936 394.464 207.607C387.937 212.193 380.395 214.854 372.047 215.517C371.963 215.525 371.897 215.598 371.905 215.685C371.913 215.77 371.981 215.83 372.06 215.83Z" fill="white"/>
<path opacity="0.7" d="M361.637 248.926C361.705 248.926 361.768 248.879 361.786 248.811C361.807 248.726 361.757 248.642 361.676 248.621C354.505 246.769 348.364 242.942 343.419 237.248C339.459 232.688 336.255 226.925 333.893 220.123C329.867 208.526 329.691 197.782 329.691 197.674C329.691 197.587 329.62 197.51 329.534 197.521C329.447 197.521 329.379 197.592 329.381 197.679C329.384 197.787 329.56 208.576 333.599 220.217C335.974 227.062 339.198 232.859 343.182 237.451C348.169 243.195 354.363 247.055 361.597 248.924C361.61 248.924 361.623 248.926 361.637 248.926Z" fill="white"/>
<path d="M127.029 206.488L35.3186 203.888C25.1572 203.423 17.0664 211.293 17.0664 221.422V221.532C17.0664 231.661 24.0062 239.366 34.1677 240.279L123.277 247.391L127.029 206.488Z" fill="url(#paint3_linear)"/>
<path d="M282.107 235.998L125.784 245.45C116.508 246.01 108.924 239.424 108.924 230.732V224.835C108.924 216.143 116.508 208.78 125.784 208.391L282.107 201.841V235.998Z" fill="white"/>
<path d="M283.54 237.732L127.027 247.35C114.929 248.092 104.98 239.466 104.98 228.112V227.988C104.98 216.633 114.931 206.986 127.027 206.492L283.54 200.079C284.53 200.039 285.334 200.818 285.334 201.823C285.334 202.829 284.53 203.676 283.54 203.718L127.027 210.441C117.289 210.86 109.292 218.633 109.292 227.767V227.891C109.292 237.024 117.286 243.979 127.027 243.4L283.54 234.093C284.53 234.035 285.334 234.801 285.334 235.806C285.334 236.809 284.533 237.672 283.54 237.732Z" fill="url(#paint4_linear)"/>
<path d="M128.966 145.337L35.3218 147.348C25.1603 147.556 17.0696 160.095 17.0696 175.302V175.47C17.0696 190.68 25.1603 203.421 35.3218 203.887L124.425 206.374L128.966 145.337Z" fill="url(#paint5_linear)"/>
<path d="M282.107 197.4L134.132 203.245C120.289 203.792 108.924 193.661 108.924 180.612V171.757C108.924 158.707 120.289 147.995 134.132 147.834L282.107 146.113V197.4Z" fill="white"/>
<path d="M283.54 200.075L127.027 206.488C114.929 206.983 104.98 193.52 104.98 176.468V176.282C104.98 159.232 114.932 145.257 127.027 145.133L283.54 143.531C284.531 143.52 285.335 144.736 285.335 146.244C285.335 147.751 284.531 148.986 283.54 148.999L127.027 151.067C117.289 151.196 109.292 162.459 109.292 176.174V176.361C109.292 190.076 117.286 200.928 127.027 200.559L283.54 194.612C284.531 194.575 285.335 195.768 285.335 197.275C285.335 198.778 284.533 200.033 283.54 200.075Z" fill="url(#paint6_linear)"/>
<path opacity="0.5" d="M100.542 197.951L81.6037 196.867C77.0262 183.802 77.3731 171.202 81.6037 155.871L100.542 155.929C96.7447 171.581 97.3228 185.42 100.542 197.951Z" fill="white"/>
<path d="M171.02 33.6596L361.097 23.0838C365.475 22.8785 369.416 27.473 369.416 31.3308V266.714C369.416 272.064 363.732 273.14 359.355 272.711L171.02 254.215C167.58 253.878 164.803 250.849 164.803 247.452V40.1066C164.803 36.7068 167.58 33.8227 171.02 33.6596Z" fill="#ECF5E5"/>
<path d="M167.895 31.7913L358.348 22.7812C362.725 22.5733 366.291 25.5574 366.291 29.4441V266.667C366.291 270.553 362.725 273.353 358.348 272.919L167.895 254.067C164.455 253.728 161.678 250.675 161.678 247.252V38.2857C161.678 34.8622 164.455 31.9545 167.895 31.7913Z" fill="#FAFFF7"/>
<path opacity="0.74" d="M358.348 269.703C360.71 269.932 362.636 268.414 362.636 266.319V29.6019C362.636 27.5072 360.71 25.8889 358.348 25.9968L167.895 34.649C166.035 34.7332 164.526 36.3094 164.526 38.162V247.523C164.526 249.375 166.037 251.031 167.895 251.21L358.348 269.703Z" fill="#ECF5E5"/>
<path d="M180.17 245.596L343.066 260.69V42.2949L180.17 48.1946V245.596Z" fill="white"/>
<path opacity="0.3" d="M245.325 49.2677L310.427 50.0518L308.966 35.9315C308.855 34.0974 307.476 32.5922 305.66 32.3238L294.634 30.6949C293.336 30.5028 292.219 29.6791 291.651 28.4924L290.456 25.9951L261.619 27.7082L245.325 49.2677Z" fill="#778967"/>
<path d="M210.558 40.1065C210.869 38.5092 212.198 37.3882 213.875 37.3145L224.278 36.8672C229 36.6646 232.461 32.9753 232.287 28.3018L231.885 17.4734C231.812 15.4708 233.299 13.8657 235.341 13.7499L238.759 13.5525C241.366 13.4025 243.1 11.1921 242.735 8.6396C242.096 4.17403 245.276 0.321583 249.888 0.0189657C254.534 -0.286283 258.872 3.12934 259.563 7.65018C259.665 8.32119 259.902 8.98695 260.286 9.57903C261.36 11.2342 263.242 12.1473 265.084 12.0421L268.61 11.8394C270.747 11.7158 272.775 13.1578 273.317 15.1867L276.249 26.1782C277.516 30.9306 282.298 34.3673 287.378 34.1463L298.79 33.6542C300.658 33.5726 302.492 34.6199 303.354 36.2646L310.231 49.3876C310.793 50.4613 310.1 51.6244 308.872 51.6612L209.912 54.8216C208.829 54.8558 207.91 53.8164 208.109 52.7848L210.558 40.1065ZM251.291 9.38956C252.655 9.30799 253.601 8.16857 253.401 6.84495C253.204 5.52133 251.935 4.51611 250.574 4.60032C249.212 4.68453 248.272 5.82394 248.471 7.14493C248.668 8.46592 249.93 9.47114 251.291 9.38956Z" fill="#97AC85"/>
<path d="M209.972 40.399C210.282 38.8017 211.611 37.6807 213.288 37.607L223.691 37.1597C228.413 36.957 231.874 33.2677 231.7 28.5943L231.298 17.7659C231.225 15.7633 232.712 14.1581 234.754 14.0424L238.173 13.845C240.779 13.695 242.514 11.4846 242.148 8.93208C241.51 4.46651 244.689 0.614063 249.301 0.311446C253.947 0.00619787 258.285 3.42182 258.976 7.94265C259.079 8.61367 259.315 9.27943 259.699 9.87151C260.774 11.5267 262.652 12.4398 264.497 12.3345L268.024 12.1319C270.16 12.0083 272.189 13.4503 272.73 15.4791L275.662 26.4707C276.929 31.2231 281.711 34.6598 286.791 34.4387L298.203 33.9467C300.071 33.8651 301.905 34.9124 302.767 36.5571L309.644 49.6801C310.206 50.7537 309.513 51.9168 308.286 51.9537L209.325 55.114C208.243 55.1483 207.323 54.1088 207.523 53.0773L209.972 40.399ZM250.704 9.68468C252.068 9.6031 253.014 8.46369 252.814 7.14007C252.617 5.81644 251.348 4.81123 249.987 4.89544C248.626 4.97964 247.685 6.11906 247.885 7.44005C248.084 8.76104 249.346 9.76625 250.704 9.68468Z" fill="#D8E9CA"/>
<path d="M260.937 239.261L331.218 245.172V241.661L260.937 235.898V239.261Z" fill="#F0F8E9"/>
<path d="M260.938 245.307L331.219 251.48V247.97L260.938 241.944V245.307Z" fill="#F0F8E9"/>
<path d="M189.976 233.291L254.084 238.683V235.333L189.976 230.075V233.291Z" fill="#F0F8E9"/>
<path d="M189.978 239.072L254.087 244.703V241.353L189.978 235.856V239.072Z" fill="#F0F8E9"/>
<path opacity="0.5" d="M226.907 46.4293C235.734 41.1874 242.508 44.9057 248.011 38.9928C253.899 32.6642 249.929 24.3356 256.023 20.4042C259.925 17.8886 263.404 20.1069 267.942 19.4253C269.603 19.1754 271.377 18.5412 273.219 17.3018L275.662 26.4671C276.929 31.2195 281.711 34.6562 286.791 34.4351L298.203 33.9431C300.071 33.8615 301.905 34.9088 302.767 36.5535L309.644 49.6765C310.206 50.7501 309.513 51.9132 308.286 51.9501L218.352 54.8236C220.617 51.3659 223.428 48.495 226.907 46.4293Z" fill="#F0F8E9"/>
<path d="M198.286 221.785L207.502 178.974C209.112 169.49 205.93 159.644 198.982 152.544C195.17 148.644 192.776 143.652 192.242 138.366C191.409 130.124 191.509 116.706 197.02 100.296C204.417 78.266 227.365 64.1614 252 66.9139C264.547 68.3164 279.42 71.711 295.354 78.858C304.662 83.0342 311.108 91.3206 312.133 100.902C312.611 105.365 313.496 110.309 315.107 114.717C317.141 120.274 318.024 124.087 318.389 126.561C318.72 128.806 317.759 131.027 315.872 132.466C313.933 133.942 313.452 136.484 314.726 138.521L328.992 161.351V162.08C328.992 164.335 327.055 166.13 324.572 166.188L315.972 166.385L316.295 174.345C316.358 175.882 315.249 177.206 313.62 177.537L311.675 177.935L313.449 179.308C314.897 180.427 315.278 182.306 314.342 183.719L311.836 187.508C310.703 189.218 310.866 191.445 312.246 193.134C314.534 195.937 315.002 199.578 313.457 202.578L312.758 203.939C309.526 210.22 301.892 213.341 294.343 211.499C285.868 209.431 275.137 206.368 267.847 202.684C265.787 201.642 263.417 202.92 263.417 205.052V226.751L198.286 221.785Z" fill="url(#paint7_linear)"/>
<path d="M279.539 125.14C286.263 123.696 288.292 126.375 293.745 124.351C300.317 121.909 305.22 115.33 306.042 108.746C307.212 99.389 299.854 92.442 294.806 87.679C283.234 76.7559 269.162 74.2376 265.063 73.5587C259.492 72.635 235.706 69.4615 216.841 85.1739C203.753 96.076 200.557 109.846 199.669 113.951C198.376 119.927 194.343 138.582 204.877 145.895C211.121 150.229 221.151 149.71 227.526 146.039C232.224 143.334 231.252 141.392 235.882 138.716C245.121 133.379 251.58 140.116 262.506 135.948C271.241 132.616 270.434 127.098 279.539 125.14Z" fill="#B4EFA8"/>
<path d="M166.934 246.054C172.528 246.054 178.727 245.198 185.062 242.775C205.419 234.983 220.749 213.163 219.961 193.101C219.646 185.08 216.619 179.067 213.949 173.76C210.759 167.423 208.005 161.952 210.859 154.99C211.019 154.598 211.276 154.008 211.6 153.263C213.72 148.403 218.13 138.285 217.383 134.164C216.934 131.678 215.486 130.457 215.426 130.407L215.402 130.388C214.803 129.967 214.12 129.749 213.457 129.538C213.111 129.428 212.785 129.322 212.467 129.191C209.755 128.065 208.021 124.654 208.433 121.262C208.775 118.439 210.349 115.61 213.113 112.858C213.86 112.113 214.687 111.392 215.667 111.139C213.518 112.765 212.057 114.663 211.395 116.713C210.446 119.647 211.376 123.702 214.532 125.138C215.728 125.683 217.11 125.746 218.474 125.328C217.649 126.041 216.9 126.841 216.303 127.791C216.146 128.041 216.048 128.301 216.014 128.565C215.843 129.862 217.126 130.254 217.546 130.383C219.443 130.962 221.475 131.159 223.464 130.972C223.987 131.42 224.623 131.722 225.319 131.822C227.455 132.125 229.342 130.533 230.63 127.336C231.578 124.986 232.159 122.82 232.377 120.807C232.556 120.668 232.732 120.526 232.905 120.383C234.201 120.978 235.578 121.299 236.928 121.31C237.136 122.873 237.522 124.412 238.085 125.896C238.224 126.259 238.534 126.517 238.92 126.583C239.309 126.652 239.695 126.512 239.953 126.212C240.239 125.875 240.67 125.738 241.099 125.838C241.527 125.941 241.847 126.257 241.953 126.686C242.796 130.109 244.488 131.959 246.977 132.183C247.628 132.241 248.33 132.167 249.121 131.957C253.67 130.743 257.535 126.841 259.138 121.91C262.36 123.504 266.122 123.841 269.328 122.675C273.625 121.112 276.623 116.926 276.704 112.608C278.667 114.484 282.028 114.573 284.27 113.313C287.46 111.523 288.729 107.916 289.202 105.924C289.804 103.384 289.767 101.116 289.089 99.1766C287.391 94.3137 281.912 92.0059 277.939 90.6928C274.426 89.5323 271.772 89.4376 269.88 90.4165C269.728 89.7981 269.289 89.1534 268.824 88.806C259.692 81.9985 246.777 81.0012 236.684 86.322C235.851 86.7614 235.078 87.2245 234.369 87.7087C233.836 87.4403 233.265 87.2272 232.658 87.0824C230.159 86.4877 227.6 87.0956 225.046 88.8876C222.465 90.6981 220.558 93.2532 219.412 95.0768C216.29 100.045 215.36 104.184 216.566 107.734C216.824 108.492 217.173 109.197 217.588 109.858C217.352 109.994 217.123 110.134 216.9 110.279C216.448 110.226 216.001 110.247 215.573 110.344C214.361 110.621 213.408 111.444 212.554 112.292C209.663 115.173 208.01 118.157 207.648 121.162C207.127 125.46 209.526 128.82 212.162 129.915C212.509 130.059 212.869 130.172 213.216 130.283C213.841 130.483 214.432 130.67 214.932 131.015C215.05 131.12 216.23 132.209 216.608 134.296C217.312 138.18 212.803 148.522 210.88 152.937C210.554 153.687 210.294 154.279 210.131 154.679C207.14 161.976 209.97 167.597 213.247 174.105C215.883 179.338 218.868 185.27 219.175 193.119C219.543 202.474 216.293 212.634 210.028 221.729C203.614 231.039 194.648 238.246 184.781 242.025C169.942 247.706 155.837 244.633 148.75 242.293L148.503 243.043C152.668 244.43 159.224 246.054 166.934 246.054ZM258.426 121.536C256.931 126.281 253.249 130.038 248.913 131.196C248.212 131.383 247.602 131.449 247.043 131.399C244.925 131.207 243.469 129.559 242.715 126.499C242.539 125.788 241.989 125.244 241.277 125.073C240.565 124.904 239.827 125.144 239.351 125.699C239.243 125.823 239.107 125.815 239.052 125.804C238.999 125.796 238.873 125.76 238.818 125.612C238.284 124.212 237.916 122.754 237.714 121.278C238.085 121.247 238.45 121.194 238.812 121.112C239.99 120.854 241.035 120.365 241.966 119.726C242.97 119.955 243.952 120.262 244.904 120.649L245.371 120.839L245.442 120.339C245.637 118.957 245.597 117.547 245.345 116.173C245.358 116.155 245.371 116.136 245.382 116.118C245.726 116.197 246.07 116.26 246.414 116.307C247.463 116.881 248.624 117.399 249.888 117.865C251.893 118.599 253.743 119.068 255.459 119.268C255.617 119.426 255.78 119.581 255.945 119.733C256.705 120.431 257.54 121.033 258.426 121.536ZM228.811 129.133C227.989 130.343 226.877 131.249 225.424 131.043C225.154 131.004 224.896 130.928 224.652 130.815C225.148 130.728 225.64 130.617 226.123 130.48C227.229 130.17 228.141 129.707 228.811 129.133ZM222.786 130.233C221.094 130.322 219.38 130.122 217.77 129.63C216.887 129.362 216.74 129.051 216.789 128.67C216.808 128.52 216.868 128.367 216.966 128.215C217.741 126.986 218.779 126.025 219.945 125.16C220.074 125.641 220.213 126.117 220.363 126.588L220.489 126.978L220.876 126.838C221.335 126.67 221.787 126.502 222.229 126.331C222.071 126.944 222.016 127.575 222.069 128.225C222.126 128.967 222.384 129.659 222.786 130.233ZM228.43 123.431C228.609 123.849 228.775 124.27 228.924 124.696C229.19 125.441 229.416 126.233 229.276 126.967C228.951 128.688 226.814 129.467 225.91 129.72C225.201 129.92 224.47 130.062 223.735 130.151C223.241 129.63 222.915 128.93 222.852 128.159C222.789 127.394 222.894 126.659 223.167 125.954C225.098 125.165 226.848 124.328 228.43 123.431ZM231.492 121.473C231.255 123.044 230.793 124.715 230.109 126.502C230.109 125.791 229.904 125.094 229.668 124.433C229.5 123.962 229.316 123.494 229.116 123.033C229.957 122.531 230.748 122.012 231.492 121.473ZM222.581 125.341C222.066 125.549 221.535 125.754 220.991 125.954C220.862 125.528 220.742 125.099 220.631 124.665C221.186 124.281 221.761 123.907 222.344 123.531C223.784 122.597 225.274 121.633 226.517 120.41C226.591 120.339 226.662 120.265 226.733 120.191C226.893 120.447 227.048 120.704 227.198 120.965C227.032 121.054 226.867 121.149 226.704 121.244C224.673 122.425 223.283 123.815 222.581 125.341ZM228.107 122.707C226.777 123.465 225.324 124.181 223.74 124.86C224.447 123.796 225.571 122.818 227.103 121.923C227.261 121.831 227.421 121.741 227.582 121.652C227.765 122.002 227.942 122.352 228.107 122.707ZM219.646 123.936C219.344 124.123 219.026 124.283 218.695 124.417C217.37 124.946 216.006 124.949 214.855 124.425C212.706 123.446 211.058 120.315 212.141 116.96C212.992 114.328 215.131 112.394 217.078 111.11C217.809 111.247 218.561 111.608 219.273 112.163C218.663 116.055 218.792 120.091 219.646 123.936ZM219.977 112.792C220.019 112.834 220.061 112.879 220.103 112.921C222.305 115.257 223.075 118.581 222.016 121.194C221.672 122.047 221.083 122.82 220.345 123.433C219.609 119.955 219.486 116.318 219.977 112.792ZM226.289 119.512C226.184 119.626 226.073 119.739 225.963 119.847C224.804 120.989 223.388 121.915 222.008 122.81C222.31 122.397 222.56 121.954 222.747 121.491C223.53 119.56 223.417 117.284 222.539 115.223C223.057 115.713 223.572 116.215 224.05 116.723C224.864 117.586 225.616 118.523 226.289 119.512ZM275.69 109.944L275.861 111.473C276.342 115.776 273.351 120.373 269.055 121.933C266.007 123.041 262.417 122.699 259.361 121.144C259.537 120.497 259.677 119.836 259.779 119.162C260.402 119.047 261.001 118.881 261.584 118.67C264.304 117.686 266.577 115.631 268.156 112.729C269.108 110.984 269.767 108.992 270.093 106.929C270.679 107.589 271.315 108.208 272.045 108.721C273.06 109.437 274.381 109.939 275.69 109.944ZM231.62 120.394C230.748 121.062 229.805 121.699 228.788 122.307C228.627 121.965 228.457 121.625 228.278 121.291C229.358 120.76 230.488 120.331 231.647 120.002C231.644 120.133 231.633 120.262 231.62 120.394ZM258.962 119.291C258.878 119.786 258.775 120.276 258.649 120.757C257.971 120.357 257.325 119.897 256.723 119.373C257.498 119.405 258.242 119.378 258.962 119.291ZM231.1 119.341C229.999 119.673 228.927 120.091 227.897 120.599C227.7 120.255 227.492 119.915 227.277 119.581C227.881 118.857 228.401 118.06 228.832 117.215C229.119 117.563 229.418 117.891 229.734 118.199C230.165 118.62 230.622 119.002 231.1 119.341ZM236.752 119.223C236.765 119.657 236.794 120.089 236.834 120.52C235.741 120.499 234.629 120.257 233.567 119.815C233.688 119.71 233.807 119.602 233.922 119.494C234.858 119.341 235.804 119.252 236.752 119.223ZM240.838 119.505C240.166 119.881 239.435 120.17 238.644 120.347C238.308 120.42 237.969 120.47 237.625 120.499C237.583 120.073 237.556 119.644 237.541 119.215C238.647 119.226 239.751 119.32 240.838 119.505ZM244.688 117.094C244.793 117.97 244.806 118.857 244.722 119.736C244.084 119.497 243.432 119.291 242.772 119.118C243.487 118.515 244.123 117.826 244.688 117.094ZM233.557 118.76C233.194 118.823 232.832 118.897 232.472 118.981C232.466 117.773 232.319 116.623 232.03 115.523C231.676 114.181 231.066 112.942 230.275 111.873C230.351 110.518 230.215 109.158 229.852 107.858C229.332 106.003 228.076 103.932 226.071 103.468C226.333 102.034 226.869 100.582 227.839 99.2976C228.065 98.9977 228.317 98.7187 228.593 98.4582C228.864 100.442 229.844 102.3 231.754 103.508C232.837 104.192 234.072 104.5 235.268 104.432C235.869 106.958 236.855 109.2 238.161 111.05C237.727 112.139 237.393 113.265 237.16 114.413C236.631 115.273 236.027 116.102 235.352 116.892C234.795 117.539 234.198 118.16 233.557 118.76ZM228.299 116.523C227.9 117.37 227.403 118.17 226.82 118.897C226.155 117.936 225.419 117.026 224.623 116.181C223.897 115.413 223.104 114.671 222.337 113.955C221.588 113.257 220.831 112.55 220.129 111.805C220.269 110.997 220.442 110.2 220.647 109.41C220.657 109.366 220.671 109.323 220.681 109.279C221.611 108.96 222.481 108.808 223.325 108.808C223.327 108.808 223.33 108.808 223.333 108.808C224.031 108.808 224.702 108.918 225.34 109.118C225.366 109.276 225.395 109.429 225.424 109.573C225.958 112.271 226.94 114.634 228.299 116.523ZM244.509 116.007C243.76 117.084 242.862 118.094 241.795 118.884C240.397 118.589 238.965 118.436 237.53 118.426C237.538 117.173 237.664 115.926 237.906 114.702C238.379 113.918 238.794 113.113 239.146 112.292C239.795 113.029 240.505 113.679 241.269 114.239C242.263 114.965 243.353 115.51 244.483 115.871C244.488 115.918 244.499 115.963 244.509 116.007ZM230.146 113.115C230.653 113.955 231.034 114.844 231.266 115.723C231.523 116.699 231.66 117.718 231.681 118.786C231.192 118.449 230.724 118.065 230.288 117.636C229.907 117.263 229.547 116.857 229.208 116.42C229.657 115.365 229.975 114.25 230.146 113.115ZM259.078 118.481C258.058 118.62 256.975 118.634 255.824 118.518C254.792 117.441 253.925 116.197 253.244 114.834C253.444 114.694 253.638 114.547 253.827 114.389C256.074 112.497 257.002 109.784 257.351 107.4C258.915 111.105 259.506 114.947 259.078 118.481ZM236.742 118.436C236.122 118.455 235.499 118.497 234.881 118.568C235.252 118.189 235.607 117.802 235.948 117.405C236.271 117.028 236.579 116.642 236.868 116.249C236.789 116.973 236.747 117.705 236.742 118.436ZM252.574 115.252C253.139 116.37 253.825 117.413 254.618 118.355C253.231 118.118 251.746 117.71 250.162 117.128C249.589 116.918 248.99 116.678 248.38 116.405C249.875 116.336 251.32 115.952 252.574 115.252ZM269.42 106.134C268.7 112.468 264.895 116.639 261.314 117.934C260.851 118.099 260.376 118.236 259.884 118.339C260.286 114.634 259.621 110.623 257.937 106.774C257.816 106.497 257.666 106.213 257.498 105.929C257.54 105.229 257.54 104.587 257.519 104.04C257.398 100.774 256.539 98.2661 254.962 96.5609C255.254 96.3215 255.559 96.0925 255.877 95.8689C256.366 95.982 256.852 96.1188 257.333 96.2794C261.143 97.5504 264.785 100.271 267.867 104.145C268.106 104.445 268.343 104.753 268.577 105.058C268.855 105.416 269.134 105.776 269.42 106.134ZM229.468 112.129C229.374 113.336 229.1 114.534 228.664 115.665C227.516 113.947 226.68 111.839 226.205 109.45C227.49 110.047 228.598 111.005 229.468 112.129ZM252.235 114.539C250.624 115.457 248.653 115.794 246.68 115.557C246.446 115.428 246.212 115.292 245.981 115.152C246.83 113.679 247.434 112.197 247.839 111.021C248.123 110.194 248.388 109.345 248.643 108.508C249.339 109.255 250.122 109.918 250.976 110.473C251.236 111.889 251.662 113.257 252.235 114.539ZM244.231 114.928C244.233 114.936 244.236 114.947 244.239 114.955C243.361 114.623 242.512 114.173 241.732 113.602C240.909 113.002 240.155 112.286 239.477 111.468C239.666 110.963 239.835 110.45 239.977 109.939C240.011 109.921 240.047 109.905 240.082 109.889C240.084 109.889 240.087 109.887 240.09 109.887C240.859 111.779 242.26 113.476 244.231 114.928ZM248.036 107.8C247.739 108.784 247.431 109.792 247.098 110.763C246.709 111.892 246.128 113.318 245.319 114.728C245.179 114.636 245.04 114.539 244.904 114.442C244.378 112.831 243.545 111.321 242.447 110.034C242.123 109.655 241.524 108.947 240.594 108.971C240.507 108.7 240.436 108.424 240.379 108.145C240.623 106.695 240.676 105.247 240.528 103.845C241.148 101.471 242.617 99.2345 244.72 97.7451C245.206 97.4004 245.723 97.0951 246.267 96.8267C245.342 98.3661 245.14 100.411 245.468 102.226C245.828 104.255 246.738 106.184 248.036 107.8ZM256.697 106.134C256.51 108.605 255.748 111.739 253.32 113.784C253.186 113.897 253.047 114.005 252.905 114.107C252.471 113.121 252.132 112.081 251.891 111.008C251.943 111.034 251.996 111.063 252.048 111.089L252.406 110.387C252.164 110.263 251.927 110.131 251.696 109.992C251.481 108.668 251.415 107.303 251.507 105.924C251.554 105.211 251.862 104.568 252.348 104.158C252.792 103.784 253.31 103.663 253.888 103.797C254.941 104.04 255.998 105.058 256.697 106.134ZM240.907 109.797C241.23 109.894 241.519 110.158 241.847 110.544C242.602 111.429 243.222 112.423 243.692 113.486C242.525 112.46 241.537 111.242 240.907 109.797ZM272.962 90.5402C274.287 90.5402 275.858 90.8428 277.69 91.448C281.505 92.7085 286.758 94.9084 288.343 99.4424C288.968 101.237 288.999 103.355 288.432 105.745C287.988 107.61 286.808 110.984 283.881 112.629C281.613 113.902 278.06 113.639 276.589 111.226L275.808 109.944C276.649 109.929 277.479 109.705 278.213 109.195C279.153 108.539 279.75 107.524 280.212 106.613C281.355 104.361 282.992 100 281.122 96.1215C279.873 93.5321 277.146 91.5875 273.824 90.9191C273.099 90.7744 272.371 90.6902 271.651 90.6533C272.058 90.577 272.495 90.5402 272.962 90.5402ZM219.78 109.629C219.664 110.105 219.559 110.584 219.465 111.065C219.204 110.763 218.957 110.455 218.726 110.137C219.089 109.944 219.438 109.776 219.78 109.629ZM225.952 104.25C227.589 104.666 228.64 106.458 229.092 108.068C229.353 109.002 229.489 109.971 229.508 110.944C228.512 109.876 227.324 109.045 226.052 108.545C225.871 107.347 225.763 105.832 225.952 104.25ZM218.03 110.521C218.043 110.539 218.053 110.555 218.067 110.573C218.04 110.563 218.014 110.555 217.99 110.544C218.003 110.537 218.017 110.529 218.03 110.521ZM239.299 109.429C239.007 109.637 238.755 109.905 238.552 110.223C237.441 108.55 236.592 106.558 236.053 104.329C236.826 104.174 237.559 103.858 238.198 103.376C238.681 103.013 239.088 102.576 239.414 102.079C239.556 102.642 239.661 103.216 239.73 103.8C239.375 105.247 239.309 106.737 239.577 108.155C239.501 108.581 239.406 109.005 239.299 109.429ZM220.04 108.671C219.475 108.887 218.892 109.155 218.279 109.481C217.883 108.855 217.551 108.195 217.312 107.489C216.188 104.179 217.092 100.261 220.079 95.5083C225.456 86.9535 230.927 87.4929 232.474 87.8614C232.879 87.9587 233.265 88.0877 233.633 88.2455C231.831 89.6034 230.485 91.127 229.615 92.7953C228.885 94.1979 228.48 95.8504 228.517 97.4793C228.028 97.874 227.587 98.324 227.211 98.8214C226.147 100.229 225.569 101.816 225.288 103.374C222.77 103.326 220.907 105.871 220.04 108.671ZM253.441 102.95C252.855 102.95 252.311 103.153 251.841 103.55C251.192 104.097 250.784 104.942 250.721 105.868C250.64 107.06 250.674 108.242 250.816 109.4C250.12 108.881 249.481 108.284 248.913 107.626C249.888 104.403 250.913 101.09 253.023 98.5029C253.431 98.003 253.88 97.5293 254.371 97.082C255.83 98.6477 256.623 100.992 256.736 104.074C256.747 104.324 256.749 104.595 256.749 104.884C255.998 103.992 255.049 103.258 254.069 103.029C253.854 102.974 253.646 102.95 253.441 102.95ZM270.76 91.4217C271.722 91.4217 272.7 91.5007 273.669 91.6954C276.749 92.3138 279.269 94.0979 280.412 96.4662C282.136 100.04 280.585 104.134 279.511 106.258C279.096 107.079 278.562 107.992 277.763 108.547C276.176 109.65 273.922 109.079 272.5 108.079C271.643 107.479 270.913 106.703 270.232 105.879C270.303 105.197 270.335 104.511 270.332 103.824C270.301 99.2266 268.816 94.9505 266.228 91.9112C266.906 91.7796 267.628 91.6585 268.372 91.5691L267.788 92.1138L269.063 91.9112C269.386 91.8585 269.636 91.6954 269.786 91.448C270.106 91.4296 270.432 91.4217 270.76 91.4217ZM223.335 108.016C223.333 108.016 223.33 108.016 223.327 108.016C222.565 108.016 221.793 108.129 220.983 108.358C221.688 106.455 223.088 104.2 225.172 104.161C224.993 105.653 225.067 107.087 225.217 108.271C224.599 108.102 223.968 108.016 223.335 108.016ZM253.796 96.532C253.291 96.9951 252.831 97.4846 252.411 98.0003C250.319 100.563 249.266 103.742 248.314 106.874C247.276 105.455 246.548 103.811 246.238 102.087C245.726 99.2345 246.556 97.2451 247.857 96.1741C249.139 95.7478 250.516 95.5136 251.927 95.4741C252.485 95.6531 253.026 95.9373 253.528 96.3188C253.62 96.3846 253.709 96.4583 253.796 96.532ZM265.337 92.0953C267.986 95.0084 269.512 99.2476 269.541 103.829C269.544 104.218 269.536 104.603 269.515 104.979C269.41 104.845 269.307 104.708 269.202 104.574C268.963 104.263 268.727 103.955 268.485 103.65C265.308 99.6555 261.54 96.8478 257.582 95.5294C257.314 95.4399 257.044 95.3584 256.773 95.282C258.949 93.9505 261.674 92.9216 264.99 92.1717C265.106 92.1454 265.221 92.119 265.337 92.0953ZM235.094 103.647C234.098 103.679 233.076 103.408 232.175 102.837C230.377 101.7 229.497 99.8187 229.347 97.8319C230.349 97.1135 231.544 96.6346 232.777 96.4846C233.512 96.3952 234.227 96.432 234.887 96.5872C234.474 98.995 234.69 101.319 234.95 102.869C234.994 103.134 235.042 103.392 235.094 103.647ZM239.094 101.024C238.802 101.671 238.363 102.266 237.722 102.747C237.175 103.161 236.545 103.432 235.88 103.561C235.825 103.292 235.775 103.019 235.727 102.742C235.48 101.276 235.276 99.0924 235.643 96.832C236.085 97.0109 236.492 97.2504 236.857 97.5451C237.738 98.2582 238.455 99.3345 238.989 100.742C239.028 100.834 239.062 100.929 239.094 101.024ZM247.431 95.4847C246.288 95.8794 245.219 96.4188 244.262 97.0977C242.444 98.3845 241.067 100.198 240.252 102.195C240.163 101.808 240.061 101.429 239.937 101.053C240.492 99.6187 240.544 97.8214 240.069 95.7689C239.737 94.3347 239.109 92.7322 238.174 91.2875C240.208 89.0429 243.469 87.6245 247.878 87.0746C254.792 86.2114 260.893 87.7982 264.69 91.4322C261.014 92.2743 258.045 93.4611 255.717 95.0268C254.495 94.7715 253.257 94.661 252.043 94.6821C251.097 94.4005 250.114 94.3742 249.179 94.6242C248.498 94.8031 247.918 95.1005 247.431 95.4847ZM237.648 91.9217C238.455 93.2269 239.002 94.6584 239.301 95.9452C239.535 96.9504 239.745 98.4214 239.469 99.8266C238.915 98.5898 238.208 97.6161 237.357 96.9293C236.892 96.553 236.366 96.2557 235.798 96.0425C236.119 94.6163 236.689 93.1874 237.648 91.9217ZM233.56 95.6504C233.271 95.6504 232.976 95.6689 232.679 95.7057C231.494 95.8504 230.341 96.2688 229.329 96.9004C229.376 95.5978 229.723 94.2926 230.312 93.1611C231.176 91.5033 232.553 89.9902 234.419 88.6455C235.523 89.2902 236.442 90.2033 237.183 91.2322C236.061 92.6374 235.402 94.2295 235.039 95.8189C234.566 95.7057 234.072 95.6504 233.56 95.6504ZM254.828 95.6636C254.681 95.7768 254.539 95.8925 254.398 96.0083C254.269 95.8978 254.14 95.7899 254.003 95.6873C253.932 95.6347 253.861 95.582 253.79 95.532C254.137 95.5636 254.482 95.6083 254.828 95.6636ZM269.131 90.698C267.878 90.8007 266.685 91.0033 265.605 91.2296C265.571 91.1954 265.539 91.1612 265.505 91.127C261.558 87.1403 255.097 85.3773 247.778 86.2904C243.264 86.8535 239.882 88.3087 237.711 90.6217C236.999 89.6639 236.14 88.806 235.128 88.1534C235.725 87.7614 236.363 87.3877 237.047 87.0272C246.877 81.8432 259.456 82.8142 268.348 89.4455C268.758 89.7481 269.063 90.3033 269.131 90.698Z" fill="url(#paint8_linear)"/>
<path d="M87.205 162.263C87.2602 161.316 86.6401 160.547 86.3195 160.205H84.9137C84.664 160.681 84.3066 161.379 83.9046 162.237C83.069 164.018 82.6565 164.915 82.8457 165.126C83.3712 165.713 87.0737 164.476 87.205 162.263Z" fill="#1D1D1D"/>
<path d="M85.7679 158.484L85.0821 160.826C85.1373 160.95 85.852 161.363 86.4617 161.095L87.4865 158.821L85.7679 158.484Z" fill="url(#paint9_linear)"/>
<path d="M128.322 141.241C129.796 145.925 127.115 144.036 121.665 141.394C115.927 138.612 103.395 134.649 98.0474 139.996C94.0638 143.978 96.9464 150.209 90.787 157.132C89.7018 158.351 88.6717 159.206 88.0279 159.701C86.9059 159.245 85.7838 158.79 84.6618 158.335C84.2045 155.772 82.7514 145.885 88.9082 136.981C90.3955 134.828 93.2282 130.694 98.1079 128.918C111.307 124.118 126.963 136.92 128.322 141.241Z" fill="#285552"/>
<path d="M125.003 106.951C122.772 106.209 119.366 105.349 115.18 105.38C109.872 105.42 105.671 108.814 104.215 111.193C101.004 116.443 113.336 125.824 109.83 129.845C109.121 130.658 108.109 130.7 108.117 131.311C108.138 133.029 116.108 131.734 121.576 136.573C124.982 139.586 126.396 144.073 128.792 143.697C129.457 143.592 130.185 143.115 132.14 142.765C133.572 142.507 133.924 142.621 134.313 142.478C135.827 141.921 136.465 137.358 134.673 129.4C133.469 124.048 130.934 116.127 125.003 106.951Z" fill="#F2F2F2"/>
<path d="M111.346 101.858C111.346 102.345 112.573 104.782 114.216 105.956C115.874 107.14 117.947 107.061 118.564 107.208C119.999 107.553 120.183 107.542 120.217 107.684C120.378 108.379 116.486 110.774 112.444 110.232C109.972 109.9 107.715 108.505 107.846 107.763C107.98 107.016 110.45 107.4 111.175 106.045C111.68 105.103 111.096 103.774 110.411 102.674C111.062 101.435 110.7 103.095 111.346 101.858Z" fill="url(#paint10_linear)"/>
<path d="M106.641 105.63C105.779 105.185 105.159 103.982 105.393 102.917C105.595 102.001 106.368 101.511 106.83 101.217C108.173 100.364 110.252 100.093 111.508 101.101C112.251 101.698 112.23 103.698 112.243 104.048C112.259 104.445 112.057 104.682 111.939 105.045C111.776 105.548 111.523 106.345 111.121 107.666C110.927 107.429 110.664 107.143 110.333 106.856C110.204 106.745 109.697 106.319 109.111 106.048C107.937 105.501 107.458 106.051 106.641 105.63Z" fill="#1D1D1D"/>
<path d="M111.953 106.316C111.953 106.316 111.759 108.303 109.841 109.082C108.122 109.779 106.075 106.156 106.756 104.848C106.984 104.411 107.641 103.959 108.298 103.84C108.685 103.772 108.871 103.856 109.502 103.732C110.085 103.617 110.203 103.488 110.421 103.546C110.697 103.617 111.034 103.951 111.233 105.201C111.396 104.724 111.717 104.417 112.051 104.414C112.103 104.414 112.256 104.435 112.377 104.524C112.815 104.838 112.687 105.572 111.953 106.316Z" fill="url(#paint11_linear)"/>
<path d="M96.9337 161.586L95.5988 162.029C95.5988 162.029 92.9789 164.718 92.7293 166.139C92.5611 167.089 94.2166 166.528 95.3308 166.055C96.014 165.765 96.5684 165.244 96.91 164.586C97.4356 163.573 97.9611 162.1 96.9337 161.586Z" fill="#1D1D1D"/>
<path opacity="0.3" d="M109.828 129.843C110.393 129.195 110.543 128.316 110.411 127.277C109.938 126.067 108.296 121.464 110.54 117.249C110.913 116.549 112.574 113.425 114.939 113.394C116.489 113.372 117.963 114.683 119.613 116.146C121.224 117.575 121.429 118.241 121.95 118.212C122.819 118.159 123.973 116.201 124.995 106.944C124.998 106.944 125 106.946 125.003 106.946C130.934 116.122 133.469 124.043 134.673 129.393C136.465 137.353 135.827 141.916 134.313 142.471C133.924 142.613 133.572 142.503 132.14 142.758C130.185 143.108 129.454 143.584 128.792 143.689C126.398 144.066 124.985 139.579 121.576 136.566C116.108 131.729 108.138 133.022 108.117 131.303C108.109 130.698 109.118 130.656 109.828 129.843Z" fill="white"/>
<path d="M96.4865 159.674L95.8007 162.016C95.8559 162.14 96.5706 162.553 97.1803 162.284L98.2051 160.011L96.4865 159.674Z" fill="url(#paint12_linear)"/>
<path d="M135.409 136.022C136.609 138.479 135.606 141.735 134.034 143.75C130.684 148.047 123.087 147.653 118.336 146.108C112.553 144.229 111.239 140.743 108.976 141.619C105.46 142.979 108.03 151.655 101.716 158.755C100.631 159.973 99.6005 160.828 98.9567 161.323C97.8347 160.868 96.7127 160.413 95.5906 159.957C95.362 154.966 96.0163 150.91 96.6627 148.145C97.5745 144.24 98.489 140.335 101.613 136.461C102.898 134.867 105.156 132.04 109.037 130.538C112.45 129.217 116.439 130.004 124.278 131.632C133.693 133.593 134.865 134.906 135.409 136.022Z" fill="#376562"/>
<path d="M115.977 113.048L116.036 113.166L115.713 113.327L115.654 113.209L115.977 113.048Z" fill="#B3B3B3"/>
<path d="M124.974 106.923C124.974 106.923 132.398 109.676 133.223 119.864C134.048 130.053 127.907 130.972 125.34 131.89C122.772 132.809 118.649 131.982 116.174 126.748C113.699 121.517 111.912 110.915 111.912 110.915L113.286 110.365C113.286 110.365 119.472 122.343 122.499 121.517C125.524 120.691 121.95 112.704 121.95 112.704C120.491 107.91 121.416 105.884 124.974 106.923Z" fill="white"/>
<path d="M106.686 108.44C106.686 108.44 100.774 113.258 100.501 118.489C100.227 123.721 101.875 127.576 102.7 127.302C103.525 127.026 106.826 116.84 106.826 116.84L106.686 108.44Z" fill="#F2F2F2"/>
<path d="M106.139 111.191C106.139 111.191 106.636 108.426 107.847 108.452C109.059 108.478 108.848 109.52 108.223 109.731C107.597 109.939 106.765 111.191 106.765 111.191H106.139Z" fill="url(#paint13_linear)"/>
<path d="M106.964 111.192L105.863 110.916C105.863 110.916 102.975 115.734 102.15 117.936C101.325 120.139 99.5094 128.125 103.251 128.125C109.303 128.128 106.964 111.192 106.964 111.192Z" fill="white"/>
<path d="M113.043 110.463C113.043 110.463 112 108.129 111.13 108.147C110.261 108.163 109.712 108.989 110.537 109.542C111.362 110.092 112.242 110.786 112.242 110.786C112.242 110.786 112.802 110.836 113.043 110.463Z" fill="url(#paint14_linear)"/>
<path d="M125.753 281.921C125.753 281.921 130.336 283.579 131.4 284.195C132.465 284.81 130.252 284.953 128.88 284.871C127.509 284.787 124.747 284.897 124.232 284.313C123.714 283.729 124.655 281.855 125.753 281.921Z" fill="#1D1D1D"/>
<path d="M125.664 280.129L126.079 281.995C126.153 282.331 125.937 282.66 125.601 282.729L125.299 282.789C125.028 282.845 124.755 282.71 124.631 282.463L123.741 280.679L125.664 280.129Z" fill="url(#paint15_linear)"/>
<path d="M120.713 237.447C121.625 240.147 122.8 244.221 123.462 249.289C124.229 255.149 123.793 258.381 124.011 264.159C124.164 268.209 124.658 273.964 126.211 280.956C125.293 281.14 124.376 281.324 123.462 281.506C121.604 279.056 119.134 275.182 117.689 269.941C116.985 267.388 117.245 267.128 116.315 262.507C115.936 260.636 115.445 258.452 112.741 248.463C110.576 240.463 110.097 238.939 111.091 237.724C112.951 235.445 118.02 236.632 120.713 237.447Z" fill="#285552"/>
<path d="M98.5306 283.023C98.5306 283.023 103.113 284.681 104.178 285.297C105.242 285.913 103.029 286.055 101.658 285.973C100.286 285.889 97.5242 285.999 97.0092 285.415C96.4941 284.831 97.4322 282.957 98.5306 283.023Z" fill="#1D1D1D"/>
<path d="M100.092 281.505C100.32 281.657 98.9906 283.707 98.9906 283.707C98.9906 283.707 98.1655 283.983 97.6163 283.707V281.228C97.6163 281.228 99.2665 280.955 100.092 281.505Z" fill="url(#paint16_linear)"/>
<path d="M114.389 237.997C114.41 240.51 114.26 244.4 113.288 249.012C112.048 254.902 110.192 258.491 107.239 265.259C105.539 269.154 103.092 274.969 100.365 282.332C99.2636 282.24 98.1652 282.148 97.0642 282.056C96.5492 279.056 96.1839 274.656 97.3401 269.664C98.4648 264.809 100.373 262.217 101.739 259.201C103.733 254.802 105.273 247.952 102.84 237.447C102.979 237.166 104.44 234.329 107.515 233.868C110.269 233.453 113.141 235.116 114.389 237.997Z" fill="#376562"/>
<path d="M134.462 209.635C133.426 211.606 126.153 202.483 123.462 200.822C120.151 198.78 121.812 213.764 121.812 213.764L130.612 220.371L134.462 209.635Z" fill="white"/>
<path opacity="0.15" d="M134.462 209.635C133.426 211.606 126.153 202.483 123.462 200.822C120.151 198.78 121.812 213.764 121.812 213.764L130.612 220.371L134.462 209.635Z" fill="url(#paint17_linear)"/>
<path d="M125.115 205.229C123.998 209.955 123.459 214.089 123.191 217.344C122.705 223.246 122.324 227.83 123.467 233.591C124.603 239.317 126.418 242.064 125.118 243.227C123.444 244.724 119.823 240.735 114.118 241.851C111.545 242.353 111.535 243.311 107.793 244.33C104.734 245.161 101.195 246.127 99.5445 244.606C98.115 243.29 98.8876 240.832 100.919 232.214C103.076 223.057 102.443 224.815 104.219 217.897C106.829 207.729 107.709 205.837 109.17 203.853C109.17 203.853 112.163 199.784 116.593 198.071C118.506 197.332 119.791 197.421 120.443 197.521C120.808 197.577 122.109 197.787 123.191 198.624C124.934 199.966 125.622 202.555 125.115 205.229Z" fill="white"/>
<path d="M122.64 195.59C122.64 195.59 121.266 197.519 119.892 197.793C118.517 198.069 123.465 198.895 124.017 200.821C124.017 200.821 123.833 199.537 123.468 198.916C123.321 198.666 123.302 198.361 123.418 198.095L124.017 196.693L122.64 195.59Z" fill="url(#paint18_linear)"/>
<path d="M125.982 194.067C126.471 193.417 126.5 192.283 125.938 191.567C125.454 190.952 124.692 190.862 124.235 190.809C122.913 190.657 121.245 191.209 120.666 192.428C120.322 193.149 121.066 194.649 121.182 194.92C121.313 195.225 121.552 195.33 121.773 195.559C122.08 195.878 122.558 196.388 123.342 197.238C123.402 196.988 123.494 196.678 123.641 196.341C123.699 196.212 123.925 195.704 124.269 195.286C124.96 194.444 125.52 194.683 125.982 194.067Z" fill="#1D1D1D"/>
<path d="M122.227 196.52C122.227 196.52 123.097 197.946 124.826 197.836C126.373 197.736 126.602 194.257 125.611 193.518C125.28 193.27 124.621 193.17 124.082 193.32C123.764 193.41 123.656 193.541 123.136 193.678C122.655 193.805 122.518 193.749 122.374 193.873C122.193 194.026 122.059 194.402 122.363 195.418C122.069 195.118 121.714 195.002 121.462 195.123C121.423 195.141 121.315 195.215 121.255 195.323C121.039 195.72 121.402 196.225 122.227 196.52Z" fill="url(#paint19_linear)"/>
<path d="M122.306 193.663C122.379 193.718 122.153 193.997 122.135 194.392C122.101 195.158 122.876 196.079 123.667 196.158C124.135 196.205 124.263 195.921 125.036 195.839C125.514 195.789 125.914 195.85 126.163 195.905C126.405 196.747 126.176 197.584 125.617 197.973C125.012 198.392 124.24 198.139 123.919 198.031C123.704 197.96 123.013 197.734 122.65 197.1C122.274 196.437 122.642 196.039 122.211 195.592C121.993 195.366 121.707 195.268 121.428 194.832C121.352 194.713 121.302 194.608 121.271 194.537C121.667 194.113 122.198 193.584 122.306 193.663Z" fill="#1D1D1D"/>
<path d="M125.6 196.217C125.6 196.217 125.266 196.391 124.688 196.36C124.659 196.357 124.63 196.367 124.625 196.381C124.612 196.436 124.983 196.681 125.324 196.586C125.566 196.517 125.755 196.289 125.724 196.228C125.708 196.204 125.653 196.207 125.6 196.217Z" fill="url(#paint20_linear)"/>
<path d="M164.129 189.659C168.089 190.469 172.84 191.443 176.511 195.427C180.389 199.634 181.624 205.645 182.578 210.289C182.925 211.973 183.327 213.929 183.411 216.071C183.708 223.633 179.995 232.086 173.812 237.562C164.928 245.43 151.789 246.387 141.646 241.73C139.475 240.732 127.301 234.825 124.847 221.097C122.356 207.163 132.044 197.308 133.066 196.303C144.016 185.54 159.417 188.693 164.129 189.659Z" fill="url(#paint21_linear)"/>
<path opacity="0.3" d="M148.092 230.571C151.361 227.031 146.494 221.176 149.997 213.495C154.517 203.582 166.964 203.819 167.85 197.227C168.084 195.491 167.545 193.02 164.234 189.68C168.173 190.486 172.871 191.478 176.511 195.428C180.389 199.635 181.624 205.645 182.578 210.29C182.925 211.974 183.327 213.929 183.411 216.071C183.708 223.634 179.995 232.086 173.812 237.562C164.928 245.43 151.789 246.388 141.646 241.731C139.901 240.931 131.697 236.952 127.27 228.294C140.348 233.673 145.84 233.007 148.092 230.571Z" fill="url(#paint22_linear)"/>
<path d="M145.469 193.213C145.724 191.621 146.208 190.005 147.569 189.029C147.676 188.953 147.818 189.132 147.713 189.216C146.357 190.295 146.037 192.168 145.863 193.797C145.685 195.481 145.632 197.226 145.742 198.913C146.029 203.331 147.44 207.71 148.911 211.857C151.749 219.856 155.775 227.677 161.343 234.127C163.201 236.279 166.741 240.405 169.967 239.279C170.356 239.142 170.525 239.761 170.138 239.898C167.229 240.924 164.207 238.071 162.347 236.19C159.412 233.227 156.976 229.709 154.845 226.138C152.467 222.148 150.47 217.922 148.843 213.57C147.156 209.049 145.587 204.255 145.206 199.418C145.049 197.384 145.143 195.231 145.469 193.213Z" fill="#FD8947"/>
<path d="M141.128 194.877C141.58 193.809 142.121 192.756 142.715 191.762C143.225 190.906 143.582 190.356 144.329 189.683C144.444 189.578 144.715 189.57 144.605 189.683C144.019 190.275 143.727 190.828 143.322 191.551C142.807 192.475 142.324 193.419 141.895 194.388C140.918 196.59 140.511 198.903 140.413 201.303C140.245 205.49 141.131 209.59 142.544 213.511C144.074 217.747 146.313 221.494 148.696 225.292C150.919 228.836 153.231 232.333 155.951 235.52C158.529 238.541 162.402 242.43 166.515 241.641C163.561 241.07 160.784 239.033 158.679 237.075C155.578 234.194 153.097 230.697 150.906 227.094C148.636 223.363 146.673 219.447 144.98 215.418C143.288 211.382 141.893 207.358 141.772 202.943C141.709 200.585 141.953 198.214 142.445 195.909C142.692 194.759 143.004 193.612 143.459 192.525C143.906 191.459 144.794 190.835 144.878 189.683C144.888 189.541 145.149 189.262 145.154 189.407C145.188 190.306 144.899 190.593 144.499 191.364C143.848 192.625 143.412 193.964 143.086 195.343C142.46 197.985 142.179 200.717 142.305 203.43C142.565 208.969 144.852 214.155 147.206 219.095C149.487 223.884 152.151 228.602 155.465 232.76C158.5 236.562 162.589 240.622 167.645 241.301C167.834 241.225 168.023 241.141 168.212 241.041C167.616 240.88 167.003 240.794 166.425 240.551C165.414 240.13 164.415 239.549 163.514 238.93C161.937 237.844 160.558 236.491 159.241 235.104C156.4 232.112 153.917 228.791 151.731 225.292C147.424 218.392 144.134 210.571 143.343 202.414C142.886 197.688 143.44 193.475 145.763 189.291C145.811 189.207 145.958 189.262 145.924 189.359C145.059 191.754 144.024 194.098 143.769 196.656C143.509 199.251 143.737 201.961 144.139 204.529C144.923 209.553 146.607 214.45 148.83 219.013C151.043 223.552 153.786 227.873 156.981 231.783C158.518 233.662 160.161 235.494 161.979 237.107C162.894 237.917 163.866 238.652 164.93 239.251C165.598 239.625 166.333 240.051 167.061 240.275C167.245 240.33 168.559 240.717 168.685 240.559C168.882 240.312 169.221 240.659 169.032 240.907L169.021 240.92C169.063 241.025 169.048 241.154 168.922 241.233C168.617 241.422 168.309 241.58 168.007 241.715C167.97 241.762 167.915 241.793 167.831 241.791C164.399 243.201 161.091 241.312 158.366 238.873C155.06 235.915 152.383 232.104 149.978 228.402C144.896 220.576 139.864 212.198 139.848 202.545C139.848 199.969 140.116 197.272 141.128 194.877Z" fill="#FD8947"/>
<path d="M136.243 237.685C141.078 236.309 145.296 233.132 148.938 229.751C152.54 226.406 155.673 222.572 158.416 218.499C161.328 214.175 163.85 209.565 165.826 204.736C166.78 202.405 167.611 200.018 168.286 197.592C168.651 196.279 169.027 194.924 169.163 193.563C169.258 192.621 169.248 191.706 169.55 190.8C169.621 190.585 169.96 190.674 169.894 190.895C169.382 192.608 169.523 194.537 169.119 196.303C168.656 198.316 168.052 200.302 167.361 202.247C165.924 206.297 164.092 210.21 161.95 213.933C158.117 220.596 153.366 226.883 147.464 231.846C144.19 234.598 140.553 237.08 136.406 238.264C136.03 238.369 135.873 237.79 136.243 237.685Z" fill="url(#paint23_linear)"/>
<path d="M137.991 239.349C138.545 239.147 139.057 239.212 139.633 239.073C140.298 238.912 140.918 238.507 141.504 238.168C142.718 237.465 143.85 236.678 144.928 235.776C146.767 234.236 148.446 232.494 150.12 230.779C153.541 227.263 156.787 223.563 159.638 219.566C162.465 215.6 164.922 211.311 166.864 206.843C168.998 201.938 169.988 196.175 170.204 190.846C170.212 190.641 170.517 190.641 170.522 190.846C170.898 207.546 159.987 221.918 148.699 233.102C147.143 234.642 145.569 236.173 143.787 237.452C142.868 238.112 141.882 238.728 140.868 239.231C139.943 239.689 139.097 239.61 138.143 239.899C137.788 240.004 137.652 239.473 137.991 239.349Z" fill="url(#paint24_linear)"/>
<path d="M139.638 240.352C144.523 238.673 148.073 234.681 151.56 231.055C155.013 227.461 158.335 223.721 161.217 219.648C164.152 215.498 166.617 211.019 168.307 206.217C170.049 201.265 170.695 196.244 171.029 191.031C171.042 190.826 171.337 190.826 171.347 191.031C171.794 199.091 169.103 207.472 165.206 214.435C161.236 221.527 155.796 227.603 150.128 233.366C147.096 236.447 143.969 239.484 139.796 240.915C139.439 241.034 139.286 240.471 139.638 240.352Z" fill="url(#paint25_linear)"/>
<path d="M141.58 241.377C143.885 240.04 145.913 238.34 147.911 236.588C149.668 235.048 151.476 233.564 153.184 231.969C156.729 228.664 159.938 224.983 162.623 220.941C165.393 216.773 167.408 212.247 169.143 207.565C170.012 205.223 170.83 202.831 171.402 200.395C171.728 199.003 171.965 197.568 172.007 196.14C172.049 194.763 171.744 193.408 171.917 192.037C171.946 191.806 172.293 191.787 172.291 192.037C172.28 194.119 172.68 196.074 172.406 198.166C172.138 200.216 171.578 202.205 170.953 204.173C169.734 208.007 168.275 211.836 166.496 215.449C163.073 222.399 158.038 228.522 152.252 233.635C148.97 236.538 145.693 239.693 141.888 241.9C141.549 242.098 141.244 241.574 141.58 241.377Z" fill="url(#paint26_linear)"/>
<path d="M124.852 220.531C126.366 219.118 128.234 218.237 130.142 217.482C132.57 216.521 135.051 215.724 137.586 215.108C142.663 213.874 147.89 213.003 153.09 212.498C158.456 211.977 163.937 212.021 169.306 212.524C171.886 212.766 174.516 213.084 176.994 213.866C178.248 214.261 179.472 214.74 180.728 215.126C181.887 215.482 182.878 216.032 183.995 216.497C184.145 216.561 184.087 216.803 183.926 216.747C181.73 215.982 179.556 215.203 177.333 214.492C174.737 213.663 172.012 213.298 169.306 213.05C164.284 212.592 159.155 212.527 154.131 212.958C148.972 213.4 143.801 214.271 138.753 215.424C136.28 215.99 133.863 216.703 131.485 217.587C129.398 218.363 127.278 219.203 125.572 220.666C125.601 220.826 125.515 221.016 125.302 221.021L125.057 221.029C124.81 221.034 124.668 220.703 124.852 220.531Z" fill="#67C890"/>
<path d="M124.637 218.051C126.132 216.714 128.1 216.07 129.979 215.47C132.631 214.622 135.387 214.062 138.109 213.504C143.273 212.444 148.515 211.728 153.776 211.378C163.672 210.717 174.924 210.599 183.934 215.309C184.095 215.393 183.955 215.617 183.795 215.546C174.551 211.515 164.218 211.288 154.299 211.917C149.085 212.249 143.896 212.928 138.772 213.959C136.386 214.438 133.989 214.943 131.64 215.588C130.584 215.878 129.54 216.212 128.513 216.585C127.877 216.817 127.244 217.064 126.645 217.378C126.074 217.675 125.693 218.067 125.023 218.051C125.399 218.059 125.402 218.646 125.023 218.635C124.8 218.63 124.716 218.591 124.59 218.406C124.524 218.304 124.545 218.133 124.637 218.051Z" fill="#67C890"/>
<path d="M123.902 217.313C126.175 215.09 129.402 214.198 132.413 213.49C136.368 212.564 140.37 211.856 144.398 211.358C153.18 210.277 162.272 209.937 171.088 210.848C175.471 211.301 179.97 211.987 183.759 214.374C183.927 214.479 183.777 214.737 183.604 214.642C179.034 212.15 173.603 211.535 168.492 211.19C163.223 210.835 157.907 210.893 152.639 211.195C147.16 211.508 141.697 212.158 136.313 213.235C132.29 214.037 127.368 214.735 124.312 217.724C124.046 217.984 123.634 217.577 123.902 217.313Z" fill="#67C890"/>
<path d="M124.051 215.889C125.417 214.847 126.631 213.844 128.292 213.302C130.326 212.637 132.37 212.05 134.467 211.613C138.551 210.766 142.668 210.195 146.831 209.934C151.382 209.65 155.904 209.079 160.463 208.847C162.6 208.739 164.752 208.576 166.891 208.655C168.904 208.729 170.908 209.074 172.895 209.376C175.273 209.739 177.491 210.526 179.772 211.26C180.991 211.652 182.552 211.826 183.508 212.752C183.624 212.865 183.472 213.079 183.332 212.981C181.919 212.018 179.685 211.792 178.064 211.263C175.633 210.471 173.21 209.995 170.685 209.631C165.319 208.858 159.741 209.329 154.359 209.839C148.964 210.35 143.522 210.597 138.177 211.502C135.684 211.926 133.193 212.405 130.767 213.136C129.527 213.51 128.171 213.823 127.028 214.436C126.051 214.96 125.223 215.723 124.345 216.392C124.048 216.623 123.757 216.115 124.051 215.889Z" fill="#67C890"/>
<path d="M153.467 188.733C156.048 190.18 157.277 193.482 158.549 195.988C160.525 199.877 162.436 203.795 163.826 207.937C166.598 216.197 168.306 224.568 169.494 233.183C169.696 234.641 169.914 236.104 169.959 237.578C169.99 238.564 170.053 239.875 169.344 240.667C169.086 240.954 168.663 240.53 168.921 240.246C169.859 239.204 169.346 236.717 169.21 235.467C169.039 233.904 168.821 232.344 168.626 230.783C167.959 225.444 166.845 220.168 165.423 214.981C164.01 209.821 162.325 204.806 160.021 199.972C159.098 198.035 158.129 196.119 157.159 194.206C156.205 192.327 155.13 190.164 153.333 188.962C153.196 188.867 153.32 188.648 153.467 188.733Z" fill="#6AC98E"/>
<path d="M155.387 188.464C156.622 189.122 157.424 190.632 158.112 191.803C159.292 193.814 160.28 195.959 161.234 198.082C163.189 202.432 164.382 207.195 165.914 211.708C167.541 216.5 168.747 221.423 169.64 226.402C170.447 230.891 171.446 235.72 170.528 240.262C170.452 240.641 169.872 240.48 169.948 240.101C170.87 235.512 169.803 230.581 168.975 226.052C168.127 221.415 167.005 216.826 165.53 212.347C164.119 208.061 162.905 203.629 161.255 199.432C160.406 197.272 159.387 195.137 158.312 193.08C157.526 191.577 156.644 189.714 155.267 188.672C155.146 188.58 155.246 188.388 155.387 188.464Z" fill="#6AC98E"/>
<path d="M157.048 188.112C159.747 191.693 162.256 195.767 163.914 199.94C165.625 204.25 167.154 208.832 168.271 213.332C169.43 218.008 170.612 222.744 171.319 227.512C171.637 229.662 171.871 231.818 172.207 233.962C172.486 235.738 172.701 237.546 172.176 239.296C172.063 239.67 171.482 239.512 171.592 239.136C172.205 237.004 171.718 234.791 171.377 232.657C171.043 230.562 170.88 228.449 170.533 226.355C169.792 221.876 168.704 217.397 167.59 212.997C166.529 208.811 165.099 204.582 163.559 200.548C162.732 198.377 161.675 196.332 160.485 194.34C159.276 192.319 157.857 190.354 156.901 188.199C156.859 188.096 156.982 188.025 157.048 188.112Z" fill="#6AC98E"/>
<path d="M159.288 188.637C160.397 190.453 161.934 191.926 162.966 193.8C164.046 195.763 164.945 197.86 165.823 199.918C167.602 204.089 168.595 208.407 169.804 212.76C171.036 217.196 172.397 221.609 173.17 226.156C173.869 230.282 174.486 235.101 173.115 239.15C173.002 239.485 172.502 239.353 172.584 239.006C174.662 230.111 171.436 220.954 169.107 212.431C167.907 208.028 166.874 203.7 165.055 199.494C164.233 197.597 163.432 195.655 162.433 193.842C161.448 192.055 159.897 190.632 159.067 188.766C158.999 188.619 159.198 188.492 159.288 188.637Z" fill="#6AC98E"/>
<path d="M133.354 196.568C134.683 198.273 135.553 200.344 136.822 202.112C138.331 204.217 140.06 206.188 141.839 208.067C145.244 211.662 149.044 214.933 153.17 217.675C157.206 220.356 161.544 222.616 165.89 224.753C168.15 225.864 170.539 226.793 172.846 227.8C174.049 228.327 175.279 228.742 176.541 229.098C177.192 229.282 178.937 230.092 179.633 229.827C179.999 229.687 180.156 230.274 179.796 230.411C179.239 230.624 178.635 230.316 178.101 230.156C176.88 229.785 175.634 229.503 174.428 229.074C172.058 228.235 169.779 227.079 167.459 226.103C162.642 224.08 157.878 221.414 153.498 218.572C149.231 215.804 145.315 212.472 141.807 208.791C140.104 207.004 138.48 205.128 137.001 203.149C135.482 201.115 134.431 198.891 133.17 196.707C133.107 196.599 133.27 196.46 133.354 196.568Z" fill="#65C891"/>
<path d="M132.55 196.797C133.74 198.815 134.558 201.018 135.798 203.015C137.13 205.16 138.723 207.128 140.404 209.004C143.686 212.667 147.415 215.896 151.591 218.501C155.845 221.153 160.372 223.48 164.855 225.716C167.275 226.924 169.759 228.137 172.321 229.014C173.411 229.387 174.531 229.661 175.632 229.993C176.788 230.343 177.936 230.866 179.163 230.864C179.531 230.864 179.531 231.435 179.163 231.435C178.162 231.437 177.256 231.111 176.315 230.806C175.098 230.411 173.858 230.103 172.639 229.714C170.184 228.927 167.812 227.787 165.497 226.658C160.69 224.316 155.845 221.811 151.309 218.977C147.105 216.351 143.308 213.093 140.015 209.388C138.42 207.594 136.923 205.688 135.646 203.652C134.305 201.512 133.412 199.189 132.342 196.913C132.282 196.781 132.471 196.665 132.55 196.797Z" fill="#65C891"/>
<path d="M131.787 197.66C132.183 197.989 132.307 198.676 132.47 199.136C132.927 200.439 133.376 201.72 134.086 202.915C135.465 205.231 137.223 207.339 138.994 209.365C142.505 213.383 146.476 216.82 150.966 219.701C155.328 222.498 159.935 224.898 164.638 227.064C167.219 228.251 169.828 229.372 172.459 230.437C173.478 230.851 174.495 231.269 175.522 231.666C176.179 231.922 177.525 232.595 178.192 232.135C178.513 231.914 178.812 232.435 178.497 232.653C177.704 233.206 176.434 232.651 175.641 232.358C173.857 231.698 172.101 230.948 170.348 230.211C166.333 228.519 162.365 226.706 158.505 224.68C150.725 220.596 143.701 215.736 137.991 208.986C136.585 207.325 135.2 205.618 134.065 203.757C133.5 202.831 133.037 201.884 132.677 200.863C132.42 200.131 132.183 198.423 131.603 197.85C131.479 197.726 131.658 197.555 131.787 197.66Z" fill="#65C891"/>
<path d="M131.298 198.469C134.268 207.879 141.128 215.263 149.143 220.77C153.445 223.725 158.14 225.767 162.81 228.049C165.156 229.196 167.495 230.354 169.878 231.422C171.184 232.007 172.498 232.564 173.878 232.954C174.869 233.233 176.14 233.804 177.165 233.551C177.541 233.459 177.701 234.041 177.325 234.133C176.041 234.449 174.48 233.772 173.258 233.399C171.271 232.791 169.374 231.867 167.498 230.988C163.364 229.046 159.171 227.136 155.119 225.033C148.126 221.41 141.58 216.334 136.759 210.066C134.152 206.676 131.908 202.776 130.993 198.558C130.949 198.356 131.235 198.274 131.298 198.469Z" fill="#65C891"/>
<path d="M102.979 242.404C100.427 238.128 109.742 231.702 109.577 219.274C109.53 215.703 108.741 214.748 109.301 211.287C109.984 207.08 112.649 199.259 118.101 198.619C120.976 198.283 123.514 200.077 124.991 201.414C125.322 202.567 125.367 203.888 125.112 205.23C123.995 209.956 123.457 214.09 123.189 217.345C122.702 223.247 122.321 227.831 123.464 233.591C124.6 239.317 126.415 242.065 125.115 243.228C123.441 244.725 119.82 240.736 114.115 241.852C111.542 242.354 111.532 243.312 107.79 244.33C107.519 244.404 107.246 244.478 106.97 244.551C104.534 244.154 103.481 243.246 102.979 242.404Z" fill="#F2F2F2"/>
<path d="M131.437 226.159C131.437 226.159 131.713 226.159 132.538 224.783C133.363 223.407 133.363 224.507 132.814 225.333C132.814 225.333 133.363 225.609 134.74 225.333C136.114 225.057 136.39 225.333 135.289 226.159C134.188 226.986 131.439 226.709 131.439 226.709V226.159H131.437Z" fill="url(#paint27_linear)"/>
<path d="M131.437 225.607C131.621 226.157 131.805 226.71 131.986 227.26C129.903 228.526 126.084 230.326 121.812 229.462C113.287 227.741 109.094 216.663 110.263 209.084C110.357 208.463 111.472 201.693 114.938 201.098C116.351 200.856 117.899 201.685 118.787 202.751C120.277 204.54 119.67 206.706 119.612 209.634C119.591 210.748 119.52 219.15 124.011 223.126C125.028 224.028 127.225 225.544 131.437 225.607Z" fill="white"/>
<path d="M335.391 298.732C327.258 298.732 320.665 296.037 320.665 292.713C320.665 289.39 327.258 286.695 335.391 286.695C343.524 286.695 350.117 289.39 350.117 292.713C350.117 296.037 343.524 298.732 335.391 298.732Z" fill="#B7C0CE"/>
<path d="M320.665 292.007C320.665 295.144 327.258 297.689 335.391 297.689C343.524 297.689 350.117 295.144 350.117 292.007C350.117 288.871 343.524 283.734 335.391 283.734C327.258 283.737 320.665 288.871 320.665 292.007Z" fill="white"/>
<path opacity="0.3" d="M320.665 292.007C320.665 288.871 327.258 283.734 335.391 283.734C339.146 283.734 342.573 284.829 345.174 286.318C345.356 286.7 345.442 287.081 345.406 287.442C345.237 289.208 342.363 290.292 340.71 290.65C336.553 291.552 334.524 289.063 331.098 289.158C328.98 289.215 326.042 290.281 322.56 294.797C321.357 293.973 320.665 293.021 320.665 292.007Z" fill="url(#paint28_linear)"/>
<path d="M334.585 286.588C335.174 286.735 335.723 286.73 336.238 286.598C336.706 286.48 337.029 286.046 337.029 285.562V268.933H333.755V285.543C333.755 286.038 334.102 286.467 334.585 286.588Z" fill="white"/>
<path opacity="0.65" d="M334.585 286.588C335.174 286.735 335.723 286.73 336.238 286.598C336.706 286.48 337.029 286.046 337.029 285.562V268.933H333.755V285.543C333.755 286.038 334.102 286.467 334.585 286.588Z" fill="url(#paint29_linear)"/>
<path d="M352.694 261.931L347.691 258.763C347.483 257.579 345.123 245.203 335.551 241.316C331.656 239.735 327.468 239.924 325.168 240.027C320.578 240.232 317.304 240.379 315.73 242.571C313.709 245.387 317.099 247.94 316.397 255.992C316.111 259.276 315.383 260.734 316.289 262.91C317.375 265.515 319.895 266.96 321.855 267.773C324.196 269.136 328.274 271.075 333.661 271.549C342.732 272.346 349.506 268.449 351.835 266.957C352.87 266.631 353.648 265.768 353.869 264.702C354.094 263.626 353.624 262.52 352.694 261.931Z" fill="url(#paint30_linear)"/>
<path d="M324.163 240.69C320.768 240.79 318.657 240.75 317.491 242.268C316.266 243.86 317.504 245.218 317.733 250.892C317.943 256.063 317.031 258.107 318.7 260.973C318.7 260.973 319.548 262.428 320.886 263.523C325.616 267.388 337.822 267.341 342.959 259.27C347.058 252.831 345.347 243.342 340.533 240.2C338.176 238.666 337.635 240.29 324.163 240.69Z" fill="url(#paint31_linear)"/>
<path d="M353.06 259.086L348.057 255.918C348.057 255.918 334.658 251.508 322.258 257.726C320.87 258.423 320.006 259.86 320.006 261.415C320.006 262.607 320.721 263.684 321.822 264.144C323.984 265.623 328.207 268.065 334.027 268.704C343.282 269.72 350.167 265.476 352.201 264.112C353.236 263.786 354.014 262.923 354.235 261.857C354.458 260.781 353.99 259.676 353.06 259.086Z" fill="url(#paint32_linear)"/>
<path d="M344.828 223.656C345.926 222.943 344.925 220.867 344.867 216.409C344.793 210.946 346.244 209.928 345.08 207.786C343.658 205.165 340.077 204.081 337.701 204.031C337.178 204.02 337.055 203.734 332.672 204.87C324.773 206.92 322.794 204.723 319.257 206.918C315.838 209.036 317.336 211.36 314.017 213.844C308.638 217.872 302.981 213.517 299.137 216.888C295.5 220.075 295.416 228.198 299.242 232.63C303.577 237.653 311.398 236.145 316.637 235.148C317.741 234.937 323.309 233.766 329.108 229.48C332.317 227.109 334.519 224.577 335.92 222.712C336.248 222.341 336.76 221.891 337.438 221.82C338.25 221.733 338.905 222.23 339.22 222.448C340.873 223.596 343.748 224.356 344.828 223.656Z" fill="#1D1D1D"/>
<path d="M340.414 220.661C341.827 219.371 346.867 221.856 350.21 225.153C354.136 229.026 353.834 232.166 357.258 236.979C358.96 239.371 358.542 248.225 353.962 245.228C350.78 243.147 349.143 240.389 345.998 234.96C342.842 229.513 338.648 222.274 340.414 220.661Z" fill="white"/>
<path d="M372.253 294.335L368.317 291.967H366.54C366.54 291.967 365.936 294.222 366.004 294.335C366.795 295.632 370.479 296.622 372.779 296.703C373.16 296.717 373.693 296.719 373.83 296.443C374.066 295.972 373.023 294.988 372.253 294.335Z" fill="url(#paint33_linear)"/>
<path d="M368.248 289.382C367.996 290.848 368.316 291.614 368.661 292.04C368.902 292.343 369.118 292.427 370.561 293.674C371.036 294.087 371.281 294.308 371.225 294.424C371.162 294.556 370.742 294.485 369.833 294.266C367.854 293.79 366.861 293.543 366.616 293.064C366.396 292.632 366.59 292.437 366.577 291.261C366.569 290.488 366.411 289.864 366.288 289.472C366.942 289.443 367.594 289.414 368.248 289.382Z" fill="url(#paint34_linear)"/>
<path d="M371.091 277.765C371.091 277.765 372.87 279.889 372.581 282.218C372.292 284.546 369.178 281.141 368.745 279.991C368.311 278.841 367.804 277.202 367.804 277.202C367.804 277.202 369.985 275.842 371.091 277.765Z" fill="url(#paint35_linear)"/>
<path d="M370.414 274.441C370.414 274.441 369.93 276.917 370.853 278.222C371.31 278.872 371.93 279.425 371.746 279.954C371.625 280.309 371.163 280.564 370.771 280.522C370.022 280.446 369.605 279.293 369.313 278.48C368.879 277.28 368.638 274.714 368.638 274.714L370.414 274.441Z" fill="url(#paint36_linear)"/>
<path d="M368.997 276.528C369.544 276.328 370.09 276.128 370.637 275.931C371.491 273.981 372.531 270.776 372.182 266.879C371.289 256.861 362.036 251.553 361.009 250.985C358.489 252.25 355.935 254.037 355.843 256.29C355.727 259.118 359.574 260.613 363.19 264.747C365.36 267.229 367.681 270.926 368.997 276.528Z" fill="#376562"/>
<path d="M368.41 290.53C370.218 283.462 369.755 277.694 369.235 274.373C368.446 269.352 366.844 259.137 360.035 255.326C358.548 254.495 356.422 253.75 353.831 251.437C351.668 249.506 350.292 247.474 349.461 246.045C340.353 243.369 331.953 244.453 328.245 249.345C327.817 249.911 326.744 251.137 326.537 252.945C326.069 257.024 330.071 261.934 334.562 262.96C340.269 264.263 343.58 258.395 348.636 260.347C350.05 260.894 351.251 262.247 353.647 264.955C356.698 268.399 358.414 271.576 359.063 272.847C360.994 276.633 362.461 279.428 362.673 283.049C362.723 283.893 362.752 285.599 363.74 287.435C364.497 288.846 365.524 289.788 366.289 290.369C366.996 290.422 367.703 290.475 368.41 290.53Z" fill="#285552"/>
<path opacity="0.3" d="M326.536 252.941C326.743 251.133 327.816 249.907 328.244 249.341C331.952 244.45 340.352 243.365 349.46 246.042C350.291 247.473 351.665 249.505 353.83 251.433C356.421 253.746 358.547 254.491 360.034 255.323C364.194 257.649 366.406 262.362 367.683 266.825C365.792 263.888 364.173 263.107 362.919 263.093C361.125 263.072 360.323 264.609 358.182 264.399C355.893 264.175 355.37 262.278 353.512 262.062C352.958 261.996 352.274 262.083 351.452 262.52C350.356 261.37 349.539 260.691 348.638 260.343C343.582 258.391 340.271 264.259 334.564 262.957C330.07 261.933 326.068 257.02 326.536 252.941Z" fill="#163A38"/>
<path d="M363.689 258.486C362.659 258.431 361.072 258.399 359.156 258.589C350.07 259.489 347.563 263.989 340.053 265.089C338.276 265.349 330.364 266.504 326.938 261.926C324.478 258.639 324.851 252.973 327.539 250.744C328.677 249.802 329.805 249.829 337.099 249.895C339.845 249.918 342.591 249.929 345.337 249.963C356.962 250.11 359.185 249.305 361.301 251.231C362.289 252.129 363.731 254.057 363.689 258.486Z" fill="#376562"/>
<path d="M339.15 221.135C339.15 221.135 325.585 217.172 324.177 227.119C322.829 236.65 329.737 241.026 326.594 250.681C326.229 251.8 352.417 246.674 352.417 246.674C348.922 242.305 348.11 238.703 348.026 236.198C347.934 233.451 348.725 232.203 348.026 228.956C348.026 228.956 347.246 225.332 344.431 222.222C344.027 221.777 343.546 221.312 339.15 221.135Z" fill="#F2F2F2"/>
<path d="M330.468 248.613C330.594 248.578 343.267 245.202 350.754 244.781L350.738 244.518C343.225 244.939 330.528 248.323 330.399 248.357L330.468 248.613Z" fill="#F4F7FA"/>
<path d="M336.201 215.175C336.324 215.757 336.958 218.877 335.683 219.68C335.407 219.854 334.876 219.954 333.815 220.154C333.118 220.285 332.535 220.364 332.125 220.414C332.186 220.938 332.362 221.788 332.963 222.564C334.653 224.735 338.043 224.175 338.526 224.085C340.232 223.775 341.908 223.246 342.313 222.925C342.93 222.433 343.414 222.067 343.7 221.691C343.041 221.372 341.708 220.53 340.815 220.254C340.148 220.048 339.52 219.901 338.949 219.796C338.855 219.193 338.763 218.591 338.668 217.988C337.846 217.049 337.023 216.112 336.201 215.175Z" fill="url(#paint37_linear)"/>
<path d="M336.143 216.731C336.143 216.731 336.374 219.018 338.592 219.42C340.579 219.781 342.074 214.973 341.057 213.728C340.718 213.313 339.88 212.918 339.154 212.939C338.645 212.955 336.918 213.613 336.679 215.339C336.335 214.976 335.907 214.873 335.696 215.023C335.428 215.215 335.573 215.776 335.604 215.902C335.717 216.344 336.004 216.615 336.143 216.731Z" fill="url(#paint38_linear)"/>
<path d="M336.109 247.095C336.379 246.379 336.65 245.666 336.921 244.95C333.933 244.129 329.802 242.918 325.566 241.403C324.901 241.166 324.113 240.871 323.855 240.171C323.13 238.211 327.737 236.177 329.526 231.895C331.182 227.935 330.27 222.438 328.349 221.788C324.349 220.435 310.168 238.113 315.234 245.566C318.098 249.779 326.925 250.45 336.109 247.095Z" fill="white"/>
<path d="M339.593 249.135L343.916 232.483C344.021 232.075 344.342 231.757 344.749 231.649L360.313 227.628C361.178 227.405 361.958 228.202 361.722 229.062L356.876 246.683C356.76 247.104 356.416 247.425 355.988 247.514L340.949 250.567C340.106 250.735 339.378 249.967 339.593 249.135Z" fill="#0F2423"/>
<path d="M336.921 244.95C338.797 243.953 341.041 244.974 341.186 245.043C341.598 245.237 342.197 245.585 342.804 246.203C342.873 246.298 343.687 247.424 343.39 247.787C343.154 248.077 342.234 247.837 341.128 247.148C340.665 247.082 339.974 247.024 339.149 247.1C337.63 247.24 336.937 247.721 336.385 247.306C335.98 247.003 335.843 246.361 335.988 245.885C336.14 245.374 336.603 245.119 336.921 244.95Z" fill="url(#paint39_linear)"/>
<path opacity="0.65" d="M477.905 265.672L476.184 289.889C476.068 290.842 475.259 291.557 474.302 291.557C473.254 291.557 472.405 290.708 472.405 289.658V268.414L477.905 265.672Z" fill="url(#paint40_linear)"/>
<path opacity="0.65" d="M401.574 296.789L399.732 321.99C399.606 323.008 398.744 323.774 397.717 323.774C396.595 323.774 395.688 322.864 395.688 321.743V299.723L401.574 296.789Z" fill="url(#paint41_linear)"/>
<path opacity="0.65" d="M341.078 289.628L339.236 314.829C339.11 315.848 338.248 316.613 337.22 316.613C336.098 316.613 335.192 315.703 335.192 314.582V292.565L341.078 289.628Z" fill="url(#paint42_linear)"/>
<path d="M495.479 227.276L481.591 266.64C480.821 268.824 479.139 270.564 476.987 271.406L393.473 304.131C392.398 304.552 391.237 304.696 390.093 304.554L376.44 302.844L465.349 244.318L475.981 222.437L493.242 223.821C494.94 223.958 496.046 225.669 495.479 227.276Z" fill="#BBC9D9"/>
<path d="M338.33 285.277L418.027 259.581L443.531 257.689L472.489 264.38L398.303 292.419C394.411 293.89 391.836 297.621 391.836 301.787C391.836 303.371 390.443 304.592 388.874 304.386L333.548 297.084C332.292 296.918 331.364 295.832 331.396 294.563C331.503 290.303 334.283 286.579 338.33 285.277Z" fill="url(#paint43_linear)"/>
<path d="M493.852 223.816L493.938 223.887C489.203 223.522 484.828 226.437 483.335 230.953L472.404 264.02L417.408 259.615L430.726 226.943C432.628 222.277 437.29 219.351 442.311 219.667L493.852 223.816Z" fill="url(#paint44_linear)"/>
<path opacity="0.3" d="M451.782 227.67C457.014 226.546 464.104 227.517 468.282 232.351C472.949 237.754 472.452 246.211 469.383 251.35C467.58 254.366 455.635 262.639 455.635 262.639C455.635 262.639 437.002 270.873 434.736 271.726C420.649 277.039 417.328 271.513 407.24 276.131C397.546 280.57 397.904 286.912 385.792 291.275C381.672 292.759 375.605 294.196 374.793 292.651C374.07 291.277 377.744 287.988 380.842 285.217C384.266 282.152 387.829 278.962 394.041 275.581C406.557 268.763 412.007 273.144 419.338 267.321C422.73 264.626 422.081 263.376 427.586 254.103C436.161 239.662 442.039 229.762 451.782 227.67Z" fill="#D8DEE8"/>
<path d="M382.601 282.954C382.601 282.954 381.216 282.122 379.555 283.23C377.894 284.338 372.358 288.775 375.679 289.051C379.001 289.33 383.707 285.172 382.601 282.954Z" fill="#1D1D1D"/>
<path d="M384.26 286.005C384.26 286.005 384.815 287.944 383.43 289.055C382.045 290.162 377.746 292.652 377.063 292.105C375.678 290.997 377.893 288.223 379.278 287.392C380.66 286.557 383.154 283.786 384.26 286.005Z" fill="#1D1D1D"/>
<path d="M423.015 252.182C422.574 252.334 422.069 252.7 421.631 253.569C419.071 253.429 415.335 253.324 410.833 253.569C403.363 253.974 399.629 254.176 395.608 255.787C394.013 256.426 383.266 260.729 380.659 271.312C379.335 276.683 380.688 281.325 381.489 283.509C382.044 283.509 382.596 283.509 383.15 283.509C385.964 273.533 390.778 269.486 393.669 267.707C397.984 265.055 403.526 264.608 414.431 263.826C426.505 262.96 430.696 263.797 431.595 261.608C432.914 258.395 426.145 251.095 423.015 252.182Z" fill="#285552"/>
<path d="M436.581 263.548C435.798 264.898 434.426 266.829 432.151 268.261C423.942 273.424 415.225 264.948 405.574 269.369C403.248 270.434 400.702 273.037 395.607 278.239C390.543 283.413 386.896 288.305 383.703 287.389C383.059 287.205 382.597 286.828 382.318 286.557C383.756 281.329 386.875 273.229 393.946 266.043C396.516 263.43 400.379 259.588 406.68 257.172C416.234 253.509 424.919 255.609 428.272 256.617C431.044 258.93 433.814 261.238 436.581 263.548Z" fill="#376562"/>
<path d="M436.027 222.243C433.775 222.353 430.469 222.835 427.169 224.737C422.355 227.513 422.315 230.569 418.311 231.945C414.151 233.374 409.277 231.763 406.131 229.174C403.632 227.116 402.479 224.653 401.979 223.353C401.149 223.537 400.319 223.722 399.488 223.908C399.583 226.477 400.177 232.369 404.47 236.66C412.903 245.089 431.034 242.797 435.754 233.611C437.79 229.637 436.939 225.124 436.027 222.243Z" fill="#F2F2F2"/>
<path d="M401.796 224.236C401.796 224.236 399.512 226.557 396.593 226.497C396.094 226.486 395.839 225.884 396.18 225.518C396.995 224.65 398.395 223.339 399.898 222.763C400.319 222.602 400.503 222.105 400.308 221.7C399.985 221.029 399.654 220.137 399.956 219.779C399.956 219.779 400.448 219.505 401.147 221.134C401.428 221.784 402.815 223.026 401.796 224.236Z" fill="url(#paint45_linear)"/>
<path d="M462.878 230.559C461.136 228.715 456.225 224.005 448.205 222.244C439.778 220.392 433.062 222.923 430.765 223.907C430.153 225.428 429.278 227.82 428.55 230.838C427.013 237.207 427.688 239.896 426.335 243.867C425.489 246.348 423.696 249.785 419.413 253.293C422.154 254.735 425.625 256.929 429.102 260.224C431.446 262.445 433.259 264.658 434.638 266.6C438.275 265.816 443.297 264.174 448.203 260.5C461.783 250.337 462.76 233.401 462.878 230.559Z" fill="white"/>
<path d="M444.334 234.162C444.334 234.162 442.949 228.894 441.843 228.341C440.737 227.786 441.288 233.331 442.119 234.162C442.949 234.994 444.334 235.549 444.334 234.162Z" fill="url(#paint46_linear)"/>
<path opacity="0.3" d="M429.659 256.619C432.263 255.598 433.874 253.098 434.641 251.906C438.005 246.685 435.779 243.393 438.241 241.372C441.387 238.791 445.862 241.97 453.466 241.096C456.704 240.725 459.494 239.691 461.786 238.507C460.291 245.064 456.735 254.119 448.206 260.5C443.3 264.171 438.275 265.816 434.641 266.6C433.262 264.658 431.449 262.445 429.105 260.224C427.788 258.977 426.474 257.89 425.2 256.94C426.787 257.235 428.306 257.148 429.659 256.619Z" fill="#D5D5D5"/>
<path d="M455.961 235.273C455.112 232.818 455.459 230.455 456.791 229.452C458.865 227.889 462.449 230.273 462.882 230.56C467.817 233.842 469.291 241.652 467.589 247.749C467.034 249.733 466.125 252.985 463.158 254.956C458.41 258.111 451.52 255.898 447.655 252.738C442.659 248.651 440.738 241.357 442.673 234.165C443.04 234.165 443.411 234.165 443.779 234.165C445.345 236.715 451.594 246.667 454.576 245.53C455.202 245.291 456.878 244.107 455.961 235.273Z" fill="white"/>
<path d="M445.613 214.542C445.629 216.334 445.429 217.753 445.24 218.726C445.059 219.661 444.985 219.945 444.775 220.224C444.097 221.124 442.565 221.613 441.354 221.645C440.915 221.658 439.969 221.624 439.764 222.082C439.764 222.082 439.756 222.1 439.748 222.118C439.58 222.621 441.761 224.339 443.642 225.152C447.647 226.879 452.663 225.505 452.779 224.321C452.879 223.289 449.205 222.95 448.538 220.461C448.202 219.208 448.777 217.971 449.258 217.174C448.614 215.977 446.252 215.74 445.613 214.542Z" fill="url(#paint47_linear)"/>
<path d="M442.95 213.824C443.131 213.279 443.594 213.243 443.762 212.585C443.959 211.819 443.436 211.453 443.617 210.998C443.943 210.19 446.04 210.245 447.33 210.459C448.763 210.695 450.347 210.959 451.164 212.308C451.955 213.619 451.8 215.577 450.951 216.114C450.486 216.406 450.105 216.092 449.359 216.306C448.405 216.579 447.806 217.44 447.441 218.163C447.386 217.869 447.294 217.503 447.144 217.103C446.852 216.335 446.742 215.937 446.476 215.842C445.956 215.653 445.57 216.664 444.803 216.666C443.783 216.669 442.59 214.906 442.95 213.824Z" fill="#1D1D1D"/>
<path d="M448.777 217.397C448.777 217.397 447.686 219.005 445.684 218.774C443.892 218.568 443.826 214.516 445.019 213.716C445.416 213.45 446.188 213.369 446.806 213.574C447.168 213.695 447.287 213.855 447.883 214.042C448.435 214.216 448.595 214.161 448.758 214.311C448.96 214.5 449.092 214.942 448.682 216.105C449.042 215.774 449.46 215.661 449.746 215.813C449.791 215.837 449.912 215.929 449.975 216.058C450.203 216.534 449.751 217.103 448.777 217.397Z" fill="url(#paint48_linear)"/>
<path opacity="0.74" d="M399.489 172.601C413.487 172.601 424.834 181.422 424.834 192.3C424.834 197.568 422.172 202.355 417.839 205.889L422.059 215.283L410.625 209.999C407.262 211.281 403.483 211.999 399.487 211.999C385.489 211.999 374.142 203.179 374.142 192.3C374.142 181.419 385.491 172.601 399.489 172.601Z" fill="white"/>
<path d="M385.981 184.5C388.824 180.9 393.296 179.76 397.687 179.71C402.391 179.658 407.675 180.765 409.817 185.476C411.89 190.033 410.193 195.057 405.957 197.617C401.689 200.199 396.032 199.346 392.455 195.946C389.126 192.783 389.386 187.699 393.149 184.96C394.784 183.771 396.983 183.229 398.914 183.981C400.925 184.768 402.425 186.952 402.399 189.123C402.373 191.218 400.756 193.081 398.604 193.112C396.754 193.141 395.682 191.799 396.605 190.11C396.739 189.862 397.075 190.081 396.973 190.326C396.387 191.702 397.206 192.583 398.604 192.557C399.847 192.533 400.943 191.757 401.482 190.657C402.462 188.649 401.274 186.042 399.474 184.921C395.937 182.715 391.588 186.007 390.811 189.586C389.822 194.131 394.508 197.57 398.457 198.32C402.748 199.136 407.77 197.028 409.504 192.833C411.212 188.699 409.394 183.684 405.405 181.676C401.997 179.96 397.309 179.858 393.625 180.621C390.248 181.321 387.061 183.257 385.418 186.37C383.745 189.541 384.202 193.244 386.057 196.225C390.419 203.246 401.697 205.146 408.584 200.909C408.645 200.872 408.7 200.967 408.64 201.007C401.327 205.746 389.168 203.517 385.069 195.52C383.23 191.941 383.458 187.694 385.981 184.5Z" fill="url(#paint49_linear)"/>
<path d="M100.915 95.4989L89.905 82.0653L85.9003 85.2731L74.8901 72.6421L66.4814 80.4628L85.9003 93.8937L90.5041 90.286L100.915 95.4989Z" fill="url(#paint50_linear)"/>
<path d="M109.989 94.672L115.764 78.7017L110.814 77.5991L114.663 57.2212H101.74L102.565 82.2805L109.715 82.8305L109.989 94.672Z" fill="url(#paint51_linear)"/>
<path d="M115.765 94.6724L127.863 86.686L124.562 79.2521L139.961 62.4556L145.185 75.947L132.262 83.9335L135.286 93.8461L115.765 94.6724Z" fill="url(#paint52_linear)"/>
<defs>
<linearGradient id="paint0_linear" x1="354" y1="160.665" x2="466.315" y2="180.338" gradientUnits="userSpaceOnUse">
<stop offset="0.00359712" stop-color="#4CAB61"/>
<stop offset="1" stop-color="#7ECA9C"/>
</linearGradient>
<linearGradient id="paint1_linear" x1="415.256" y1="185.686" x2="497.532" y2="200.098" gradientUnits="userSpaceOnUse">
<stop offset="0.00359712" stop-color="#4CAB61"/>
<stop offset="1" stop-color="#7ECA9C"/>
</linearGradient>
<linearGradient id="paint2_linear" x1="331.893" y1="139.318" x2="417.824" y2="148.701" gradientUnits="userSpaceOnUse">
<stop offset="0.00359712" stop-color="#4CAB61"/>
<stop offset="1" stop-color="#7ECA9C"/>
</linearGradient>
<linearGradient id="paint3_linear" x1="55.8879" y1="265.021" x2="80.5309" y2="209.049" gradientUnits="userSpaceOnUse">
<stop stop-color="#DAE3E8"/>
<stop offset="0.9964" stop-color="#B8C6DB"/>
</linearGradient>
<linearGradient id="paint4_linear" x1="168.653" y1="266.561" x2="188.19" y2="199.616" gradientUnits="userSpaceOnUse">
<stop stop-color="#DAE3E8"/>
<stop offset="0.9964" stop-color="#B8C6DB"/>
</linearGradient>
<linearGradient id="paint5_linear" x1="56.5739" y1="231.098" x2="98.1336" y2="162.605" gradientUnits="userSpaceOnUse">
<stop stop-color="#DAE3E8"/>
<stop offset="0.9964" stop-color="#B8C6DB"/>
</linearGradient>
<linearGradient id="paint6_linear" x1="168.653" y1="232.008" x2="201.281" y2="148.001" gradientUnits="userSpaceOnUse">
<stop stop-color="#DAE3E8"/>
<stop offset="0.9964" stop-color="#B8C6DB"/>
</linearGradient>
<linearGradient id="paint7_linear" x1="299.15" y1="97.6914" x2="164.987" y2="255.156" gradientUnits="userSpaceOnUse">
<stop stop-color="#94CE78"/>
<stop offset="1" stop-color="#51C69C"/>
</linearGradient>
<linearGradient id="paint8_linear" x1="242.331" y1="201.852" x2="181.61" y2="121.847" gradientUnits="userSpaceOnUse">
<stop stop-color="#444B8C"/>
<stop offset="0.9964" stop-color="#26264F"/>
</linearGradient>
<linearGradient id="paint9_linear" x1="84.7578" y1="161.605" x2="88.1337" y2="157.098" gradientUnits="userSpaceOnUse">
<stop stop-color="#FFC444"/>
<stop offset="0.9964" stop-color="#F36F56"/>
</linearGradient>
<linearGradient id="paint10_linear" x1="117.099" y1="114.086" x2="109.4" y2="98.367" gradientUnits="userSpaceOnUse">
<stop stop-color="#FFC444"/>
<stop offset="0.9964" stop-color="#F36F56"/>
</linearGradient>
<linearGradient id="paint11_linear" x1="109.182" y1="104.439" x2="115.897" y2="120.426" gradientUnits="userSpaceOnUse">
<stop stop-color="#FFC444"/>
<stop offset="0.9964" stop-color="#F36F56"/>
</linearGradient>
<linearGradient id="paint12_linear" x1="95.4775" y1="162.795" x2="98.8534" y2="158.287" gradientUnits="userSpaceOnUse">
<stop stop-color="#FFC444"/>
<stop offset="0.9964" stop-color="#F36F56"/>
</linearGradient>
<linearGradient id="paint13_linear" x1="107.672" y1="108.85" x2="106.672" y2="114.288" gradientUnits="userSpaceOnUse">
<stop stop-color="#FFC444"/>
<stop offset="0.9964" stop-color="#F36F56"/>
</linearGradient>
<linearGradient id="paint14_linear" x1="111.78" y1="108.616" x2="110.986" y2="112.936" gradientUnits="userSpaceOnUse">
<stop stop-color="#FFC444"/>
<stop offset="0.9964" stop-color="#F36F56"/>
</linearGradient>
<linearGradient id="paint15_linear" x1="124.501" y1="285.705" x2="126.569" y2="264.365" gradientUnits="userSpaceOnUse">
<stop stop-color="#FFC444"/>
<stop offset="0.9964" stop-color="#F36F56"/>
</linearGradient>
<linearGradient id="paint16_linear" x1="98.6737" y1="283.414" x2="100.742" y2="262.074" gradientUnits="userSpaceOnUse">
<stop stop-color="#FFC444"/>
<stop offset="0.9964" stop-color="#F36F56"/>
</linearGradient>
<linearGradient id="paint17_linear" x1="134.463" y1="210.503" x2="121.397" y2="210.503" gradientUnits="userSpaceOnUse">
<stop stop-color="#AA80F9"/>
<stop offset="0.9964" stop-color="#6165D7"/>
</linearGradient>
<linearGradient id="paint18_linear" x1="122.039" y1="199.299" x2="121.487" y2="193.999" gradientUnits="userSpaceOnUse">
<stop stop-color="#FFC444"/>
<stop offset="0.9964" stop-color="#F36F56"/>
</linearGradient>
<linearGradient id="paint19_linear" x1="123.633" y1="194.095" x2="124.397" y2="208.597" gradientUnits="userSpaceOnUse">
<stop stop-color="#FFC444"/>
<stop offset="0.9964" stop-color="#F36F56"/>
</linearGradient>
<linearGradient id="paint20_linear" x1="125.237" y1="195.743" x2="125.039" y2="197.563" gradientUnits="userSpaceOnUse">
<stop stop-color="#FFC444"/>
<stop offset="1" stop-color="#F36F56"/>
</linearGradient>
<linearGradient id="paint21_linear" x1="153.144" y1="189.894" x2="156.211" y2="294.344" gradientUnits="userSpaceOnUse">
<stop stop-color="#446E8C"/>
<stop offset="0.9964" stop-color="#263E4F"/>
</linearGradient>
<linearGradient id="paint22_linear" x1="154.391" y1="189.858" x2="157.458" y2="294.308" gradientUnits="userSpaceOnUse">
<stop stop-color="#44728C"/>
<stop offset="0.9964" stop-color="#26364F"/>
</linearGradient>
<linearGradient id="paint23_linear" x1="156.188" y1="192.325" x2="157.631" y2="241.478" gradientUnits="userSpaceOnUse">
<stop stop-color="#FFC444"/>
<stop offset="0.9964" stop-color="#F36F56"/>
</linearGradient>
<linearGradient id="paint24_linear" x1="156.188" y1="192.325" x2="157.631" y2="241.478" gradientUnits="userSpaceOnUse">
<stop stop-color="#FFC444"/>
<stop offset="0.9964" stop-color="#F36F56"/>
</linearGradient>
<linearGradient id="paint25_linear" x1="156.188" y1="192.325" x2="157.631" y2="241.478" gradientUnits="userSpaceOnUse">
<stop stop-color="#FFC444"/>
<stop offset="0.9964" stop-color="#F36F56"/>
</linearGradient>
<linearGradient id="paint26_linear" x1="156.188" y1="192.325" x2="157.631" y2="241.478" gradientUnits="userSpaceOnUse">
<stop stop-color="#FFC444"/>
<stop offset="0.9964" stop-color="#F36F56"/>
</linearGradient>
<linearGradient id="paint27_linear" x1="130.951" y1="228.539" x2="139.006" y2="220.152" gradientUnits="userSpaceOnUse">
<stop stop-color="#FFC444"/>
<stop offset="0.9964" stop-color="#F36F56"/>
</linearGradient>
<linearGradient id="paint28_linear" x1="345.414" y1="289.266" x2="320.665" y2="289.266" gradientUnits="userSpaceOnUse">
<stop stop-color="#80DCF9"/>
<stop offset="0.9964" stop-color="#61ADD7"/>
</linearGradient>
<linearGradient id="paint29_linear" x1="337.03" y1="277.813" x2="333.756" y2="277.813" gradientUnits="userSpaceOnUse">
<stop stop-color="#80CDF9"/>
<stop offset="0.9964" stop-color="#619ED7"/>
</linearGradient>
<linearGradient id="paint30_linear" x1="319.135" y1="274.326" x2="325.149" y2="266.5" gradientUnits="userSpaceOnUse">
<stop stop-color="#192D44"/>
<stop offset="1" stop-color="#395E89"/>
</linearGradient>
<linearGradient id="paint31_linear" x1="332.823" y1="256.825" x2="325.089" y2="236.354" gradientUnits="userSpaceOnUse">
<stop stop-color="#192A44"/>
<stop offset="1" stop-color="#395989"/>
</linearGradient>
<linearGradient id="paint32_linear" x1="337.138" y1="260.479" x2="337.256" y2="270.5" gradientUnits="userSpaceOnUse">
<stop stop-color="#192D44"/>
<stop offset="1" stop-color="#395989"/>
</linearGradient>
<linearGradient id="paint33_linear" x1="373.865" y1="294.338" x2="366" y2="294.338" gradientUnits="userSpaceOnUse">
<stop stop-color="#311944"/>
<stop offset="1" stop-color="#6B3976"/>
</linearGradient>
<linearGradient id="paint34_linear" x1="370.156" y1="297.442" x2="358.391" y2="262.197" gradientUnits="userSpaceOnUse">
<stop stop-color="#FFC444"/>
<stop offset="0.9964" stop-color="#F36F56"/>
</linearGradient>
<linearGradient id="paint35_linear" x1="372.613" y1="279.875" x2="367.803" y2="279.875" gradientUnits="userSpaceOnUse">
<stop stop-color="#311944"/>
<stop offset="1" stop-color="#6B3976"/>
</linearGradient>
<linearGradient id="paint36_linear" x1="375.402" y1="293.101" x2="367.527" y2="269.51" gradientUnits="userSpaceOnUse">
<stop stop-color="#FFC444"/>
<stop offset="0.9964" stop-color="#F36F56"/>
</linearGradient>
<linearGradient id="paint37_linear" x1="336.423" y1="227.821" x2="339.856" y2="212.261" gradientUnits="userSpaceOnUse">
<stop stop-color="#FFC444"/>
<stop offset="0.9964" stop-color="#F36F56"/>
</linearGradient>
<linearGradient id="paint38_linear" x1="338.744" y1="213.956" x2="334.809" y2="234.195" gradientUnits="userSpaceOnUse">
<stop stop-color="#FFC444"/>
<stop offset="0.9964" stop-color="#F36F56"/>
</linearGradient>
<linearGradient id="paint39_linear" x1="341.524" y1="244.998" x2="333.97" y2="252.106" gradientUnits="userSpaceOnUse">
<stop stop-color="#FFC444"/>
<stop offset="0.9964" stop-color="#F36F56"/>
</linearGradient>
<linearGradient id="paint40_linear" x1="477.907" y1="278.611" x2="472.406" y2="278.611" gradientUnits="userSpaceOnUse">
<stop stop-color="#80CDF9"/>
<stop offset="0.9964" stop-color="#619ED7"/>
</linearGradient>
<linearGradient id="paint41_linear" x1="401.577" y1="310.278" x2="395.689" y2="310.278" gradientUnits="userSpaceOnUse">
<stop stop-color="#80CDF9"/>
<stop offset="0.9964" stop-color="#619ED7"/>
</linearGradient>
<linearGradient id="paint42_linear" x1="341.08" y1="303.117" x2="335.193" y2="303.117" gradientUnits="userSpaceOnUse">
<stop stop-color="#80CDF9"/>
<stop offset="0.9964" stop-color="#619ED7"/>
</linearGradient>
<linearGradient id="paint43_linear" x1="472.491" y1="281.046" x2="331.399" y2="281.046" gradientUnits="userSpaceOnUse">
<stop stop-color="#D8DEE8"/>
<stop offset="0.9964" stop-color="white"/>
</linearGradient>
<linearGradient id="paint44_linear" x1="493.939" y1="241.832" x2="417.41" y2="241.832" gradientUnits="userSpaceOnUse">
<stop stop-color="#D8DEE8"/>
<stop offset="0.9964" stop-color="white"/>
</linearGradient>
<linearGradient id="paint45_linear" x1="398.811" y1="228.892" x2="401.402" y2="189.711" gradientUnits="userSpaceOnUse">
<stop stop-color="#FFC444"/>
<stop offset="0.9964" stop-color="#F36F56"/>
</linearGradient>
<linearGradient id="paint46_linear" x1="442.787" y1="231.8" x2="445.378" y2="192.619" gradientUnits="userSpaceOnUse">
<stop stop-color="#FFC444"/>
<stop offset="0.9964" stop-color="#F36F56"/>
</linearGradient>
<linearGradient id="paint47_linear" x1="443.25" y1="229.531" x2="451.409" y2="212.567" gradientUnits="userSpaceOnUse">
<stop stop-color="#FFC444"/>
<stop offset="0.9964" stop-color="#F36F56"/>
</linearGradient>
<linearGradient id="paint48_linear" x1="447.284" y1="214.5" x2="445.565" y2="231.293" gradientUnits="userSpaceOnUse">
<stop stop-color="#FFC444"/>
<stop offset="0.9964" stop-color="#F36F56"/>
</linearGradient>
<linearGradient id="paint49_linear" x1="410.699" y1="191.593" x2="383.862" y2="191.593" gradientUnits="userSpaceOnUse">
<stop stop-color="#444B8C"/>
<stop offset="0.9964" stop-color="#26264F"/>
</linearGradient>
<linearGradient id="paint50_linear" x1="78.638" y1="104.757" x2="95.407" y2="82.047" gradientUnits="userSpaceOnUse">
<stop stop-color="#DAE3E8"/>
<stop offset="0.9964" stop-color="#B8C6DB"/>
</linearGradient>
<linearGradient id="paint51_linear" x1="106.691" y1="109.842" x2="124.077" y2="103.989" gradientUnits="userSpaceOnUse">
<stop stop-color="#DAE3E8"/>
<stop offset="0.9964" stop-color="#B8C6DB"/>
</linearGradient>
<linearGradient id="paint52_linear" x1="126.151" y1="107.722" x2="150.409" y2="87.8084" gradientUnits="userSpaceOnUse">
<stop stop-color="#DAE3E8"/>
<stop offset="0.9964" stop-color="#B8C6DB"/>
</linearGradient>
</defs>
</svg>
